<svg id="Capa_1" enable-background="new 0 0 511.823 511.823" height="512" viewBox="0 0 511.823 511.823" width="512" xmlns="http://www.w3.org/2000/svg"><g><path d="m352.107 98.067h-39.32c-1.619 0-3.22.073-4.812.179 4.808-22.97-1.669-47.853-19.466-65.65l-32.597-32.596-32.597 32.597c-17.797 17.797-24.273 42.679-19.466 65.65-1.592-.106-3.194-.179-4.812-.179h-39.32v56.202c0 13.641 3.821 26.406 10.447 37.283h-10.447v56.202c0 13.641 3.821 26.406 10.447 37.283h-10.447v56.202c0 39.632 32.242 71.874 71.874 71.874h9.321v98.709h30v-98.709h9.321c39.632 0 71.874-32.242 71.874-71.874v-56.202h-10.447c6.626-10.877 10.447-23.642 10.447-37.283v-56.202h-10.447c6.626-10.877 10.447-23.642 10.447-37.283zm-30 30v26.202c0 23.09-18.784 41.875-41.874 41.875h-9.321v-26.202c0-23.09 18.785-41.875 41.875-41.875zm-132.391 93.486h9.32c23.09 0 41.875 18.785 41.875 41.875v26.202h-9.321c-23.09 0-41.874-18.785-41.874-41.875zm90.517 68.077h-9.321v-26.202c0-23.09 18.785-41.875 41.875-41.875h9.32v26.202c0 23.09-18.784 41.875-41.874 41.875zm-35.705-235.82 11.384-11.384 11.384 11.384c16.326 16.327 16.326 42.894 0 59.221l-11.384 11.384-11.384-11.384c-16.326-16.328-16.326-42.894 0-59.221zm-54.812 74.257h9.32c23.09 0 41.875 18.785 41.875 41.875v26.202h-9.321c-23.09 0-41.874-18.785-41.874-41.875zm41.874 255.047c-23.09 0-41.874-18.784-41.874-41.874v-26.202h9.32c23.09 0 41.875 18.785 41.875 41.875v26.201zm90.517-41.874c0 23.09-18.784 41.874-41.874 41.874h-9.321v-26.201c0-23.09 18.785-41.875 41.875-41.875h9.32z"/></g></svg>