<svg xmlns="http://www.w3.org/2000/svg" width="285.5" height="400"><radialGradient id="a" cx="-123.626" cy="-162.0537" r="162.2711" gradientTransform="matrix(0 -1 -1.064 0 -29.6747 76.3735)" gradientUnits="userSpaceOnUse"><stop offset="0" stop-color="#32b4ba"/><stop offset=".163" stop-color="#30abba"/><stop offset=".4288" stop-color="#2b93ba"/><stop offset=".7623" stop-color="#236bba"/><stop offset="1" stop-color="#1d4bba"/></radialGradient><path d="M16.169 390c-3.402 0-6.169-2.768-6.169-6.169V16.17c0-3.402 2.768-6.17 6.169-6.17H269.33c3.402 0 6.169 2.768 6.169 6.17v367.661c0 3.401-2.769 6.169-6.169 6.169H16.169z" fill="url(#a)"/><path d="M265.5 20v360H20V20h245.5m3.831-20H16.169C7.239 0 0 7.24 0 16.17v367.661C0 392.762 7.239 400 16.169 400H269.33c8.93 0 16.169-7.238 16.169-16.169V16.17C285.5 7.24 278.261 0 269.331 0z" fill="#66c2e2"/><path d="M269.331 10c3.401 0 6.169 2.768 6.169 6.17v367.661c0 3.401-2.768 6.169-6.169 6.169H16.169c-3.402 0-6.169-2.768-6.169-6.169V16.17c0-3.402 2.768-6.17 6.169-6.17h253.162m0-10H16.169C7.239 0 0 7.24 0 16.17v367.661C0 392.762 7.239 400 16.169 400H269.33c8.93 0 16.169-7.238 16.169-16.169V16.17C285.5 7.24 278.261 0 269.331 0z" fill="#414042"/><g><linearGradient id="b" gradientUnits="userSpaceOnUse" x1="237.6895" y1="-112.6655" x2="237.6895" y2="-66.0396" gradientTransform="matrix(1 0 0 -1 -96 170)"><stop offset="0" stop-color="#70aefe"/><stop offset=".1596" stop-color="#83bcfe"/><stop offset=".5273" stop-color="#abd7fe"/><stop offset=".8203" stop-color="#c3e9fe"/><stop offset="1" stop-color="#cceffe"/></linearGradient><path d="M141.689 282.666c-4.04 0-7.983-1.043-11.405-3.016-7.408-4.271-11.831-11.858-11.831-20.297s4.423-16.025 11.831-20.297c3.422-1.974 7.366-3.017 11.405-3.017 4.04 0 7.983 1.043 11.405 3.017 7.408 4.271 11.831 11.857 11.831 20.297 0 8.438-4.423 16.024-11.831 20.297-3.422 1.973-7.365 3.016-11.405 3.016z" fill="url(#b)"/><path d="M141.689 238.541c3.528 0 7.056.895 10.157 2.682 14.105 8.133 14.105 28.129 0 36.262-3.102 1.789-6.629 2.683-10.157 2.683s-7.056-.894-10.156-2.683c-14.106-8.133-14.106-28.129 0-36.262 3.1-1.787 6.628-2.682 10.156-2.682m0-5c-4.477 0-8.853 1.159-12.654 3.352-8.191 4.723-13.082 13.119-13.082 22.461s4.891 17.739 13.082 22.463c3.801 2.191 8.177 3.351 12.654 3.351s8.853-1.158 12.654-3.351c8.191-4.724 13.082-13.121 13.082-22.463s-4.891-17.738-13.083-22.461c-3.8-2.193-8.176-3.352-12.653-3.352z" fill="#223948"/></g><g><linearGradient id="c" gradientUnits="userSpaceOnUse" x1="238.749" y1="-43.0728" x2="238.749" y2="79.1201" gradientTransform="matrix(1 0 0 -1 -96 170)"><stop offset="0" stop-color="#70aefe"/><stop offset=".1596" stop-color="#83bcfe"/><stop offset=".5273" stop-color="#abd7fe"/><stop offset=".8203" stop-color="#c3e9fe"/><stop offset="1" stop-color="#cceffe"/></linearGradient><path d="M125.454 213.073c-.837 0-1.655-.345-2.244-.947-.587-.601-.913-1.422-.894-2.255.336-15.218 11.317-29.33 21.48-37.463 12.28-9.822 19.612-20.433 19.612-28.382 0-13.365-12.381-15.361-19.762-15.361-12.532 0-21.212 6.397-26.538 19.559-.478 1.185-1.61 1.951-2.884 1.951-.539 0-1.072-.143-1.54-.413L84.89 133.741c-1.353-.78-1.926-2.459-1.333-3.904 10.004-24.394 32.925-38.957 61.313-38.957 14.997 0 28.437 4.539 39.946 13.491 11.518 8.959 17.356 21.477 17.356 37.204 0 21.688-14.052 35.03-25.344 45.75-8.304 7.885-15.476 14.692-15.753 22.755-.057 1.677-1.409 2.992-3.081 2.992l-32.54.001z" fill="url(#c)"/><path d="M144.872 93.381c14.676 0 27.401 4.4 38.411 12.964 11.009 8.564 16.393 20.308 16.393 35.231 0 36.127-40.369 47.265-41.095 68.418-.013.322-.261.578-.583.578h-32.544c-.351 0-.646-.295-.638-.646.314-14.206 10.905-27.854 20.543-35.566 9.789-7.829 20.55-19.572 20.55-30.334 0-11.501-8.316-17.861-22.263-17.861-13.489 0-23.188 7.116-28.854 21.121-.097.241-.327.389-.566.389a.5722.5722 0 01-.29-.078l-27.796-16.02c-.271-.156-.387-.5-.268-.789 9.899-24.142 32.761-37.407 59-37.407m0-5c-14.039 0-27.268 3.596-38.259 10.398-11.415 7.066-20.187 17.478-25.367 30.109-1.066 2.602-.034 5.618 2.399 7.02l27.795 16.021c.846.488 1.81.746 2.786.746 2.297 0 4.339-1.379 5.202-3.515 4.898-12.108 12.82-17.995 24.218-17.995 7.875 0 17.262 2.231 17.262 12.861 0 7.197-6.981 17.077-18.674 26.429-10.605 8.486-22.063 23.283-22.418 39.361-.032 1.504.553 2.981 1.607 4.06 1.056 1.079 2.524 1.697 4.03 1.697h32.544c3.024 0 5.476-2.374 5.58-5.405.241-7.041 7.069-13.523 14.976-21.03 11.639-11.05 26.122-24.801 26.122-47.562 0-16.54-6.165-29.721-18.323-39.178-11.957-9.301-25.914-14.017-41.48-14.017z" fill="#223948"/></g></svg>