<svg xmlns="http://www.w3.org/2000/svg" width="346" height="400"><style>.st22{fill:#4c4814}.st24{fill:#4d491a}.st51{display:none;fill:#d1b886}.st184{fill:#918e5a}.st196{fill:#936037}.st236{display:inline}.st250{fill:#d1b886}.st358{display:none}.st367{fill:#a5856a}</style><g id="Hexagons_OLD" class="st358"><g id="Desrt" class="st236"><radialGradient id="SVGID_1_" cx="173.2" cy="200" r="175.2" gradientUnits="userSpaceOnUse"><stop offset="0" stop-color="#d7d0a0"/><stop offset="1" stop-color="#b8ab5d"/></radialGradient><path fill="url(#SVGID_1_)" d="M11 293.6V106.4l162.2-93.7 162.2 93.7v187.2l-162.2 93.7z"/><path d="M173.2 25.4l151.2 87.3v174.6l-151.2 87.3L22 287.3V112.7l151.2-87.3m0-25.4L0 100v200l173.2 100 173.2-100V100L173.2 0z" fill="#d3b992"/><path d="M173.2 13.9l161.2 93v186.2l-161.2 93-161.2-93V106.9l161.2-93m0-13.9L0 100v200l173.2 100 173.2-100V100L173.2 0z" fill="#e6ab23"/><radialGradient id="SVGID_2_" cx="173.7" cy="203.9" r="173.8" gradientUnits="userSpaceOnUse"><stop offset=".2" stop-color="#d1c993"/><stop offset=".9" stop-color="#d1c993" stop-opacity=".1"/><stop offset="1" stop-color="#d1c993" stop-opacity="0"/></radialGradient><path class="st367" d="M91 223.6c-1.7 0-3.2.4-4.5 1.1a11.4 11.4 0 00-11-7.3c-6.2 0-11.4 4.7-11.4 10.4l.1 1.2H64c-5.3 0-9.6 3.4-9.6 7.5s4.4 5.9 9.7 5.9c4.7 0 7.2-1.3 9.4-4.5.7.2 3.5-1.8 4.3-1.8 2.3-.2 4.3-.6 7-2 1.8.8 4.8.3 7.3.3 4.4 0 6.9-.8 6.9-4.3s-3.6-6.5-8-6.5zM295.3 230.7a12 12 0 00-5.8 1.5 15 15 0 00-14.4-9.9c-8.3 0-15 6.3-15 14l.1 1.7h-.4c-7 0-12.6 4.5-12.6 10s5.8 8 12.7 8c6.1 0 9.4-1.7 12.3-6 1 .2 4.7-2.4 5.7-2.5 3-.2 5.6-.8 9.2-2.7 2.3 1.1 6.2.5 9.6.5 5.7 0 9-1.1 9-5.9s-4.6-8.7-10.4-8.7zM237.3 280a12 12 0 00-5.8 1.4 15 15 0 00-14.4-9.8c-8.3 0-15 6.3-15 14l.1 1.7h-.4c-7 0-12.6 4.5-12.6 10s5.8 8 12.7 8c6.1 0 9.4-1.8 12.3-6 1 .2 4.7-2.5 5.7-2.5 3-.3 5.6-.8 9.2-2.8 2.3 1.2 6.2.5 9.6.5 5.7 0 9-1 9-5.8s-4.6-8.7-10.4-8.7z"/><g><path class="st250" d="M63.8 229.7c-4 0-8.1 2.6-8.1 5.2 0 2.7 3.6 6.5 7.3 4.8 6.3-3 7.2-3.3 7.2-6s-2.3-4-6.4-4z"/><path class="st250" d="M75.6 218.2c-5.4 0-10.1 3.4-10.1 6.6s4.6 7.4 9.8 5.9c4.3-1.3 6.1-3 9.8-5.9 2.5-2-4-6.6-9.5-6.6zM92 224.2c-2.2-.1-4.7.1-5 2.1-.2 2.6 2 1.8 5 1.8s6 1.4 6-.5-3.6-3.3-6-3.4zM260.6 236.9c-5.2-.5-10.6 2.7-11 6.3-.3 3.6 4 9.3 8.8 7.3 8.3-3.3 9.5-3.7 9.8-7.3.3-3.6-2.5-5.9-7.6-6.3z"/><path class="st250" d="M276.9 222.3c-6.9-.6-13.2 3.6-13.6 8-.4 4.5 5 10.7 11.7 9.2 5.6-1.3 8.1-3.4 13.1-7 3.4-2.4-4.3-9.6-11.2-10.2zM297 232.4c-3-.4-6.1-.3-6.6 2.4-.7 3.6 2.2 2.7 6 3 3.8.4 7.4 2.6 7.7 0s-4.2-5-7.2-5.4zM202.5 287c-5.1-.4-10.5 2.7-10.8 6.3-.3 3.6 3.9 9.4 8.7 7.3 8.3-3.4 9.5-3.7 9.8-7.4.3-3.6-2.5-5.8-7.7-6.2zM218.8 272.3c-6.9-.5-13.2 3.6-13.6 8.1-.3 4.4 5 10.6 11.8 9 5.6-1.2 8-3.4 13-7 3.5-2.4-4.3-9.5-11.2-10zM238.9 282.3c-2.9-.4-6-.3-6.5 2.4-.7 3.6 2.2 2.7 6 3 3.8.3 7.4 2.5 7.7 0s-4.2-5-7.2-5.4z"/></g><g><path d="M170.6 152.1c-5.6 0-8.9-1.2-10.6-4-1.6-2.5-1.5-5.8-1.5-10.1v-12.3h-9.8c-.7 0-1.5-.1-2.2-.3-3.9-1.3-4.4-5.4-4.4-9.2l.1-9.3c0-2.3 1-5 5.8-5 4.2 0 6.2 2.2 6.2 6.8v2.4h4.3V66.4c0-4.1 5.7-9.4 12-9.4h4.2c6.7 0 12.2 5.4 12.2 12.1v20.1h3.9v-6.2c0-6.3 3.2-9.7 9-9.7s9.1 3.4 9.1 9.7l-.4 16.1c0 6.3-3.5 8.6-6.4 9.4h-.2c-1 .3-2 .4-3.2.4h-11.8v32.6c0 3 0 5.9-2 8-1.9 1.9-5.1 2.7-10.2 2.7h-4.1z" fill="#b5b47c"/><path class="st22" d="M174.7 58.4c5.9 0 10.7 4.8 10.7 10.6v21.6h6.9v-7.7c0-5.5 2.5-8.2 7.5-8.2s7.6 2.7 7.6 8.2l-.4 16c0 4.4-1.7 7-5.3 8h-.1c-1 .3-1.9.4-2.9.4h-13.3V140c0 5.9 1 10.6-10.7 10.6h-4.1c-11 0-10.6-4.7-10.6-13.3v-13.1h-11.3a6 6 0 01-1.7-.3h-.1c-2.2-.7-3.3-2.7-3.3-7.7l.1-9.3c0-2.3 1.3-3.5 4.3-3.5s4.6 1.2 4.6 5.3v4h4c1.3 0 2.4 0 3.4.2V66.3c0-3.1 4.7-8 10.6-8h4.1m0-3h-4.1c-3.4 0-6.7 1.3-9.4 3.6-2.7 2.1-4.2 5-4.2 7.4v43.3h-1.4v-1c0-6.7-4.1-8.2-7.6-8.2-6.6 0-7.3 4.6-7.3 6.5v9.3c0 4.1.5 9 5.2 10.6h.2a9 9 0 002.6.4h8.3V138c0 4.5 0 8 1.7 11 2.6 4.1 7.7 4.6 11.9 4.6h4.1c5.6 0 9-1 11.2-3.2 2.6-2.5 2.5-6 2.5-9V110.3h10.3a14.8 14.8 0 003.8-.5c2.8-.7 7.5-3.1 7.5-10.8l.4-16c0-7.2-3.8-11.3-10.6-11.3s-10.5 4-10.5 11.2v4.7h-1V69c0-7.5-6-13.6-13.6-13.6z"/></g><g><path class="st184" d="M200 103.4c-1.4 0-5.2 1-7.7-1V90.6h-7V69c0-6-5.2-9.9-8.3-10.2-.4 3.2 0 87.4 0 89 0 1.5-1.5 1.9-1.8 1.8-7.4.5-9-.3-13.4-3-1-1.3-.7-23.6-.7-23.6-1-.2-3.2-.3-4.5-.3h-4l-7 .2c0 1.4 4.4 1.3 6 1.3h8.3v13.2c0 8.5-.3 13.3 10.7 13.3h4.1c11.7 0 10.6-4.8 10.6-10.7v-32.7h13.4c1 0 2 0 2.8-.3h.2c3.5-1 5.3-3.7 5.3-8l.4-17.4c-.1-4.3-5-7.6-5.5-6-1.8 5.7 1.4 27.7-1.9 27.9z"/></g><g><path class="st22" d="M146.7 102.8h-1.2v18.4h14.2V120h-13z"/><path class="st22" d="M150.4 116.4v-13.8h-1.2v15h10.6v-1.2zM196.3 73.8h1.2v22.8h-1.2zM202.6 74.4h1.2v28.4h-1.2z"/><path class="st22" d="M185.2 101.7h18.4v1.2h-18.4zM185.2 95.4h11.7v1.2h-11.7z"/><g><path class="st22" d="M172.1 56.9h1.5v95.8h-1.5zM164.3 56.9h1.5v95.8h-1.5zM179.3 56.9h1.5v95.8h-1.5z"/></g></g></g></g><g id="Hexagons"><g id="Desert"><radialGradient id="SVGID_3_" cx="173" cy="200" r="187.1" gradientUnits="userSpaceOnUse"><stop offset="0" stop-color="#dbd497"/><stop offset=".4" stop-color="#d4cc8e"/><stop offset="1" stop-color="#c0b776"/><stop offset="1" stop-color="#bfb675"/></radialGradient><path fill="url(#SVGID_3_)" d="M-.2 100v200L173 400l173.2-100V100L173 0z"/><linearGradient id="SVGID_4_" gradientUnits="userSpaceOnUse" x1="173" y1="400" x2="173" y2="0"><stop offset="0" stop-color="#ded09e"/><stop offset=".2" stop-color="#d8cb9a"/><stop offset=".5" stop-color="#cfc393"/><stop offset=".7" stop-color="#877d52"/></linearGradient><path d="M173 33.5l144.2 83.2v166.6L173 366.5 28.8 283.3V116.7L173 33.5M173 0L-.2 100v200L173 400l173.2-100V100L173 0z" fill="url(#SVGID_4_)"/><linearGradient id="SVGID_5_" gradientUnits="userSpaceOnUse" x1="173" y1="0" x2="173" y2="400"><stop offset="0" stop-color="#ded09e"/><stop offset=".2" stop-color="#d8cb9a"/><stop offset=".5" stop-color="#cfc393"/><stop offset=".7" stop-color="#877d52"/><stop offset="1" stop-color="#cfc393"/></linearGradient><path d="M173 28.9l148.2 85.5v171.2L173 371 24.8 285.6V114.4L173 29M173 0L-.2 100v200L173 400l173.2-100V100L173 0z" fill="url(#SVGID_5_)"/><path d="M173 15l160.2 92.5v185L173 385 12.8 292.5v-185L173 15m0-15L-.2 100v200L173 400l173.2-100V100L173 0z" fill="#877d52"/><path d="M173 12.7l162.2 93.6v187.3L173 387.3 10.8 293.6V106.4L173 12.7M173 0L-.2 100v200L173 400l173.2-100V100L173 0z" fill="#e0b568"/><g><path class="st196" d="M90.7 135.6c-1.6 0-3.1.4-4.4 1a11.4 11.4 0 00-11-7.2c-6.2 0-11.4 4.6-11.4 10.3l.1 1.3h-.3c-5.3 0-9.6 3.3-9.6 7.4s4.4 6 9.7 6c4.6 0 7.1-1.4 9.4-4.5.7.1 3.5-1.8 4.2-1.9 2.4-.2 4.4-.6 7-2 1.9.8 4.9.3 7.4.3 4.4 0 6.9-.7 6.9-4.3s-3.6-6.4-8-6.4zM295 142.7a12 12 0 00-5.7 1.4 15 15 0 00-14.4-9.8c-8.3 0-15 6.3-15 14l.1 1.7h-.4c-7 0-12.6 4.5-12.6 10s5.8 8 12.7 8c6.1 0 9.4-1.8 12.3-6 1 .2 4.6-2.5 5.6-2.5 3.1-.3 5.7-.8 9.3-2.7 2.3 1 6.2.4 9.6.4 5.7 0 9-1 9-5.8s-4.7-8.7-10.4-8.7z"/></g><g><path class="st250" d="M63.6 141.7c-4 0-8.1 2.6-8.1 5.2s3.6 6.5 7.3 4.7c6.3-3 7.2-3.3 7.2-5.9s-2.3-4-6.4-4zM75.4 130.2c-5.4 0-10.1 3.4-10.1 6.6 0 3.2 4.6 7.3 9.8 5.8 4.3-1.2 6.1-3 9.8-5.8 2.5-2-4-6.6-9.5-6.6zM91.8 136.1c-2.2 0-4.7.2-5 2.2-.2 2.6 2 1.8 5 1.8s6 1.3 6-.5-3.6-3.4-6-3.5zM260.4 148.8c-5.2-.4-10.6 2.7-11 6.3-.3 3.6 3.9 9.4 8.8 7.4 8.3-3.4 9.5-3.7 9.8-7.4.3-3.6-2.5-5.8-7.6-6.3z"/><path class="st250" d="M276.7 134.3c-6.9-.6-13.2 3.5-13.6 8s5 10.6 11.7 9.1c5.6-1.2 8.1-3.4 13.1-7 3.4-2.4-4.4-9.5-11.2-10.1zM296.7 144.3c-2.8-.3-6-.3-6.5 2.4-.7 3.6 2.2 2.7 6 3 3.8.4 7.4 2.6 7.7 0 .2-2.6-4.2-5-7.2-5.4z"/><path class="st51" d="M202.3 199c-5.1-.5-10.5 2.7-10.8 6.3-.3 3.6 3.9 9.3 8.7 7.3 8.3-3.4 9.5-3.8 9.8-7.4s-2.5-5.8-7.7-6.3zM218.6 184.3c-6.9-.6-13.2 3.6-13.6 8-.3 4.5 5 10.7 11.8 9.1 5.6-1.2 8-3.4 13-7 3.5-2.5-4.4-9.6-11.2-10.1zM238.7 194.2c-2.9-.3-6-.3-6.5 2.4-.7 3.6 2.2 2.8 6 3 3.8.4 7.4 2.6 7.6 0s-4.1-5-7.1-5.4z"/></g><g><path d="M170.4 152.1c-5.6 0-8.9-1.2-10.6-4-1.6-2.5-1.6-5.8-1.5-10.1v-12.3h-9.8c-.7 0-1.5-.1-2.2-.3-3.9-1.3-4.4-5.4-4.4-9.2l.1-9.3c0-2.3 1-5 5.8-5 4.2 0 6.1 2.2 6.1 6.8v2.4h4.4V66.4c0-4.1 5.7-9.4 12-9.4h4.2c6.7 0 12.1 5.4 12.1 12.1v20.1h4v-6.2c0-6.3 3.2-9.7 9-9.7s9.1 3.4 9.1 9.7l-.4 16.1c0 6.3-3.5 8.6-6.4 9.4h-.2c-1 .3-2 .4-3.2.4h-11.9v32.6c.1 3 .2 5.9-2 8-1.8 1.9-5 2.7-10 2.7h-4.2z" fill="#b5b57c"/><path class="st24" d="M174.5 58.4c5.9 0 10.6 4.8 10.6 10.6v21.6h7v-7.7c0-5.5 2.5-8.2 7.5-8.2s7.6 2.7 7.6 8.2l-.4 16c0 4.4-1.7 7-5.3 8h-.1c-1 .3-1.9.4-2.9.4h-13.4V140c0 5.9 1.2 10.6-10.6 10.6h-4.1c-11 0-10.6-4.7-10.6-13.3v-13.1h-11.3a6 6 0 01-1.7-.3h-.1c-2.2-.7-3.3-2.7-3.3-7.7l.1-9.3c0-2.3 1.3-3.5 4.3-3.5s4.6 1.2 4.6 5.3v4h4c1.3 0 2.4 0 3.4.2V66.3c0-3.1 4.7-8 10.6-8h4.1m0-3h-4.1c-3.4 0-6.7 1.3-9.4 3.6-2.7 2.1-4.2 5-4.2 7.4v43.3h-1.4v-1c0-6.7-4.1-8.2-7.6-8.2-6.6 0-7.3 4.6-7.3 6.5v9.3c0 4.1.5 9 5.2 10.6h.2a9 9 0 002.6.4h8.3V138c0 4.5 0 8 1.7 11 2.6 4.1 7.7 4.6 11.9 4.6h4.1c5.6 0 9-1 11.2-3.2 2.6-2.5 2.5-6 2.5-9V110.3h10.3a14.8 14.8 0 003.8-.5c2.8-.7 7.5-3.1 7.5-10.8l.4-16c0-7.2-3.8-11.3-10.6-11.3s-10.5 4-10.5 11.2v4.7h-1V69c0-7.5-6-13.6-13.6-13.6z"/></g><g><path class="st184" d="M199.8 103.4c-1.4 0-5.2 1-7.7-1V90.6h-7V69c0-6-5.2-9.9-8.3-10.2-.4 3.2 0 87.4 0 89 0 1.5-1.5 1.9-1.8 1.8-7.4.5-9-.3-13.5-3-1-1.3-.7-23.6-.7-23.6-.9-.2-3-.3-4.4-.3h-4l-7 .2c0 1.4 4.4 1.3 6 1.3h8.3v13.2c0 8.5-.3 13.3 10.7 13.3h4c11.8 0 10.7-4.8 10.7-10.7v-32.7h13.4c1 0 2 0 2.8-.3h.2c3.5-1 5.3-3.7 5.3-8l.3-17.4c0-4.3-4.9-7.6-5.4-6-1.8 5.7 1.4 27.7-1.9 27.9z"/></g><g><path class="st24" d="M146.5 102.8h-1.2v18.4h14.2V120h-13z"/><path class="st24" d="M150.2 116.4v-13.8H149v15h10.6v-1.2zM196.1 73.8h1.2v22.8h-1.2zM202.4 74.4h1.2v28.4h-1.2z"/><path class="st24" d="M185 101.7h18.4v1.2H185zM185 95.4h11.7v1.2H185z"/><g><path class="st24" d="M171.9 56.9h1.5v95.8h-1.5zM164.1 56.9h1.5v95.8h-1.5zM179.1 56.9h1.5v95.8h-1.5z"/></g></g></g></g></svg>