<svg xmlns="http://www.w3.org/2000/svg" width="346" height="400"><style>.st75,.st77{display:none;fill:#a2c62f}.st77{fill:#769113}.st230{fill:#fff}.st242{display:inline}.st253{fill:#6aaf08}.st254{fill:#6d6e71}.st255{fill:#6e6f72}.st257{fill:#d1d3d4}.st364{display:none}.st369{fill:#a2c62f}.st371{fill:#a3cc25}.st374{fill:#769113}.st381{fill:#a7a9ac}</style><g id="Hexagons_OLD" class="st364"><g id="Wool_1_" class="st242"><radialGradient id="SVGID_1_" cx="173.2" cy="200" r="175.2" gradientUnits="userSpaceOnUse"><stop offset="0" stop-color="#a4e926"/><stop offset="1" stop-color="#92d021"/></radialGradient><path fill="url(#SVGID_1_)" d="M11 293.6V106.4l162.2-93.7 162.2 93.7v187.2l-162.2 93.7z"/><path d="M173.2 25.4l151.2 87.3v174.6l-151.2 87.3L22 287.3V112.7l151.2-87.3m0-25.4L0 100v200l173.2 100 173.2-100V100L173.2 0z" fill="#97ef5e"/><path d="M173.2 13.9l161.2 93v186.2l-161.2 93-161.2-93V106.9l161.2-93m0-13.9L0 100v200l173.2 100 173.2-100V100L173.2 0z" fill="#e6ab23"/><radialGradient id="SVGID_2_" cx="173.7" cy="200.6" r="173.8" gradientUnits="userSpaceOnUse"><stop offset=".2" stop-color="#d4ff40" stop-opacity=".8"/><stop offset=".4" stop-color="#d1ff3f" stop-opacity=".6"/><stop offset=".5" stop-color="#c8fe3d" stop-opacity=".5"/><stop offset=".6" stop-color="#b8fc3a" stop-opacity=".4"/><stop offset=".7" stop-color="#a2fa36" stop-opacity=".3"/><stop offset=".8" stop-color="#86f730" stop-opacity=".2"/><stop offset=".9" stop-color="#64f428" stop-opacity=".1"/><stop offset="1" stop-color="#40f021" stop-opacity="0"/></radialGradient><path class="st253" d="M71.9 212.3s-5-3.6-8.3-4.4c-3.4-.7-10-1.6-10.8-1.2S64 217.4 66 222.5c3 5 4.7 12.5 6.4 14.3 1.7 1.8 1.9 1.7 4.1 1.6 2.3-.2 3.6-2.6 3.6-2.6v-8.3s-.7-5.3-2.3-8.3-6-7-6-7zM100.7 210.5c-.5-.3-5.2.4-7.6 1-2.3.7-5.8 3.6-5.8 3.6s-3 3.4-4.2 5.8c-1.1 2.5-1.6 6.9-1.6 6.9v6.9s1 2 2.6 2.1c1.5.2 1.7.2 2.9-1.3s2.3-7.6 4.4-11.9c1.5-4.2 9.8-12.7 9.3-13zM97.6 228s-2.1.1-3 .8l-2.5 2.3-1 2.2s0 2.2.6 2.6c.6.4 1.6.1 2.4-.2s2-2.5 3.7-3.7c1.4-1.3 7.1-2.2 7-2.5-.2-.2-3-1.5-4-1.8-1.2-.2-3.2.2-3.2.2zM65.1 230c-1-1.3-3.7-3-3.7-3s-2.8-1.4-4.7-1.5c-1.9-.1-5.5 0-5.8.2s6.7 4.5 8.2 6.9c2 2.3 3.4 5.8 4.5 6.6 1 .8 1.1.7 2.3.4 1.2-.2 1.7-1.5 1.7-1.5l-.6-4.2s-.8-2.6-1.9-4zM222.8 261.1s-4.9-3.5-8.2-4.3a42 42 0 00-10.8-1.2c-.7.4 11.1 10.7 13.2 15.8 3 5 4.6 12.5 6.4 14.3s1.9 1.7 4 1.5c2.3-.2 3.7-2.6 3.7-2.6v-8.2s-.7-5.4-2.3-8.3c-1.7-3-6-7-6-7zM251.7 259.4c-.5-.4-5.2.4-7.6 1-2.3.6-5.8 3.6-5.8 3.6s-3 3.3-4.2 5.8c-1.1 2.4-1.6 6.9-1.6 6.9v6.8s1 2 2.5 2.2c1.6.1 1.7.2 3-1.3s2.3-7.7 4.4-11.9c1.5-4.2 9.8-12.7 9.3-13.1zM248.6 276.8s-2.1.2-3 .9l-2.6 2.2-1 2.3s0 2.2.6 2.6c.7.3 1.6 0 2.4-.2s2-2.5 3.8-3.7c1.4-1.3 7-2.3 7-2.5-.2-.3-3-1.6-4-1.8-1.2-.2-3.2.2-3.2.2zM216.1 278.8c-1-1.3-3.7-3-3.7-3s-2.9-1.3-4.7-1.5c-1.9 0-5.5 0-5.9.3s6.8 4.5 8.3 6.8c2 2.3 3.4 5.9 4.4 6.7 1 .7 1.2.7 2.4.4s1.7-1.6 1.7-1.6l-.6-4.1s-.8-2.6-1.9-4zM268.3 201.8s-4.9-3.5-8.2-4.3-10.1-1.6-10.8-1.2c-.7.4 11.1 10.7 13.2 15.8 3 5 4.6 12.5 6.4 14.3s1.9 1.7 4 1.5c2.3-.1 3.7-2.6 3.7-2.6v-8.2s-.7-5.4-2.3-8.3-6-7-6-7zM297.2 200.1c-.5-.3-5.2.4-7.6 1s-5.8 3.6-5.8 3.6-3 3.4-4.2 5.8-1.6 6.9-1.6 6.9v6.8s1 2 2.5 2.2c1.6.1 1.7.2 3-1.3 1.2-1.5 2.3-7.7 4.4-11.9 1.5-4.2 9.8-12.7 9.3-13zM297.2 217.3c-1.1-.2-3.1.2-3.1.2s-2.1.2-3 1c-1 .6-2.6 2.2-2.6 2.2l-1 2.2s0 2.2.6 2.6 1.6.1 2.4-.2 2-2.5 3.8-3.7c1.4-1.3 7-2.3 7-2.5-.2-.2-3-1.5-4-1.8zM261.6 219.6c-1-1.4-3.7-3-3.7-3s-2.9-1.4-4.7-1.5c-1.9-.2-5.5 0-5.9.2-.3.3 6.8 4.5 8.3 6.8 2 2.3 3.4 6 4.4 6.7s1.2.7 2.4.4 1.7-1.6 1.7-1.6l-.6-4.1s-.8-2.6-1.9-4z"/><g><path class="st371" d="M73.5 214l-4.4-3.6-5.7-3.1-3.8-.8h-3.9l-2.6.3 4.4 2.7 2.7 1.7c-.4 0 4.8 4.6 7.6 7.1l2.7 3.4 2.4 1.6s2.3 1.7 3.1 1.1c.9-.6.8-1.7.8-1.7s.5-1.1-.4-3.8c-1-2.7-3-5-3-5zM97.9 212l2.3-1.3-4.2.2s-4 1.1-4.3 1.3l-3.8 2.6-3 3.4c-.4.7-1.6 2-1.6 2.3l-.3 1.2s-.5 1.1 1.1 1.2c1.6 0 3.4-2.4 3.4-2.4l2.6-2.9 2.6-2 3-2 2.2-1.6zM62.3 227.5l-2.7-1.3c-.4-.3-3.3-.6-4-.7s-3.4.1-3.8.2c-.3.1 2.3.7 2.3.7l1.1.6 4 2 2.9 2.3s1.8.7 2.6.5c.7-.2.2-2.2 0-2.4l-2.4-1.9zM99.4 227l-3.1.8s-1.2.2-1.6 1.4c-.4 1.2 0 1.2 0 1.2l.4-.2 2-1.7 2.5-.4h2.8l1.6.3-1-.6-3.6-.7zM269.6 203.5l-4.3-3.6-5.8-3.1-3.7-.7h-4l-2.5.2 4.3 2.7 2.7 1.8c-.4 0 4.8 4.5 7.6 7l2.7 3.5 2.5 1.6s2.2 1.7 3 1c1-.6.8-1.7.8-1.7s.6-1-.4-3.8c-1-2.6-3-4.9-3-4.9zM294 201.6l2.3-1.4-4.2.2s-4 1.1-4.3 1.3l-3.7 2.6s-2.6 2.8-3 3.5-1.6 1.9-1.6 2.2l-.4 1.2s-.4 1.1 1.1 1.2c1.6.1 3.4-2.4 3.4-2.4l2.7-2.8 2.5-2.1 3-2 2.2-1.5zM258.4 217c-.3-.2-2.3-1-2.6-1.3-.4-.2-3.4-.6-4-.7l-3.9.3c-.4 0 2.3.7 2.3.7l1.1.5 4 2 3 2.3s1.7.7 2.5.5c.8-.1.3-2.2 0-2.4l-2.4-1.8zM299.2 217.3l-3.6-.7-3.2.7s-1.1.2-1.6 1.5c-.4 1.2 0 1.2 0 1.2l.5-.3 2-1.6 2.4-.5h2.8l1.6.4-1-.7zM224.4 262.7l-4.3-3.6-5.7-3.1-3.8-.7h-3.9l-2.6.2 4.4 2.7 2.7 1.8c-.5 0 4.8 4.5 7.5 7l2.8 3.5 2.4 1.6s2.3 1.7 3.1 1c.9-.6.8-1.7.8-1.7s.5-1-.4-3.8c-1-2.6-3-4.9-3-4.9zM248.9 260.8l2.3-1.4-4.2.2s-4 1.1-4.3 1.3l-3.8 2.6-3 3.5c-.4.7-1.6 1.9-1.6 2.2l-.3 1.2s-.5 1.1 1 1.2 3.4-2.4 3.4-2.4l2.7-2.8 2.6-2.1 3-2 2.2-1.5zM213.3 276.3c-.4-.3-2.4-1.1-2.7-1.4-.3-.2-3.3-.6-4-.7l-3.8.3c-.4 0 2.2.7 2.2.7l1.2.5 4 2 2.9 2.3s1.8.7 2.5.5c.8-.1.3-2.2 0-2.4-.2-.3-2-1.6-2.3-1.8zM250.4 275.8l-3.2.7s-1 .3-1.5 1.5 0 1.2 0 1.2l.4-.3 2-1.6 2.5-.5h2.7l1.7.4-1-.7-3.6-.7z"/></g><g><path class="st381" d="M225.1 109c-1.8 0-3.3-.2-4.5-.7l-.9-.4c-.8-.3-1.7-.6-2.4-1.1-1.9-1.3-5.7-3.9-6.2-8.6-.2-1.5 0-4.5.5-6.4.5-1.8 2-4.3 2.2-4.6l.3-.5.6-.2c1.7-.4 3.8-1 4.5-1h.2c1.1.2 2 .6 2.6.9.6.3 1 .4 1.3.4h.2l.4-.1c.3-.2.8-.4 1.5-.4h.1c1.2 0 2.4 1 3.2 1.6l.3.3c1.6 1.2 2.7 2.6 3.8 4l.9 1.1c1.3 1.6 3 4 3.4 6.9.4 3-1 6.1-3.4 7.4-.7.4-1.6.7-2.6.8-1.6.3-3.8.7-6 .7z"/><path class="st254" d="M219.2 87c1.8.3 2.6 1.3 4.1 1.3h.4c.6 0 1-.5 1.7-.5.9 0 2 1 2.7 1.6 1.8 1.4 3 3.1 4.4 4.9 1.5 1.8 2.8 3.8 3.1 6s-.6 5-2.6 6c-.7.4-1.4.5-2.1.7-1.7.2-3.8.6-5.8.6a10 10 0 01-4-.7c-.8-.4-2.2-.8-3-1.3-2.2-1.6-5.1-3.8-5.5-7.5-.2-1.4 0-4.1.5-5.9.4-1.7 2-4.2 2-4.2s3.5-1 4-1m0-3c-.2 0-1 0-4.8 1l-1.2.4-.6 1c-.3.5-1.8 3-2.3 5-.6 2.2-.8 5.2-.6 7 .6 5.4 5 8.4 6.9 9.6.8.6 1.8 1 2.7 1.3l.8.3c1.4.7 3 1 5.1 1 2.3 0 4.6-.4 6.3-.7 1.1-.2 2.1-.5 3-1 3-1.6 4.7-5.2 4.2-9-.5-3.2-2.4-5.8-3.7-7.5l-1-1.1a22.5 22.5 0 00-4.3-4.5c-1-.8-2.3-2-4-2h-.2a5 5 0 00-2.1.5l-.7-.3c-.7-.3-1.6-.8-3-1h-.4z"/></g><g><path class="st230" d="M143.4 160.1h-2c-.7-.2-1.7-.4-2.5-1-1.6-1.2-1.7-3.3-1.8-4.2-.2-2.4-.1-4.9 0-7.2h.1a1.8 1.8 0 011.7-1.6 33.8 33.8 0 014.7-.1l.3-.2c.6-.3 1.1-.6 1.7-.6h.5l.4.3c.7.4 1 1 1 1.4.9 2.1.8 4.8.7 7.2v1.4c0 2.4-1 3.5-1.9 4-.7.5-1.5.6-2.2.6h-.7z"/><path class="st254" d="M145.6 146.7c.3.2.5.5.6.8.8 2.2.5 5.6.5 8 0 1-.2 2.2-1.2 2.8-.4.2-1 .3-1.5.3a14.4 14.4 0 01-2.4 0c-.6-.2-1.3-.3-1.8-.7-1-.7-1.1-2-1.2-3.1-.2-2.4-.1-4.7 0-7V148s0-.2.2-.3h.3a32 32 0 014.7-.2c.3 0 1.4-.8 1.8-.8m0-3c-1 0-1.7.4-2.4.8a32.8 32.8 0 00-4.4.1c-1.2.2-2 .8-2.4 1.2-.4.5-.6 1-.7 1.7-.2 2.5-.3 5-.1 7.5 0 1 .3 3.7 2.4 5.3 1.1.9 2.3 1 3.3 1.2a17.6 17.6 0 002.9.1 6 6 0 002.9-.8c1-.5 2.6-2 2.6-5.3V154c.1-2.4.2-5.3-.7-7.7-.2-.4-.6-1.4-1.6-2.1-.5-.4-1.1-.6-1.8-.6z"/><path class="st230" d="M199.4 163l-3.8-.3h-.2v-.1c-.8-.3-1.6-.7-2.2-1.6-.9-1.1-.8-2.5-.8-3.4v-8.9c0-3.2.2-3.6.4-4 .5-.8 1.6-1 3.3-1.4l.8-.1 3.6-1.5 1.2-.2.9.1c1 .5 1.2 1.7 1.4 4v.4c.3 1.8.1 3.6 0 5.3l-.5 7.7c0 .6-.1 1.4-.5 2.2-.6 1-1.7 1.6-3 1.7h-.6z"/><path class="st254" d="M201.7 143h.3c.4.2.5 2.7.6 3.1v5.1l-.6 7.7c0 .5 0 1-.3 1.5-.4.6-1.1 1-1.8 1h-.5c-1 0-3 0-3.5-.2-.6-.2-1.2-.5-1.5-1-.5-.8-.5-1.7-.5-2.6v-8.9c0-.4 0-2.8.2-3.2.2-.5 2.8-.7 3.3-1l3.6-1.4.7-.1m0-3c-.7 0-1.3.2-1.8.3l-1.8.8-1.7.6-.6.1c-1.8.4-3.5.7-4.3 2.2-.4.7-.6 1.3-.6 4.7v9c0 1 0 2.7 1 4.2.9 1.2 2 1.7 2.8 2l.3.2h.2a27.5 27.5 0 005 .3c1.7-.2 3.2-1 4-2.5.7-1 .7-2.1.8-2.8l.5-7.7c.1-1.8.3-3.6 0-5.6v-.3c-.2-2.2-.3-4.4-2.3-5.2l-1.5-.3z"/><g><path class="st230" d="M188.6 165c-1.4 0-3.8-.7-4.8-2.3-.4-.5-.6-1-.8-1.8l-.1-.4a11 11 0 01-.4-3.8c-.1-1.3 0-2.4.1-3.6l.2-2v-1.3-.6c-.1-.9-.3-1.6-.6-2.3a8.5 8.5 0 01-1.6-1.8c-8 0-16.6-.4-25-2.4a13 13 0 01-2.9.7 19 19 0 01-14.6 4.8l-.1 2.2-.3 3.6v1.2c.2 1.4.3 3-.5 4.2-1 1.4-3 2.3-5.4 2.3-2.2 0-4.2-.7-5.4-1.8-2-2-1.6-6-1.3-9l.2-2.4c0-4.1-1.1-8-2.4-12l-1.7-6.1c-1-4.1-1.3-8.2-1-12l-.4.3a3 3 0 01-1.5.4c-1.4 0-2.7-.8-3.2-2a15.2 15.2 0 012.9-14.4c1.5-1.5 3.2-2.8 4.8-4l1.7-1.3 1.3-1c2.4-2 4.7-3.7 7.5-5.1 2.9-1.5 6-1.8 9-2.2 2.2-.2 4.2-.4 6.1-1l3-.5 2.5-.5c1-.4 2-.6 2.8-.6l2.2.2 5 .6 3 .5c1.2.3 2.2.5 3.5.5h.1c1 0 2.1-.2 3.3-.4a45.7 45.7 0 015.6-.6l3.6.1 3.3.1c2.3 0 5-.2 7.4-1.8 1.6-1 3-2.4 4.5-3.8 1.1-1 2.3-2.2 3.6-3.2a21 21 0 0113-4.3c2.4 0 4.7.4 7 1.2a12 12 0 015 2.8c2.6 2.9 2.6 5 2 6.3v.1c-.4.8-.7 1.5-1.5 2.3-.8.8-2.1.8-3.1.9h-.6a9 9 0 01-1 0l-2.8-.2-1.8-.2c-.3 0-1.4.3-2 .6l-1.3 2.7v2.6l.2 2.3c0 1.4-1 2.4-1.7 3.4-.3.3-.9 1-1 1.3l.2.5.4.3c1.1.9 1.3 2.1 1.5 3 0 .5.1 1 .3 1.1a54.1 54.1 0 002.3 2.2h.8c.4 0 1 0 1.7.4l1.6.3 1.9.5-1 1.7-.6 1a4 4 0 01-.6.8v.1c-.4 1-.6 1.2-1.3 1.8-.1 0-.2 0-.3.2-1 2-1.4 3.7-1.9 5.5l-.5 2.1a41.8 41.8 0 01-15.4 21c-.9.9-1.9 1.1-2.6 1.3l-.5.1-.3.2-.6.3c-.7.4-1.4.7-1.7 1.2-.4.5-.6 1.3-.7 2-.3 1.6-.5 3.3-.5 5V155.5l.1.7c.2 3.6 0 5.8-1 7-.9 1.5-3 1.7-4.8 1.7z"/><path class="st254" d="M214.7 76c2.3 0 4.5.3 6.5 1 1.6.5 3.3 1.2 4.4 2.5 1.2 1.2 2.5 3 1.9 4.6-.4.8-.6 1.3-1.2 1.9-.6.5-2 .4-2.9.5h-.7c-1.5 0-3.1-.4-4.6-.4-.9 0-2.5.6-3.1 1l-1.8 3.4c-.2 1.8.2 3.6.2 5.3 0 1.6-2.9 3.2-2.6 4.8l.2 1c.2.4.6.7 1 1 1.1.8.5 2.7 1.5 3.8l2.1 2.3c.5.3 1 .4 1.3.4h.8c.4 0 .8 0 1.3.3l1.6.4-.6 1-.7.9c-.5 1.2-.4.9-1.4 1.7-1.6 3.1-1.9 5.5-2.6 8.2a40 40 0 01-15 20.3c-.8.8-1.9.9-2.7 1.1l-.5.3c-1 .6-2 1-2.7 2a6 6 0 00-1 2.5c-.3 1.7-.5 3.5-.5 5.3v.2l.1 3c.1 1.8.2 4.9-.7 6.1-.6.9-2.4 1-3.6 1-1.2 0-3-.5-3.7-1.5-.3-.4-.4-1-.5-1.5l-.2-.4c-.3-1-.3-2.2-.3-3.3-.2-2 .2-3.4.3-5.5V150v-.4-.6-.2c-.2-1-.4-2-.9-3a6.9 6.9 0 01-1.9-2.2h-.2-.2c-8.6-.1-17.2-.5-25.5-2.6a12.5 12.5 0 01-3.5 1 17.5 17.5 0 01-15.4 4.4l-.5 7.5c0 1.2.5 3.5-.2 4.5-.9 1.2-2.5 1.7-4.2 1.7-1.7 0-3.4-.5-4.3-1.4-2-2-.8-7.3-.7-10.2.1-6.5-2.7-12.3-4.2-18.6a30.3 30.3 0 011.3-19.5l-.6-.3c-1.9 1.1-2.4 3.6-3 5.6-.2.5-.8 1.4-1.2 1.6-.2.2-.5.2-.8.2-.7 0-1.5-.4-1.8-1-1.4-3.9-.4-10 2.5-12.9 2-1.9 4.2-3.4 6.4-5 2.8-2.3 5.4-4.5 8.6-6 4.5-2.4 10-1.7 14.9-3.1 1.5-.5 3.9-.6 5.4-1.1 1.1-.4 1.8-.5 2.4-.5 1.2 0 2.6.4 7 .8 2.5.2 4.2 1 6.7 1h.1c1.7 0 3.4-.5 5.1-.7a24 24 0 013.8-.3l7 .2c2.8 0 5.6-.3 8.1-2 3-2 5.4-5 8.2-7.1 3.4-2.6 7.7-4 12-4m0-3c-5.1 0-10 1.7-13.8 4.6-1.4 1-2.6 2.2-3.8 3.3-1.4 1.4-2.8 2.7-4.2 3.7-1.7 1-3.6 1.5-6.5 1.5H183a75 75 0 00-8 .1l-1.6.3c-1 .2-2 .4-3 .4-1.2 0-2.1-.2-3.2-.4-1-.2-2-.5-3.3-.6a76.4 76.4 0 01-7.3-.8c-1 0-2 .2-3.3.6l-2.3.5c-1 .1-2.1.3-3.1.6-1.8.5-3.7.7-5.8 1-3.2.3-6.5.6-9.6 2.2a47.2 47.2 0 00-9 6.3l-1.7 1.3a45.5 45.5 0 00-5 4.1c-3.6 3.6-5 11-3.2 16a5 5 0 005 3c-.1 3.3.2 6.7 1 10.1.5 2.2 1.2 4.2 1.8 6.1 1.2 4 2.4 7.8 2.3 11.7l-.2 2.2c-.4 3.4-.8 7.7 1.8 10.2a9.3 9.3 0 006.4 2.3c2.8 0 5.2-1 6.6-3 1.1-1.5 1-3.5.9-5.2l-.1-1 .2-3.5.1-.7h.4c5 0 9.7-1.7 13.5-5a18.8 18.8 0 002.4-.5c8 1.9 16.3 2.2 24 2.3l1.1 1.2c.2.5.3.9.3 1.4v.9a17.8 17.8 0 010 2.9c-.2 1.1-.3 2.3-.2 3.8a12.3 12.3 0 001.5 6.7c1.4 2.3 4.5 3 6.1 3h.2c1.4-.1 4.5-.2 6-2.4 1-1.5 1.4-4 1.2-8v-.7l-.1-2.2c0-1.7.2-3.3.5-4.9 0-.3.2-1 .4-1.3.1-.2.7-.5 1.2-.8l.6-.3.2-.1h.2c.9-.3 2.1-.6 3.3-1.6a43 43 0 0015.9-21.8l.5-2.1c.4-1.7.8-3.2 1.6-5 1-.7 1.2-1.2 1.6-2l.8-1 .5-1 2-3.4-3.8-1-1.5-.4a5.2 5.2 0 00-2.6-.4l-1.5-1.5v-.5c-.2-.9-.4-2.5-1.7-3.7l.2-.3c.9-1 2-2.4 2-4.3v-2.5l-.2-2 1-2 1-.2 1.5.1a22 22 0 004.1.3h.5c1.1 0 2.9-.2 4.1-1.3 1.1-1 1.5-2 1.9-2.8v-.1c.7-1.7.9-4.4-2.4-7.9a13.4 13.4 0 00-5.6-3.3c-2.4-.8-4.9-1.2-7.5-1.2z"/></g></g><g><path class="st257" d="M146 147.5c-.2-.1-1.5.8-1.8.8a32 32 0 00-5 .2v.3l-.1 7v-7.2a45 45 0 000 6.8c0 1.1.2 2.4 1.1 3 .5.5 1.2.6 1.8.7h2.4c.5 0 1 0 1.5-.3.9-.5 1.1-1.7 1.1-2.7 0-2.4.3-5.6-.5-7.8l-.5-.8zM202.6 144.5c-.3-.2-.7-.1-1 0l-3 1.2a9 9 0 00-2.5 1.6c-.2.3-.2 2.6-.2 3v8.3c0 .8-.6 2-.2 2.6.3.5 1.3.5 1.8.7.5.2 2.7.3 3.2.2.6 0 1.1-.3 1.4-.9.2-.4.3-1 .3-1.4l.4-7.2c0-1.6.2-3.2 0-4.7 0-.5.1-3.3-.2-3.4z"/><path class="st257" d="M225.6 79.5c-.2-.3-1-.8-.7.9.3 2.5 1.3 3-.9 4.3h-6.6c-2 .5-2.7 1.5-3.8 3.2-.9 1.5-2.3 6-1.8 7.5 1 3-4 1.5-3.2 4.9.6 2.8 1 5.7.8 8.4-.1 2 4.3 2 4.5 4 .5 4-3.4 9.6-3.3 12.5.2 3.3-4.1 6-4.7 6.5-5.5 3.6-3.6 4.7-10.1 5.8-.7 0-2.4 5.7-4.5 7-.2 0 .4 14.3-.5 15.4-1.8 2.3-3.3 1.3-4.8 1.2-.9 0-1.3-16.3-1.7-16.3-.6 0-4-5-4.3-5-2.6 0-5.1-.6-7.6-.8-7-.6-8.7-2.3-11.8-1.3-1.5.4-7.7.5-9.2 1-4.9 1.4-7.5 6.8-12.5 5.1-.5-.1-2.8 1.3-3.8 2.5-.2.3-.4 10.7-.9 11.4-2 3-6.2 1.6-7.1-.2-.2-.3-.1-8.1.4-14.1.4-4.3-2.4-7.2-2.4-7.5-1-3.7-1.4-11.2-2.3-15-1.3-6 2-13.5.8-12.6-2.1 1.7-2.5 3.8-4.5 5.7-2.8 2.9-4-1.2-2.6 2.6.3 1 1.7 1.4 2.5 1 .5-.3 1-1.2 1.2-1.7.7-2 1.2-4.5 3-5.6l.6.3a30.3 30.3 0 00-1.2 19.5c1.5 6.3 4.3 12 4.1 18.5 0 3-1.3 8.2.8 10.3 1.7 1.7 6.7 2 8.4-.3.7-1 .2-3.3.3-4.5 0-2.9.4-4.6.5-7.5 5.8 1 11.1-.6 15.3-4.5a18 18 0 003.5-.9c8.3 2.1 17 2.5 25.6 2.5l.2.1h.2c.4.9 1 1.7 1.9 2.3.4 1 .7 1.8.8 2.9v2.3c0 2-.4 3.5-.2 5.5 0 1.1 0 2.3.3 3.3l.1.4c.1.6.3 1 .6 1.5.6 1 2.6 1.5 3.7 1.5 1.2 0 3-.1 3.6-1 .9-1.2.8-4.4.7-6.1l-.2-3v-.2c0-1.8.3-3.6.6-5.3a6 6 0 011-2.6c.6-.9 1.7-1.4 2.7-2 .2 0 .3 0 .4-.2.9-.3 2-.3 2.8-1a40 40 0 0015-20.4c.7-2.7 1-5 2.6-8.2 1-.9.9-.5 1.3-1.7 0-.2.8-.8.8-1l.6-1-1.7-.3c-1.3-.8-2.1 0-3.3-1a46 46 0 01-2.2-2c-1-1-.3-3-1.5-3.9-.4-.2-.7-.5-1-1l-.2-.9c-.2-1.6 2.7-3.2 2.6-4.8 0-1.8-.4-3.5-.1-5.3l1.7-3.4c.7-.4 2.4-1.1 3.1-1 1.8 0 3.7.6 5.4.4.8-.1 2.3 0 2.9-.5.6-.6.8-1.1 1.1-2 .7-1.5-1-3-1.8-4.5z"/></g><g><path class="st381" d="M201.6 100h-.6c-1-.3-2-1.2-2.3-2.4-.4-1.2-.3-2.6.1-4s1-2.6 2-3.4c0-.1.4-.5 1-.5h.2c.4.1.6.3 1.2 1.2l1.5 2 .2.1c.5.4 1 .9 1.3 1.5l.3 1.1c0 1-.5 1.8-1 2.3a5.5 5.5 0 01-3.9 2z"/><path class="st254" d="M201.8 90.7c.1 0 1.4 2 2.2 2.8.5.5 1 1 1.3 1.5l.2.7c0 .6-.3 1-.7 1.5-.8 1-1.8 1.7-3 1.8a3 3 0 01-.6 0c-.8-.2-1.3-1-1.6-1.7-.3-1.2-.2-2.4.2-3.5.3-1 .8-2.1 1.7-2.9l.3-.2m0-2c-.6 0-1.2.3-1.7.8-1 .9-1.8 2.2-2.3 3.7a7.9 7.9 0 000 4.6c.4 1.6 1.6 2.8 3 3.1a3.9 3.9 0 001.1 0c1.6 0 3.1-.9 4.4-2.4.3-.3 1.3-1.4 1.2-2.9 0-.5-.2-1-.4-1.5-.5-.8-1-1.4-1.5-1.8l-.2-.2-1.4-1.8c-.6-.9-1-1.4-1.8-1.5h-.4z"/></g><g><path d="M214.4 98.8c1.7 3.2 5.5 4.6 9.1 5.2 2.3.4 4.7.6 7-.1s4.1-2.5 4.6-4.8c1 1.7.9 4.2-.5 5.8-1.4 1.7-3.7 2.2-5.8 2.5-1.8.2-3.6.4-5.4.3-1.5 0-3 0-4.4-.6a8 8 0 01-4.9-5.2c-.2-.9 0-2.3 1-2.3" fill="#8e8e8e"/></g></g></g><g id="Hexagons"><g id="Wool_2_"><radialGradient id="SVGID_3_" cx="173" cy="200" r="187.1" gradientUnits="userSpaceOnUse"><stop offset="0" stop-color="#a4b800"/><stop offset=".3" stop-color="#9bb705"/><stop offset=".9" stop-color="#83b413"/><stop offset="1" stop-color="#7cb317"/></radialGradient><path fill="url(#SVGID_3_)" d="M-.2 100v200L173 400l173.2-100V100L173 0z"/><linearGradient id="SVGID_4_" gradientUnits="userSpaceOnUse" x1="173" y1="400" x2="173" y2="0"><stop offset="0" stop-color="#e6e600"/><stop offset=".5" stop-color="#a4b800"/><stop offset=".7" stop-color="#4e7200"/></linearGradient><path d="M173 33.5l144.2 83.2v166.6L173 366.5 28.8 283.3V116.7L173 33.5M173 0L-.2 100v200L173 400l173.2-100V100L173 0z" fill="url(#SVGID_4_)"/><linearGradient id="SVGID_5_" gradientUnits="userSpaceOnUse" x1="173" y1="0" x2="173" y2="400"><stop offset="0" stop-color="#e6e600"/><stop offset=".5" stop-color="#a4b800"/><stop offset=".7" stop-color="#4e7200"/><stop offset="1" stop-color="#a4b800"/></linearGradient><path d="M173 28.9l148.2 85.5v171.2L173 371 24.8 285.6V114.4L173 29M173 0L-.2 100v200L173 400l173.2-100V100L173 0z" fill="url(#SVGID_5_)"/><path d="M173 15l160.2 92.5v185L173 385 12.8 292.5v-185L173 15m0-15L-.2 100v200L173 400l173.2-100V100L173 0z" fill="#4e7200"/><path d="M173 12.7l162.2 93.6v187.3L173 387.3 10.8 293.6V106.4L173 12.7M173 0L-.2 100v200L173 400l173.2-100V100L173 0z" fill="#e0b568"/><g><path class="st374" d="M69.2 142s-5-3.6-8.3-4.4c-3.4-.7-10-1.6-10.8-1.2s11.1 10.7 13.2 15.8c3 5 4.7 12.5 6.4 14.3 1.7 1.8 1.9 1.7 4.1 1.6 2.3-.2 3.6-2.6 3.6-2.6v-8.3s-.6-5.3-2.3-8.3-6-7-6-7zM98 140.2c-.5-.3-5.2.4-7.5 1-2.4.7-5.9 3.6-5.9 3.6s-3 3.4-4.1 5.8-1.7 6.9-1.7 6.9v6.9s1 2 2.6 2.1 1.7.2 2.9-1.3 2.3-7.6 4.5-11.9c1.4-4.2 9.7-12.7 9.2-13zM95 157.6s-2.2.2-3.2 1c-.9.6-2.4 2.2-2.4 2.2l-1 2.2s0 2.2.6 2.6 1.6.1 2.4-.2 2-2.5 3.7-3.7c1.4-1.3 7.1-2.2 7-2.5-.2-.2-3-1.5-4-1.8-1.2-.2-3.2.2-3.2.2zM62.4 159.7c-1-1.3-3.7-3-3.7-3s-2.8-1.4-4.7-1.5c-1.8-.1-5.5 0-5.8.3s6.7 4.4 8.2 6.8c2 2.3 3.4 5.8 4.5 6.6 1 .8 1.1.7 2.3.4 1.2-.2 1.7-1.5 1.7-1.5l-.6-4.2s-.8-2.6-1.9-4z"/><path class="st77" d="M220.1 190.8s-4.9-3.5-8.2-4.3a42 42 0 00-10.8-1.2c-.7.4 11.1 10.7 13.2 15.8 3 5 4.6 12.5 6.4 14.3 1.7 1.8 1.9 1.7 4.1 1.5s3.6-2.6 3.6-2.6v-8.2s-.7-5.4-2.3-8.3c-1.6-3-6-7-6-7zM249 189.1c-.5-.4-5.2.4-7.6 1-2.3.6-5.8 3.6-5.8 3.6s-3 3.3-4.2 5.8-1.6 6.9-1.6 6.9v6.8s1 2 2.5 2.2c1.6.1 1.7.2 3-1.3s2.3-7.7 4.4-11.9c1.5-4.2 9.8-12.7 9.3-13.1zM245.9 206.5s-2.1.2-3 1c-1 .6-2.6 2.1-2.6 2.1l-1 2.3s0 2.2.7 2.6c.6.3 1.5.1 2.3-.2.8-.4 2-2.5 3.8-3.7 1.4-1.3 7-2.3 7-2.5-.2-.3-3-1.6-4-1.8-1.2-.2-3.2.2-3.2.2zM213.4 208.5c-1-1.3-3.7-3-3.7-3s-2.9-1.3-4.7-1.5c-1.9 0-5.5 0-5.9.3s6.8 4.5 8.3 6.8c2 2.3 3.4 5.9 4.4 6.7 1.1.7 1.2.7 2.4.4 1.1-.3 1.7-1.6 1.7-1.6l-.6-4.1s-.8-2.6-1.9-4z"/><path class="st374" d="M265.6 131.5s-4.9-3.5-8.2-4.3c-3.4-.8-10.1-1.6-10.8-1.2s11.1 10.7 13.2 15.8c3 5 4.6 12.5 6.4 14.3 1.7 1.8 1.9 1.7 4.1 1.5 2.2-.1 3.6-2.6 3.6-2.6v-8.2s-.7-5.4-2.3-8.3c-1.6-3-6-7-6-7zM294.5 129.8c-.5-.3-5.2.4-7.6 1-2.3.7-5.8 3.6-5.8 3.6s-3 3.4-4.2 5.8-1.6 6.9-1.6 6.9v6.8s1 2 2.5 2.2 1.7.2 3-1.3c1.2-1.5 2.3-7.7 4.4-11.9 1.5-4.2 9.8-12.7 9.3-13zM294.5 147c-1-.2-3.1.2-3.1.2s-2.1.2-3 1c-1 .6-2.6 2.2-2.6 2.2l-1 2.2s0 2.2.7 2.6 1.5.1 2.3-.2c.8-.3 2-2.5 3.8-3.7 1.4-1.3 7-2.3 7-2.5-.2-.2-3-1.5-4-1.8zM259 149.3c-1.2-1.4-3.8-3-3.8-3s-2.9-1.4-4.7-1.5c-1.9-.2-5.5 0-5.9.2-.3.3 6.8 4.5 8.3 6.8 2 2.3 3.4 6 4.4 6.7s1.2.7 2.4.4c1.1-.2 1.7-1.6 1.7-1.6l-.6-4.1s-.8-2.6-1.9-4z"/></g><g><path class="st369" d="M71.6 143.6l-4.3-3.6-5.8-3.1-3.7-.8h-3.9l-2.6.2 4.4 2.8 2.6 1.7c-.4 0 4.9 4.5 7.6 7l2.7 3.5 2.5 1.6s2.2 1.7 3.1 1.1c.9-.6.8-1.7.8-1.7s.5-1.1-.5-3.8c-.9-2.7-2.9-5-2.9-5zM96 141.6l2.4-1.3-4.2.2-4.4 1.2-3.7 2.7-3 3.4c-.4.7-1.6 2-1.6 2.3l-.4 1.2s-.4 1 1.2 1.2 3.3-2.4 3.3-2.4l2.7-2.9 2.6-2 3-2 2.1-1.6zM60.4 157.1c-.3-.2-2.3-1-2.6-1.3-.4-.3-3.3-.7-4-.7l-3.8.2c-.4.1 2.2.7 2.2.7l1.2.6 4 2 2.9 2.3s1.8.7 2.5.5c.8-.2.3-2.2 0-2.5l-2.4-1.8zM97.6 156.7l-3.2.6s-1.1.3-1.5 1.5c-.5 1.2 0 1.2 0 1.2l.4-.2 2-1.7 2.5-.4h2.7l1.7.3-1-.7-3.6-.6zM267.8 133l-4.4-3.5-5.7-3.1-3.8-.8H250l-2.6.3 4.4 2.7 2.7 1.7c-.4 0 4.8 4.6 7.6 7.1l2.7 3.4 2.4 1.7s2.3 1.6 3.1 1c.9-.6.8-1.7.8-1.7s.5-1.1-.4-3.8c-1-2.7-3-5-3-5zM292.2 131.1l2.3-1.3-4.2.2s-4 1.1-4.3 1.3l-3.8 2.6-3 3.5c-.4.6-1.6 1.8-1.6 2.2l-.3 1.2s-.5 1.1 1 1.2 3.5-2.4 3.5-2.4l2.6-2.9 2.6-2 3-2 2.2-1.6zM256.6 146.7l-2.7-1.4c-.3-.3-3.3-.6-4-.7s-3.5.2-3.8.2c-.3.1 2.3.8 2.3.8l1.1.5 4 2 2.9 2.3s1.8.7 2.6.5.2-2.2 0-2.4l-2.4-1.8zM297.4 146.9l-3.7-.7-3.2.7s-1 .2-1.5 1.4c-.4 1.2 0 1.2 0 1.2l.4-.2 2-1.7 2.5-.4h2.8l1.6.4-1-.7z"/><path class="st75" d="M222.6 192.3l-4.3-3.6-5.8-3.1-3.7-.7h-4l-2.5.2 4.3 2.7 2.7 1.7c-.4 0 4.8 4.6 7.6 7.1l2.7 3.4 2.5 1.7s2.2 1.6 3 1c1-.6.9-1.7.9-1.7s.5-1.1-.5-3.8c-1-2.7-2.9-5-2.9-5zM247 190.3l2.4-1.3-4.3.2s-4 1.1-4.3 1.3l-3.7 2.6s-2.6 2.8-3 3.5c-.4.6-1.6 1.8-1.6 2.2s-.4 1.2-.4 1.2-.4 1.1 1.1 1.2c1.6 0 3.4-2.4 3.4-2.4l2.7-2.9 2.6-2 2.9-2 2.2-1.6zM211.4 205.9c-.3-.3-2.3-1.1-2.6-1.4-.4-.3-3.4-.6-4-.7s-3.5.2-3.9.2c-.3.1 2.3.8 2.3.8l1.2.5 4 2 2.8 2.3s1.8.7 2.6.5.3-2.2 0-2.4l-2.4-1.8zM248.6 205.4l-3.2.7s-1.1.2-1.6 1.4c-.4 1.2 0 1.2 0 1.2l.5-.2 2-1.7 2.4-.4h2.8l1.6.4-.9-.7-3.6-.7z"/></g><g><path class="st230" d="M143.5 160l-1.9-.2c-.8-.1-1.7-.3-2.6-.9-1.5-1.2-1.7-3.3-1.8-4.3-.1-2.3-.1-4.8.1-7.1l.5-1c.4-.5 1-.6 1.3-.6a33.7 33.7 0 014.6-.1l.3-.2c.6-.3 1.2-.6 1.7-.6h.5l.5.3c.6.4.9 1 1 1.4.8 2.1.8 4.8.7 7.2v1.3c0 2.5-1.1 3.6-2 4.1-.7.5-1.5.6-2.1.6h-.8z"/><path class="st255" d="M145.7 146.5h.1c.3.2.4.5.5.8.9 2.2.6 5.5.5 8 0 1-.2 2.2-1.1 2.7-.5.3-1 .4-1.5.4a14.4 14.4 0 01-2.4 0c-.7-.2-1.3-.3-1.8-.7-1-.7-1.2-2-1.3-3.2-.1-2.3-.1-4.6.1-7V147.9l.1-.3h.3a32 32 0 014.8-.2c.3 0 1.4-.8 1.7-.8m0-3c-.9 0-1.7.4-2.3.8a33 33 0 00-4.5.1c-1.2.1-2 .7-2.3 1.2-.4.5-.7 1-.7 1.7-.3 2.5-.3 5-.2 7.4.1 1.2.3 3.8 2.4 5.4 1.2.8 2.4 1 3.3 1.2a17.6 17.6 0 003 0 6 6 0 002.8-.7c1-.5 2.6-2 2.7-5.3v-1.4c0-2.4.1-5.4-.8-7.7-.2-.5-.5-1.4-1.6-2.2-.5-.3-1.1-.5-1.8-.5z"/><path class="st230" d="M199.5 162.7c-.9 0-3 0-3.8-.3h-.2c-.7-.3-1.6-.7-2.2-1.6a5.6 5.6 0 01-.8-3.4v-8.9c0-3.2.2-3.6.4-4 .5-.8 1.6-1 3.4-1.4l.8-.2 3.5-1.4c.4-.1.8-.3 1.3-.3l.8.2c1.2.5 1.3 1.9 1.5 4v.3c.2 1.9 0 3.7 0 5.4l-.6 7.7c0 .6 0 1.4-.5 2.1-.6 1-1.7 1.7-3 1.8h-.6z"/><path class="st255" d="M201.9 142.7l.2.1c.4.2.6 2.7.6 3.1.2 1.7 0 3.4 0 5.1l-.6 7.7c0 .5 0 1-.3 1.5-.3.6-1 1-1.8 1h-.5l-3.5-.2c-.6-.3-1.1-.6-1.5-1-.5-.8-.5-1.7-.5-2.6v-8.9c0-.4 0-2.8.2-3.2.3-.5 2.9-.7 3.4-1l3.6-1.4.7-.2m0-3c-.8 0-1.3.2-1.8.4l-.6.3-3 1.1-.5.1c-1.8.4-3.5.7-4.4 2.2-.4.7-.6 1.3-.6 4.7v8.9c0 1 0 2.8 1 4.3 1 1.2 2.1 1.7 2.9 2l.2.1.3.1a27.5 27.5 0 004.9.3c1.8-.2 3.3-1.1 4.1-2.5.6-1 .7-2.2.7-2.8l.3-4 .3-3.7c0-1.8.2-3.7 0-5.6v-.3c-.2-2.3-.4-4.4-2.4-5.3-.4-.2-1-.3-1.4-.3z"/><g><path class="st230" d="M188.8 164.7c-1.4 0-3.9-.6-4.9-2.2-.3-.5-.6-1-.7-1.8l-.2-.4a11 11 0 01-.3-3.8c-.2-1.3 0-2.4 0-3.6l.2-2v-1.3-.7c-.1-.8-.3-1.5-.6-2.2a8.4 8.4 0 01-1.6-1.8c-8 0-16.5-.4-24.9-2.4a13.2 13.2 0 01-3 .7 19 19 0 01-14.5 4.8 108.3 108.3 0 01-.4 5.8v1.1c.1 1.5.2 3.1-.6 4.3-1 1.4-3 2.3-5.4 2.3-2.1 0-4.2-.7-5.3-1.8-2.1-2.1-1.7-6-1.4-9l.2-2.4c.1-4.2-1-8-2.4-12.1l-1.7-6c-1-4.2-1.2-8.3-.9-12l-.4.3a3 3 0 01-1.5.4c-1.5 0-2.8-.8-3.2-2a15.2 15.2 0 012.8-14.4 44.3 44.3 0 016.5-5.3l1.4-1c2.4-2 4.6-3.7 7.4-5.1 2.9-1.5 6-1.9 9.1-2.2 2.1-.2 4.2-.4 6-1l3-.6 2.5-.5c1.1-.3 2-.5 2.9-.5.6 0 1.2 0 2.2.2l4.9.6c1.2 0 2.2.3 3.1.5 1.1.2 2.2.5 3.4.5h.1c1.1 0 2.2-.2 3.3-.5a45.2 45.2 0 015.6-.5l3.6.1 3.4.1c2.3 0 5-.2 7.3-1.8 1.6-1 3-2.4 4.5-3.8a48 48 0 013.6-3.2 21 21 0 0113-4.3c2.4 0 4.8.4 7 1.1a12 12 0 015 3c2.7 2.8 2.6 4.9 2 6.2v.1c-.3.8-.6 1.5-1.4 2.2-.9.8-2.2.9-3.2 1h-.6a9 9 0 01-.9 0c-1 0-1.9-.1-2.8-.3l-1.9-.2c-.3 0-1.3.4-1.9.7l-1.4 2.7v2.5c.2.8.2 1.6.2 2.5 0 1.2-.9 2.3-1.7 3.2l-.9 1.3.1.6.5.3c1.1.8 1.3 2 1.4 3 0 .4.2 1 .3 1.1a52.8 52.8 0 002.4 2.2h.8c.4 0 1 0 1.7.4l1.5.3 2 .5-1 1.7-.6 1a3.9 3.9 0 01-.7.9c-.4 1-.6 1.2-1.3 1.8l-.2.1c-1 2-1.5 3.8-1.9 5.6l-.5 2a41.8 41.8 0 01-15.4 21.2c-1 .7-2 1-2.7 1.2h-.4c-.1.2-.3.2-.4.3-.2 0-.3.2-.5.3-.7.4-1.4.7-1.8 1.2-.4.5-.5 1.3-.6 2-.4 1.6-.5 3.3-.6 5v.1l.1 2.3v.7c.3 3.6 0 5.8-.9 7-1 1.4-3 1.7-4.8 1.7h-.1z"/><path class="st255" d="M214.9 75.7c2.2 0 4.4.4 6.5 1 1.6.6 3.2 1.3 4.4 2.6s2.5 3 1.8 4.6c-.3.8-.5 1.3-1.2 1.8-.5.6-2 .5-2.8.6h-.8c-1.5 0-3-.4-4.6-.5-.8 0-2.5.7-3 1.1-.2.1-1.5 2.6-1.8 3.4-.3 1.8.2 3.5.1 5.3 0 1.6-2.8 3.2-2.6 4.8l.2 1c.2.4.6.7 1 1 1.2.8.5 2.7 1.5 3.8.3.4 1.8 2 2.2 2.2.5.4.9.5 1.3.5h.8c.4 0 .7 0 1.2.3l1.7.4-.6 1-.8.9c-.4 1.2-.3.8-1.3 1.7-1.6 3.1-2 5.5-2.7 8.2a40 40 0 01-14.9 20.3c-.9.8-2 .8-2.8 1.1l-.4.3c-1 .5-2.1 1-2.8 2a6 6 0 00-1 2.5 35 35 0 00-.5 5.3v.1l.2 3c0 1.8.1 5-.7 6.2-.6.9-2.4 1-3.6 1h-.1c-1.1 0-3-.5-3.6-1.5-.3-.4-.5-1-.6-1.5l-.2-.4c-.3-1-.3-2.2-.2-3.3-.2-2 .1-3.4.2-5.5v-1.2-.3a16 16 0 000-.8c-.1-1-.4-2-.8-3a6.9 6.9 0 01-2-2.2h-.1l-.2-.1c-8.7 0-17.3-.4-25.6-2.5a12.5 12.5 0 01-3.5.9 17.5 17.5 0 01-15.3 4.5l-.5 7.5c0 1.1.4 3.5-.3 4.5-.8 1.2-2.5 1.7-4.2 1.7-1.7 0-3.4-.6-4.3-1.4-2-2-.7-7.3-.7-10.3.2-6.4-2.6-12.2-4.1-18.5a30.4 30.4 0 011.2-19.5l-.6-.3c-1.8 1.1-2.3 3.5-3 5.6-.1.5-.7 1.4-1.2 1.6l-.7.2c-.8 0-1.6-.4-1.8-1-1.5-3.9-.4-10 2.5-12.9 2-2 4.2-3.4 6.3-5.1 2.9-2.2 5.4-4.4 8.6-6 4.5-2.3 10-1.6 14.9-3 1.6-.5 4-.6 5.5-1.1 1-.4 1.7-.5 2.4-.5 1.2 0 2.5.4 7 .8 2.5.2 4.1 1 6.6 1h.1c1.8 0 3.5-.5 5.2-.8a24 24 0 013.7-.2l7 .2c2.9 0 5.7-.4 8.2-2 3-2 5.3-5 8.2-7.2 3.3-2.6 7.7-3.9 12-3.9m0-3c-5.2 0-10.1 1.6-13.9 4.6a49 49 0 00-3.7 3.3c-1.5 1.4-2.8 2.7-4.3 3.7-1.6 1-3.6 1.5-6.5 1.5l-3.3-.1a75 75 0 00-8 .2l-1.6.3c-1 .2-2 .4-3 .4-1.1 0-2-.2-3.1-.5-1-.2-2-.4-3.4-.5a76.4 76.4 0 01-7.2-.8c-1.1 0-2 .2-3.3.6l-2.3.5c-1.1.1-2.2.3-3.2.6-1.7.5-3.7.7-5.7 1-3.2.3-6.5.6-9.7 2.2-2.9 1.5-5.3 3.4-7.6 5.3l-1.4 1-1.7 1.3c-1.6 1.2-3.3 2.5-5 4.1-3.6 3.6-5 11-3.1 16a5 5 0 004.9 3c-.1 3.2.3 6.7 1 10.1a89 89 0 001.8 6.1c1.2 4 2.4 7.8 2.3 11.7 0 .6 0 1.3-.2 2.2-.3 3.4-.8 7.7 1.9 10.2a9.3 9.3 0 006.3 2.3c2.9 0 5.3-1.1 6.6-3 1.2-1.5 1-3.6.9-5.2v-1l.2-3.5v-.7h.5c5 0 9.6-1.7 13.4-5a18.3 18.3 0 002.4-.6c8 2 16.3 2.3 24 2.4l1.2 1.2.3 1.4v.8a15.2 15.2 0 01-.1 3c-.1 1.1-.3 2.3-.1 3.7a12.2 12.2 0 001.4 6.8c1.5 2.3 4.6 3 6.2 3h.1c1.5-.1 4.5-.2 6-2.4 1.1-1.5 1.5-4 1.3-8v-.7l-.2-2.2c0-1.7.2-3.3.5-4.9 0-.3.2-1 .4-1.3l1.3-.8a29.2 29.2 0 00.8-.4h.2c.8-.3 2-.6 3.2-1.6a43 43 0 0016.4-24c.5-1.6.8-3.1 1.7-4.9.9-.7 1.2-1.2 1.5-2l.8-1.1.5-1 2-3.4-3.8-1-1.5-.3a5.2 5.2 0 00-2.5-.4 82 82 0 01-1.5-1.5l-.1-.5c-.1-1-.4-2.5-1.7-3.7l.3-.3c.8-1 2-2.4 2-4.3l-.1-2.5-.1-2 1-2 1-.3 1.5.2a22 22 0 004 .3h.6c1.1-.1 2.8-.2 4-1.4 1.1-1 1.5-1.8 1.9-2.7V85c.8-1.6 1-4.4-2.3-7.8a13.4 13.4 0 00-5.7-3.3 23 23 0 00-7.4-1.2z"/></g></g><g><path class="st257" d="M146.1 147.3c-.2-.1-1.5.8-1.8.8a32 32 0 00-5 .2v7.3-7.2c-.3 2.2-.3 4.5-.1 6.8 0 1.1.3 2.4 1.2 3 .5.5 1.1.6 1.8.7h2.3c.5 0 1 0 1.5-.3 1-.5 1.1-1.7 1.2-2.8 0-2.3.3-5.6-.6-7.7 0-.3-.2-.6-.5-.8zM202.7 144.2h-1c-.9.5-2 .9-3 1.3a9 9 0 00-2.5 1.6l-.2 3v8.3c0 .8-.5 2-.1 2.6.2.5 1.3.5 1.8.7.5.2 2.6.3 3.1.2.6 0 1.2-.3 1.5-1 .2-.3.2-.8.2-1.3l.4-7.2c.1-1.6.2-3.2 0-4.8 0-.4.1-3.2-.2-3.4z"/><path class="st257" d="M225.7 79.3c-.2-.3-.9-.8-.7.9.4 2.5 1.4 3-.8 4.2-.4.2-5.5 0-6.7.2-2 .3-2.7 1.4-3.7 3s-2.4 6.2-1.9 7.6c1 3-3.9 1.5-3.2 4.8.6 2.9 1 5.8.8 8.4 0 2 4.3 2 4.5 4 .5 4-3.4 9.7-3.2 12.5.2 3.4-4.2 6.1-4.8 6.5-5.5 3.7-3.5 4.8-10 5.8-.7.2-2.5 5.8-4.5 7-.2.2.4 14.4-.5 15.5-1.9 2.2-3.3 1.3-4.9 1.2-.8 0-1.2-16.3-1.6-16.3-.7 0-4-5-4.4-5-2.5 0-5-.6-7.6-.8-7-.6-8.7-2.3-11.7-1.4-1.6.5-7.7.6-9.3 1-4.8 1.5-7.4 6.9-12.5 5.2-.4-.1-2.8 1.3-3.7 2.5-.2.3-.4 10.6-1 11.4-2 3-6.2 1.6-7-.2-.2-.3-.2-8.1.4-14.1.4-4.3-2.4-7.3-2.5-7.5-.9-3.7-1.3-11.3-2.2-15-1.4-6 1.9-13.5.8-12.6-2.2 1.6-2.6 3.8-4.5 5.7-2.9 2.9-4.1-1.2-2.7 2.6.4 1 1.8 1.4 2.6.9.4-.2 1-1.2 1.2-1.6.6-2 1.1-4.5 3-5.6l.6.3c-2.8 5.8-2.7 13.2-1.2 19.5s4.2 12 4 18.5c0 3-1.3 8.2.8 10.3 1.8 1.7 6.8 2 8.5-.3.7-1 .2-3.4.2-4.6l.5-7.4c5.8 1 11.2-.6 15.4-4.5a18 18 0 003.5-.9c8.3 2 16.9 2.5 25.5 2.5l.2.1h.2c.5.9 1.1 1.6 2 2.3.4.9.6 1.8.7 2.9v.2a9.8 9.8 0 01.1 1v1c-.1 2.2-.5 3.6-.3 5.6 0 1.1 0 2.2.3 3.3l.2.4c0 .5.3 1 .5 1.5.7 1 2.6 1.5 3.7 1.5 1.2 0 3-.1 3.6-1 .9-1.3.8-4.4.7-6.1l-.1-3v-.3c0-1.7.2-3.5.5-5.2a6 6 0 011-2.6c.7-.9 1.8-1.4 2.8-2l.4-.2c.8-.3 1.9-.3 2.8-1a40 40 0 0014.9-20.4c.7-2.7 1-5.1 2.6-8.2 1-.9 1-.5 1.4-1.8 0 0 .7-.7.7-.9l.6-1-1.6-.3c-1.4-.8-2.2 0-3.4-1a46 46 0 01-2.1-2c-1-1-.4-3-1.6-3.9-.3-.2-.7-.5-.9-1a15.3 15.3 0 01-.2-.9c-.3-1.6 2.6-3.2 2.6-4.8 0-1.8-.4-3.6-.2-5.3l1.8-3.4c.6-.4 2.3-1.1 3-1 1.8 0 3.7.5 5.4.4.9-.1 2.3 0 3-.6.5-.5.7-1 1-1.8.7-1.6-.9-3.2-1.8-4.7z"/></g><g><path class="st381" d="M225.3 108.9c-1.9 0-3.3-.3-4.6-.8-.2-.2-.5-.3-.9-.4l-2.4-1.1c-1.8-1.3-5.7-4-6.2-8.6-.2-1.6.1-4.5.6-6.4.4-1.8 2-4.3 2.1-4.6l.3-.5.6-.2c1.7-.5 3.9-1 4.5-1H219.6c1 .2 1.9.6 2.5.9.6.3 1 .4 1.4.4h.2l.3-.1c.4-.2.9-.4 1.5-.4h.2c1.2 0 2.3 1 3.2 1.6l.3.3c1.5 1.2 2.7 2.6 3.8 4l.8 1.1c1.3 1.6 3 4 3.5 6.9.4 3-1 6.1-3.5 7.4-.7.4-1.5.7-2.5.8-1.7.3-3.9.7-6 .7z"/><path class="st255" d="M219.3 86.8c1.9.2 2.7 1.3 4.2 1.3h.3c.7 0 1.1-.5 1.7-.5h.1c.8 0 2 1 2.6 1.6 1.9 1.4 3 3.1 4.5 4.9 1.4 1.8 2.8 3.8 3 6 .4 2.3-.5 4.9-2.6 6a36.3 36.3 0 01-7.8 1.3 10 10 0 01-4-.7c-.8-.4-2.2-.8-3-1.4-2.3-1.5-5.2-3.7-5.6-7.5-.1-1.3 0-4 .5-5.8.5-1.7 2-4.3 2-4.3s3.5-.9 4.1-.9m0-3c-.3 0-1 0-4.9 1l-1.1.4-.7 1c-.3.5-1.8 3-2.3 5-.5 2.1-.8 5.2-.6 7 .6 5.3 5 8.3 7 9.6.7.6 1.7 1 2.6 1.3l.8.3c1.4.7 3.1 1 5.2 1 2.2 0 4.5-.4 6.2-.7 1.2-.2 2.2-.5 3-1 3-1.6 4.8-5.2 4.2-9-.4-3.2-2.3-5.8-3.7-7.5l-.9-1.1c-1.1-1.5-2.3-3-4-4.3l-.3-.2c-1-.8-2.4-2-4-2h-.3a5 5 0 00-2 .5l-.7-.3c-.7-.3-1.7-.8-3-1h-.5z"/></g><g><path class="st381" d="M201.8 99.8a3 3 0 01-.7 0c-1-.3-1.9-1.2-2.3-2.5-.3-1.2-.3-2.6.1-4 .5-1.4 1.1-2.5 2-3.3.1-.1.5-.5 1-.5h.2c.5.1.6.3 1.3 1.2l1.5 2 .2.1c.4.4.9.9 1.2 1.5l.3 1.1c0 1-.5 1.8-.9 2.3a5.5 5.5 0 01-4 2z"/><path class="st255" d="M202 90.5s1.4 2 2.2 2.8c.4.5 1 1 1.2 1.5l.2.7c0 .6-.3 1-.7 1.5-.7 1-1.8 1.7-3 1.8a2.9 2.9 0 01-.5 0c-.8-.2-1.4-1-1.6-1.8-.4-1-.2-2.3.1-3.4.3-1.1.9-2.1 1.7-3h.3m0-2c-.6 0-1.2.2-1.7.6-1 1-1.8 2.3-2.2 3.8a7.9 7.9 0 00-.1 4.6 4.3 4.3 0 003 3 4 4 0 001.1.2c1.6-.1 3.2-1 4.5-2.5.3-.3 1.2-1.4 1.1-3 0-.4-.1-1-.4-1.5-.4-.7-1-1.3-1.4-1.7l-.2-.2-1.4-1.8c-.7-1-1-1.4-1.9-1.5h-.4z"/></g><g class="st364"><path d="M214.6 98.5c1.7 3.2 5.5 4.7 9 5.3 2.3.4 4.7.6 7-.2 2.2-.7 4.2-2.5 4.6-4.7 1.1 1.7 1 4.2-.4 5.8-1.4 1.6-3.7 2.2-5.9 2.5-1.7.2-3.5.3-5.3.3-1.5 0-3-.1-4.5-.6a8 8 0 01-4.8-5.2c-.3-1 0-2.3.9-2.3" fill="#8e8e8e"/></g></g></g></svg>