<svg xmlns="http://www.w3.org/2000/svg" width="346" height="400"><style>.st13{display:none;fill:#64b32e}.st16{fill:#177d35}.st30{fill:#4fcd24}.st49{fill:#1d5728}.st233{fill:#64b32e}.st234{display:none;fill:#177d35}.st242{display:inline}.st251{fill:#358d18}.st364{display:none}</style><g id="Hexagons_OLD" class="st364"><g id="Lumber_1_" class="st242"><radialGradient id="SVGID_1_" cx="173" cy="200" r="175.1" gradientUnits="userSpaceOnUse"><stop offset="0" stop-color="#47b620"/><stop offset="1" stop-color="#368c17"/></radialGradient><path fill="url(#SVGID_1_)" d="M11 293.6V106.4l162.2-93.7L335 106.3v187.4l-161.8 93.6z"/><path d="M173.2 25.4L324 112.7v174.6l-150.8 87.3L22 287.3V112.7l151.2-87.3m0-25.4L0 100v200l173.2 100L346 300V100L173.2 0z" fill="#4be64b"/><path d="M173.2 12.7L335 106.3v187.4l-161.8 93.6L11 293.6V106.4l162.2-93.7m0-12.7L0 100v200l173.2 100L346 300V100L173.2 0z" fill="#e6ab23"/><radialGradient id="SVGID_2_" cx="173.7" cy="200.6" r="173.8" gradientUnits="userSpaceOnUse"><stop offset=".4" stop-color="#40f021"/><stop offset="1" stop-color="#40f021" stop-opacity="0"/></radialGradient><path class="st251" d="M71.9 212.3s-5-3.6-8.3-4.4c-3.4-.7-10-1.6-10.8-1.2S64 217.4 66 222.5c3 5 4.7 12.5 6.4 14.3 1.7 1.8 1.9 1.7 4.1 1.6 2.3-.2 3.6-2.6 3.6-2.6v-8.3s-.7-5.3-2.3-8.3-6-7-6-7zM100.7 210.5c-.5-.3-5.2.4-7.6 1-2.3.7-5.8 3.6-5.8 3.6s-3 3.4-4.2 5.8c-1.1 2.5-1.6 6.9-1.6 6.9v6.9s1 2 2.6 2.1 1.7.2 2.9-1.3 2.3-7.6 4.4-11.9c1.5-4.2 9.8-12.7 9.3-13zM97.6 228s-2.1.1-3 .8l-2.5 2.3-1 2.2s0 2.2.6 2.6 1.6.1 2.4-.2 2-2.5 3.7-3.7c1.4-1.3 7.1-2.2 7-2.5-.2-.2-3-1.5-4-1.8-1.2-.2-3.2.2-3.2.2zM65.1 230c-1-1.3-3.7-3-3.7-3s-2.8-1.4-4.7-1.5c-1.9-.1-5.5 0-5.8.2s6.7 4.5 8.2 6.9c2 2.3 3.4 5.8 4.5 6.6 1 .8 1.1.7 2.3.4 1.2-.2 1.7-1.5 1.7-1.5l-.6-4.2s-.8-2.6-1.9-4zM222.8 261.1s-4.9-3.5-8.2-4.3a42 42 0 00-10.8-1.2c-.7.4 11.1 10.7 13.2 15.8 3 5 4.6 12.5 6.4 14.3s1.9 1.7 4 1.5c2.3-.2 3.7-2.6 3.7-2.6v-8.2s-.7-5.4-2.3-8.3c-1.7-3-6-7-6-7zM251.7 259.4c-.5-.4-5.2.4-7.6 1-2.3.6-5.8 3.6-5.8 3.6s-3 3.3-4.2 5.8-1.6 6.9-1.6 6.9v6.8s1 2 2.5 2.2c1.6.1 1.7.2 3-1.3 1.2-1.5 2.3-7.7 4.4-11.9 1.5-4.2 9.8-12.7 9.3-13.1zM248.6 276.8s-2.1.2-3 .9l-2.6 2.2-1 2.3s0 2.2.6 2.6c.7.3 1.6 0 2.4-.2.8-.4 2-2.5 3.8-3.7 1.4-1.3 7-2.3 7-2.5-.2-.3-3-1.6-4-1.8-1.2-.2-3.2.2-3.2.2zM216.1 278.8c-1-1.3-3.7-3-3.7-3s-2.9-1.3-4.7-1.5c-1.9 0-5.5 0-5.9.3s6.8 4.5 8.3 6.8c2 2.3 3.4 5.9 4.4 6.7 1 .7 1.2.7 2.4.4s1.7-1.6 1.7-1.6l-.6-4.1s-.8-2.6-1.9-4zM268.3 201.8s-4.9-3.5-8.2-4.3c-3.4-.8-10.1-1.6-10.8-1.2s11.1 10.7 13.2 15.8c3 5 4.6 12.5 6.4 14.3s1.9 1.7 4 1.5c2.3-.1 3.7-2.6 3.7-2.6v-8.2s-.7-5.4-2.3-8.3-6-7-6-7zM297.2 200.1c-.5-.3-5.2.4-7.6 1-2.3.7-5.8 3.6-5.8 3.6s-3 3.4-4.2 5.8c-1.1 2.4-1.6 6.9-1.6 6.9v6.8s1 2 2.5 2.2c1.6.1 1.7.2 3-1.3 1.2-1.5 2.3-7.7 4.4-11.9 1.5-4.2 9.8-12.7 9.3-13zM297.2 217.3c-1.1-.2-3.1.2-3.1.2s-2.1.2-3 1c-1 .6-2.6 2.2-2.6 2.2l-1 2.2s0 2.2.6 2.6 1.6.1 2.4-.2c.8-.4 2-2.5 3.8-3.7 1.4-1.3 7-2.3 7-2.5-.2-.2-3-1.5-4-1.8zM261.6 219.6c-1-1.4-3.7-3-3.7-3s-2.9-1.4-4.7-1.5c-1.9-.2-5.5 0-5.9.2-.3.3 6.8 4.5 8.3 6.8 2 2.3 3.4 6 4.4 6.7s1.2.7 2.4.4c1.1-.3 1.7-1.6 1.7-1.6l-.6-4.1s-.8-2.6-1.9-4z"/><g><path class="st30" d="M73.5 214l-4.4-3.6-5.7-3.1-3.8-.8h-3.9l-2.6.3 4.4 2.7 2.7 1.7c-.4 0 4.8 4.6 7.6 7.1l2.7 3.4 2.4 1.6s2.3 1.7 3.1 1.1c1-.6.8-1.7.8-1.7s.5-1.1-.4-3.8c-1-2.7-3-5-3-5zM97.9 212l2.3-1.3-4.2.2s-4 1.1-4.3 1.3l-3.8 2.6-3 3.4c-.4.7-1.6 2-1.6 2.3l-.3 1.2s-.5 1.1 1.1 1.2c1.6 0 3.4-2.4 3.4-2.4l2.6-2.9 2.6-2 3-2 2.2-1.6zM62.3 227.5l-2.7-1.3c-.4-.3-3.3-.6-4-.7-.7-.1-3.4.1-3.8.2-.3.1 2.3.7 2.3.7l1.1.6 4 2 3 2.3s1.7.7 2.5.5c.7-.2.2-2.2 0-2.4l-2.4-1.9zM99.4 227l-3.1.8s-1.2.2-1.6 1.4c-.4 1.2 0 1.2 0 1.2l.4-.2 2-1.7 2.5-.4h2.8l1.6.3-1-.6-3.6-.7zM269.6 203.5l-4.3-3.6-5.8-3.1-3.7-.7h-4l-2.5.2 4.3 2.7 2.7 1.8c-.4 0 4.8 4.5 7.6 7l2.7 3.5 2.5 1.6s2.2 1.7 3 1c1-.6.9-1.7.9-1.7s.5-1-.5-3.8c-1-2.6-3-4.9-3-4.9zM294 201.6l2.3-1.4-4.2.2s-4 1.1-4.3 1.3l-3.7 2.6s-2.6 2.8-3 3.5c-.4.7-1.6 1.9-1.6 2.2l-.4 1.2s-.4 1.1 1.1 1.2c1.6.1 3.4-2.4 3.4-2.4l2.7-2.8 2.5-2.1 3-2 2.2-1.5zM258.4 217c-.3-.2-2.3-1-2.6-1.3-.4-.2-3.4-.6-4-.7l-3.9.3 2.3.7 1.1.5 4 2 3 2.3s1.7.7 2.5.5c.8-.1.3-2.2 0-2.4l-2.4-1.8zM299.2 217.3l-3.6-.7-3.2.7s-1.1.2-1.6 1.5c-.4 1.2 0 1.2 0 1.2l.5-.3 2-1.6 2.4-.5h2.8l1.6.4-1-.7zM224.4 262.7l-4.3-3.6-5.7-3.1-3.8-.7h-3.9l-2.6.2 4.4 2.7 2.7 1.8c-.5 0 4.8 4.5 7.5 7l2.8 3.5 2.4 1.6s2.3 1.7 3.1 1c.9-.6.8-1.7.8-1.7s.5-1-.4-3.8c-1-2.6-3-4.9-3-4.9zM248.9 260.8l2.3-1.4-4.2.2s-4 1.1-4.3 1.3l-3.8 2.6-3 3.5c-.5.7-1.6 1.9-1.6 2.2l-.3 1.2s-.5 1.1 1 1.2c1.6.1 3.4-2.4 3.4-2.4l2.7-2.8 2.6-2.1 3-2 2.2-1.5zM213.3 276.3c-.4-.3-2.4-1.1-2.7-1.4-.3-.2-3.3-.6-4-.7l-3.8.3c-.4 0 2.2.7 2.2.7l1.2.5 4 2 2.9 2.3s1.8.7 2.5.5c.8-.1.3-2.2 0-2.4-.2-.3-2-1.6-2.3-1.8zM250.4 275.8l-3.2.7s-1 .3-1.5 1.5 0 1.2 0 1.2l.4-.3 2-1.6 2.5-.5h2.7l1.7.4-1-.7-3.6-.7z"/></g><g><path d="M168.3 147.8c-2.3 0-4.2-2-4.2-4.4v-14.1l-33.6.3c-1.2 0-3.8 0-4.6-2-.8-2 1-3.7 1.6-4.4l.1-.1.1-.1c.2-.1 12.1-9 19-15l-9 .2c-.9 0-3.2 0-4-1.9-1-1.8.6-3.7 1.2-4.4l.2-.2.2-.2c.1 0 15-10.3 20.2-16.1.7-.8 1.5-1.8 2.3-3.2l-8 .1c-2.2 0-3-.9-3.4-1.7-.3-.7-.5-2 1-3.7l.1-.2.3-.2s9.5-6.2 12.8-9.8c2.7-3 7.5-12.8 9-16.4l.2-.3.2-.2c.7-.8 2-1.2 2.6-1.3H172.9c.5 0 2.1.4 3 1.3l.1.2.1.3a91.7 91.7 0 009.1 16.4 100 100 0 0012.9 9.8l.2.2.2.2c1.4 1.7 1.3 3 1 3.7-.4.8-1.3 1.7-3.3 1.7h-6.4c.9 1.3 1.7 2.3 2.4 3 5.2 5.9 20 16.1 20.2 16.2l.2.2.2.2c.5.7 2 2.6 1.2 4.4-.8 1.9-3.2 1.9-4 1.9l-9-.1c6.8 6 18.8 14.8 18.9 14.9h.1l.1.2c.7.7 2.5 2.5 1.7 4.4-.8 2-3.5 2-4.6 2l-34-.3v14.1c0 2.4-1.9 4.4-4.2 4.4h-10.7z" fill="#448223"/><path d="M173 50.4s1 .3 1.3.7c0 0 6 13.1 9.5 17S197 78 197 78c1.1 1.4.8 2.2-.9 2.2l-9.9-.1a42 42 0 004.5 6.5c5.5 6 20.5 16.5 20.5 16.5 1.8 2.1 1.3 3-1.3 3l-14-.2 2 2.1c6.7 6 20.8 16.5 20.8 16.5 2.1 2.1 1.6 3-1.5 3l-36-.4v16.2c0 1.3-1 2.4-2.2 2.4h-10.7c-1.2 0-2.2-1-2.2-2.4v-16.2l-35.6.4c-3.2 0-3.7-.9-1.6-3 0 0 14.2-10.4 20.8-16.5l2-2-14 .1c-2.6 0-3-.9-1.3-3 0 0 15-10.5 20.6-16.5a42 42 0 004.5-6.5l-11.8.1c-1.7 0-2-.8-.8-2.1 0 0 9.6-6.4 13.2-10.2s9.4-16.9 9.4-16.9c.4-.4 1.4-.7 1.4-.7m0-4h-.6c-1.1.3-2.8.9-3.8 2.1l-.4.5-.2.5a88.6 88.6 0 01-8.8 15.8 93.9 93.9 0 01-12.4 9.6l-.5.3-.4.4c-2.2 2.6-1.7 4.8-1.2 5.9.5 1 1.8 2.8 5 2.8h4.1c-5.3 5.7-19.4 15.5-19.6 15.6l-.4.3-.4.4c-2 2.4-2.4 4.6-1.5 6.6 1 2 3 3 5.9 3h3.4a473.2 473.2 0 01-14.5 11.2l-.3.2-.2.2c-2.3 2.3-3 4.5-2 6.6 1.3 3.2 5.1 3.2 6.4 3.2l31.6-.3v12.1c0 3.5 2.8 6.4 6.2 6.4H179c3.4 0 6.2-2.9 6.2-6.4v-12.1l32 .3c1.2 0 5 0 6.4-3.2 1-2.1.2-4.3-2-6.6l-.3-.2-.2-.2c-.1-.1-8-5.9-14.6-11.2h3.4c3 0 5-1 6-3 .9-2 .4-4.2-1.6-6.6l-.3-.4-.5-.3c-.1-.1-14.3-10-19.6-15.6h2.2c3.3 0 4.6-1.8 5.1-2.8.5-1 1-3.3-1.2-5.9l-.3-.4-.5-.4a94 94 0 01-12.5-9.5c-2.3-2.4-6.5-11-8.7-15.8l-.3-.5-.3-.5a6.7 6.7 0 00-4.5-2z" fill="#125608"/></g><g><path d="M129 124.6l28.8-.1h8.2l32.8.3c4.1.2 7.4-2-1.3-8.1 0 0-10.2-8.2-16.2-13.3l-2-1.8 13 .2c2.3 0 2.7-.8 1.1-2.6l-17-17a27 27 0 01-3.6-4.7H183c.8 0-7.3-11-8.4-13.3-1.9-4-3.2-13-3.2-13-.5 0-6.2 13-9.7 16.8s-13.2 10.2-13.2 10.2c-1.1 1.3-.9 2.1.8 2.1l11.8-.1a42 42 0 01-4.5 6.5c-5.5 6-20.5 16.5-20.5 16.5-1.8 2.1-1.4 3 1.3 3l14-.2-2.1 2.1c-6.6 6-20.7 16.5-20.7 16.5-2.1 2.1-1.6 3 1.5 3h.2c-3 0-3.6-.9-1.5-3z" fill="#53ae31"/></g></g></g><g id="Hexagons"><g id="Lumber"><radialGradient id="SVGID_3_" cx="173" cy="200" r="187" gradientUnits="userSpaceOnUse"><stop offset="0" stop-color="#209e34"/><stop offset=".5" stop-color="#179838"/><stop offset="1" stop-color="#078d40"/></radialGradient><path fill="url(#SVGID_3_)" d="M0 100v200l173.2 100L346 300V100L173.2 0z"/><linearGradient id="SVGID_4_" gradientUnits="userSpaceOnUse" x1="173" y1="400" x2="173" y2="0"><stop offset="0" stop-color="#a1e65c"/><stop offset=".5" stop-color="#209e34"/><stop offset=".7" stop-color="#1d5728"/></linearGradient><path d="M173.2 33.5L317 116.7v166.6l-143.8 83.2L29 283.3V116.7l144.2-83.2m0-33.5L0 100v200l173.2 100L346 300V100L173.2 0z" fill="url(#SVGID_4_)"/><linearGradient id="SVGID_5_" gradientUnits="userSpaceOnUse" x1="173" y1="0" x2="173" y2="400"><stop offset="0" stop-color="#a1e65c"/><stop offset=".5" stop-color="#209e34"/><stop offset=".7" stop-color="#1d5728"/><stop offset=".8" stop-color="#1d602a"/><stop offset=".9" stop-color="#1e782e"/><stop offset="1" stop-color="#209e34"/></linearGradient><path d="M173.2 28.9L321 114.4v171.2L173.2 371 25 285.6V114.4L173.2 29m0-28.9L0 100v200l173.2 100L346 300V100L173.2 0z" fill="url(#SVGID_5_)"/><path class="st49" d="M173.2 15L333 107.5v185L173.2 385 13 292.5v-185L173.2 15m0-15L0 100v200l173.2 100L346 300V100L173.2 0z"/><path d="M173.2 12.7L335 106.3v187.4l-161.8 93.6L11 293.6V106.4l162.2-93.7m0-12.7L0 100v200l173.2 100L346 300V100L173.2 0z" fill="#e0b568"/><g><path class="st16" d="M71.9 143.3s-5-3.5-8.3-4.3c-3.4-.7-10-1.6-10.8-1.2S64 148.5 66 153.6c3 5 4.7 12.5 6.4 14.3 1.7 1.8 1.9 1.7 4.1 1.6 2.3-.2 3.6-2.6 3.6-2.6v-8.3s-.7-5.3-2.3-8.3c-1.6-3-6-7-6-7zM100.7 141.6c-.5-.3-5.2.4-7.6 1s-5.8 3.6-5.8 3.6-3 3.4-4.1 5.8-1.7 6.9-1.7 6.9v6.9s1 2 2.6 2.1c1.5.2 1.7.2 2.9-1.3s2.3-7.6 4.4-11.9c1.5-4.2 9.8-12.7 9.3-13zM97.6 159s-2.1.2-3 1l-2.5 2.2-1 2.2s0 2.2.6 2.6 1.6.1 2.4-.2 2-2.5 3.7-3.7c1.4-1.3 7.1-2.2 7-2.5-.2-.2-3-1.5-4-1.8-1.2-.2-3.2.2-3.2.2zM65.1 161c-1-1.3-3.7-3-3.7-3s-2.8-1.3-4.7-1.4c-1.9-.1-5.5 0-5.8.2-.4.3 6.7 4.5 8.2 6.9 2 2.3 3.4 5.8 4.5 6.6 1 .8 1.1.7 2.3.4 1.2-.2 1.7-1.5 1.7-1.5L67 165s-.8-2.6-1.9-4z"/><path class="st234" d="M222.8 192.2s-4.9-3.5-8.2-4.3a42 42 0 00-10.8-1.2c-.7.4 11.1 10.7 13.2 15.8 3 5 4.6 12.5 6.4 14.3s1.9 1.7 4.1 1.5 3.6-2.6 3.6-2.6v-8.2s-.7-5.4-2.3-8.3c-1.7-3-6-7-6-7zM251.7 190.5c-.5-.4-5.2.3-7.6 1-2.3.6-5.8 3.6-5.8 3.6s-3 3.3-4.2 5.8-1.6 6.8-1.6 6.8v7s1 2 2.5 2c1.6.2 1.7.3 3-1.2 1.2-1.5 2.3-7.7 4.4-12 1.5-4.1 9.8-12.7 9.3-13zM248.6 207.9s-2.1.2-3 .9L243 211l-1 2.3s0 2.2.6 2.5c.7.4 1.6.2 2.4-.1.8-.4 2-2.5 3.8-3.7 1.4-1.3 7-2.3 7-2.5-.2-.3-3-1.6-4-1.8-1.2-.2-3.2.2-3.2.2zM216.1 210c-1-1.4-3.7-3-3.7-3s-2.9-1.4-4.7-1.6c-1.9 0-5.5 0-5.9.3-.3.3 6.8 4.4 8.3 6.8 2 2.3 3.4 5.9 4.4 6.7 1 .7 1.2.7 2.4.4 1.1-.3 1.7-1.6 1.7-1.6l-.6-4.1s-.8-2.6-1.9-4z"/><path class="st16" d="M268.3 133s-4.9-3.6-8.2-4.4-10.1-1.6-10.8-1.2 11.1 10.7 13.2 15.8c3 5 4.6 12.5 6.4 14.3s1.9 1.7 4.1 1.5c2.2-.1 3.6-2.6 3.6-2.6v-8.2s-.7-5.4-2.3-8.3-6-7-6-7zM297.2 131.2c-.5-.4-5.2.4-7.6 1-2.3.6-5.8 3.6-5.8 3.6s-3 3.3-4.2 5.8-1.6 6.9-1.6 6.9v6.8s1 2 2.5 2.2 1.7.2 3-1.3c1.2-1.5 2.3-7.7 4.4-11.9 1.5-4.2 9.8-12.7 9.3-13.1zM297.2 148.4c-1.1-.2-3.1.2-3.1.2s-2.1.2-3 1c-1 .6-2.6 2.1-2.6 2.1l-1 2.3s0 2.2.6 2.6 1.6.1 2.4-.2c.8-.4 2-2.5 3.8-3.7 1.4-1.3 7-2.3 7-2.5-.2-.2-3-1.6-4-1.8zM261.6 150.6c-1-1.3-3.7-3-3.7-3s-2.9-1.3-4.7-1.4c-1.9-.2-5.5 0-5.9.2-.3.3 6.8 4.5 8.3 6.8 2 2.3 3.4 5.9 4.4 6.7 1 .7 1.2.7 2.4.4s1.7-1.6 1.7-1.6l-.6-4.1s-.8-2.6-1.9-4z"/></g><g><path class="st233" d="M73.5 145.4l-4.3-3.6-5.8-3.1-3.8-.8h-3.9l-2.6.2 4.4 2.8 2.7 1.7c-.4 0 4.8 4.5 7.6 7l2.7 3.5 2.4 1.6s2.3 1.7 3.1 1.1c.9-.6.8-1.7.8-1.7s.5-1.1-.4-3.8c-1-2.7-3-5-3-5zM97.9 143.4l2.3-1.3-4.2.2s-4 1.1-4.3 1.3c-.4.1-3.8 2.6-3.8 2.6s-2.5 2.7-3 3.4c-.4.7-1.6 2-1.6 2.3L83 153s-.5 1.1 1.1 1.2c1.6 0 3.4-2.4 3.4-2.4L90 149l2.6-2 3-2 2.2-1.6zM62.3 159l-2.7-1.4c-.4-.2-3.3-.6-4-.7s-3.4.1-3.8.2c-.3.1 2.3.7 2.3.7l1.1.6 4 2 3 2.3s1.7.7 2.5.5c.7-.2.2-2.2 0-2.5l-2.4-1.8zM99.4 158.5l-3.1.7s-1.2.2-1.6 1.4c-.4 1.2 0 1.2 0 1.2l.4-.2 2-1.7 2.5-.4h2.8l1.6.3-1-.7-3.6-.6zM269.6 134.9l-4.3-3.6-5.8-3.1-3.7-.7h-4l-2.5.2 4.3 2.7 2.7 1.8c-.4 0 4.8 4.5 7.6 7l2.7 3.4 2.5 1.7s2.2 1.6 3 1c1-.6.9-1.7.9-1.7s.5-1.1-.5-3.8c-1-2.6-3-5-3-5zM294 133l2.3-1.4-4.2.2s-4 1.1-4.3 1.3l-3.7 2.6s-2.6 2.8-3 3.5c-.4.6-1.6 1.9-1.6 2.2l-.4 1.2s-.4 1.1 1.1 1.2 3.4-2.4 3.4-2.4l2.7-2.8 2.5-2.1 3-2 2.2-1.5zM258.4 148.5c-.3-.3-2.3-1.1-2.6-1.4-.4-.2-3.4-.6-4-.7l-3.9.3 2.3.7 1.1.5 4 2 3 2.3s1.7.7 2.5.5c.8-.1.3-2.2 0-2.4l-2.4-1.8zM299.2 148.7l-3.6-.7-3.2.7s-1.1.2-1.6 1.4c-.4 1.3 0 1.3 0 1.3l.5-.3 2-1.6 2.4-.5h2.8l1.6.4-1-.7z"/><path class="st13" d="M224.4 194l-4.3-3.5-5.7-3.1-3.8-.7h-3.9l-2.6.2 4.4 2.7 2.7 1.8c-.5 0 4.8 4.5 7.5 7l2.8 3.4 2.4 1.7s2.3 1.6 3.1 1c.9-.6.8-1.7.8-1.7s.5-1.1-.4-3.8c-1-2.6-3-5-3-5zM248.9 192.2l2.3-1.4-4.2.2s-4 1.1-4.3 1.3l-3.8 2.6-3 3.5c-.4.6-1.6 1.9-1.6 2.2l-.3 1.2s-.5 1.1 1 1.2c1.6.1 3.4-2.4 3.4-2.4l2.7-2.8 2.6-2.1 3-2 2.2-1.5zM213.3 207.7c-.4-.3-2.4-1.1-2.7-1.4-.3-.2-3.3-.6-4-.7l-3.8.3c-.4 0 2.2.7 2.2.7l1.2.5 4 2 2.9 2.3s1.8.7 2.5.5c.8-.1.3-2.2 0-2.4-.2-.3-2-1.6-2.3-1.8zM250.4 207.2l-3.2.7s-1 .2-1.5 1.4c-.5 1.3 0 1.3 0 1.3l.4-.3 2-1.6 2.5-.5h2.7l1.7.4-1-.7-3.6-.7z"/></g><g><path d="M168.3 155.2c-2.3 0-4.2-2-4.2-4.3v-14.2l-33.6.4c-1.2 0-3.8 0-4.6-2-.8-2 1-3.8 1.6-4.5h.1l.1-.2c.2 0 12.1-8.9 19-14.9l-9 .1c-.9 0-3.2 0-4-1.8-1-1.9.6-3.8 1.2-4.5l.2-.2.2-.1c.1-.1 15-10.4 20.2-16.2.7-.7 1.5-1.8 2.3-3.1h-8c-2.2 0-3-.8-3.4-1.6-.3-.8-.5-2 1-3.7l.1-.3.3-.1s9.5-6.3 12.8-9.9c2.7-2.9 7.5-12.8 9-16.4l.2-.2.2-.2c.7-1 2.1-1.3 2.7-1.4h.2c.5 0 2.1.4 3 1.4l.1.2.1.2a91.7 91.7 0 009.1 16.4c3.4 3.6 12.8 9.8 12.9 9.9l.2.1.2.3c1.4 1.6 1.3 3 1 3.7-.4.8-1.3 1.7-3.3 1.7l-6.4-.1c.9 1.3 1.7 2.4 2.4 3.1 5.2 5.8 20 16 20.2 16.2l.2.1.2.2c.5.7 2 2.6 1.2 4.5-.8 1.8-3.2 1.8-4 1.8h-9c6.8 6 18.8 14.7 18.9 14.8l.1.1.1.1c.7.7 2.5 2.5 1.7 4.5s-3.5 2-4.6 2l-34-.4V151c0 2.4-1.9 4.3-4.2 4.3h-10.7z" fill="#468332"/><path class="st49" d="M173 57.9s1 .2 1.3.7c0 0 6 13 9.5 16.9S197 85.6 197 85.6c1.1 1.4.8 2.2-.9 2.2l-9.9-.2a42 42 0 004.5 6.6c5.5 6 20.5 16.4 20.5 16.4 1.8 2.1 1.3 3-1.3 3l-14-.1 2 2c6.7 6.1 20.8 16.5 20.8 16.5 2.1 2.2 1.6 3-1.5 3l-36-.3v16.2c0 1.3-1 2.3-2.2 2.3h-10.7c-1.2 0-2.2-1-2.2-2.3v-16.2l-35.6.4c-3.2 0-3.7-1-1.6-3 0 0 14.2-10.5 20.8-16.5l2-2.1-14 .1c-2.6 0-3-.9-1.3-3 0 0 15-10.4 20.6-16.4a42 42 0 004.5-6.6l-11.8.2c-1.7 0-2-.8-.8-2.2 0 0 9.6-6.3 13.2-10.1s9.4-17 9.4-17c.4-.4 1.4-.6 1.4-.6m0-4h-.4c-1 .1-3 .7-4 2l-.4.5-.2.5a88.7 88.7 0 01-8.8 15.9 94 94 0 01-12.4 9.5l-.5.3-.4.5c-2.2 2.6-1.7 4.8-1.2 5.8s1.8 2.9 5 2.9h4.1c-5.3 5.6-19.4 15.4-19.5 15.5l-.5.3-.4.5c-2 2.3-2.4 4.5-1.5 6.5 1 2 3 3 5.9 3h3.4a471.4 471.4 0 01-14.5 11.2l-.3.2-.2.2c-2.3 2.3-3 4.5-2 6.6 1.3 3.3 5.1 3.3 6.4 3.3l31.6-.4V151c0 3.5 2.8 6.3 6.2 6.3H179c3.4 0 6.2-2.8 6.2-6.3v-12.2l32 .4c1.2 0 5 0 6.4-3.3 1-2 .2-4.3-2-6.6l-.3-.2-.2-.2c-.1 0-8-5.8-14.6-11.2h3.4c3 0 5-1 6-3 .9-2 .4-4.2-1.6-6.5l-.3-.5-.5-.3c-.2 0-14.3-9.9-19.6-15.5h2.2c3.3 0 4.6-1.8 5.1-2.9.5-1 1-3.2-1.2-5.8l-.3-.5-.5-.3a93.8 93.8 0 01-12.5-9.5c-2.3-2.5-6.5-11-8.7-15.9l-.3-.5-.3-.4a6.7 6.7 0 00-4.5-2.1z"/></g><g><path d="M129 132h37l32.8.3c4.1.2 7.4-2-1.3-8.2 0 0-10.2-8.2-16.2-13.3l-2-1.7 13 .1c2.3 0 2.7-.7 1.1-2.5l-17-17a27 27 0 01-3.6-4.8H183c.8 0-7.3-11-8.4-13.3-1.9-4-3.2-13-3.2-13-.5 0-6.2 13-9.7 16.9s-13.2 10.1-13.2 10.1c-1.1 1.4-.9 2.2.8 2.2l11.8-.2a42 42 0 01-4.5 6.6c-5.5 6-20.5 16.4-20.5 16.4-1.8 2.1-1.4 3 1.3 3l14-.1-2.1 2c-6.6 6.1-20.7 16.5-20.7 16.5-2.1 2.2-1.6 3 1.5 3h.2c-3 0-3.6-.8-1.5-3z" fill="#54ae32"/></g></g></g></svg>