<svg xmlns="http://www.w3.org/2000/svg" xmlns:xlink="http://www.w3.org/1999/xlink" width="346" height="400"><style>.st14{fill:#e2c23b}.st15{fill:#e3c33b}.st19{display:none;fill:#cc9127}.st47{fill:#eace59}.st68{fill:#bc8b11}.st73{fill:#bf812e}.st207{fill:#965f0f}.st212{fill:#976014}.st225{fill:#ffc55e}.st231{display:none;fill:#e3c33b}.st239{fill:#cc9127}.st242{display:inline}.st364{display:none}</style><g id="Hexagons_OLD" class="st364"><g id="Grain_1_" class="st242"><radialGradient id="SVGID_1_" cx="173.2" cy="200" r="175.2" gradientUnits="userSpaceOnUse"><stop offset="0" stop-color="#f2c94b"/><stop offset="1" stop-color="#e1b634"/></radialGradient><path fill="url(#SVGID_1_)" d="M11 293.6V106.4l162.2-93.7 162.2 93.7v187.2l-162.2 93.7z"/><path d="M173.2 25.4l151.2 87.3v174.6l-151.2 87.3L22 287.3V112.7l151.2-87.3m0-25.4L0 100v200l173.2 100 173.2-100V100L173.2 0z" fill="#ffc655"/><path d="M173.2 13.9l161.2 93v186.2l-161.2 93-161.2-93V106.9l161.2-93m0-13.9L0 100v200l173.2 100 173.2-100V100L173.2 0z" fill="#e6ab23"/><radialGradient id="SVGID_2_" cx="173.7" cy="200.6" r="173.8" gradientUnits="userSpaceOnUse"><stop offset=".2" stop-color="#f5e56b"/><stop offset=".4" stop-color="#f4e568" stop-opacity=".7"/><stop offset=".6" stop-color="#f0e460" stop-opacity=".5"/><stop offset=".8" stop-color="#eae351" stop-opacity=".3"/><stop offset=".9" stop-color="#e1e13c" stop-opacity=".1"/><stop offset="1" stop-color="#d7df23" stop-opacity="0"/></radialGradient><path class="st68" d="M71.9 212.2s-5-3.5-8.3-4.3-10-1.6-10.8-1.2c-.7.5 11.1 10.7 13.2 15.8 3 5 4.7 12.5 6.4 14.3s1.9 1.7 4.1 1.6c2.3-.2 3.6-2.6 3.6-2.6v-8.3s-.7-5.3-2.3-8.3-6-7-6-7zM100.7 210.5c-.5-.3-5.2.4-7.6 1-2.3.7-5.8 3.6-5.8 3.6s-3 3.4-4.2 5.8c-1.1 2.5-1.6 6.9-1.6 6.9v6.9s1 2 2.6 2.1c1.5.2 1.7.2 2.9-1.3s2.3-7.6 4.4-11.9c1.5-4.2 9.8-12.7 9.3-13zM97.6 228s-2.1.1-3 .8c-1 .7-2.5 2.3-2.5 2.3l-1 2.2s0 2.2.6 2.6 1.6.1 2.3-.2c.8-.3 2-2.5 3.8-3.7 1.4-1.3 7-2.2 7-2.5-.2-.2-3-1.5-4-1.8-1.2-.2-3.2.2-3.2.2zM65.1 230c-1-1.3-3.7-3-3.7-3s-2.9-1.4-4.7-1.5c-1.9-.1-5.5 0-5.8.2-.4.3 6.7 4.5 8.2 6.9 2 2.3 3.4 5.8 4.5 6.6s1 .7 2.3.4c1.2-.2 1.7-1.5 1.7-1.5l-.6-4.2s-.8-2.6-1.9-4zM222.8 261.1s-4.9-3.5-8.2-4.3c-3.4-.8-10.1-1.6-10.8-1.2s11.1 10.7 13.2 15.8c3 5 4.6 12.5 6.4 14.3 1.7 1.8 1.9 1.7 4 1.5 2.3-.2 3.7-2.6 3.7-2.6v-8.2s-.7-5.4-2.3-8.3c-1.7-3-6-7-6-7zM251.7 259.4c-.5-.4-5.2.4-7.6 1-2.3.6-5.8 3.6-5.8 3.6s-3 3.3-4.2 5.8c-1.1 2.4-1.6 6.9-1.6 6.9v6.8s1 2 2.5 2.2 1.7.2 3-1.3c1.1-1.5 2.3-7.7 4.4-11.9 1.5-4.2 9.8-12.7 9.3-13.1zM248.6 276.8s-2.1.2-3 .9l-2.6 2.2-1 2.3s0 2.2.6 2.6 1.6 0 2.4-.2c.8-.4 2-2.5 3.7-3.7 1.4-1.3 7.2-2.3 7-2.5-.1-.3-2.9-1.6-4-1.8-1.1-.2-3.1.2-3.1.2zM216.1 278.8c-1-1.3-3.7-3-3.7-3s-2.9-1.3-4.7-1.5c-1.9 0-5.5 0-5.9.3-.3.3 6.8 4.5 8.3 6.8 2 2.3 3.4 5.9 4.4 6.7 1 .7 1.2.7 2.4.4s1.7-1.6 1.7-1.6l-.6-4.1s-.8-2.6-1.9-4zM268.3 201.8s-4.9-3.5-8.2-4.3-10.1-1.6-10.8-1.2c-.7.4 11.1 10.7 13.2 15.8 3 5 4.6 12.5 6.4 14.3 1.7 1.8 1.8 1.7 4 1.5 2.3-.1 3.7-2.6 3.7-2.6v-8.2s-.7-5.4-2.3-8.3c-1.7-3-6-7-6-7zM297.2 200.1c-.5-.3-5.2.4-7.6 1s-5.8 3.6-5.8 3.6-3 3.4-4.2 5.8c-1.1 2.4-1.6 6.9-1.6 6.9v6.8s1 2 2.5 2.2c1.6.1 1.7.2 3-1.3 1.1-1.5 2.3-7.7 4.4-11.9 1.5-4.2 9.8-12.7 9.3-13zM297.2 217.3c-1.1-.2-3.1.2-3.1.2s-2.1.2-3 1c-1 .6-2.6 2.2-2.6 2.2l-1 2.2s0 2.2.6 2.6c.7.4 1.6.1 2.4-.2.8-.4 2-2.5 3.7-3.7 1.4-1.3 7.2-2.3 7-2.5-.1-.2-2.9-1.5-4-1.8zM261.6 219.6c-1-1.4-3.7-3-3.7-3s-2.9-1.4-4.7-1.5-5.5 0-5.9.2c-.3.3 6.8 4.5 8.3 6.8 2 2.3 3.4 6 4.4 6.7s1.2.7 2.3.4c1.2-.3 1.8-1.6 1.8-1.6l-.6-4.1s-.8-2.6-1.9-4z"/><g><path class="st14" d="M73.5 214l-4.4-3.6-5.7-3.1-3.8-.8h-3.9l-2.6.3 4.4 2.7 2.7 1.7c-.4 0 4.8 4.6 7.6 7.1l2.7 3.4 2.4 1.6s2.3 1.7 3.1 1.1c.9-.6.8-1.7.8-1.7s.5-1.1-.4-3.8c-1-2.7-3-5-3-5zM97.9 212l2.3-1.3-4.2.2s-4 1.1-4.3 1.3l-3.8 2.6-3 3.4c-.4.7-1.6 2-1.6 2.3l-.3 1.2s-.5 1.1 1.1 1.2c1.5 0 3.4-2.4 3.4-2.4l2.6-2.9 2.6-2 3-2 2.2-1.6zM62.3 227.5l-2.7-1.3c-.3-.3-3.3-.6-4-.7-.7-.1-3.5.1-3.8.2-.3.1 2.3.7 2.3.7l1.1.6 4 2 2.9 2.3s1.8.7 2.6.5c.7-.2.2-2.2 0-2.4l-2.4-1.9zM99.4 227l-3.2.8s-1 .2-1.5 1.4c-.4 1.2 0 1.2 0 1.2l.4-.2 2-1.7 2.5-.4h2.8l1.6.3-1-.6-3.6-.7zM269.6 203.5l-4.3-3.6-5.8-3.1-3.7-.7h-4l-2.6.2 4.4 2.7 2.7 1.8c-.4 0 4.8 4.5 7.6 7l2.7 3.5 2.5 1.6s2.2 1.7 3 1c1-.6.8-1.7.8-1.7s.6-1-.4-3.8c-1-2.6-3-4.9-3-4.9zM294 201.6l2.3-1.4-4.2.2s-4 1.1-4.3 1.3l-3.7 2.6s-2.6 2.8-3 3.5c-.4.7-1.6 1.9-1.6 2.2l-.4 1.2s-.4 1.1 1.1 1.2c1.6.1 3.4-2.4 3.4-2.4l2.7-2.8 2.5-2.1 3-2 2.2-1.5zM258.4 217c-.3-.2-2.3-1-2.6-1.3-.4-.2-3.4-.6-4-.7l-3.9.3 2.3.7 1.1.5 4 2 3 2.3s1.7.7 2.5.5c.8-.1.3-2.2 0-2.4l-2.4-1.8zM299.2 217.3l-3.6-.7-3.2.7s-1.1.2-1.6 1.5c-.4 1.2 0 1.2 0 1.2l.5-.3 2-1.6 2.4-.5h2.8l1.6.4-1-.7zM224.4 262.7l-4.3-3.6-5.8-3.1-3.7-.7h-3.9l-2.6.2 4.4 2.7 2.7 1.8c-.5 0 4.8 4.5 7.5 7l2.8 3.5 2.4 1.6s2.3 1.7 3.1 1c.9-.6.8-1.7.8-1.7s.5-1-.4-3.8c-1-2.6-3-4.9-3-4.9zM248.9 260.8l2.3-1.4-4.2.2s-4 1.1-4.3 1.3c-.5.2-3.8 2.6-3.8 2.6s-2.5 2.8-3 3.5-1.6 1.9-1.6 2.2l-.3 1.2s-.5 1.1 1 1.2 3.4-2.4 3.4-2.4l2.7-2.8 2.6-2.1 3-2 2.2-1.5zM213.3 276.3c-.4-.3-2.4-1.1-2.7-1.4-.3-.2-3.3-.6-4-.7l-3.8.3c-.4 0 2.2.7 2.2.7l1.2.5 4 2 2.9 2.3s1.8.7 2.5.5c.8-.1.3-2.2 0-2.4l-2.3-1.8zM250.4 275.8l-3.2.7s-1.1.3-1.5 1.5c-.5 1.2 0 1.2 0 1.2l.4-.3 2-1.6 2.5-.5h2.7l1.7.4-1-.7-3.6-.7z"/></g><g><path class="st225" d="M176.4 154.5c-.6 0-1.2-.1-1.7-.3a5 5 0 01-3-4.4c-.2-1.6.3-3 .8-4.4.3-.7.6-1.6 1.2-2.4a49 49 0 0113.8-14.2c3.7-2.7 6.5-4.7 9.3-6.4 4-2.4 21.8-6.8 25.1-6.8 1 0 1.6.3 1.9 1 .8 1.6-.1 2.1-9.3 7.2-5.7 3.1-12.9 7-15.7 9.5-3.7 3.2-6.9 7-10 10.6-2.1 2.5-4.4 5.1-6.8 7.6-.8.8-1.7 1.7-2.9 2.3a6 6 0 01-2.7.7z"/><path class="st207" d="M222 117l.4.2c.5.9-19.2 10.3-24.6 15-6.3 5.5-11 12.3-16.8 18.2a10 10 0 01-2.5 2c-.7.4-1.4.6-2.1.6l-1.2-.2c-1.2-.5-2-1.8-2-3.1a9 9 0 01.7-3.8c.3-.7.6-1.5 1-2.1 3.2-5.5 8.3-9.9 13.5-13.8 3-2.2 6-4.4 9.2-6.3 3.7-2.2 21.1-6.6 24.3-6.6m0-3c-3.5 0-21.6 4.5-25.9 7-2.8 1.8-5.7 3.7-9.4 6.5a50.5 50.5 0 00-15.5 17.3c-.6 1.5-1.1 3.1-1 5a6.5 6.5 0 004.1 5.7c.7.2 1.4.4 2.2.4 1.1 0 2.3-.3 3.4-.9 1.4-.7 2.4-1.7 3.3-2.6l6.9-7.6c3.2-3.8 6.2-7.3 9.8-10.5a125 125 0 0115.5-9.3l6.3-3.6 2-1.3c2.5-1.8 1.9-3.6 1.5-4.4-.3-.6-1.2-1.7-3.2-1.7z"/><path class="st225" d="M163.3 153c-1.1 0-2.1-.5-2.8-.8-2.7-1.3-4.7-3.4-6.7-5.5l-.3-.3c-4.3-4.5-9-8.7-13.7-12.7-2.4-2-5-4-7.8-5.5a20 20 0 00-6.4-1.3c-2.3-.2-4-.3-3.8-2 0-1.2.6-2 6.5-2 1.9 0 5.4.1 7.9 1a56 56 0 0116.1 8.7 89 89 0 019 8.1l2 2c1.5 1.4 4.1 4 3.5 7.2-.1 1-.6 1.7-1.2 2.3-.6.5-1.4.7-2.3.7z"/><path class="st207" d="M128.3 124.4c2.5 0 5.5.2 7.4.9a55 55 0 0115.7 8.5c3.2 2.4 6 5.2 8.9 8l2 2c1.7 1.6 3.5 3.6 3 5.9 0 .5-.2 1-.6 1.3-.4.3-1 .4-1.4.4a5 5 0 01-2.1-.5c-2.7-1.3-4.7-3.5-6.7-5.6-4.3-4.5-8.9-8.7-13.8-12.7-2.5-2.1-5-4.1-8-5.7s-9.5-1.4-9.4-2c0-.2 2.3-.5 5-.5m0-3c-3.6 0-7.8 0-8 3.3 0 .5-.1 3 3.2 3.5l2 .2c1.6.2 4.6.4 5.8 1 2.7 1.6 5.2 3.6 7.5 5.5 4.8 3.9 9.4 8.1 13.6 12.5l.3.4c2 2 4.2 4.3 7.2 5.8.8.4 2 .8 3.4.8a5 5 0 003.3-1c.9-.8 1.5-2 1.7-3.2.8-4-2.4-7.1-4-8.6l-2-2a90 90 0 00-14-11.4c-4.3-2.7-8-4.5-11.7-5.8-2.6-.9-6.3-1-8.3-1z"/><path class="st225" d="M162.2 133.3h-.3c-1.2-.3-2.2-1.7-3.9-4.1a42 42 0 00-1.6-2.3l-3-3.3a41.6 41.6 0 00-4.3-3.6 58 58 0 01-3.6-2.8c-3.4-3-5.2-6.2-5.3-9.4 0-2 .7-3.4 2-4 .6-.3 1-.4 1.7-.4.6 0 1.3.1 2.1.4 3.6 1.5 6 4.5 7.5 6.6.6 1 1.3 2 1.8 3.3.3.7.5 1.4.6 2.2l.2.6c.8 3 3.6 7.6 5.6 10.7 2.2 3.7 2.6 4.4 2 5.4l-.4.7h-1.1z"/><path class="st207" d="M143.9 104.9l1.6.3c2.9 1.2 5 3.6 6.7 6 .7 1 1.3 2 1.7 3l.8 2.7c1.3 5.2 8.5 15 7.7 15-1.2-.3-3.3-4-4.9-6l-3-3.4c-2.5-2.4-5.4-4.2-8-6.4s-4.7-5.1-4.8-8.4c0-1 .2-2.2 1.2-2.6.3-.2.6-.2 1-.2m0-3c-.8 0-1.6.1-2.3.5-1.9.9-3 3-3 5.4.2 3.6 2.2 7.3 6 10.6 1.1 1 2.4 2 3.6 2.8 1.5 1.2 3 2.2 4.2 3.4a41.8 41.8 0 014.4 5.4c1.9 2.7 3 4.3 4.8 4.7l.3.1h.5a3 3 0 002.6-1.5c1-1.8.3-3-2-6.8a52 52 0 01-5.4-10.3l-.2-.7-.7-2.4a17 17 0 00-2-3.5 18.7 18.7 0 00-8.1-7.1c-1-.4-1.9-.6-2.7-.6z"/><path class="st225" d="M151 108.1v-.2a13.2 13.2 0 00-6.6-5.6l-2.1-1c-1-.7-2-1.5-2.7-2.2a18 18 0 01-2.8-3.2 11 11 0 01-1.8-6.3c0-2 .8-3.6 2-4.6 1-.6 2-1 3.2-1a9 9 0 013.7 1c3.2 1.4 5.8 4 8.2 7.9l1.6 3c1.5 4 1.1 8.3.8 12l-.3 2.8-3.1-2.6z"/><path class="st207" d="M140.2 85.5c1 0 2.2.3 3 .8a18 18 0 017.6 7.4c.6.9 1 1.8 1.5 2.8 1.4 3.6 1 7.5.7 11.3l-.8-.6a14.6 14.6 0 00-5.9-5.6l-3.2-1.6c-1-.6-1.7-1.2-2.5-2-1-.8-1.9-1.8-2.6-2.9a9.5 9.5 0 01-1.5-5.5c0-1.2.4-2.6 1.4-3.4.7-.5 1.5-.7 2.3-.7m0-3c-1.5 0-3 .5-4 1.3a7.2 7.2 0 00-2.7 5.7c-.1 2.5.6 5.1 2 7.3 1 1.4 2.2 2.6 3 3.4a18.2 18.2 0 005.3 3.5l1.1.6c2 1 3.7 2.5 4.7 4.4l.3.4.4.4.8.6 4.4 3.6.5-5.6c.3-3.8.7-8.4-1-12.7-.3-1-.9-2-1.6-3.3-2.5-4.2-5.4-7-8.9-8.6-1-.4-2.5-1-4.3-1z"/><path class="st225" d="M153.6 93.4c-.7-2.3-2.2-4.4-4.2-5.8l-2.5-1.5c-2-1-4-2.2-5.4-4.3-.7-1.1-1-2.4-1.2-3.4-.3-1.2-.5-2.9.2-4.4a5.2 5.2 0 015.3-2.7c2 .3 3.5 1.6 4.6 2.8 1.5 1.7 2.6 3.2 3.3 4.7.7 1.6 1 3.2 1.3 4.7l2 9.8-2.7 2.3-.7-2.2z"/><path class="st207" d="M145.1 72.8h.5c1.5.2 2.7 1.3 3.7 2.3 1.2 1.3 2.3 2.8 3 4.4.6 1.3 1 2.8 1.2 4.3l1.9 8.9-.4.3c-.7-2.6-2.4-5-4.8-6.6-2.5-1.8-5.8-2.8-7.4-5.4a9 9 0 01-1-2.9c-.3-1.1-.5-2.4 0-3.4.6-1.2 2-2 3.3-2m0-3c-2.5 0-5 1.5-6 3.7-.9 1.9-.6 3.9-.3 5.3.2 1.1.6 2.6 1.5 4 1.5 2.3 3.8 3.6 5.9 4.7l2.3 1.4c1.8 1.3 3.1 3 3.7 5l1.3 4.5 3.5-3 .3-.3 1.4-1.2-.4-1.7-1.8-8.7v-.2a19 19 0 00-5-10c-1.3-1.5-3-3-5.5-3.4h-.9z"/><path class="st225" d="M158.8 73.3l1.6-.3h.2l2.8-.6-1.2 2.9-1.6 3.6-1.8-5.6z"/><path class="st207" d="M161 74.4l-.2.3v-.2h.1m5-4l-5.5 1h-.3l-3.3.6 1 3.3.2.2 2.4 7.5 3.2-7.2v-.3l2.3-5.2z"/><path class="st225" d="M159.8 67.5c0-.7-.4-1.5-1.1-2.5l-1-1.2-1.5-1.8c-.8-1.1-1.4-2.4-1.7-3.8-.5-2.3.2-3.6.9-4.4.7-.8 1.8-1.3 3.1-1.3 1 0 2 .3 3 .9 1.2.9 2.2 2.3 2.8 4.3 1.3 4 .8 7.8-1.4 10.6l-.3.4-2.9.8v-2z"/><path class="st207" d="M158.5 54c.7 0 1.5.3 2 .6 1.3.9 2 2.2 2.4 3.6 1 3 .9 6.6-1.1 9.2l-.6.1c0-1.2-.6-2.4-1.3-3.4l-2.5-3c-.7-1-1.2-2-1.4-3.2-.3-1-.3-2.2.5-3 .5-.6 1.2-.9 2-.9m0-3c-1.7 0-3.2.7-4.3 1.8-.9 1-1.8 2.8-1.2 5.7.4 1.6 1 3 2 4.4l1.5 2 1 1c.7 1 .8 1.4.7 1.6v4l3.9-1.1.5-.2 1-.2.5-.8a13 13 0 001.6-12 9 9 0 00-3.5-5c-1-.8-2.4-1.2-3.7-1.2z"/><path class="st225" d="M164.6 60v-.4c0-1.5-.4-3-.9-4.5 0-.5-.2-1-.4-1.4-.5-2-1-4.7 0-7.3.6-1 1.3-1.9 2.2-2.3.5-.3 1-.4 1.7-.4.8 0 1.6.2 2.1.8.6.5.9 1.2 1 1.7.7 2.2.3 4.4-.2 6.5-.6 2.6-1.4 5.2-2.4 7.7l-1.2 2.9-1.9-3.3z"/><path class="st207" d="M167.2 45.2c.4 0 .8 0 1.1.4.3.2.5.6.6 1 .6 1.9.2 3.8-.2 5.7-.6 2.6-1.4 5-2.4 7.5l-.2-.2c0-2.2-.7-4.2-1.3-6.3-.6-2-1-4.3 0-6.3.3-.6.7-1.2 1.4-1.6l1-.2m0-3c-.8 0-1.7.2-2.4.5a6.2 6.2 0 00-2.8 3.1c-1.3 3-.7 6.2-.1 8.3l.4 1.4c.4 1.5.9 2.8.8 4v.8l.4.7.1.2 3 5.6L169 61c1.1-2.6 2-5.3 2.6-8 .5-2.1 1-4.7.2-7.3-.1-.3-.5-1.5-1.5-2.4-.8-.7-2-1.1-3.1-1.1z"/><path class="st225" d="M170 51.6c0-2.2.5-4.4 1.4-6.4.2-.7.6-1.4 1.3-2 .5-.4 1.2-.7 2-.7.4 0 .9.1 1.3.4.6.3 1.3 1 1.3 2.7 0 1.7-.3 3.4-1.2 4.8a8.4 8.4 0 01-4 3.4l-1.9.8-.2-3z"/><path class="st207" d="M174.6 44c.2 0 .4 0 .6.2.5.3.6.9.6 1.4 0 1.4-.3 2.8-1 4s-1.9 2.3-3.3 2.9v-.9c0-2 .5-4 1.2-5.9.3-.5.5-1 1-1.3.2-.2.6-.4 1-.4m0-3c-1.1 0-2.2.4-3 1a6 6 0 00-1.7 2.6c-1 2.2-1.4 4.5-1.5 6.9V52.7l.4 4 3.8-1.5a10 10 0 006.1-9.6c0-2.5-1.3-3.6-2-4-.7-.4-1.4-.6-2.2-.6z"/><path class="st225" d="M168.6 59.6v-.8c0-1.9 1-3.7 2.6-5l1.2-.6.8-.5c.6-.4 1.1-1 1.6-1.5.4-.5 1-1.1 1.7-1.5.5-.3 1.1-.5 1.7-.5.5 0 1 .2 1.5.4 1 .5 1.5 1.6 1.5 2.8 0 1.9-1 3.7-2.8 5-1.4 1-3.1 1.6-4.6 2l-3.6 1.3-1.6-1z"/><path class="st207" d="M178.2 50.7c.3 0 .5 0 .7.2.6.3.8 1 .8 1.6 0 1.4-1 2.7-2.2 3.6-1.2 1-2.7 1.5-4.2 2l-2.9 1-.3-.3c0-1.4.8-2.8 2-3.7l2-1.2c.7-.5 1.2-1.1 1.8-1.7a5 5 0 011.3-1.2c.3-.2.6-.3 1-.3m0-3c-.8 0-1.7.2-2.4.7-1 .5-1.7 1.2-2.2 1.8a8 8 0 01-1.3 1.2c-.1.2-.4.3-.7.5l-1.3.8a7.7 7.7 0 00-3.2 6.1v1.6l1.3 1 .3.1 1.2.9 1.5-.5 2.9-1c1.5-.6 3.3-1.2 5-2.3a7.6 7.6 0 003.4-6.2c0-1.8-.9-3.3-2.3-4.1-.7-.4-1.4-.6-2.2-.6z"/><path class="st225" d="M171 138.4h-.7l-.4-.7c-1-1.4.8-11 1.1-12.2.9-3.4 1.6-7 .6-10.2L170 112c-.9-1.6-1.8-3.3-2.1-5.2-.3-1.8 0-3.6.6-5.3A5.6 5.6 0 01171 99c.7-.4 1.5-.6 2.3-.6 1.2 0 2.5.4 3.5 1.2 1.2 1 2.2 2.4 2.7 4.3.7 2.5.6 5.1.5 7.4-.2 3-.6 6-2 9l-1 1.8-1 2c-.4.8-.7 1.8-1 2.8-.5 1.6-1 4.2-1.3 6.3-.8 4.5-1 5.3-2.4 5.3h-.1z"/><path class="st207" d="M173.2 99.8c1 0 1.9.3 2.6.9 1.1.8 1.8 2.1 2.1 3.5.7 2.2.6 4.6.5 6.9a23 23 0 01-1.8 8.4c-.7 1.3-1.5 2.5-2.1 3.8l-1 3c-1 3.6-2 10.6-2.3 10.6-.4 0 .3-7.4 1.3-11 .9-3.7 1.7-7.5.5-11-1-3-3.1-5.4-3.6-8.3-.3-1.4 0-3 .5-4.4.4-.8 1-1.6 1.7-2 .5-.3 1-.4 1.6-.4m0-3c-1 0-2.1.3-3 .7a7 7 0 00-3 3.5c-.9 2-1.1 4-.8 6.1.4 2.2 1.4 4 2.3 5.7.6 1 1.1 2 1.4 3 1 2.8.3 6.1-.5 9.3-.5 1.7-1 4.4-1.2 7-.6 5-.3 5.7.3 6.5l.7 1.1 1.4.2h.4c2.5 0 3-2.5 3.3-3.5l.6-3c.3-2 .8-4.6 1.3-6.2l.8-2.7 1-1.8 1-2c1.5-3 2-6.3 2.2-9.4a23 23 0 00-.6-8c-.6-2.2-1.7-3.9-3.2-5a7.4 7.4 0 00-4.4-1.5z"/><path class="st225" d="M178 119.4v-.2c1.4-2.8 3.2-6.2 6-8.9.7-.6 1.7-1.5 3-1.9l1.5-.2c2.5 0 4.9 1.8 5.3 4.1.3 1.6-.3 3.4-1.5 4.8-1.2 1.3-2.7 2-3.8 2.6a26 26 0 01-9.1 2.4l-2 .1.5-2.8z"/><path class="st207" d="M188.5 109.7c1.7 0 3.5 1.3 3.8 2.9.2 1.2-.3 2.5-1.2 3.5s-2 1.7-3.2 2.2c-2.7 1.3-5.7 2-8.6 2.3v-.7c1.6-3 3.2-6 5.7-8.5.7-.6 1.5-1.2 2.4-1.5l1-.2m0-3l-1.8.3a9.2 9.2 0 00-3.7 2.3c-3 2.8-4.7 6.4-6.2 9.2l-.2.4v.4l-.2.7-.7 3.8 3.9-.2c3.3-.3 6.7-1.2 9.6-2.6 1.2-.5 3-1.4 4.3-3 1.6-1.7 2.3-3.9 1.9-6-.6-3-3.5-5.3-6.8-5.3z"/><path class="st225" d="M179.8 109.7c.2-1.7-.3-3.6-.9-5.5l-.6-2.4c-1-4.2-.4-8 1.6-10.8.7-1 1.5-1.5 2.5-1.6h.2c.7 0 1.5.4 2.2 1 2 1.8 2 4.5 2 6.9-.2 2.2-.3 4.6-.8 7a14 14 0 01-3.5 6.6l-.3.3-2.6.7.2-2.2z"/><path class="st207" d="M182.6 91c.4 0 .8.2 1.1.5 1.6 1.4 1.6 3.7 1.5 5.7 0 2.2-.1 4.5-.7 6.7s-1.4 4.3-3 6h-.2c.3-2.8-.9-5.6-1.5-8.4-.8-3.2-.7-6.8 1.3-9.6.3-.5.8-1 1.4-1m0-3h-.2c-1 0-2.4.5-3.6 2.2-2.3 3.2-3 7.4-1.9 12l.7 2.5c.5 1.8 1 3.5.8 5l-.5 4.3 4.2-1 .2-.1.8-.2.6-.6c1.9-2 3.2-4.4 3.9-7.4.5-2.5.6-5 .7-7.3.1-2 .3-5.6-2.4-8-1-1-2-1.4-3.2-1.4z"/><path class="st225" d="M186.6 103.3v-.3c.3-1.7 0-3.5-.1-5.3l-.2-2c-.2-2.4-.2-5.7 1.7-8.5.7-1 1.4-1.6 2.3-2 .7-.3 1.4-.5 2-.5.6 0 1 0 1.5.2 1.3.5 2.2 1.6 2.6 3a8 8 0 010 3c-.1 1.8-.5 3.9-1.6 5.7-.7 1.2-1.7 2.2-2.6 3.2-1.2 1.3-2.4 2.6-2.7 4l-3-.5z"/><path class="st207" d="M192.4 86.2l1 .1c.7.4 1.3 1.1 1.5 2 .2.8.2 1.6 0 2.4-.1 1.8-.5 3.6-1.4 5.2-1.6 2.7-4.9 4.6-5.4 7.6v-.3c.4-2.6-.1-5.1-.3-7.7-.2-2.5 0-5.3 1.5-7.4.4-.7 1-1.2 1.7-1.6.4-.2.9-.3 1.4-.3m0-3c-1 0-1.9.2-2.8.6-1 .6-2 1.4-2.8 2.5a14.2 14.2 0 00-2 9.4l.2 2.1c.2 1.8.4 3.5.1 5v.3l6 1c.1-1 1.1-2.1 2.2-3.3 1-1 2-2 2.8-3.4 1.2-2.1 1.6-4.4 1.8-6.3.2-1 .3-2.3 0-3.6a5.8 5.8 0 00-3.5-4c-.6-.2-1.3-.3-2-.3z"/><g><path class="st225" d="M157.6 120.4l.3-1c.2-.4-.1-1.2-.4-2v-.2c-.7-1.9-1.1-3.8-1.3-5.8-.1-1.2-.2-2.8.3-4.4a6.4 6.4 0 013.3-4c1-.4 2-.6 3.3-.6.7 0 1.4 0 2.2.3 2 .6 3.3 2.5 3.8 5.3.2 1.2.3 2.3.2 3.2-.3 2.2-1.5 4.4-3.5 6.3a32 32 0 01-5.5 4l-1 .6-1.7-1.7z"/><path class="st207" d="M163.1 103.9c.6 0 1.2 0 1.7.2 1.8.6 2.6 2.5 2.8 4.2.2.9.3 1.8.2 2.7-.3 2-1.5 4-3 5.4a30.9 30.9 0 01-5.3 3.8l-.2-.2c.4-1.1 0-2.2-.4-3.3-.6-1.8-1-3.6-1.2-5.4-.2-1.3-.2-2.6.2-3.9a4.9 4.9 0 012.5-3c.8-.4 1.8-.5 2.7-.5m0-3c-1.5 0-2.8.3-4 .8-1.9.9-3.4 2.6-4 4.8-.6 1.9-.6 3.7-.4 5 .2 2.2.7 4.2 1.3 6.2l.1.2.4 1.2-.7 1.7 1.4 1.3.3.3 1.7 1.6 2-1.3c1.8-1.1 3.9-2.4 5.7-4.1 2.2-2.2 3.5-4.7 3.8-7.2.2-1 .1-2.3-.1-3.6-.6-3.4-2.3-5.7-4.9-6.5-1-.4-1.9-.4-2.5-.4z"/></g><g><path class="st225" d="M155.2 104.2v-.7c.2-1 .1-1.9 0-3l-.2-1.1c-.2-2.3.1-4.3.9-6 1-2 2.8-3.6 5-4.2l1.6-.2c2 0 4 1 5 2.5.7 1.1.9 2.4 1 3.6l-.1 1.7c-.4 1.9-1.8 3.2-3 3.9l-2.3 1.2-1.3.6c-1.4.7-2.5 1.6-3.5 2.7l-1.1 1.2-2-2.2z"/><path class="st207" d="M162.5 90.5c1.5 0 3 .6 3.7 1.8.6.9.7 1.9.7 2.9v1.3c-.2 1.2-1.2 2.2-2.3 3s-2.4 1-3.5 1.7c-1.5.8-2.8 1.8-4 3l-.3-.5c.2-1.5-.1-3-.3-4.5-.1-1.7 0-3.5.8-5s2.1-3 4-3.5a5 5 0 011.2-.2m0-3a8 8 0 00-2 .3 9.3 9.3 0 00-6 5c-.8 2-1.2 4.1-1 6.7l.2 1.2c.1 1 .2 1.9.1 2.5l-.2 1.5 1 1 .4.5 2.2 2.4 2.2-2.4c.9-1 1.9-1.7 3-2.4.4-.2.9-.3 1.3-.6l2.5-1.2c2-1.3 3.3-3 3.6-5 .2-.7.2-1.3.1-2 0-1.3-.2-2.9-1.2-4.3a7.4 7.4 0 00-6.2-3.2z"/></g><g><path class="st225" d="M158.3 90.3c-.9 0-1.7-.5-2.1-1.4-.4-.8-.3-1.6-.2-2l1.2-4.8c.8-2 1.7-3.6 2.9-4.9a9 9 0 016.2-3c.7 0 1.3.2 1.8.4.6.3 1 .8 1.5 1.5 1.6 2.5 1.2 6-1 8.6-1.6 1.9-4 3.3-7.3 4.4l-.5.1.2.3-2 .7-.7.1z"/><path class="st207" d="M166.3 75.7c.4 0 .8 0 1 .3.5.2.8.5 1 .9 1.4 2 .8 4.9-.8 6.8a14 14 0 01-6.6 4c-.9.2-1.7.5-2.4 1l-.2.1a1 1 0 01-.8-.5V87c.2-1.5.6-3 1.2-4.5a13 13 0 012.5-4.4 7.6 7.6 0 015-2.5m0-3h-.9c-2.3.4-4.6 1.6-6.4 3.5a15.7 15.7 0 00-3 5.4c-.7 1.6-1.1 3.3-1.4 5a5 5 0 00.3 3 4 4 0 003.5 2.2c.5 0 .9 0 1.3-.2l3.8-1.3-.2-.3c2.9-1 5-2.5 6.6-4.3 2.6-3.2 3-7.3 1-10.4a5.4 5.4 0 00-2-2c-.8-.4-1.6-.6-2.5-.6z"/></g><g><path class="st225" d="M155.8 79.3c-.3-1.3-1.7-2.3-3.1-3.4a48 48 0 01-1-.7c-3.3-2.6-5.1-5.9-5-9 .1-1.6.8-3 1.9-3.8.7-.5 1.6-.8 2.7-.8.9 0 1.9.2 2.7.7a9 9 0 013.2 3.3 18 18 0 012.6 6.5c.4 2.6 0 5-1 7.1l-2.2 3.7-.8-3.6z"/><path class="st207" d="M151.3 63c.7 0 1.4.3 2 .6 1.1.7 2 1.7 2.6 2.8 1.1 1.9 2 3.9 2.4 6 .3 2 .1 4.2-.9 6.2l-.2.3c-.5-2.1-2.7-3.5-4.6-5-2.5-1.9-4.5-4.6-4.4-7.6 0-1 .4-2 1.3-2.7a3 3 0 011.8-.5m0-3a6 6 0 00-3.6 1.1 6.3 6.3 0 00-2.5 5c-.1 3.6 1.8 7.2 5.6 10.2l1 .7c1 .8 2.3 1.8 2.5 2.5l1.8 7.3 3.7-6.5.2-.3.1-.2c1.2-2.4 1.6-5.2 1.1-8-.3-2.3-1.3-4.6-2.7-7-.8-1.3-2-2.9-3.7-3.9-1.1-.6-2.3-1-3.5-1z"/></g><g><path class="st225" d="M195.5 92.2l.3-.6 3.6-6.4-.8 8.3-5.1 3.2 2-4.5z"/><path class="st207" d="M197.2 92.2v.4l-.3.2.3-.6m4.4-14l-7 12.6-.4.7-4.2 9.1 8.5-5.3.3-.1 1.2-.8.2-1.5v-.4l1.4-14.3z"/></g><g><path class="st225" d="M195.7 96.3l.5-.8c.8-1.5 2-2.4 3.3-3.2 1.3-1 2.7-1.8 4-2.6.6-.3 1.4-.8 2.3-1h.6c1.8 0 3.3 1.3 3.5 2.8.1.9-.1 2.2-1.9 3.5a13.1 13.1 0 01-7.6 2.6h-1.3l-1.3.1-1 .2-1-1.6z"/><path class="st207" d="M206.4 90.2c1 0 2 .6 2 1.5.1.8-.6 1.6-1.3 2.1a11.7 11.7 0 01-7 2.3h-1l-1.6.1c.6-1.1 1.7-2 2.9-2.7a75.9 75.9 0 015.6-3.2h.4m0-3h-.9c-1.2.2-2.1.8-2.7 1.1l-4.1 2.6c-1.4 1-2.9 2-3.8 3.7l-1 1.7 1.2 1.5 1.1 1.6 2-.3h1.3a30.3 30.3 0 001 0c3-.1 6-1.2 8.4-3 2.5-1.8 2.6-3.8 2.5-4.9-.3-2.3-2.4-4-5-4z"/></g><g><path class="st225" d="M203.4 87.2l1-1c1.8-1.6 3.8-2.8 5.8-3.9a12 12 0 016.1-1.8c1.7.2 3.4 1 3.7 2.9.3 1.5-.7 2.9-2.5 3.8-1.5.7-3.1 1-4.6 1.2a86 86 0 01-7 .8l-.7.1-1.8-2.1z"/><path class="st207" d="M215.8 82h.4c1 .1 2.2.7 2.3 1.6.2 1-.7 1.8-1.7 2.2-1.2.6-2.7.9-4.1 1.1-2.3.4-4.6.7-6.9.8l-.3-.4c1.5-1.5 3.4-2.6 5.4-3.7 1.5-.8 3.2-1.6 4.9-1.6m0-3c-2.4 0-4.4 1-6.3 2-2 1-4.2 2.4-6.1 4.1l-2 2 1.7 2 .4.5 1 1.3 1.6-.2c2.3-.2 4.7-.4 7-.8a18 18 0 005-1.4c2.4-1.1 3.7-3.2 3.4-5.4-.3-2.2-2.4-3.8-5-4a8 8 0 00-.7 0z"/></g><g><path class="st225" d="M162.9 68.5a28 28 0 012.9-5.5c.6-.9 1.6-2 3.2-2.5l1.2-.2c1.8 0 3.6 1 4.4 2.6 1 1.6.9 3.7-.1 5.6a11 11 0 01-3.6 3.7c-2.5 1.7-5.5 2.9-8.6 3.5l-2.7.5 3.3-7.7z"/><path class="st207" d="M170.2 61.8c1.3 0 2.5.8 3.1 1.8.7 1.3.6 2.9-.1 4.2a9.6 9.6 0 01-3.2 3.1 21 21 0 01-8 3.3l2.3-5.1c.8-1.8 1.5-3.6 2.7-5.2.6-.9 1.4-1.7 2.4-2h.8m0-3a6 6 0 00-1.6.2 7.8 7.8 0 00-4 3c-1.4 1.9-2.3 4-3 5.8l-.8 1.6-1.5 3.5-2.2 5.2 5.5-1a24 24 0 009.1-3.8c2-1.3 3.3-2.7 4-4.2 1.3-2.3 1.4-5 .2-7a6.6 6.6 0 00-5.7-3.4z"/></g><g><path class="st225" d="M203.3 84.4c.4-3.6 1.9-7.1 4.1-10.1.3-.4 1-1.5 2.5-1.5h.1c1 0 2 .9 2.3 2 .2.8 0 1.5 0 2-.3 1.2-.7 2.6-1.4 3.8-1.2 2.1-3.2 3.7-5 5l-3 2.2.4-3.4z"/><path class="st207" d="M209.9 74.3c.5 0 .9.4 1 .9.1.4 0 .8-.1 1.3-.3 1.1-.6 2.3-1.2 3.3a16 16 0 01-4.6 4.6l-.2.2c.4-3.4 1.7-6.6 3.8-9.4.3-.5.7-.9 1.3-.9m0-3c-1.4 0-2.7.7-3.7 2-2.4 3.3-4 7-4.4 11l-.9 6.6 5.6-3.8.3-.2c1.9-1.5 4.1-3.2 5.5-5.6.7-1.4 1.1-2.8 1.4-4.2.2-.5.4-1.5 0-2.7a4.1 4.1 0 00-3.8-3.1z"/></g><g><path class="st225" d="M213.4 81v-.2l-3-.6.2-1 .8-.3 3-1.3-1 3.2v.1z"/><path class="st207" d="M212 80.3v.2-.2m4.5-5.3l-5.6 2.5h-.2l-1.4.7-.3 1.6v.1l5.9 1.2-.2.4.2-.4 1.6-6z"/></g><g><path class="st225" d="M196.5 83.9c.1-.9.2-2 .7-3a3.5 3.5 0 012.9-2h.1c1.3 0 2.4.9 3 2 1 1.6 1 3.6 0 5.5a16 16 0 01-2.7 3.9c-.7.9-1.5 1.7-2 2.7l-3.5 6.2 1.5-15.3z"/><path class="st207" d="M200.2 80.5c.8 0 1.4.6 1.8 1.2.6 1.3.5 2.8 0 4s-1.6 2.5-2.6 3.6c-.8 1-1.6 1.9-2.2 3l.8-8.3c0-.8.2-1.6.6-2.4.3-.5.9-1 1.6-1.1m0-3h-.2a5 5 0 00-4 2.7c-.8 1.3-.9 2.6-1 3.5l-.8 8.2-1.4 14.4 7-12.6c.5-.8 1.2-1.6 1.9-2.4 1-1.2 2.2-2.6 3-4.3 1-2.3 1-4.7 0-6.7a5 5 0 00-4.5-2.8z"/></g><g><path class="st225" d="M189.5 109.1h-1.7l-2.7-.3 2.2-3c1.2-2.3 2.9-4.3 5-6 .7-.7 1.8-1.5 3.2-1.9.6-.2 1.2-.2 1.8-.2 1 0 1.9.2 2.6.7 1.6 1 2.4 3 2 4.8a6.3 6.3 0 01-3 3.8c-1.4.9-3 1.3-4.2 1.5a25 25 0 01-5.2.6z"/><path class="st207" d="M197.3 99.2c.6 0 1.3.1 1.8.5 1.1.6 1.6 2 1.3 3.2s-1.2 2.2-2.3 2.8-2.4 1-3.7 1.4a23.4 23.4 0 01-6.5.5l.7-1a18 18 0 014.6-5.6 8 8 0 012.8-1.6c.4-.2.8-.2 1.3-.2m0-3c-.8 0-1.5 0-2.2.3a11 11 0 00-3.8 2.2c-2.2 1.7-4 4-5.2 6.3l-.6.8-3.2 4.3 5.3.4a21.7 21.7 0 007.5-.5c1.3-.3 3-.7 4.6-1.7a7.7 7.7 0 003.6-4.7 6 6 0 00-6-7.4z"/></g><g><path class="st225" d="M210.5 80a8 8 0 012.1-3.4c1.5-1.5 3.3-3 5.7-3.3h.3c.5 0 .9.1 1.2.3 1 .4 1.5 1.2 1.6 2.2.2 1.5-.8 3-2.5 3.9-.9.4-1.8.6-2.7.8l-.7.2c-1 .2-2 .5-2.9 1l-3 1.4 1-3.2z"/><path class="st207" d="M218.6 74.8l.6.1c.4.2.7.6.7 1 .1 1-.7 2-1.6 2.4-1 .5-2 .7-3.1.9-1.1.3-2.2.6-3.2 1.1.3-1 1-1.9 1.7-2.7 1.3-1.3 2.8-2.6 4.7-2.8h.2m0-3a6 6 0 00-.5 0c-2.9.3-5 2.2-6.6 3.8-1 1-2 2.3-2.4 4l-1.7 6.2 5.9-2.8a12.7 12.7 0 013.2-1c1-.2 2-.4 3.1-1 2.3-1 3.6-3.2 3.3-5.4a4.3 4.3 0 00-2.4-3.4c-.6-.2-1.2-.4-1.9-.4z"/></g></g><g><image width="418" height="466" xlink:href="882F1E950857C459.png" transform="matrix(.24 0 0 .24 128.5 47.4)" overflow="visible" opacity=".3"/><path class="st73" d="M142.3 99.5c2.1 1.3 4.4 2.2 6.4 3.7 1.7 1.3 3.3 4 4.4 4.7.2-3 .8-5.2 0-8.1-.3-1.3-.6-4.2-1.7-5-2.2 1.5-6.5 2.6-9.1 1.8s-5-3-5.8-5.6l.3 1.8c.8 3.2 2.5 4.8 5.5 6.7zM142.2 79.4h-.2.2zM151.5 88l2 2.1c1 1.2 1.2 1.7 1.8 3 .1-1.3-.3-2.2-.6-3.8-.4-2-.5-4-1.3-5.7a1 1 0 00-.2-.3c-.1-.2-.4-.2-.6-.2l-4-.7c-1.8-.3-3.8-.7-5.1-2l-1.3-1a8.8 8.8 0 002.1 3.5c2 2.1 5 3.2 7.2 5.1zM154.8 76.2c1.2 1 2.2 2.3 2.3 3.8l.2.2c1-2.5 1.7-5.3.8-7.8-1.5.5-3.8.7-5.3.2A6.8 6.8 0 01149 70a14 14 0 002.2 3.4c1 1.1 2.3 2 3.5 3zM161.5 68l1.4-2.5c.6-1.2 1-2.7.2-3.8-.8.9-2.4 1-3.6.6a5.8 5.8 0 01-2.7-2.5c.3 1.6 1.5 2.9 2.6 4 1 1.3 2.1 2.7 2 4.2zM161.5 68.1l-.2.1h.2zM166.2 59.5v.3c1.4-2.7 2.3-5.7 2.5-8.7-.4.6-.8 1.1-1.4 1.5-.4.3-.8.6-1.3.7-.5 0-1.1-.2-1.4-.6 0 2.4 2 4.5 1.6 6.8zM174.2 50.5a5 5 0 001.2-2.9l-.1-.2-.2.1c-.6 1.2-2 2-3.4 2.6v2.5a11 11 0 002.5-2zM175.4 56.3c-1.4.3-3 .3-4.2-.2-.6.8-.9 1.8-.9 2.7v.4c3.4-.4 6.3-2.5 9-4.5-1.3.7-2.6 1.3-4 1.6zM162 74.3l.2.4 4.5-2c1.3-.6 2.7-1.3 3.9-2.1 1.1-.9 2.1-2 2.6-3.3.3-.8.4-1.8.6-2.6-.7 1.7-2.2 3-3.6 4.2l-1.5 1.2c-1.4.7-3 .6-4.5.7-.2 0-.4 0-.6.2l-.1.3-1.5 3zM169 80.6h-.5c-2.7 2-6 3.1-9 4.8-.7.4-1.4.8-1.8 1.5-.4.6-.4 1.5.1 2l.7.3c.6 0 .5-.2 1-.4 2.1-.8 4.1-1.7 5.8-3a9.7 9.7 0 003.7-4.7v-.5zM159.8 102c1-.8 2.3-1.3 3.5-1.8 1.4-.6 2.8-1.5 3.1-2.8-1.3 1.4-3 2.5-5 2.8s-4.1-.3-5.2-1.8c.5 2 .6 4 .5 6.1h.2c.7-1 1.7-2 2.9-2.6zM155 118.6l-.6-.2c-4.6-.7-8.9-3-11.8-6.5l.1.1c.8 1.7 2.4 3 3.9 4.2 3.6 2.8 7.2 5.7 10 9.2 1.8 2.1 3.3 4.4 5.3 6.4l.8.5c-1-2-2-3.7-3.2-5.5a68.6 68.6 0 01-4.5-8.2zM163.7 113.7c-2.1.5-4.5-.3-5.7-2-.2 3 1.9 5.8 1.4 8.7l-.2.3c2.5-.9 4.7-2.4 6.2-4.3 1.6-2 2.5-4.4 2.6-6.8a6 6 0 01-4.3 4.1zM191 114.3c-2.6 1.8-6.2 1.8-9.3 2.7l-.8.4-.5.7-1.2 2.5.7-.2c1.6 0 3-.5 4.5-.8 1.5-.3 3-1.1 4.4-1.8 1.3-.7 2.4-1.4 2.8-2.7 0-.2-.2-1-.4-1l-.3.2zM176.8 118.8l.9-3c.5-2.7.4-5 .6-7.8-2.5 1-6.2.8-8.3-.7.3.7.4 1.4.4 2.1l.1 1 .5.7c1.1 1.7 1.7 3.5 2.2 5.4.3 1.3 0 3 .1 4.2.1 3-.8 5-1.7 8-.9 2.8-1 5.9-.4 8.8l.5-2.8c.5-1.7.7-2.4.9-5 .2-2.8 1.6-5.6 2.8-8.2.4-.7 1.1-1.9 1.4-2.7zM181.3 110.5c1.3-1.3 2.2-3 2.7-4.7.5-2 1-4 1-6-.2 1.2-1.3 2.4-2.2 3.4-.4.4-.9.8-1.4 1s-1-.5-1.2-1l.2.9c1 2 1.2 4.2 1 6.4zM190 104.8c-.5 1-1.1 2-2 2.7l.3.3c1.8-.3 3.7-.2 5.4-.5 1.6-.3 3.1-.9 4.5-1.7 1.3-.8 2.2-2.4 1.8-3.8-.8 1.2-2.2 2-3.7 2.3-2 .6-4.2.9-6.4.7zM188.4 102.4l.2-.6-.5.6h.3zM190 100c.7-1 1.5-1.3 2-2.3l1.1-2.4 1.2-3.2c.5-1.2.7-2.5.2-3.7-.2 3-2.4 5.7-5.5 6.8l-.6.3v.4c-.2 1.1 0 2.2.2 3.3.2.8.2 1.7 0 2.6l1.3-1.8zM205.4 92.5a9.8 9.8 0 01-4.5 2l-1.8.6c-.5.2-1 .7-1 1.2.7-.2 1.4-.1 2-.1 2 0 4-.7 5.6-1.6a4 4 0 001.6-1.2c.2-.3.3-.6.2-1 0-.2-.2-.5-.5-.6-.6-.2-1.2.3-1.6.7zM200.4 88.4c.8-1.2 1.7-2.6 1.7-4-.8 1.3-2.1 2.4-3.6 2.9l-.3.1v.3l-.8 4h.2c1-1 2-2.2 2.8-3.3zM208.1 81.9l1-1.4c.2-.5.2-1 0-1.4-.8.7-1.7 1.4-2.7 2l-.3.1-.2.3c-.4 1-.8 2-1 3 1-1 2.1-1.6 3.2-2.6zM217.6 85c.4-.4.6-1 .3-1.3-.8 1-2.2 1.4-3.5 1.8l-5.7.9c-.6 0-1.1 0-1.7.2-.5.2-1 .7-1 1.2h-.3c3-.6 6.3-.4 9.3-1.3 1-.3 2-.7 2.6-1.5zM214 79.5c.8-.2 1.6-.3 2.3-.6 1-.3 2.5-.6 3.2-1.4.4-.5.6-1.5.4-2-.5 1-1.9 1.9-3 2.3s-2.3.6-3.5.6h-.3l-.2.2-.7 1.4-.1.5c.5-.5 1.2-.9 2-1zM173.3 150v-.3l.1-.3-.1.5zM198.6 128.4a147 147 0 00-13.8 9c-2.7 2-4.8 4.7-7.2 7-1.8 1.7-3.4 3-4.2 5.3-.1.8 0 1.7.5 2.4.7.9 2.1 1.1 3.3.9 1.1-.3 2.1-1 3-1.7 2-1.7 3.3-3.4 5-5.3 4-5 7.6-9.3 12.5-13.5 3.2-2.7 19.6-10.4 24-14.7-5.9 3-15.5 6.2-23 10.6zM140.8 130.3a32.6 32.6 0 00-5.7-3c-2-.8-2.9-1.3-5.2-1.9 0 0-2.3 0-2.4.2 0 .1 5 1.5 6.7 2.5a78 78 0 0116.5 13.7c3 3 5.6 5.6 9.1 8.2 1 .7 2 1.4 3.3 1.6l.7-.1.2-.3c.4-1-.2-2-.9-2.9a80.8 80.8 0 00-22.3-18z"/></g></g></g><g id="Hexagons"><g id="Grain_2_"><radialGradient id="SVGID_3_" cx="173" cy="200" r="187.1" gradientUnits="userSpaceOnUse"><stop offset="0" stop-color="#ffc640"/><stop offset=".2" stop-color="#fcc337"/><stop offset=".6" stop-color="#f2b91f"/><stop offset="1" stop-color="#e6ad00"/></radialGradient><path fill="url(#SVGID_3_)" d="M-.2 100v200L173 400l173.2-100V100L173 0z"/><linearGradient id="SVGID_4_" gradientUnits="userSpaceOnUse" x1="173" y1="400" x2="173" y2="0"><stop offset="0" stop-color="#fe9"/><stop offset=".1" stop-color="#ffe482"/><stop offset=".2" stop-color="#ffd765"/><stop offset=".3" stop-color="#ffcd51"/><stop offset=".4" stop-color="#ffc844"/><stop offset=".5" stop-color="#ffc640"/><stop offset=".7" stop-color="#966502"/></linearGradient><path d="M173 33.5l144.2 83.2v166.6L173 366.5 28.8 283.3V116.7L173 33.5M173 0L-.2 100v200L173 400l173.2-100V100L173 0z" fill="url(#SVGID_4_)"/><linearGradient id="SVGID_5_" gradientUnits="userSpaceOnUse" x1="173" y1="0" x2="173" y2="400"><stop offset="0" stop-color="#fe9"/><stop offset=".1" stop-color="#ffe482"/><stop offset=".2" stop-color="#ffd765"/><stop offset=".3" stop-color="#ffcd51"/><stop offset=".4" stop-color="#ffc844"/><stop offset=".5" stop-color="#ffc640"/><stop offset=".7" stop-color="#966502"/><stop offset="1" stop-color="#ffc640"/></linearGradient><path d="M173 28.9l148.2 85.5v171.2L173 371 24.8 285.6V114.4L173 29M173 0L-.2 100v200L173 400l173.2-100V100L173 0z" fill="url(#SVGID_5_)"/><path d="M173 15l160.2 92.5v185L173 385 12.8 292.5v-185L173 15m0-15L-.2 100v200L173 400l173.2-100V100L173 0z" fill="#966502"/><path d="M173 12.7l162.2 93.6v187.3L173 387.3 10.8 293.6V106.4L173 12.7M173 0L-.2 100v200L173 400l173.2-100V100L173 0z" fill="#e0b568"/><path class="st239" d="M71.7 142.2s-5-3.5-8.3-4.3a42 42 0 00-10.8-1.2c-.7.4 11.1 10.7 13.2 15.8 3 5 4.7 12.5 6.4 14.3s1.9 1.7 4.1 1.5c2.3-.2 3.6-2.6 3.6-2.6v-8.2s-.7-5.4-2.3-8.3c-1.6-3-6-7-6-7zM100.5 140.5c-.5-.4-5.2.3-7.6 1-2.3.6-5.8 3.6-5.8 3.6s-3 3.3-4.2 5.8-1.6 6.9-1.6 6.9v6.8s1 2 2.6 2.2 1.6.2 2.9-1.3c1.2-1.5 2.3-7.7 4.4-11.9 1.5-4.2 9.8-12.8 9.3-13.1zM97.4 157.9s-2.1.2-3 .9c-1 .7-2.5 2.2-2.5 2.2l-1 2.3s0 2.2.6 2.6 1.6 0 2.4-.2c.7-.4 2-2.5 3.7-3.7 1.4-1.3 7-2.3 7-2.5-.2-.3-3-1.6-4-1.8-1.2-.2-3.2.2-3.2.2zM65 160c-1.2-1.4-3.8-3-3.8-3s-2.9-1.4-4.7-1.6c-1.9 0-5.5 0-5.8.3-.4.3 6.7 4.4 8.2 6.8 2 2.3 3.4 5.9 4.5 6.7s1 .7 2.3.4c1.2-.3 1.7-1.6 1.7-1.6l-.6-4.1s-.8-2.6-1.9-4z"/><path class="st19" d="M222.6 191s-4.9-3.5-8.2-4.2c-3.4-.8-10.1-1.7-10.8-1.3s11.1 10.7 13.2 15.8c3 5.1 4.6 12.5 6.4 14.3 1.7 1.8 1.9 1.8 4 1.6 2.3-.2 3.7-2.6 3.7-2.6v-8.3s-.7-5.3-2.3-8.3c-1.7-2.9-6-7-6-7zM251.5 189.4c-.5-.4-5.2.3-7.6 1-2.3.6-5.8 3.5-5.8 3.5s-3 3.4-4.2 5.8-1.6 7-1.6 7v6.8s1 2 2.5 2.1 1.7.3 3-1.2c1.1-1.6 2.3-7.7 4.4-12 1.5-4.2 9.8-12.7 9.3-13zM248.4 206.7s-2.1.3-3 1c-1 .7-2.6 2.2-2.6 2.2l-1 2.2s0 2.2.6 2.6 1.6.2 2.4-.2c.8-.3 2-2.5 3.7-3.6 1.4-1.4 7.2-2.3 7-2.6-.1-.2-2.9-1.5-4-1.7-1.1-.3-3.1.1-3.1.1zM215.9 208.8c-1-1.3-3.7-3-3.7-3s-2.9-1.4-4.7-1.5c-1.9-.1-5.5 0-5.9.3-.3.2 6.8 4.4 8.3 6.8 2 2.3 3.4 5.9 4.4 6.6 1 .8 1.2.7 2.3.5 1.2-.3 1.8-1.6 1.8-1.6l-.6-4.2s-.8-2.6-1.9-3.9z"/><path class="st239" d="M268.1 131.8s-4.9-3.6-8.2-4.3-10.1-1.7-10.8-1.2c-.7.4 11.1 10.6 13.2 15.7 3 5.1 4.6 12.5 6.4 14.3 1.7 1.8 1.9 1.8 4 1.6 2.3-.2 3.7-2.6 3.7-2.6V147s-.7-5.3-2.3-8.2c-1.7-3-6-7-6-7zM297 130c-.5-.3-5.2.4-7.6 1s-5.8 3.6-5.8 3.6-3 3.4-4.2 5.8c-1.1 2.5-1.6 7-1.6 7v6.8s1 2 2.5 2.2c1.6 0 1.7.2 3-1.3 1.1-1.5 2.3-7.7 4.4-12 1.5-4.2 9.8-12.7 9.3-13zM297 147.3c-1.1-.3-3.1.2-3.1.2s-2.1.2-3 .9c-1 .7-2.6 2.2-2.6 2.2l-1 2.2s0 2.2.6 2.6c.7.4 1.6.2 2.4-.2.8-.3 2-2.4 3.7-3.6 1.4-1.4 7.2-2.3 7-2.5s-2.9-1.6-4-1.8zM261.4 149.5c-1-1.3-3.7-3-3.7-3s-2.9-1.4-4.7-1.5-5.5 0-5.9.3 6.8 4.4 8.2 6.8c2 2.3 3.5 5.9 4.5 6.6 1 .8 1.2.7 2.3.5s1.8-1.6 1.8-1.6l-.6-4.1s-.8-2.7-1.9-4z"/><g><path class="st15" d="M73.3 144l-4.4-3.6-5.7-3-3.8-.8h-3.9l-2.6.2 4.4 2.8 2.7 1.7c-.4 0 4.8 4.5 7.6 7l2.7 3.5 2.4 1.6s2.3 1.7 3.1 1c.9-.5.8-1.7.8-1.7s.5-1-.4-3.8c-1-2.6-3-4.9-3-4.9zM97.7 142l2.3-1.3-4.2.3s-4 1-4.3 1.2l-3.8 2.7-3 3.4c-.4.7-1.6 1.9-1.6 2.2l-.3 1.2s-.5 1.1 1 1.2c1.6.1 3.5-2.4 3.5-2.4l2.6-2.8 2.6-2 3-2 2.2-1.6zM62 157.6c-.3-.3-2.2-1.1-2.6-1.4-.3-.2-3.3-.6-4-.7s-3.5.2-3.8.3l2.3.7 1.1.5 4 2.1 2.9 2.2s1.8.7 2.6.6c.7-.2.2-2.2 0-2.5l-2.4-1.8zM99.2 157.1l-3.2.7s-1 .3-1.5 1.5 0 1.2 0 1.2l.4-.3 2-1.6 2.5-.5h2.8l1.6.4-1-.7-3.6-.7zM269.4 133.5L265 130l-5.8-3-3.7-.8h-4l-2.6.2 4.4 2.8 2.7 1.7c-.4 0 4.8 4.5 7.6 7l2.7 3.5 2.5 1.6s2.2 1.7 3 1 .8-1.6.8-1.6.6-1.2-.4-3.8-3-5-3-5zM293.8 131.6l2.3-1.4-4.2.3s-4 1-4.3 1.2l-3.7 2.7s-2.6 2.7-3 3.4c-.4.7-1.7 2-1.7 2.2l-.3 1.3s-.4 1 1.1 1.2c1.6 0 3.4-2.5 3.4-2.5l2.7-2.8 2.5-2 3-2 2.2-1.6zM258.2 147.1c-.3-.2-2.3-1-2.6-1.3-.4-.3-3.4-.7-4-.8l-3.9.3 2.3.7 1.1.6 4 2 3 2.3s1.7.7 2.5.5c.8-.2.3-2.2 0-2.5l-2.4-1.8zM299 147.3l-3.6-.7-3.2.7s-1.1.3-1.6 1.5c-.4 1.2 0 1.2 0 1.2l.5-.3 2-1.6 2.4-.4h2.8l1.6.3-1-.7z"/><path class="st231" d="M224.2 192.7l-4.3-3.6-5.8-3-3.7-.8h-3.9l-2.6.2 4.4 2.8 2.7 1.7c-.5 0 4.8 4.5 7.5 7l2.8 3.5 2.4 1.6s2.3 1.7 3.1 1.1c.9-.6.8-1.7.8-1.7s.5-1.1-.4-3.8c-1-2.7-3-5-3-5zM248.7 190.8l2.3-1.3-4.2.2s-4 1-4.3 1.2c-.5.2-3.8 2.7-3.8 2.7s-2.5 2.7-3 3.4c-.4.7-1.6 2-1.6 2.3l-.4 1.2s-.4 1 1.2 1.2 3.3-2.4 3.3-2.4l2.7-2.9 2.6-2 3-2 2.2-1.6zM213 206.3c-.3-.2-2.3-1-2.6-1.3-.3-.3-3.3-.7-4-.7-.7-.1-3.5.1-3.8.2-.4.1 2.2.7 2.2.7l1.2.6 4 2 2.9 2.3s1.8.7 2.5.5.3-2.2 0-2.5l-2.4-1.8zM250.2 205.8l-3.2.7s-1.1.3-1.5 1.5c-.5 1.2 0 1.2 0 1.2l.4-.3 2-1.6 2.5-.4h2.7l1.7.3-1-.7-3.6-.7z"/></g><g><path class="st212" d="M174.1 164.8l-1.6-.3a4.9 4.9 0 01-3-4.3c-.1-1.5.3-2.9.8-4.2.3-.7.6-1.6 1.2-2.4 3.2-5.5 8.3-9.8 13.3-13.6 3.5-2.6 6.2-4.5 9-6.1 3.8-2.3 21-6.6 24.1-6.6.9 0 1.5.3 1.8.9.9 1.7 0 2.2-8.9 7-5.5 3-12.4 6.9-15.1 9.2a95 95 0 00-9.6 10.2c-2 2.4-4.2 5-6.5 7.3a11 11 0 01-2.8 2.2 6 6 0 01-2.7.7zm-12.6-1.5c-1 0-2-.4-2.6-.7a23.5 23.5 0 01-6.5-5.3l-.3-.3c-4.2-4.3-8.6-8.4-13.2-12.2a50 50 0 00-7.5-5.3c-1.4-.8-4.2-1-6.1-1.2-2.3-.2-3.9-.4-3.7-2 0-1.2.6-2 6.3-2 1.8 0 5.2.1 7.6 1a53.9 53.9 0 0115.5 8.4c3.2 2.3 6 5 8.7 7.7l2 2c1.3 1.3 3.9 3.8 3.3 7-.2.9-.6 1.6-1.2 2.1s-1.4.8-2.3.8zm6.5-14h-.7l-.1-.2H166c-1.2-.3-2.2-1.7-3.9-4a41 41 0 00-1.6-2.1c-1-1.2-1.8-2.2-2.9-3.2a40 40 0 00-4.2-3.3l-3.4-2.7c-3.4-2.8-5.2-6-5.3-9 0-1.9.7-3.4 2-4 .5-.2 1-.4 1.6-.4.6 0 1.3.2 2 .5 1 .3 2 .8 2.7 1.4-.9-.9-2-1.6-3.1-2.2l-1.2-.6-2-1c-1-.6-2-1.3-2.6-2-.9-.7-2-1.8-2.8-3-1.2-1.8-1.9-4-1.8-6.2 0-2 .7-3.4 1.9-4.4.9-.7 2-1 3.2-1 1.4 0 2.7.4 3.5.8 3 1.3 5.6 3.8 8 7.6.7 1 1.1 2 1.5 2.9a25 25 0 011 11.5l-.2 2.8-1-.7a45 45 0 012 3.4l.7 2.1.1.6c.3 1 .8 2.2 1.5 3.5l.2-.6c.2-.5-.1-1.3-.4-2v-.2c-.7-1.8-1.2-3.7-1.4-5.5a10.7 10.7 0 01.6-5.2l-1.7-1.7.2-.8c0-.8 0-1.8-.2-2.7l-.1-1.2a12 12 0 01.3-4.4l-1.1.9-.7-2.2c-.7-2.2-2.1-4.2-4.1-5.5-.7-.5-1.5-1-2.4-1.4-2-1-4-2.1-5.2-4a10 10 0 01-1.3-3.3c-.3-1.2-.5-2.8.1-4.3a5 5 0 015.1-2.7c1.4.1 2.5.8 3.5 1.6a9.4 9.4 0 01-2.7-6.5c.1-1.5.7-2.9 1.8-3.7.7-.5 1.6-.8 2.7-.8.8 0 1.8.2 2.6.6 1.4.8 2.4 2.2 3 3.2 1.4 2.2 2.3 4.2 2.7 6.2.1 1 .2 2 .1 2.9l2.7-6.3-.1.1-3 1v-2.1c0-.7-.3-1.5-1-2.3l-1-1.2c-.5-.5-1-1-1.4-1.7-.8-1.1-1.4-2.3-1.7-3.7-.5-2.2.1-3.5.8-4.2a4 4 0 013.1-1.3c1 0 2 .3 2.8.8 1.3.8 2.2 2.1 2.8 4.1v.1a27.3 27.3 0 00-1-3.9c-.6-2-1.2-4.6-.1-7 .5-1.1 1.1-1.9 2-2.4.5-.2 1.1-.4 1.7-.4.8 0 1.5.3 2 .8.7.5 1 1.2 1 1.6.2.3.2.6.3 1l.6-2c.3-.6.6-1.3 1.3-1.9a3 3 0 012-.7c.4 0 .8.1 1.2.4.6.3 1.3 1 1.4 2.6 0 1.3-.2 2.6-.7 3.8.5-.3 1-.4 1.6-.4.5 0 1 .1 1.4.4.9.5 1.5 1.5 1.5 2.7 0 1.8-1 3.5-2.7 4.8-1.3 1-3 1.6-4.4 2.2l-2.3.8a5 5 0 013.2 2.3c1 1.6.9 3.7 0 5.5-.7 1.3-1.9 2.4-3.5 3.6a21 21 0 01-3.5 2 3.4 3.4 0 012.3 1.7c1.6 2.4 1.3 5.8-.8 8.3a14.4 14.4 0 01-6.6 4.2h.8c2 0 3.8.9 4.8 2.3.5.7.7 1.5.9 2.3a5.5 5.5 0 012.4 1.9c-.6-3.6 0-7 1.6-9.4.7-1 1.5-1.5 2.5-1.6h.2c.7 0 1.4.3 2.1 1 .6.5 1 1.2 1.4 1.9.1-1.7.5-3.5 1.6-5a6 6 0 012.2-2c.6-.4 1.4-.6 2-.6.6 0 1 .1 1.4.3a4 4 0 012.3 2l.2-3c0-.9.2-2 .7-2.9a3.4 3.4 0 012.8-2h.1c1.2 0 2.3.8 3 2l.4.8c.6-2.6 1.8-5.1 3.4-7.3.2-.4 1-1.5 2.4-1.5 1.2 0 2.1.8 2.4 1.9.2.8 0 1.5 0 2l.2-.3c1.4-1.5 3-3 5.4-3.2h.4c.5 0 .8 0 1.2.2.8.4 1.4 1.2 1.6 2.2.2 1.5-.8 3-2.4 3.8-.8.4-1.6.6-2.3.8 1.5.1 3.1 1 3.4 2.7.3 1.4-.7 2.8-2.4 3.7-1.4.7-3 1-4.4 1.2l-4.5.7a3 3 0 011.7 2.3c.1.9 0 2.2-1.8 3.5a12.7 12.7 0 01-8 2.6h-1.3c.6.1 1.1.3 1.6.6 1.5 1 2.3 2.9 2 4.7a6 6 0 01-3 3.7c-1.2.9-2.7 1.3-3.9 1.5l-3 .6c1 .7 2 1.8 2.2 3 .3 1.6-.2 3.3-1.4 4.7-1.1 1.2-2.6 2-3.6 2.5a25.1 25.1 0 01-8.8 2.5l-2 .1.3-1.4-.6 1.2-1 1.9-.8 2.6c-.5 1.7-1 4.2-1.2 6.2-.7 4.2-1 5.2-2.4 5.2zm-5.8-12.2a283.2 283.2 0 014.4 7.3 72 72 0 011.5-9.3c-1.1 1-2.4 1.8-3.7 2.6l-1 .6-1.2-1.2zm14-13.5c-.2 1.7-.3 3.4-.8 5a25 25 0 014.6-6.6c.4-.4 1-.9 1.7-1.3h-.7l2.2-3 1.2-2.2-2-.2v-.3c.2-1 .2-1.8.1-2.8 0 1.3-.2 2.7-.5 4-.6 2.6-1.7 4.8-3.3 6.5l-.3.3-2.2.6zm14.6-15.6l-.4.8c-.6 1-1.3 1.8-2 2.5.6-.4 1.3-.9 2.2-1.2l.2-2.1zm.6 1.8l.7-.1-.4-.5-.3.6zm-30.8-.5c.4-.6 1-1 1.5-1.5-.8 0-1.6-.4-2-1.1l.5 2.6zM194 105l.7-.6a74.7 74.7 0 015.1-3.1l-1.2-1.5-.8.5v-.5c-.5 1-1.3 2-2 2.8l-1.8 2.3zm-39.3-12.3c1.3 1.4 2.2 2.7 2.8 4 .7 1.5 1 3 1.3 4.5l.9 3.7v-.4c.3-1.6.6-3.1 1.2-4.6l-.6.9-.9-3.6c-.3-1.2-1.6-2.2-3-3.2l-1-.7-.7-.6zm8.6 1.4c0 .6-.2 1.2-.4 1.7a11 11 0 012-2l-1.6.3zm4.8-14.9c.1 1.2 0 2.5-.2 3.6a16.5 16.5 0 011.2-1.8l-1-1.8zm3.4-2.5l-.8 2.2-.3.8a4.8 4.8 0 012-1l-1-.6v-.8-.6zm1.3-4.6l-.6 2.4.8-1.2-.2-1.2z"/><path class="st212" d="M177.1 63c.2 0 .4 0 .6.2.5.2.6.8.6 1.4a7 7 0 01-1 3.8 6.6 6.6 0 01-3 2.8l-.1-.8c0-2 .4-3.9 1.1-5.7.2-.5.4-1 .8-1.3.3-.2.7-.4 1-.4m-7.1 1.2c.4 0 .8.1 1 .4.4.3.5.6.6 1 .6 1.8.3 3.7 0 5.5-.6 2.5-1.4 4.9-2.3 7.2l-.1-.2c0-2-.8-4-1.4-6-.6-2-1-4.1-.1-6 .2-.7.7-1.3 1.3-1.6.3-.2.7-.3 1-.3m10.7 5.2c.2 0 .4 0 .6.2.6.3.8.9.8 1.5 0 1.4-.9 2.7-2 3.5-1.2 1-2.7 1.4-4.1 2l-2.7 1-.3-.3c0-1.3.6-2.7 1.8-3.6.6-.4 1.3-.7 1.9-1.2.7-.4 1.2-1 1.7-1.7l1.3-1.1a2 2 0 011-.3M161.8 73c.7 0 1.4.2 2 .5a6 6 0 012.2 3.4c1 3 1 6.3-1 8.8l-.4.2c0-1.2-.6-2.3-1.4-3.3-.8-1-1.7-1.8-2.4-2.8-.7-1-1.2-2-1.4-3.1-.3-1-.3-2.1.4-3 .5-.5 1.2-.7 2-.7m11.4 7.3c1.2 0 2.3.7 3 1.7.6 1.2.5 2.7-.2 4s-1.8 2.2-3 3a20.1 20.1 0 01-7.6 3.3l2.1-5c.7-1.7 1.5-3.4 2.6-5 .5-.8 1.2-1.6 2.2-1.9l.9-.1M155 81.7a4 4 0 011.9.5c1 .6 1.9 1.6 2.5 2.6a16 16 0 012.4 5.7c.3 2 .2 4.1-.8 6l-.1.3c-.6-2-2.8-3.3-4.5-4.7-2.4-1.8-4.4-4.4-4.3-7.3 0-1 .3-2 1-2.6.6-.4 1.2-.5 1.9-.5m49.5 5.4c.5 0 .9.4 1 .8v1.3c-.3 1-.6 2.2-1.2 3.2-1 1.8-2.7 3.2-4.3 4.5l-.3.2c.4-3.3 1.6-6.4 3.6-9.2.3-.4.7-.8 1.2-.8m8.4.4h.6c.4.3.6.7.7 1 0 1-.7 1.9-1.6 2.4-.9.4-2 .6-3 .8l-3 1.1c.2-1 1-1.8 1.6-2.5 1.2-1.3 2.6-2.6 4.5-2.8h.2M149.2 91h.4c1.4.2 2.6 1.2 3.6 2.3 1.1 1.2 2.2 2.6 3 4l1.2 4.2 1.9 8.6-.3.2a12 12 0 00-4.8-6.2c-2.4-1.7-5.6-2.7-7.2-5-.5-1-.8-1.9-1-2.9-.3-1-.5-2.2 0-3.3a3.5 3.5 0 013.2-1.9m57.4 1.8v.2-.2m-11.3.4c.7 0 1.4.5 1.7 1.1.7 1.2.5 2.7 0 4-.6 1.2-1.5 2.3-2.4 3.3a17 17 0 00-2 2.9l.6-8c0-.7.1-1.5.5-2.2.3-.6.9-1 1.5-1.1h.1m-25.7.4c.3 0 .7 0 1 .2.4.2.7.5.9.9 1.3 2 .8 4.7-.8 6.6-1.5 1.9-3.8 3-6.2 3.8-.8.3-1.7.6-2.3 1v.2h-.2a1 1 0 01-.7-.5c-.2-.3-.2-.7-.1-1.1.2-1.5.6-3 1-4.4.6-1.5 1.3-3 2.4-4.2a7.3 7.3 0 015-2.5m40.8.8h.3c1 .1 2 .6 2.2 1.5.2 1-.7 1.7-1.6 2.1-1.2.7-2.6 1-4 1.2-2.1.4-4.3.7-6.5.9l-.4-.5a24 24 0 015.2-3.6c1.5-.8 3-1.6 4.8-1.6m-22.5 4.3c.3 0 .6 0 .8.2.8.3 1.4 1 1.6 1.8.2.8.2 1.6 0 2.4 0 1.7-.4 3.4-1.2 5-1.5 2.6-4.7 4.4-5.2 7.3v-.2c.4-2.5-.1-5-.4-7.4-.2-2.5 0-5.1 1.4-7.2.4-.6.9-1.2 1.6-1.5a3 3 0 011.4-.4m13.5 3.8c.9 0 1.8.5 2 1.3 0 .8-.6 1.6-1.3 2.1a11.2 11.2 0 01-7 2.3h-.4l-1.8.1c.6-1.1 1.6-1.9 2.7-2.6a72.7 72.7 0 015.4-3.2h.4m-56.7.9c1 0 2 .3 2.9.7 3.2 1.4 5.5 4.1 7.3 7 .5.8 1 1.7 1.4 2.7 1.4 3.4 1.2 7.2.9 10.8l-.8-.6a14 14 0 00-5.7-5.3c-1-.5-2.2-.9-3.2-1.5-.8-.5-1.6-1.1-2.3-1.8-1-.8-1.9-1.7-2.6-2.8a9.1 9.1 0 01-1.5-5.2c0-1.2.3-2.5 1.3-3.3.7-.5 1.5-.7 2.3-.7m33.8 0c.4 0 .8.3 1.1.6 1.5 1.3 1.6 3.5 1.5 5.4 0 2.2-.1 4.4-.6 6.5s-1.3 4.1-2.9 5.8h-.1c.3-2.7-1-5.4-1.6-8-.8-3.2-.7-6.6 1.2-9.3.3-.5.7-1 1.3-1m14.2 1v.5l-.3.1c0-.2.2-.3.3-.5m-26.5 3.4c1.4 0 2.8.6 3.6 1.6.5.8.6 1.8.7 2.7.6 0 1.2.3 1.7.7 1 .8 1.7 2 2.1 3.3.6 2.2.6 4.4.5 6.7-.2 2.7-.5 5.5-1.6 8l-2 3.8-.9 2.9c-1 3.4-1.7 10.2-2 10.2-.5 0 .2-7.1 1-10.6.5-2.1 1-4.3 1-6.4-.4.7-1 1.3-1.6 2a29.6 29.6 0 01-5 3.6l-.2-.2c.4-1 0-2.1-.5-3.1-.6-1.7-1-3.4-1.2-5.2-.1-1.2-.2-2.5.2-3.7a4.7 4.7 0 012.4-3 6 6 0 012.3-.5 9.4 9.4 0 01-.7-3l-1 .5c-1.5.7-2.7 1.7-3.7 2.9l-.5-.5c.2-1.4 0-2.8-.2-4.3-.2-1.6-.1-3.3.6-4.9a6 6 0 013.8-3.4l1.2-.1m26.7 3.3c.6 0 1.2 0 1.7.4a3 3 0 011.2 3 4.6 4.6 0 01-2.1 2.9c-1 .6-2.3 1-3.5 1.3a22.3 22.3 0 01-6.3.6l.7-1c1-2 2.5-4 4.3-5.5.8-.6 1.6-1.2 2.6-1.5.5-.2 1-.2 1.4-.2m-8.4 10.2c1.7 0 3.4 1.2 3.7 2.7a4 4 0 01-1 3.4c-.9 1-2 1.6-3.2 2.2-2.5 1.2-5.3 2-8.2 2.3v-.7c1.5-2.9 3-5.9 5.4-8.2a6 6 0 012.3-1.5l1-.2m-36 .5c.5 0 1 .2 1.5.4 2.8 1 5 3.3 6.6 5.7.6.8 1.2 1.8 1.6 2.7.4.9.6 1.8.8 2.6 1.4 5 8.4 14.3 7.6 14.3-1-.3-3.2-3.7-4.7-5.6l-3-3.3c-2.4-2.2-5.3-4-7.8-6-2.4-2.1-4.6-4.9-4.7-8 0-1 .2-2.1 1.2-2.6l.9-.2m69.5 6.9h.5c.4 1-18.5 10-23.7 14.5-6 5.3-10.6 11.8-16.2 17.5-.7.7-1.5 1.5-2.4 2-.6.3-1.3.5-2 .5l-1-.2c-1.3-.5-2-1.8-2.1-3-.1-1.2.3-2.4.7-3.6a45.9 45.9 0 0114-15.3c2.8-2.2 5.7-4.2 8.8-6 3.6-2.2 20.3-6.4 23.4-6.4m-90 7c2.4 0 5.3.2 7 .9a53 53 0 0115.2 8.2 84 84 0 0110.5 9.5c1.6 1.6 3.3 3.5 3 5.7-.2.5-.4 1-.8 1.3a2 2 0 01-1.3.4c-.6 0-1.4-.2-2-.5-2.5-1.3-4.5-3.4-6.4-5.4-4.1-4.3-8.6-8.4-13.2-12.3-2.5-2-5-3.9-7.7-5.4-2.8-1.6-9.2-1.3-9.1-1.8 0-.3 2.2-.6 4.8-.6M177.1 60a4.6 4.6 0 00-4 2.4c-.9-.8-2-1.2-3.1-1.2-.8 0-1.7.2-2.4.6a6 6 0 00-2.7 3c-.8 2-.8 3.9-.6 5.6-.8-.4-1.6-.5-2.5-.5-1.7 0-3.2.6-4.3 1.8-.8 1-1.7 2.8-1 5.6 0 .6.3 1.1.5 1.7a7 7 0 00-2-.3c-1.4 0-2.6.4-3.6 1.1a6.2 6.2 0 00-2.3 4.9c0 1.1 0 2.3.5 3.3h-.4a6.5 6.5 0 00-6 3.7 8 8 0 00-.2 5.2c.2 1 .6 2.3 1.3 3.5-1.4 0-2.7.5-3.7 1.3a7 7 0 00-2.5 5.6c0 2.5.6 5 2 7 1 1.4 2.1 2.5 3 3.3.8.7 1.6 1.4 2.6 2-1.6 1-2.5 3-2.4 5.2.1 3.5 2.1 7 5.8 10.2l3.6 2.7c1.4 1 2.8 2 4 3.2 1 .9 1.8 2 2.8 3l1.5 2c2 2.7 3 4.2 4.7 4.6l.4.1h.4l1.3.2H168c2.6 0 3.1-2.6 3.3-3.6l.5-2.8 1.2-6a19.7 19.7 0 011.2-3.3l1.6-.1c3.3-.3 6.5-1.2 9.3-2.6 1.2-.6 2.8-1.5 4.1-3a7 7 0 001.8-5.9l-.7-1.7h.4c1.2-.4 2.9-.8 4.4-1.8 1.8-1.2 3-2.8 3.5-4.7a6 6 0 00-.7-4.4 14 14 0 006-2.6c2.3-1.9 2.4-3.9 2.3-4.9 0-.3-.1-.7-.3-1a79 79 0 001.9-.3c1.5-.2 3.2-.6 4.8-1.4 2.3-1.1 3.6-3.2 3.2-5.3-.2-.9-.6-1.7-1.2-2.3 1.7-1.2 2.7-3 2.4-5a4.2 4.2 0 00-4.7-3.6c-1.7.2-3.2.9-4.3 1.8a4 4 0 00-3.5-2.2h-.1c-1 0-2.4.3-3.7 2-1 1.6-2 3.3-2.7 5a4.7 4.7 0 00-3-1 4.9 4.9 0 00-4 2.8 8.6 8.6 0 00-.9 3.4 5.2 5.2 0 00-2.3-.6c-1 0-2 .3-2.8.7-1 .6-2 1.4-2.7 2.5-.6.8-1 1.6-1.2 2.5a4.6 4.6 0 00-3-1c-1 .1-2.4.6-3.6 2.2a12.3 12.3 0 00-2 5.9 6.4 6.4 0 00-2.6-2.6c1.2-.8 2.2-1.7 3-2.7 2.6-3.1 3-7.2 1-10.2l-.6-.7 1.4-.9a12 12 0 003.9-4.1 7.1 7.1 0 000-7l-1-1.2a16 16 0 004.1-2 7.4 7.4 0 003.3-6.1c0-1.8-1-3.3-2.3-4-.5-.3-1-.5-1.6-.6l.1-2c0-2.3-1.4-3.4-2.2-3.8-.6-.4-1.3-.6-2-.6zm-12 79h.2l.6-.4-.3 1.5-.6-1zm52.8-13.2c-3.5 0-20.9 4.4-25 6.8-2.7 1.6-5.5 3.5-9 6.2a48.6 48.6 0 00-15 16.7c-.5 1.4-1 3-1 4.8a6.4 6.4 0 004 5.6c.8.2 1.5.4 2.2.4 1.2 0 2.3-.3 3.4-.9 1.3-.7 2.3-1.6 3.2-2.5 2.3-2.4 4.5-4.9 6.6-7.4 3-3.6 6-7 9.4-10 2.6-2.2 9.7-6 14.9-9l6-3.3c2-1.2 4.8-2.9 3.5-5.7-.4-.6-1.2-1.7-3.2-1.7zm-90 7c-3.5 0-7.6 0-7.8 3.3 0 .3-.2 3 3.1 3.5l2 .2c1.5.1 4.4.4 5.5 1 2.6 1.5 5 3.3 7.3 5.2 4.5 3.7 8.9 7.8 13 12l.3.4c1.9 2 4 4.1 6.9 5.6.8.3 2 .8 3.3.8a5 5 0 003.2-1.1 5 5 0 001.8-3c.7-4-2.4-7-3.8-8.5l-1-.9-1-1c-2.7-2.6-5.5-5.4-8.8-7.8a62.2 62.2 0 00-16-8.7c-2.5-.9-6-1-8-1z"/></g><g><radialGradient id="SVGID_6_" cx="143.3" cy="148.8" r="18" gradientUnits="userSpaceOnUse"><stop offset="0" stop-color="#f2c024"/><stop offset="1" stop-color="#f2c024"/></radialGradient><path d="M161.5 162.8c-1 0-1.8-.4-2.4-.6-2.6-1.3-4.5-3.3-6.4-5.2l-.3-.4c-4.1-4.3-8.5-8.4-13.2-12.2a50.5 50.5 0 00-7.5-5.4c-1.5-.8-4.4-1-6.4-1.2-2.2-.2-3.3-.3-3.2-1.5 0-.7 0-1.5 5.8-1.5 1.8 0 5.1.1 7.4 1a53.4 53.4 0 0115.4 8.3c3.2 2.3 6 5 8.6 7.7l2 1.9c1.3 1.3 3.7 3.7 3.2 6.6a3 3 0 01-1 1.8 3 3 0 01-2 .7z" fill="url(#SVGID_6_)"/><path class="st212" d="M128 135.8c2.3 0 5.2.2 7 .9a53 53 0 0115.1 8.2 84 84 0 0110.5 9.5c1.6 1.6 3.3 3.5 3 5.7-.2.5-.4 1-.8 1.3a2 2 0 01-1.3.4c-.6 0-1.4-.2-2-.5-2.5-1.3-4.5-3.4-6.4-5.4-4.1-4.3-8.6-8.4-13.2-12.3-2.5-2-5-3.9-7.7-5.4-2.8-1.6-9.2-1.3-9.1-1.8 0-.3 2.2-.6 4.8-.6m0-2c-5.2 0-6.7.6-6.8 2.4-.2 2.2 2 2.4 4.1 2.6 1.8.1 4.7.4 6 1.1 2.7 1.5 5.1 3.4 7.4 5.3 4.6 3.8 9 7.9 13 12.1l.4.4c2 2 4 4 6.6 5.4.7.3 1.8.7 3 .7a4 4 0 002.5-.9 4 4 0 001.4-2.4c.6-3.4-2-6.1-3.5-7.5l-1-1-1-1a85.6 85.6 0 00-13.3-10.8 54.4 54.4 0 00-11-5.4c-2.5-.9-6-1-7.8-1z"/></g><g><radialGradient id="SVGID_7_" cx="194.7" cy="146" r="21.7" gradientUnits="userSpaceOnUse"><stop offset="0" stop-color="#f2c024"/><stop offset="1" stop-color="#f2c024"/></radialGradient><path d="M174.1 164.3a4.4 4.4 0 01-4.1-4c-.1-1.5.3-2.9.8-4.1.2-.7.6-1.6 1.1-2.3 3.1-5.5 8.2-9.8 13.2-13.5 3.5-2.6 6.2-4.5 8.9-6 3.8-2.4 20.8-6.6 23.9-6.6.3 0 1 0 1.4.6.6 1.2-.2 1.7-8.7 6.4-5.6 3-12.5 6.9-15.2 9.2-3.6 3.1-6.7 6.7-9.7 10.2-2 2.5-4.2 5-6.5 7.3-.7.8-1.6 1.6-2.6 2.1-.8.4-1.7.7-2.5.7z" fill="url(#SVGID_7_)"/><path class="st212" d="M217.9 128.8h.5c.4 1-18.5 10-23.7 14.5-6 5.3-10.6 11.8-16.2 17.5-.7.7-1.5 1.5-2.4 2-.6.3-1.3.5-2 .5l-1-.2c-1.3-.5-2-1.8-2.1-3-.1-1.2.3-2.4.7-3.6a45.9 45.9 0 0114-15.3c2.8-2.2 5.7-4.2 8.8-6 3.6-2.2 20.3-6.4 23.4-6.4m0-2c-3.4 0-20.4 4.3-24.4 6.7-2.7 1.6-5.5 3.4-9 6a47.7 47.7 0 00-14.6 16.3c-.6 1.4-1 2.9-1 4.5.2 2.1 1.6 4 3.4 4.6.6.2 1.2.4 1.8.4 1 0 2-.3 3-.8 1.1-.6 2-1.5 2.8-2.3 2.4-2.3 4.5-4.9 6.6-7.3 3-3.5 6-7 9.5-10.1 2.7-2.3 9.5-6 15-9.1 2.5-1.3 4.6-2.5 6-3.4 2.2-1.2 4.1-2.4 3.2-4.3-.3-.6-1-1.2-2.3-1.2z"/></g><g><radialGradient id="SVGID_8_" cx="156.4" cy="134.8" r="12.6" gradientUnits="userSpaceOnUse"><stop offset="0" stop-color="#f2c024"/><stop offset="1" stop-color="#f2c024"/></radialGradient><path d="M166.4 148.6h-.2c-1-.3-2-1.6-3.6-3.8l-1.6-2.2c-1-1-1.9-2.2-3-3.2a40.1 40.1 0 00-4.2-3.3l-3.4-2.7c-3.2-2.7-5-5.7-5.1-8.7 0-1.6.6-2.9 1.7-3.5.4-.2.9-.3 1.4-.3.6 0 1.2.2 1.9.4 3.3 1.3 5.6 4 7 6l1.8 3 .6 2.1.2.7c.7 2.8 3.6 7.3 5.5 10.3 2 3.3 2.4 4 2 4.7l-.3.5h-.7z" fill="url(#SVGID_8_)"/><path class="st212" d="M148.4 122c.5 0 1 0 1.5.3 2.8 1 5 3.3 6.6 5.7.6.8 1.2 1.8 1.6 2.7.4.9.6 1.8.8 2.6 1.4 5 8.4 14.3 7.6 14.3-1-.3-3.2-3.7-4.7-5.6l-3-3.3c-2.4-2.2-5.3-4-7.8-6-2.4-2.1-4.6-4.9-4.7-8 0-1 .2-2.1 1.2-2.6l.9-.2m0-2c-.7 0-1.3.2-1.8.4-1.5.8-2.4 2.4-2.3 4.5.1 3.2 2 6.5 5.5 9.4 1 1 2.3 1.8 3.4 2.7 1.5 1 3 2 4.2 3.3 1 .9 1.9 2 2.8 3l1.6 2.2c1.8 2.4 2.8 3.8 4.2 4.1l.2.1h.3a2 2 0 001.8-1c.7-1.3.2-2-2-5.7-2-3-4.7-7.4-5.5-10l-.1-.7-.7-2.2c-.5-1.2-1.2-2.3-1.9-3.2-1.5-2.1-3.9-5-7.5-6.4-.8-.3-1.5-.5-2.2-.5z"/><radialGradient id="SVGID_9_" cx="149.2" cy="114.5" r="10.7" gradientUnits="userSpaceOnUse"><stop offset="0" stop-color="#f2c024"/><stop offset="1" stop-color="#f2c024"/></radialGradient><path d="M155.7 124.7l-.1-.2c-1.3-2-3.2-3.7-5.4-4.9l-1.2-.5-2-1a16 16 0 01-2.5-2c-.8-.7-1.9-1.7-2.7-2.9a10.2 10.2 0 01-1.7-5.9c0-1.7.6-3.1 1.7-4 .8-.6 1.8-1 2.9-1 1.3 0 2.5.5 3.3.8a18 18 0 017.7 7.4c.7 1.1 1.2 2 1.5 2.9 1.6 3.7 1.2 7.7 1 11.3l-.2 1.9-2.3-2z" fill="url(#SVGID_9_)"/><path class="st212" d="M144.7 103.4c1 0 2 .3 2.9.7 3.2 1.4 5.5 4.1 7.3 7 .5.8 1 1.7 1.4 2.7 1.4 3.4 1.2 7.2.9 10.8l-.8-.6a14 14 0 00-5.7-5.3c-1-.5-2.2-.9-3.2-1.5-.8-.5-1.6-1.1-2.3-1.8-1-.8-1.9-1.7-2.6-2.8a9.1 9.1 0 01-1.5-5.2c0-1.2.3-2.5 1.3-3.3.7-.5 1.5-.7 2.3-.7m0-2c-1.4 0-2.6.4-3.5 1.1-1.4 1-2.1 2.7-2.1 4.8 0 2.3.6 4.6 1.9 6.5.8 1.2 2 2.3 2.8 3 .8.8 1.7 1.5 2.7 2.2l2.1 1 1.2.5c2 1 3.8 2.7 4.9 4.5l.2.3.3.3.7.6 3 2.3.3-3.7c.3-3.7.6-7.9-1-11.8-.4-1-1-1.9-1.6-3a19 19 0 00-8.2-7.8c-.9-.4-2.2-.8-3.7-.8z"/><radialGradient id="SVGID_10_" cx="152.5" cy="101.1" r="9.6" gradientUnits="userSpaceOnUse"><stop offset="0" stop-color="#f2c024"/><stop offset="1" stop-color="#f2c024"/></radialGradient><path d="M158 110.6c-.7-2.3-2.2-4.3-4.3-5.7l-2.5-1.4c-1.9-1-3.8-2-5-4-.7-1-1-2.1-1.2-3a6 6 0 01.1-4 4.6 4.6 0 014.6-2.4c1.8.2 3.2 1.4 4.2 2.5 1.5 1.5 2.5 3 3.1 4.4.7 1.4 1 2.9 1.3 4.3l2 9.1-1.8 1.7-.5-1.5z" fill="url(#SVGID_10_)"/><path class="st212" d="M149.2 91h.4c1.4.2 2.6 1.2 3.6 2.3 1.1 1.2 2.2 2.6 3 4l1.2 4.2 1.9 8.6-.3.2a12 12 0 00-4.8-6.2c-2.4-1.7-5.6-2.7-7.2-5-.5-1-.8-1.9-1-2.9-.3-1-.5-2.2 0-3.3a3.5 3.5 0 013.2-1.9m0-2a5.5 5.5 0 00-5 3.1 7 7 0 00-.2 4.6c.2 1 .6 2.2 1.3 3.4 1.4 2 3.6 3.2 5.5 4.3l2.3 1.3a9.9 9.9 0 014 5.2l.8 3 2.4-2 .3-.3.9-.8-.3-1.2-1.4-6.2-.5-2.3a22 22 0 00-1.3-4.6c-.8-1.5-1.8-3-3.4-4.6a8.1 8.1 0 00-4.8-2.8 5 5 0 00-.6 0z"/><radialGradient id="SVGID_11_" cx="157" cy="90.1" r="7.9" gradientUnits="userSpaceOnUse"><stop offset="0" stop-color="#f2c024"/><stop offset="1" stop-color="#f2c024"/></radialGradient><path d="M159.9 97c-.4-1.3-1.7-2.3-3.2-3.4l-1-.7c-3-2.3-4.7-5.3-4.6-8.1 0-1.5.5-2.7 1.5-3.4.6-.5 1.4-.7 2.4-.7a5 5 0 012.3.6c1.4.7 2.3 2 3 3 1.3 2 2.1 4 2.5 6 .4 2.4.1 4.7-.9 6.6l-1.4 2.6-.6-2.5z" fill="url(#SVGID_11_)"/><path class="st212" d="M155 81.7a4 4 0 011.9.5c1 .6 1.9 1.6 2.5 2.6a16 16 0 012.4 5.7c.3 2 .2 4.1-.8 6l-.1.3c-.6-2-2.8-3.3-4.5-4.7-2.4-1.8-4.4-4.4-4.3-7.3 0-1 .3-2 1-2.6.6-.4 1.2-.5 1.9-.5m0-2c-1.2 0-2.2.3-3 1a5.2 5.2 0 00-2 4c0 3.2 1.8 6.4 5.2 9l.9.7c1.3 1 2.6 1.9 2.8 2.9l1.3 4.8 2.4-4.3.2-.4c1.1-2.2 1.4-4.7 1-7.3-.4-2-1.3-4.2-2.7-6.4a9.3 9.3 0 00-3.3-3.3c-.9-.5-1.9-.7-2.8-.7z"/><g><radialGradient id="SVGID_12_" cx="162.9" cy="79.5" r="6.3" gradientUnits="userSpaceOnUse"><stop offset="0" stop-color="#f2c024"/><stop offset="1" stop-color="#f2c024"/></radialGradient><path d="M163.6 85.8c0-.8-.4-1.7-1.2-2.6l-1-1.2c-.5-.5-1-1-1.4-1.7-.8-1-1.3-2.2-1.6-3.5-.4-1.6-.1-2.9.7-3.8.6-.7 1.6-1.1 2.7-1.1.9 0 1.8.2 2.5.7 1.2.8 2 2 2.7 3.9 1.2 3.6.8 7.2-1.1 9.7l-.2.3-2.1.7v-1.4z" fill="url(#SVGID_12_)"/><path class="st212" d="M161.8 72.9c.7 0 1.4.2 2 .5a6 6 0 012.2 3.4c1 3 1 6.3-1 8.8l-.4.2c0-1.2-.6-2.3-1.4-3.3-.8-1-1.7-1.8-2.4-2.8-.7-1-1.2-2-1.4-3.1-.3-1-.3-2.1.4-3 .5-.5 1.2-.7 2-.7m0-2c-1.4 0-2.7.5-3.5 1.5-.7.8-1.4 2.2-.9 4.6.3 1.4 1 2.7 1.8 4l1.5 1.7 1 1c.6.9.9 1.5.9 2v2.8l2.6-.8.4-.1.7-.2.4-.6c2-2.8 2.5-6.7 1.2-10.7-.7-2-1.7-3.5-3-4.3-1-.6-2-1-3-1z"/></g><g><radialGradient id="SVGID_13_" cx="169.6" cy="71.9" r="6.6" gradientUnits="userSpaceOnUse"><stop offset="0" stop-color="#f2c024"/><stop offset="1" stop-color="#f2c024"/></radialGradient><path d="M168.2 78.4V78c0-1.5-.5-2.9-1-4.4l-.4-1.3c-.5-2-1-4.4 0-6.7a4 4 0 011.7-2.1c.5-.2 1-.4 1.5-.4.7 0 1.3.3 1.7.6.5.5.8 1 .9 1.5.6 2 .3 4-.1 6-.6 2.5-1.3 5-2.3 7.4l-.8 2-1.2-2.3z" fill="url(#SVGID_13_)"/><path class="st212" d="M170 64.2c.4 0 .8.1 1 .4.4.3.5.6.6 1 .6 1.8.3 3.7 0 5.5-.6 2.5-1.4 4.9-2.3 7.2l-.1-.2c0-2-.8-4-1.4-6-.6-2-1-4.1-.1-6 .2-.7.7-1.3 1.3-1.6.3-.2.7-.3 1-.3m0-2c-.7 0-1.3.2-2 .5a5 5 0 00-2.2 2.6 11 11 0 000 7.4l.5 1.3c.4 1.4.9 2.8.9 4.1v.5l.2.5.1.2 2 3.7 1.7-4c1-2.4 1.7-5 2.3-7.5.4-2 .8-4.3 0-6.5a4 4 0 00-1.1-1.9c-.6-.6-1.5-.9-2.4-.9z"/></g><g><radialGradient id="SVGID_14_" cx="176.2" cy="67.3" r="4.3" gradientUnits="userSpaceOnUse"><stop offset="0" stop-color="#f2c024"/><stop offset="1" stop-color="#f2c024"/></radialGradient><path d="M173.2 70.4c0-2.1.4-4.1 1.2-6a4 4 0 011.1-1.8c.5-.3 1-.6 1.6-.6.4 0 .8.1 1 .3.8.4 1.2 1.2 1.2 2.2a8 8 0 01-1 4.5c-.9 1.4-2.2 2.5-3.7 3.1l-1.2.5-.2-2.2z" fill="url(#SVGID_14_)"/><path class="st212" d="M177.1 63c.2 0 .4 0 .6.2.5.2.6.8.6 1.4a7 7 0 01-1 3.8 6.6 6.6 0 01-3 2.8l-.1-.8c0-2 .4-3.9 1.1-5.7.2-.5.4-1 .8-1.3.3-.2.7-.4 1-.4m0-2c-.8 0-1.6.3-2.2.9a5 5 0 00-1.4 2c-.8 2.1-1.3 4.2-1.3 6.4v1l.3 2.8 2.5-1a8.6 8.6 0 005.3-8.6c0-1.8-1-2.7-1.7-3-.4-.3-1-.5-1.5-.5z"/></g><g><radialGradient id="SVGID_15_" cx="166.5" cy="128.7" r="7.6" gradientUnits="userSpaceOnUse"><stop offset="0" stop-color="#f2c024"/><stop offset="1" stop-color="#f2c024"/></radialGradient><path d="M162.3 136.5l.2-.6c.2-.6-.1-1.4-.4-2.3v-.2c-.7-1.7-1.2-3.6-1.4-5.4-.1-1.1-.2-2.6.2-4.1a5.7 5.7 0 013-3.6c.8-.4 1.8-.6 3-.6.6 0 1.2 0 1.9.3 1.7.5 3 2.2 3.5 4.7.2 1.1.2 2 .1 3-.2 2-1.3 4-3 5.7a30.4 30.4 0 01-5.2 3.9l-.7.4-1.2-1.2z" fill="url(#SVGID_15_)"/><path class="st212" d="M167 120.7c.5 0 1 0 1.5.2 1.7.5 2.5 2.3 2.8 4 .1.9.2 1.7.1 2.6a9 9 0 01-2.8 5.2 29.6 29.6 0 01-5 3.7l-.2-.2c.4-1 0-2-.5-3.1-.6-1.7-1-3.4-1.2-5.2-.1-1.2-.2-2.5.2-3.7a4.7 4.7 0 012.4-3 6.2 6.2 0 012.7-.5m0-2h-.1c-1.4 0-2.5.3-3.5.7a6.7 6.7 0 00-3.4 4.2c-.5 1.7-.4 3.3-.3 4.5.3 2 .7 3.8 1.4 5.7v.1c.3.6.5 1.4.4 1.7l-.4 1.2 1 .9.2.2 1.1 1 1.3-.8c1.8-1.1 3.7-2.4 5.3-4 2-2 3.2-4.1 3.4-6.3.1-1 0-2-.2-3.3-.5-2.9-2-4.8-4.1-5.5a7 7 0 00-2.1-.3z"/></g><g><radialGradient id="SVGID_16_" cx="165.4" cy="114.7" r="7" gradientUnits="userSpaceOnUse"><stop offset="0" stop-color="#f2c024"/><stop offset="1" stop-color="#f2c024"/></radialGradient><path d="M159.7 121v-.5c.2-1 0-1.9 0-3l-.2-1c-.2-2.2 0-4 .7-5.5a7 7 0 014.4-4l1.5-.1c1.8 0 3.5.8 4.4 2 .7 1 .8 2.2 1 3.3l-.1 1.6c-.3 1.6-1.6 2.8-2.7 3.4-.6.5-1.4.9-2.1 1.2l-1.3.6c-1.3.8-2.4 1.7-3.4 2.7l-.7.9-1.5-1.6z" fill="url(#SVGID_16_)"/><path class="st212" d="M166.1 107.9c1.4 0 2.8.6 3.6 1.6.5.9.6 1.9.7 2.8v1.3c-.2 1.2-1.1 2.1-2.2 2.8-1 .7-2.3 1.2-3.4 1.8-1.4.7-2.6 1.7-3.6 2.9l-.5-.5c.2-1.4 0-2.8-.2-4.3-.2-1.6-.1-3.3.6-4.9a6 6 0 013.8-3.3c.4-.2.8-.2 1.2-.2m0-2c-.6 0-1.2 0-1.8.2a8 8 0 00-5 4.5c-.8 1.7-1 3.6-.8 6l.1 1.1c.2 1 .3 1.9.2 2.7l-.2 1 .7.6.4.5 1.5 1.5 1.4-1.6c1-1 2-1.8 3.2-2.5l1.2-.6 2.3-1.2a6.4 6.4 0 003-4.2c.2-.6.1-1.2.1-1.7 0-1.2-.3-2.6-1-3.8-1.1-1.5-3.1-2.5-5.3-2.5z"/></g><g><radialGradient id="SVGID_17_" cx="166.7" cy="100" r="7" gradientUnits="userSpaceOnUse"><stop offset="0" stop-color="#f2c024"/><stop offset="1" stop-color="#f2c024"/></radialGradient><path d="M162 107.3a2 2 0 01-1.6-1c-.3-.7-.2-1.4-.2-1.8.2-1.5.6-3 1.1-4.5.7-2 1.5-3.4 2.6-4.6a8.3 8.3 0 015.7-2.8c.5 0 1 .1 1.4.3.5.3 1 .7 1.3 1.2 1.5 2.3 1.2 5.5-.8 7.8a14.2 14.2 0 01-6.7 4.2h-.3l-.8.4.2.2-1.3.5-.6.1z" fill="url(#SVGID_17_)"/><path class="st212" d="M169.6 93.6c.3 0 .7 0 1 .2.4.2.7.5.9.9 1.3 2 .8 4.7-.8 6.6-1.5 1.9-3.8 3-6.2 3.8-.8.3-1.7.6-2.3 1v.2h-.2a1 1 0 01-.7-.5c-.2-.3-.2-.7-.1-1.1.2-1.5.6-3 1-4.4.6-1.5 1.3-3 2.4-4.2a7.3 7.3 0 015-2.5m0-2h-1c-2 .4-4 1.5-5.5 3.2-1.1 1.3-2 2.8-2.7 4.9-.5 1.5-1 3-1.2 4.7 0 .4-.2 1.3.3 2.3a3 3 0 002.5 1.6l1-.1 2.5-1-.2-.2a15 15 0 007-4.5c2.2-2.7 2.6-6.3.9-9-.5-.6-1-1.1-1.7-1.5-.6-.2-1.2-.4-2-.4z"/></g><g><radialGradient id="SVGID_18_" cx="170.7" cy="86.4" r="7" gradientUnits="userSpaceOnUse"><stop offset="0" stop-color="#f2c024"/><stop offset="1" stop-color="#f2c024"/></radialGradient><path d="M166.6 86.9c.7-1.8 1.5-3.6 2.6-5.3.6-.7 1.5-1.8 2.8-2.2l1.2-.2c1.5 0 3 .9 3.8 2.2.8 1.4.8 3.3-.1 5-.6 1.2-1.7 2.3-3.3 3.4a21.2 21.2 0 01-8 3.4l-1.8.3 2.8-6.6z" fill="url(#SVGID_18_)"/><path class="st212" d="M173.2 80.2c1.2 0 2.3.7 3 1.7.6 1.2.5 2.7-.2 4s-1.8 2.2-3 3a20.1 20.1 0 01-7.6 3.3l2.1-5c.7-1.7 1.5-3.4 2.6-5 .5-.8 1.2-1.6 2.2-1.9l.9-.1m0-2c-.5 0-1 0-1.5.2a6.4 6.4 0 00-3.3 2.7c-1.2 1.7-2 3.6-2.7 5.4l-1 2.4-1.1 2.5L162 95l3.7-.7c3-.7 6-1.9 8.4-3.6a11 11 0 003.6-3.8c1-2 1-4.2 0-6a5.5 5.5 0 00-4.6-2.6z"/></g><g><radialGradient id="SVGID_19_" cx="177.5" cy="73.5" r="5.3" gradientUnits="userSpaceOnUse"><stop offset="0" stop-color="#f2c024"/><stop offset="1" stop-color="#f2c024"/></radialGradient><path d="M172 77.9v-.6c0-1.7.8-3.3 2.2-4.4l1-.7 1-.5 1.5-1.5c.4-.5.8-1 1.5-1.4a3 3 0 011.5-.4c.4 0 .8.1 1.1.3.8.4 1.3 1.3 1.3 2.3 0 1.6-.9 3.3-2.5 4.4-1.3 1-2.9 1.6-4.3 2l-3.2 1.2-1.1-.7z" fill="url(#SVGID_19_)"/><path class="st212" d="M180.7 69.4c.2 0 .4 0 .6.2.6.3.8.9.8 1.5 0 1.4-.9 2.7-2 3.5-1.2 1-2.7 1.4-4.1 2l-2.7 1-.3-.3c0-1.3.6-2.7 1.8-3.6.6-.4 1.3-.7 1.9-1.2.7-.4 1.2-1 1.7-1.7l1.3-1.1a2 2 0 011-.3m0-2a4 4 0 00-2 .5c-.8.5-1.4 1.1-1.8 1.6l-1.4 1.4-.7.5-1.2.7a6.5 6.5 0 00-2.6 5.3v1l.8.6.3.2.9.6 1-.4 2.7-1c1.4-.5 3.1-1.1 4.5-2.2 1.9-1.3 3-3.2 2.9-5.2 0-1.4-.7-2.6-1.8-3.2-.5-.2-1-.4-1.6-.4z"/></g></g><g><radialGradient id="SVGID_20_" cx="181.8" cy="126.8" r="6.9" gradientUnits="userSpaceOnUse"><stop offset="0" stop-color="#f2c024"/><stop offset="1" stop-color="#f2c024"/></radialGradient><path d="M174.8 131v-.1c1.4-2.7 3-6 5.6-8.5.6-.6 1.5-1.4 2.7-1.8l1.3-.2c2.3 0 4.3 1.6 4.7 3.5a5 5 0 01-1.3 4.3c-1 1.1-2.5 2-3.4 2.4a24.6 24.6 0 01-8.6 2.4h-1.3l.3-2z" fill="url(#SVGID_20_)"/><path class="st212" d="M184.4 121.4c1.7 0 3.4 1.2 3.7 2.7a4 4 0 01-1 3.4c-.9 1-2 1.6-3.2 2.2-2.5 1.2-5.3 2-8.2 2.3v-.7c1.5-2.9 3-5.9 5.4-8.2a6 6 0 012.3-1.5l1-.2m0-2l-1.6.3a8 8 0 00-3.1 2c-2.7 2.6-4.4 6-5.7 8.7l-.1.3v.3l-.2.6-.4 2.6 2.5-.2c3.1-.3 6.2-1.2 9-2.5 1-.5 2.6-1.4 3.8-2.7a6 6 0 001.5-5c-.5-2.5-3-4.4-5.7-4.4z"/><radialGradient id="SVGID_21_" cx="178.3" cy="112.7" r="7.8" gradientUnits="userSpaceOnUse"><stop offset="0" stop-color="#f2c024"/><stop offset="1" stop-color="#f2c024"/></radialGradient><path d="M176.5 121.6c.2-1.8-.4-3.6-1-5.5l-.6-2.2c-1-4-.5-7.5 1.4-10.1.2-.3.9-1.3 2-1.4h.2c.6 0 1.2.3 1.8.8 1.8 1.6 1.9 4.1 1.8 6.3 0 2.1-.1 4.4-.6 6.6a13 13 0 01-3.1 6.3l-.2.2-1.8.4.1-1.4z" fill="url(#SVGID_21_)"/><path class="st212" d="M178.5 103.4c.4 0 .8.3 1.1.6 1.5 1.3 1.6 3.5 1.5 5.4 0 2.2-.1 4.4-.6 6.5s-1.3 4.1-2.9 5.8h-.1c.3-2.7-1-5.4-1.6-8-.8-3.2-.7-6.6 1.2-9.3.3-.5.7-1 1.3-1m0-2h-.2c-1 .1-2 .7-2.8 1.8-2 2.9-2.5 6.7-1.4 11l.6 2.2c.6 1.8 1 3.5 1 5.1l-.4 2.9 2.8-.8h.2l.5-.2.4-.4a14 14 0 003.4-6.7c.5-2.3.6-4.6.6-6.8 0-1.7.2-5-2.2-7-.7-.7-1.6-1-2.4-1z"/><radialGradient id="SVGID_22_" cx="187" cy="106.7" r="7.1" gradientUnits="userSpaceOnUse"><stop offset="0" stop-color="#f2c024"/><stop offset="1" stop-color="#f2c024"/></radialGradient><path d="M183 115.3v-.3c.2-1.7 0-3.4-.2-5.2l-.3-2a12 12 0 011.5-7.8c.6-.8 1.3-1.4 2-1.8a4 4 0 011.9-.5l1.2.3c1 .3 1.8 1.3 2.2 2.4.2 1 .2 2 0 2.8 0 1.7-.4 3.6-1.4 5.3-.6 1.2-1.5 2.1-2.4 3-1.2 1.4-2.3 2.6-2.6 4.1l-2-.3z" fill="url(#SVGID_22_)"/><path class="st212" d="M187.9 98.7c.3 0 .6 0 .8.2.8.3 1.4 1 1.6 1.8.2.8.2 1.6 0 2.4 0 1.7-.4 3.4-1.2 5-1.5 2.6-4.7 4.4-5.2 7.3v-.2c.4-2.5-.1-5-.4-7.4-.2-2.5 0-5.1 1.4-7.2.4-.6.9-1.2 1.6-1.5a3 3 0 011.4-.4m0-2a5 5 0 00-2.3.6c-1 .5-1.7 1.2-2.4 2.2-1.9 2.8-1.9 6.2-1.6 8.5 0 .6 0 1.3.2 2 .2 1.7.4 3.3.2 4.9v.3l3.9.6c.2-1.2 1.2-2.4 2.4-3.6.9-1 1.8-2 2.5-3.2 1-1.9 1.4-4 1.6-5.7 0-1 .1-2-.2-3.1a4.7 4.7 0 00-2.8-3.2l-1.5-.3z"/><radialGradient id="SVGID_23_" cx="192" cy="103.7" r="3.1" gradientUnits="userSpaceOnUse"><stop offset="0" stop-color="#f2c024"/><stop offset="1" stop-color="#f2c024"/></radialGradient><path d="M191.4 104.6l.2-.5 2.4-4.3-.5 5.1v.5l-3.4 2.2 1.3-3z" fill="url(#SVGID_23_)"/><path class="st212" d="M192.6 104.5v.4l-.3.1c0-.2.2-.3.3-.5m2.8-9.4l-4.6 8.4v.1l-.4.6-2.5 6 5.5-3.5.2-.1.9-.6v-1-.3l1-9.6z"/><g><radialGradient id="SVGID_24_" cx="198" cy="105.4" r="5.3" gradientUnits="userSpaceOnUse"><stop offset="0" stop-color="#f2c024"/><stop offset="1" stop-color="#f2c024"/></radialGradient><path d="M191.7 108.4l.3-.6a9.1 9.1 0 013-3l3.9-2.4c.5-.4 1.2-.8 2-.9h.5c1.5 0 2.7 1 3 2.2 0 .7-.2 1.8-1.7 3a12.2 12.2 0 01-7.6 2.5h-.4l-1.6.1-.6.1-.8-1z" fill="url(#SVGID_24_)"/><path class="st212" d="M201.4 102.5c.9 0 1.8.5 2 1.3 0 .8-.6 1.6-1.3 2.1a11.2 11.2 0 01-7 2.3h-.4l-1.8.1c.6-1.1 1.6-1.9 2.7-2.6a72.7 72.7 0 015.4-3.2h.4m0-2h-.7c-1 .2-1.7.6-2.4 1l-3.8 2.5a10 10 0 00-3.4 3.3l-.6 1.1.8 1v.1l.8 1 1.2-.2 1.4-.1h1.1c2.7-.1 5.4-1 7.5-2.7 2-1.5 2.2-3 2-4-.2-1.7-2-3-4-3z"/></g><g><radialGradient id="SVGID_25_" cx="170.3" cy="129.9" r="13.9" gradientUnits="userSpaceOnUse"><stop offset="0" stop-color="#f2c024"/><stop offset="1" stop-color="#f2c024"/></radialGradient><path d="M168 148.8h-.4l-.3-.5c-.8-1 .5-9.4 1-11.4a18 18 0 00.3-10c-.3-1.1-1-2.1-1.5-3.2-.9-1.5-1.8-3-2-4.8-.4-1.6-.2-3.3.4-4.8a5 5 0 012-2.5c.7-.3 1.4-.5 2.1-.5 1.1 0 2.2.4 3 1 1.2.8 2 2.1 2.6 3.8.7 2.4.6 4.9.5 7a23.1 23.1 0 01-2.7 10.3l-1 1.9-.8 2.7c-.5 1.7-.9 4.2-1.2 6.3-.7 4.2-.8 4.7-1.9 4.7z" fill="url(#SVGID_25_)"/><path class="st212" d="M169.6 112c.9 0 1.8.4 2.5.9 1 .8 1.7 2 2.1 3.3.6 2.2.6 4.4.5 6.7-.2 2.7-.5 5.5-1.6 8l-2 3.8-.9 2.9c-1 3.4-1.7 10.2-2 10.2-.5 0 .2-7.1 1-10.6s1.6-7.3.4-10.7c-1-2.7-3-5-3.6-7.8-.3-1.4-.1-2.9.5-4.2a4 4 0 011.6-2c.4-.3 1-.4 1.5-.4m0-2c-.9 0-1.8.2-2.5.6a6 6 0 00-2.5 3c-.7 1.7-1 3.6-.6 5.4.4 2 1.3 3.5 2.2 5.1l1.5 3c1 3 .3 6.3-.4 9.5-.4 1.6-.8 4.1-1 6.7-.5 4.6-.2 5 .2 5.5l.5.8h.9l.1.1h.1c1.8 0 2.1-1.7 2.4-2.7l.4-2.9 1.2-6v-.1a20.1 20.1 0 012.8-6.3 24 24 0 001.8-8.8c.1-2.4.2-5-.6-7.4-.6-1.9-1.5-3.3-2.8-4.3-1-.8-2.4-1.2-3.7-1.2z"/></g><g><radialGradient id="SVGID_26_" cx="206.5" cy="97.3" r="5.9" gradientUnits="userSpaceOnUse"><stop offset="0" stop-color="#f2c024"/><stop offset="1" stop-color="#f2c024"/></radialGradient><path d="M199 99.6l.7-.7c1.6-1.5 3.6-2.7 5.4-3.7a11 11 0 015.7-1.8c1.4.1 2.9.9 3.1 2.3.2 1.3-.6 2.5-2.1 3.2-1.4.7-2.9 1-4.3 1.3l-6.6.9h-.5l-1.3-1.5z" fill="url(#SVGID_26_)"/><path class="st212" d="M210.4 94.4h.3c1 .1 2 .6 2.2 1.5.2 1-.7 1.7-1.6 2.1-1.2.7-2.6 1-4 1.2-2.1.4-4.3.7-6.5.9l-.4-.5a24 24 0 015.2-3.6c1.5-.8 3-1.6 4.8-1.6m0-2c-2.2 0-4.2 1-5.8 1.9-1.9 1-3.9 2.3-5.6 3.9l-1.3 1.3 1.2 1.4.3.4.7.9 1-.1 6.8-1c1.4-.2 3-.5 4.5-1.3 2-1 3-2.5 2.7-4.2-.3-2-2.3-3-4-3.2h-.5z"/></g><g><radialGradient id="SVGID_27_" cx="202.5" cy="92.7" r="5.4" gradientUnits="userSpaceOnUse"><stop offset="0" stop-color="#f2c024"/><stop offset="1" stop-color="#f2c024"/></radialGradient><path d="M198.7 97c.4-3.5 1.7-6.8 3.8-9.6.2-.4.9-1.3 2-1.3 1 0 1.7.7 2 1.5.1.7 0 1.4-.1 1.8-.3 1.1-.6 2.4-1.2 3.5-1 2-3 3.5-4.6 4.8l-2.1 1.5.2-2.2z" fill="url(#SVGID_27_)"/><path class="st212" d="M204.5 87c.5.1.9.5 1 1v1.2c-.3 1-.6 2.2-1.2 3.2-1 1.8-2.7 3.2-4.3 4.5l-.3.2c.4-3.3 1.6-6.4 3.6-9.2.3-.4.7-.8 1.2-.8m0-2c-1 0-2 .6-2.8 1.7-2.2 3-3.6 6.5-4 10l-.5 4.6 3.7-2.7.3-.2c1.7-1.4 3.7-3 4.9-5.1.7-1.3 1-2.6 1.3-3.8 0-.5.2-1.3 0-2.2a3 3 0 00-2.8-2.3h-.1z"/></g><g><radialGradient id="SVGID_28_" cx="206.8" cy="92.2" r="1.1" gradientUnits="userSpaceOnUse"><stop offset="0" stop-color="#f2c024"/><stop offset="1" stop-color="#f2c024"/></radialGradient><path d="M207.5 93.3v-.1l-2-.4.2-.7 2.3-1-.5 2v.2z" fill="url(#SVGID_28_)"/><path class="st212" d="M206.6 92.8v.2-.2m3-3.7l-3.8 2-1 .3-.2 1.1v.2l4 .6-.2.3.1-.2 1.2-4.3z"/></g><g><radialGradient id="SVGID_29_" cx="194.8" cy="100.7" r="6.5" gradientUnits="userSpaceOnUse"><stop offset="0" stop-color="#f2c024"/><stop offset="1" stop-color="#f2c024"/></radialGradient><path d="M192.2 96.5c0-.8.2-1.8.6-2.7a3 3 0 012.4-1.6h.1c1.2 0 2.1.8 2.6 1.6.7 1.4.7 3.1 0 4.8a15 15 0 01-2.5 3.7c-.8.9-1.5 1.7-2 2.7l-2.2 4.2 1-12.7z" fill="url(#SVGID_29_)"/><path class="st212" d="M195.3 93.2c.7 0 1.4.5 1.7 1.1.7 1.2.5 2.7 0 4-.6 1.2-1.5 2.3-2.4 3.3a17 17 0 00-2 2.9l.6-8c0-.7.1-1.5.5-2.2.3-.6.9-1 1.5-1.1h.1m0-2h-.2c-1.3 0-2.5.9-3.2 2.2-.5 1-.6 2.1-.7 3l-.2 2.7-.4 5.2-.8 9.6 4.5-8.5 1.9-2.5c.9-1 2-2.3 2.6-3.9.9-2 .8-4 0-5.7a4 4 0 00-3.5-2.1z"/></g><g><radialGradient id="SVGID_30_" cx="189.4" cy="115.3" r="6.4" gradientUnits="userSpaceOnUse"><stop offset="0" stop-color="#f2c024"/><stop offset="1" stop-color="#f2c024"/></radialGradient><path d="M185 120.4h-1.3l-1.7-.2 1.6-2.3c1.1-2.1 2.7-4.1 4.6-5.7.7-.6 1.7-1.4 3-1.8.5-.2 1-.2 1.6-.2.8 0 1.6.2 2.2.5a4 4 0 011.7 4.2 5.6 5.6 0 01-2.6 3.4c-1.2.8-2.7 1.2-3.8 1.5-1.8.4-3.6.6-5.2.6z" fill="url(#SVGID_30_)"/><path class="st212" d="M192.8 111.2c.6 0 1.2 0 1.7.4a3 3 0 011.2 3 4.6 4.6 0 01-2.1 2.9c-1 .6-2.3 1-3.5 1.3a22.3 22.3 0 01-6.3.6l.7-1c1-2 2.5-4 4.3-5.5.8-.6 1.6-1.2 2.6-1.5.5-.2 1-.2 1.4-.2m0-2c-.7 0-1.3 0-2 .3a9.6 9.6 0 00-3.3 2c-2 1.6-3.6 3.6-4.7 5.9l-.6.8-2.1 2.9 3.6.2a20.4 20.4 0 006.8-.6c1.2-.2 2.8-.7 4.2-1.5 1.6-1 2.6-2.5 3-4a5 5 0 00-2.2-5.3c-.8-.5-1.7-.7-2.7-.7z"/></g><g><radialGradient id="SVGID_31_" cx="210.1" cy="90.6" r="4.6" gradientUnits="userSpaceOnUse"><stop offset="0" stop-color="#f2c024"/><stop offset="1" stop-color="#f2c024"/></radialGradient><path d="M205.6 92.6c.3-1.2 1.1-2.2 1.9-3 1.3-1.4 3-3 5-3.1h.4c.4 0 .7 0 1 .2.7.3 1.2 1 1.3 1.7.1 1.3-.7 2.6-2.1 3.4-.8.4-1.7.6-2.5.7l-.7.2c-1 .2-2 .6-2.9 1l-2 1 .6-2.1z" fill="url(#SVGID_31_)"/><path class="st212" d="M213 87.5h.5c.4.3.6.7.7 1 0 1-.7 1.9-1.6 2.4-.9.4-2 .6-3 .8l-3 1.1c.2-1 1-1.8 1.6-2.5 1.2-1.3 2.6-2.6 4.5-2.8h.2m0-2a5 5 0 00-.4 0c-2.5.2-4.4 2-5.7 3.4a8 8 0 00-2.1 3.4l-1.1 4.2 3.9-1.9a13 13 0 012.6-1h.7c.8-.3 1.8-.5 2.7-1 1.8-.9 2.9-2.6 2.7-4.3a3.2 3.2 0 00-2-2.6l-1.3-.2z"/></g></g><g id="Highlights_2_"><path class="st47" d="M149.1 104.8c2.3 1.5 6.7 6 4.5 8.5-2.2 2.6-6.6-.5-8.2-1.6-3.2-2.1-5.4-5.8-3-7.8 2.5-2 4.5-.5 6.7 1zM148.1 97.5c1.3 1.2 4.2 2.5 5.8 1 2.7-2.7-3.7-9-6.3-7-2.6 2-1.3 4.2.5 6zM153.3 82.2c1.7-1.6 4.5-.2 5.6 2 .8 1.4 1.6 4.1 0 5.6-1.8 1.4-4.5-1-5.4-2.6-.9-1.6-1.9-3.4-.2-5zM164.6 78.4c-1.5 1.3-3.6.5-4.5-1.2-.8-1.6-.7-3.5 1.1-4.1 3-1 5.3 3.5 3.4 5.3zM171.2 69.5c.9-1 1.1-5.8-1.2-5.2-4.8 1.3-1.5 8.2 1.2 5.2zM176.7 68c1-.3 1.7-2.3 1.6-3.2-.1-1-1-2.4-2.2-1.3-1.3 1-2.1 5.6.6 4.5zM181.4 69.7c-1.6-.9-4.7 2.2-3.6 4.7.7 1.7 5.2-3.8 3.6-4.7zM174.4 86.4c-1.5 1.7-4 3-5.5 1.6-1.7-1.6.3-5 1.6-6.5 1-1.4 4-2.3 5 .2.8 2 0 3.5-1 4.7zM169.1 93.6c-3.6-.4-8.4 7.5-2.8 8.8 2.2.5 4.2-1.1 5-3.2.5-1 1.5-5.2-2.2-5.6zM168.6 110.1c.6-.7-1.6-1.8-2.5-1.8-1.4-.2-3.3.7-4 1.9-1.2 2.3-.4 4.6 1.9 6 .5-1.6.5-2.5 1.3-3.7.9-1.3 2-1.9 3.3-2.4zM164.6 121.1c-3.4 1.7-3.8 9.8 1.5 9.4 4.9-.5-1.1-7.1-1.5-9.4zM147 122.8c3.3-4.2 9.9 4.8 7 6.9-2.8 2-8.5-5-7-7zM166.3 114.9a4 4 0 013.6-2.9c1.6 0 2.3.5 3 1.8 1.2 2.3 1 6.5-1.5 7.9-3.6 1.8-5.8-4.7-5.1-6.8zM176 107.2c.5-1.5 1.2-3.5 2.7-3.5 1 0 1.9 1.9 2 2.8.6 1.8 0 4-1.1 5.4-1.7 2-3.3 1.1-3.8-1.1-.3-1.6-.2-2 .2-3.6zM186.6 99.1c-3 1-4.5 8.4-.6 8.5 2.1 0 3.4-3 3.6-4.9.2-1.4-.5-5.2-2.6-3.3 0 .2-.2 0 0 0 0 0 2.4-1.2-.4-.3zM195 93.1c2.8.2 2.8 5.6.2 6-3.1.6-2-6-.1-6zM202.7 92.4c1.1-.2 2.2-2 2.5-2.9.1-.5.3-3.4-1.3-2.1-1.7 1.2-3.6 5.4-1.2 5zM212.5 87.6c-2 0-4.8 2.8-2 3.3a3 3 0 003-1.5c.4-.9 1-1.9-1-1.8zM211.8 94.6c1.7 1 .3 2.5-.8 3.1-1 .6-3.4 1.1-4.5.6-3.5-1.4 3-5 5.3-3.7zM202.5 102.7c-1.4-1-5.5 1.4-5.5 3.3 0 1.2 3 .9 3.8.4.6-.3 3.5-2.5 1.7-3.7zM193.6 111.5c2.8.3 1.1 4.2 0 5.2-1.7 1.3-4.3 2.2-5.9.7-1.3-1.3-.4-3.4 1-4.6 1.5-1 2.2-1.5 5-1.3zM187.2 123.4c1.4 4.3-8.1 9.1-8.1 3.5 0-2 2.3-4.8 4.4-5.1 1.8-.3 3.2 0 3.7 1.6zM123.1 136.4c1.6-1.2 9.6-.6 12.6.5a62 62 0 0116.3 9.4c4 3.2 14.7 12.8 10 13.4-21.1-21.9-29.9-22.8-33.2-23.3-2.3-.4-6.2.4-5.7 0zM218.3 129a73 73 0 00-29.6 15.3c-2.7 2.6-15 14.7-14.9 16.6 4.1 6.1 12.9-13.5 24.9-20.7 3.1-1.9 19.4-10.5 19.6-11.1z"/></g></g></g></svg>