<svg xmlns="http://www.w3.org/2000/svg" width="346" height="400"><style>.st65{display:none;fill:#d88e8c}.st202{fill:#935231}.st205{fill:#945332}.st215{fill:#fcd7c3}.st227{fill:#ffd8c2}.st242{display:inline}.st243{fill:#9e5a56}.st244{fill:#9f5b57}.st259{fill:#d3977d}.st362{fill:#d88d8b}.st363{fill:#d88e8c}.st364{display:none}</style><g id="Hexagons_OLD" class="st364"><g id="Bricks_1_" class="st242"><path class="st259" d="M136.2 97.2h31.6c2.4 0 4.3-1.9 4.3-4.2V81c0-2.3-2.8-4-2.8-3.6 1.2 4.4 1.5 10.1.6 17.8-.1.8-33.6.2-33.6.2h-4c0 1.2 2.6 1.8 4 1.8zM180.6 97.2h31.6c2.3 0 4.2-1.9 4.2-4.2V81c0-2.3-2.7-4-2.8-3.6 1.2 4.4 1.5 10.1.7 17.8-.1.8-33.6.2-33.6.2h-4c0 1.2 2.6 1.8 4 1.8zM169.3 126.7c1.2 4.4 1.5 10.2.6 17.9-.1.8-33.6.1-33.6.1h-4c0 1.3 2.6 1.9 4 1.9h31.5c2.4 0 4.3-2 4.3-4.2v-12c0-2.3-2.8-4-2.8-3.7zM213.6 126.7c1.2 4.4 1.5 10.2.7 17.9-.1.8-33.6.1-33.6.1h-4c0 1.3 2.6 1.9 4 1.9h31.5c2.3 0 4.2-2 4.2-4.2v-12c0-2.3-2.7-4-2.8-3.7zM147.2 118.1v-12c0-2.2-2.7-4-2.8-3.6 1.2 4.4 1.5 10.1.6 17.8 0 .9-33.6.2-33.6.2h-4c0 1.2 2.6 1.9 4 1.8H143c2.3 0 4.2-1.9 4.2-4.2zM156 120.2h-4c0 1.3 2.6 2 4 1.9h31.6c2.3 0 4.2-2 4.2-4.2v-12c0-2.3-2.7-4-2.8-3.7 1.2 4.4 1.5 10.2.6 17.9 0 .8-33.5.1-33.5.1zM233.5 102.2c1.2 4.4 1.5 10.2.6 17.9 0 .8-33.5.1-33.5.1h-4c0 1.3 2.5 1.9 3.9 1.9H232c2.3 0 4.2-2 4.2-4.2v-12c0-2.3-2.7-4-2.8-3.7z"/><g><radialGradient id="SVGID_1_" cx="173.2" cy="200" r="175.2" gradientUnits="userSpaceOnUse"><stop offset="0" stop-color="#e5745d"/><stop offset="1" stop-color="#d9523f"/></radialGradient><path fill="url(#SVGID_1_)" d="M11 293.6V106.4l162.2-93.7 162.2 93.7v187.2l-162.2 93.7z"/><path d="M173.2 25.4l151.2 87.3v174.6l-151.2 87.3L22 287.3V112.7l151.2-87.3m0-25.4L0 100v200l173.2 100 173.2-100V100L173.2 0z" fill="#f9b6af"/><path d="M173.2 13.9l161.2 93v186.2l-161.2 93-161.2-93V106.9l161.2-93m0-13.9L0 100v200l173.2 100 173.2-100V100L173.2 0z" fill="#e6ab23"/></g><radialGradient id="SVGID_2_" cx="171.2" cy="200.3" r="173.8" gradientUnits="userSpaceOnUse"><stop offset=".2" stop-color="#f0a691"/><stop offset=".9" stop-color="#f0a691" stop-opacity=".1"/><stop offset="1" stop-color="#f0a691" stop-opacity="0"/></radialGradient><g><path class="st243" d="M80.2 225.6c-1.6 0-3.1.4-4.4 1.1a11.4 11.4 0 00-11-7.3c-6.2 0-11.4 4.7-11.4 10.4l.1 1.2h-.3c-5.3 0-9.6 3.4-9.6 7.5s4.4 5.9 9.7 5.9c4.6 0 7.1-1.3 9.4-4.5.7.2 3.5-1.8 4.2-1.8 2.4-.2 4.4-.6 7-2 1.9.8 4.9.3 7.4.3 4.4 0 6.9-.8 6.9-4.3s-3.6-6.5-8-6.5zM284.6 232.7a12 12 0 00-5.8 1.5 15 15 0 00-14.4-9.9c-8.3 0-15 6.3-15 14l.1 1.7h-.4c-7 0-12.6 4.5-12.6 10 0 5.6 5.8 8 12.7 8 6.1 0 9.4-1.7 12.3-6 1 .2 4.7-2.4 5.7-2.5 3-.2 5.6-.8 9.2-2.7 2.3 1.1 6.2.5 9.6.5 5.7 0 9-1.1 9-5.9s-4.7-8.7-10.4-8.7zM226.6 282a12 12 0 00-5.8 1.4 15 15 0 00-14.4-9.8c-8.3 0-15 6.3-15 14l.1 1.7h-.4c-7 0-12.6 4.5-12.6 10 0 5.6 5.8 8 12.7 8 6.1 0 9.4-1.8 12.3-6 1 .2 4.7-2.5 5.7-2.5 3-.3 5.6-.8 9.2-2.7 2.3 1 6.2.4 9.6.4 5.7 0 9-1 9-5.8s-4.7-8.7-10.4-8.7z"/></g><g><path class="st362" d="M52.6 231.3c-4 0-8.1 2.6-8.1 5.2 0 2.7 3.6 6.5 7.3 4.8 6.3-3 7.2-3.3 7.2-6s-2.3-4-6.4-4z"/><path class="st362" d="M64.4 219.8c-5.4 0-10.1 3.4-10.1 6.6s4.6 7.4 9.8 5.9c4.3-1.3 6.1-3 9.8-5.9 2.5-2-4-6.6-9.5-6.6zM80.8 225.8c-2.2-.1-4.7.1-5 2.1-.2 2.6 2 1.8 5 1.8s6 1.4 6-.5-3.6-3.3-6-3.4zM249.4 238.5c-5.2-.5-10.6 2.7-11 6.3-.3 3.6 3.9 9.3 8.8 7.3 8.3-3.3 9.5-3.7 9.8-7.3.3-3.6-2.5-5.9-7.6-6.3z"/><path class="st362" d="M265.7 224c-6.9-.7-13.2 3.5-13.6 8-.4 4.4 5 10.6 11.7 9 5.6-1.2 8.1-3.3 13.1-6.9 3.4-2.4-4.4-9.6-11.2-10.2zM284.7 233.5c-2.8-.4-6-.3-6.5 2.4-.7 3.6 2.2 2.7 6 3 3.8.4 7.4 2.6 7.7 0 .2-2.6-4.2-5-7.2-5.4zM191.3 288.6c-5.1-.4-10.5 2.7-10.8 6.3-.3 3.7 3.9 9.4 8.7 7.4 8.3-3.5 9.5-3.8 9.8-7.5.3-3.6-2.5-5.8-7.7-6.2zM207.6 274c-6.9-.6-13.2 3.6-13.6 8-.3 4.4 5 10.6 11.8 9 5.5-1.2 8-3.4 13-7 3.5-2.4-4.4-9.5-11.2-10zM227 282.1c-3-.3-6.1-.3-6.6 2.4-.6 3.6 2.3 2.7 6 3 3.9.4 7.5 2.6 7.7 0s-4.2-5-7.2-5.4z"/></g><g><path class="st227" d="M137.4 96.9a5.9 5.9 0 01-5.9-5.9V78.6c0-3.3 2.6-5.9 5.9-5.9h33.2c3.2 0 5.9 2.6 5.9 5.9V91c0 3.3-2.7 5.9-5.9 5.9h-33.2z"/><path class="st202" d="M170.6 74.2c2.4 0 4.4 2 4.4 4.4V91c0 2.4-2 4.4-4.4 4.4h-33.2c-2.4 0-4.4-2-4.4-4.4V78.6c0-2.4 2-4.4 4.4-4.4h33.2m0-3h-33.2c-4 0-7.4 3.3-7.4 7.4V91c0 4 3.3 7.4 7.4 7.4h33.2c4 0 7.4-3.3 7.4-7.4V78.6c0-4-3.3-7.4-7.4-7.4z"/><path class="st227" d="M183.4 96.9a5.9 5.9 0 01-5.8-5.9V78.6c0-3.3 2.6-5.9 5.8-5.9h33.3c3.2 0 5.8 2.6 5.8 5.9V91c0 3.3-2.6 5.9-5.8 5.9h-33.3z"/><path class="st202" d="M216.7 74.2c2.4 0 4.3 2 4.3 4.4V91c0 2.4-2 4.4-4.3 4.4h-33.3c-2.4 0-4.3-2-4.3-4.4V78.6c0-2.4 2-4.4 4.3-4.4h33.3m0-3h-33.3c-4 0-7.3 3.3-7.3 7.4V91c0 4 3.3 7.4 7.3 7.4h33.3c4 0 7.3-3.3 7.3-7.4V78.6c0-4-3.3-7.4-7.3-7.4z"/><path class="st227" d="M137.4 148.2a5.9 5.9 0 01-5.9-5.9V130c0-3.3 2.6-5.9 5.9-5.9h33.2c3.2 0 5.9 2.6 5.9 5.9v12.4c0 3.2-2.7 5.9-5.9 5.9h-33.2z"/><path class="st202" d="M170.6 125.5c2.4 0 4.4 2 4.4 4.4v12.4c0 2.4-2 4.4-4.4 4.4h-33.2c-2.4 0-4.4-2-4.4-4.4V130c0-2.4 2-4.4 4.4-4.4h33.2m0-3h-33.2c-4 0-7.4 3.3-7.4 7.4v12.4c0 4 3.3 7.4 7.4 7.4h33.2c4 0 7.4-3.3 7.4-7.4V130c0-4-3.3-7.4-7.4-7.4z"/><path class="st227" d="M183.4 148.2a5.9 5.9 0 01-5.8-5.9V130c0-3.3 2.6-5.9 5.8-5.9h33.3c3.2 0 5.8 2.6 5.8 5.9v12.4c0 3.2-2.6 5.9-5.8 5.9h-33.3z"/><path class="st202" d="M216.7 125.5c2.4 0 4.3 2 4.3 4.4v12.4c0 2.4-2 4.4-4.3 4.4h-33.3c-2.4 0-4.3-2-4.3-4.4V130c0-2.4 2-4.4 4.3-4.4h33.3m0-3h-33.3c-4 0-7.3 3.3-7.3 7.4v12.4c0 4 3.3 7.4 7.3 7.4h33.3c4 0 7.3-3.3 7.3-7.4V130c0-4-3.3-7.4-7.3-7.4z"/><g><path class="st227" d="M111.6 122.9a5.9 5.9 0 01-5.9-6v-12.3c0-3.3 2.7-6 6-6h33.1c3.3 0 6 2.7 6 6V117c0 3.2-2.7 5.9-6 5.9h-33.2z"/><path class="st202" d="M144.8 100.2c2.5 0 4.4 2 4.4 4.4V117c0 2.4-2 4.4-4.4 4.4h-33.2c-2.4 0-4.4-2-4.4-4.4v-12.4c0-2.4 2-4.4 4.4-4.4h33.2m0-3h-33.2c-4 0-7.4 3.3-7.4 7.4V117c0 4 3.4 7.4 7.4 7.4h33.2c4.1 0 7.4-3.3 7.4-7.4v-12.4c0-4.1-3.3-7.4-7.4-7.4z"/></g><g><path class="st227" d="M158.1 122.9a5.9 5.9 0 01-5.9-6v-12.3c0-3.3 2.7-6 6-6h33.1c3.3 0 6 2.7 6 6V117c0 3.2-2.7 5.9-6 5.9h-33.2z"/><path class="st202" d="M191.3 100.2c2.5 0 4.4 2 4.4 4.4V117c0 2.4-2 4.4-4.4 4.4h-33.2c-2.4 0-4.4-2-4.4-4.4v-12.4c0-2.4 2-4.4 4.4-4.4h33.2m0-3h-33.2c-4 0-7.4 3.3-7.4 7.4V117c0 4 3.4 7.4 7.4 7.4h33.2c4.1 0 7.4-3.3 7.4-7.4v-12.4c0-4.1-3.3-7.4-7.4-7.4z"/></g><g><path class="st227" d="M204.4 122.9a5.9 5.9 0 01-5.9-6v-12.3c0-3.3 2.7-6 5.9-6h33.2c3.3 0 5.9 2.7 5.9 6V117c0 3.2-2.6 5.9-5.9 5.9h-33.2z"/><path class="st202" d="M237.6 100.2c2.4 0 4.4 2 4.4 4.4V117c0 2.4-2 4.4-4.4 4.4h-33.2c-2.4 0-4.4-2-4.4-4.4v-12.4c0-2.4 2-4.4 4.4-4.4h33.2m0-3h-33.2c-4 0-7.4 3.3-7.4 7.4V117c0 4 3.3 7.4 7.4 7.4h33.2c4.1 0 7.4-3.3 7.4-7.4v-12.4c0-4.1-3.3-7.4-7.4-7.4z"/></g><g><path class="st259" d="M137.9 95.3h32.8c2.4 0 4.4-2 4.4-4.3V78.5c0-2.4-2.8-4.2-2.9-3.8 1.3 4.6 1.6 10.6.7 18.6-.1.8-35 .1-35 .1h-4.1c0 1.3 2.7 2 4 2zM184 95.3h32.9c2.4 0 4.3-2 4.3-4.3V78.5c0-2.4-2.8-4.2-2.8-3.8 1.2 4.6 1.5 10.6.6 18.6 0 .8-34.9.1-34.9.1h-4.2c0 1.3 2.7 2 4.1 2zM172.2 126c1.3 4.6 1.6 10.6.7 18.6-.1.9-35 .2-35 .2h-4.1c0 1.3 2.7 1.9 4 1.9h33c2.3 0 4.3-2 4.3-4.4v-12.4c0-2.4-2.8-4.3-2.9-3.9zM218.4 126c1.2 4.6 1.5 10.6.6 18.6 0 .9-34.9.2-34.9.2h-4.2c0 1.3 2.7 1.9 4.1 1.9h32.9c2.4 0 4.3-2 4.3-4.4v-12.4c0-2.4-2.8-4.3-2.8-3.9zM149.3 117v-12.3c0-2.4-2.9-4.3-3-3.9 1.3 4.6 1.6 10.6.7 18.6 0 .9-34.9.1-34.9.1H108c0 1.3 2.7 2 4.1 2H145c2.4 0 4.4-2 4.4-4.4zM158.5 119.3h-4.2c0 1.3 2.7 2 4.1 1.9h32.9c2.4 0 4.3-2 4.3-4.4v-12.4c0-2.4-2.8-4.3-2.8-3.8 1.2 4.6 1.5 10.5.6 18.5 0 .9-34.9.2-34.9.2zM239 100.6c1.3 4.6 1.6 10.5.7 18.5-.1.9-35 .2-35 .2h-4.1c0 1.3 2.7 2 4 1.9h33c2.3 0 4.3-2 4.3-4.4v-12.4c0-2.4-2.8-4.3-2.9-3.8z"/></g></g></g></g><g id="Hexagons"><g id="Bricks_2_"><radialGradient id="SVGID_3_" cx="173" cy="200" r="187.1" gradientUnits="userSpaceOnUse"><stop offset="0" stop-color="#eb7930"/><stop offset=".3" stop-color="#e7702d"/><stop offset=".8" stop-color="#dd5824"/><stop offset="1" stop-color="#d94f21"/></radialGradient><path fill="url(#SVGID_3_)" d="M-.2 100v200L173 400l173.2-100V100L173 0z"/><linearGradient id="SVGID_4_" gradientUnits="userSpaceOnUse" x1="173" y1="400" x2="173" y2="0"><stop offset="0" stop-color="#ffc44d"/><stop offset=".5" stop-color="#eb7930"/><stop offset=".7" stop-color="#be1622"/></linearGradient><path d="M173 33.5l144.2 83.2v166.6L173 366.5 28.8 283.3V116.7L173 33.5M173 0L-.2 100v200L173 400l173.2-100V100L173 0z" fill="url(#SVGID_4_)"/><linearGradient id="SVGID_5_" gradientUnits="userSpaceOnUse" x1="173" y1="0" x2="173" y2="400"><stop offset="0" stop-color="#ffc44d"/><stop offset=".5" stop-color="#eb7930"/><stop offset=".7" stop-color="#be1622"/><stop offset="1" stop-color="#eb7930"/></linearGradient><path d="M173 28.9l148.2 85.5v171.2L173 371 24.8 285.6V114.4L173 29M173 0L-.2 100v200L173 400l173.2-100V100L173 0z" fill="url(#SVGID_5_)"/><path d="M173 15l160.2 92.5v185L173 385 12.8 292.5v-185L173 15m0-15L-.2 100v200L173 400l173.2-100V100L173 0z" fill="#be1622"/><path d="M173 12.7l162.2 93.6v187.3L173 387.3 10.8 293.6V106.4L173 12.7M173 0L-.2 100v200L173 400l173.2-100V100L173 0z" fill="#e0b568"/><g><path class="st244" d="M80.2 135.9c-1.6 0-3.1.4-4.4 1a11.4 11.4 0 00-11-7.2c-6.3 0-11.4 4.6-11.4 10.3l.1 1.3h-.3c-5.3 0-9.6 3.3-9.6 7.4s4.3 6 9.7 6c4.6 0 7.1-1.4 9.3-4.5.7.1 3.6-1.8 4.3-1.9 2.4-.2 4.4-.6 7-2 1.9.8 4.8.3 7.4.3 4.4 0 6.9-.8 6.9-4.3s-3.6-6.4-8-6.4zM265 138.7a15 15 0 0114.3-9.8c8.3 0 15 6.2 15 14l-.1 1.6h.4c7 0 12.6 4.5 12.6 10s-5.7 8-12.7 8c-6.1 0-9.4-1.7-12.3-6-1 .2-4.6-2.4-5.6-2.5-3-.2-5.7-.8-9.3-2.7-5.7-1.6-3.6-13.3-2.4-12.6z"/></g><g><path class="st363" d="M52.6 141.6c-4.1 0-8.2 2.6-8.2 5.2s3.7 6.4 7.4 4.7c6.3-3 7.2-3.3 7.2-5.9s-2.4-4-6.4-4z"/><path class="st363" d="M64.4 130c-5.5 0-10.2 3.4-10.2 6.7s4.7 7.3 9.9 5.8c4.3-1.2 6.1-3 9.8-5.8 2.5-2-4.1-6.6-9.5-6.6zM80.8 136c-2.3 0-4.8.2-5 2.1-.2 2.7 2 1.9 5 1.9s6 1.3 6-.6c0-1.8-3.6-3.3-6-3.4zM294.4 143c5.1-.5 10.6 2.7 10.9 6.3.3 3.6-3.9 9.3-8.8 7.4-8.3-3.4-9.5-3.8-9.8-7.4s2.5-5.8 7.7-6.3z"/><path class="st363" d="M278 128.4c6.9-.6 13.2 3.6 13.6 8 .4 4.5-4.9 10.7-11.7 9.2-5.5-1.3-8-3.4-13-7-3.5-2.4 4.3-9.6 11.1-10.2z"/><path class="st65" d="M259 138c2.8-.4 6-.3 6.5 2.4.7 3.6-2.2 2.7-6 3-3.8.4-7.4 2.6-7.6 0-.3-2.6 4-5 7.1-5.4zM191.3 198.8c-5.1-.4-10.6 2.7-10.9 6.4s4 9.3 8.8 7.3c8.3-3.4 9.5-3.8 9.8-7.4.3-3.6-2.6-5.9-7.7-6.3zM207.6 184.2c-6.9-.6-13.2 3.6-13.6 8-.4 4.5 5 10.6 11.7 9.1 5.6-1.3 8.1-3.4 13.1-7 3.4-2.5-4.4-9.6-11.2-10.1zM226.9 192.4c-2.9-.4-6-.3-6.5 2.4-.7 3.6 2.2 2.7 6 3 3.8.3 7.4 2.5 7.7-.1.2-2.6-4.2-5-7.2-5.3z"/></g><g><path class="st215" d="M139.4 98a5.6 5.6 0 01-5.6-5.6V80.6c0-3 2.5-5.6 5.6-5.6h31.4c3.1 0 5.6 2.5 5.6 5.6v11.8c0 3-2.5 5.6-5.6 5.6h-31.4z"/><path class="st205" d="M170.8 76.5c2.3 0 4.1 1.9 4.1 4.1v11.8c0 2.2-1.8 4.1-4.1 4.1h-31.4a4.1 4.1 0 01-4.1-4.1V80.6c0-2.2 1.8-4.1 4.1-4.1h31.4m0-3h-31.4c-4 0-7.1 3.2-7.1 7.1v11.8c0 3.9 3.2 7.1 7.1 7.1h31.4c4 0 7.1-3.2 7.1-7.1V80.6c0-4-3.2-7.1-7.1-7.1z"/><path class="st215" d="M183 98a5.6 5.6 0 01-5.7-5.6V80.6c0-3 2.5-5.6 5.6-5.6h31.4c3.1 0 5.7 2.5 5.7 5.6v11.8c0 3-2.6 5.6-5.7 5.6H183z"/><path class="st205" d="M214.3 76.5c2.3 0 4.2 1.9 4.2 4.1v11.8c0 2.2-2 4.1-4.2 4.1H183a4.1 4.1 0 01-4.1-4.1V80.6c0-2.2 1.9-4.1 4.1-4.1h31.4m0-3H183c-4 0-7.1 3.2-7.1 7.1v11.8c0 3.9 3.2 7.1 7.1 7.1h31.4c4 0 7.2-3.2 7.2-7.1V80.6c0-4-3.2-7.1-7.2-7.1z"/><path class="st215" d="M139.4 146.5a5.6 5.6 0 01-5.6-5.7v-11.7c0-3.1 2.5-5.6 5.6-5.6h31.4c3.1 0 5.6 2.5 5.6 5.6v11.7c0 3.1-2.5 5.7-5.6 5.7h-31.4z"/><path class="st205" d="M170.8 125c2.3 0 4.1 1.8 4.1 4v11.8c0 2.3-1.8 4.2-4.1 4.2h-31.4a4.1 4.1 0 01-4.1-4.2v-11.7c0-2.3 1.8-4.1 4.1-4.1h31.4m0-3h-31.4c-4 0-7.1 3.2-7.1 7v11.8c0 4 3.2 7.2 7.1 7.2h31.4c4 0 7.1-3.2 7.1-7.2v-11.7c0-4-3.2-7.1-7.1-7.1z"/><path class="st215" d="M183 146.5a5.6 5.6 0 01-5.7-5.7v-11.7c0-3.1 2.5-5.6 5.6-5.6h31.4c3.1 0 5.7 2.5 5.7 5.6v11.7c0 3.1-2.6 5.7-5.7 5.7H183z"/><path class="st205" d="M214.3 125c2.3 0 4.2 1.8 4.2 4v11.8c0 2.3-2 4.2-4.2 4.2H183a4.1 4.1 0 01-4.1-4.2v-11.7c0-2.3 1.9-4.1 4.1-4.1h31.4m0-3H183c-4 0-7.1 3.2-7.1 7v11.8c0 4 3.2 7.2 7.1 7.2h31.4c4 0 7.2-3.2 7.2-7.2v-11.7c0-4-3.2-7.1-7.2-7.1z"/><g><path class="st215" d="M115 122.5a5.6 5.6 0 01-5.6-5.6v-11.7c0-3.1 2.6-5.7 5.7-5.7h31.4c3 0 5.6 2.6 5.6 5.7v11.7c0 3.1-2.5 5.6-5.6 5.6H115z"/><path class="st205" d="M146.5 101c2.2 0 4.1 1.9 4.1 4.2v11.7c0 2.3-1.9 4.1-4.1 4.1H115a4.2 4.2 0 01-4.2-4v-11.8c0-2.3 1.9-4.2 4.2-4.2h31.4m0-3H115c-4 0-7.2 3.2-7.2 7.2v11.7c0 4 3.2 7.1 7.2 7.1h31.4c3.9 0 7.1-3.2 7.1-7v-11.8c0-4-3.2-7.2-7.1-7.2z"/></g><g><path class="st215" d="M159 122.5a5.6 5.6 0 01-5.6-5.6v-11.7c0-3.1 2.5-5.7 5.6-5.7h31.4c3.1 0 5.6 2.6 5.6 5.7v11.7c0 3.1-2.5 5.6-5.6 5.6H159z"/><path class="st205" d="M190.4 101c2.3 0 4.1 1.9 4.1 4.2v11.7c0 2.3-1.8 4.1-4.1 4.1H159a4.1 4.1 0 01-4.1-4v-11.8c0-2.3 1.8-4.2 4.1-4.2h31.4m0-3H159c-4 0-7.1 3.2-7.1 7.2v11.7c0 4 3.2 7.1 7.1 7.1h31.4c4 0 7.1-3.2 7.1-7v-11.8c0-4-3.2-7.2-7.1-7.2z"/></g><g><path class="st215" d="M202.7 122.5a5.6 5.6 0 01-5.6-5.6v-11.7c0-3.1 2.5-5.7 5.6-5.7h31.4c3.1 0 5.7 2.6 5.7 5.7v11.7c0 3.1-2.6 5.6-5.7 5.6h-31.4z"/><path class="st205" d="M234.1 101c2.3 0 4.2 1.9 4.2 4.2v11.7c0 2.3-1.9 4.1-4.2 4.1h-31.4a4.1 4.1 0 01-4.1-4v-11.8c0-2.3 1.9-4.2 4.1-4.2h31.4m0-3h-31.4c-3.9 0-7.1 3.2-7.1 7.2v11.7c0 4 3.2 7.1 7.1 7.1h31.4c4 0 7.2-3.2 7.2-7v-11.8c0-4-3.2-7.2-7.2-7.2z"/></g><g><path class="st259" d="M139.9 96.5h31c2.3 0 4.2-1.9 4.2-4.2V80.6c0-2.3-2.7-4-2.8-3.6 1.2 4.3 1.5 10 .6 17.5 0 .8-33 .1-33 .1h-4c0 1.3 2.7 1.9 4 1.9zM183.5 96.5h31c2.3 0 4.1-1.9 4.1-4.2V80.6c0-2.3-2.6-4-2.7-3.6 1.2 4.3 1.5 10 .6 17.5 0 .8-33 .1-33 .1h-4c0 1.3 2.6 1.9 4 1.9zM172.3 125.5c1.2 4.3 1.5 10 .6 17.5 0 .8-33 .1-33 .1h-4c0 1.3 2.7 1.9 4 1.9h31c2.3 0 4.2-1.9 4.2-4.2v-11.7c0-2.3-2.7-4-2.8-3.6zM216 125.5c1 4.3 1.4 10 .5 17.5 0 .8-33 .1-33 .1h-4c0 1.3 2.6 1.9 4 1.9h31c2.3 0 4.1-1.9 4.1-4.2v-11.7c0-2.3-2.6-4-2.7-3.6zM150.6 117v-11.7c0-2.3-2.6-4-2.7-3.7 1.2 4.4 1.5 10 .6 17.6 0 .8-33 .1-33 .1h-4c0 1.3 2.6 1.9 4 1.8h31c2.3 0 4.1-1.8 4.1-4.1zM159.4 119h-4c0 1.3 2.6 2 3.9 1.9h31c2.3 0 4.2-1.9 4.2-4.1V105c0-2.3-2.7-4-2.8-3.6 1.2 4.3 1.5 10 .6 17.5 0 .8-33 .2-33 .2zM235.4 101.4c1.2 4.3 1.5 10 .6 17.5 0 .8-33 .2-33 .2h-4c0 1.2 2.7 1.8 4 1.8h31c2.3 0 4.2-1.9 4.2-4.1V105c0-2.3-2.7-4-2.8-3.6z"/></g></g></g></g></svg>