<svg xmlns="http://www.w3.org/2000/svg" width="292.08" height="406.32"><style>.st273{display:none}</style><g id="Cards_1_"><g id="Development_3_"><radialGradient id="SVGID_1_" cx="128.5762" cy="200.1826" r="162.2684" gradientTransform="matrix(0 -1 1.064 0 -70.1177 328.7588)" gradientUnits="userSpaceOnUse"><stop offset="0" stop-color="#55ec36"/><stop offset=".2814" stop-color="#4ee330"/><stop offset=".7389" stop-color="#3ccb1f"/><stop offset="1" stop-color="#30ba13"/></radialGradient><path d="M16.303 390.183c-3.402 0-6.169-2.768-6.169-6.17V16.352c0-3.401 2.768-6.169 6.169-6.169h253.161c3.402 0 6.169 2.768 6.169 6.169v367.661c0 3.402-2.768 6.17-6.169 6.17H16.303z" fill="url(#SVGID_1_)"/><path d="M265.633 20.182v360h-245.5v-360h245.5m3.831-20H16.303C7.373.182.134 7.422.134 16.352v367.661c0 8.931 7.239 16.169 16.169 16.169h253.161c8.93 0 16.169-7.238 16.169-16.169V16.352c0-8.93-7.239-16.17-16.169-16.17z" fill="#55ec36"/><path d="M269.464 10.182c3.402 0 6.169 2.768 6.169 6.17v367.661c0 3.401-2.768 6.169-6.169 6.169H16.303c-3.402 0-6.169-2.768-6.169-6.169V16.352c0-3.402 2.768-6.17 6.169-6.17h253.161m0-10H16.303C7.373.182.134 7.422.134 16.352v367.661c0 8.931 7.239 16.169 16.169 16.169h253.161c8.93 0 16.169-7.238 16.169-16.169V16.352c0-8.93-7.239-16.17-16.169-16.17z" fill="#414042"/></g><path d="M131.657 304.724c-3.854 0-6.989-3.292-6.989-7.339v-31.127l-71.591.802c-3.386-.016-6.961-.403-8.105-3.163-1.118-2.695 1.054-5.381 3.07-7.419l.137-.139.157-.116c.293-.216 29.449-21.724 42.9-34.045.002-.002.005-.004.007-.007l-23.115.312c-2.471-.014-5.833-.33-7.044-2.915-1.217-2.599.638-5.373 2.39-7.5l.221-.268.286-.198c.311-.215 31.191-21.64 42.285-33.839 1.878-2.066 4.126-5.195 6.703-9.33l-19.953.264c-2.777-.016-4.556-.874-5.332-2.554-.799-1.728-.242-3.748 1.654-6.004l.236-.281.307-.201c.199-.13 19.964-13.123 27.019-20.726 6.986-7.531 19.058-34.251 19.179-34.521l.143-.316.223-.265c1.161-1.382 3.476-2.107 4.469-2.281l-.002-.013.194-.031.534-.003.297.074c.676.168 2.975.828 4.172 2.253l.223.266.143.316c.121.27 12.195 26.992 19.179 34.521 7.058 7.606 26.82 20.596 27.019 20.726l.307.201.236.281c1.897 2.256 2.454 4.276 1.655 6.004-.776 1.679-2.555 2.538-5.286 2.554l-16.212-.214c2.563 4.108 4.8 7.222 6.672 9.28 11.098 12.203 41.975 33.624 42.285 33.839l.286.197.221.269c1.752 2.127 3.607 4.901 2.39 7.5-1.21 2.585-4.572 2.901-6.996 2.915l-23.163-.312c.002.003.005.005.008.007 13.451 12.321 42.607 33.829 42.9 34.045l.157.116.137.139c2.017 2.038 4.188 4.724 3.07 7.419-1.145 2.76-4.72 3.147-8.066 3.163l-72.316-.81v31.135c0 4.047-3.136 7.339-6.99 7.339h-22.311z" fill="#3b6d1f"/><path d="M141.333 104.001s2.094.522 2.862 1.436c0 0 12.279 27.276 19.625 35.194 7.347 7.918 27.481 21.116 27.481 21.116 2.354 2.801 1.775 4.43-1.731 4.449l-20.666-.272c3.293 5.608 6.518 10.473 9.29 13.521 11.418 12.556 42.712 34.213 42.712 34.213 3.659 4.44 2.759 6.294-2.69 6.325l-29.244-.394c1.603 1.718 3.091 3.221 4.414 4.433 13.707 12.556 43.106 34.214 43.106 34.214 4.393 4.44 3.312 6.294-3.23 6.324l-74.804-.837v33.662c0 2.661-2.021 4.839-4.49 4.839h-22.311c-2.469 0-4.489-2.178-4.489-4.839V263.73l-74.119.829c-6.542-.03-7.623-1.884-3.23-6.324 0 0 29.399-21.658 43.105-34.214 1.323-1.212 2.811-2.715 4.414-4.433l-29.243.394c-5.45-.031-6.35-1.885-2.691-6.325 0 0 31.294-21.657 42.712-34.213 2.78-3.058 6.016-7.94 9.319-13.57l-24.451.322c-3.506-.02-4.085-1.648-1.731-4.449 0 0 20.135-13.198 27.481-21.116s19.626-35.194 19.626-35.194c.767-.913 2.898-1.429 2.918-1.429.017-.001.035-.007.055-.007m.614-5h-1.027l-.439.071.003.018c-1.583.27-4.353 1.227-5.953 3.129l-.447.531-.285.634c-3.324 7.38-13.168 27.849-18.732 33.846-6.853 7.387-26.36 20.207-26.557 20.336l-.614.402-.472.562c-3.208 3.815-2.863 6.816-2.01 8.662.838 1.812 2.827 3.979 7.541 4.005h.046l.047-.001 15.273-.201c-1.451 2.121-2.756 3.821-3.906 5.086-10.901 11.988-41.55 33.253-41.858 33.466l-.571.396-.442.536c-1.304 1.583-4.768 5.787-2.725 10.149 2.021 4.314 7.459 4.346 9.246 4.355h.048l.047-.001 16.354-.22c-14.484 12.351-37.403 29.257-37.663 29.447l-.314.232-.274.277c-1.504 1.521-5.5 5.56-3.603 10.135 1.935 4.667 7.842 4.694 10.364 4.706h.08l69.062-.773v28.599c0 5.425 4.257 9.839 9.489 9.839h22.311c5.233 0 9.49-4.414 9.49-9.839v-28.606l69.749.781h.08c2.522-.012 8.429-.039 10.364-4.706 1.897-4.575-2.098-8.614-3.602-10.135l-.275-.277-.314-.232c-.259-.19-23.178-17.097-37.663-29.447l16.354.22.047.001h.048c1.787-.01 7.226-.041 9.247-4.355 2.043-4.362-1.421-8.566-2.725-10.149l-.442-.536-.571-.396c-.308-.213-30.957-21.478-41.858-33.466-1.141-1.254-2.434-2.938-3.871-5.035l11.482.15.047.001h.047c4.714-.026 6.703-2.192 7.541-4.005.854-1.846 1.197-4.847-2.01-8.662l-.472-.562-.614-.402c-.196-.129-19.71-12.956-26.557-20.336-5.564-5.997-15.409-26.466-18.732-33.846l-.285-.634-.447-.531c-1.576-1.875-4.11-2.728-5.48-3.069l-.597-.15z" fill="#113a09"/><g><path d="M49.822 258.234l59.973-.266 17.105-.006 68.23.701c8.485.444 15.288-4.175-2.67-16.859 0 0-21.199-17.138-33.701-27.652-1.207-1.015-2.564-2.273-4.026-3.711l26.673.329c4.971-.025 5.792-1.578 2.455-5.297 0 0-24.921-24.786-35.336-35.301-2.528-2.552-4.547-5.257-7.551-9.954l21.427-.054c1.649-.008-15.152-22.765-17.448-27.604-3.891-8.201-6.527-26.944-6.53-26.943-1.051.04-12.889 27.095-20.236 35.014-7.346 7.918-27.48 21.116-27.48 21.116-2.354 2.801-1.775 4.43 1.731 4.448l24.452-.321c-3.303 5.63-6.539 10.513-9.319 13.57C96.153 192 64.86 213.657 64.86 213.657c-3.66 4.441-2.759 6.294 2.69 6.325l29.244-.394c-1.603 1.718-3.091 3.221-4.414 4.433-13.707 12.556-43.106 34.214-43.106 34.214-4.393 4.44-3.312 6.294 3.23 6.324l.401-.005c-6.405-.058-7.442-1.914-3.083-6.32z" fill="#53ae31"/></g></g></svg>