<svg xmlns="http://www.w3.org/2000/svg" width="292.08" height="406.32"><style>.st16{fill:#e7fff1}.st59{fill:#5b7776}.st132{fill:#94bfac}.st273{display:none}</style><g id="Cards_1_"><g id="Development_6_"><radialGradient id="SVGID_1_" cx="118.9258" cy="200.1826" r="162.2683" gradientTransform="matrix(0 -1 1.064 0 -70.1174 319.1084)" gradientUnits="userSpaceOnUse"><stop offset="0" stop-color="#c2e1d8"/><stop offset=".213" stop-color="#b9dad0"/><stop offset=".5603" stop-color="#a1c8bb"/><stop offset=".9965" stop-color="#79aa98"/><stop offset="1" stop-color="#79aa98"/></radialGradient><path d="M16.303 390.183c-3.402 0-6.169-2.768-6.169-6.17V16.352c0-3.401 2.768-6.169 6.169-6.169h253.161c3.402 0 6.169 2.768 6.169 6.169v367.661c0 3.402-2.768 6.17-6.169 6.17H16.303z" fill="url(#SVGID_1_)"/><path d="M265.633 20.182v360h-245.5v-360h245.5m3.831-20H16.303C7.373.182.134 7.422.134 16.352v367.661c0 8.931 7.239 16.169 16.169 16.169h253.161c8.93 0 16.169-7.238 16.169-16.169V16.352c0-8.93-7.239-16.17-16.169-16.17z" fill="#c2e1d8"/><path d="M269.464 10.182c3.402 0 6.169 2.768 6.169 6.17v367.661c0 3.401-2.768 6.169-6.169 6.169H16.303c-3.402 0-6.169-2.768-6.169-6.169V16.352c0-3.402 2.768-6.17 6.169-6.17h253.161m0-10H16.303C7.373.182.134 7.422.134 16.352v367.661c0 8.931 7.239 16.169 16.169 16.169h253.161c8.93 0 16.169-7.238 16.169-16.169V16.352c0-8.93-7.239-16.17-16.169-16.17z" fill="#414042"/></g><path class="st16" d="M121.115 236.177c-3.31 0-6.201-.472-8.837-1.44-3.757-1.381-6.979-3.84-9.366-5.827-7.019-5.845-12.974-12.771-17.7-20.586-3.413-5.644-8.92-24.383-4.857-32.853 4.165-8.683 11.993-14.668 18.348-18.913 3.406-2.275 8.549-5.3 13.858-5.3 1.682 0 3.294.307 4.791.909 3.386 1.364 5.858 4.184 7.845 6.449l20.61 23.496c4.194 4.782 8.531 9.728 12.057 15.25 1.27 1.991 2.638 4.389 3.158 7.084.749 3.887-.286 8.293-2.992 12.743-5.963 9.808-17.643 16.752-31.244 18.578-2.053.276-3.907.41-5.671.41z"/><path class="st59" d="M112.561 153.258c1.367 0 2.723.232 4.043.764 2.882 1.162 5.04 3.577 7.089 5.913 6.87 7.832 13.74 15.665 20.61 23.497 4.21 4.801 8.438 9.625 11.874 15.008 1.264 1.98 2.435 4.078 2.88 6.386.752 3.902-.672 7.93-2.737 11.325-6.201 10.199-17.972 16.047-29.801 17.635-1.784.239-3.597.392-5.402.392-2.782 0-5.545-.361-8.148-1.317-3.254-1.196-6.112-3.269-8.776-5.487-6.816-5.676-12.678-12.494-17.268-20.084-3.152-5.213-8.458-23.257-4.766-30.952 3.691-7.696 10.558-13.374 17.656-18.115 3.816-2.552 8.337-4.965 12.746-4.965m0-4c-5.853 0-11.346 3.217-14.969 5.637-6.567 4.387-14.666 10.591-19.041 19.711-4.664 9.722 1.851 29.629 4.949 34.752 4.842 8.007 10.942 15.102 18.131 21.088 2.51 2.091 5.911 4.682 9.957 6.168 2.862 1.052 5.979 1.563 9.528 1.563 1.854 0 3.795-.14 5.934-.427 14.194-1.906 26.414-9.204 32.687-19.521 2.968-4.883 4.091-9.779 3.247-14.16-.583-3.028-2.064-5.633-3.436-7.781-3.607-5.651-7.995-10.654-12.239-15.492l-1.646-1.877-18.963-21.622c-2.126-2.425-4.773-5.442-8.602-6.985-1.735-.7-3.598-1.054-5.537-1.054z"/><path class="st16" d="M80.649 252.036c-2.555 0-5.055-.378-7.396-.765-4.636-.767-9.979-1.787-14.73-4.213-5.325-2.72-9.223-7.023-10.695-11.81-.965-3.14-.925-6.392-.792-9.725.19-4.734.496-9.765 1.93-14.648 1.134-3.86 3.504-9.226 8.354-12.862.312-.22 2.641-1.785 5.565-1.785.666 0 1.32.083 1.942.246 3.537.93 6.115 3.574 8.253 5.979 3.534 3.976 6.831 8.189 10.021 12.266l4.536 5.796c2.734 3.493 5.833 7.452 7.359 12.143 1.794 5.512.892 11.172-2.355 14.773-2.226 2.469-5.622 4.06-9.562 4.479-.774.084-1.592.126-2.43.126z"/><path class="st59" d="M62.885 198.229c.467 0 .949.053 1.435.181 2.958.777 5.234 3.088 7.267 5.374 3.48 3.915 6.711 8.043 9.94 12.168 1.512 1.933 3.024 3.864 4.536 5.797 2.79 3.564 5.632 7.226 7.033 11.529 1.401 4.305 1.091 9.453-1.939 12.815-2.084 2.312-5.193 3.501-8.289 3.831-.738.078-1.477.112-2.217.112-2.363 0-4.732-.352-7.071-.738-4.856-.803-9.763-1.782-14.147-4.021s-8.245-5.911-9.692-10.616c-.895-2.909-.827-6.017-.705-9.058.191-4.77.505-9.584 1.851-14.164s3.815-8.962 7.635-11.826c-.001 0 1.984-1.384 4.363-1.384m0-4c-3.461 0-6.149 1.752-6.653 2.104l-.057.04-.055.041c-4.187 3.141-7.324 7.946-9.072 13.899-1.499 5.102-1.814 10.271-2.009 15.131-.142 3.513-.181 6.95.878 10.394 1.63 5.3 5.894 10.039 11.696 13.002 5.007 2.558 10.53 3.615 15.314 4.405 2.425.401 5.02.792 7.723.792.908 0 1.796-.046 2.641-.136 4.431-.473 8.279-2.294 10.835-5.129 3.724-4.132 4.787-10.543 2.772-16.732-1.637-5.028-4.851-9.135-7.687-12.757l-2.346-2.998-2.19-2.798c-3.212-4.104-6.534-8.348-10.101-12.361-2.333-2.624-5.163-5.513-9.239-6.584-.786-.209-1.611-.313-2.45-.313z"/><path class="st16" d="M180.22 275.705c-1.63 0-3.291-.209-4.937-.62-4.411-1.104-8.284-3.479-11.166-5.427-4.316-2.917-8.358-6.231-12.016-9.85-6.773-6.699-9.785-13.225-8.952-19.393.653-4.846 3.839-9.521 8.739-12.828 4.183-2.822 8.908-4.361 13.485-5.841.889-.417 7.24-3.438 10.291-6.086.615-.533 1.204-1.102 1.828-1.702 1.142-1.101 2.322-2.238 3.713-3.199 2.83-1.955 6.337-2.988 10.143-2.988 3.586 0 7.257.892 10.618 2.579 6.449 3.235 11.231 8.667 15.207 13.504 3.11 3.783 6.6 8.262 8.64 13.529 2.808 7.253 2.604 15.486-.561 22.59-.946 2.126-1.967 3.668-3.214 4.853-2.271 2.159-5.246 3.079-7.856 3.693-3.94.93-7.99 1.421-12.036 1.462l-.8.004-1.757-.005c-2.706 0-5.313.092-7.474 1.199-.661.338-1.307.788-1.991 1.264-.609.424-1.238.862-1.93 1.258-2.287 1.311-5.045 2.004-7.974 2.004z"/><path class="st59" d="M191.348 209.771c3.334 0 6.738.869 9.722 2.366 5.856 2.938 10.398 7.925 14.559 12.986 3.278 3.988 6.455 8.169 8.319 12.982 2.602 6.719 2.41 14.472-.522 21.054-.688 1.546-1.539 3.051-2.765 4.217-1.868 1.775-4.429 2.605-6.937 3.196a52.8585 52.8585 0 01-11.598 1.408c-.26.003-.521.004-.784.004-.583 0-1.169-.005-1.756-.005-2.909 0-5.829.11-8.383 1.419-1.412.724-2.627 1.778-4.003 2.566-2.112 1.21-4.535 1.739-6.98 1.739-1.499 0-3.005-.199-4.453-.561-3.81-.953-7.277-2.945-10.531-5.144-4.194-2.835-8.13-6.054-11.729-9.614-4.817-4.765-9.283-10.989-8.377-17.703.638-4.728 3.922-8.77 7.876-11.438s8.56-4.168 13.099-5.635c0 0 7.342-3.378 10.87-6.439 1.809-1.57 3.396-3.405 5.367-4.767 2.646-1.824 5.794-2.631 9.006-2.631m0-4c-4.213 0-8.113 1.156-11.279 3.343-1.525 1.053-2.764 2.247-3.962 3.402-.605.583-1.177 1.134-1.753 1.634-2.452 2.129-7.646 4.765-9.71 5.73-4.467 1.443-9.496 3.096-13.874 6.05-5.373 3.625-8.873 8.808-9.603 14.218-.92 6.823 2.285 13.916 9.528 21.082 3.746 3.707 7.885 7.1 12.302 10.084 3.017 2.04 7.085 4.532 11.801 5.71 1.805.451 3.629.681 5.423.681 3.278 0 6.379-.785 8.968-2.268.768-.44 1.464-.925 2.078-1.352.627-.438 1.22-.85 1.761-1.127 1.764-.903 4.109-.979 6.559-.979l.866.002.89.003c.276 0 .55-.001.824-.004 4.196-.042 8.393-.552 12.475-1.515 2.871-.677 6.159-1.704 8.774-4.19 1.895-1.802 2.998-3.996 3.663-5.489 3.379-7.586 3.598-16.38.598-24.125-2.147-5.546-5.75-10.175-8.959-14.078-4.409-5.362-9.38-10.772-15.856-14.021-3.636-1.826-7.618-2.791-11.514-2.791z"/><g><path class="st16" d="M224.209 217.284c-2.971 0-6.014-1.056-9.576-3.321-.88-.56-1.741-1.153-2.602-1.747-1.8-1.243-3.501-2.417-5.353-3.255-.568-.258-1.157-.488-1.747-.721-2.023-.798-4.317-1.702-5.949-3.641-2.08-2.47-2.636-6.227-1.527-10.307 1.83-6.722 6.869-11.935 10.5-15.271l3.845-3.612.202-.116c1.69-.973 3.691-1.521 6.297-1.726.683-.054 1.38-.081 2.07-.081 7.112 0 13.954 2.898 18.304 7.752 5.308 5.925 6.721 14.762 3.437 21.489-.994 2.035-2.375 3.849-3.592 5.388-3.229 4.087-7.7 8.821-13.653 9.151-.219.012-.436.018-.656.018.001 0 .001 0 0 0z"/><path class="st59" d="M220.368 175.486c6.286 0 12.633 2.418 16.817 7.088 4.609 5.144 6.159 13.069 3.129 19.276-.886 1.814-2.112 3.44-3.364 5.024-3.158 3.996-7.11 8.112-12.195 8.395-.183.01-.365.015-.546.015-3.028 0-5.931-1.374-8.502-3.009-2.726-1.733-5.26-3.804-8.203-5.137-2.446-1.107-5.262-1.773-6.991-3.826-1.914-2.274-1.907-5.627-1.126-8.494 1.545-5.682 5.587-10.341 9.923-14.324l3.691-3.468c1.646-.947 3.562-1.315 5.456-1.466a24.81 24.81 0 011.911-.074m0-4c-.741 0-1.49.029-2.226.087-2.914.23-5.182.861-7.137 1.987l-.403.231-.339.319-3.691 3.467c-3.782 3.475-9.08 8.969-11.044 16.189-1.285 4.723-.583 9.14 1.926 12.12 1.958 2.327 4.613 3.373 6.747 4.213.59.233 1.148.452 1.655.683 1.688.764 3.318 1.889 5.043 3.079.856.591 1.741 1.202 2.663 1.788 3.897 2.479 7.281 3.634 10.648 3.634.255 0 .511-.007.768-.021 6.75-.375 11.621-5.492 15.111-9.908 1.282-1.621 2.74-3.537 3.82-5.75 3.633-7.44 2.093-17.187-3.744-23.701-4.794-5.348-12.01-8.417-19.797-8.417z"/></g><g><path class="st16" d="M174.911 207.278c-5.613-.001-8.717-2.997-10.385-4.607-1.235-1.192-2.193-2.527-3.121-3.818l-10.137-14.108c-2.41-3.355-4.903-6.824-6.632-10.777-2.012-4.601-2.6-9.16-1.7-13.188 1-4.474 4.586-8.301 4.739-8.462l.17-.181.21-.133c3.132-1.988 7.151-3.039 11.623-3.039l.383.002c3.852.05 7.562.801 11.664 1.703 6.179 1.36 11.684 2.752 16.481 6.016 2.413 1.642 4.525 3.717 6.388 5.547 1.276 1.256 2.865 2.817 3.696 4.896.855 2.133.759 4.369.682 6.166-.143 3.327-.338 6.703-.582 10.034-.188 2.579-.406 4.902-1.161 7.217-.592 1.819-1.532 3.653-2.875 5.605-3.491 5.08-8.202 8.687-13.265 10.153-2.261.655-4.283.974-6.178.974.001 0 .001 0 0 0z"/><path class="st59" d="M159.683 150.965c.118 0 .236 0 .354.002 3.801.049 7.549.84 11.261 1.656 5.5 1.211 11.129 2.547 15.786 5.716 2.236 1.522 4.182 3.425 6.111 5.321 1.273 1.251 2.578 2.554 3.242 4.211.67 1.674.618 3.536.541 5.337-.143 3.327-.335 6.652-.578 9.975-.167 2.275-.36 4.573-1.067 6.743-.593 1.821-1.536 3.513-2.622 5.091-2.958 4.304-7.157 7.913-12.173 9.366-2.176.63-4.028.896-5.626.896-4.455 0-6.941-2.063-8.995-4.046-1.098-1.061-1.995-2.307-2.885-3.547-3.379-4.703-6.758-9.406-10.137-14.108-2.384-3.318-4.787-6.668-6.424-10.412-1.637-3.743-2.472-7.962-1.581-11.949.892-3.987 4.239-7.523 4.239-7.523 3.109-1.975 6.866-2.729 10.554-2.729m0-4c-4.853 0-9.244 1.158-12.698 3.351l-.42.267-.341.36c-.42.444-4.138 4.479-5.238 9.4-.994 4.444-.365 9.433 1.819 14.425 1.813 4.146 4.369 7.703 6.84 11.143l4.905 6.828 5.232 7.281c.936 1.303 1.996 2.777 3.355 4.09 2.78 2.686 6.13 5.169 11.773 5.169 2.086 0 4.291-.345 6.738-1.054 5.505-1.594 10.604-5.48 14.358-10.942 1.452-2.112 2.476-4.114 3.128-6.118.891-2.733 1.101-5.599 1.253-7.689.245-3.355.442-6.752.585-10.096.081-1.883.191-4.462-.824-6.995-.988-2.468-2.742-4.192-4.151-5.577-1.921-1.889-4.099-4.028-6.665-5.774-5.092-3.466-10.792-4.91-17.176-6.315-4.21-.926-8.023-1.697-12.069-1.75-.133-.004-.269-.004-.404-.004z"/></g><g><path class="st132" d="M156.307 216.105c2.064-3.396 3.489-7.423 2.737-11.326-.444-2.307-1.615-4.405-2.88-6.386-3.435-5.383-7.664-10.207-11.874-15.007-6.87-7.833 1.018 6.082-1.253 8.201-2.946 2.75-6.088 2.946-10.605 4.518-8.062 2.805-20.032.393-29.459 1.964-8.42 1.403-19.214 3.96-16.062 9.173 4.59 7.59 10.452 14.408 17.268 20.084 2.665 2.219 5.522 4.291 8.777 5.487 4.292 1.577 9.018 1.535 13.55.927 11.829-1.589 23.6-7.436 29.801-17.635zM86.051 221.702l-4.536-5.796c-3.229-4.125-6.46-8.254-9.94-12.169-2.032-2.286 10.515 14.953 10.581 23.595.065 8.641-.459 12.254-4.91 15.188-4.683 3.087-10.212-.262-18.068-3.404-7.856-3.143-10.207-15.609-10.344-12.568-.327 7.266 1.606 14.429 10.587 18.685 6.434 3.049 9.29 3.219 14.147 4.021 3.071.508 6.192.956 9.288.626 3.095-.33 6.204-1.519 8.289-3.831 3.031-3.361 3.34-8.511 1.939-12.814-1.401-4.307-4.243-7.968-7.033-11.533zM216.268 225.341c-4.199-5.062-5.927-6.389-8.305-8.483-4.943-4.354 14.559 22.462 9.117 26.186-1.988 1.361-6.631 4.584-8.457 6.154-3.56 3.062-23.388 4.844-23.388 4.844-4.581 1.467-14.139-1.309-23.256-6.546-4.165-2.393-16.216-11.322-16.86-6.596-.915 6.715 3.593 12.938 8.454 17.704 3.632 3.561 7.604 6.779 11.837 9.613 3.283 2.199 6.783 4.191 10.627 5.144s8.1.774 11.539-1.178c1.389-.788 2.615-1.844 4.04-2.567 3.332-1.691 7.281-1.38 11.024-1.417 3.938-.04 7.872-.513 11.705-1.408 2.531-.592 5.116-1.421 7-3.196 1.237-1.166 2.096-2.672 2.791-4.217 2.959-6.582 3.153-14.335.527-21.055-1.88-4.814-5.087-8.995-8.395-12.982zM238.09 183.045c-5.394-4.252-.268 3.789-2.428 7.029-1.053 1.58-4.713 5.695-8.15 4.418l-12.667-.687c-5.008 1.669-13.505-4.167-15.051 1.515-.78 2.867-1.423 5.483.491 7.757 1.729 2.054 5.803 3.312 8.249 4.419 2.943 1.332 5.425 3.668 8.15 5.4 2.726 1.734 5.45 2.366 8.675 2.188 5.085-.282 9.038-4.398 12.195-8.395 1.252-1.584 2.478-3.209 3.364-5.024 3.03-6.207 2.596-14.343-2.828-18.62zM152.881 183.531l10.137 14.109c.891 1.239 1.787 2.486 2.885 3.547 2.79 2.693 6.379 5.535 14.621 3.149 5.016-1.452 9.216-5.062 12.173-9.365 1.085-1.579 2.028-3.271 2.622-5.092.707-2.169.901-4.468 1.067-6.743.242-3.321.435-6.646.578-9.975.077-1.801.129-3.664-.541-5.337-.664-1.657-1.969-2.96-3.242-4.211-1.929-1.896-1.765-2.605-2.029.087-.509 5.173.884 4.222-1.964 5.629-3.408 1.685-4.777-.072-7.987 1.965 0 0-3.535 2.226-6.677 3.928-3.593 1.945-11.232 6.284-15.319 6.284-2.225.001-8.707-1.293-6.324 2.025z"/></g></g></svg>