<svg xmlns="http://www.w3.org/2000/svg" width="292.08" height="406.32"><style>.st61{fill:#f6ffff}.st130{fill:#935231}.st151{fill:#ffd8c2}.st163{display:inline}.st177{fill:#d3977d}.st273{display:none}</style><g id="Ui"><g class="st273"><g class="st163"><linearGradient id="SVGID_1_" gradientUnits="userSpaceOnUse" x1="427.2466" y1="-85.542" x2="427.2466" y2="44.9268"><stop offset="0" stop-color="#fcfaf5"/><stop offset="1" stop-color="#e4d0ad"/></linearGradient><path d="M688.02 44.927H166.472c-5.824 0-10.589-4.765-10.589-10.589V-73.828c0-6.442 5.271-11.714 11.714-11.714h519.3c6.442 0 11.714 5.271 11.714 11.714V34.338c-.001 5.824-4.767 10.589-10.591 10.589z" fill="url(#SVGID_1_)"/></g></g><g class="st273"><g class="st163"><linearGradient id="SVGID_2_" gradientUnits="userSpaceOnUse" x1="83.5977" y1="-84.9297" x2="83.5976" y2="44.3145"><stop offset="0" stop-color="#fcfaf5"/><stop offset="1" stop-color="#e4d0ad"/></linearGradient><path d="M138.219 44.314H28.976c-5.5 0-10-4.5-10-10V-74.93c0-5.5 4.5-10 10-10h109.243c5.5 0 10 4.5 10 10V34.314c0 5.5-4.5 10-10 10z" fill="url(#SVGID_2_)"/></g></g><g id="Buttons_x5F_Round" class="st273"><g class="st163"><linearGradient id="SVGID_3_" gradientUnits="userSpaceOnUse" x1="87.2178" y1="-78.1943" x2="87.2178" y2="40.7646"><stop offset="0" stop-color="#99b6e6"/><stop offset=".2269" stop-color="#90afe0"/><stop offset=".5967" stop-color="#789cd1"/><stop offset="1" stop-color="#5681bc"/></linearGradient><circle cx="87.218" cy="-18.715" r="59.479" fill="url(#SVGID_3_)"/></g><g class="st163"><linearGradient id="SVGID_4_" gradientUnits="userSpaceOnUse" x1="84.2163" y1="-81.6973" x2="84.2163" y2="34.2617"><stop offset="0" stop-color="#65a9ad"/><stop offset=".077" stop-color="#6db1b4"/><stop offset=".4809" stop-color="#94d9d7"/><stop offset=".8027" stop-color="#abf1ed"/><stop offset="1" stop-color="#b4faf5"/></linearGradient><path d="M84.216 34.262c-31.97 0-57.979-26.01-57.979-57.979s26.009-57.979 57.979-57.979 57.979 26.01 57.979 57.979-26.008 57.979-57.979 57.979z" fill="url(#SVGID_4_)"/><path class="st61" d="M84.216-80.197c31.143 0 56.479 25.337 56.479 56.479s-25.337 56.479-56.479 56.479c-31.143 0-56.479-25.337-56.479-56.479s25.336-56.479 56.479-56.479m0-3c-32.85 0-59.479 26.63-59.479 59.479s26.63 59.479 59.479 59.479 59.479-26.63 59.479-59.479-26.629-59.479-59.479-59.479z"/></g><g class="st163"><linearGradient id="SVGID_5_" gradientUnits="userSpaceOnUse" x1="218.7842" y1="-78.1943" x2="218.7842" y2="40.7646"><stop offset="0" stop-color="#99b6e6"/><stop offset=".2269" stop-color="#90afe0"/><stop offset=".5967" stop-color="#789cd1"/><stop offset="1" stop-color="#5681bc"/></linearGradient><circle cx="218.785" cy="-18.715" r="59.479" fill="url(#SVGID_5_)"/></g><g class="st163"><linearGradient id="SVGID_6_" gradientUnits="userSpaceOnUse" x1="215.7827" y1="-81.6973" x2="215.7827" y2="34.2617"><stop offset="0" stop-color="#65a9ad"/><stop offset=".077" stop-color="#6db1b4"/><stop offset=".4809" stop-color="#94d9d7"/><stop offset=".8027" stop-color="#abf1ed"/><stop offset="1" stop-color="#b4faf5"/></linearGradient><path d="M215.783 34.262c-31.97 0-57.979-26.01-57.979-57.979s26.009-57.979 57.979-57.979 57.979 26.01 57.979 57.979-26.009 57.979-57.979 57.979z" fill="url(#SVGID_6_)"/><path class="st61" d="M215.783-80.197c31.143 0 56.479 25.337 56.479 56.479s-25.336 56.479-56.479 56.479-56.479-25.337-56.479-56.479 25.336-56.479 56.479-56.479m0-3c-32.85 0-59.479 26.63-59.479 59.479s26.63 59.479 59.479 59.479c32.849 0 59.479-26.63 59.479-59.479s-26.63-59.479-59.479-59.479z"/></g><g class="st163"><linearGradient id="SVGID_7_" gradientUnits="userSpaceOnUse" x1="350.7388" y1="-78.1943" x2="350.7388" y2="40.7646"><stop offset="0" stop-color="#99b6e6"/><stop offset=".2269" stop-color="#90afe0"/><stop offset=".5967" stop-color="#789cd1"/><stop offset="1" stop-color="#5681bc"/></linearGradient><circle cx="350.739" cy="-18.715" r="59.479" fill="url(#SVGID_7_)"/></g><g class="st163"><linearGradient id="SVGID_8_" gradientUnits="userSpaceOnUse" x1="347.7378" y1="-81.6973" x2="347.7378" y2="34.2617"><stop offset="0" stop-color="#65a9ad"/><stop offset=".077" stop-color="#6db1b4"/><stop offset=".4809" stop-color="#94d9d7"/><stop offset=".8027" stop-color="#abf1ed"/><stop offset="1" stop-color="#b4faf5"/></linearGradient><path d="M347.737 34.262c-31.97 0-57.979-26.01-57.979-57.979s26.009-57.979 57.979-57.979c31.971 0 57.98 26.01 57.98 57.979s-26.009 57.979-57.98 57.979z" fill="url(#SVGID_8_)"/><path class="st61" d="M347.737-80.197c31.144 0 56.479 25.337 56.479 56.479s-25.336 56.479-56.479 56.479-56.479-25.337-56.479-56.479 25.336-56.479 56.479-56.479m0-3c-32.85 0-59.479 26.63-59.479 59.479s26.629 59.479 59.479 59.479 59.479-26.63 59.479-59.479-26.63-59.479-59.479-59.479z"/></g></g></g><g id="Options_1_"><g id="End" class="st273"><g class="st163"><g opacity=".33"><path d="M115.828 21.719c-1.198 0-2.324-.467-3.171-1.314L90.212-2.04 67.768 20.404c-.847.848-1.973 1.314-3.171 1.314s-2.324-.467-3.171-1.314L50.55 9.528c-1.749-1.747-1.749-4.593 0-6.342l22.445-22.444L50.55-41.702c-1.749-1.749-1.749-4.595 0-6.343L61.426-58.92c.847-.848 1.973-1.314 3.171-1.314s2.324.467 3.171 1.314l22.444 22.444 22.445-22.444c.847-.848 1.973-1.314 3.171-1.314 1.198 0 2.324.467 3.171 1.314l10.875 10.876c1.749 1.747 1.749 4.593 0 6.342L107.43-19.258l22.444 22.444c1.749 1.749 1.749 4.595 0 6.343l-10.875 10.875c-.847.848-1.973 1.315-3.171 1.315z"/><path d="M115.828-58.233c.636 0 1.271.242 1.756.728L128.46-46.63c.971.97.971 2.543 0 3.514l-23.858 23.858L128.46 4.601c.971.971.971 2.544 0 3.514L117.584 18.99a2.477 2.477 0 01-1.756.728c-.636 0-1.272-.242-1.757-.728L90.212-4.868 66.354 18.99c-.485.485-1.121.728-1.757.728s-1.271-.242-1.757-.728L51.964 8.114c-.97-.97-.97-2.543 0-3.514l23.859-23.858-23.859-23.858c-.97-.971-.97-2.544 0-3.514L62.84-57.506c.485-.485 1.121-.728 1.757-.728s1.272.242 1.757.728l23.858 23.858 23.859-23.858c.485-.485 1.121-.727 1.757-.727m0-4c-1.732 0-3.361.675-4.585 1.899l-21.03 21.029-21.03-21.029c-1.225-1.225-2.854-1.899-4.585-1.899s-3.36.675-4.585 1.899L49.136-49.458c-1.225 1.225-1.899 2.853-1.899 4.585s.674 3.36 1.899 4.585l21.03 21.03-21.03 21.03c-1.225 1.225-1.899 2.853-1.899 4.585s.674 3.361 1.899 4.586l10.876 10.875c1.225 1.225 2.853 1.899 4.585 1.899s3.36-.675 4.585-1.899L90.212.789l21.03 21.029c1.225 1.225 2.853 1.899 4.585 1.899 1.732 0 3.36-.675 4.585-1.899l10.876-10.875c2.528-2.529 2.528-6.643 0-9.171l-21.03-21.03 21.03-21.03c2.528-2.528 2.528-6.642 0-9.17l-10.876-10.876c-1.224-1.225-2.852-1.899-4.584-1.899z"/></g><path d="M113.828 19.719c-1.198 0-2.324-.467-3.171-1.314L88.212-4.04 65.768 18.404c-.847.848-1.973 1.314-3.171 1.314s-2.324-.467-3.171-1.314L48.55 7.528c-1.749-1.747-1.749-4.593 0-6.342l22.445-22.444L48.55-43.702c-1.749-1.749-1.749-4.595 0-6.343L59.426-60.92c.847-.848 1.973-1.314 3.171-1.314s2.324.467 3.171 1.314l22.444 22.444 22.445-22.444c.847-.848 1.973-1.314 3.171-1.314 1.198 0 2.324.467 3.171 1.314l10.875 10.876c1.749 1.747 1.749 4.593 0 6.342L105.43-21.258l22.444 22.444c1.749 1.749 1.749 4.595 0 6.343l-10.875 10.875c-.847.848-1.973 1.315-3.171 1.315z" fill="#8dc0ce"/><path d="M113.828-60.233c.636 0 1.271.242 1.756.728L126.46-48.63c.971.97.971 2.543 0 3.514l-23.858 23.858L126.46 2.601c.971.971.971 2.544 0 3.514L115.584 16.99a2.477 2.477 0 01-1.756.728c-.636 0-1.272-.242-1.757-.728L88.212-6.868 64.354 16.99c-.485.485-1.121.728-1.757.728s-1.271-.242-1.757-.728L49.964 6.114c-.97-.97-.97-2.543 0-3.514l23.859-23.858-23.859-23.858c-.97-.971-.97-2.544 0-3.514L60.84-59.506c.485-.485 1.121-.728 1.757-.728s1.272.242 1.757.728l23.858 23.858 23.859-23.858c.485-.485 1.121-.727 1.757-.727m0-4c-1.732 0-3.361.675-4.585 1.899l-21.03 21.029-21.03-21.029c-1.225-1.225-2.854-1.899-4.585-1.899s-3.36.675-4.585 1.899L47.136-51.458c-1.225 1.225-1.899 2.853-1.899 4.585s.674 3.36 1.899 4.585l21.03 21.03-21.03 21.03c-1.225 1.225-1.899 2.853-1.899 4.585s.674 3.361 1.899 4.586l10.876 10.875c1.225 1.225 2.853 1.899 4.585 1.899s3.36-.675 4.585-1.899l21.03-21.029 21.03 21.029c1.225 1.225 2.853 1.899 4.585 1.899 1.732 0 3.36-.675 4.585-1.899l10.876-10.875c2.528-2.529 2.528-6.643 0-9.171l-21.03-21.03 21.03-21.03c2.528-2.528 2.528-6.642 0-9.17l-10.876-10.876c-1.224-1.225-2.852-1.899-4.584-1.899z" fill="#223948"/></g><path d="M101.287-21.988l23.859-23.859c.97-.97.97-2.543 0-3.513l-10.821-10.821c-.79-.16-1.641.063-2.253.676l-23.86 23.858-.311.286-1.005-1.017-23.802-23.804c-.789-.16-1.641.063-2.253.676L49.964-48.63c-.97.97-.97 2.543 0 3.514l23.859 23.858L49.964 2.601c-.97.971-.97 2.544 0 3.514l10.821 10.821c.79.16 1.641-.064 2.253-.676L86.897-7.599l1.023 1.022.292-.292 23.804 23.804c.789.16 1.641-.064 2.253-.676l10.876-10.876c.97-.971.97-2.544 0-3.514l-23.858-23.857z" fill="#cceffe"/></g></g><g id="Cards_1_"><g id="Development_8_"><radialGradient id="SVGID_9_" cx="109.0688" cy="200.1826" r="162.2684" gradientTransform="matrix(0 -1 1.064 0 -70.1179 309.2515)" gradientUnits="userSpaceOnUse"><stop offset="0" stop-color="#d4b190"/><stop offset=".1973" stop-color="#d3a889"/><stop offset=".5191" stop-color="#cf9075"/><stop offset=".923" stop-color="#c86855"/><stop offset="1" stop-color="#c7604e"/></radialGradient><path d="M16.303 390.183c-3.402 0-6.169-2.768-6.169-6.17V16.352c0-3.401 2.768-6.169 6.169-6.169h253.161c3.402 0 6.17 2.768 6.17 6.169v367.661c0 3.402-2.768 6.17-6.17 6.17H16.303z" fill="url(#SVGID_9_)"/><path d="M265.633 20.182v360h-245.5v-360h245.5m3.83-20H16.303C7.373.182.134 7.422.134 16.352v367.661c0 8.931 7.239 16.169 16.169 16.169h253.161c8.931 0 16.17-7.238 16.17-16.169V16.352c-.001-8.93-7.24-16.17-16.171-16.17z" fill="#f79c94"/><path d="M269.463 10.182c3.402 0 6.17 2.768 6.17 6.17v367.661c0 3.401-2.768 6.169-6.17 6.169H16.303c-3.402 0-6.169-2.768-6.169-6.169V16.352c0-3.402 2.768-6.17 6.169-6.17h253.16m0-10H16.303C7.373.182.134 7.422.134 16.352v367.661c0 8.931 7.239 16.169 16.169 16.169h253.161c8.931 0 16.17-7.238 16.17-16.169V16.352c-.001-8.93-7.24-16.17-16.171-16.17z" fill="#414042"/></g><path class="st151" d="M86.45 182.179c-4.965 0-9.004-4.04-9.004-9.005v-19.876c0-4.965 4.039-9.004 9.004-9.004h53.155c4.965 0 9.005 4.039 9.005 9.004v19.876c0 4.965-4.04 9.005-9.005 9.005H86.45z"/><path class="st130" d="M139.606 146.294c3.852 0 7.004 3.151 7.004 7.004v19.876c0 3.853-3.152 7.005-7.004 7.005H86.45c-3.852 0-7.004-3.152-7.004-7.005v-19.876c0-3.853 3.152-7.004 7.004-7.004h53.156m0-4H86.45c-6.067 0-11.004 4.937-11.004 11.004v19.876c0 6.068 4.937 11.005 11.004 11.005h53.156c6.068 0 11.004-4.937 11.004-11.005v-19.876c0-6.068-4.936-11.004-11.004-11.004z"/><path class="st151" d="M160.147 182.179c-4.965 0-9.004-4.04-9.004-9.005v-19.876c0-4.965 4.04-9.004 9.004-9.004h53.155c4.965 0 9.004 4.039 9.004 9.004v19.876c0 4.965-4.04 9.005-9.004 9.005h-53.155z"/><path class="st130" d="M213.302 146.294c3.853 0 7.004 3.151 7.004 7.004v19.876c0 3.853-3.152 7.005-7.004 7.005h-53.155c-3.853 0-7.004-3.152-7.004-7.005v-19.876c0-3.853 3.152-7.004 7.004-7.004h53.155m0-4h-53.155c-6.068 0-11.004 4.937-11.004 11.004v19.876c0 6.068 4.937 11.005 11.004 11.005h53.155c6.068 0 11.004-4.937 11.004-11.005v-19.876c.001-6.068-4.936-11.004-11.004-11.004z"/><path class="st151" d="M86.45 264.247c-4.965 0-9.004-4.039-9.004-9.004v-19.876c0-4.965 4.039-9.004 9.004-9.004h53.155c4.965 0 9.005 4.039 9.005 9.004v19.876c0 4.965-4.04 9.004-9.005 9.004H86.45z"/><path class="st130" d="M139.606 228.363c3.852 0 7.004 3.151 7.004 7.004v19.876c0 3.853-3.152 7.005-7.004 7.005H86.45c-3.852 0-7.004-3.152-7.004-7.005v-19.876c0-3.853 3.152-7.004 7.004-7.004h53.156m0-4H86.45c-6.067 0-11.004 4.937-11.004 11.004v19.876c0 6.067 4.937 11.005 11.004 11.005h53.156c6.068 0 11.004-4.938 11.004-11.005v-19.876c0-6.067-4.936-11.004-11.004-11.004z"/><path class="st151" d="M160.147 264.247c-4.965 0-9.004-4.039-9.004-9.004v-19.876c0-4.965 4.04-9.004 9.004-9.004h53.155c4.965 0 9.004 4.039 9.004 9.004v19.876c0 4.965-4.04 9.004-9.004 9.004h-53.155z"/><path class="st130" d="M213.302 228.363c3.853 0 7.004 3.151 7.004 7.004v19.876c0 3.853-3.152 7.005-7.004 7.005h-53.155c-3.853 0-7.004-3.152-7.004-7.005v-19.876c0-3.853 3.152-7.004 7.004-7.004h53.155m0-4h-53.155c-6.068 0-11.004 4.937-11.004 11.004v19.876c0 6.067 4.937 11.005 11.004 11.005h53.155c6.068 0 11.004-4.938 11.004-11.005v-19.876c.001-6.067-4.936-11.004-11.004-11.004z"/><g><path class="st151" d="M45.241 223.738c-4.965 0-9.004-4.04-9.004-9.005v-19.876c0-4.965 4.04-9.004 9.004-9.004h53.155c4.965 0 9.004 4.039 9.004 9.004v19.876c0 4.965-4.04 9.005-9.004 9.005H45.241z"/><path class="st130" d="M98.396 187.854c3.853 0 7.004 3.151 7.004 7.004v19.876c0 3.853-3.152 7.005-7.004 7.005H45.241c-3.853 0-7.004-3.152-7.004-7.005v-19.876c0-3.853 3.152-7.004 7.004-7.004h53.155m0-4H45.241c-6.068 0-11.004 4.937-11.004 11.004v19.876c0 6.067 4.937 11.005 11.004 11.005h53.155c6.068 0 11.004-4.938 11.004-11.005v-19.876c.001-6.068-4.936-11.004-11.004-11.004z"/></g><g><path class="st151" d="M119.637 223.738c-4.965 0-9.004-4.04-9.004-9.005v-19.876c0-4.965 4.04-9.004 9.004-9.004h53.156c4.965 0 9.004 4.039 9.004 9.004v19.876c0 4.965-4.039 9.005-9.004 9.005h-53.156z"/><path class="st130" d="M172.793 187.854c3.852 0 7.004 3.151 7.004 7.004v19.876c0 3.853-3.152 7.005-7.004 7.005h-53.156c-3.853 0-7.004-3.152-7.004-7.005v-19.876c0-3.853 3.152-7.004 7.004-7.004h53.156m0-4h-53.156c-6.068 0-11.004 4.937-11.004 11.004v19.876c0 6.067 4.937 11.005 11.004 11.005h53.156c6.068 0 11.004-4.938 11.004-11.005v-19.876c0-6.068-4.936-11.004-11.004-11.004z"/></g><g><path class="st151" d="M193.683 223.738c-4.965 0-9.004-4.04-9.004-9.005v-19.876c0-4.965 4.04-9.004 9.004-9.004h53.155c4.965 0 9.005 4.039 9.005 9.004v19.876c0 4.965-4.04 9.005-9.005 9.005h-53.155z"/><path class="st130" d="M246.838 187.854c3.853 0 7.005 3.151 7.005 7.004v19.876c0 3.853-3.152 7.005-7.005 7.005h-53.155c-3.853 0-7.004-3.152-7.004-7.005v-19.876c0-3.853 3.152-7.004 7.004-7.004h53.155m0-4h-53.155c-6.068 0-11.004 4.937-11.004 11.004v19.876c0 6.067 4.937 11.005 11.004 11.005h53.155c6.068 0 11.005-4.938 11.005-11.005v-19.876c0-6.068-4.936-11.004-11.005-11.004z"/></g><g><path class="st177" d="M87.234 180.109h52.579c3.853 0 7.004-3.152 7.004-7.005v-19.876c0-3.852-4.52-6.827-4.624-6.135 1.975 7.347 2.495 16.91 1.04 29.697-.157 1.377-55.843.246-55.843.246l-6.74-.004c.001 2.081 4.368 3.12 6.584 3.077zM161.044 180.109h52.579c3.853 0 7.004-3.152 7.004-7.005v-19.876c0-3.852-4.52-6.827-4.624-6.135 1.975 7.347 2.495 16.91 1.04 29.697-.157 1.377-55.843.246-55.843.246l-6.739-.004c0 2.081 4.367 3.12 6.583 3.077zM142.194 229.221c1.975 7.346 2.495 16.91 1.04 29.697-.157 1.377-55.843.245-55.843.245l-6.74-.003c0 2.079 4.366 3.119 6.583 3.075h52.579c3.853 0 7.004-3.151 7.004-7.005v-19.875c.001-3.852-4.519-6.828-4.623-6.134zM216.004 229.221c1.975 7.346 2.495 16.91 1.04 29.697-.157 1.377-55.843.245-55.843.245l-6.739-.003c0 2.079 4.366 3.119 6.583 3.075h52.579c3.853 0 7.004-3.151 7.004-7.005v-19.875c0-3.852-4.52-6.828-4.624-6.134zM105.443 214.896V195.02c0-3.853-4.52-6.828-4.624-6.135 1.975 7.347 2.495 16.91 1.04 29.697-.157 1.377-55.843.245-55.843.245l-6.74-.003c0 2.08 4.366 3.119 6.583 3.076h52.579c3.853 0 7.005-3.152 7.005-7.004zM120.242 218.412l-6.74-.003c0 2.079 4.366 3.118 6.583 3.075h52.579c3.853 0 7.004-3.152 7.004-7.005v-19.876c0-3.852-4.52-6.827-4.624-6.135 1.975 7.347 2.495 16.911 1.04 29.697-.156 1.378-55.842.247-55.842.247zM249.062 188.469c1.976 7.347 2.495 16.911 1.04 29.697-.157 1.377-55.843.246-55.843.246l-6.74-.003c0 2.079 4.366 3.118 6.583 3.075h52.58c3.853 0 7.004-3.152 7.004-7.005v-19.876c0-3.851-4.519-6.827-4.624-6.134z"/></g></g><g class="st273" id="Highlight"><radialGradient id="SVGID_10_" cx="353.6235" cy="-19.6914" r="62.5386" gradientUnits="userSpaceOnUse"><stop offset="0" stop-color="#fff" stop-opacity="0"/><stop offset=".9" stop-color="#fff" stop-opacity=".8"/></radialGradient><path d="M353.624 42.847c-34.483 0-62.538-28.055-62.538-62.538s28.055-62.538 62.538-62.538c34.484 0 62.539 28.055 62.539 62.538s-28.055 62.538-62.539 62.538z" fill="url(#SVGID_10_)"/><path d="M353.624-80.729c33.656 0 61.038 27.382 61.038 61.038 0 33.657-27.382 61.039-61.038 61.039s-61.038-27.382-61.038-61.039c-.001-33.657 27.381-61.038 61.038-61.038m0-3c-35.367 0-64.038 28.671-64.038 64.038s28.671 64.039 64.038 64.039 64.038-28.672 64.038-64.039-28.671-64.038-64.038-64.038z" fill="#fff"/></g></svg>