<svg xmlns="http://www.w3.org/2000/svg" width="292.08" height="406.32"><style>.st54{fill:#8e8e8e}.st154{fill:#fff}.st163{display:inline}.st172{fill:#6d6e71}.st175{fill:#d1d3d4}.st273{display:none}.st288{fill:#a7a9ac}</style><g id="Cards_1_"><g id="Development_1_"><radialGradient id="SVGID_1_" cx="138.7568" cy="200.1826" r="162.2684" gradientTransform="matrix(0 -1 1.064 0 -70.1177 338.9395)" gradientUnits="userSpaceOnUse"><stop offset="0" stop-color="#d4ff40"/><stop offset=".1812" stop-color="#cbfa3a"/><stop offset=".4765" stop-color="#b3ed29"/><stop offset=".8471" stop-color="#8bd80d"/><stop offset="1" stop-color="#79ce00"/></radialGradient><path d="M16.303 390.183c-3.402 0-6.169-2.768-6.169-6.17V16.352c0-3.401 2.768-6.169 6.169-6.169h253.161c3.402 0 6.169 2.768 6.169 6.169v367.661c0 3.402-2.768 6.17-6.169 6.17H16.303z" fill="url(#SVGID_1_)"/><path d="M265.633 20.182v360h-245.5v-360h245.5m3.831-20H16.303C7.373.182.134 7.422.134 16.352v367.661c0 8.931 7.239 16.169 16.169 16.169h253.161c8.93 0 16.169-7.238 16.169-16.169V16.352c0-8.93-7.239-16.17-16.169-16.17z" fill="#b6e05c"/><path d="M269.464 10.182c3.402 0 6.169 2.768 6.169 6.17v367.661c0 3.401-2.768 6.169-6.169 6.169H16.303c-3.402 0-6.169-2.768-6.169-6.169V16.352c0-3.402 2.768-6.17 6.169-6.17h253.161m0-10H16.303C7.373.182.134 7.422.134 16.352v367.661c0 8.931 7.239 16.169 16.169 16.169h253.161c8.93 0 16.169-7.238 16.169-16.169V16.352c0-8.93-7.239-16.17-16.169-16.17z" fill="#414042"/></g><g id="Wool"><path class="st54" d="M258.541 167.464c-.74-5.339-3.983-9.829-6.358-12.742-.564-.691-1.105-1.382-1.64-2.063-2.021-2.579-4.113-5.246-7.05-7.495-.173-.132-.364-.284-.569-.448-.455-.361-.962-.76-1.503-1.148 1.402-1.428 1.971-2.746 2.559-4.134l.112-.265c1.127-2.648 1.326-7.009-4.131-12.749-2.826-2.973-6.505-4.499-9.732-5.6-4.198-1.432-8.67-2.157-13.292-2.157-9.208 0-17.969 2.877-24.669 8.102-2.434 1.897-4.645 4.015-6.783 6.062-2.718 2.604-5.286 5.062-8.164 6.979-3.299 2.197-7.187 3.135-13.002 3.135-1.999 0-4.029-.1-6.178-.205-2.204-.108-4.483-.22-6.785-.22-2.827 0-5.302.175-7.569.534-1.016.161-2.012.355-2.975.544-2.073.404-4.031.786-5.888.786l-.174-.001c-2.21-.029-4.011-.414-6.096-.859-1.817-.388-3.696-.789-5.988-.987-4.408-.382-7.1-.769-9.064-1.051-1.708-.245-2.941-.423-4.206-.423-1.844 0-3.447.387-5.594 1.055-1.176.365-2.905.629-4.577.883-1.897.289-3.858.588-5.543 1.098-3.439 1.041-7.131 1.433-11.039 1.847-5.757.61-11.71 1.241-17.234 4.071-5.273 2.703-9.487 6.018-13.948 9.527-.834.657-1.676 1.319-2.532 1.982-1.013.785-2.063 1.57-3.08 2.331-3.054 2.284-6.211 4.646-9.085 7.506-6.195 6.164-8.785 19.17-5.543 27.833.987 2.639 3.839 4.481 6.935 4.481.837 0 1.65-.142 2.397-.415-.387 6.5.231 13.474 1.882 20.494.909 3.867 2.072 7.607 3.197 11.224 2.333 7.499 4.537 14.583 4.357 22.108-.028 1.16-.186 2.667-.354 4.263-.629 5.98-1.411 13.422 2.863 17.594 2.313 2.259 6.395 3.662 10.651 3.662 4.739 0 8.698-1.714 10.862-4.7.494-.682.816-1.436 1.039-2.225.348.428.747.831 1.221 1.188 1.541 1.159 3.302 1.499 4.822 1.678 1.156.137 2.334.206 3.499.206.471 0 .948-.011 1.417-.033 1.261-.061 2.733-.231 4.101-1.04 1.615-.955 3.549-3.065 3.592-7.694.008-.805.033-1.67.06-2.571.123-4.123.242-8.752-1.015-12.544 3.472-1.502 6.733-3.563 9.714-6.158 1.147-.188 2.145-.397 3.079-.643.635-.167 1.285-.367 1.966-.608 15.263 3.681 30.868 4.335 45.569 4.408.76 1.085 1.644 2.076 2.622 2.939.45 1.113.705 2.172.83 3.408l.012.133.012.137.002.024.002.024c.025.304.036.627.047.95l.014.303c.004.085.009.17.012.255.007.585-.003 1.187-.03 1.839-.054 1.317-.168 2.513-.279 3.668-.2 2.09-.407 4.249-.208 6.817-.079 2.186-.08 4.705.718 7.251.094.3.202.558.287.753.349 1.473.835 2.682 1.482 3.689 2.315 3.607 7.519 4.561 9.947 4.561l.226-.003c2.43-.052 7.483-.161 9.813-3.512.246-.354.467-.746.668-1.171.646.249 1.269.398 1.761.513.156.036.381.089.5.122l.225.108.355.095c1.45.385 4.938.541 6.149.541.47 0 .832-.016 1.138-.049 2.042-.222 5.538-1.869 6.79-4.386.766-1.54.971-3.351 1.025-4.294.126-2.185.273-4.203.416-6.155.145-1.979.294-4.025.423-6.267.042-.732.103-1.502.164-2.289.19-2.439.405-5.205.17-7.722l-.023-.26c-.465-5.309-.809-7.807-1.808-9.207 10.462-9.105 20.468-19.784 25.123-36.418.376-1.345.691-2.633.996-3.879.791-3.232 1.54-6.297 3.275-9.89.096-.072.181-.137.258-.194 1.488-1.118 1.928-1.868 2.588-3.541a5.92 5.92 0 00.073-.081c.518-.572.991-1.096 1.317-1.729.351-.574.899-1.518 1.021-1.729l1.178-2.031c.433.03.87.056 1.33.056 3.203 0 6.601-.777 9.6-1.463 1.459-.334 2.837-.649 4.079-.854 1.862-.308 3.411-.799 4.733-1.505 4.66-2.486 7.246-8.097 6.433-13.96z"/><path class="st288" d="M233.692 183.848c-2.013 0-3.716-.319-5.206-.977-.538-.237-1.483-.543-2.483-.866-1.91-.617-3.884-1.256-4.965-1.989-4.105-2.79-8.792-8.537-9.633-16.301-.3-2.776.168-7.981 1.023-11.364.838-3.318 3.699-8.086 3.82-8.287l.312-.519.585-.156c2.022-.539 6.856-1.794 8.064-1.794h.097l.181.018c1.835.237 3.161.886 4.33 1.457 1.108.541 1.983.969 3.098.969.147 0 .298-.007.455-.022.325-.031.664-.182 1.058-.354.6-.265 1.347-.594 2.289-.594l.159.003c1.824.073 3.682 1.551 5.174 2.738.213.17.412.328.591.465 2.797 2.143 4.742 4.622 6.8 7.248.541.688 1.087 1.386 1.657 2.084 2.268 2.783 5.365 7.06 6.056 12.05.722 5.203-1.626 10.358-5.709 12.536-1.185.633-2.593 1.077-4.303 1.359-1.283.211-2.681.531-4.161.869-3.068.701-6.243 1.427-9.289 1.427z"/><path class="st172" d="M225.21 143.096c.034 0 .062.001.087.004 3.302.428 4.801 2.438 7.62 2.438.193 0 .393-.009.6-.029 1.199-.116 2.019-.941 3.201-.941.033 0 .066.001.101.002 1.57.062 3.678 1.951 4.912 2.896 3.374 2.584 5.538 5.817 8.206 9.089 2.719 3.335 5.149 7.092 5.733 11.308.585 4.217-1.091 8.96-4.929 11.007-1.185.632-2.509.982-3.841 1.202-3.959.652-8.877 2.277-13.206 2.277-1.647 0-3.21-.235-4.602-.849-1.612-.711-5.76-1.739-7.21-2.725-4.204-2.857-8.238-8.339-8.984-15.221-.275-2.534.156-7.553.985-10.835.793-3.142 3.65-7.881 3.65-7.881s6.534-1.742 7.677-1.742m0-3c-1.019 0-3.862.62-8.451 1.844l-1.171.312-.625 1.037c-.316.524-3.112 5.221-3.99 8.694-.906 3.586-1.381 8.921-1.059 11.894.896 8.271 5.898 14.4 10.281 17.379 1.168.793 2.953 1.402 5.347 2.177.92.298 1.872.604 2.339.812 1.685.742 3.586 1.104 5.812 1.104 3.214 0 6.619-.778 9.622-1.465 1.458-.334 2.834-.648 4.072-.853 1.874-.309 3.433-.805 4.765-1.516 4.7-2.507 7.307-8.159 6.488-14.065-.744-5.363-3.997-9.869-6.38-12.791-.564-.691-1.104-1.382-1.639-2.063-2.026-2.583-4.12-5.255-7.068-7.512-.172-.132-.363-.284-.568-.446-1.576-1.255-3.735-2.974-6.05-3.064a5.3337 5.3337 0 00-.219-.005c-1.258 0-2.242.435-2.894.721-.201.089-.503.222-.599.235-.105.01-.208.015-.308.015-.734 0-1.341-.28-2.439-.816-1.21-.592-2.717-1.328-4.796-1.597-.129-.02-.286-.031-.47-.031z"/><path class="st154" d="M84.588 277.351c-1.108 0-2.229-.066-3.333-.197-1.333-.156-2.868-.446-4.146-1.407-2.196-1.651-2.666-4.45-2.837-6.971-.295-4.357-.259-8.774.104-13.129l.107.004c.054-.283.171-.613.424-.919.544-.659 1.317-.735 1.608-.765 1.984-.194 4.001-.293 5.996-.293.93 0 1.872.021 2.802.064.218-.103.607-.323.881-.478 1.118-.633 1.839-1.021 2.556-1.021.371 0 .719.107 1.007.311.857.603 1.222 1.532 1.44 2.088 1.432 3.647 1.289 8.472 1.163 12.729-.027.911-.053 1.786-.061 2.602-.029 3.147-1.034 5.396-2.906 6.503-1.103.652-2.312.792-3.456.846-.446.021-.898.033-1.349.033z"/><path class="st172" d="M88.752 253.74c.059 0 .107.012.143.037.464.326.7.882.908 1.41 1.621 4.129 1.039 10.332.999 14.768-.018 1.975-.469 4.221-2.169 5.226-.822.486-1.81.594-2.763.64-.426.02-.852.029-1.279.029-1.056 0-2.111-.062-3.16-.186-1.205-.143-2.45-.387-3.419-1.116-1.73-1.302-2.096-3.714-2.243-5.874-.291-4.295-.256-8.612.104-12.902l.026 13.796c.013-4.442.025-8.886.038-13.329.001-.193.007-.404.13-.554.139-.169.38-.203.598-.225 1.944-.19 3.898-.286 5.851-.286.986 0 1.973.023 2.958.072.004.001.008.001.013.001.521 0 2.591-1.507 3.265-1.507m0-3c-1.148 0-2.142.562-3.293 1.214-.142.079-.321.182-.479.268a63.009 63.009 0 00-8.609.253c-1.116.109-1.996.547-2.617 1.299-.5.604-.693 1.256-.769 1.752l-.102-.004a88.5872 88.5872 0 00-.106 13.354c.117 1.73.391 5.782 3.433 8.069 1.56 1.174 3.337 1.518 4.87 1.698 1.161.138 2.342.206 3.512.206.472 0 .95-.011 1.421-.033 1.274-.061 2.762-.233 4.148-1.053 1.638-.969 3.599-3.105 3.642-7.781.007-.805.034-1.669.06-2.568.13-4.401.278-9.39-1.266-13.322-.262-.667-.749-1.906-1.974-2.768-.543-.382-1.19-.584-1.871-.584z"/><path class="st154" d="M188.475 282.561c-1.849 0-5.605-.204-6.807-.477l-.123-.027-.117-.048c-1.106-.455-2.496-1.145-3.444-2.458-1.261-1.747-1.258-3.924-1.256-5.513l.015-16.545c.007-5.685.382-6.353.583-6.711.616-1.095 2.163-1.48 5.302-2.046.613-.11 1.453-.262 1.667-.341l6.702-2.659c.516-.204 1.122-.423 1.805-.423.399 0 .778.076 1.127.226 1.231.525 1.567 2.123 1.891 6.358.021.271.036.481.049.6.358 3.284.138 6.571-.077 9.75l-.96 14.215c-.069 1.022-.155 2.295-.828 3.448-.851 1.457-2.528 2.436-4.487 2.616-.242.023-.602.035-1.042.035z"/><path class="st172" d="M192.802 246.813c.183 0 .362.03.535.104.735.313.953 4.947 1.04 5.742.344 3.147.13 6.326-.083 9.486-.321 4.738-.641 9.477-.961 14.215-.064.961-.141 1.961-.627 2.793-.667 1.144-2.011 1.757-3.33 1.879-.208.02-.521.027-.904.027-1.888 0-5.47-.213-6.475-.439-1.085-.446-2.122-1.011-2.798-1.947-.939-1.303-.975-3.027-.973-4.633l.015-16.547c0-.775.011-5.301.391-5.978.506-.901 5.25-1.344 6.211-1.726 2.235-.887 4.47-1.773 6.705-2.66.4-.156.835-.316 1.254-.316m0-3c-.903 0-1.668.255-2.359.528l-3.065 1.217-3.58 1.421c-.242.065-.927.188-1.434.28-3.296.593-5.366 1.045-6.345 2.787-.344.611-.771 1.371-.776 7.445l-.008 8.272-.007 8.273c-.001 1.692-.004 4.25 1.54 6.391 1.184 1.64 2.902 2.479 4.092 2.967l.232.096.245.056c1.469.332 5.485.514 7.137.514.498 0 .884-.013 1.181-.04 2.44-.226 4.55-1.479 5.644-3.354.851-1.457.954-2.986 1.029-4.104l.96-14.214c.219-3.243.445-6.596.072-10.015-.012-.109-.026-.302-.045-.551-.315-4.12-.619-6.693-2.799-7.625-.537-.227-1.113-.344-1.714-.344z"/><g><path class="st154" d="M168.544 286.752c-2.413 0-6.635-.986-8.378-3.703-.554-.863-.972-1.936-1.274-3.274l-.016-.035c-.1-.225-.196-.451-.27-.686-.724-2.308-.707-4.68-.63-6.729-.2-2.451-.007-4.469.198-6.602.113-1.181.23-2.401.286-3.769.029-.699.039-1.351.031-1.969l-.026-.561c-.013-.364-.025-.717-.052-1.049l-.032-.375c-.154-1.531-.509-2.893-1.138-4.328-1.217-1.012-2.282-2.245-3.129-3.621l-.085-.049c-15.037-.05-31.054-.659-46.632-4.493-.822.31-1.59.557-2.333.75-1.015.267-2.118.489-3.432.689-6.591 5.9-14.656 9.015-23.362 9.015-1.353 0-2.728-.076-4.108-.227-.103 1.732-.234 3.269-.362 4.77-.177 2.059-.359 4.188-.458 6.781-.021.542.038 1.338.102 2.18.19 2.565.407 5.474-.944 7.339-1.81 2.497-5.218 3.929-9.352 3.929-3.787 0-7.369-1.199-9.348-3.13-3.628-3.541-2.897-10.485-2.311-16.064.172-1.635.334-3.179.363-4.413.187-7.832-2.061-15.058-4.44-22.707-1.116-3.586-2.269-7.294-3.163-11.097-2.013-8.56-2.454-17.028-1.376-24.592-.614.982-1.456 1.986-2.292 2.463-.702.4-1.542.611-2.427.611-2.334 0-4.468-1.345-5.188-3.271-3.018-8.062-.629-20.146 5.112-25.856 2.782-2.768 5.887-5.091 8.89-7.337 1.036-.774 2.073-1.551 3.103-2.348.858-.665 1.701-1.328 2.538-1.987 4.39-3.453 8.536-6.715 13.65-9.337 5.215-2.672 10.992-3.284 16.58-3.877 3.823-.405 7.775-.824 11.383-1.915 1.557-.472 3.451-.76 5.283-1.039 1.741-.265 3.541-.539 4.851-.947 2.023-.629 3.425-.97 5.04-.97 1.132 0 2.249.161 3.94.403 1.986.286 4.708.677 9.169 1.063 2.177.188 3.998.577 5.759.953 2.092.446 4.067.868 6.463.899l.199.001c2.04 0 4.084-.398 6.249-.821.967-.188 1.935-.377 2.905-.531 2.169-.344 4.549-.511 7.276-.511 2.256 0 4.512.11 6.693.218 2.173.106 4.225.207 6.27.207 4.381 0 9.475-.41 14.036-3.447 3.015-2.009 5.64-4.523 8.419-7.185 2.104-2.016 4.281-4.1 6.64-5.939 6.374-4.97 14.728-7.707 23.521-7.707 4.417 0 8.687.692 12.69 2.059 3.011 1.026 6.434 2.437 8.982 5.118 3.82 4.019 5.088 7.63 3.766 10.733l-.113.267c-.611 1.442-1.094 2.581-2.512 3.894-1.387 1.284-3.599 1.373-5.377 1.444-.407.017-.79.03-1.116.062-.503.05-1.018.074-1.572.074-1.741 0-3.485-.244-5.171-.48-1.223-.172-2.377-.333-3.478-.398h-.001c-.86 0-3.105.851-4.174 1.479-.518.905-1.939 3.643-2.807 5.365-.179 1.574-.029 3.213.13 4.941.129 1.406.262 2.859.221 4.351.042 2.199-1.53 4.031-2.918 5.649-.79.921-1.977 2.304-1.941 2.944.096.434.202.867.322 1.298.216.322.656.656 1.06.949 1.844 1.336 2.148 3.371 2.392 5.007.15 1.002.292 1.948.735 2.437.642.707 3.335 3.503 3.859 3.939.457.38.73.408 1.096.408.203 0 .404-.014.607-.026.293-.02.59-.037.896-.037.689 0 1.709.076 2.89.686.645.1 1.628.319 2.938.657l2.558.657-1.326 2.282s-.697 1.203-1.046 1.77c-.21.432-.569.827-1.06 1.372-.111.123-.22.24-.306.339-.655 1.699-.892 2.14-2.094 3.043-.168.126-.371.278-.625.481-1.958 3.938-2.756 7.202-3.6 10.651-.307 1.252-.615 2.514-.98 3.819-5.065 18.104-16.746 29.041-28.275 38.691-1.557 1.304-3.247 1.725-4.605 2.063-.341.085-.67.165-.983.262l-.064.04c-.207.129-.414.258-.625.376-.327.181-.656.355-.986.531-1.416.752-2.753 1.463-3.545 2.505-.785 1.036-1.118 2.554-1.367 3.895a62.7669 62.7669 0 00-1.029 9.506l-.004.245c.058 1.494.145 2.92.222 4.185l.082 1.364c.367 6.478-.15 10.485-1.629 12.612-1.576 2.267-5.09 2.644-8.32 2.713l-.188.005z"/><path class="st172" d="M216.938 122.527c4.119 0 8.221.646 12.044 1.951 2.991 1.02 6.001 2.313 8.178 4.604 2.178 2.29 4.614 5.664 3.376 8.571-.648 1.521-.97 2.39-2.144 3.477-1.104 1.021-3.784.832-5.331.985-.453.044-.912.063-1.376.063-2.807 0-5.784-.714-8.532-.875a1.94 1.94 0 00-.134-.004c-1.464 0-4.491 1.241-5.602 2.032-.206.146-2.59 4.793-3.303 6.219-.47 3.281.394 6.58.29 9.881.106 2.974-5.227 5.942-4.839 8.893.002.019.007.037.009.057.123.561.261 1.119.419 1.675.008.018.01.038.019.055.377.751 1.062 1.294 1.742 1.786 2.187 1.585 1.002 5.168 2.818 7.168.58.638 3.398 3.58 4.061 4.132.874.727 1.629.872 2.375.872.495 0 .986-.064 1.503-.064.682 0 1.411.111 2.258.623.55.008 3.071.656 3.071.656s-.822 1.418-1.101 1.854c-.035.235-1.267 1.44-1.352 1.662-.888 2.317-.648 1.637-2.542 3.212-2.953 5.782-3.499 10.161-4.912 15.212-4.715 16.85-15.12 27.223-27.633 37.697-1.663 1.392-3.627 1.508-5.155 2.031-.271.165-.536.342-.812.495-1.843 1.021-3.877 1.896-5.151 3.575-1.026 1.354-1.43 3.068-1.741 4.737-.604 3.236-.958 6.52-1.061 9.81-.003.109-.003.219-.006.328.079 2.095.217 4.058.307 5.643.186 3.262.329 9.05-1.274 11.357-1.121 1.611-4.44 1.805-6.722 1.854-.047.001-.095.002-.143.002-2.033 0-5.476-.885-6.694-2.783-.506-.789-.824-1.773-1.046-2.812-.096-.234-.213-.459-.288-.698-.614-1.959-.616-4.054-.538-6.105.001-.022.003-.044.003-.066-.318-3.651.316-6.319.479-10.249.03-.737.041-1.424.032-2.076-.005-.205-.019-.411-.027-.616-.014-.386-.028-.77-.058-1.132-.008-.123-.022-.246-.032-.369-.199-1.991-.685-3.681-1.507-5.432-1.461-1.125-2.651-2.574-3.504-4.209l-.396.033c-.117-.068-.221-.154-.332-.23-16.045-.038-31.982-.714-47.37-4.589-.886.354-1.787.669-2.707.909-1.257.33-2.535.553-3.821.734-6.305 5.83-14.03 8.904-22.468 8.904-1.964 0-3.967-.167-5.999-.504-.201 5.281-.726 8.471-.927 13.752-.084 2.225.843 6.618-.463 8.421-1.574 2.173-4.642 3.103-7.732 3.103-3.146 0-6.314-.964-7.951-2.562-3.875-3.783-1.473-13.584-1.344-18.998.286-11.996-4.91-22.629-7.656-34.31-2.746-11.681-2.949-25.446 2.292-36.24l-1.144-.492c-3.417 2.057-4.336 6.512-5.552 10.311-.278.867-1.411 2.562-2.202 3.014-.419.238-.919.349-1.437.349-1.372 0-2.866-.773-3.314-1.972-2.64-7.055-.69-18.424 4.649-23.737 3.613-3.595 7.777-6.4 11.806-9.521 5.252-4.069 9.964-8.095 15.876-11.125 8.406-4.308 18.589-2.923 27.629-5.658 2.878-.871 7.277-1.097 10.149-1.99 2.042-.636 3.19-.88 4.445-.88 2.196 0 4.72.748 12.938 1.459 4.637.401 7.714 1.8 12.368 1.861.075 0 .149.001.224.001 3.19 0 6.314-.878 9.469-1.378 2.312-.367 4.639-.486 6.964-.486 4.375 0 8.738.425 12.961.425 5.357 0 10.492-.684 15.145-3.783 5.568-3.708 9.906-9.098 15.181-13.211 6.201-4.837 14.278-7.289 22.295-7.289m0-4c-9.238 0-18.028 2.887-24.752 8.13-2.439 1.901-4.653 4.021-6.793 6.071-2.714 2.6-5.277 5.055-8.146 6.965-3.275 2.182-7.141 3.112-12.928 3.112-1.995 0-4.024-.1-6.171-.205-2.205-.108-4.485-.22-6.79-.22-2.834 0-5.317.176-7.591.536-1.019.161-2.017.356-2.981.544-2.066.403-4.017.784-5.861.784l-.173-.001c-2.196-.029-3.991-.412-6.069-.855-1.736-.371-3.705-.791-6.005-.99-4.404-.381-7.093-.768-9.057-1.051-1.713-.246-2.951-.424-4.226-.424-1.861 0-3.475.389-5.633 1.061-1.167.362-2.89.625-4.557.879-1.902.289-3.869.589-5.563 1.102-3.427 1.037-7.113 1.428-11.015 1.842-5.769.611-11.734 1.243-17.281 4.086-5.286 2.709-9.505 6.028-13.972 9.543-.834.656-1.674 1.317-2.529 1.979-1.021.791-2.05 1.561-3.077 2.329-3.058 2.287-6.22 4.652-9.101 7.52-6.228 6.195-8.833 19.268-5.575 27.975 1.007 2.69 3.91 4.569 7.061 4.569.782 0 1.543-.122 2.251-.356-.363 6.456.26 13.371 1.897 20.332.91 3.871 2.074 7.613 3.2 11.232 2.33 7.488 4.53 14.562 4.351 22.065-.027 1.153-.186 2.659-.353 4.252-.632 6.009-1.418 13.486 2.902 17.704 2.374 2.316 6.391 3.699 10.745 3.699 4.782 0 8.781-1.732 10.971-4.756 1.781-2.457 1.524-5.896 1.319-8.659-.056-.751-.114-1.526-.097-1.956.097-2.546.269-4.558.452-6.687.077-.901.156-1.816.229-2.779.754.044 1.504.065 2.249.065 9.012 0 17.37-3.152 24.251-9.131 1.135-.188 2.125-.395 3.053-.638.627-.165 1.27-.362 1.939-.599 15.239 3.669 30.817 4.327 45.492 4.402.751 1.062 1.619 2.034 2.579 2.885.438 1.09.687 2.129.81 3.341l.012.134.011.13.001.026.002.027c.025.302.036.621.047.943l.014.307c.004.09.009.18.012.269.007.542-.003 1.151-.03 1.811-.054 1.313-.168 2.507-.279 3.661-.201 2.094-.408 4.257-.209 6.833-.08 2.2-.079 4.728.725 7.288.094.302.201.56.287.756.353 1.481.844 2.701 1.497 3.719 2.347 3.656 7.607 4.623 10.061 4.623l.228-.003c2.453-.053 7.553-.163 9.921-3.57 1.772-2.549 2.384-6.825 1.984-13.866-.025-.435-.053-.897-.083-1.384-.076-1.235-.161-2.633-.217-4.075l.001-.062.001-.105c.096-3.07.431-6.166.996-9.193.208-1.117.474-2.365.995-3.052.526-.692 1.674-1.303 2.89-1.949.341-.181.68-.361 1.014-.546.184-.103.365-.211.544-.322.197-.054.419-.109.648-.166 1.475-.368 3.494-.872 5.403-2.471 11.77-9.852 23.697-21.031 28.917-39.686.377-1.348.692-2.637.997-3.883.787-3.217 1.532-6.267 3.251-9.834.085-.064.162-.122.231-.175 1.51-1.135 1.959-1.894 2.624-3.576.019-.021.038-.042.057-.062.527-.583 1.008-1.115 1.341-1.764.353-.578.893-1.507 1.014-1.717l2.648-4.565-5.111-1.315c-1.351-.347-2.232-.54-2.823-.646-1.093-.51-2.247-.759-3.503-.759-.349 0-.688.02-1.024.041-.12.008-.24.017-.359.021-.603-.551-2.858-2.887-3.544-3.635-.111-.257-.217-.967-.288-1.443-.268-1.793-.672-4.502-3.195-6.329-.2-.146-.337-.251-.43-.327-.017-.067-.034-.135-.05-.202.287-.465.931-1.215 1.383-1.742 1.534-1.787 3.437-4.005 3.401-6.94.042-1.593-.096-3.093-.23-4.544-.137-1.489-.267-2.908-.167-4.193.719-1.42 1.742-3.393 2.315-4.446.826-.402 2.116-.884 2.707-.959.989.064 2.067.216 3.205.375 1.755.246 3.57.5 5.449.5.612 0 1.208-.028 1.769-.083.245-.024.612-.039 1.001-.055 1.994-.08 4.725-.19 6.654-1.977 1.732-1.604 2.345-3.049 2.994-4.578l.113-.266c1.143-2.686 1.35-7.102-4.157-12.895-2.847-2.994-6.544-4.528-9.786-5.634-4.212-1.438-8.699-2.167-13.335-2.167z"/></g><g><path class="st175" d="M89.493 256.174c-.439-.307-3.52.6-4.056.573a59.4307 59.4307 0 00-8.667.208c-.214.021-.451.055-.588.22-.121.146-.127.352-.128.54-.013 4.338-.025 8.677-.037 13.015l-.025-13.47a82.77 82.77 0 00-.102 12.597c.144 2.109.503 4.465 2.206 5.735.954.713 2.149-.066 3.334.072 1.448.17 2.982.225 4.439.156.938-.045 1.954-.165 2.763-.64 1.672-.981 2.029-2.145 2.047-4.073.04-4.33.612-10.387-.982-14.418-.204-.515.253-.196-.204-.515zM188.24 283.445c-1.364 0-4.553-.182-5.67-.479l-.183-.049-.17-.081c-.12-.054-.517-.146-.78-.208-1.106-.257-2.62-.61-3.408-1.892-.887-1.441-.742-3.239-.626-4.684.033-.411.067-.811.068-1.171.002-2.546-.038-4.004-.077-5.413-.04-1.438-.081-2.926-.079-5.533 0-.082.687-9.713 1.285-10.963.849-1.772 6.891-5.08 6.948-5.106 1.031-.48 1.755-.689 2.394-.874.571-.165 1.064-.308 1.814-.657.077-.039.221-.127.393-.228 1.209-.713 2.135-1.217 3.049-1.217.37 0 .719.081 1.037.24 1.16.58 1.592 1.4 2.25 8.919l.024.272c.219 2.358.02 4.925-.173 7.406-.062.8-.123 1.58-.166 2.324-.127 2.221-.274 4.227-.421 6.231-.146 1.993-.291 3.985-.418 6.192-.046.8-.216 2.328-.833 3.568-.894 1.797-3.749 3.191-5.321 3.362-.216.027-.54.041-.937.041z"/><path class="st172" d="M193.197 246.891c.055 0 .102.008.139.027.585.293 1.111 6.847 1.18 7.59.274 2.941-.174 6.477-.344 9.43-.255 4.428-.585 7.996-.84 12.424-.052.897-.24 2.016-.627 2.793-.532 1.068-2.696 2.15-3.746 2.265-.166.018-.415.026-.72.026-1.503 0-4.357-.199-5.157-.412-.864-.416-2.812-.469-3.351-1.345-.748-1.217-.263-3.305-.262-4.806.004-5.153-.16-5.791-.156-10.945 0-.725.786-9.469 1.089-10.1.403-.843 5.224-3.803 5.989-4.159 1.78-.829 2.427-.701 4.207-1.53.421-.196 1.994-1.258 2.599-1.258m0-4c-1.417 0-2.627.646-4.062 1.492-.112.066-.211.126-.29.17-.572.262-.947.37-1.458.518-.673.195-1.511.437-2.682.982-.065.029-6.669 3.47-7.908 6.057-.876 1.83-1.481 11.737-1.481 11.825-.002 2.634.04 4.135.08 5.586.041 1.46.079 2.84.076 5.359 0 .251-.03.622-.061 1.014-.132 1.643-.313 3.893.915 5.89 1.226 1.993 3.374 2.494 4.657 2.793.15.035.365.085.483.117l.225.108.367.098c1.462.389 4.969.546 6.185.546.475 0 .84-.016 1.151-.05 2.073-.226 5.623-1.899 6.896-4.46.776-1.561.984-3.393 1.039-4.346.125-2.184.273-4.201.416-6.152.145-1.979.294-4.027.424-6.271.042-.731.102-1.499.163-2.284.19-2.445.405-5.218.17-7.746l-.023-.26c-.647-7.389-1.061-9.389-3.348-10.535-.6-.3-1.25-.451-1.934-.451z"/><g><path class="st175" d="M237.082 129.236c-.371-.622-1.69-1.556-1.298 1.58.58 4.635 2.434 5.678-1.623 7.88-.609.33-10.09-.167-12.284.231-3.824.695-5.038 2.729-6.953 5.795-1.738 2.781-4.394 11.287-3.477 13.906 1.931 5.513-7.195 2.769-5.886 9.008 1.108 5.283 1.744 10.598 1.482 15.56-.199 3.78 7.931 3.814 8.344 7.417.86 7.494-6.312 17.832-6.026 23.177.333 6.222-7.685 11.305-8.807 12.052-10.271 6.842-6.585 8.844-18.773 10.777-1.18.188-4.419 10.693-8.228 12.979-.376.226.735 26.629-.927 28.623-3.477 4.172-5.973 1.747-8.923 1.573-1.561-.091-2.409-29.607-3.129-29.617-1.259-.018-7.415-9.262-8.112-9.271-4.654-.062-9.385-.989-14.022-1.391-12.915-1.118-16.17-4.297-21.786-2.55-2.872.893-14.273.983-17.151 1.854-9.041 2.735-13.829 12.708-23.177 9.618-.885-.293-5.215 2.318-6.953 4.52-.446.565-.787 19.808-1.738 21.207-3.711 5.461-11.536 2.877-13.211-.348-.29-.558-.191-15.092.811-26.189.715-7.926-4.401-13.424-4.52-13.907-1.692-6.923-2.513-20.842-4.172-27.928-2.559-10.937 3.543-24.871 1.507-23.293-4.029 3.121-4.731 7.066-8.344 10.661-5.34 5.313-7.584-2.227-4.945 4.828.618 1.65 3.221 2.495 4.751 1.623.792-.451 1.924-2.146 2.202-3.014 1.216-3.798 2.135-8.254 5.552-10.311l1.144.492c-5.242 10.794-5.039 24.561-2.292 36.24 2.747 11.681 7.942 22.314 7.656 34.31-.129 5.415-2.532 15.215 1.344 18.998 3.245 3.167 12.505 3.845 15.683-.541 1.306-1.803.379-6.196.463-8.421.201-5.281.727-8.47.927-13.752 10.765 1.785 20.695-1.213 28.467-8.4 1.286-.182 2.564-.404 3.821-.733.919-.241 1.82-.556 2.707-.909 15.388 3.874 31.325 4.55 47.37 4.588.111.076.215.163.332.23l.396-.033c.854 1.636 2.043 3.084 3.504 4.209.822 1.751 1.308 3.44 1.507 5.432.01.123.023.246.032.37.03.362.044.745.058 1.132.008.205.021.41.027.615.008.652-.002 1.339-.032 2.076-.162 3.93-.796 6.598-.478 10.249 0 .022-.002.045-.003.067-.078 2.052-.076 4.146.538 6.105.075.238.192.464.288.697.222 1.04.54 2.023 1.046 2.812 1.248 1.944 4.827 2.825 6.837 2.781 2.282-.049 5.601-.242 6.721-1.854 1.604-2.308 1.46-8.096 1.275-11.357-.09-1.584-.228-3.548-.308-5.643.003-.109.003-.219.006-.327a64.64 64.64 0 011.061-9.811c.312-1.669.715-3.384 1.741-4.736 1.274-1.68 3.308-2.555 5.151-3.576.276-.153.541-.33.812-.495 1.527-.522 3.492-.64 5.155-2.031 12.513-10.475 22.917-20.848 27.633-37.697 1.413-5.051 1.959-9.43 4.912-15.211 1.893-1.575 1.654-.895 2.542-3.213.085-.222 1.317-1.427 1.352-1.661.279-.437 1.101-1.854 1.101-1.854s-2.521-.648-3.071-.656c-2.462-1.487-3.961.026-6.176-1.816-.663-.552-3.443-3.108-4.022-3.746-1.816-2-.631-5.583-2.818-7.168-.681-.492-1.365-1.035-1.742-1.785-.009-.018-.01-.038-.019-.056-.159-.555-.297-1.113-.42-1.675-.002-.019-.007-.038-.009-.057-.387-2.95 4.946-5.919 4.839-8.893.104-3.3-.76-6.6-.29-9.881.712-1.426 3.097-6.072 3.302-6.219 1.147-.816 4.332-2.111 5.736-2.028 3.203.188 6.716 1.126 9.908.812 1.547-.153 4.228.036 5.331-.985 1.174-1.087 1.496-1.955 2.144-3.477 1.241-2.904-1.755-5.853-3.373-8.568z"/></g></g><g><path class="st288" d="M192.616 166.276c-.352 0-.672-.033-.981-.103-1.63-.365-2.981-1.792-3.614-3.815-.642-2.053-.577-4.468.188-6.986.717-2.354 1.904-4.36 3.434-5.801.267-.252.688-.586 1.269-.586h.093l.173.025c.479.088.622.284 1.734 1.816.863 1.188 2.044 2.816 2.889 3.645l.367.355c.781.752 1.587 1.529 2.137 2.565.312.588.484 1.171.512 1.734.077 1.497-.84 2.739-1.536 3.543-1.339 1.545-3.518 3.423-6.297 3.595-.123.009-.246.013-.368.013z"/><path class="st172" d="M192.912 149.985c.026 0 .053.002.081.007.223.042 2.599 3.714 4.107 5.193.846.83 1.765 1.627 2.32 2.675.216.408.374.855.398 1.317.054 1.064-.596 2.031-1.293 2.837-1.453 1.677-3.389 3.114-5.604 3.252-.101.007-.203.01-.304.01-.257 0-.514-.022-.764-.078-1.452-.325-2.434-1.719-2.878-3.139-.646-2.066-.439-4.324.191-6.396.611-2.01 1.634-3.926 3.163-5.365.163-.154.364-.313.583-.313m0-2c-1.046 0-1.731.646-1.956.858-1.656 1.559-2.937 3.717-3.704 6.238-.824 2.709-.888 5.329-.186 7.574.741 2.37 2.367 4.05 4.351 4.493.375.085.78.127 1.201.127.143 0 .286-.005.428-.014 2.474-.153 4.891-1.516 6.99-3.938.81-.935 1.875-2.392 1.779-4.249-.036-.709-.247-1.433-.627-2.15-.624-1.178-1.528-2.049-2.326-2.817l-.361-.35c-.786-.771-1.987-2.426-2.782-3.521-1.202-1.655-1.488-2.049-2.362-2.21a2.4642 2.4642 0 00-.445-.041z"/></g><g><path class="st54" d="M216.407 164.85c3.143 5.923 10.179 8.596 16.785 9.748 4.258.742 8.723 1.046 12.832-.295 4.109-1.342 7.802-4.618 8.611-8.863 2.029 3.272 1.704 7.832-.769 10.784-2.592 3.096-6.859 4.147-10.862 4.674-3.281.433-6.254 1.485-9.563 1.45-2.796-.029-5.956-1.144-8.599-2.06-5.413-1.876-6.136-4.299-8.73-8.032-1.958-2.818-3.81-5.802-1.515-6.979"/></g></g></g><g id="Card_x5F_Icons"><g class="st273"><g class="st163"><circle cx="140.633" cy="316.385" r="103.102" fill="#cceffe"/><radialGradient id="SVGID_2_" cx="140.6333" cy="316.3848" r="109.1023" gradientUnits="userSpaceOnUse"><stop offset="0" stop-color="#3ba2c6"/><stop offset=".2374" stop-color="#3799c1"/><stop offset=".6232" stop-color="#2b81b5"/><stop offset="1" stop-color="#1d63a6"/></radialGradient><path d="M140.633 213.283c56.941 0 103.102 46.16 103.102 103.102 0 56.942-46.161 103.103-103.102 103.103-56.942 0-103.102-46.16-103.102-103.103 0-56.942 46.16-103.102 103.102-103.102m0-6c-29.143 0-56.54 11.349-77.147 31.955-20.606 20.607-31.955 48.005-31.955 77.146 0 29.143 11.349 56.541 31.955 77.147 20.607 20.606 48.004 31.955 77.147 31.955 29.142 0 56.54-11.349 77.146-31.955 20.607-20.606 31.956-48.005 31.956-77.147 0-29.142-11.349-56.539-31.956-77.146-20.606-20.606-48.004-31.955-77.146-31.955z" fill="url(#SVGID_2_)"/></g><linearGradient id="SVGID_3_" gradientUnits="userSpaceOnUse" x1="140.6333" y1="316.3848" x2="140.6333" y2="223.2832"><stop offset="0" stop-color="#8adbe0"/><stop offset=".222" stop-color="#82d2dd"/><stop offset=".584" stop-color="#6cbad5"/><stop offset="1" stop-color="#4b96ca"/></linearGradient><path d="M233.735 316.385H47.531c0-51.418 41.683-93.102 93.102-93.102 51.419 0 93.102 41.684 93.102 93.102z" fill="url(#SVGID_3_)"/><linearGradient id="SVGID_4_" gradientUnits="userSpaceOnUse" x1="140.6333" y1="409.4873" x2="140.6333" y2="316.3848"><stop offset="0" stop-color="#b5db4b"/><stop offset=".2088" stop-color="#acd648"/><stop offset=".5493" stop-color="#94c93f"/><stop offset=".9769" stop-color="#6cb332"/><stop offset="1" stop-color="#6ab231"/></linearGradient><path d="M233.735 316.385H47.531c0 51.419 41.683 93.103 93.102 93.103 51.419-.001 93.102-41.684 93.102-93.103z" fill="url(#SVGID_4_)"/><path d="M92.698 374.8l106.35-106.35c1.298-1.298 1.298-3.402 0-4.7l-7.395-7.396c-1.298-1.298-3.402-1.298-4.7 0L80.603 362.705c-1.298 1.298-1.298 3.402 0 4.7l7.395 7.395c1.297 1.298 3.402 1.298 4.7 0z" fill="#b4510e" stroke="#4f1607" stroke-width="3" stroke-miterlimit="10"/><path d="M92.072 373.571l104.244-104.244c2.883-2.419 2.32-4.106 1.436-4.804L89.627 372.648c-2.736.95.637 2.971 2.445.923z" opacity=".42" fill="#6d330c"/><g class="st163"><path d="M199.294 309.597c-1.141 0-2.215-.437-3.032-1.23l-26.482-22.751-21.13-24.862c-.792-.815-1.228-1.889-1.228-3.028 0-1.163.453-2.256 1.274-3.077l10.854-10.854c.822-.822 1.914-1.274 3.077-1.274 1.141 0 2.214.436 3.031 1.229l24.854 21.242 22.755 26.368c.795.816 1.232 1.892 1.232 3.033 0 1.163-.453 2.256-1.275 3.077l-10.854 10.854c-.821.821-1.913 1.273-3.076 1.273z" fill="#ccd7cf"/><path class="st172" d="M162.626 244.02c.729 0 1.459.278 2.016.835l24.808 21.202 22.713 26.319c1.114 1.113 1.114 2.919 0 4.032l-10.854 10.854c-.557.557-1.286.835-2.016.835-.729 0-1.459-.278-2.016-.835l-26.432-22.708-21.089-24.813c-1.113-1.113-1.113-2.918 0-4.032l10.854-10.854c.557-.557 1.286-.835 2.016-.835m0-3c-1.563 0-3.032.609-4.138 1.714l-10.854 10.854c-2.248 2.248-2.28 5.885-.099 8.173l21.024 24.737.152.179.178.154 26.361 22.646c1.094 1.046 2.523 1.62 4.042 1.62 1.563 0 3.032-.608 4.137-1.714l10.854-10.854c1.105-1.105 1.713-2.574 1.713-4.138 0-1.52-.575-2.951-1.624-4.045l-22.653-26.25-.149-.173-.173-.147-24.734-21.139c-1.091-1.044-2.519-1.617-4.037-1.617z"/></g><g class="st163"><path class="st288" d="M201.31 307.262l10.854-10.854c1.114-1.113 1.114-2.919 0-4.032l-22.713-26.319-18.604 18.497 26.432 22.708c1.113 1.113 2.918 1.113 4.031 0z"/></g></g></g></svg>