<?xml version="1.0" encoding="UTF-8"?>
<svg version="1.1" xmlns="http://www.w3.org/2000/svg" width="374" height="432">
<path d="M0 0 C2.45581055 1.16064453 2.45581055 1.16064453 4.88671875 2.6328125 C5.81073486 3.18372559 6.73475098 3.73463867 7.68676758 4.30224609 C8.67700928 4.90375488 9.66725098 5.50526367 10.6875 6.125 C12.85001935 7.41405066 15.01414213 8.70041441 17.1796875 9.984375 C18.30213867 10.65017578 19.42458984 11.31597656 20.58105469 12.00195312 C26.10201052 15.22842432 31.70737836 18.29787845 37.3125 21.375 C47.6630718 27.07676879 57.85095376 33.01231273 67.99291992 39.07617188 C76.67466546 44.25295916 85.45734924 49.22460589 94.29174805 54.13525391 C100.72234079 57.71310063 107.09916986 61.36271437 113.42724609 65.1184082 C119.67054526 68.8205881 125.95833694 72.44323593 132.25 76.0625 C141.4238086 81.34500825 150.57983665 86.65677437 159.71472168 92.00631714 C160.97238274 92.74281918 162.23027081 93.47893374 163.48840332 94.21463013 C165.25604943 95.24856715 167.02270667 96.28417305 168.7890625 97.3203125 C169.79662598 97.91086426 170.80418945 98.50141602 171.84228516 99.10986328 C173.405354 100.04548096 173.405354 100.04548096 175 101 C175.66614946 101.32002947 176.33229893 101.64005895 177.01863474 101.96978629 C182.52805169 104.84413475 182.52805169 104.84413475 183.76443493 107.87220454 C184.08509249 110.20229779 184.14811755 112.42421168 184.13026428 114.77645874 C184.15473883 115.66036179 184.17921337 116.54426484 184.20442957 117.45495284 C184.27616108 120.41765562 184.29065794 123.37781243 184.30493164 126.34130859 C184.34360521 128.46552237 184.38542621 130.58968085 184.43016052 132.71377563 C184.53938426 138.48698258 184.59509307 144.25947195 184.63444066 150.03353834 C184.66012792 153.64445499 184.6949404 157.25517435 184.732481 160.86598587 C184.84726856 172.17420554 184.92914788 183.48196577 184.96450621 194.79071748 C185.00559643 207.82606074 185.1544833 220.85420703 185.39801127 233.88730752 C185.57989326 243.97261934 185.66492753 254.05590854 185.67757505 264.14284003 C185.68723896 270.16282775 185.73698263 276.17591652 185.88777351 282.19416428 C186.77797595 319.80465357 186.77797595 319.80465357 180.60084152 327.41959381 C174.87107324 332.68392751 168.56961712 335.48864584 161.23173332 337.85388565 C155.91693057 339.73874776 151.25409764 342.67057246 146.4375 345.5625 C144.53964467 346.63456663 142.63895948 347.70165288 140.734375 348.76171875 C134.84919106 352.07138047 129.01444513 355.46408206 123.1875 358.875 C114.84853299 363.75585011 106.49635582 368.61238272 98.125 373.4375 C97.04645752 374.05923096 95.96791504 374.68096191 94.85668945 375.3215332 C90.47454164 377.84692169 86.09174963 380.37119109 81.70898438 382.89550781 C78.43068938 384.78398493 75.15271515 386.67301666 71.875 388.5625 C70.79605469 389.18447266 69.71710938 389.80644531 68.60546875 390.44726562 C61.43127979 394.58688488 54.27445889 398.75534872 47.125 402.9375 C38.13229878 408.19549042 29.10731373 413.39486638 20.0625 418.5625 C19.47140442 418.90038544 18.88030884 419.23827087 18.27130127 419.58639526 C15.50393219 421.16768681 12.73412264 422.74404137 9.95751953 424.30908203 C8.08667343 425.37871057 6.2309001 426.47554591 4.39794922 427.60888672 C3.23996826 428.31102295 3.23996826 428.31102295 2.05859375 429.02734375 C1.41075928 429.435896 0.7629248 429.84444824 0.09545898 430.26538086 C-3.71932398 431.60275496 -6.95122284 430.47734433 -10.52270508 428.85180664 C-11.34665771 428.37606201 -12.17061035 427.90031738 -13.01953125 427.41015625 C-13.95015381 426.87849854 -14.88077637 426.34684082 -15.83959961 425.79907227 C-17.3111853 424.93946899 -17.3111853 424.93946899 -18.8125 424.0625 C-19.83931885 423.47202881 -20.8661377 422.88155762 -21.92407227 422.27319336 C-24.9555745 420.52587736 -27.97916341 418.76567847 -31 417 C-31.77375977 416.54882812 -32.54751953 416.09765625 -33.34472656 415.6328125 C-36.74673682 413.64632952 -40.14131858 411.64764294 -43.53125 409.640625 C-60.51734423 399.5879456 -77.62340041 389.73830262 -94.7265625 379.88671875 C-97.9647516 378.0203162 -101.20139438 376.15126237 -104.4375 374.28125 C-115.05977245 368.14433128 -125.69273254 362.02725325 -136.34933472 355.95019531 C-145.85962363 350.52629865 -155.35395978 345.07632156 -164.8125 339.5625 C-165.72338379 339.03197021 -166.63426758 338.50144043 -167.57275391 337.95483398 C-169.33424685 336.92546254 -171.08413688 335.87590025 -172.82007122 334.80398846 C-175.17066963 333.470483 -177.29317714 332.43990549 -179.76984119 331.43404102 C-184.59086261 329.30812339 -189.66995496 327.04469487 -191.88116431 321.98286796 C-193.35652894 315.80777616 -193.09639868 309.4642439 -193.02026367 303.15698242 C-193.04879934 301.02727827 -193.08362758 298.89765055 -193.12425232 296.7681427 C-193.21383264 290.99835289 -193.20809143 285.23236704 -193.1795404 279.46209121 C-193.16406408 274.63847147 -193.19456086 269.81557939 -193.22473413 264.99206334 C-193.29492756 253.60761617 -193.28718953 242.22504493 -193.23022461 230.84057617 C-193.17283531 219.11247691 -193.24314557 207.3900966 -193.37720698 195.66275138 C-193.48814603 185.57883043 -193.52114709 175.49670076 -193.49182492 165.41221315 C-193.47500042 159.39554372 -193.48685981 153.38253815 -193.57308006 147.36638451 C-193.65068994 141.7040587 -193.63043965 136.05016409 -193.53655434 130.38816643 C-193.51818599 128.31785396 -193.53350281 126.24690995 -193.58598328 124.17718124 C-193.88414826 111.43998502 -193.88414826 111.43998502 -191 106 C-186.04971429 100.97859814 -179.75209394 97.99007274 -173.39799654 95.11157191 C-170.12867887 93.59610614 -167.10978213 91.79745972 -164.02734375 89.93359375 C-161.99842085 88.7664455 -159.9684843 87.60105745 -157.9375 86.4375 C-155.70696075 85.15507053 -153.47649241 83.87251772 -151.24609375 82.58984375 C-150.17987793 81.97737793 -149.11366211 81.36491211 -148.01513672 80.73388672 C-143.83806389 78.33181617 -139.66848149 75.91693858 -135.5 73.5 C-124.79620177 67.29824342 -114.07907536 61.11960386 -103.36279297 54.93945312 C-98.9863912 52.41541249 -94.61032882 49.89078394 -90.234375 47.3659668 C-88.07434879 46.11981037 -85.91419206 44.87388016 -83.75390625 43.62817383 C-78.32139138 40.49525491 -72.8910317 37.35870978 -67.46484375 34.21484375 C-55.63034701 27.36347915 -43.76448466 20.57885137 -31.80322266 13.95068359 C-27.10317495 11.33803883 -22.44318778 8.69243267 -17.8671875 5.8671875 C-16.70135132 5.15236206 -16.70135132 5.15236206 -15.51196289 4.4230957 C-14.09817111 3.54851899 -12.69281683 2.66007028 -11.29858398 1.75463867 C-7.00136807 -0.90010077 -4.84146457 -1.19717466 0 0 Z " fill="#7ED856" transform="translate(191,1)"/>
<path d="M0 0 C2.45581055 1.16064453 2.45581055 1.16064453 4.88671875 2.6328125 C5.81073486 3.18372559 6.73475098 3.73463867 7.68676758 4.30224609 C8.67700928 4.90375488 9.66725098 5.50526367 10.6875 6.125 C12.85001935 7.41405066 15.01414213 8.70041441 17.1796875 9.984375 C18.30213867 10.65017578 19.42458984 11.31597656 20.58105469 12.00195312 C26.10201052 15.22842432 31.70737836 18.29787845 37.3125 21.375 C47.6630718 27.07676879 57.85095376 33.01231273 67.99291992 39.07617188 C76.67466546 44.25295916 85.45734924 49.22460589 94.29174805 54.13525391 C100.72234079 57.71310063 107.09916986 61.36271437 113.42724609 65.1184082 C119.67054526 68.8205881 125.95833694 72.44323593 132.25 76.0625 C141.4238086 81.34500825 150.57983665 86.65677437 159.71472168 92.00631714 C160.97238274 92.74281918 162.23027081 93.47893374 163.48840332 94.21463013 C165.25604943 95.24856715 167.02270667 96.28417305 168.7890625 97.3203125 C169.79662598 97.91086426 170.80418945 98.50141602 171.84228516 99.10986328 C173.405354 100.04548096 173.405354 100.04548096 175 101 C175.66614946 101.32002947 176.33229893 101.64005895 177.01863474 101.96978629 C182.52805169 104.84413475 182.52805169 104.84413475 183.76443493 107.87220454 C184.08509249 110.20229779 184.14811755 112.42421168 184.13026428 114.77645874 C184.15473883 115.66036179 184.17921337 116.54426484 184.20442957 117.45495284 C184.27616108 120.41765562 184.29065794 123.37781243 184.30493164 126.34130859 C184.34360521 128.46552237 184.38542621 130.58968085 184.43016052 132.71377563 C184.53938426 138.48698258 184.59509307 144.25947195 184.63444066 150.03353834 C184.66012792 153.64445499 184.6949404 157.25517435 184.732481 160.86598587 C184.84726856 172.17420554 184.92914788 183.48196577 184.96450621 194.79071748 C185.00559643 207.82606074 185.1544833 220.85420703 185.39801127 233.88730752 C185.57989326 243.97261934 185.66492753 254.05590854 185.67757505 264.14284003 C185.68723896 270.16282775 185.73698263 276.17591652 185.88777351 282.19416428 C186.77797595 319.80465357 186.77797595 319.80465357 180.60084152 327.41959381 C174.87107324 332.68392751 168.56961712 335.48864584 161.23173332 337.85388565 C155.91693057 339.73874776 151.25409764 342.67057246 146.4375 345.5625 C144.53964467 346.63456663 142.63895948 347.70165288 140.734375 348.76171875 C134.84919106 352.07138047 129.01444513 355.46408206 123.1875 358.875 C114.84853299 363.75585011 106.49635582 368.61238272 98.125 373.4375 C97.04645752 374.05923096 95.96791504 374.68096191 94.85668945 375.3215332 C90.47454164 377.84692169 86.09174963 380.37119109 81.70898438 382.89550781 C78.43068938 384.78398493 75.15271515 386.67301666 71.875 388.5625 C70.79605469 389.18447266 69.71710938 389.80644531 68.60546875 390.44726562 C61.43127979 394.58688488 54.27445889 398.75534872 47.125 402.9375 C38.13229878 408.19549042 29.10731373 413.39486638 20.0625 418.5625 C19.47140442 418.90038544 18.88030884 419.23827087 18.27130127 419.58639526 C15.50393219 421.16768681 12.73412264 422.74404137 9.95751953 424.30908203 C8.08667343 425.37871057 6.2309001 426.47554591 4.39794922 427.60888672 C3.23996826 428.31102295 3.23996826 428.31102295 2.05859375 429.02734375 C1.41075928 429.435896 0.7629248 429.84444824 0.09545898 430.26538086 C-3.71932398 431.60275496 -6.95122284 430.47734433 -10.52270508 428.85180664 C-11.34665771 428.37606201 -12.17061035 427.90031738 -13.01953125 427.41015625 C-13.95015381 426.87849854 -14.88077637 426.34684082 -15.83959961 425.79907227 C-17.3111853 424.93946899 -17.3111853 424.93946899 -18.8125 424.0625 C-19.83931885 423.47202881 -20.8661377 422.88155762 -21.92407227 422.27319336 C-24.9555745 420.52587736 -27.97916341 418.76567847 -31 417 C-31.77375977 416.54882812 -32.54751953 416.09765625 -33.34472656 415.6328125 C-36.74673682 413.64632952 -40.14131858 411.64764294 -43.53125 409.640625 C-60.51734423 399.5879456 -77.62340041 389.73830262 -94.7265625 379.88671875 C-97.9647516 378.0203162 -101.20139438 376.15126237 -104.4375 374.28125 C-115.05977245 368.14433128 -125.69273254 362.02725325 -136.34933472 355.95019531 C-145.85962363 350.52629865 -155.35395978 345.07632156 -164.8125 339.5625 C-165.72338379 339.03197021 -166.63426758 338.50144043 -167.57275391 337.95483398 C-169.33424685 336.92546254 -171.08413688 335.87590025 -172.82007122 334.80398846 C-175.17066963 333.470483 -177.29317714 332.43990549 -179.76984119 331.43404102 C-184.59086261 329.30812339 -189.66995496 327.04469487 -191.88116431 321.98286796 C-193.35652894 315.80777616 -193.09639868 309.4642439 -193.02026367 303.15698242 C-193.04879934 301.02727827 -193.08362758 298.89765055 -193.12425232 296.7681427 C-193.21383264 290.99835289 -193.20809143 285.23236704 -193.1795404 279.46209121 C-193.16406408 274.63847147 -193.19456086 269.81557939 -193.22473413 264.99206334 C-193.29492756 253.60761617 -193.28718953 242.22504493 -193.23022461 230.84057617 C-193.17283531 219.11247691 -193.24314557 207.3900966 -193.37720698 195.66275138 C-193.48814603 185.57883043 -193.52114709 175.49670076 -193.49182492 165.41221315 C-193.47500042 159.39554372 -193.48685981 153.38253815 -193.57308006 147.36638451 C-193.65068994 141.7040587 -193.63043965 136.05016409 -193.53655434 130.38816643 C-193.51818599 128.31785396 -193.53350281 126.24690995 -193.58598328 124.17718124 C-193.88414826 111.43998502 -193.88414826 111.43998502 -191 106 C-186.04971429 100.97859814 -179.75209394 97.99007274 -173.39799654 95.11157191 C-170.12867887 93.59610614 -167.10978213 91.79745972 -164.02734375 89.93359375 C-161.99842085 88.7664455 -159.9684843 87.60105745 -157.9375 86.4375 C-155.70696075 85.15507053 -153.47649241 83.87251772 -151.24609375 82.58984375 C-150.17987793 81.97737793 -149.11366211 81.36491211 -148.01513672 80.73388672 C-143.83806389 78.33181617 -139.66848149 75.91693858 -135.5 73.5 C-124.79620177 67.29824342 -114.07907536 61.11960386 -103.36279297 54.93945312 C-98.9863912 52.41541249 -94.61032882 49.89078394 -90.234375 47.3659668 C-88.07434879 46.11981037 -85.91419206 44.87388016 -83.75390625 43.62817383 C-78.32139138 40.49525491 -72.8910317 37.35870978 -67.46484375 34.21484375 C-55.63034701 27.36347915 -43.76448466 20.57885137 -31.80322266 13.95068359 C-27.10317495 11.33803883 -22.44318778 8.69243267 -17.8671875 5.8671875 C-16.70135132 5.15236206 -16.70135132 5.15236206 -15.51196289 4.4230957 C-14.09817111 3.54851899 -12.69281683 2.66007028 -11.29858398 1.75463867 C-7.00136807 -0.90010077 -4.84146457 -1.19717466 0 0 Z M-11.3828125 32.9296875 C-12.45853516 33.55488281 -13.53425781 34.18007813 -14.64257812 34.82421875 C-15.80346618 35.50767533 -16.96427162 36.19127227 -18.125 36.875 C-19.3193361 37.57217227 -20.51399985 38.26878351 -21.70898438 38.96484375 C-25.14419309 40.96833572 -28.57269649 42.98301459 -32 45 C-32.81436523 45.47856445 -33.62873047 45.95712891 -34.46777344 46.45019531 C-37.13594406 48.01862203 -39.80337952 49.58825062 -42.46777344 51.16308594 C-48.74190852 54.86629731 -55.05913225 58.49356246 -61.375 62.125 C-70.45725801 67.34968284 -79.4950678 72.64319642 -88.5 78 C-103.34878824 86.83013644 -118.31323308 95.45480861 -133.30567932 104.03822327 C-135.08060112 105.05496781 -136.85475882 106.0730324 -138.62866211 107.09155273 C-140.84665794 108.36463345 -143.06612141 109.63516217 -145.28735352 110.90258789 C-146.29725342 111.48258545 -147.30715332 112.06258301 -148.34765625 112.66015625 C-149.66262085 113.41244507 -149.66262085 113.41244507 -151.00415039 114.17993164 C-151.99278076 114.7805542 -152.98141113 115.38117676 -154 116 C-154.73143408 116.28763057 -155.46286816 116.57526114 -156.2164669 116.87160778 C-159.1478313 118.27210578 -160.89329879 119.50363271 -163 122 C-164.44372491 127.82952542 -164.30421452 133.61900905 -164.27563477 139.59667969 C-164.29930048 141.41387931 -164.32668308 143.23103377 -164.35749817 145.04812622 C-164.42840164 149.97837737 -164.44132477 154.90715707 -164.4394505 159.83785915 C-164.44206334 163.95803276 -164.47023723 168.07788547 -164.49752182 172.19795728 C-164.56040872 181.92253665 -164.57351374 191.64635065 -164.55786133 201.37109375 C-164.54278544 211.39154657 -164.62010539 221.40834971 -164.74171978 231.42799449 C-164.84246661 240.03986469 -164.88114506 248.65055628 -164.87144893 257.2630074 C-164.86655573 262.40307274 -164.88587526 267.54015576 -164.96676826 272.67964935 C-165.0405735 277.51775585 -165.03669997 282.3498072 -164.97436333 287.18801498 C-164.96443504 288.95769656 -164.9815388 290.72777957 -165.02841187 292.49686813 C-165.45511478 301.74282168 -165.45511478 301.74282168 -161.44511485 309.67376423 C-157.62132923 312.74488926 -153.44028553 314.9675951 -149.01177299 317.03858137 C-145.98344579 318.48580738 -143.14625871 320.19955827 -140.26171875 321.9140625 C-138.07183995 323.15374378 -135.88039887 324.39066887 -133.6875 325.625 C-131.24430896 327.00858798 -128.80333197 328.39603846 -126.36328125 329.78515625 C-125.75021118 330.13414474 -125.13714111 330.48313324 -124.50549316 330.84269714 C-118.08392116 334.50759091 -111.72710791 338.27851141 -105.375 342.0625 C-92.32145461 349.83422571 -79.17311998 357.43322061 -66 365 C-53.3414342 372.27694806 -40.69149325 379.56486983 -28.125 387 C-27.21919189 387.53399414 -26.31338379 388.06798828 -25.38012695 388.61816406 C-21.6118034 390.84296823 -17.85425636 393.07701442 -14.14453125 395.3984375 C-13.08621094 396.05070312 -12.02789062 396.70296875 -10.9375 397.375 C-10.08027344 397.91898437 -9.22304687 398.46296875 -8.33984375 399.0234375 C-5.32124402 400.28328714 -4.08560155 400.05012227 -1 399 C1.27468872 397.8743507 3.43640075 396.7113287 5.625 395.4375 C6.3046582 395.04892822 6.98431641 394.66035645 7.68457031 394.26000977 C14.9943045 390.05587926 22.23033517 385.72397701 29.47558594 381.4100647 C38.47259726 376.05391326 47.52435197 370.80299213 56.625 365.625 C64.63342217 361.06811484 72.62533894 356.49111034 80.55322266 351.79541016 C87.00622565 347.97945929 93.50315416 344.24069229 100 340.5 C108.79185963 335.43682805 108.79185963 335.43682805 117.56640625 330.34375 C118.19437355 329.97913351 118.82234085 329.61451702 119.46933746 329.23885155 C120.7742833 328.46651106 122.06907371 327.67640803 123.34697723 326.8601017 C127.50697607 324.24718683 131.56598242 322.37526691 136.18835449 320.70126343 C143.66506691 317.66251345 152.40279328 313.98426173 155.82305908 306.10357761 C159.34946059 294.3978975 158.3196041 281.28544879 158.02882195 269.21666384 C157.9275813 264.07204371 157.95770782 258.92793438 157.96936035 253.78256226 C157.96909332 245.15101944 157.87082693 236.5249803 157.70996094 227.89501953 C157.52515176 217.93245655 157.48162966 207.97707289 157.5164485 198.0130192 C157.54801819 188.39958861 157.49415244 178.78860644 157.3966217 169.17567062 C157.35586562 165.09660183 157.34218107 161.01878838 157.3500824 156.93953323 C157.35449246 152.13491139 157.28306613 147.33706702 157.15394974 142.53423691 C157.11827932 140.77742672 157.10765951 139.01989333 157.12453842 137.26280212 C157.43286461 128.20538825 157.43286461 128.20538825 153.53224564 120.43242979 C149.95044477 117.62227108 146.04418197 115.66832638 141.88683224 113.85470653 C138.99717954 112.54573747 136.34112625 110.92727941 133.62109375 109.296875 C131.5604801 108.11356531 129.49927177 106.93129065 127.4375 105.75 C119.26123474 101.05018259 111.10935857 96.31434951 103 91.5 C93.98002157 86.14729532 84.90724939 80.89060059 75.81689453 75.65844727 C68.48997378 71.44013059 61.17607237 67.2003977 53.875 62.9375 C52.8950708 62.36539795 51.9151416 61.7932959 50.90551758 61.20385742 C46.92308318 58.87790055 42.94141686 56.55063435 38.96044922 54.22216797 C32.96109518 50.71336486 26.95855095 47.21016649 20.95019531 43.71679688 C18.95099628 42.55340995 16.95298429 41.38798119 14.95605469 40.22070312 C12.03687299 38.51572769 9.11286419 36.81934007 6.1875 35.125 C5.30360596 34.60663574 4.41971191 34.08827148 3.5090332 33.55419922 C2.69523193 33.0851416 1.88143066 32.61608398 1.04296875 32.1328125 C0.33164795 31.71918457 -0.37967285 31.30555664 -1.11254883 30.87939453 C-5.28522099 28.93527797 -7.71758719 30.78536857 -11.3828125 32.9296875 Z " fill="#181716" transform="translate(191,1)"/>
<path d="M0 0 C0.66 0 1.32 0 2 0 C2.08126087 2.08268593 2.13930839 4.16628658 2.1875 6.25 C2.23970703 7.99023438 2.23970703 7.99023438 2.29296875 9.765625 C1.97294346 13.29870416 1.22296673 14.36277963 -1 17 C-1 17.99 -1 18.98 -1 20 C-1.66 20 -2.32 20 -3 20 C-3 20.66 -3 21.32 -3 22 C-4.00546875 21.7525 -5.0109375 21.505 -6.046875 21.25 C-11.04656615 20.933814 -13.20182816 22.31874333 -17.25 25 C-19.47318534 26.43522091 -21.6680657 27.73442762 -24 29 C-24.99 28.67 -25.98 28.34 -27 28 C-26.21761963 27.61368408 -25.43523926 27.22736816 -24.62915039 26.8293457 C-21.71208524 25.35941919 -18.82499442 23.84873454 -15.9465332 22.30541992 C-14.70138946 21.64920642 -13.44706241 21.0100998 -12.18383789 20.3894043 C-8.04373035 18.34634056 -4.32344161 16.26934956 -1 13 C0.35010553 8.55777867 0.43364537 4.60104337 0 0 Z " fill="#1E1F0A" transform="translate(346,296)"/>
<path d="M0 0 C0.33 1.32 0.66 2.64 1 4 C0.07767578 4.27263672 0.07767578 4.27263672 -0.86328125 4.55078125 C-2.07564453 4.92783203 -2.07564453 4.92783203 -3.3125 5.3125 C-4.11300781 5.55613281 -4.91351563 5.79976563 -5.73828125 6.05078125 C-8.15143168 7.06355423 -9.37126886 7.97035042 -11 10 C-11.33 10.99 -11.66 11.98 -12 13 C-12.99 13 -13.98 13 -15 13 C-15 12.34 -15 11.68 -15 11 C-17.50965614 11.70339566 -17.50965614 11.70339566 -20 13 C-20.88693303 15.04105639 -20.88693303 15.04105639 -21 17 C-23.31 17 -25.62 17 -28 17 C-24.64633023 14.20217241 -21.29132182 11.8945932 -17.48046875 9.765625 C-16.45888672 9.19199219 -15.43730469 8.61835938 -14.38476562 8.02734375 C-13.32966797 7.44082031 -12.27457031 6.85429687 -11.1875 6.25 C-9.57584961 5.34701172 -9.57584961 5.34701172 -7.93164062 4.42578125 C-5.28999542 2.94645994 -2.6460876 1.47135569 0 0 Z " fill="#13200D" transform="translate(280,347)"/>
<path d="M0 0 C0.99 0.33 1.98 0.66 3 1 C2 3 2 3 -1.375 4.4375 C-4.87299827 5.68057141 -4.87299827 5.68057141 -6.5625 7.5625 C-8 9 -8 9 -10.6875 9.875 C-15.69566642 11.57588671 -20.24877132 14.24877132 -24 18 C-25.5159375 18.2475 -25.5159375 18.2475 -27.0625 18.5 C-28.5165625 18.7475 -28.5165625 18.7475 -30 19 C-30.33 19.66 -30.66 20.32 -31 21 C-31.66 20.34 -32.32 19.68 -33 19 C-31.87464844 18.38253906 -30.74929687 17.76507813 -29.58984375 17.12890625 C-28.03876051 16.27398517 -26.48800312 15.41847274 -24.9375 14.5625 C-24.12853271 14.11672607 -23.31956543 13.67095215 -22.48608398 13.21166992 C-18.46519549 10.98099199 -14.48272297 8.71352038 -10.5703125 6.296875 C-9.55336304 5.66930298 -9.55336304 5.66930298 -8.51586914 5.02905273 C-7.23334646 4.23030126 -5.95624771 3.42276075 -4.68530273 2.60571289 C-3.16842513 1.6609294 -1.58770097 0.82020674 0 0 Z " fill="#81C564" transform="translate(173,38)"/>
<path d="M0 0 C9.05985221 4.89462355 18.03335842 9.9372789 27 15 C27 15.99 27 16.98 27 18 C26.19175781 17.50628906 25.38351562 17.01257813 24.55078125 16.50390625 C23.48214844 15.86324219 22.41351563 15.22257812 21.3125 14.5625 C20.25675781 13.92441406 19.20101563 13.28632812 18.11328125 12.62890625 C15.25782116 11.13489513 13.18476217 10.30538815 10 10 C7.24743756 10.84979475 7.24743756 10.84979475 5 12 C5.875 7.125 5.875 7.125 7 6 C3.535 4.02 3.535 4.02 0 2 C0 1.34 0 0.68 0 0 Z " fill="#82CD5E" transform="translate(318,107)"/>
<path d="M0 0 C-3.2061074 1.94120135 -6.4152736 3.87728944 -9.625 5.8125 C-10.52863281 6.35970703 -11.43226563 6.90691406 -12.36328125 7.47070312 C-16.83576947 10.16398983 -21.28000513 12.76545094 -26 15 C-26 14.01 -26 13.02 -26 12 C-25.195625 11.71125 -24.39125 11.4225 -23.5625 11.125 C-20.8673532 10.26737432 -20.8673532 10.26737432 -20 8 C-18.66666667 7.33333333 -17.33333333 6.66666667 -16 6 C-15.2884375 5.2265625 -15.2884375 5.2265625 -14.5625 4.4375 C-12.50800956 2.54736879 -10.72005723 2.3675753 -8 2 C-8 1.34 -8 0.68 -8 0 C-2.25 -1.125 -2.25 -1.125 0 0 Z " fill="#101E09" transform="translate(169,41)"/>
<path d="M0 0 C15.66135588 7.47293123 15.66135588 7.47293123 21 12 C21.33 12.99 21.66 13.98 22 15 C21.34 15 20.68 15 20 15 C19.67 14.34 19.34 13.68 19 13 C18.01 13 17.02 13 16 13 C14.64567325 11.68799596 13.31266518 10.35368596 12 9 C8.16966806 7.72322269 6.00706879 8.31794574 2 9 C2.66 7.68 3.32 6.36 4 5 C3.34 4.67 2.68 4.34 2 4 C2 3.34 2 2.68 2 2 C1.34 2 0.68 2 0 2 C0 1.34 0 0.68 0 0 Z " fill="#82CE60" transform="translate(225,53)"/>
<path d="M0 0 C4.38332057 0.82187261 8.67940177 1.90154282 13 3 C13 3.66 13 4.32 13 5 C14.65 5.33 16.3 5.66 18 6 C18.33 6.99 18.66 7.98 19 9 C18.34 9.66 17.68 10.32 17 11 C14.16317601 9.36012756 11.33115748 7.71213309 8.5 6.0625 C7.68917969 5.59392578 6.87835938 5.12535156 6.04296875 4.64257812 C5.27597656 4.19462891 4.50898437 3.74667969 3.71875 3.28515625 C3.00654297 2.87144775 2.29433594 2.45773926 1.56054688 2.03149414 C1.04556641 1.69110107 0.53058594 1.35070801 0 1 C0 0.67 0 0.34 0 0 Z " fill="#80CA5E" transform="translate(101,351)"/>
<path d="M0 0 C1.32 0.33 2.64 0.66 4 1 C-7.88 7.93 -7.88 7.93 -20 15 C-20.66 14.01 -21.32 13.02 -22 12 C-21.32453125 11.74605469 -20.6490625 11.49210937 -19.953125 11.23046875 C-19.06109375 10.88628906 -18.1690625 10.54210937 -17.25 10.1875 C-16.36828125 9.85105469 -15.4865625 9.51460938 -14.578125 9.16796875 C-11.9656519 8.10119567 -11.9656519 8.10119567 -9.859375 6.36328125 C-8 5 -8 5 -5 5 C-5 4.34 -5 3.68 -5 3 C-5.66 2.67 -6.32 2.34 -7 2 C-4.3333581 0.66667905 -2.83319697 1.32897967 0 2 C0 1.34 0 0.68 0 0 Z " fill="#84C661" transform="translate(320,321)"/>
<path d="M0 0 C0.33 0 0.66 0 1 0 C1 7.92 1 15.84 1 24 C0.34 24 -0.32 24 -1 24 C-2.43316898 21.13366205 -2.13200361 18.62764499 -2.125 15.4375 C-2.12757812 14.26058594 -2.13015625 13.08367187 -2.1328125 11.87109375 C-2 9 -2 9 -1 8 C-0.76924918 6.65252916 -0.58846937 5.29622435 -0.4375 3.9375 C-0.293125 2.638125 -0.14875 1.33875 0 0 Z " fill="#0A1208" transform="translate(26,216)"/>
<path d="M0 0 C2.00720923 0.28674418 4.0085944 0.61866701 6 1 C6.33 0.67 6.66 0.34 7 0 C8.32 0.66 9.64 1.32 11 2 C9.04480616 3.17192047 7.0857461 4.3373929 5.125 5.5 C4.03445312 6.1496875 2.94390625 6.799375 1.8203125 7.46875 C-1 9 -1 9 -3 9 C-3 8.34 -3 7.68 -3 7 C-2.01 7 -1.02 7 0 7 C0.33 5.68 0.66 4.36 1 3 C0.01 2.67 -0.98 2.34 -2 2 C-1.34 1.34 -0.68 0.68 0 0 Z " fill="#81D05E" transform="translate(227,370)"/>
<path d="M0 0 C0.66 0.33 1.32 0.66 2 1 C2 1.66 2 2.32 2 3 C0.02 3.66 -1.96 4.32 -4 5 C-4 5.66 -4 6.32 -4 7 C-5.78810766 7.69670416 -7.58062052 8.38211189 -9.375 9.0625 C-10.37273437 9.44535156 -11.37046875 9.82820313 -12.3984375 10.22265625 C-15 11 -15 11 -17 10 C-14.91794343 8.70623653 -12.83442696 7.41493446 -10.75 6.125 C-10.16347656 5.76019531 -9.57695312 5.39539063 -8.97265625 5.01953125 C-2.40009492 0.95783605 -2.40009492 0.95783605 0 0 Z " fill="#101E09" transform="translate(299,336)"/>
<path d="M0 0 C0.94875 0.165 1.8975 0.33 2.875 0.5 C7.5763877 1.18541792 12.26003286 1.08583441 17 1 C15.06745228 3.0245738 13.36841312 4.42105792 11 6 C6.63069725 5.71504547 3.52880573 4.5947101 0 2 C0 1.34 0 0.68 0 0 Z " fill="#81C860" transform="translate(178,395)"/>
<path d="M0 0 C0.66 0.33 1.32 0.66 2 1 C0.71186658 1.83878455 -0.58063256 2.67086783 -1.875 3.5 C-2.59429687 3.9640625 -3.31359375 4.428125 -4.0546875 4.90625 C-6 6 -6 6 -8 6 C-8 6.66 -8 7.32 -8 8 C-10.1875 9.4375 -10.1875 9.4375 -13 11 C-13.928125 11.556875 -14.85625 12.11375 -15.8125 12.6875 C-16.534375 13.120625 -17.25625 13.55375 -18 14 C-18.66 13.34 -19.32 12.68 -20 12 C-15.67460062 9.32020369 -11.3402204 6.65572927 -7 4 C-6.22398437 3.51917969 -5.44796875 3.03835938 -4.6484375 2.54296875 C-3.13536913 1.63190843 -1.57267171 0.80380999 0 0 Z " fill="#0F1F08" transform="translate(206,390)"/>
<path d="M0 0 C3.01078499 1.3282875 4.8130005 3.6255005 7.125 5.9375 C8.45606622 6.27977417 9.78900079 6.61501743 11.125 6.9375 C12.375 9 12.375 9 13.125 10.9375 C8.58652802 9.58822455 4.80567754 7.74590652 0.75 5.3125 C-0.30960938 4.68085937 -1.36921875 4.04921875 -2.4609375 3.3984375 C-3.25757813 2.91632812 -4.05421875 2.43421875 -4.875 1.9375 C-1.875 -0.0625 -1.875 -0.0625 0 0 Z " fill="#11230B" transform="translate(213.875,42.0625)"/>
<path d="M0 0 C1.32 0.66 2.64 1.32 4 2 C-0.95 4.97 -5.9 7.94 -11 11 C-11.66 10.01 -12.32 9.02 -13 8 C-9.77208445 5.8480563 -8.71599191 5.79913557 -5 6 C-5 5.01 -5 4.02 -5 3 C-3.35 2.67 -1.7 2.34 0 2 C0 1.34 0 0.68 0 0 Z " fill="#82C75E" transform="translate(337,310)"/>
<path d="M0 0 C0.66 0 1.32 0 2 0 C2 0.66 2 1.32 2 2 C3.65 2 5.3 2 7 2 C7.33 1.34 7.66 0.68 8 0 C8.99 0.99 9.98 1.98 11 3 C7.91440696 5.26881841 6.57790624 6.05451946 2.6875 5.6875 C1.800625 5.460625 0.91375 5.23375 0 5 C0 3.33333333 0 1.66666667 0 0 Z " fill="#333132" transform="translate(183,426)"/>
<path d="M0 0 C1.94113934 0.92994117 3.8777951 1.8692453 5.8125 2.8125 C6.89144531 3.33457031 7.97039062 3.85664063 9.08203125 4.39453125 C11.56579702 5.76110117 13.1799378 6.87340101 15 9 C14.01 9.495 14.01 9.495 13 10 C12.34 9.67 11.68 9.34 11 9 C11 8.34 11 7.68 11 7 C9.54182203 6.83197949 8.0834516 6.66562857 6.625 6.5 C5.81289062 6.4071875 5.00078125 6.314375 4.1640625 6.21875 C2.03087175 5.96647649 2.03087175 5.96647649 0 6 C0 4.02 0 2.04 0 0 Z " fill="#102008" transform="translate(170,392)"/>
<path d="M0 0 C3.7602985 0.58107632 6.53035032 1.65199496 9.8125 3.5625 C10.60269531 4.01753906 11.39289062 4.47257812 12.20703125 4.94140625 C12.79871094 5.29074219 13.39039063 5.64007813 14 6 C12.66666667 6.33333333 11.33333333 6.66666667 10 7 C8.88625 7.2784375 8.88625 7.2784375 7.75 7.5625 C7.1725 7.706875 6.595 7.85125 6 8 C5.938125 7.38125 5.87625 6.7625 5.8125 6.125 C5.171081 3.72238859 5.171081 3.72238859 2.4375 2.75 C1.633125 2.5025 0.82875 2.255 0 2 C0 1.34 0 0.68 0 0 Z " fill="#12210B" transform="translate(27,310)"/>
<path d="M0 0 C12.66970387 6.15034169 12.66970387 6.15034169 18 10 C17.67 10.66 17.34 11.32 17 12 C16.16855469 11.50628906 15.33710938 11.01257813 14.48046875 10.50390625 C13.39378906 9.86324219 12.30710937 9.22257812 11.1875 8.5625 C10.10855469 7.92441406 9.02960938 7.28632812 7.91796875 6.62890625 C5.06819358 4.919233 5.06819358 4.919233 2 4 C2 3.34 2 2.68 2 2 C1.34 2 0.68 2 0 2 C0 1.34 0 0.68 0 0 Z " fill="#8AC565" transform="translate(328,113)"/>
<path d="M0 0 C2.64 0 5.28 0 8 0 C8.061875 0.78375 8.12375 1.5675 8.1875 2.375 C8.455625 3.24125 8.72375 4.1075 9 5 C11.45704762 6.23290201 11.45704762 6.23290201 14 7 C14.33 7.66 14.66 8.32 15 9 C11.32305352 7.62859834 8.04681411 5.96304199 4.6875 3.9375 C3.80449219 3.41027344 2.92148437 2.88304688 2.01171875 2.33984375 C1.34785156 1.89769531 0.68398438 1.45554687 0 1 C0 0.67 0 0.34 0 0 Z " fill="#11230A" transform="translate(263,74)"/>
<path d="M0 0 C1.1446875 0.3403125 1.1446875 0.3403125 2.3125 0.6875 C-7.11607143 8.6875 -7.11607143 8.6875 -11.6875 8.6875 C-11.6875 7.6975 -11.6875 6.7075 -11.6875 5.6875 C-9.7075 5.3575 -7.7275 5.0275 -5.6875 4.6875 C-5.6875 4.0275 -5.6875 3.3675 -5.6875 2.6875 C-3.83710722 0.05799447 -3.27282212 -0.38056071 0 0 Z " fill="#12220A" transform="translate(134.6875,58.3125)"/>
<path d="M0 0 C4.34885027 0.65891671 8.09420622 1.97199169 12 4 C12.9375 6.1875 12.9375 6.1875 13 8 C8.27626146 6.37621488 4.05818166 3.89006982 0 1 C0 0.67 0 0.34 0 0 Z " fill="#112509" transform="translate(234,57)"/>
<path d="M0 0 C0.99 0 1.98 0 3 0 C3 3.63 3 7.26 3 11 C2.01 10.67 1.02 10.34 0 10 C0 6.7 0 3.4 0 0 Z " fill="#41170E" transform="translate(346,267)"/>
<path d="M0 0 C1.91914553 0.93241504 3.83522386 1.87114475 5.75 2.8125 C6.81734375 3.33457031 7.8846875 3.85664062 8.984375 4.39453125 C11.55233242 5.7616692 13.74470783 7.17715463 16 9 C15.67 9.66 15.34 10.32 15 11 C14.48050781 10.66226563 13.96101563 10.32453125 13.42578125 9.9765625 C9.71151993 7.60108299 6.19599085 5.44237185 2 4 C2 3.34 2 2.68 2 2 C1.34 2 0.68 2 0 2 C0 1.34 0 0.68 0 0 Z " fill="#85C764" transform="translate(297,95)"/>
<path d="M0 0 C-2.36595933 2.61500768 -4.86049226 4.38999603 -8 6 C-8.66 5.67 -9.32 5.34 -10 5 C-9.25 2.5625 -9.25 2.5625 -8 0 C-5.08814875 -1.35886391 -2.99887865 -0.96392528 0 0 Z " fill="#535051" transform="translate(224,411)"/>
<path d="M0 0 C0 0.66 0 1.32 0 2 C-1.43011973 2.86646667 -2.86940619 3.71781829 -4.3125 4.5625 C-5.51326172 5.27599609 -5.51326172 5.27599609 -6.73828125 6.00390625 C-9 7 -9 7 -12 6 C-12.33 5.34 -12.66 4.68 -13 4 C-11.02 4 -9.04 4 -7 4 C-6.67 3.01 -6.34 2.02 -6 1 C-3 0 -3 0 0 0 Z " fill="#83C861" transform="translate(256,360)"/>
<path d="M0 0 C2 2 2 2 2.1953125 4.1640625 C2.16050781 5.38222656 2.16050781 5.38222656 2.125 6.625 C2.10695313 7.44226563 2.08890625 8.25953125 2.0703125 9.1015625 C2.04710937 9.72804687 2.02390625 10.35453125 2 11 C1.01 11 0.02 11 -1 11 C-1.02688151 9.35425434 -1.04634123 7.70838587 -1.0625 6.0625 C-1.07410156 5.14597656 -1.08570313 4.22945312 -1.09765625 3.28515625 C-1 1 -1 1 0 0 Z " fill="#3E160B" transform="translate(347,155)"/>
<path d="M0 0 C-5.28 2.97 -10.56 5.94 -16 9 C-16.33 8.34 -16.66 7.68 -17 7 C-15.68 6.67 -14.36 6.34 -13 6 C-13 5.34 -13 4.68 -13 4 C-11.35 3.67 -9.7 3.34 -8 3 C-8 2.34 -8 1.68 -8 1 C-3.375 -1.125 -3.375 -1.125 0 0 Z " fill="#0F2A07" transform="translate(84,91)"/>
<path d="M0 0 C4.50046315 0.25002573 7.41788227 2.41754304 11 5 C9.68 5.33 8.36 5.66 7 6 C7 5.34 7 4.68 7 4 C5.68 4.33 4.36 4.66 3 5 C3 4.34 3 3.68 3 3 C1.35 2.67 -0.3 2.34 -2 2 C-1.34 1.34 -0.68 0.68 0 0 Z " fill="#81CA61" transform="translate(185,31)"/>
<path d="M0 0 C-0.33 0.99 -0.66 1.98 -1 3 C-3.31 3.33 -5.62 3.66 -8 4 C-8 4.66 -8 5.32 -8 6 C-10.475 5.01 -10.475 5.01 -13 4 C-12.443125 3.896875 -11.88625 3.79375 -11.3125 3.6875 C-8.86999067 3.07308555 -8.86999067 3.07308555 -6.5 1.4375 C-4 0 -4 0 0 0 Z " fill="#12170A" transform="translate(295,82)"/>
<path d="M0 0 C4.51013391 0.53060399 7.38378219 2.30886117 11 5 C11 5.33 11 5.66 11 6 C8.69 5.67 6.38 5.34 4 5 C3.67 4.01 3.34 3.02 3 2 C2.01 1.67 1.02 1.34 0 1 C0 0.67 0 0.34 0 0 Z " fill="#112107" transform="translate(153,383)"/>
<path d="M0 0 C4.40848053 0.48983117 6.01100783 1.82419582 9 5 C10.63978318 6.04349839 12.30094366 7.05607981 14 8 C13.01 8.495 13.01 8.495 12 9 C9.1796875 7.63671875 9.1796875 7.63671875 5.875 5.6875 C4.77929688 5.05199219 3.68359375 4.41648437 2.5546875 3.76171875 C1.71164063 3.18035156 0.86859375 2.59898437 0 2 C0 1.34 0 0.68 0 0 Z " fill="#84C863" transform="translate(29,308)"/>
<path d="M0 0 C0.33 0.99 0.66 1.98 1 3 C-1.55068845 5.35448165 -2.71017358 5.98327924 -6.25 6.1875 C-7.1575 6.125625 -8.065 6.06375 -9 6 C-6.11964908 3.75972706 -3.15133488 1.83827868 0 0 Z " fill="#12250A" transform="translate(247,366)"/>
<path d="M0 0 C0.99 0 1.98 0 3 0 C3 2.64 3 5.28 3 8 C2.01 8 1.02 8 0 8 C0 5.36 0 2.72 0 0 Z " fill="#4A160C" transform="translate(346,208)"/>
<path d="M0 0 C0.99 0.33 1.98 0.66 3 1 C1.21475351 2.19713017 -0.5784028 3.38247279 -2.375 4.5625 C-3.87160156 5.55443359 -3.87160156 5.55443359 -5.3984375 6.56640625 C-6.25695312 7.03949219 -7.11546875 7.51257813 -8 8 C-8.66 7.67 -9.32 7.34 -10 7 C-10 6.34 -10 5.68 -10 5 C-9.16855469 4.70996094 -9.16855469 4.70996094 -8.3203125 4.4140625 C-7.59585938 4.15367187 -6.87140625 3.89328125 -6.125 3.625 C-5.04605469 3.24214844 -5.04605469 3.24214844 -3.9453125 2.8515625 C-1.81842006 2.06122217 -1.81842006 2.06122217 0 0 Z " fill="#85C465" transform="translate(214,383)"/>
<path d="M0 0 C1.65 0 3.3 0 5 0 C4.67 0.99 4.34 1.98 4 3 C4.66 3 5.32 3 6 3 C6 2.34 6 1.68 6 1 C6.66 1 7.32 1 8 1 C7.67 1.99 7.34 2.98 7 4 C4.4375 5.1875 4.4375 5.1875 2 6 C1.34 4.02 0.68 2.04 0 0 Z " fill="#444243" transform="translate(266,380)"/>
<path d="M0 0 C1.31602523 0.61754259 2.62773556 1.24428742 3.9375 1.875 C4.66839844 2.22304688 5.39929688 2.57109375 6.15234375 2.9296875 C8 4 8 4 9 6 C8.01 6 7.02 6 6 6 C5.67 6.66 5.34 7.32 5 8 C4.731875 7.195625 4.46375 6.39125 4.1875 5.5625 C3.795625 4.716875 3.40375 3.87125 3 3 C2.01 2.67 1.02 2.34 0 2 C0 1.34 0 0.68 0 0 Z " fill="#111D0B" transform="translate(134,371)"/>
<path d="M0 0 C1.32 0.33 2.64 0.66 4 1 C-0.95 3.475 -0.95 3.475 -6 6 C-6.33 4.68 -6.66 3.36 -7 2 C-3.98968256 1.06576355 -3.13349732 0.95550089 0 2 C0 1.34 0 0.68 0 0 Z " fill="#11220A" transform="translate(54,105)"/>
<path d="M0 0 C1.65 0 3.3 0 5 0 C2.81482901 2.40575607 0.74080329 3.79535581 -2.1875 5.1875 C-2.90292969 5.53167969 -3.61835938 5.87585937 -4.35546875 6.23046875 C-4.89816406 6.48441406 -5.44085938 6.73835938 -6 7 C-6 6.01 -6 5.02 -6 4 C-4.7934375 3.566875 -4.7934375 3.566875 -3.5625 3.125 C-0.8673532 2.26737432 -0.8673532 2.26737432 0 0 Z " fill="#14280C" transform="translate(149,49)"/>
<path d="M0 0 C1.32 0 2.64 0 4 0 C4.33 1.32 4.66 2.64 5 4 C2.36 4.66 -0.28 5.32 -3 6 C-3 5.34 -3 4.68 -3 4 C-2.34 4 -1.68 4 -1 4 C-0.67 2.68 -0.34 1.36 0 0 Z " fill="#0E1C08" transform="translate(185,27)"/>
<path d="M0 0 C4.87362847 0.45336079 7.39042389 1.7089159 11 5 C7.37 4.34 3.74 3.68 0 3 C0 2.01 0 1.02 0 0 Z " fill="#11240B" transform="translate(73,337)"/>
<path d="M0 0 C0.99 0.33 1.98 0.66 3 1 C0.31158141 3.25245881 -1.64641875 4.88213958 -5 6 C-5.33 4.68 -5.66 3.36 -6 2 C-3 2 -3 2 -1 3 C-0.67 2.01 -0.34 1.02 0 0 Z " fill="#545354" transform="translate(235,402)"/>
<path d="M0 0 C1.31602523 0.61754259 2.62773556 1.24428742 3.9375 1.875 C4.66839844 2.22304687 5.39929688 2.57109375 6.15234375 2.9296875 C8 4 8 4 9 6 C6.36 5.67 3.72 5.34 1 5 C1 4.34 1 3.68 1 3 C0.34 2.67 -0.32 2.34 -1 2 C-0.67 1.34 -0.34 0.68 0 0 Z " fill="#85CE5F" transform="translate(273,81)"/>
<path d="M0 0 C2.475 0.99 2.475 0.99 5 2 C4.34 2.66 3.68 3.32 3 4 C3 3.34 3 2.68 3 2 C2.34 2 1.68 2 1 2 C1.33 2.99 1.66 3.98 2 5 C0.68 5.33 -0.64 5.66 -2 6 C-2.33 5.01 -2.66 4.02 -3 3 C-2.34 3 -1.68 3 -1 3 C-0.67 2.01 -0.34 1.02 0 0 Z " fill="#3E3D3D" transform="translate(269,47)"/>
<path d="M0 0 C0.99 0.33 1.98 0.66 3 1 C1.68 1.99 0.36 2.98 -1 4 C-0.34 4.66 0.32 5.32 1 6 C-0.98 6.99 -0.98 6.99 -3 8 C-3.75 6.25 -3.75 6.25 -4 4 C-2.0625 1.75 -2.0625 1.75 0 0 Z " fill="#10160A" transform="translate(142,50)"/>
<path d="M0 0 C0.99 0.33 1.98 0.66 3 1 C3 1.66 3 2.32 3 3 C2.01 3.33 1.02 3.66 0 4 C-0.33 4.66 -0.66 5.32 -1 6 C-1.99 6 -2.98 6 -4 6 C-2.25 1.125 -2.25 1.125 0 0 Z " fill="#111111" transform="translate(147,23)"/>
<path d="M0 0 C0.66 0.33 1.32 0.66 2 1 C2 1.66 2 2.32 2 3 C0.02 3.99 0.02 3.99 -2 5 C-2.99 4.34 -3.98 3.68 -5 3 C-2.625 1.4375 -2.625 1.4375 0 0 Z M-4 5 C-3.34 5 -2.68 5 -2 5 C-2 5.66 -2 6.32 -2 7 C-2.66 7 -3.32 7 -4 7 C-4 6.34 -4 5.68 -4 5 Z " fill="#5C5A5B" transform="translate(77,62)"/>
<path d="M0 0 C-1 2 -1 2 -3.3125 3.1875 C-6.11989571 4.03624754 -7.301935 3.99928333 -10 3 C-3.375 -1.125 -3.375 -1.125 0 0 Z " fill="#10240A" transform="translate(219,385)"/>
<path d="M0 0 C2.64 0 5.28 0 8 0 C3.375 4 3.375 4 0 4 C0 2.68 0 1.36 0 0 Z " fill="#13240A" transform="translate(172,34)"/>
<path d="M0 0 C2.9719385 1.12451727 5.33440687 2.22293791 8 4 C8 4.66 8 5.32 8 6 C7.34 6 6.68 6 6 6 C6 5.34 6 4.68 6 4 C4.68 4 3.36 4 2 4 C2 3.34 2 2.68 2 2 C1.34 2 0.68 2 0 2 C0 1.34 0 0.68 0 0 Z " fill="#0E2008" transform="translate(123,365)"/>
<path d="M0 0 C0.66 0.33 1.32 0.66 2 1 C2 2.65 2 4.3 2 6 C-0.475 5.01 -0.475 5.01 -3 4 C-2.67 3.01 -2.34 2.02 -2 1 C-1.34 0.67 -0.68 0.34 0 0 Z " fill="#82D462" transform="translate(127,361)"/>
<path d="M0 0 C0 0.99 0 1.98 0 3 C-0.639375 3.103125 -1.27875 3.20625 -1.9375 3.3125 C-2.618125 3.539375 -3.29875 3.76625 -4 4 C-4.33 4.99 -4.66 5.98 -5 7 C-5.66 6.67 -6.32 6.34 -7 6 C-7 5.34 -7 4.68 -7 4 C-4.69 2.68 -2.38 1.36 0 0 Z " fill="#80C661" transform="translate(53,108)"/>
<path d="M0 0 C2.91517292 1.07401108 4.77810176 1.77810176 7 4 C6.34 4 5.68 4 5 4 C4.67 4.66 4.34 5.32 4 6 C2.33333333 4.33333333 0.66666667 2.66666667 -1 1 C-0.67 0.67 -0.34 0.34 0 0 Z " fill="#5E5D5D" transform="translate(285,56)"/>
<path d="M0 0 C0.66 0.33 1.32 0.66 2 1 C1.34 2.32 0.68 3.64 0 5 C-1.65 4.67 -3.3 4.34 -5 4 C-3.36587557 2.29159719 -2.13093906 1.06546953 0 0 Z " fill="#5F5D5E" transform="translate(91,54)"/>
<path d="M0 0 C4.43090471 1.20842856 6.98112756 2.51668565 10 6 C6.51329166 4.8905928 3.22515763 3.73662334 0 2 C0 1.34 0 0.68 0 0 Z " fill="#89C669" transform="translate(212,46)"/>
<path d="M0 0 C-0.33 0.99 -0.66 1.98 -1 3 C-2.65 3 -4.3 3 -6 3 C-6.33 2.34 -6.66 1.68 -7 1 C-3.375 -1.125 -3.375 -1.125 0 0 Z " fill="#10150F" transform="translate(303,92)"/>
<path d="M0 0 C1.32 0.66 2.64 1.32 4 2 C4 2.99 4 3.98 4 5 C2.35 4.67 0.7 4.34 -1 4 C-0.67 2.68 -0.34 1.36 0 0 Z " fill="#82D561" transform="translate(125,66)"/>
<path d="M0 0 C0.66 0.33 1.32 0.66 2 1 C1.67 2.32 1.34 3.64 1 5 C-1.97 4.505 -1.97 4.505 -5 4 C-3.36587557 2.29159719 -2.13093906 1.06546953 0 0 Z " fill="#676364" transform="translate(84,58)"/>
<path d="M0 0 C2.00720923 0.28674418 4.0085944 0.61866701 6 1 C6 1.66 6 2.32 6 3 C4.1875 3.6875 4.1875 3.6875 2 4 C0.25 2.5625 0.25 2.5625 -1 1 C-0.67 0.67 -0.34 0.34 0 0 Z " fill="#84D65E" transform="translate(182,33)"/>
</svg>
