<?xml version="1.0" encoding="UTF-8"?>
<svg version="1.1" xmlns="http://www.w3.org/2000/svg" width="374" height="432">
<path d="M0 0 C1.93543355 0.99414425 3.84374535 2.04229639 5.7265625 3.1328125 C6.82645508 3.76590332 7.92634766 4.39899414 9.05957031 5.05126953 C10.24808649 5.7424449 11.43656195 6.4336903 12.625 7.125 C13.8704432 7.84415043 15.11621761 8.56272753 16.36230469 9.28076172 C18.95208736 10.77358007 21.54042694 12.26885877 24.12792969 13.765625 C27.819833 15.89889913 31.52121007 18.01519 35.2265625 20.125 C36.10118134 20.62307411 36.10118134 20.62307411 36.99346924 21.13121033 C38.16271304 21.79702915 39.3319635 22.4628363 40.5012207 23.12863159 C50.72525144 28.95378131 60.91089274 34.84260036 71.06787109 40.78393555 C81.59138012 46.9381924 92.15411703 53.02388179 102.71777344 59.10888672 C109.22871257 62.86028024 115.73663194 66.61690994 122.24511719 70.37255859 C127.68585336 73.51182246 133.12731477 76.64981497 138.5703125 79.78515625 C139.66859375 80.41808594 140.766875 81.05101563 141.8984375 81.703125 C143.9215791 82.86900321 145.94497682 84.03443721 147.96875 85.19921875 C149.95882929 86.34631539 151.92060447 87.54358905 153.85488892 88.78245544 C157.0913212 90.6966594 160.25589696 91.70239984 163.86264038 92.7403717 C171.00123736 95.19958939 177.96413291 98.28898329 182 105 C187.03952558 118.83295685 184.85181709 136.01933624 184.43345451 150.44005728 C184.28276907 156.51190508 184.26927644 162.58407225 184.24084473 168.65750122 C184.16643003 180.1415419 183.96976665 191.62005808 183.72845697 203.10167229 C183.45960324 216.17956178 183.32809863 229.25772429 183.20776653 242.33769202 C182.95732218 269.22818381 182.53556644 296.11378164 182 323 C181.21529327 323.44770248 180.43058655 323.89540497 179.62210083 324.35667419 C176.64887394 326.05334828 173.67592725 327.75051143 170.70315552 329.44798279 C169.42807644 330.17593502 168.152893 330.90370449 166.87759399 331.63127136 C158.51888825 336.40017586 150.18170414 341.20334098 141.875 346.0625 C140.8492688 346.66229675 139.8235376 347.26209351 138.76672363 347.88006592 C137.84597046 348.41851135 136.92521729 348.95695679 135.9765625 349.51171875 C120.07640435 358.80296438 104.09459889 367.95253781 88.09783936 377.07608032 C79.01061844 382.260663 69.95930413 387.50416505 60.92822266 392.78588867 C50.46878544 398.90150172 39.97732761 404.96076223 29.47363281 411 C26.39145196 412.77321889 23.31330558 414.55335541 20.2355957 416.33432007 C17.65913642 417.82391073 15.08026582 419.3092904 12.50085449 420.79376221 C11.25972226 421.50914769 10.01955189 422.22620478 8.78039551 422.94500732 C7.05674411 423.94444382 5.32923173 424.93721258 3.6015625 425.9296875 C2.61494629 426.49929199 1.62833008 427.06889648 0.61181641 427.65576172 C-3.64378453 429.84601586 -3.64378453 429.84601586 -6 430 C-8.6628418 428.89526367 -8.6628418 428.89526367 -11.69921875 427.16796875 C-12.8169165 426.53955078 -13.93461426 425.91113281 -15.08618164 425.26367188 C-16.28683007 424.5719772 -17.48726489 423.87991162 -18.6875 423.1875 C-19.92452207 422.48539922 -21.16207468 421.78423241 -22.40014648 421.08398438 C-30.15751267 416.68394154 -37.86635059 412.19971088 -45.53125 407.640625 C-51.17702923 404.28975047 -56.87243528 401.02489024 -62.5625 397.75 C-71.01675025 392.88240137 -79.45521377 387.98945702 -87.875 383.0625 C-96.51273751 378.01148016 -105.18319776 373.01975569 -113.875 368.0625 C-132.4924591 357.4439159 -151.0637767 346.7468737 -169.55957031 335.91748047 C-177.01131131 331.5588899 -184.50321857 327.2838751 -192 323 C-192 251.06 -192 179.12 -192 105 C-179 97.5 -166 90 -153 82.5 C-150.85757813 81.26378906 -148.71515625 80.02757813 -146.5078125 78.75390625 C-142.14934612 76.23930564 -137.78987809 73.72645339 -133.4296875 71.21484375 C-122.97793801 65.19252671 -112.53700452 59.15330663 -102.125 53.0625 C-92.85436069 47.64041301 -83.54063301 42.29675988 -74.20953369 36.97976685 C-66.11292002 32.36515883 -58.04219762 27.70900691 -50 23 C-40.94508422 17.69978632 -31.85799873 12.45826904 -22.75 7.25 C-22.13737305 6.89921387 -21.52474609 6.54842773 -20.89355469 6.18701172 C-19.15370827 5.19113529 -17.41281253 4.19709277 -15.671875 3.203125 C-14.6725293 2.63239258 -13.67318359 2.06166016 -12.64355469 1.47363281 C-11.77118164 0.98733398 -10.89880859 0.50103516 -10 0 C-9.02015137 -0.65597168 -9.02015137 -0.65597168 -8.02050781 -1.32519531 C-4.87804231 -2.37470892 -2.98721702 -1.26950857 0 0 Z " fill="#FEDD59" transform="translate(192,2)"/>
<path d="M0 0 C1.93543355 0.99414425 3.84374535 2.04229639 5.7265625 3.1328125 C6.82645508 3.76590332 7.92634766 4.39899414 9.05957031 5.05126953 C10.24808649 5.7424449 11.43656195 6.4336903 12.625 7.125 C13.8704432 7.84415043 15.11621761 8.56272753 16.36230469 9.28076172 C18.95208736 10.77358007 21.54042694 12.26885877 24.12792969 13.765625 C27.819833 15.89889913 31.52121007 18.01519 35.2265625 20.125 C36.10118134 20.62307411 36.10118134 20.62307411 36.99346924 21.13121033 C38.16271304 21.79702915 39.3319635 22.4628363 40.5012207 23.12863159 C50.72525144 28.95378131 60.91089274 34.84260036 71.06787109 40.78393555 C81.59138012 46.9381924 92.15411703 53.02388179 102.71777344 59.10888672 C109.22871257 62.86028024 115.73663194 66.61690994 122.24511719 70.37255859 C127.68585336 73.51182246 133.12731477 76.64981497 138.5703125 79.78515625 C139.66859375 80.41808594 140.766875 81.05101563 141.8984375 81.703125 C143.9215791 82.86900321 145.94497682 84.03443721 147.96875 85.19921875 C149.95882929 86.34631539 151.92060447 87.54358905 153.85488892 88.78245544 C157.0913212 90.6966594 160.25589696 91.70239984 163.86264038 92.7403717 C171.00123736 95.19958939 177.96413291 98.28898329 182 105 C187.03952558 118.83295685 184.85181709 136.01933624 184.43345451 150.44005728 C184.28276907 156.51190508 184.26927644 162.58407225 184.24084473 168.65750122 C184.16643003 180.1415419 183.96976665 191.62005808 183.72845697 203.10167229 C183.45960324 216.17956178 183.32809863 229.25772429 183.20776653 242.33769202 C182.95732218 269.22818381 182.53556644 296.11378164 182 323 C181.21529327 323.44770248 180.43058655 323.89540497 179.62210083 324.35667419 C176.64887394 326.05334828 173.67592725 327.75051143 170.70315552 329.44798279 C169.42807644 330.17593502 168.152893 330.90370449 166.87759399 331.63127136 C158.51888825 336.40017586 150.18170414 341.20334098 141.875 346.0625 C140.8492688 346.66229675 139.8235376 347.26209351 138.76672363 347.88006592 C137.84597046 348.41851135 136.92521729 348.95695679 135.9765625 349.51171875 C120.07640435 358.80296438 104.09459889 367.95253781 88.09783936 377.07608032 C79.01061844 382.260663 69.95930413 387.50416505 60.92822266 392.78588867 C50.46878544 398.90150172 39.97732761 404.96076223 29.47363281 411 C26.39145196 412.77321889 23.31330558 414.55335541 20.2355957 416.33432007 C17.65913642 417.82391073 15.08026582 419.3092904 12.50085449 420.79376221 C11.25972226 421.50914769 10.01955189 422.22620478 8.78039551 422.94500732 C7.05674411 423.94444382 5.32923173 424.93721258 3.6015625 425.9296875 C2.61494629 426.49929199 1.62833008 427.06889648 0.61181641 427.65576172 C-3.64378453 429.84601586 -3.64378453 429.84601586 -6 430 C-8.6628418 428.89526367 -8.6628418 428.89526367 -11.69921875 427.16796875 C-12.8169165 426.53955078 -13.93461426 425.91113281 -15.08618164 425.26367188 C-16.28683007 424.5719772 -17.48726489 423.87991162 -18.6875 423.1875 C-19.92452207 422.48539922 -21.16207468 421.78423241 -22.40014648 421.08398438 C-30.15751267 416.68394154 -37.86635059 412.19971088 -45.53125 407.640625 C-51.17702923 404.28975047 -56.87243528 401.02489024 -62.5625 397.75 C-71.01675025 392.88240137 -79.45521377 387.98945702 -87.875 383.0625 C-96.51273751 378.01148016 -105.18319776 373.01975569 -113.875 368.0625 C-132.4924591 357.4439159 -151.0637767 346.7468737 -169.55957031 335.91748047 C-177.01131131 331.5588899 -184.50321857 327.2838751 -192 323 C-192 251.06 -192 179.12 -192 105 C-179 97.5 -166 90 -153 82.5 C-150.85757813 81.26378906 -148.71515625 80.02757813 -146.5078125 78.75390625 C-142.14934612 76.23930564 -137.78987809 73.72645339 -133.4296875 71.21484375 C-122.97793801 65.19252671 -112.53700452 59.15330663 -102.125 53.0625 C-92.85436069 47.64041301 -83.54063301 42.29675988 -74.20953369 36.97976685 C-66.11292002 32.36515883 -58.04219762 27.70900691 -50 23 C-40.94508422 17.69978632 -31.85799873 12.45826904 -22.75 7.25 C-22.13737305 6.89921387 -21.52474609 6.54842773 -20.89355469 6.18701172 C-19.15370827 5.19113529 -17.41281253 4.19709277 -15.671875 3.203125 C-14.6725293 2.63239258 -13.67318359 2.06166016 -12.64355469 1.47363281 C-11.77118164 0.98733398 -10.89880859 0.50103516 -10 0 C-9.02015137 -0.65597168 -9.02015137 -0.65597168 -8.02050781 -1.32519531 C-4.87804231 -2.37470892 -2.98721702 -1.26950857 0 0 Z M-12.234375 31.7890625 C-13.78922607 32.69603882 -13.78922607 32.69603882 -15.37548828 33.62133789 C-17.04587158 34.61315063 -17.04587158 34.61315063 -18.75 35.625 C-19.91992848 36.31128727 -21.09034616 36.99674123 -22.26123047 37.68139648 C-24.67061888 39.0919011 -27.07716964 40.50706805 -29.48144531 41.92626953 C-33.70567455 44.41865422 -37.94512713 46.88467895 -42.18457031 49.35107422 C-46.13659928 51.65128371 -50.08427669 53.95891211 -54.03222656 56.26611328 C-59.01990957 59.1801084 -64.01008705 62.08982568 -69 65 C-71.0000118 66.16664643 -73.00001181 67.33331309 -75 68.5 C-111.2109375 89.62304688 -111.2109375 89.62304688 -147.421875 110.74609375 C-148.27060558 111.26319633 -149.11933617 111.7802989 -149.99378586 112.31307125 C-153 114 -153 114 -156.12184525 115.22081089 C-159.71953409 116.78481759 -162.20133763 118.23184177 -165 121 C-166.78648324 126.93434131 -166.52088832 132.7205413 -166.36230469 138.86889648 C-166.35891775 140.70241574 -166.36082383 142.53595126 -166.36761475 144.36946106 C-166.37105393 149.33726238 -166.30058455 154.30157708 -166.21672726 159.26856875 C-166.14163693 164.46272448 -166.13465696 169.65696301 -166.12042236 174.85157776 C-166.08314538 184.68358708 -165.98470373 194.51399251 -165.86422849 204.34529597 C-165.73003169 215.53969777 -165.6641044 226.73417678 -165.60388327 237.92918289 C-165.47849974 260.95367734 -165.26747287 283.97674876 -165 307 C-164.27587921 307.41740952 -163.55175842 307.83481903 -162.80569458 308.26487732 C-160.05622123 309.84994815 -157.30689018 311.43526546 -154.55764771 313.02073669 C-152.80782457 314.02975479 -151.05784524 315.03850199 -149.30786133 316.04724121 C-138.8401376 322.0843103 -128.40065323 328.16908742 -117.96777344 334.26611328 C-112.98009048 337.18010837 -107.98994228 340.08987604 -103 343 C-97.0222321 346.48622181 -91.04494011 349.97324222 -85.0703125 353.46484375 C-74.73016444 359.50566709 -64.37650359 365.52181197 -54 371.5 C-45.3213363 376.50035869 -36.65290114 381.51767499 -28 386.5625 C-26.55947266 387.40167969 -26.55947266 387.40167969 -25.08984375 388.2578125 C-23.71505859 389.06025391 -23.71505859 389.06025391 -22.3125 389.87890625 C-21.42949219 390.3908252 -20.54648438 390.90274414 -19.63671875 391.43017578 C-17.82630082 392.50804498 -16.03782828 393.62338128 -14.26953125 394.76904297 C-13.39683594 395.32865723 -12.52414063 395.88827148 -11.625 396.46484375 C-10.85414063 396.97523193 -10.08328125 397.48562012 -9.2890625 398.01147461 C-6.32321834 399.29226631 -5.04797207 399.01049259 -2 398 C-0.04129915 397.03374458 1.87973692 395.98944491 3.76953125 394.89453125 C4.89286865 394.24814697 6.01620605 393.6017627 7.17358398 392.93579102 C8.38666329 392.22821126 9.59963247 391.52044269 10.8125 390.8125 C12.07657621 390.08138233 13.34098524 389.3508398 14.60571289 388.62084961 C17.80892227 386.76952191 21.00710941 384.909717 24.20349121 383.04663086 C26.85513438 381.50180593 29.50983379 379.96225223 32.1640625 378.421875 C38.11720667 374.96125661 44.05970616 371.48261955 50 368 C51.15770819 367.32144047 52.31542324 366.64289265 53.47314453 365.96435547 C58.38768028 363.08378147 63.30186395 360.20260717 68.21582031 357.32104492 C97.05010551 340.41349301 97.05010551 340.41349301 109.390625 333.32421875 C110.4835083 332.69596191 111.5763916 332.06770508 112.70239258 331.42041016 C114.72698882 330.25769207 116.75269161 329.09689627 118.7800293 327.93896484 C120.79274364 326.78334098 122.77968072 325.58198209 124.74246216 324.34344482 C128.06991299 322.36547316 131.43993718 321.08478872 135.07829285 319.77536011 C142.59881328 316.71493007 151.39280155 313.01188417 154.82406592 305.09980369 C158.33753979 293.38594546 157.27244909 280.25543941 156.96295881 268.18373227 C156.85423439 263.03606578 156.87851727 257.88879219 156.88467407 252.74021912 C156.87528618 244.10442494 156.76924573 235.47415281 156.60009766 226.84008789 C156.40553521 216.86994833 156.34446382 206.90605653 156.3587507 196.93417031 C156.37117171 187.31550454 156.30931669 177.69888635 156.20686722 168.08079338 C156.16349153 163.99827378 156.14236399 159.91654462 156.13862228 155.83380318 C156.12943042 151.02722833 156.05394168 146.22601079 155.92773438 141.42112923 C155.89147899 139.66227066 155.8769493 137.9028049 155.88612747 136.14359665 C155.90533773 130.81026667 155.73072195 126.07682804 154 121 C150.05711059 117.13029173 146.06754058 115.21850355 141 113 C138.78232231 111.78877962 136.62247772 110.50207124 134.44921875 109.2109375 C132.19637346 107.93042328 129.94243321 106.65183389 127.6875 105.375 C125.21390363 103.9690968 122.74154681 102.56102435 120.26953125 101.15234375 C119.65392334 100.80166336 119.03831543 100.45098297 118.40405273 100.0896759 C111.55517281 96.18365281 104.74917885 92.20494201 97.94458008 88.22241211 C90.60580334 83.92964452 83.24427988 79.67765691 75.875 75.4375 C66.94627962 70.2968817 58.05259822 65.10179589 49.19140625 59.84570312 C41.44075629 55.25043388 33.65776259 50.71199865 25.86376953 46.19067383 C20.93776639 43.32584596 16.03772126 40.42807747 11.1796875 37.44921875 C10.2633252 36.88920166 9.34696289 36.32918457 8.40283203 35.75219727 C6.67768113 34.69402215 4.95701976 33.62848045 3.24169922 32.55444336 C2.47615723 32.08530518 1.71061523 31.61616699 0.921875 31.1328125 C0.25768555 30.71918457 -0.40650391 30.30555664 -1.09082031 29.87939453 C-5.52972346 27.83477444 -8.38819278 29.52345674 -12.234375 31.7890625 Z " fill="#171414" transform="translate(192,2)"/>
<path d="M0 0 C1.2065625 0.0309375 1.2065625 0.0309375 2.4375 0.0625 C-0.34403444 3.30762351 -2.29634776 3.92942388 -6.5625 6.0625 C-6.8925 67.4425 -7.2225 128.8225 -7.5625 192.0625 C-9.63598719 187.91552563 -9.85449281 185.13332335 -9.84338379 180.66101074 C-9.85229716 179.53918247 -9.85229716 179.53918247 -9.86139059 178.39469099 C-9.87874088 175.88743096 -9.88177892 173.38036218 -9.88476562 170.87304688 C-9.8940234 169.07601006 -9.90407291 167.27897717 -9.91485596 165.48194885 C-9.94108781 160.59984293 -9.95398975 155.71779198 -9.96287727 150.8356266 C-9.96873916 147.78688949 -9.97694867 144.73816741 -9.98588562 141.68943787 C-10.01322641 132.15441536 -10.03256623 122.61942722 -10.0402894 113.08436823 C-10.04925993 102.06957411 -10.08440199 91.05527525 -10.14229059 80.04063177 C-10.18546998 71.53014525 -10.2056949 63.01979838 -10.20837164 54.50920343 C-10.21047094 49.42394633 -10.22235359 44.33915507 -10.25801086 39.25401306 C-10.29088145 34.47350054 -10.29532915 29.69380636 -10.27773285 24.91322136 C-10.27618734 23.15718843 -10.2849406 21.40111229 -10.30464935 19.64518929 C-10.32995587 17.25047213 -10.3184187 14.85868332 -10.29748535 12.46398926 C-10.31359816 11.76632556 -10.32971097 11.06866187 -10.34631205 10.34985685 C-10.3063736 8.40149689 -10.3063736 8.40149689 -9.5625 5.0625 C-6.57906342 2.66240692 -6.57906342 2.66240692 -3.5625 1.0625 C-2.5625 0.0625 -2.5625 0.0625 0 0 Z " fill="#1A0A05" transform="translate(34.5625,116.9375)"/>
<path d="M0 0 C0.66 0 1.32 0 2 0 C2.02505615 0.9472998 2.0501123 1.89459961 2.07592773 2.87060547 C2.17182769 6.43042937 2.27100765 9.99013208 2.37231445 13.54980469 C2.41526857 15.0819957 2.45696577 16.61422254 2.49731445 18.14648438 C2.71413563 28.18335217 2.71413563 28.18335217 3.56640625 38.1796875 C4.28710368 44.53767616 3.80298335 50.87470837 3.5 57.25 C2.97707469 69.89528467 3.14680677 82.37274023 4 95 C3.34 95 2.68 95 2 95 C2.13813025 99.14612814 2.28678859 103.29181162 2.4375 107.4375 C2.47681641 108.62150391 2.51613281 109.80550781 2.55664062 111.02539062 C2.59853516 112.15009766 2.64042969 113.27480469 2.68359375 114.43359375 C2.72025146 115.47572021 2.75690918 116.51784668 2.79467773 117.59155273 C2.73515341 119.9499826 2.73515341 119.9499826 4 121 C4.04092937 123.33297433 4.04241723 125.66705225 4 128 C3.01 128 2.02 128 1 128 C0.67 85.76 0.34 43.52 0 0 Z " fill="#171001" transform="translate(345,122)"/>
<path d="M0 0 C0.99 0 1.98 0 3 0 C3.02687279 1.81242052 3.04633715 3.62495233 3.0625 5.4375 C3.07410156 6.44683594 3.08570313 7.45617187 3.09765625 8.49609375 C3 11 3 11 2 12 C2.01999392 13.77493217 2.10898197 15.54916632 2.2265625 17.3203125 C2.2884375 18.4134375 2.3503125 19.5065625 2.4140625 20.6328125 C2.55330647 22.93807372 2.70156236 25.24281048 2.859375 27.546875 C3.20129276 33.89465249 3.30497923 38.47125285 0 44 C-3.96774194 47 -3.96774194 47 -7 47 C-7 47.66 -7 48.32 -7 49 C-11.625 51.125 -11.625 51.125 -15 50 C-14.00532715 49.67193359 -13.0106543 49.34386719 -11.98583984 49.00585938 C-7.77051762 47.32789911 -3.96425707 45.52506247 -1 42 C1.50921922 35.26354445 0.63407011 27.55557593 0.375 20.5 C0.35297352 18.51308149 0.33728479 16.52608199 0.328125 14.5390625 C0.29201537 9.68869732 0.16949614 4.84746274 0 0 Z " fill="#2D1306" transform="translate(346,267)"/>
<path d="M0 0 C0 0.99 0 1.98 0 3 C-0.55429688 3.24234375 -1.10859375 3.4846875 -1.6796875 3.734375 C-2.40414062 4.06953125 -3.12859375 4.4046875 -3.875 4.75 C-4.59429687 5.07484375 -5.31359375 5.3996875 -6.0546875 5.734375 C-8.3370674 7.21929686 -9.00375898 8.50415408 -10 11 C-11.65 11 -13.3 11 -15 11 C-15 11.66 -15 12.32 -15 13 C-15.59167969 13.25394531 -16.18335937 13.50789063 -16.79296875 13.76953125 C-24.50896725 16.90262903 -24.50896725 16.90262903 -30.8125 22.125 C-34.04422337 24.8950486 -36.80073598 24.72004907 -41 25 C-38.4935945 22.19044738 -35.70065552 20.52888606 -32.44140625 18.671875 C-31.33216797 18.03636719 -30.22292969 17.40085937 -29.08007812 16.74609375 C-27.90764846 16.08055935 -26.73512207 15.41519534 -25.5625 14.75 C-23.29280887 13.45340484 -21.02327687 12.15653106 -18.75390625 10.859375 C-17.64031738 10.22451172 -16.52672852 9.58964844 -15.37939453 8.93554688 C-10.23436482 5.98873315 -5.11559361 2.99761344 0 0 Z " fill="#E7D268" transform="translate(89,87)"/>
<path d="M0 0 C0.99 0 1.98 0 3 0 C3 2.97 3 5.94 3 9 C2.34 9 1.68 9 1 9 C1.13813025 13.14612814 1.28678859 17.29181162 1.4375 21.4375 C1.47681641 22.62150391 1.51613281 23.80550781 1.55664062 25.02539062 C1.59853516 26.15009766 1.64042969 27.27480469 1.68359375 28.43359375 C1.72025146 29.47572021 1.75690918 30.51784668 1.79467773 31.59155273 C1.73515341 33.9499826 1.73515341 33.9499826 3 35 C3.04092937 37.33297433 3.04241723 39.66705225 3 42 C2.01 42 1.02 42 0 42 C0 28.14 0 14.28 0 0 Z " fill="#1E1400" transform="translate(346,208)"/>
<path d="M0 0 C0.66 0 1.32 0 2 0 C2.02505615 0.9472998 2.0501123 1.89459961 2.07592773 2.87060547 C2.17182769 6.43042937 2.27100765 9.99013208 2.37231445 13.54980469 C2.41526857 15.0819957 2.45696577 16.61422254 2.49731445 18.14648438 C2.78622382 29.65498249 2.78622382 29.65498249 3.89257812 41.109375 C4.0434635 43.76495753 3.29694179 45.7112792 2 48 C1.67 48 1.34 48 1 48 C0.67 32.16 0.34 16.32 0 0 Z " fill="#201300" transform="translate(345,122)"/>
<path d="M0 0 C3.72908331 0.50199198 7.36147686 1.04207023 11 2 C8.76046944 3.39521556 6.5111339 4.76562784 4.25 6.125 C3.61578125 6.52332031 2.9815625 6.92164063 2.328125 7.33203125 C0.453125 8.4453125 0.453125 8.4453125 -3 10 C-5.453125 9.2421875 -5.453125 9.2421875 -7 8 C-2.25 4 -2.25 4 0 4 C0 2.68 0 1.36 0 0 Z " fill="#F1D961" transform="translate(224,372)"/>
<path d="M0 0 C0.33 0.66 0.66 1.32 1 2 C0.34 2 -0.32 2 -1 2 C-1.1546875 2.9590625 -1.1546875 2.9590625 -1.3125 3.9375 C-1.539375 4.618125 -1.76625 5.29875 -2 6 C-2.99 6.33 -3.98 6.66 -5 7 C-5 7.66 -5 8.32 -5 9 C-6.98 9.66 -8.96 10.32 -11 11 C-11 10.34 -11 9.68 -11 9 C-12.65 9.33 -14.3 9.66 -16 10 C-12.75359085 7.439119 -9.33059284 5.37523283 -5.75 3.3125 C-4.13351562 2.37857422 -4.13351562 2.37857422 -2.484375 1.42578125 C-1.25460937 0.72001953 -1.25460937 0.72001953 0 0 Z " fill="#1B170B" transform="translate(321,323)"/>
<path d="M0 0 C2.475 0.99 2.475 0.99 5 2 C5 2.66 5 3.32 5 4 C5.66 4 6.32 4 7 4 C7 4.99 7 5.98 7 7 C9.31 7.66 11.62 8.32 14 9 C13.67 9.99 13.34 10.98 13 12 C7.72 9.03 2.44 6.06 -3 3 C-2.01 2.01 -1.02 1.02 0 0 Z " fill="#251D0A" transform="translate(313,100)"/>
<path d="M0 0 C1.32 0 2.64 0 4 0 C4 0.66 4 1.32 4 2 C4.66386719 1.98839844 5.32773438 1.97679687 6.01171875 1.96484375 C14.78207381 1.87521968 14.78207381 1.87521968 19 3 C14.89937974 6.98001378 14.89937974 6.98001378 11.1875 7.0625 C7.03716469 5.6790549 3.49662594 3.6269068 0 1 C0 0.67 0 0.34 0 0 Z " fill="#F1D869" transform="translate(175,394)"/>
<path d="M0 0 C1.32 0.33 2.64 0.66 4 1 C-0.62 3.64 -5.24 6.28 -10 9 C-10.66 8.01 -11.32 7.02 -12 6 C-10.68 6 -9.36 6 -8 6 C-8.33 4.68 -8.66 3.36 -9 2 C-6.23735711 1.40267181 -3.83967231 1 -1 1 C-0.67 0.67 -0.34 0.34 0 0 Z " fill="#21180A" transform="translate(143,53)"/>
<path d="M0 0 C0.66 0.33 1.32 0.66 2 1 C1.34 1.61875 0.68 2.2375 0 2.875 C-2.2284549 4.75637427 -2.2284549 4.75637427 -2 7 C-4.33214148 8.20628008 -6.49642139 9.1654738 -9 10 C-9.99 9.01 -10.98 8.02 -12 7 C-10.04754815 5.80285445 -8.08785003 4.61751926 -6.125 3.4375 C-5.03445312 2.77621094 -3.94390625 2.11492188 -2.8203125 1.43359375 C-1.88960937 0.96050781 -0.95890625 0.48742187 0 0 Z " fill="#2D2C2C" transform="translate(152,19)"/>
<path d="M0 0 C1 4 1 4 2 8 C1.236875 7.67 0.47375 7.34 -0.3125 7 C-3.78480146 5.70798085 -5.48619861 5.82873287 -9 7 C-9.99 6.67 -10.98 6.34 -12 6 C-10.37829621 4.99466333 -8.75252763 3.99588093 -7.125 3 C-5.76761719 2.1646875 -5.76761719 2.1646875 -4.3828125 1.3125 C-2 0 -2 0 0 0 Z " fill="#EDD564" transform="translate(118,71)"/>
<path d="M0 0 C0.99 0 1.98 0 3 0 C3 0.66 3 1.32 3 2 C4.65 2 6.3 2 8 2 C8.33 1.34 8.66 0.68 9 0 C9.99 0.99 10.98 1.98 12 3 C9.375 4.625 9.375 4.625 6 6 C2.625 5.1875 2.625 5.1875 0 4 C0 2.68 0 1.36 0 0 Z " fill="#212020" transform="translate(182,426)"/>
<path d="M0 0 C3.375 0.3125 3.375 0.3125 7 1 C7.66 1.99 8.32 2.98 9 4 C11.62289433 5.21056661 14.25938661 6.0864622 17 7 C17.6875 9.0625 17.6875 9.0625 18 11 C5.44327485 4.95321637 5.44327485 4.95321637 0 1 C0 0.67 0 0.34 0 0 Z " fill="#E3CF68" transform="translate(96,348)"/>
<path d="M0 0 C-1.27004977 3.81014932 -2.51113397 4.17627457 -6 6 C-6.886875 6.350625 -7.77375 6.70125 -8.6875 7.0625 C-11.1427942 7.88303421 -11.1427942 7.88303421 -13 10 C-13.99 9.34 -14.98 8.68 -16 8 C-13.71125827 6.66141476 -11.41930344 5.32898986 -9.125 4 C-8.47402344 3.6184375 -7.82304688 3.236875 -7.15234375 2.84375 C-2.2265625 0 -2.2265625 0 0 0 Z " fill="#383738" transform="translate(73,66)"/>
<path d="M0 0 C3.52448507 0.66701703 6.18300138 2.10357831 9.25 3.9375 C10.14203125 4.46214844 11.0340625 4.98679687 11.953125 5.52734375 C12.62859375 6.01332031 13.3040625 6.49929687 14 7 C14 7.66 14 8.32 14 9 C13.34 9 12.68 9 12 9 C12 8.34 12 7.68 12 7 C10.906875 6.896875 9.81375 6.79375 8.6875 6.6875 C5.14440371 6.02692273 4.06756277 5.7972908 2 3 C1.01 3.495 1.01 3.495 0 4 C0 2.68 0 1.36 0 0 Z " fill="#EFDA68" transform="translate(256,72)"/>
<path d="M0 0 C0.66 0.33 1.32 0.66 2 1 C1.09729807 4.69287153 0.59508949 6.55368289 -2.5 8.875 C-5 10 -5 10 -7 10 C-7 10.66 -7 11.32 -7 12 C-11.625 14.125 -11.625 14.125 -15 13 C-13.50146484 12.22076172 -13.50146484 12.22076172 -11.97265625 11.42578125 C-10.6687851 10.72225365 -9.36542588 10.01777669 -8.0625 9.3125 C-7.0734668 8.80299805 -7.0734668 8.80299805 -6.06445312 8.28320312 C-2.0875827 6.12438373 -2.0875827 6.12438373 -0.05859375 2.23046875 C-0.03925781 1.49441406 -0.01992188 0.75835937 0 0 Z " fill="#261B05" transform="translate(346,304)"/>
<path d="M0 0 C0 0.99 0 1.98 0 3 C-0.66 3 -1.32 3 -2 3 C-1.67 3.99 -1.34 4.98 -1 6 C-2.0725 6.103125 -3.145 6.20625 -4.25 6.3125 C-7.99918971 6.99985145 -9.10133762 7.80101475 -12 10 C-13.32 9.67 -14.64 9.34 -16 9 C-10.72 6.03 -5.44 3.06 0 0 Z " fill="#291F0A" transform="translate(254,362)"/>
<path d="M0 0 C0.66 0 1.32 0 2 0 C2 0.66 2 1.32 2 2 C3.32 1.67 4.64 1.34 6 1 C6.4125 1.639375 6.825 2.27875 7.25 2.9375 C9.17810487 5.20990931 10.11424181 5.60196439 13 6 C12.67 6.99 12.34 7.98 12 9 C7.71 6.69 3.42 4.38 -1 2 C-0.67 1.34 -0.34 0.68 0 0 Z " fill="#2E1B09" transform="translate(332,113)"/>
<path d="M0 0 C0.99 0.33 1.98 0.66 3 1 C3.66 0.67 4.32 0.34 5 0 C5.99 0.66 6.98 1.32 8 2 C2.555 4.475 2.555 4.475 -3 7 C-2 2 -2 2 0 0 Z " fill="#221A0E" transform="translate(180,29)"/>
<path d="M0 0 C1.67542976 0.28604898 3.34385343 0.61781233 5 1 C2.81482901 3.40575607 0.74080329 4.79535581 -2.1875 6.1875 C-2.90292969 6.53167969 -3.61835938 6.87585938 -4.35546875 7.23046875 C-4.89816406 7.48441406 -5.44085938 7.73835938 -6 8 C-6.33 7.01 -6.66 6.02 -7 5 C-4.94766315 2.7522025 -3.99332739 1.9977758 -1 1 C-0.67 0.67 -0.34 0.34 0 0 Z " fill="#ECD365" transform="translate(319,320)"/>
<path d="M0 0 C4.30764815 1.56641751 8.06171464 3.68336156 12 6 C8.86650268 7.04449911 8.01031744 6.93423645 5 6 C5 5.34 5 4.68 5 4 C3.35 4.33 1.7 4.66 0 5 C0 3.35 0 1.7 0 0 Z " fill="#EBD669" transform="translate(314,105)"/>
<path d="M0 0 C1.093125 0.185625 2.18625 0.37125 3.3125 0.5625 C6.93624133 1.2578068 6.93624133 1.2578068 10 0 C10 0.66 10 1.32 10 2 C9.34 2 8.68 2 8 2 C8 2.66 8 3.32 8 4 C8.66 4.33 9.32 4.66 10 5 C8 6 8 6 5 5.3125 C2 4 2 4 0.625 1.875 C0.41875 1.25625 0.2125 0.6375 0 0 Z " fill="#211908" transform="translate(182,399)"/>
<path d="M0 0 C1.65 0.33 3.3 0.66 5 1 C2.59310197 3.72675159 0.07528977 5.11966596 -3.1875 6.6875 C-4.08855469 7.12449219 -4.98960937 7.56148438 -5.91796875 8.01171875 C-6.60503906 8.33785156 -7.29210937 8.66398437 -8 9 C-8 8.34 -8 7.68 -8 7 C-7.34 7 -6.68 7 -6 7 C-6 6.34 -6 5.68 -6 5 C-4.68 5 -3.36 5 -2 5 C-2 4.34 -2 3.68 -2 3 C-1.34 3 -0.68 3 0 3 C0 2.01 0 1.02 0 0 Z " fill="#E9D46A" transform="translate(274,346)"/>
<path d="M0 0 C-5.94 3.465 -5.94 3.465 -12 7 C-12 4 -12 4 -11 2 C-4.74534161 -1.1863354 -4.74534161 -1.1863354 0 0 Z " fill="#291F09" transform="translate(58,106)"/>
<path d="M0 0 C0.33 0.66 0.66 1.32 1 2 C0.34 2 -0.32 2 -1 2 C-1.33 2.99 -1.66 3.98 -2 5 C-2.66 5 -3.32 5 -4 5 C-4.33 5.66 -4.66 6.32 -5 7 C-7.32156597 7.40729228 -9.6568787 7.74438677 -12 8 C-9.69716746 5.45868642 -7.32686207 3.92889705 -4.3125 2.3125 C-3.50425781 1.87550781 -2.69601562 1.43851562 -1.86328125 0.98828125 C-1.24839844 0.66214844 -0.63351562 0.33601563 0 0 Z " fill="#2E220B" transform="translate(302,334)"/>
<path d="M0 0 C0.99 0 1.98 0 3 0 C3 2.97 3 5.94 3 9 C2.01 9 1.02 9 0 9 C0 6.03 0 3.06 0 0 Z " fill="#4F1409" transform="translate(346,208)"/>
<path d="M0 0 C-1.94004288 2.26338336 -3.33113817 3.1457008 -6.125 4.375 C-9.23968725 5.70841873 -9.23968725 5.70841873 -9.875 8.6875 C-9.91625 9.450625 -9.9575 10.21375 -10 11 C-10.33 11 -10.66 11 -11 11 C-11.375 8.3125 -11.375 8.3125 -11 5 C-7.55436943 1.3139766 -5.15520816 -0.75811885 0 0 Z " fill="#2B1504" transform="translate(37,117)"/>
<path d="M0 0 C-0.33 1.65 -0.66 3.3 -1 5 C-3.64 3.68 -6.28 2.36 -9 1 C-9 0.67 -9 0.34 -9 0 C-5.62182575 -0.84454356 -3.32534757 -1.10844919 0 0 Z " fill="#ECD261" transform="translate(48,315)"/>
<path d="M0 0 C0.99 0.33 1.98 0.66 3 1 C3 3.64 3 6.28 3 9 C2.01 9 1.02 9 0 9 C0 6.03 0 3.06 0 0 Z " fill="#511308" transform="translate(346,295)"/>
<path d="M0 0 C-0.99 0.33 -1.98 0.66 -3 1 C-3.33 1.99 -3.66 2.98 -4 4 C-6.91517292 2.92598892 -8.77810176 2.22189824 -11 0 C-7.01803543 -1.05404945 -4.01804691 -0.84098656 0 0 Z " fill="#251D13" transform="translate(261,67)"/>
<path d="M0 0 C-0.3125 1.9375 -0.3125 1.9375 -1 4 C-1.99 4.33 -2.98 4.66 -4 5 C-6.6875 3.0625 -6.6875 3.0625 -9 1 C-2.25 -1.125 -2.25 -1.125 0 0 Z " fill="#231F13" transform="translate(206,35)"/>
<path d="M0 0 C2.3125 1.5625 2.3125 1.5625 4 3 C-0.455 3.495 -0.455 3.495 -5 4 C-4.67 3.34 -4.34 2.68 -4 2 C-4.99 1.34 -5.98 0.68 -7 0 C-4.25700998 -1.37149501 -2.91518346 -0.83290956 0 0 Z " fill="#E5CF68" transform="translate(190,32)"/>
<path d="M0 0 C0.66 0 1.32 0 2 0 C2.92470553 4.71599818 3.22923777 7.67265609 1 12 C0.67 12 0.34 12 0 12 C0 8.04 0 4.08 0 0 Z " fill="#511608" transform="translate(346,158)"/>
<path d="M0 0 C0.33 0.99 0.66 1.98 1 3 C-1.31 4.32 -3.62 5.64 -6 7 C-6.99 6.34 -7.98 5.68 -9 5 C-6.03 3.35 -3.06 1.7 0 0 Z " fill="#E7D066" transform="translate(39,116)"/>
<path d="M0 0 C-1.78174788 2.30142435 -3.16304165 3.80034391 -6.046875 4.48828125 C-8.0246611 4.72323102 -10.01271872 4.86751458 -12 5 C-8.36219404 0.99841344 -5.42711258 -0.30150625 0 0 Z " fill="#EED763" transform="translate(60,107)"/>
<path d="M0 0 C2.125 0.375 2.125 0.375 4 1 C4 1.66 4 2.32 4 3 C4.99 3 5.98 3 7 3 C7.33 4.32 7.66 5.64 8 7 C4.7 5.35 1.4 3.7 -2 2 C-1.34 1.34 -0.68 0.68 0 0 Z " fill="#251D09" transform="translate(206,39)"/>
<path d="M0 0 C-3.63 1.98 -7.26 3.96 -11 6 C-11.33 5.01 -11.66 4.02 -12 3 C-10.68 3 -9.36 3 -8 3 C-8 2.34 -8 1.68 -8 1 C-3.375 -1.125 -3.375 -1.125 0 0 Z " fill="#281C06" transform="translate(116,72)"/>
<path d="M0 0 C2.33944736 0.28730055 4.6739143 0.61936779 7 1 C4.31158141 3.25245881 2.35358125 4.88213958 -1 6 C-1.042721 4.33388095 -1.04063832 2.66617115 -1 1 C-0.67 0.67 -0.34 0.34 0 0 Z " fill="#201B0B" transform="translate(161,40)"/>
<path d="M0 0 C0.99 0.33 1.98 0.66 3 1 C3 3.31 3 5.62 3 8 C2.01 8 1.02 8 0 8 C0 5.36 0 2.72 0 0 Z " fill="#55150B" transform="translate(346,242)"/>
<path d="M0 0 C3.49900021 0.76978005 5.456333 1.456333 8 4 C4.04 3.67 0.08 3.34 -4 3 C-2.68 2.01 -1.36 1.02 0 0 Z " fill="#2B2A2A" transform="translate(186,0)"/>
<path d="M0 0 C2.97 0.495 2.97 0.495 6 1 C3.875 3.0625 3.875 3.0625 1 5 C-2.3125 4.75 -2.3125 4.75 -5 4 C-5 3.67 -5 3.34 -5 3 C-3.35 3 -1.7 3 0 3 C0 2.01 0 1.02 0 0 Z " fill="#E1CD68" transform="translate(188,396)"/>
<path d="M0 0 C1.32 0.33 2.64 0.66 4 1 C-0.95 3.97 -0.95 3.97 -6 7 C-6.33 6.34 -6.66 5.68 -7 5 C-6.401875 4.731875 -5.80375 4.46375 -5.1875 4.1875 C-2.94489213 3.1305255 -2.94489213 3.1305255 -1.5 1.3125 C-0.7575 0.6628125 -0.7575 0.6628125 0 0 Z " fill="#E6D369" transform="translate(244,365)"/>
<path d="M0 0 C0.33 0.66 0.66 1.32 1 2 C0.34 2 -0.32 2 -1 2 C-1.33 3.32 -1.66 4.64 -2 6 C-4.31 6 -6.62 6 -9 6 C-6.11912454 3.59927045 -3.43595166 1.52708963 0 0 Z " fill="#2C1E08" transform="translate(321,323)"/>
<path d="M0 0 C0.33 0.66 0.66 1.32 1 2 C0.2884375 2.928125 0.2884375 2.928125 -0.4375 3.875 C-2.02417441 5.90705546 -2.02417441 5.90705546 -3 8 C-3.99 8 -4.98 8 -6 8 C-6 7.01 -6 6.02 -6 5 C-5.34 5 -4.68 5 -4 5 C-3.71125 4.360625 -3.4225 3.72125 -3.125 3.0625 C-2 1 -2 1 0 0 Z " fill="#21160E" transform="translate(326,320)"/>
<path d="M0 0 C3.96 1.98 7.92 3.96 12 6 C8 7 8 7 5.859375 6.07421875 C5.16328125 5.61660156 4.4671875 5.15898438 3.75 4.6875 C3.04359375 4.23761719 2.3371875 3.78773437 1.609375 3.32421875 C1.07828125 2.88722656 0.5471875 2.45023438 0 2 C0 1.34 0 0.68 0 0 Z " fill="#E5D26B" transform="translate(218,49)"/>
<path d="M0 0 C0.33 0.99 0.66 1.98 1 3 C-1 5 -1 5 -4.125 5.125 C-5.548125 5.063125 -5.548125 5.063125 -7 5 C-4.87219421 2.65941363 -2.88437779 1.29299694 0 0 Z " fill="#281D09" transform="translate(273,351)"/>
<path d="M0 0 C1.98 0 3.96 0 6 0 C3.63202009 2.61724095 1.10399646 4.32861729 -2 6 C-2.66 6 -3.32 6 -4 6 C-3 3 -3 3 0 1 C0 0.67 0 0.34 0 0 Z " fill="#E6D069" transform="translate(330,314)"/>
<path d="M0 0 C3.96 1.98 7.92 3.96 12 6 C7.82412255 7.39195915 5.86525224 5.82323219 2 4 C2 3.34 2 2.68 2 2 C1.34 2 0.68 2 0 2 C0 1.34 0 0.68 0 0 Z " fill="#E8D46F" transform="translate(297,95)"/>
<path d="M0 0 C1.4540625 0.0309375 1.4540625 0.0309375 2.9375 0.0625 C0.24908141 2.31495881 -1.70891875 3.94463958 -5.0625 5.0625 C-3.9375 0.08035714 -3.9375 0.08035714 0 0 Z " fill="#E7D364" transform="translate(261.0625,355.9375)"/>
<path d="M0 0 C3.45925163 1.2491742 6.14693203 2.67527795 9 5 C6.03 4.67 3.06 4.34 0 4 C0 2.68 0 1.36 0 0 Z " fill="#E7D163" transform="translate(326,112)"/>
<path d="M0 0 C0.33 0.99 0.66 1.98 1 3 C-5.625 6.125 -5.625 6.125 -9 5 C-6.03 3.35 -3.06 1.7 0 0 Z " fill="#E7D26A" transform="translate(101,80)"/>
<path d="M0 0 C3.3 1.65 6.6 3.3 10 5 C6.65284689 6.1157177 5.28928478 6.1807689 2 5 C1.34 3.35 0.68 1.7 0 0 Z " fill="#282007" transform="translate(110,357)"/>
<path d="M0 0 C0.33 0.66 0.66 1.32 1 2 C1.99 2 2.98 2 4 2 C3.67 2.99 3.34 3.98 3 5 C0.08482708 3.92598892 -1.77810176 3.22189824 -4 1 C-2.68 0.67 -1.36 0.34 0 0 Z " fill="#2D200E" transform="translate(261,70)"/>
<path d="M0 0 C-1.24546405 3.73639216 -2.63404953 4.18756513 -6 6 C-6 4.68 -6 3.36 -6 2 C-2.25 0 -2.25 0 0 0 Z " fill="#2F2D2E" transform="translate(73,66)"/>
<path d="M0 0 C0.33 0.66 0.66 1.32 1 2 C0.67 2.66 0.34 3.32 0 4 C-0.66 4 -1.32 4 -2 4 C-2.33 4.66 -2.66 5.32 -3 6 C-4.32 5.34 -5.64 4.68 -7 4 C-4.69 2.68 -2.38 1.36 0 0 Z " fill="#E3CD64" transform="translate(137,59)"/>
<path d="M0 0 C0 0.99 0 1.98 0 3 C-2.8125 4.5625 -2.8125 4.5625 -6 6 C-6.99 5.67 -7.98 5.34 -9 5 C-6.03 3.35 -3.06 1.7 0 0 Z " fill="#2B1F06" transform="translate(230,376)"/>
<path d="M0 0 C1.32 0.33 2.64 0.66 4 1 C3.34 1 2.68 1 2 1 C2.33 2.32 2.66 3.64 3 5 C1.35 4.67 -0.3 4.34 -2 4 C-2 3.34 -2 2.68 -2 2 C-1.34 2 -0.68 2 0 2 C0 1.34 0 0.68 0 0 Z " fill="#1E1C1D" transform="translate(268,48)"/>
<path d="M0 0 C1.65 0 3.3 0 5 0 C4.67 0.99 4.34 1.98 4 3 C4.66 3.33 5.32 3.66 6 4 C4.68 4.33 3.36 4.66 2 5 C1.34 3.35 0.68 1.7 0 0 Z " fill="#252324" transform="translate(266,380)"/>
</svg>
