<?xml version="1.0" encoding="UTF-8"?>
<svg version="1.1" xmlns="http://www.w3.org/2000/svg" width="374" height="432">
<path d="M0 0 C1.95884816 1.00587224 3.89054472 2.06580272 5.796875 3.16796875 C7.46194092 4.12521851 7.46194092 4.12521851 9.16064453 5.10180664 C10.35715596 5.79693518 11.55360617 6.49216909 12.75 7.1875 C14.00215828 7.90991479 15.25460451 8.63183069 16.50732422 9.35327148 C19.08379712 10.83827649 21.65842133 12.3264101 24.23144531 13.81738281 C27.72137955 15.83960644 31.21550626 17.85447717 34.7109375 19.8671875 C40.07056381 22.95412768 45.42694502 26.04664306 50.78222656 29.14111328 C56.18670645 32.26324605 61.59347412 35.38141204 67 38.5 C69.1666775 39.74998122 71.33334417 40.99998121 73.5 42.25 C75.10875 43.178125 75.10875 43.178125 76.75 44.125 C88.66666667 51 100.58333333 57.875 112.5 64.75 C113.57266113 65.36883057 114.64532227 65.98766113 115.75048828 66.62524414 C117.91557071 67.87435518 120.08060982 69.12354129 122.24560547 70.37280273 C127.68615706 73.51202309 133.12747216 76.64990563 138.5703125 79.78515625 C139.66859375 80.41808594 140.766875 81.05101563 141.8984375 81.703125 C143.9215791 82.86900321 145.94497682 84.03443721 147.96875 85.19921875 C149.95882929 86.34631539 151.92060447 87.54358905 153.85488892 88.78245544 C157.0913212 90.6966594 160.25589696 91.70239984 163.86264038 92.7403717 C171.00123736 95.19958939 177.96413291 98.28898329 182 105 C187.03952558 118.83295685 184.85181709 136.01933624 184.43345451 150.44005728 C184.28276907 156.51190508 184.26927644 162.58407225 184.24084473 168.65750122 C184.16643003 180.1415419 183.96976665 191.62005808 183.72845697 203.10167229 C183.45960324 216.17956178 183.32809863 229.25772429 183.20776653 242.33769202 C182.95732218 269.22818381 182.53556644 296.11378164 182 323 C181.22053009 323.44508408 180.44106018 323.89016815 179.63796997 324.34873962 C176.67789401 326.03913083 173.71794968 327.72975208 170.75808716 329.42051697 C169.48978658 330.14495056 168.22143725 330.8692988 166.95303345 331.59355164 C155.02060474 338.40705304 143.11507293 345.26643475 131.21777344 352.14111328 C125.81329355 355.26324605 120.40652588 358.38141204 115 361.5 C112.8333225 362.74998122 110.66665583 363.99998121 108.5 365.25 C95.5 372.75 95.5 372.75 92.24951172 374.62524414 C90.08442929 375.87435518 87.91939018 377.12354129 85.75439453 378.37280273 C80.31384294 381.51202309 74.87252784 384.64990563 69.4296875 387.78515625 C59.96073885 393.24118165 50.49533417 398.70226999 41.06201172 404.21972656 C31.60442223 409.75119786 22.13509023 415.26260004 12.63763428 420.72537231 C11.38880882 421.44459677 10.14094781 422.16549869 8.894104 422.88815308 C7.1560653 423.89496204 5.41404795 424.89489319 3.671875 425.89453125 C2.6725293 426.47050049 1.67318359 427.04646973 0.64355469 427.63989258 C-1.67068027 428.83056518 -3.42469463 429.7152047 -6 430 C-8.71934796 428.75312408 -11.18273477 427.44941548 -13.75 425.9375 C-14.53584473 425.48777832 -15.32168945 425.03805664 -16.13134766 424.57470703 C-18.76238516 423.06345542 -21.38171009 421.53322011 -24 420 C-25.84620081 418.92551771 -27.69255831 417.85130459 -29.5390625 416.77734375 C-32.4977065 415.05397626 -35.45487305 413.32820601 -38.40917969 411.59741211 C-46.24181717 407.00995251 -54.11283979 402.49269988 -62 398 C-71.67500363 392.48770144 -81.3128259 386.91575168 -90.921875 381.2890625 C-98.5857377 376.80833854 -106.28678835 372.39493248 -114 368 C-123.66596957 362.49240011 -133.2953205 356.92613821 -142.89550781 351.30444336 C-151.96403392 346.00239051 -161.08244798 340.78967833 -170.2109375 335.59179688 C-171.86222656 334.65110352 -171.86222656 334.65110352 -173.546875 333.69140625 C-174.50432617 333.14685791 -175.46177734 332.60230957 -176.44824219 332.04125977 C-176.96755058 331.7184157 -177.48685898 331.39557163 -178.02190399 331.06294441 C-180.09948218 329.87724831 -180.09948218 329.87724831 -182.92395782 329.0008831 C-186.74126338 327.42297981 -189.13304496 326.0001987 -192 323 C-194.33749434 316.48963964 -193.51158265 308.99186642 -193.36230469 302.19360352 C-193.35891857 300.044817 -193.36082223 297.8960166 -193.36761475 295.74723816 C-193.37105684 289.9201736 -193.30053322 284.09607548 -193.21672726 278.26970029 C-193.14168936 272.17864624 -193.13466095 266.08752343 -193.12042236 259.99607849 C-193.08313056 248.46421693 -192.98466675 236.9337212 -192.86422849 225.40246099 C-192.73007957 212.27335846 -192.66411608 199.14419053 -192.60388327 186.01457322 C-192.47846568 159.00895836 -192.26740822 132.00455572 -192 105 C-172.95703127 94.01367189 -172.95703127 94.01367189 -169.49595451 92.01689816 C-167.11881247 90.64547028 -164.74167268 89.27403847 -162.36453438 87.9026041 C-161.77717978 87.56374416 -161.18982519 87.22488421 -160.58467197 86.87575579 C-158.96166053 85.93939867 -157.3386498 85.0030403 -155.71563911 84.06668186 C-153.59025357 82.84052373 -151.46483301 81.61442638 -149.33935547 80.38842773 C-144.08196608 77.35580396 -138.82541579 74.32173996 -133.5703125 71.28515625 C-121.76370516 64.46497363 -109.93973 57.6767674 -98.09527588 50.92263794 C-89.05670572 45.76664555 -80.05722862 40.54679327 -71.07763672 35.28881836 C-62.82882846 30.46598694 -54.53578128 25.72283051 -46.2331543 20.99359131 C-36.60374553 15.50744856 -27.01695742 9.95308424 -17.4609375 4.33984375 C-16.53539062 3.79714844 -15.60984375 3.25445312 -14.65625 2.6953125 C-13.44678711 1.9839917 -13.44678711 1.9839917 -12.21289062 1.25830078 C-11.48263672 0.84306152 -10.75238281 0.42782227 -10 0 C-9.36771484 -0.42684082 -8.73542969 -0.85368164 -8.08398438 -1.29345703 C-4.89420861 -2.37490163 -3.0415876 -1.29293718 0 0 Z " fill="#FE3131" transform="translate(192,2)"/>
<path d="M0 0 C1.95884816 1.00587224 3.89054472 2.06580272 5.796875 3.16796875 C7.46194092 4.12521851 7.46194092 4.12521851 9.16064453 5.10180664 C10.35715596 5.79693518 11.55360617 6.49216909 12.75 7.1875 C14.00215828 7.90991479 15.25460451 8.63183069 16.50732422 9.35327148 C19.08379712 10.83827649 21.65842133 12.3264101 24.23144531 13.81738281 C27.72137955 15.83960644 31.21550626 17.85447717 34.7109375 19.8671875 C40.07056381 22.95412768 45.42694502 26.04664306 50.78222656 29.14111328 C56.18670645 32.26324605 61.59347412 35.38141204 67 38.5 C69.1666775 39.74998122 71.33334417 40.99998121 73.5 42.25 C75.10875 43.178125 75.10875 43.178125 76.75 44.125 C88.66666667 51 100.58333333 57.875 112.5 64.75 C113.57266113 65.36883057 114.64532227 65.98766113 115.75048828 66.62524414 C117.91557071 67.87435518 120.08060982 69.12354129 122.24560547 70.37280273 C127.68615706 73.51202309 133.12747216 76.64990563 138.5703125 79.78515625 C139.66859375 80.41808594 140.766875 81.05101563 141.8984375 81.703125 C143.9215791 82.86900321 145.94497682 84.03443721 147.96875 85.19921875 C149.95882929 86.34631539 151.92060447 87.54358905 153.85488892 88.78245544 C157.0913212 90.6966594 160.25589696 91.70239984 163.86264038 92.7403717 C171.00123736 95.19958939 177.96413291 98.28898329 182 105 C187.03952558 118.83295685 184.85181709 136.01933624 184.43345451 150.44005728 C184.28276907 156.51190508 184.26927644 162.58407225 184.24084473 168.65750122 C184.16643003 180.1415419 183.96976665 191.62005808 183.72845697 203.10167229 C183.45960324 216.17956178 183.32809863 229.25772429 183.20776653 242.33769202 C182.95732218 269.22818381 182.53556644 296.11378164 182 323 C181.22053009 323.44508408 180.44106018 323.89016815 179.63796997 324.34873962 C176.67789401 326.03913083 173.71794968 327.72975208 170.75808716 329.42051697 C169.48978658 330.14495056 168.22143725 330.8692988 166.95303345 331.59355164 C155.02060474 338.40705304 143.11507293 345.26643475 131.21777344 352.14111328 C125.81329355 355.26324605 120.40652588 358.38141204 115 361.5 C112.8333225 362.74998122 110.66665583 363.99998121 108.5 365.25 C95.5 372.75 95.5 372.75 92.24951172 374.62524414 C90.08442929 375.87435518 87.91939018 377.12354129 85.75439453 378.37280273 C80.31384294 381.51202309 74.87252784 384.64990563 69.4296875 387.78515625 C59.96073885 393.24118165 50.49533417 398.70226999 41.06201172 404.21972656 C31.60442223 409.75119786 22.13509023 415.26260004 12.63763428 420.72537231 C11.38880882 421.44459677 10.14094781 422.16549869 8.894104 422.88815308 C7.1560653 423.89496204 5.41404795 424.89489319 3.671875 425.89453125 C2.6725293 426.47050049 1.67318359 427.04646973 0.64355469 427.63989258 C-1.67068027 428.83056518 -3.42469463 429.7152047 -6 430 C-8.71934796 428.75312408 -11.18273477 427.44941548 -13.75 425.9375 C-14.53584473 425.48777832 -15.32168945 425.03805664 -16.13134766 424.57470703 C-18.76238516 423.06345542 -21.38171009 421.53322011 -24 420 C-25.84620081 418.92551771 -27.69255831 417.85130459 -29.5390625 416.77734375 C-32.4977065 415.05397626 -35.45487305 413.32820601 -38.40917969 411.59741211 C-46.24181717 407.00995251 -54.11283979 402.49269988 -62 398 C-71.67500363 392.48770144 -81.3128259 386.91575168 -90.921875 381.2890625 C-98.5857377 376.80833854 -106.28678835 372.39493248 -114 368 C-123.66596957 362.49240011 -133.2953205 356.92613821 -142.89550781 351.30444336 C-151.96403392 346.00239051 -161.08244798 340.78967833 -170.2109375 335.59179688 C-171.86222656 334.65110352 -171.86222656 334.65110352 -173.546875 333.69140625 C-174.50432617 333.14685791 -175.46177734 332.60230957 -176.44824219 332.04125977 C-176.96755058 331.7184157 -177.48685898 331.39557163 -178.02190399 331.06294441 C-180.09948218 329.87724831 -180.09948218 329.87724831 -182.92395782 329.0008831 C-186.74126338 327.42297981 -189.13304496 326.0001987 -192 323 C-194.33749434 316.48963964 -193.51158265 308.99186642 -193.36230469 302.19360352 C-193.35891857 300.044817 -193.36082223 297.8960166 -193.36761475 295.74723816 C-193.37105684 289.9201736 -193.30053322 284.09607548 -193.21672726 278.26970029 C-193.14168936 272.17864624 -193.13466095 266.08752343 -193.12042236 259.99607849 C-193.08313056 248.46421693 -192.98466675 236.9337212 -192.86422849 225.40246099 C-192.73007957 212.27335846 -192.66411608 199.14419053 -192.60388327 186.01457322 C-192.47846568 159.00895836 -192.26740822 132.00455572 -192 105 C-172.95703127 94.01367189 -172.95703127 94.01367189 -169.49595451 92.01689816 C-167.11881247 90.64547028 -164.74167268 89.27403847 -162.36453438 87.9026041 C-161.77717978 87.56374416 -161.18982519 87.22488421 -160.58467197 86.87575579 C-158.96166053 85.93939867 -157.3386498 85.0030403 -155.71563911 84.06668186 C-153.59025357 82.84052373 -151.46483301 81.61442638 -149.33935547 80.38842773 C-144.08196608 77.35580396 -138.82541579 74.32173996 -133.5703125 71.28515625 C-121.76370516 64.46497363 -109.93973 57.6767674 -98.09527588 50.92263794 C-89.05670572 45.76664555 -80.05722862 40.54679327 -71.07763672 35.28881836 C-62.82882846 30.46598694 -54.53578128 25.72283051 -46.2331543 20.99359131 C-36.60374553 15.50744856 -27.01695742 9.95308424 -17.4609375 4.33984375 C-16.53539062 3.79714844 -15.60984375 3.25445312 -14.65625 2.6953125 C-13.44678711 1.9839917 -13.44678711 1.9839917 -12.21289062 1.25830078 C-11.48263672 0.84306152 -10.75238281 0.42782227 -10 0 C-9.36771484 -0.42684082 -8.73542969 -0.85368164 -8.08398438 -1.29345703 C-4.89420861 -2.37490163 -3.0415876 -1.29293718 0 0 Z M-12.13671875 31.7890625 C-13.17650879 32.39371338 -14.21629883 32.99836426 -15.28759766 33.62133789 C-16.40956543 34.28254639 -17.5315332 34.94375488 -18.6875 35.625 C-19.8621208 36.31105935 -21.03709332 36.99651682 -22.21240234 37.68139648 C-24.63213184 39.09282305 -27.04965568 40.50791733 -29.46533203 41.92626953 C-32.71100618 43.83172036 -35.9619883 45.72792244 -39.21484375 47.62109375 C-45.14698175 51.07431844 -51.07397109 54.53630455 -57 58 C-69.46036739 65.28294081 -81.93119442 72.54615763 -94.4375 79.75 C-102.73132277 84.52827192 -111.00744115 89.33314178 -119.25 94.19921875 C-125.11907923 97.6636058 -130.99972888 101.10828507 -136.87948608 104.55450439 C-138.75284837 105.65253644 -140.62606651 106.75081404 -142.49926758 107.84912109 C-143.69351229 108.54917044 -144.88776649 109.24920361 -146.08203125 109.94921875 C-147.70936713 110.90311363 -149.33561213 111.85975123 -150.93616772 112.85792923 C-153 114 -153 114 -155.94265461 115.13703537 C-159.56738971 116.74088883 -162.13978055 118.23834976 -165 121 C-166.79667703 126.74645035 -166.54200261 132.34377618 -166.39404297 138.31469727 C-166.39393212 140.08923031 -166.39908347 141.8637703 -166.40908813 143.63827515 C-166.42105906 148.44736626 -166.35880666 153.25293841 -166.28259039 158.06133389 C-166.21489209 163.09657525 -166.21382652 168.13183913 -166.20510864 173.16746521 C-166.18120358 181.62227284 -166.11362095 190.0757746 -166.01513672 198.5300293 C-165.87639333 210.44800236 -165.81764356 222.36539027 -165.77433562 234.28403771 C-165.7377142 243.54491316 -165.67891816 252.80566929 -165.6171875 262.06640625 C-165.61084463 263.05857942 -165.60450175 264.05075259 -165.59796667 265.07299161 C-165.56027774 270.77909191 -165.51147083 276.48489773 -165.44573593 282.19074631 C-165.42713127 283.91847334 -165.41177171 285.64623886 -165.39990997 287.37402534 C-165.38293563 289.73426584 -165.35374182 292.09404584 -165.32125854 294.45411682 C-165.31889879 295.13612658 -165.31653904 295.81813633 -165.31410778 296.52081305 C-165.23964926 300.69510143 -164.6813992 304.16752868 -163 308 C-160.61426486 309.77260728 -158.47239374 311.12005072 -155.875 312.5 C-154.32120647 313.36906241 -152.76784557 314.23889862 -151.21484375 315.109375 C-150.37421387 315.57279297 -149.53358398 316.03621094 -148.66748047 316.51367188 C-143.87931745 319.18165068 -139.16510542 321.97661991 -134.4375 324.75 C-132.37147115 325.95507435 -130.30506035 327.15949408 -128.23828125 328.36328125 C-124.17175775 330.73325546 -120.10662743 333.10558587 -116.04296875 335.48046875 C-105.71211602 341.51639592 -95.36739061 347.52702093 -85 353.5 C-65.74149998 364.59678852 -46.56038651 375.82599541 -27.3938446 387.08068848 C-25.69884376 388.07403879 -24.00081079 389.06220938 -22.30273438 390.05029297 C-20.06804716 391.36949848 -17.85074713 392.71853434 -15.65039062 394.09423828 C-14.59529297 394.74505371 -13.54019531 395.39586914 -12.453125 396.06640625 C-11.52145508 396.65494385 -10.58978516 397.24348145 -9.62988281 397.84985352 C-6.46353632 399.23461571 -5.23500932 399.10843253 -2 398 C0.45921832 396.86544216 0.45921832 396.86544216 2.921875 395.41015625 C3.85572021 394.87849854 4.78956543 394.34684082 5.75170898 393.79907227 C6.74114502 393.22600342 7.73058105 392.65293457 8.75 392.0625 C9.78133057 391.47202881 10.81266113 390.88155762 11.87524414 390.27319336 C19.12129747 386.11482857 26.33475567 381.9011992 33.5234375 377.64453125 C38.85557071 374.48865523 44.209279 371.36992813 49.5625 368.25 C50.57586426 367.65928711 51.58922852 367.06857422 52.63330078 366.45996094 C54.71057254 365.24911854 56.78788412 364.03834444 58.86523438 362.82763672 C61.97852415 361.01252089 65.0909706 359.19596797 68.203125 357.37890625 C77.33413888 352.04830162 86.46859637 346.72438832 95.625 341.4375 C100.4661041 338.63989501 105.29917256 335.82940261 110.1171875 332.9921875 C110.99785889 332.47567627 111.87853027 331.95916504 112.78588867 331.42700195 C114.60262191 330.3463096 116.40758701 329.24559659 118.20043945 328.12573242 C122.84629396 325.25874203 127.36508245 322.77110308 132.46763611 320.79763794 C140.62086377 317.61898631 148.68008063 314.25030278 154 307 C157.96197551 296.10310859 156.20723059 283.13764904 155.35087585 271.81658936 C154.96303246 266.06994779 154.90924922 260.35545768 154.93945312 254.59765625 C154.94218829 253.52191125 154.94492346 252.44616625 154.94774151 251.33782291 C154.97771321 242.12822452 155.06144841 232.91899012 155.14798737 223.70977783 C155.24271166 213.28090715 155.27510407 202.85227901 155.28240681 192.42304134 C155.28904189 185.4478858 155.32087722 178.47440824 155.40795898 171.49975586 C155.49299494 164.68162139 155.51004939 157.86600419 155.48558617 151.04739571 C155.48737192 148.46655277 155.51179258 145.88561877 155.55968666 143.30521965 C156.42607289 130.74451913 156.42607289 130.74451913 152.74192238 119.1713047 C149.31224777 115.94598425 145.4307745 114.5162303 141 113 C139.13678062 111.98110753 137.2897891 110.93101102 135.47265625 109.83203125 C133.67033645 108.82361391 131.86692671 107.81714243 130.0625 106.8125 C121.3051755 101.90038203 112.62995589 96.86720154 103.99707031 91.73999023 C98.12146894 88.25102227 92.22924028 84.79375139 86.3125 81.375 C85.537854 80.92737305 84.76320801 80.47974609 83.96508789 80.01855469 C81.64384676 78.6782463 79.32204072 77.33892259 77 76 C67.07529205 70.27726844 57.17051617 64.524541 47.3125 58.6875 C35.57298538 51.7376075 23.80422502 44.83943893 12 38 C11.15453613 37.50854492 10.30907227 37.01708984 9.43798828 36.51074219 C7.1919604 35.20812817 4.94098681 33.91465555 2.6875 32.625 C2.04184082 32.24956055 1.39618164 31.87412109 0.73095703 31.48730469 C-4.69920952 28.40688683 -6.85143874 28.69345795 -12.13671875 31.7890625 Z " fill="#171414" transform="translate(192,2)"/>
<path d="M0 0 C1.32 0.33 2.64 0.66 4 1 C2.71186658 1.83878455 1.41936744 2.67086783 0.125 3.5 C-0.59429687 3.9640625 -1.31359375 4.428125 -2.0546875 4.90625 C-4 6 -4 6 -6 6 C-5.75642856 7.02324639 -5.75642856 7.02324639 -5.50793648 8.06716442 C-4.92963859 11.40626821 -4.87406064 14.53546283 -4.87301636 17.92536926 C-4.87145637 18.61003366 -4.86989638 19.29469805 -4.86828911 20.00010985 C-4.86430987 22.28761159 -4.86745687 24.57504662 -4.87060547 26.86254883 C-4.86925003 28.50545795 -4.86746929 30.14836678 -4.86529541 31.79127502 C-4.86073702 36.25005916 -4.86250439 40.70882015 -4.8656745 45.16760468 C-4.86820759 49.83770449 -4.86585779 54.50780233 -4.86428833 59.17790222 C-4.86246887 67.02363439 -4.86486652 74.86935715 -4.86962891 82.71508789 C-4.87506541 91.77580261 -4.87331242 100.83649482 -4.8678025 109.89720899 C-4.86325822 117.68251036 -4.86262744 125.46780498 -4.86524117 133.25310725 C-4.86679743 137.90009886 -4.86701566 142.5470799 -4.86370468 147.19407082 C-4.86080707 151.56644553 -4.86283634 155.93879135 -4.86859894 160.31116295 C-4.86991666 161.91230089 -4.86954927 163.51344129 -4.86733627 165.11457825 C-4.86458562 167.30764448 -4.86805345 169.50061933 -4.87301636 171.69367981 C-4.87339338 172.91870114 -4.87377041 174.14372248 -4.87415886 175.40586567 C-5.01174034 179.33531438 -5.459416 183.10724847 -6 187 C-6.33 187 -6.66 187 -7 187 C-7.20049836 163.45246653 -7.38382461 139.90485392 -7.54658794 116.35702801 C-7.62256055 105.42389147 -7.70419759 94.49085153 -7.79907227 83.55786133 C-7.88173012 74.03104618 -7.9538593 64.50422015 -8.01323253 54.97723037 C-8.04505438 49.93060189 -8.08222457 44.88413825 -8.13199425 39.83765221 C-8.17863961 35.0911175 -8.21124373 30.34469671 -8.2329216 25.59798431 C-8.24339575 23.85280503 -8.25906936 22.10764829 -8.28024101 20.36256599 C-8.3083127 17.985624 -8.31792723 15.60930945 -8.32279968 13.23222351 C-8.33542916 12.53670039 -8.34805863 11.84117728 -8.36107081 11.1245777 C-8.34999113 8.29222077 -8.31213765 6.44067604 -6.64779377 4.09095478 C-4.50084296 2.66952311 -2.52992537 2.34188181 0 2 C0 1.34 0 0.68 0 0 Z " fill="#4E0C0B" transform="translate(33,117)"/>
<path d="M0 0 C0.66 0 1.32 0 2 0 C2.68663153 23.15988973 3.09424796 46.30585858 3.0625 69.4765625 C3.06105988 70.58752037 3.05961975 71.69847824 3.05813599 72.8431015 C3.04601615 80.77042367 3.02385964 88.69770585 3 96.625 C2.97625391 104.70230173 2.95607796 112.77958625 2.94406128 120.85691452 C2.93760289 124.05068343 2.92513209 127.24439191 2.91235352 130.43814087 C2.90872822 132.36061553 2.90537562 134.28309072 2.90234375 136.20556641 C2.89717743 137.08819153 2.89201111 137.97081665 2.88668823 138.88018799 C2.88650787 140.92047496 2.93748256 142.96067106 3 145 C3.33 145.33 3.66 145.66 4 146 C4.08858646 148.73894085 4.11523479 151.4525327 4.09765625 154.19140625 C4.0962413 155.01124496 4.09482635 155.83108368 4.09336853 156.67576599 C4.08775289 159.30471382 4.07519779 161.93357773 4.0625 164.5625 C4.05748701 166.34049357 4.05292376 168.11848846 4.04882812 169.89648438 C4.03777839 174.26435545 4.02050331 178.63216348 4 183 C3.34 183 2.68 183 2 183 C2 184.98 2 186.96 2 189 C-0.97 189.99 -3.94 190.98 -7 192 C-4.16671013 189.16671013 -2.64553172 188.2808625 1 187 C1.0337339 178.52085717 1.05191372 170.04170158 1.0625 161.5625 C1.06335602 160.88217964 1.06421204 160.20185928 1.06509399 159.50092316 C1.10286912 125.12442929 0.79587261 90.74987494 0.5 56.375 C0.49402628 55.68017973 0.48805257 54.98535947 0.48189783 54.26948404 C0.32626961 36.17961114 0.16566451 18.08978389 0 0 Z " fill="#440303" transform="translate(345,122)"/>
<path d="M0 0 C0.99 0.33 1.98 0.66 3 1 C2.01 1.33 1.02 1.66 0 2 C0.33 2.99 0.66 3.98 1 5 C0 6 -1 7 -2 8 C-2.639375 8.9075 -3.27875 9.815 -3.9375 10.75 C-8.25295937 13.92054158 -11.40177341 13.05911972 -16.55078125 12.39453125 C-17.35902344 12.26433594 -18.16726562 12.13414062 -19 12 C-15.33106931 9.10989603 -11.41617306 6.68247707 -7.4375 4.25 C-6.76525391 3.82589844 -6.09300781 3.40179688 -5.40039062 2.96484375 C-3.64703762 1.89576853 -1.82626712 0.93910437 0 0 Z " fill="#240F0F" transform="translate(269,353)"/>
<path d="M0 0 C0.33 0 0.66 0 1 0 C1 12.21 1 24.42 1 37 C0.34 37 -0.32 37 -1 37 C-1 38.98 -1 40.96 -1 43 C-3.97 43.99 -6.94 44.98 -10 46 C-7 43 -7 43 -2 41 C-2 30.11 -2 19.22 -2 8 C-1.34 8 -0.68 8 0 8 C0 5.36 0 2.72 0 0 Z " fill="#230604" transform="translate(348,268)"/>
<path d="M0 0 C-23.78877436 14.07576572 -23.78877436 14.07576572 -34 20 C-34.33 19.01 -34.66 18.02 -35 17 C-34.01 17 -33.02 17 -32 17 C-32 15.35 -32 13.7 -32 12 C-29.69 12.33 -27.38 12.66 -25 13 C-25 12.34 -25 11.68 -25 11 C-24.43410156 10.73445313 -23.86820313 10.46890625 -23.28515625 10.1953125 C-22.55167969 9.84210937 -21.81820312 9.48890625 -21.0625 9.125 C-19.96615234 8.60292969 -19.96615234 8.60292969 -18.84765625 8.0703125 C-16.83667541 7.1315023 -16.83667541 7.1315023 -16 5 C-15.236875 4.87625 -14.47375 4.7525 -13.6875 4.625 C-10.86602511 4.21839742 -10.86602511 4.21839742 -9 2 C-6.25753602 -0.74246398 -3.58649085 -1.79324543 0 0 Z " fill="#2F0C0B" transform="translate(164,44)"/>
<path d="M0 0 C1.32 0.33 2.64 0.66 4 1 C3.27522461 1.41773682 2.55044922 1.83547363 1.80371094 2.26586914 C-0.94740768 3.85172315 -3.69836382 5.43785856 -6.44921875 7.02416992 C-8.20040015 8.03390074 -9.95175998 9.04332207 -11.703125 10.05273438 C-19.14842634 14.3464735 -26.58051493 18.66181727 -34 23 C-34 22.01 -34 21.02 -34 20 C-33.34 20 -32.68 20 -32 20 C-32 19.34 -32 18.68 -32 18 C-30.68 18 -29.36 18 -28 18 C-28 17.34 -28 16.68 -28 16 C-26.68 16 -25.36 16 -24 16 C-24 15.34 -24 14.68 -24 14 C-22.73542969 13.38511719 -22.73542969 13.38511719 -21.4453125 12.7578125 C-20.34960938 12.21898437 -19.25390625 11.68015625 -18.125 11.125 C-17.03445313 10.59132813 -15.94390625 10.05765625 -14.8203125 9.5078125 C-11.96117453 8.15464063 -11.96117453 8.15464063 -10 6 C-9.01 6 -8.02 6 -7 6 C-7 5.34 -7 4.68 -7 4 C-4.35261084 2.5393715 -3.10551666 2 0 2 C0 1.34 0 0.68 0 0 Z " fill="#CE383B" transform="translate(279,345)"/>
<path d="M0 0 C0.66 0.33 1.32 0.66 2 1 C-8.41341064 11.54740673 -8.41341064 11.54740673 -13.6875 12.125 C-14.780625 12.08375 -15.87375 12.0425 -17 12 C-17.33 12.99 -17.66 13.98 -18 15 C-20.31 15.33 -22.62 15.66 -25 16 C-21.09381414 11.7100344 -15.88487753 9.17130863 -10.9375 6.25 C-9.91849609 5.63511719 -8.89949219 5.02023438 -7.84960938 4.38671875 C-6.87701172 3.81050781 -5.90441406 3.23429687 -4.90234375 2.640625 C-4.01023193 2.10985352 -3.11812012 1.57908203 -2.19897461 1.03222656 C-1.11048218 0.52127441 -1.11048218 0.52127441 0 0 Z " fill="#DD353A" transform="translate(133,61)"/>
<path d="M0 0 C4.29 0.99 8.58 1.98 13 3 C13.33 4.65 13.66 6.3 14 8 C15.65 8.33 17.3 8.66 19 9 C19 9.66 19 10.32 19 11 C20.0828125 11.0928125 20.0828125 11.0928125 21.1875 11.1875 C24.84657625 12.24456647 26.49211602 14.20550071 29 17 C24.06725944 15.23334443 19.61920178 12.676753 15.0625 10.125 C14.27681641 9.69058594 13.49113281 9.25617188 12.68164062 8.80859375 C8.32234589 6.37906213 4.06031368 3.90674142 0 1 C0 0.67 0 0.34 0 0 Z " fill="#400A09" transform="translate(232,56)"/>
<path d="M0 0 C-0.96679688 0.58007812 -1.93359375 1.16015625 -2.9296875 1.7578125 C-3.55593018 2.13365479 -4.18217285 2.50949707 -4.82739258 2.89672852 C-6.19667726 3.71810341 -7.56630852 4.53890081 -8.9362793 5.35913086 C-12.01664247 7.2042935 -15.09149905 9.05612395 -18.15234375 10.93359375 C-19.03019531 11.47113281 -19.90804687 12.00867188 -20.8125 12.5625 C-21.58207031 13.03816406 -22.35164062 13.51382812 -23.14453125 14.00390625 C-25 15 -25 15 -27 15 C-27 14.34 -27 13.68 -27 13 C-27.66 13 -28.32 13 -29 13 C-29 12.34 -29 11.68 -29 11 C-26.03 11.495 -26.03 11.495 -23 12 C-23 11.34 -23 10.68 -23 10 C-21.68 10 -20.36 10 -19 10 C-19 9.34 -19 8.68 -19 8 C-16.35261084 6.5393715 -15.10551666 6 -12 6 C-12 5.34 -12 4.68 -12 4 C-11.01 4 -10.02 4 -9 4 C-9 3.01 -9 2.02 -9 1 C-2.25 -1.125 -2.25 -1.125 0 0 Z " fill="#D9383B" transform="translate(243,369)"/>
<path d="M0 0 C0.33 0.66 0.66 1.32 1 2 C0.34 2 -0.32 2 -1 2 C-1 2.66 -1 3.32 -1 4 C-2.01320313 4.47179687 -2.01320313 4.47179687 -3.046875 4.953125 C-8.45604918 7.4196869 -8.45604918 7.4196869 -13 11.125 C-16.31315799 14.23108561 -20.67027345 14.90930552 -25 16 C-25 16.66 -25 17.32 -25 18 C-26.32 17.67 -27.64 17.34 -29 17 C-28.47680176 16.69819824 -27.95360352 16.39639648 -27.41455078 16.08544922 C-13.64330409 8.15121657 -13.64330409 8.15121657 0 0 Z " fill="#390C09" transform="translate(307,331)"/>
<path d="M0 0 C0.66 0.33 1.32 0.66 2 1 C1.38125 1.226875 0.7625 1.45375 0.125 1.6875 C-2.23244106 2.8440732 -2.23244106 2.8440732 -2.9375 5.5 C-4 8 -4 8 -6.3125 9.25 C-9.60239994 10.16811161 -12.88329616 10.81388269 -16.25 11.375 C-16.8275 11.58125 -17.405 11.7875 -18 12 C-18.33 12.99 -18.66 13.98 -19 15 C-19.99 14.34 -20.98 13.68 -22 13 C-18.38273023 10.79951644 -14.755026 8.61686505 -11.125 6.4375 C-10.09246094 5.80908203 -9.05992187 5.18066406 -7.99609375 4.53320312 C-7.00996094 3.94345703 -6.02382812 3.35371094 -5.0078125 2.74609375 C-3.64100342 1.92129517 -3.64100342 1.92129517 -2.24658203 1.07983398 C-1.50520996 0.72348877 -0.76383789 0.36714355 0 0 Z " fill="#E03535" transform="translate(176,36)"/>
<path d="M0 0 C5.02250454 1.43942349 9.04583913 3.64082253 13.4375 6.375 C14.70658334 7.15437565 15.97611286 7.93302526 17.24609375 8.7109375 C17.86210449 9.08959961 18.47811523 9.46826172 19.11279297 9.85839844 C22.04266272 11.63072327 25.01902953 13.31527088 28 15 C27.67 15.66 27.34 16.32 27 17 C26.34 17 25.68 17 25 17 C25 16.34 25 15.68 25 15 C24.01 15 23.02 15 22 15 C22 14.34 22 13.68 22 13 C20.68 13 19.36 13 18 13 C18 12.34 18 11.68 18 11 C17.41992188 10.88398437 16.83984375 10.76796875 16.2421875 10.6484375 C13.84467673 9.95508073 12.19967182 8.99978253 10.125 7.625 C6.84680241 5.50706335 3.53031691 3.67690053 0 2 C0 1.34 0 0.68 0 0 Z " fill="#D3393D" transform="translate(202,40)"/>
<path d="M0 0 C3.36527945 1.2794667 6.45835874 2.73010585 9.57421875 4.53125 C10.82235352 5.25248047 10.82235352 5.25248047 12.09570312 5.98828125 C13.37864258 6.73658203 13.37864258 6.73658203 14.6875 7.5 C15.9878418 8.24830078 15.9878418 8.24830078 17.31445312 9.01171875 C23.74485448 12.74485448 23.74485448 12.74485448 26 15 C24.35 15 22.7 15 21 15 C21 14.34 21 13.68 21 13 C18.69 12.34 16.38 11.68 14 11 C14 10.34 14 9.68 14 9 C10.7 8.01 7.4 7.02 4 6 C4 5.01 4 4.02 4 3 C2.68 2.67 1.36 2.34 0 2 C0 1.34 0 0.68 0 0 Z " fill="#D9383B" transform="translate(230,56)"/>
<path d="M0 0 C2.76276177 0.52268466 5.3260876 1.10869587 8 2 C8 2.66 8 3.32 8 4 C10.64 4.33 13.28 4.66 16 5 C16 6.32 16 7.64 16 9 C18.475 9.495 18.475 9.495 21 10 C21 10.66 21 11.32 21 12 C21.99 12 22.98 12 24 12 C24 12.66 24 13.32 24 14 C18.73202405 11.99839031 14.04578982 9.26697379 9.1875 6.4375 C8.30384766 5.93025391 7.42019531 5.42300781 6.50976562 4.90039062 C5.67509766 4.41634766 4.84042969 3.93230469 3.98046875 3.43359375 C2.83421021 2.76928345 2.83421021 2.76928345 1.66479492 2.09155273 C1.1154126 1.73134033 0.56603027 1.37112793 0 1 C0 0.67 0 0.34 0 0 Z " fill="#D4383B" transform="translate(108,355)"/>
<path d="M0 0 C0.99 0 1.98 0 3 0 C3 2.97 3 5.94 3 9 C2.34 9 1.68 9 1 9 C1 10.98 1 12.96 1 15 C-3.455 16.485 -3.455 16.485 -8 18 C-5 15 -5 15 0 13 C0 8.71 0 4.42 0 0 Z " fill="#4B0B0A" transform="translate(346,296)"/>
<path d="M0 0 C3.51716993 1.31928086 6.65308518 2.87348391 9.86328125 4.8203125 C11.19262695 5.62275391 11.19262695 5.62275391 12.54882812 6.44140625 C13.9168457 7.27478516 13.9168457 7.27478516 15.3125 8.125 C16.24384766 8.68832031 17.17519531 9.25164062 18.13476562 9.83203125 C20.42521142 11.2180446 22.71352076 12.60745628 25 14 C23 15 23 15 20.9375 14.6875 C19 14 19 14 18 12 C17.05125 11.690625 16.1025 11.38125 15.125 11.0625 C11.91853528 9.97230199 11.2754942 9.28105775 9 7 C7.46454126 6.0585702 5.89978226 5.16365136 4.3125 4.3125 C3.50425781 3.87550781 2.69601563 3.43851562 1.86328125 2.98828125 C1.24839844 2.66214844 0.63351563 2.33601563 0 2 C0 1.34 0 0.68 0 0 Z " fill="#370A08" transform="translate(144,377)"/>
<path d="M0 0 C0.66 0.33 1.32 0.66 2 1 C-0.47474747 4.83585859 -0.47474747 4.83585859 -3 5.625 C-3.66 5.74875 -4.32 5.8725 -5 6 C-5.99 6.66 -6.98 7.32 -8 8 C-8.99 8 -9.98 8 -11 8 C-11 8.66 -11 9.32 -11 10 C-11.66 10 -12.32 10 -13 10 C-13 10.66 -13 11.32 -13 12 C-15.31 12.33 -17.62 12.66 -20 13 C-16.6458582 9.40744306 -12.64417607 7.22164038 -8.4375 4.75 C-7.65697266 4.27820313 -6.87644531 3.80640625 -6.07226562 3.3203125 C-5.32525391 2.87945312 -4.57824219 2.43859375 -3.80859375 1.984375 C-3.12595459 1.57928711 -2.44331543 1.17419922 -1.73999023 0.75683594 C-0.87869507 0.38220215 -0.87869507 0.38220215 0 0 Z " fill="#380B09" transform="translate(238,371)"/>
<path d="M0 0 C0 0.66 0 1.32 0 2 C-0.66 2 -1.32 2 -2 2 C-2 3.32 -2 4.64 -2 6 C-6.455 6.495 -6.455 6.495 -11 7 C-11 7.66 -11 8.32 -11 9 C-12.98 9.33 -14.96 9.66 -17 10 C-5.46153846 0 -5.46153846 0 0 0 Z " fill="#DA3639" transform="translate(63,103)"/>
<path d="M0 0 C1.65 0.33 3.3 0.66 5 1 C2.21503399 4.24741424 -1.39536751 6.16089095 -5.0625 8.25 C-5.69994141 8.62640625 -6.33738281 9.0028125 -6.99414062 9.390625 C-8.6266499 10.32643643 -10.31071511 11.17105723 -12 12 C-12.66 11.67 -13.32 11.34 -14 11 C-11.55536759 7.33305139 -10.06774391 7.32824291 -6 6 C-5.46375 5.46375 -4.9275 4.9275 -4.375 4.375 C-3.92125 3.92125 -3.4675 3.4675 -3 3 C-1.68 3 -0.36 3 1 3 C0.67 2.01 0.34 1.02 0 0 Z " fill="#330A09" transform="translate(104,74)"/>
<path d="M0 0 C5.625 -0.25 5.625 -0.25 9 2 C9 2.66 9 3.32 9 4 C8.0925 3.690625 7.185 3.38125 6.25 3.0625 C0.15042854 2.08153799 -5.15893703 6.81237069 -10 10 C-10 9.01 -10 8.02 -10 7 C-9.443125 6.731875 -8.88625 6.46375 -8.3125 6.1875 C-3.37424914 3.93288201 -3.37424914 3.93288201 0 0 Z " fill="#370A08" transform="translate(183,29)"/>
<path d="M0 0 C0.99 0 1.98 0 3 0 C3 0.66 3 1.32 3 2 C4.65 2 6.3 2 8 2 C8.33 1.34 8.66 0.68 9 0 C9.99 0.99 10.98 1.98 12 3 C9.375 4.625 9.375 4.625 6 6 C2.625 5.1875 2.625 5.1875 0 4 C0 2.68 0 1.36 0 0 Z " fill="#212020" transform="translate(182,426)"/>
<path d="M0 0 C4.39383706 1.59623144 8.28995807 3.78024333 12.3125 6.125 C12.95767578 6.49753906 13.60285156 6.87007813 14.26757812 7.25390625 C15.84675945 8.16632213 17.42361864 9.08275509 19 10 C17.1875 10.625 17.1875 10.625 15 11 C14.01 10.34 13.02 9.68 12 9 C10.6925099 8.13818414 9.37967674 7.28443706 8.0625 6.4375 C7.39347656 6.00308594 6.72445313 5.56867188 6.03515625 5.12109375 C4.01389256 4.00765291 2.2534043 3.44866439 0 3 C0 2.01 0 1.02 0 0 Z " fill="#DA363B" transform="translate(326,112)"/>
<path d="M0 0 C0 0.66 0 1.32 0 2 C-0.99 2 -1.98 2 -3 2 C-3.2475 2.61875 -3.495 3.2375 -3.75 3.875 C-5.24624309 6.41861325 -6.31072677 6.8926522 -9 8 C-9.7425 8.37125 -10.485 8.7425 -11.25 9.125 C-11.8275 9.41375 -12.405 9.7025 -13 10 C-13.99 9.34 -14.98 8.68 -16 8 C-13.71125827 6.66141476 -11.41930344 5.32898986 -9.125 4 C-8.47402344 3.6184375 -7.82304688 3.236875 -7.15234375 2.84375 C-2.2265625 0 -2.2265625 0 0 0 Z " fill="#2B292A" transform="translate(73,66)"/>
<path d="M0 0 C0.66 0 1.32 0 2 0 C1.67 1.65 1.34 3.3 1 5 C1.99 5 2.98 5 4 5 C4 5.66 4 6.32 4 7 C4.804375 7.28875 5.60875 7.5775 6.4375 7.875 C9 9 9 9 10 11 C6.20950293 9.57250019 2.72877544 7.83763458 -0.8125 5.875 C-2.27623047 5.06675781 -2.27623047 5.06675781 -3.76953125 4.2421875 C-4.50558594 3.83226563 -5.24164063 3.42234375 -6 3 C-5.38125 2.87625 -4.7625 2.7525 -4.125 2.625 C-1.80879168 2.12802644 -1.80879168 2.12802644 0 0 Z " fill="#370B09" transform="translate(323,104)"/>
<path d="M0 0 C-0.33 0.99 -0.66 1.98 -1 3 C-1.66 2.67 -2.32 2.34 -3 2 C-3 2.66 -3 3.32 -3 4 C-7.09517597 8.22315022 -10.37568927 8.6186908 -16 9 C-13.06698229 6.72861652 -10.04931207 4.73130058 -6.875 2.8125 C-6.00617187 2.28269531 -5.13734375 1.75289063 -4.2421875 1.20703125 C-2 0 -2 0 0 0 Z " fill="#363435" transform="translate(45,82)"/>
<path d="M0 0 C2.31 0.33 4.62 0.66 7 1 C7 1.66 7 2.32 7 3 C7.66 3 8.32 3 9 3 C9 3.66 9 4.32 9 5 C10.32 5 11.64 5 13 5 C13.66 6.32 14.32 7.64 15 9 C11.32305352 7.62859834 8.04681411 5.96304199 4.6875 3.9375 C3.80449219 3.41027344 2.92148438 2.88304687 2.01171875 2.33984375 C1.34785156 1.89769531 0.68398437 1.45554687 0 1 C0 0.67 0 0.34 0 0 Z " fill="#D1373A" transform="translate(151,380)"/>
<path d="M0 0 C0.061875 0.86625 0.061875 0.86625 0.125 1.75 C1.44065958 5.13312465 3.96552364 6.19222685 7 8 C6.67 8.66 6.34 9.32 6 10 C3.99743426 8.85865673 1.99800203 7.71181367 0 6.5625 C-1.11375 5.92441406 -2.2275 5.28632812 -3.375 4.62890625 C-4.674375 3.82259766 -4.674375 3.82259766 -6 3 C-6 2.67 -6 2.34 -6 2 C-4.02 1.34 -2.04 0.68 0 0 Z " fill="#350D08" transform="translate(301,91)"/>
<path d="M0 0 C4.29 0.99 8.58 1.98 13 3 C13.33 4.32 13.66 5.64 14 7 C13.34 7 12.68 7 12 7 C12 6.34 12 5.68 12 5 C11.13375 5.0825 10.2675 5.165 9.375 5.25 C5.22505812 4.9425969 3.23310554 3.54029721 0 1 C0 0.67 0 0.34 0 0 Z " fill="#280E0B" transform="translate(232,56)"/>
<path d="M0 0 C0 0.66 0 1.32 0 2 C0.66 2 1.32 2 2 2 C2 2.66 2 3.32 2 4 C1.071875 3.95875 0.14375 3.9175 -0.8125 3.875 C-4.15809719 3.72863661 -4.15809719 3.72863661 -7 6 C-9.1875 5.625 -9.1875 5.625 -11 5 C-9.54462432 4.16151196 -8.08559627 3.32936066 -6.625 2.5 C-5.81289063 2.0359375 -5.00078125 1.571875 -4.1640625 1.09375 C-2 0 -2 0 0 0 Z " fill="#3A0B0B" transform="translate(328,320)"/>
<path d="M0 0 C-1.78809697 1.17213045 -3.58059125 2.33755526 -5.375 3.5 C-6.37273437 4.1496875 -7.37046875 4.799375 -8.3984375 5.46875 C-11 7 -11 7 -13 7 C-13 6.01 -13 5.02 -13 4 C-12.01 4 -11.02 4 -10 4 C-10 3.34 -10 2.68 -10 2 C-8.71211992 1.46987262 -7.41953322 0.9511671 -6.125 0.4375 C-5.40570313 0.14746094 -4.68640625 -0.14257812 -3.9453125 -0.44140625 C-2 -1 -2 -1 0 0 Z " fill="#DA383D" transform="translate(339,313)"/>
<path d="M0 0 C5.28497409 0.1761658 5.28497409 0.1761658 8 1 C10.5 4.0625 10.5 4.0625 12 7 C7.69235185 5.43358249 3.93828536 3.31663844 0 1 C0 0.67 0 0.34 0 0 Z " fill="#3E0A0A" transform="translate(333,115)"/>
<path d="M0 0 C-6.23440454 4.03402647 -6.23440454 4.03402647 -9.8125 3.875 C-12 3 -12 3 -14 1 C-11.69 1.33 -9.38 1.66 -7 2 C-7 1.34 -7 0.68 -7 0 C-2.25 -1.125 -2.25 -1.125 0 0 Z " fill="#CE3939" transform="translate(195,397)"/>
<path d="M0 0 C0 0.66 0 1.32 0 2 C-1.72526042 2.9765625 -3.45052083 3.953125 -5.17578125 4.9296875 C-6.81982289 5.89428581 -8.41400588 6.94267059 -10 8 C-12.1875 7.625 -12.1875 7.625 -14 7 C-12.04480616 5.82807953 -10.0857461 4.6626071 -8.125 3.5 C-7.03445312 2.8503125 -5.94390625 2.200625 -4.8203125 1.53125 C-2 0 -2 0 0 0 Z " fill="#D0383D" transform="translate(108,77)"/>
<path d="M0 0 C0.66 0.33 1.32 0.66 2 1 C1.67 2.32 1.34 3.64 1 5 C-1.875 5.625 -1.875 5.625 -5 6 C-5.66 5.34 -6.32 4.68 -7 4 C-1.7265625 0.77734375 -1.7265625 0.77734375 0 0 Z " fill="#2A2829" transform="translate(147,22)"/>
<path d="M0 0 C5.10436996 1.22504879 8.75006878 2.76195717 13 6 C13.33 6.66 13.66 7.32 14 8 C8.76481294 6.56032356 4.36973991 4.18303389 0 1 C0 0.67 0 0.34 0 0 Z " fill="#CE3839" transform="translate(132,369)"/>
<path d="M0 0 C3.59391114 1.33488128 6.75490696 2.96022723 10 5 C7.45297384 6.27351308 6.5717055 5.80191925 3.875 5.0625 C3.15054687 4.86785156 2.42609375 4.67320313 1.6796875 4.47265625 C1.12539063 4.31667969 0.57109375 4.16070312 0 4 C0 2.68 0 1.36 0 0 Z " fill="#E13639" transform="translate(288,90)"/>
<path d="M0 0 C1.65 0 3.3 0 5 0 C1.59287819 3.97497544 -2.32760855 5.86793788 -7 8 C-7 7.34 -7 6.68 -7 6 C-5.01310269 4.64721885 -3.01254782 3.31431695 -1 2 C-0.67 1.34 -0.34 0.68 0 0 Z " fill="#3A0A07" transform="translate(76,91)"/>
<path d="M0 0 C1.32 0 2.64 0 4 0 C4 0.66 4 1.32 4 2 C4.763125 1.938125 5.52625 1.87625 6.3125 1.8125 C9 2 9 2 10.8125 3.375 C12 5 12 5 12 7 C7.69235185 5.43358249 3.93828536 3.31663844 0 1 C0 0.67 0 0.34 0 0 Z " fill="#3D0C0D" transform="translate(192,33)"/>
<path d="M0 0 C0.99 0.33 1.98 0.66 3 1 C-2.94 4.465 -2.94 4.465 -9 8 C-9.33 7.34 -9.66 6.68 -10 6 C-8.6993321 3.3986642 -7.69919978 3.35811992 -5 2.4375 C-2.26066983 1.60962158 -2.26066983 1.60962158 0 0 Z " fill="#CE383D" transform="translate(213,384)"/>
<path d="M0 0 C0.66 0.33 1.32 0.66 2 1 C-0.83430453 4.2542015 -2.68607774 5.5206753 -7 6 C-7.33 7.32 -7.66 8.64 -8 10 C-8.5 7.8125 -8.5 7.8125 -8 5 C-5.56899818 2.89646189 -2.96359654 1.24970939 0 0 Z " fill="#CC3438" transform="translate(35,118)"/>
<path d="M0 0 C0.66 0.33 1.32 0.66 2 1 C1.67 1.66 1.34 2.32 1 3 C0.01 3 -0.98 3 -2 3 C-2 3.66 -2 4.32 -2 5 C-2.99 5 -3.98 5 -5 5 C-5 5.66 -5 6.32 -5 7 C-6.65 7 -8.3 7 -10 7 C-6.81404865 4.36021174 -3.69029454 1.89501612 0 0 Z " fill="#D53638" transform="translate(73,96)"/>
<path d="M0 0 C0 0.66 0 1.32 0 2 C-3.96 3.98 -3.96 3.98 -8 6 C-8 3 -8 3 -6 1 C-3 0 -3 0 0 0 Z " fill="#222021" transform="translate(223,410)"/>
<path d="M0 0 C3.49900021 0.76978005 5.456333 1.456333 8 4 C4.04 3.67 0.08 3.34 -4 3 C-2.68 2.01 -1.36 1.02 0 0 Z " fill="#2B292A" transform="translate(186,0)"/>
<path d="M0 0 C0.99 0.33 1.98 0.66 3 1 C2.01 1.33 1.02 1.66 0 2 C0.33 2.99 0.66 3.98 1 5 C-0.98 5.66 -2.96 6.32 -5 7 C-3.75023244 3.34683329 -3.32901247 2.21934164 0 0 Z " fill="#260E10" transform="translate(269,353)"/>
<path d="M0 0 C-4.95 2.97 -4.95 2.97 -10 6 C-10.33 5.34 -10.66 4.68 -11 4 C-9.35 3.34 -7.7 2.68 -6 2 C-6 1.34 -6 0.68 -6 0 C-2.25 -1.125 -2.25 -1.125 0 0 Z " fill="#3A0906" transform="translate(59,105)"/>
<path d="M0 0 C0.66 0.33 1.32 0.66 2 1 C-2.625 5 -2.625 5 -6 5 C-6.33 5.99 -6.66 6.98 -7 8 C-7.99 7.34 -8.98 6.68 -10 6 C-8.3811004 4.96951963 -6.75467511 3.95085322 -5.125 2.9375 C-4.22007812 2.36902344 -3.31515625 1.80054688 -2.3828125 1.21484375 C-1.20332031 0.61349609 -1.20332031 0.61349609 0 0 Z " fill="#C8373B" transform="translate(164,43)"/>
<path d="M0 0 C0.66 0 1.32 0 2 0 C1 3 1 3 -0.84765625 4.16796875 C-1.57855469 4.50441406 -2.30945313 4.84085937 -3.0625 5.1875 C-3.79597656 5.53167969 -4.52945313 5.87585938 -5.28515625 6.23046875 C-6.13400391 6.61138672 -6.13400391 6.61138672 -7 7 C-6.67 6.01 -6.34 5.02 -6 4 C-5.34 4 -4.68 4 -4 4 C-4 3.34 -4 2.68 -4 2 C-2.68 2 -1.36 2 0 2 C0 1.34 0 0.68 0 0 Z " fill="#DC383C" transform="translate(251,361)"/>
<path d="M0 0 C0 0.66 0 1.32 0 2 C-1.26418246 2.69965443 -2.53665402 3.38434763 -3.8125 4.0625 C-4.52019531 4.44535156 -5.22789062 4.82820313 -5.95703125 5.22265625 C-8 6 -8 6 -11 5 C-9.54462432 4.16151196 -8.08559627 3.32936066 -6.625 2.5 C-5.81289062 2.0359375 -5.00078125 1.571875 -4.1640625 1.09375 C-2 0 -2 0 0 0 Z " fill="#D13939" transform="translate(146,55)"/>
<path d="M0 0 C-0.66 1.32 -1.32 2.64 -2 4 C-2.99 4 -3.98 4 -5 4 C-5.66 3.34 -6.32 2.68 -7 2 C-4 0 -4 0 0 0 Z " fill="#272425" transform="translate(94,55)"/>
<path d="M0 0 C0.66 0.33 1.32 0.66 2 1 C-2.296875 5.00390625 -2.296875 5.00390625 -4 6 C-6.203125 5.65234375 -6.203125 5.65234375 -8 5 C-6.71475739 4.13619741 -5.42157581 3.28419631 -4.125 2.4375 C-3.04605469 1.72400391 -3.04605469 1.72400391 -1.9453125 0.99609375 C-1.30335938 0.66738281 -0.66140625 0.33867188 0 0 Z " fill="#CE393A" transform="translate(133,61)"/>
<path d="M0 0 C1.32 0.33 2.64 0.66 4 1 C3.34 1 2.68 1 2 1 C2.33 2.32 2.66 3.64 3 5 C1.35 4.67 -0.3 4.34 -2 4 C-2 3.34 -2 2.68 -2 2 C-1.34 2 -0.68 2 0 2 C0 1.34 0 0.68 0 0 Z " fill="#1E1C1D" transform="translate(268,48)"/>
<path d="M0 0 C1.65 0 3.3 0 5 0 C5.33 0.99 5.66 1.98 6 3 C6.99 3.33 7.98 3.66 9 4 C8.01 4.495 8.01 4.495 7 5 C4.5249829 3.88568235 2.32116581 2.41849022 0 1 C0 0.67 0 0.34 0 0 Z " fill="#D1383D" transform="translate(94,347)"/>
<path d="M0 0 C0.66 0.33 1.32 0.66 2 1 C0.25 3.0625 0.25 3.0625 -2 5 C-4.25 4.75 -4.25 4.75 -6 4 C-4.02 2.68 -2.04 1.36 0 0 Z " fill="#3E0C0D" transform="translate(315,326)"/>
<path d="M0 0 C1.98 0 3.96 0 6 0 C6 0.99 6 1.98 6 3 C6.66 3 7.32 3 8 3 C8 3.66 8 4.32 8 5 C4.62496331 3.8141763 2.35277269 2.72426311 0 0 Z " fill="#CF3439" transform="translate(55,324)"/>
<path d="M0 0 C-5.75 4 -5.75 4 -8 4 C-8 3.34 -8 2.68 -8 2 C-7.34 2 -6.68 2 -6 2 C-6 1.34 -6 0.68 -6 0 C-2.25 -1.125 -2.25 -1.125 0 0 Z " fill="#DF373D" transform="translate(325,321)"/>
<path d="M0 0 C0.66 0.33 1.32 0.66 2 1 C1.67 1.99 1.34 2.98 1 4 C0.01 3.67 -0.98 3.34 -2 3 C-2 3.66 -2 4.32 -2 5 C-3.32 4.67 -4.64 4.34 -6 4 C-4.02 2.68 -2.04 1.36 0 0 Z " fill="#D63738" transform="translate(152,50)"/>
</svg>
