<?xml version="1.0" encoding="UTF-8"?>
<svg version="1.1" xmlns="http://www.w3.org/2000/svg" width="374" height="432">
<path d="M0 0 C3.8386568 1.21530696 7.12790514 3.07853171 10.61328125 5.07421875 C11.77984253 5.73200317 11.77984253 5.73200317 12.9699707 6.40307617 C20.53875184 10.69074366 28.04207155 15.09275876 35.54638672 19.49194336 C42.57376331 23.60673784 49.64034041 27.64501486 56.73828125 31.63671875 C63.86209085 35.64415947 70.944011 39.70763285 77.97412109 43.87695312 C84.72846277 47.87038446 91.54586052 51.75241825 98.36328125 55.63671875 C108.22856129 61.25875231 118.06102872 66.93255357 127.86157227 72.66699219 C136.11043063 77.49152537 144.38389798 82.27244898 152.66845703 87.03540039 C154.68097202 88.19382284 156.66522012 89.40240477 158.62216187 90.65242004 C161.87342987 92.57249991 165.04839108 93.58789482 168.67028809 94.63052368 C175.80684273 97.0887982 182.76701254 100.17701159 186.80078125 106.88671875 C191.83940047 120.72051385 189.65261529 137.90547077 189.23423576 152.32677603 C189.08355032 158.39862383 189.07005769 164.470791 189.04162598 170.54421997 C188.96721128 182.02826065 188.7705479 193.50677683 188.52923822 204.98839104 C188.26038449 218.06628053 188.12887988 231.14444304 188.00854778 244.22441077 C187.75810343 271.11490256 187.33634769 298.00050039 186.80078125 324.88671875 C102.30078125 373.63671875 102.30078125 373.63671875 99.05029297 375.51196289 C96.88521054 376.76107393 94.72017143 378.01026004 92.55517578 379.25952148 C87.11462419 382.39874184 81.67330909 385.53662438 76.23046875 388.671875 C66.76167777 394.12780956 57.29638918 399.58873766 47.86328125 405.10620117 C42.84662367 408.04022871 37.82516165 410.96593757 32.80078125 413.88671875 C31.91024048 414.40446869 31.91024048 414.40446869 31.00170898 414.93267822 C27.18824719 417.14842417 23.37062153 419.35676818 19.54827881 421.55715942 C18.31300299 422.26933847 17.0788048 422.98339038 15.84576416 423.69943237 C14.12285759 424.69938354 12.39548702 425.69163104 10.66796875 426.68359375 C9.67909668 427.25432617 8.69022461 427.82505859 7.67138672 428.41308594 C4.67419889 429.95170014 2.10320942 431.18152398 -1.19921875 431.88671875 C-3.97802734 430.95898437 -3.97802734 430.95898437 -6.84765625 429.29296875 C-7.92281494 428.68195313 -8.99797363 428.0709375 -10.10571289 427.44140625 C-11.26213478 426.75693815 -12.41829674 426.07203071 -13.57421875 425.38671875 C-14.78341295 424.68964976 -15.99363496 423.9943609 -17.20483398 423.30078125 C-20.29557219 421.52443676 -23.37190276 419.72466887 -26.44439697 417.91699219 C-29.08913784 416.36423834 -31.7440675 414.82918808 -34.3984375 413.29296875 C-38.33218082 411.01120224 -42.25854452 408.71741154 -46.1796875 406.4140625 C-52.45970844 402.7274938 -58.7645019 399.0846716 -65.07421875 395.44921875 C-66.15453369 394.82660156 -67.23484863 394.20398438 -68.34790039 393.5625 C-70.53750223 392.30077839 -72.72719971 391.03922274 -74.91699219 389.77783203 C-80.34581817 386.64991727 -85.77241156 383.51813427 -91.19921875 380.38671875 C-93.36587458 379.13669996 -95.53254125 377.88669997 -97.69921875 376.63671875 C-110.69921875 369.13671875 -123.69921875 361.63671875 -136.69921875 354.13671875 C-137.77341064 353.51700195 -138.84760254 352.89728516 -139.9543457 352.25878906 C-142.10395509 351.01861114 -144.25353233 349.77837748 -146.40307617 348.53808594 C-151.47231087 345.61321645 -156.54186811 342.68891042 -161.61257935 339.76660156 C-164.00348472 338.38864937 -166.39420547 337.01037703 -168.78491211 335.63208008 C-170.46905838 334.66130893 -172.15347106 333.69100001 -173.83789062 332.72070312 C-174.86076172 332.13095703 -175.88363281 331.54121094 -176.9375 330.93359375 C-177.83509033 330.41635742 -178.73268066 329.89912109 -179.6574707 329.36621094 C-180.91563599 328.6338623 -180.91563599 328.6338623 -182.19921875 327.88671875 C-183.06424106 327.53934001 -183.92926336 327.19196127 -184.82049847 326.8340559 C-187.19921875 324.88671875 -187.19921875 324.88671875 -187.81445789 321.11298847 C-187.83554184 319.4920668 -187.82861071 317.87064704 -187.80049133 316.24983215 C-187.80476346 315.35705446 -187.80903558 314.46427678 -187.81343716 313.54444522 C-187.82169999 310.54060093 -187.79412783 307.53814032 -187.7668457 304.53442383 C-187.76543595 302.38622572 -187.76622579 300.2380252 -187.76905823 298.08982849 C-187.7704966 292.2470076 -187.74103835 286.40469682 -187.70618844 280.56199479 C-187.67499517 274.46011308 -187.67199975 268.3582205 -187.6660614 262.25627136 C-187.6505023 250.69648639 -187.60944571 239.136937 -187.55931395 227.5772559 C-187.50348488 214.41906606 -187.47595017 201.26086513 -187.45083678 188.10258639 C-187.39853179 161.03049974 -187.31054924 133.95862243 -187.19921875 106.88671875 C-186.47378876 106.46865463 -185.74835876 106.05059052 -185.00094604 105.61985779 C-182.24818219 104.03322055 -179.49560094 102.44626706 -176.74313354 100.8591156 C-174.99059386 99.84867209 -173.23785353 98.83857662 -171.48510742 97.82849121 C-164.08352432 93.56016613 -156.6975728 89.26610269 -149.32421875 84.94921875 C-140.05230575 79.52929562 -130.73987141 74.18348983 -121.40875244 68.8664856 C-113.31214032 64.25187846 -105.24133074 59.59586989 -97.19921875 54.88671875 C-87.97121346 49.48315415 -78.69927205 44.16019514 -69.40820312 38.86621094 C-60.3464675 33.70151681 -51.32329328 28.47412976 -42.32348633 23.20214844 C-32.98875362 17.74302113 -23.59812928 12.38324227 -14.19726562 7.0390625 C-13.06740234 6.39582031 -11.93753906 5.75257812 -10.7734375 5.08984375 C-9.26656372 4.23374512 -9.26656372 4.23374512 -7.72924805 3.36035156 C-1.80072843 -0.09275511 -1.80072843 -0.09275511 0 0 Z " fill="#FE904C" transform="translate(187.19921875,0.11328125)"/>
<path d="M0 0 C3.8386568 1.21530696 7.12790514 3.07853171 10.61328125 5.07421875 C11.77984253 5.73200317 11.77984253 5.73200317 12.9699707 6.40307617 C20.53875184 10.69074366 28.04207155 15.09275876 35.54638672 19.49194336 C42.57376331 23.60673784 49.64034041 27.64501486 56.73828125 31.63671875 C63.86209085 35.64415947 70.944011 39.70763285 77.97412109 43.87695312 C84.72846277 47.87038446 91.54586052 51.75241825 98.36328125 55.63671875 C108.22856129 61.25875231 118.06102872 66.93255357 127.86157227 72.66699219 C136.11043063 77.49152537 144.38389798 82.27244898 152.66845703 87.03540039 C154.68097202 88.19382284 156.66522012 89.40240477 158.62216187 90.65242004 C161.87342987 92.57249991 165.04839108 93.58789482 168.67028809 94.63052368 C175.80684273 97.0887982 182.76701254 100.17701159 186.80078125 106.88671875 C191.83940047 120.72051385 189.65261529 137.90547077 189.23423576 152.32677603 C189.08355032 158.39862383 189.07005769 164.470791 189.04162598 170.54421997 C188.96721128 182.02826065 188.7705479 193.50677683 188.52923822 204.98839104 C188.26038449 218.06628053 188.12887988 231.14444304 188.00854778 244.22441077 C187.75810343 271.11490256 187.33634769 298.00050039 186.80078125 324.88671875 C102.30078125 373.63671875 102.30078125 373.63671875 99.05029297 375.51196289 C96.88521054 376.76107393 94.72017143 378.01026004 92.55517578 379.25952148 C87.11462419 382.39874184 81.67330909 385.53662438 76.23046875 388.671875 C66.76167777 394.12780956 57.29638918 399.58873766 47.86328125 405.10620117 C42.84662367 408.04022871 37.82516165 410.96593757 32.80078125 413.88671875 C31.91024048 414.40446869 31.91024048 414.40446869 31.00170898 414.93267822 C27.18824719 417.14842417 23.37062153 419.35676818 19.54827881 421.55715942 C18.31300299 422.26933847 17.0788048 422.98339038 15.84576416 423.69943237 C14.12285759 424.69938354 12.39548702 425.69163104 10.66796875 426.68359375 C9.67909668 427.25432617 8.69022461 427.82505859 7.67138672 428.41308594 C4.67419889 429.95170014 2.10320942 431.18152398 -1.19921875 431.88671875 C-3.97802734 430.95898437 -3.97802734 430.95898437 -6.84765625 429.29296875 C-7.92281494 428.68195313 -8.99797363 428.0709375 -10.10571289 427.44140625 C-11.26213478 426.75693815 -12.41829674 426.07203071 -13.57421875 425.38671875 C-14.78341295 424.68964976 -15.99363496 423.9943609 -17.20483398 423.30078125 C-20.29557219 421.52443676 -23.37190276 419.72466887 -26.44439697 417.91699219 C-29.08913784 416.36423834 -31.7440675 414.82918808 -34.3984375 413.29296875 C-38.33218082 411.01120224 -42.25854452 408.71741154 -46.1796875 406.4140625 C-52.45970844 402.7274938 -58.7645019 399.0846716 -65.07421875 395.44921875 C-66.15453369 394.82660156 -67.23484863 394.20398438 -68.34790039 393.5625 C-70.53750223 392.30077839 -72.72719971 391.03922274 -74.91699219 389.77783203 C-80.34581817 386.64991727 -85.77241156 383.51813427 -91.19921875 380.38671875 C-93.36587458 379.13669996 -95.53254125 377.88669997 -97.69921875 376.63671875 C-110.69921875 369.13671875 -123.69921875 361.63671875 -136.69921875 354.13671875 C-137.77341064 353.51700195 -138.84760254 352.89728516 -139.9543457 352.25878906 C-142.10395509 351.01861114 -144.25353233 349.77837748 -146.40307617 348.53808594 C-151.47231087 345.61321645 -156.54186811 342.68891042 -161.61257935 339.76660156 C-164.00348472 338.38864937 -166.39420547 337.01037703 -168.78491211 335.63208008 C-170.46905838 334.66130893 -172.15347106 333.69100001 -173.83789062 332.72070312 C-174.86076172 332.13095703 -175.88363281 331.54121094 -176.9375 330.93359375 C-177.83509033 330.41635742 -178.73268066 329.89912109 -179.6574707 329.36621094 C-180.91563599 328.6338623 -180.91563599 328.6338623 -182.19921875 327.88671875 C-183.06424106 327.53934001 -183.92926336 327.19196127 -184.82049847 326.8340559 C-187.19921875 324.88671875 -187.19921875 324.88671875 -187.81445789 321.11298847 C-187.83554184 319.4920668 -187.82861071 317.87064704 -187.80049133 316.24983215 C-187.80476346 315.35705446 -187.80903558 314.46427678 -187.81343716 313.54444522 C-187.82169999 310.54060093 -187.79412783 307.53814032 -187.7668457 304.53442383 C-187.76543595 302.38622572 -187.76622579 300.2380252 -187.76905823 298.08982849 C-187.7704966 292.2470076 -187.74103835 286.40469682 -187.70618844 280.56199479 C-187.67499517 274.46011308 -187.67199975 268.3582205 -187.6660614 262.25627136 C-187.6505023 250.69648639 -187.60944571 239.136937 -187.55931395 227.5772559 C-187.50348488 214.41906606 -187.47595017 201.26086513 -187.45083678 188.10258639 C-187.39853179 161.03049974 -187.31054924 133.95862243 -187.19921875 106.88671875 C-186.47378876 106.46865463 -185.74835876 106.05059052 -185.00094604 105.61985779 C-182.24818219 104.03322055 -179.49560094 102.44626706 -176.74313354 100.8591156 C-174.99059386 99.84867209 -173.23785353 98.83857662 -171.48510742 97.82849121 C-164.08352432 93.56016613 -156.6975728 89.26610269 -149.32421875 84.94921875 C-140.05230575 79.52929562 -130.73987141 74.18348983 -121.40875244 68.8664856 C-113.31214032 64.25187846 -105.24133074 59.59586989 -97.19921875 54.88671875 C-87.97121346 49.48315415 -78.69927205 44.16019514 -69.40820312 38.86621094 C-60.3464675 33.70151681 -51.32329328 28.47412976 -42.32348633 23.20214844 C-32.98875362 17.74302113 -23.59812928 12.38324227 -14.19726562 7.0390625 C-13.06740234 6.39582031 -11.93753906 5.75257812 -10.7734375 5.08984375 C-9.26656372 4.23374512 -9.26656372 4.23374512 -7.72924805 3.36035156 C-1.80072843 -0.09275511 -1.80072843 -0.09275511 0 0 Z M-7.77734375 33.71875 C-9.38125977 34.66137695 -9.38125977 34.66137695 -11.01757812 35.62304688 C-12.16160376 36.31486373 -13.30548067 37.00692659 -14.44921875 37.69921875 C-15.63395361 38.40176178 -16.81950783 39.10292482 -18.00585938 39.80273438 C-20.35432866 41.19098197 -22.69799823 42.58676477 -25.03710938 43.99072266 C-28.27250612 45.93066175 -31.52002569 47.84842775 -34.77392578 49.75708008 C-36.0729416 50.51925941 -37.37076864 51.28346796 -38.66748047 52.04956055 C-44.94081117 55.75393454 -51.25841423 59.38038743 -57.57421875 63.01171875 C-66.61674243 68.21265171 -75.61179983 73.48651901 -84.57421875 78.82421875 C-93.93836566 84.39908933 -103.35353925 89.87056169 -112.82421875 95.26171875 C-125.02725635 102.12908991 -125.02725635 102.12908991 -137.07614905 109.2600472 C-140.44895875 111.31516978 -143.81052586 113.21054613 -147.38717556 114.88904953 C-154.91247074 118.5075047 -154.91247074 118.5075047 -160.11655545 124.74177647 C-161.58920448 130.06849034 -161.30350778 135.52608588 -161.15844727 141.00097656 C-161.16868185 142.82525564 -161.18583246 144.64950695 -161.20933533 146.47366333 C-161.25220933 151.40519834 -161.19551611 156.33095426 -161.11790586 161.26187992 C-161.05111971 166.42932388 -161.06838547 171.5965659 -161.07420349 176.76434326 C-161.07129164 185.43696519 -161.00589139 194.10734614 -160.90063477 202.77929688 C-160.77952575 212.80139446 -160.74630437 222.82074891 -160.76243645 232.84350324 C-160.77688066 242.49637837 -160.74005364 252.14833078 -160.67613029 261.80098724 C-160.64921082 265.90461909 -160.63827353 270.00783288 -160.63983345 274.11154938 C-160.63857615 278.94221522 -160.59179049 283.77038746 -160.50988197 288.60033798 C-160.48681575 290.37150491 -160.47893133 292.14294491 -160.48740005 293.91424179 C-160.86935363 303.17695715 -160.86935363 303.17695715 -157.20633316 311.24309731 C-154.91054801 312.80235006 -152.77788611 313.88245297 -150.19921875 314.88671875 C-149.3067041 315.42151855 -148.41418945 315.95631836 -147.49462891 316.50732422 C-146.75003418 316.91869629 -146.00543945 317.33006836 -145.23828125 317.75390625 C-144.36905029 318.23843262 -143.49981934 318.72295898 -142.60424805 319.22216797 C-141.68683838 319.73021973 -140.76942871 320.23827148 -139.82421875 320.76171875 C-131.10336927 325.63971081 -122.47062584 330.64674007 -113.88671875 335.76171875 C-103.88929879 341.71604871 -93.84599617 347.58194512 -83.75854492 353.38232422 C-76.55649767 357.52408708 -69.37148277 361.69360299 -62.19921875 365.88671875 C-52.76131096 371.40391722 -43.30104828 376.88116658 -33.81567383 382.31640625 C-28.44999143 385.39896625 -23.12065087 388.52527118 -17.84375 391.7578125 C-16.83908691 392.36874756 -15.83442383 392.97968262 -14.79931641 393.60913086 C-12.90462705 394.76547899 -11.01710592 395.93368344 -9.13818359 397.11547852 C-8.29594238 397.62780029 -7.45370117 398.14012207 -6.5859375 398.66796875 C-5.85592529 399.12236328 -5.12591309 399.57675781 -4.3737793 400.04492188 C-1.56936329 401.13054289 -0.04539966 400.74992127 2.80078125 399.88671875 C5.07546997 398.76106945 7.237182 397.59804745 9.42578125 396.32421875 C10.10543945 395.93564697 10.78509766 395.5470752 11.48535156 395.14672852 C18.79508575 390.94259801 26.03111642 386.61069576 33.27636719 382.29678345 C42.27338162 376.94063016 51.32520342 371.68983869 60.42578125 366.51171875 C69.95623895 361.08813005 79.45135531 355.6147181 88.88378906 350.02246094 C105.55655003 340.14450831 122.28503854 330.35649428 139.08203125 320.69140625 C139.68225601 320.34589218 140.28248077 320.00037811 140.90089417 319.64439392 C143.82835727 317.95957501 146.75697915 316.27684958 149.68725586 314.59692383 C150.73405518 313.99517334 151.78085449 313.39342285 152.859375 312.7734375 C153.79064209 312.23936279 154.72190918 311.70528809 155.68139648 311.1550293 C157.71195348 310.05676445 157.71195348 310.05676445 158.80078125 308.88671875 C158.94269814 306.51155545 159.01981933 304.16357186 159.05561829 301.78593445 C159.07058403 301.03400607 159.08554977 300.2820777 159.10096902 299.50736362 C159.14974525 296.96811095 159.19089307 294.42879693 159.23168945 291.8894043 C159.26412551 290.07623509 159.29672723 288.26306885 159.32948303 286.4499054 C159.61842832 269.85852039 159.78542963 253.2654523 159.91915607 236.67216778 C160.01117894 225.51478275 160.14077605 214.36042463 160.36450195 203.20483398 C160.55960583 193.47490309 160.68387276 183.7470944 160.72322148 174.01524001 C160.74638097 168.86476319 160.80391786 163.72004044 160.94594765 158.57135582 C162.48811913 138.52649384 162.48811913 138.52649384 156.85845184 120.02388191 C152.2584541 115.71853647 147.21424167 113.47009299 141.23367119 111.67830467 C137.62830605 110.50523217 134.71077633 108.66947843 131.49609375 106.671875 C129.30701229 105.42918628 127.11691064 104.18829296 124.92578125 102.94921875 C114.62450028 97.09836047 104.39447407 91.13695041 94.20703125 85.08984375 C78.89340708 76.0022697 63.46615502 67.10770408 48.03588867 58.22021484 C41.96222103 54.71929616 35.90109212 51.19910651 29.86328125 47.63671875 C29.21012939 47.25233643 28.55697754 46.8679541 27.8840332 46.47192383 C25.0283805 44.79123295 22.17403233 43.10857819 19.32568359 41.41552734 C16.73786266 39.87853911 14.1447214 38.35085159 11.55078125 36.82421875 C10.35207397 36.10733887 10.35207397 36.10733887 9.12915039 35.37597656 C8.37625732 34.93479492 7.62336426 34.49361328 6.84765625 34.0390625 C6.18604492 33.64710693 5.52443359 33.25515137 4.84277344 32.85131836 C-0.34508135 30.40067103 -2.86310376 30.78521575 -7.77734375 33.71875 Z " fill="#171415" transform="translate(187.19921875,0.11328125)"/>
<path d="M0 0 C0.33 0 0.66 0 1 0 C1 59.73 1 119.46 1 181 C2.65 181.66 4.3 182.32 6 183 C7.36365283 183.95824253 8.70794169 184.94721175 10 186 C9.01 186.33 8.02 186.66 7 187 C7 186.34 7 185.68 7 185 C6.21625 184.87625 5.4325 184.7525 4.625 184.625 C2 184 2 184 0 182 C-0.94177406 177.84496394 -1.12312509 173.85987442 -1.11523438 169.61083984 C-1.1152092 168.97233219 -1.11518402 168.33382454 -1.11515808 167.67596817 C-1.11330452 165.47924818 -1.1036251 163.28263527 -1.09375 161.0859375 C-1.08990535 159.44745941 -1.08629426 157.80898076 -1.08288574 156.17050171 C-1.00919306 128.71352051 -0.76443836 101.25646693 -0.55461884 73.80025077 C-0.49301203 65.73189274 -0.43307834 57.66352251 -0.37324238 49.59515119 C-0.25060585 33.06342053 -0.12600064 16.53170537 0 0 Z " fill="#200000" transform="translate(26,128)"/>
<path d="M0 0 C0.66 0 1.32 0 2 0 C3.49106457 2.98212913 3.11941467 5.71609658 3 9 C2.67 9.33 2.34 9.66 2 10 C1.90013025 12.84335048 1.86122119 15.65697163 1.875 18.5 C1.87113281 19.29792969 1.86726563 20.09585937 1.86328125 20.91796875 C1.4910039 24.7683932 1.4910039 24.7683932 3 28 C3.42099366 33.28689712 3.5391651 38.22039511 1 43 C-0.00016187 45.00032373 -0.49396008 46.83125748 -1 49 C-1 48.34 -1 47.68 -1 47 C-1.99 47 -2.98 47 -4 47 C-3.67 48.65 -3.34 50.3 -3 52 C-3.495 51.649375 -3.99 51.29875 -4.5 50.9375 C-8.22697603 49.53988399 -11.09802848 50.34967141 -15 51 C-12.70571872 49.00175502 -10.56946654 47.25019575 -7.77076721 46.02058411 C-3.00648824 43.99963461 -3.00648824 43.99963461 -0.16867065 39.93173218 C0.13967436 37.3587002 0.16896274 34.91472917 0.09765625 32.32421875 C0.10711777 31.3990596 0.11657928 30.47390045 0.12632751 29.52070618 C0.14687631 26.57466803 0.10554018 23.63322782 0.0625 20.6875 C0.0655752 18.6868385 0.07269062 16.68617886 0.08398438 14.68554688 C0.10281278 9.78915151 0.06615727 4.89595485 0 0 Z " fill="#1D0F0B" transform="translate(346,267)"/>
<path d="M0 0 C0.66 0 1.32 0 2 0 C1.99777939 0.61165512 1.99555878 1.22331024 1.99327087 1.85350037 C1.97121878 8.19570331 1.95609373 14.53789544 1.94506836 20.88012695 C1.94002659 23.24992312 1.93319335 25.61971615 1.92456055 27.98950195 C1.9124881 31.38754039 1.90677029 34.78553785 1.90234375 38.18359375 C1.89718246 39.25024765 1.89202118 40.31690155 1.88670349 41.4158783 C1.88662796 42.39681961 1.88655243 43.37776093 1.88647461 44.38842773 C1.884254 45.25668686 1.88203339 46.12494598 1.87974548 47.01951599 C1.78045333 49.00143681 1.78045333 49.00143681 3 50 C3.23728814 56.52542373 3.23728814 56.52542373 2 59 C1.90340872 60.70747864 1.86924463 62.41869897 1.8671875 64.12890625 C1.86589844 65.16466797 1.86460937 66.20042969 1.86328125 67.26757812 C1.86714844 68.35490234 1.87101562 69.44222656 1.875 70.5625 C1.87113281 71.62275391 1.86726563 72.68300781 1.86328125 73.77539062 C1.87087958 79.93383613 2.19273254 85.89423899 3 92 C2.01 92 1.02 92 0 92 C0 61.64 0 31.28 0 0 Z " fill="#3C0B04" transform="translate(346,158)"/>
<path d="M0 0 C-3.69657355 2.20904042 -7.3953802 4.41428088 -11.09619141 6.61621094 C-12.35167619 7.36389898 -13.60657314 8.11257508 -14.86083984 8.86230469 C-21.46528184 12.80918237 -28.0429045 16.69537964 -35 20 C-35 19.01 -35 18.02 -35 17 C-29.375 14 -29.375 14 -26 14 C-26 13.34 -26 12.68 -26 12 C-21.61538462 9 -21.61538462 9 -19 9 C-18.67 7.35 -18.34 5.7 -18 4 C-17.34 4 -16.68 4 -16 4 C-15.67 3.34 -15.34 2.68 -15 2 C-12.69 2.33 -10.38 2.66 -8 3 C-8 2.34 -8 1.68 -8 1 C-3.375 -1.125 -3.375 -1.125 0 0 Z " fill="#E78D55" transform="translate(245,368)"/>
<path d="M0 0 C0.33 0.99 0.66 1.98 1 3 C-0.72526042 3.94401042 -2.45052083 4.88802083 -4.17578125 5.83203125 C-6.04802309 6.93186747 -6.04802309 6.93186747 -7.48046875 8.53125 C-9.2342051 10.2263782 -10.71364287 10.86908807 -13 11.6875 C-14.0209375 12.06455078 -14.0209375 12.06455078 -15.0625 12.44921875 C-17 13 -17 13 -20 13 C-20 13.66 -20 14.32 -20 15 C-20.66 15 -21.32 15 -22 15 C-22 15.66 -22 16.32 -22 17 C-25.52948291 18.66670026 -27.28272326 19.13583456 -31 18 C-30.23856689 17.56131592 -29.47713379 17.12263184 -28.69262695 16.6706543 C-25.85030036 15.03282451 -23.00820408 13.39459648 -20.16625977 11.75610352 C-18.93946294 11.04891404 -17.71257625 10.34188043 -16.4855957 9.63500977 C-14.71541709 8.61516264 -12.94556931 7.59474343 -11.17578125 6.57421875 C-10.11270752 5.96151123 -9.04963379 5.34880371 -7.9543457 4.7175293 C-5.28855273 3.16775212 -2.63954753 1.5939709 0 0 Z " fill="#DF8B55" transform="translate(142,56)"/>
<path d="M0 0 C0.33 0 0.66 0 1 0 C1.33 14.19 1.66 28.38 2 43 C3.65 43.66 5.3 44.32 7 45 C8.36365283 45.95824253 9.70794169 46.94721175 11 48 C9.515 48.495 9.515 48.495 8 49 C8 48.34 8 47.68 8 47 C7.21625 46.87625 6.4325 46.7525 5.625 46.625 C3 46 3 46 1 44 C-0.19167916 39.05370881 -0.13024916 34.15495835 -0.09765625 29.1015625 C-0.0962413 28.26660248 -0.09482635 27.43164246 -0.09336853 26.57138062 C-0.08780174 23.92254958 -0.07525547 21.2738052 -0.0625 18.625 C-0.0574807 16.82161581 -0.05291855 15.01823029 -0.04882812 13.21484375 C-0.0378432 8.80986279 -0.02060163 4.40494606 0 0 Z " fill="#20110C" transform="translate(25,266)"/>
<path d="M0 0 C0.66 0 1.32 0 2 0 C3.49106457 2.98212913 3.11941467 5.71609658 3 9 C2.67 9.33 2.34 9.66 2 10 C1.91241997 11.99964982 1.89303424 14.0023611 1.90234375 16.00390625 C1.90556641 17.21884766 1.90878906 18.43378906 1.91210938 19.68554688 C1.92048828 20.96494141 1.92886719 22.24433594 1.9375 23.5625 C1.94426758 25.48739258 1.94426758 25.48739258 1.95117188 27.45117188 C1.96300455 30.63416022 1.97948932 33.81705762 2 37 C1.34 37 0.68 37 0 37 C0 24.79 0 12.58 0 0 Z " fill="#430D04" transform="translate(346,267)"/>
<path d="M0 0 C2.76276177 0.52268466 5.3260876 1.10869587 8 2 C8 2.66 8 3.32 8 4 C8.825 4.2475 9.65 4.495 10.5 4.75 C14.52373471 6.18704811 18.21979024 8.02354515 22 10 C22 10.66 22 11.32 22 12 C24.64 12.66 27.28 13.32 30 14 C30.33 15.32 30.66 16.64 31 18 C27.02724696 16.52908578 23.48447373 14.6510734 19.82421875 12.5234375 C18.9691851 12.02827133 18.9691851 12.02827133 18.09687805 11.52310181 C16.29191648 10.47685993 14.48968598 9.42601425 12.6875 8.375 C11.45786036 7.66115152 10.22804438 6.94760669 8.99804688 6.234375 C5.99665008 4.49309126 2.99768333 2.74767064 0 1 C0 0.67 0 0.34 0 0 Z " fill="#301407" transform="translate(312,103)"/>
<path d="M0 0 C2.97 0.495 2.97 0.495 6 1 C6 1.66 6 2.32 6 3 C9.7763932 3.2981424 9.7763932 3.2981424 12 2 C12.20625 2.78375 12.4125 3.5675 12.625 4.375 C13.80676612 7.30916286 13.80676612 7.30916286 17.125 8.3125 C18.07375 8.539375 19.0225 8.76625 20 9 C20 9.66 20 10.32 20 11 C21.32 10.67 22.64 10.34 24 10 C24 11.65 24 13.3 24 15 C18.0847699 11.82114603 12.20432673 8.58403939 6.375 5.25 C4.87066406 4.39148437 4.87066406 4.39148437 3.3359375 3.515625 C1 2 1 2 0 0 Z " fill="#28140A" transform="translate(205,40)"/>
<path d="M0 0 C9.05985221 4.89462355 18.03335842 9.9372789 27 15 C26.34 16.32 25.68 17.64 25 19 C24.34 18.67 23.68 18.34 23 18 C23 17.34 23 16.68 23 16 C20.92047027 14.54937227 18.86232119 13.2294501 16.6875 11.9375 C16.09259766 11.57333984 15.49769531 11.20917969 14.88476562 10.83398438 C12.2795848 9.25923261 9.89731298 7.96577099 7 7 C7 6.34 7 5.68 7 5 C5.5459375 4.5978125 5.5459375 4.5978125 4.0625 4.1875 C3.051875 3.795625 2.04125 3.40375 1 3 C0.67 2.01 0.34 1.02 0 0 Z " fill="#E18D59" transform="translate(203,40)"/>
<path d="M0 0 C0.165 0.928125 0.33 1.85625 0.5 2.8125 C1.62702923 6.05090608 1.62702923 6.05090608 3.87890625 6.9609375 C5.3130453 7.43812867 6.76193877 7.87342676 8.22265625 8.26171875 C8.80917969 8.50535156 9.39570313 8.74898437 10 9 C10.33 9.99 10.66 10.98 11 12 C10.01 12.495 10.01 12.495 9 13 C7.21240234 12.19555664 7.21240234 12.19555664 5.0859375 10.91015625 C4.32539063 10.45576172 3.56484375 10.00136719 2.78125 9.53320312 C1.9871875 9.04787109 1.193125 8.56253906 0.375 8.0625 C-0.42679687 7.58103516 -1.22859375 7.09957031 -2.0546875 6.60351562 C-4.04088542 5.40943235 -6.02227542 4.20804799 -8 3 C-2 0 -2 0 0 0 Z " fill="#28130C" transform="translate(298,88)"/>
<path d="M0 0 C2.02237052 0.95394836 4.0282696 1.94535351 6 3 C5.01 4.485 5.01 4.485 4 6 C3.34 6 2.68 6 2 6 C2 5.01 2 4.02 2 3 C0.989375 3.165 -0.02125 3.33 -1.0625 3.5 C-4.76262933 3.96985769 -8.27607391 4.07599849 -12 4 C-5.31868132 -1.45054945 -5.31868132 -1.45054945 0 0 Z " fill="#E58E57" transform="translate(190,32)"/>
<path d="M0 0 C0.99 0.33 1.98 0.66 3 1 C2.34 2.32 1.68 3.64 1 5 C1.99 5 2.98 5 4 5 C4 4.34 4 3.68 4 3 C5.32 3.33 6.64 3.66 8 4 C3.38 6.64 -1.24 9.28 -6 12 C-6.33 11.01 -6.66 10.02 -7 9 C-5.68 9 -4.36 9 -3 9 C-2.814375 7.329375 -2.814375 7.329375 -2.625 5.625 C-2 2 -2 2 0 0 Z " fill="#EC8E53" transform="translate(323,314)"/>
<path d="M0 0 C0.33 0.66 0.66 1.32 1 2 C0.67 2.66 0.34 3.32 0 4 C-2.32156597 4.40729228 -4.6568787 4.74438677 -7 5 C-7 5.66 -7 6.32 -7 7 C-6.01 7 -5.02 7 -4 7 C-4.33 7.99 -4.66 8.98 -5 10 C-7.64 9.67 -10.28 9.34 -13 9 C-13.33 9.66 -13.66 10.32 -14 11 C-14.66 10.34 -15.32 9.68 -16 9 C-10.72 6.03 -5.44 3.06 0 0 Z " fill="#2C150B" transform="translate(304,333)"/>
<path d="M0 0 C0 0.99 0 1.98 0 3 C-0.70125 3.37511719 -1.4025 3.75023438 -2.125 4.13671875 C-7.34119226 6.95034419 -12.401714 9.79343516 -17.24609375 13.21484375 C-19.52924989 14.23692478 -20.65484631 13.68116371 -23 13 C-22.48091064 12.71278076 -21.96182129 12.42556152 -21.42700195 12.12963867 C-19.05499613 10.8165026 -16.68374289 9.50201321 -14.3125 8.1875 C-13.49587891 7.73568359 -12.67925781 7.28386719 -11.83789062 6.81835938 C-7.85197264 4.60754657 -3.88682498 2.38275829 0 0 Z " fill="#DC8B57" transform="translate(65,101)"/>
<path d="M0 0 C0.66 0.33 1.32 0.66 2 1 C1.34 1.61875 0.68 2.2375 0 2.875 C-2.2284549 4.75637427 -2.2284549 4.75637427 -2 7 C-4.33214148 8.20628008 -6.49642139 9.1654738 -9 10 C-9.99 9.01 -10.98 8.02 -12 7 C-10.04754815 5.80285445 -8.08785003 4.61751926 -6.125 3.4375 C-5.03445312 2.77621094 -3.94390625 2.11492188 -2.8203125 1.43359375 C-1.88960937 0.96050781 -0.95890625 0.48742187 0 0 Z " fill="#2C2B2C" transform="translate(152,19)"/>
<path d="M0 0 C0.66 0 1.32 0 2 0 C2.33 0.99 2.66 1.98 3 3 C-2.28 5.97 -7.56 8.94 -13 12 C-13 11.01 -13 10.02 -13 9 C-12.01 9 -11.02 9 -10 9 C-10 8.34 -10 7.68 -10 7 C-8.1875 5.3125 -8.1875 5.3125 -6 4 C-5.01 4.33 -4.02 4.66 -3 5 C-2.690625 4.360625 -2.38125 3.72125 -2.0625 3.0625 C-1 1 -1 1 0 0 Z " fill="#E38C53" transform="translate(282,342)"/>
<path d="M0 0 C2.31 0 4.62 0 7 0 C3.93320535 3.42409111 0.88283477 5.27342685 -3.25 7.25 C-4.32765625 7.77078125 -5.4053125 8.2915625 -6.515625 8.828125 C-7.33546875 9.21484375 -8.1553125 9.6015625 -9 10 C-9 8.68 -9 7.36 -9 6 C-6.03 5.01 -3.06 4.02 0 3 C0 2.01 0 1.02 0 0 Z " fill="#28130A" transform="translate(100,76)"/>
<path d="M0 0 C0.99 0 1.98 0 3 0 C3 0.66 3 1.32 3 2 C4.65 2 6.3 2 8 2 C8.33 1.34 8.66 0.68 9 0 C9.99 0.99 10.98 1.98 12 3 C9.375 4.625 9.375 4.625 6 6 C2.625 5.1875 2.625 5.1875 0 4 C0 2.68 0 1.36 0 0 Z " fill="#211F20" transform="translate(182,426)"/>
<path d="M0 0 C-1.27004977 3.81014932 -2.51113397 4.17627457 -6 6 C-6.886875 6.350625 -7.77375 6.70125 -8.6875 7.0625 C-11.1427942 7.88303421 -11.1427942 7.88303421 -13 10 C-13.99 9.34 -14.98 8.68 -16 8 C-13.71125827 6.66141476 -11.41930344 5.32898986 -9.125 4 C-8.47402344 3.6184375 -7.82304688 3.236875 -7.15234375 2.84375 C-2.2265625 0 -2.2265625 0 0 0 Z " fill="#383637" transform="translate(73,66)"/>
<path d="M0 0 C5.06998019 0.65419099 9.41990777 2.8546409 14 5 C14 5.66 14 6.32 14 7 C14.99 7 15.98 7 17 7 C17 7.66 17 8.32 17 9 C17.66 9 18.32 9 19 9 C18.67 9.66 18.34 10.32 18 11 C12.06 7.7 6.12 4.4 0 1 C0 0.67 0 0.34 0 0 Z " fill="#331508" transform="translate(231,56)"/>
<path d="M0 0 C-4.49101628 4.04191465 -9.58984989 6.43674441 -15 9 C-13.74381926 5.23145777 -12.33985294 4.92041544 -9 3 C-8.67 2.34 -8.34 1.68 -8 1 C-5.07175348 0.02391783 -3.04386724 -0.08226668 0 0 Z " fill="#261409" transform="translate(130,63)"/>
<path d="M0 0 C5.77372322 2.83458444 11.45217559 5.74366828 17 9 C14 10 14 10 10 10 C10 9.01 10 8.02 10 7 C9.01 7 8.02 7 7 7 C7 6.34 7 5.68 7 5 C5.68 5 4.36 5 3 5 C3 4.34 3 3.68 3 3 C2.01 2.67 1.02 2.34 0 2 C0 1.34 0 0.68 0 0 Z " fill="#2B1507" transform="translate(122,364)"/>
<path d="M0 0 C0.66 1.32 1.32 2.64 2 4 C1.01 4.33 0.02 4.66 -1 5 C-1.33 5.99 -1.66 6.98 -2 8 C-2.66 8 -3.32 8 -4 8 C-4 7.34 -4 6.68 -4 6 C-5.32 5.67 -6.64 5.34 -8 5 C-4.04 2.525 -4.04 2.525 0 0 Z " fill="#F19156" transform="translate(36,118)"/>
<path d="M0 0 C-1.78809697 1.17213045 -3.58059125 2.33755526 -5.375 3.5 C-6.37273437 4.1496875 -7.37046875 4.799375 -8.3984375 5.46875 C-11 7 -11 7 -13 7 C-13 5.68 -13 4.36 -13 3 C-11.21189234 2.30329584 -9.41937948 1.61788811 -7.625 0.9375 C-6.62726563 0.55464844 -5.62953125 0.17179687 -4.6015625 -0.22265625 C-2 -1 -2 -1 0 0 Z " fill="#2A1409" transform="translate(169,41)"/>
<path d="M0 0 C1.65 0 3.3 0 5 0 C2.61290725 2.63836567 0.2359385 4.49491232 -3 6 C-6.3125 5.6875 -6.3125 5.6875 -9 5 C-9 4.67 -9 4.34 -9 4 C-7.35 4 -5.7 4 -4 4 C-3.67 3.01 -3.34 2.02 -3 1 C-2.01 1.33 -1.02 1.66 0 2 C0 1.34 0 0.68 0 0 Z " fill="#DC8B57" transform="translate(192,395)"/>
<path d="M0 0 C0.33 0 0.66 0 1 0 C1 4.29 1 8.58 1 13 C3.475 13.99 3.475 13.99 6 15 C7.36365283 15.95824253 8.70794169 16.94721175 10 18 C9.01 18.33 8.02 18.66 7 19 C7 18.34 7 17.68 7 17 C6.21625 16.87625 5.4325 16.7525 4.625 16.625 C2 16 2 16 0 14 C-0.1953125 10.7421875 -0.1953125 10.7421875 -0.125 6.875 C-0.10695313 5.59367187 -0.08890625 4.31234375 -0.0703125 2.9921875 C-0.04710938 2.00476563 -0.02390625 1.01734375 0 0 Z " fill="#310D03" transform="translate(26,296)"/>
<path d="M0 0 C3.96 1.98 7.92 3.96 12 6 C12 6.33 12 6.66 12 7 C9.36 7.33 6.72 7.66 4 8 C3.67 7.34 3.34 6.68 3 6 C3.66 6 4.32 6 5 6 C3.74458443 3.48916886 2.49936512 3.12874554 0 2 C0 1.34 0 0.68 0 0 Z " fill="#2A150A" transform="translate(139,374)"/>
<path d="M0 0 C5.59537572 1.78034682 5.59537572 1.78034682 8.1875 3.1875 C10.16687603 4.3202776 10.16687603 4.3202776 13 3 C13.66 3.66 14.32 4.32 15 5 C14.67 5.99 14.34 6.98 14 8 C8.76481294 6.56032356 4.36973991 4.18303389 0 1 C0 0.67 0 0.34 0 0 Z " fill="#E48D57" transform="translate(72,334)"/>
<path d="M0 0 C1.2684375 0.433125 1.2684375 0.433125 2.5625 0.875 C6.02361041 2.00772704 9.49372557 3.01824316 13 4 C13 4.66 13 5.32 13 6 C13.66 6.33 14.32 6.66 15 7 C15 7.66 15 8.32 15 9 C11.32305352 7.62859834 8.04681411 5.96304199 4.6875 3.9375 C3.80449219 3.41027344 2.92148438 2.88304687 2.01171875 2.33984375 C1.34785156 1.89769531 0.68398437 1.45554687 0 1 C0 0.67 0 0.34 0 0 Z " fill="#D98A55" transform="translate(120,362)"/>
<path d="M0 0 C1.93873142 0.95583968 3.8759433 1.91476192 5.8125 2.875 C6.89144531 3.40867187 7.97039062 3.94234375 9.08203125 4.4921875 C12 6 12 6 15 8 C15 8.66 15 9.32 15 10 C11.2089881 8.55049545 7.6125362 6.84827434 4 5 C4 4.34 4 3.68 4 3 C2.68 2.67 1.36 2.34 0 2 C0 1.34 0 0.68 0 0 Z " fill="#311306" transform="translate(72,335)"/>
<path d="M0 0 C2.91517292 1.07401108 4.77810176 1.77810176 7 4 C4 6 4 6 1 7 C0.34 6.67 -0.32 6.34 -1 6 C-0.67 4.02 -0.34 2.04 0 0 Z " fill="#F58F55" transform="translate(338,119)"/>
<path d="M0 0 C1.67542976 0.28604898 3.34385343 0.61781233 5 1 C5 2.32 5 3.64 5 5 C2.36 5.33 -0.28 5.66 -3 6 C-1.125 1.125 -1.125 1.125 0 0 Z " fill="#27140A" transform="translate(185,27)"/>
<path d="M0 0 C0.33 0.66 0.66 1.32 1 2 C0.195625 2.45375 -0.60875 2.9075 -1.4375 3.375 C-4.08856572 4.74725665 -4.08856572 4.74725665 -5 7 C-7.06640625 7.6328125 -7.06640625 7.6328125 -9.5625 8.125 C-10.38878906 8.29257812 -11.21507812 8.46015625 -12.06640625 8.6328125 C-12.70449219 8.75398438 -13.34257812 8.87515625 -14 9 C-9.7045025 5.25876024 -5.00099548 2.65848126 0 0 Z " fill="#301407" transform="translate(223,380)"/>
<path d="M0 0 C1.98 0 3.96 0 6 0 C2.98112756 3.48331435 0.43090471 4.79157144 -4 6 C-4 5.34 -4 4.68 -4 4 C-3.34 4 -2.68 4 -2 4 C-1.34 2.68 -0.68 1.36 0 0 Z " fill="#E98D53" transform="translate(290,337)"/>
<path d="M0 0 C1.65 0 3.3 0 5 0 C-3.44827586 7 -3.44827586 7 -7 7 C-7 5 -7 5 -5 3 C-5 2.67 -5 2.34 -5 2 C-3.35 1.67 -1.7 1.34 0 1 C0 0.67 0 0.34 0 0 Z " fill="#2D160A" transform="translate(53,105)"/>
<path d="M0 0 C2.64 0 5.28 0 8 0 C7.67 0.99 7.34 1.98 7 3 C8.32 3.33 9.64 3.66 11 4 C11 4.99 11 5.98 11 7 C6.89188572 5.55007731 3.53144334 3.54592427 0 1 C0 0.67 0 0.34 0 0 Z " fill="#29140B" transform="translate(277,82)"/>
<path d="M0 0 C0.66 0.33 1.32 0.66 2 1 C1 4 1 4 -2.3125 5.75 C-5.93653994 6.97848812 -6.6258971 7.10235591 -10 6 C-8.3811004 4.96951963 -6.75467511 3.95085322 -5.125 2.9375 C-4.22007812 2.36902344 -3.31515625 1.80054688 -2.3828125 1.21484375 C-1.20332031 0.61349609 -1.20332031 0.61349609 0 0 Z " fill="#DD8B57" transform="translate(176,36)"/>
<path d="M0 0 C0.66 0 1.32 0 2 0 C3.4783226 2.95664519 3.06032783 5.74229737 3 9 C2.01 9 1.02 9 0 9 C0 6.03 0 3.06 0 0 Z " fill="#5C120E" transform="translate(346,267)"/>
<path d="M0 0 C4.19786372 0.21527506 5.47077504 1.35308128 9 4 C5.04 3.67 1.08 3.34 -3 3 C-2.01 2.01 -1.02 1.02 0 0 Z " fill="#363536" transform="translate(185,0)"/>
<path d="M0 0 C-0.33 0.99 -0.66 1.98 -1 3 C-4.5625 4.6875 -4.5625 4.6875 -8 6 C-8 3 -8 3 -6 1 C-3 0 -3 0 0 0 Z " fill="#282627" transform="translate(223,410)"/>
<path d="M0 0 C0 0.99 0 1.98 0 3 C-1.32 3.33 -2.64 3.66 -4 4 C-4 5.32 -4 6.64 -4 8 C-5.32 7.67 -6.64 7.34 -8 7 C-8 6.34 -8 5.68 -8 5 C-6.25 3.7109375 -6.25 3.7109375 -4 2.375 C-3.2575 1.92898438 -2.515 1.48296875 -1.75 1.0234375 C-1.1725 0.68570312 -0.595 0.34796875 0 0 Z " fill="#241108" transform="translate(194,397)"/>
<path d="M0 0 C1.65 0 3.3 0 5 0 C5 0.66 5 1.32 5 2 C6.175625 2.4640625 6.175625 2.4640625 7.375 2.9375 C10 4 10 4 12 5 C12 5.66 12 6.32 12 7 C7.69235185 5.43358249 3.93828536 3.31663844 0 1 C0 0.67 0 0.34 0 0 Z " fill="#DD8A57" transform="translate(106,354)"/>
<path d="M0 0 C3.96 1.98 7.92 3.96 12 6 C8.35839192 7.21386936 7.66834531 6.6674695 4.3125 5.0625 C3.50425781 4.68222656 2.69601563 4.30195313 1.86328125 3.91015625 C1.24839844 3.60980469 0.63351563 3.30945313 0 3 C0 2.01 0 1.02 0 0 Z " fill="#2F1507" transform="translate(158,385)"/>
<path d="M0 0 C0.66 0.33 1.32 0.66 2 1 C1.0625 2.875 1.0625 2.875 -1 5 C-3.95485056 5.95351561 -6.9369519 6.51196718 -10 7 C-6.81404865 4.36021174 -3.69029454 1.89501612 0 0 Z " fill="#DD8C57" transform="translate(85,89)"/>
<path d="M0 0 C2.97 0.99 5.94 1.98 9 3 C9 3.66 9 4.32 9 5 C9.99 5.33 10.98 5.66 12 6 C11.01 6.495 11.01 6.495 10 7 C7.6171875 5.8203125 7.6171875 5.8203125 4.875 4.125 C3.96492188 3.57070312 3.05484375 3.01640625 2.1171875 2.4453125 C1.41851562 1.96835938 0.71984375 1.49140625 0 1 C0 0.67 0 0.34 0 0 Z " fill="#2F1407" transform="translate(263,74)"/>
<path d="M0 0 C0.33 0.66 0.66 1.32 1 2 C1.66 2.33 2.32 2.66 3 3 C2.34 3 1.68 3 1 3 C1 4.32 1 5.64 1 7 C-1.475 6.01 -1.475 6.01 -4 5 C-3.34 4.67 -2.68 4.34 -2 4 C-2 3.34 -2 2.68 -2 2 C-1.34 2 -0.68 2 0 2 C0 1.34 0 0.68 0 0 Z " fill="#262425" transform="translate(75,361)"/>
<path d="M0 0 C-0.33 1.65 -0.66 3.3 -1 5 C-3.64 5 -6.28 5 -9 5 C-2.87096774 0 -2.87096774 0 0 0 Z " fill="#2F180D" transform="translate(271,353)"/>
<path d="M0 0 C4.30764815 1.56641751 8.06171464 3.68336156 12 6 C8.37673261 7.2077558 7.35853631 6.54311128 4 5 C4 4.34 4 3.68 4 3 C2.68 2.67 1.36 2.34 0 2 C0 1.34 0 0.68 0 0 Z " fill="#2F1609" transform="translate(89,345)"/>
<path d="M0 0 C3.3 1.65 6.6 3.3 10 5 C9.01 5.33 8.02 5.66 7 6 C6.67 5.67 6.34 5.34 6 5 C3.67182036 4.63239269 1.3381615 4.29758419 -1 4 C-0.67 2.68 -0.34 1.36 0 0 Z " fill="#2B1709" transform="translate(48,321)"/>
<path d="M0 0 C2.53559113 1.26779557 4.10056922 2.91062614 6 5 C6 5.66 6 6.32 6 7 C2.06326356 5.68775452 -0.22719294 4.08089673 -3 1 C-2.01 0.67 -1.02 0.34 0 0 Z " fill="#E68E56" transform="translate(57,322)"/>
<path d="M0 0 C0.66 0 1.32 0 2 0 C3.35439668 2.70879335 3.06501451 5.00933268 3 8 C2.01 8 1.02 8 0 8 C0 5.36 0 2.72 0 0 Z " fill="#5A110E" transform="translate(346,242)"/>
<path d="M0 0 C3.96 1.98 7.92 3.96 12 6 C11.34 6.66 10.68 7.32 10 8 C7.36 6.68 4.72 5.36 2 4 C2 3.34 2 2.68 2 2 C1.34 2 0.68 2 0 2 C0 1.34 0 0.68 0 0 Z " fill="#DF8F5F" transform="translate(297,95)"/>
<path d="M0 0 C-0.98093954 2.45234885 -1.68703828 3.7809268 -3.875 5.3125 C-6.37345514 6.12082372 -7.52928976 5.71847013 -10 5 C-8.71186658 4.16121545 -7.41936744 3.32913217 -6.125 2.5 C-5.40570313 2.0359375 -4.68640625 1.571875 -3.9453125 1.09375 C-2 0 -2 0 0 0 Z " fill="#DD8C59" transform="translate(106,78)"/>
<path d="M0 0 C4.12751449 0.60698743 7.3321148 2.03810791 11 4 C10.67 4.99 10.34 5.98 10 7 C8.33073546 6.02526874 6.66464358 5.04510211 5 4.0625 C4.071875 3.51722656 3.14375 2.97195313 2.1875 2.41015625 C1.465625 1.94480469 0.74375 1.47945313 0 1 C0 0.67 0 0.34 0 0 Z " fill="#DF8E5B" transform="translate(144,376)"/>
<path d="M0 0 C2.64 0.33 5.28 0.66 8 1 C8.33 1.99 8.66 2.98 9 4 C8.01 4.495 8.01 4.495 7 5 C4.5249829 3.88568235 2.32116581 2.41849022 0 1 C0 0.67 0 0.34 0 0 Z " fill="#34170A" transform="translate(300,96)"/>
<path d="M0 0 C1.65 0 3.3 0 5 0 C2.64722731 2.72426311 0.37503669 3.8141763 -3 5 C-3 4.01 -3 3.02 -3 2 C-2.01 2 -1.02 2 0 2 C0 1.34 0 0.68 0 0 Z " fill="#DD8B5A" transform="translate(300,332)"/>
<path d="M0 0 C-1 3 -1 3 -4.375 4.75 C-8 6 -8 6 -11 5 C-9.54462432 4.16151196 -8.08559627 3.32936066 -6.625 2.5 C-5.81289063 2.0359375 -5.00078125 1.571875 -4.1640625 1.09375 C-2 0 -2 0 0 0 Z " fill="#37190A" transform="translate(321,324)"/>
<path d="M0 0 C-1.24546405 3.73639216 -2.63404953 4.18756513 -6 6 C-6 4.68 -6 3.36 -6 2 C-2.25 0 -2.25 0 0 0 Z " fill="#2E2D2D" transform="translate(73,66)"/>
<path d="M0 0 C0 0.99 0 1.98 0 3 C-2.8125 4.5625 -2.8125 4.5625 -6 6 C-6.99 5.67 -7.98 5.34 -9 5 C-6.03 3.35 -3.06 1.7 0 0 Z " fill="#331606" transform="translate(345,309)"/>
<path d="M0 0 C1.67542976 0.28604898 3.34385343 0.61781233 5 1 C5.33 2.32 5.66 3.64 6 5 C3.08482708 3.92598892 1.22189824 3.22189824 -1 1 C-0.67 0.67 -0.34 0.34 0 0 Z " fill="#3C180C" transform="translate(337,116)"/>
<path d="M0 0 C0 0.66 0 1.32 0 2 C-0.66 2 -1.32 2 -2 2 C-2 2.66 -2 3.32 -2 4 C-4.31 4.33 -6.62 4.66 -9 5 C-2.87096774 0 -2.87096774 0 0 0 Z " fill="#3F3D3D" transform="translate(19,97)"/>
<path d="M0 0 C2.91517292 1.07401108 4.77810176 1.77810176 7 4 C5.35 4.66 3.7 5.32 2 6 C1.34 4.02 0.68 2.04 0 0 Z " fill="#3C3A3B" transform="translate(336,86)"/>
<path d="M0 0 C1.32 0.33 2.64 0.66 4 1 C3.34 1 2.68 1 2 1 C2.33 2.32 2.66 3.64 3 5 C1.35 4.67 -0.3 4.34 -2 4 C-2 3.34 -2 2.68 -2 2 C-1.34 2 -0.68 2 0 2 C0 1.34 0 0.68 0 0 Z " fill="#1E1C1D" transform="translate(268,48)"/>
<path d="M0 0 C2.91517292 1.07401108 4.77810176 1.77810176 7 4 C4 5 4 5 1 4 C0.3125 1.9375 0.3125 1.9375 0 0 Z " fill="#31190C" transform="translate(151,381)"/>
<path d="M0 0 C1.65 0 3.3 0 5 0 C4.67 0.99 4.34 1.98 4 3 C4.66 3.33 5.32 3.66 6 4 C4.68 4.33 3.36 4.66 2 5 C1.34 3.35 0.68 1.7 0 0 Z " fill="#252324" transform="translate(266,380)"/>
<path d="M0 0 C0 2.31 0 4.62 0 7 C-0.99 6.67 -1.98 6.34 -3 6 C-3.6875 3.9375 -3.6875 3.9375 -4 2 C-1 0 -1 0 0 0 Z " fill="#22150C" transform="translate(346,116)"/>
<path d="M0 0 C1.98 0.99 3.96 1.98 6 3 C3.07175348 3.97608217 1.04386724 4.08226668 -2 4 C-2 3.34 -2 2.68 -2 2 C-1.34 2 -0.68 2 0 2 C0 1.34 0 0.68 0 0 Z " fill="#E98F57" transform="translate(316,106)"/>
</svg>
