<?xml version="1.0" encoding="UTF-8"?>
<svg version="1.1" xmlns="http://www.w3.org/2000/svg" width="374" height="432">
<path d="M0 0 C2.84976717 0.85722984 5.15652888 1.99249558 7.74536133 3.4597168 C8.73318604 4.01578613 9.72101074 4.57185547 10.73876953 5.14477539 C12.32564575 6.05283936 12.32564575 6.05283936 13.94458008 6.97924805 C15.05470459 7.60782715 16.1648291 8.23640625 17.30859375 8.8840332 C25.71002019 13.65544863 34.0624118 18.51079375 42.39697266 23.39794922 C50.11038548 27.9186973 57.86363379 32.36661489 65.63208008 36.79174805 C75.30707617 42.3040598 84.94490585 47.87599629 94.55395508 53.50268555 C102.21781982 57.9834107 109.91893842 62.39669029 117.63208008 66.79174805 C127.33792681 72.32283231 137.01108409 77.90652373 146.65283203 83.54882812 C155.46995274 88.70637447 164.3163647 93.81215201 173.16967773 98.90722656 C174.71921143 99.79945923 174.71921143 99.79945923 176.30004883 100.7097168 C177.21036865 101.23331787 178.12068848 101.75691895 179.05859375 102.29638672 C179.90784424 102.78985596 180.75709473 103.2833252 181.63208008 103.79174805 C182.49775699 104.13945409 183.3634339 104.48716013 184.25534344 104.84540272 C186.63208008 106.79174805 186.63208008 106.79174805 187.24731922 110.56547832 C187.26840317 112.1864 187.26147204 113.80781975 187.23335266 115.42863464 C187.23762479 116.32141233 187.24189691 117.21419002 187.24629849 118.13402158 C187.25456132 121.13786586 187.22698916 124.14032648 187.19970703 127.14404297 C187.19829727 129.29224108 187.19908712 131.4404416 187.20191956 133.58863831 C187.20335792 139.4314592 187.17389968 145.27376998 187.13904977 151.11647201 C187.10785649 157.21835372 187.10486108 163.32024629 187.09892273 169.42219543 C187.08336362 180.98198041 187.04230704 192.5415298 186.99217528 204.10121089 C186.93634621 217.25940074 186.90881149 230.41760166 186.88369811 243.57588041 C186.83139312 270.64796705 186.74341057 297.71984437 186.63208008 324.79174805 C185.84671875 325.23977783 185.06135742 325.68780762 184.25219727 326.14941406 C181.2773266 327.84687369 178.30275459 329.54485447 175.32836914 331.24316406 C174.05244272 331.97155608 172.77640499 332.69975316 171.50024414 333.42773438 C163.18467408 338.17153792 154.89236777 342.95205316 146.63208008 347.79174805 C137.99590062 352.8460076 129.32603443 357.83780927 120.63208008 362.79174805 C110.91083502 368.33160738 101.22313139 373.92549736 91.56518555 379.57519531 C81.04123383 385.72941546 70.4782787 391.81544801 59.91430664 397.90063477 C53.41871692 401.64318445 46.92601966 405.39075048 40.43310547 409.13793945 C35.34582975 412.07357563 30.25781904 415.00791417 25.16714478 417.93765259 C22.7566426 419.325029 20.34656632 420.71314429 17.93652344 422.10131836 C16.2306404 423.0834862 14.52414022 424.06458189 12.81762695 425.0456543 C11.78831055 425.63862305 10.75899414 426.2315918 9.69848633 426.8425293 C8.33639038 427.62623901 8.33639038 427.62623901 6.94677734 428.42578125 C5.14081807 429.4915277 3.37686879 430.62855557 1.63208008 431.79174805 C-2.34720425 431.45435958 -5.28720468 429.93361139 -8.72729492 427.9831543 C-9.75137451 427.40637939 -10.7754541 426.82960449 -11.83056641 426.23535156 C-12.91539307 425.6145874 -14.00021973 424.99382324 -15.11791992 424.35424805 C-16.24464111 423.71608154 -17.3713623 423.07791504 -18.53222656 422.42041016 C-25.31604725 418.56740935 -32.06898891 414.66399526 -38.77880859 410.68359375 C-45.13148983 406.9152592 -51.52908612 403.22671254 -57.93041992 399.54174805 C-66.42448355 394.65029444 -74.90552373 389.73778689 -83.36791992 384.79174805 C-101.22815024 374.35797691 -119.15658539 364.04387936 -137.12121582 353.79110718 C-145.88190394 348.79082815 -154.63066284 343.77036223 -163.36791992 338.72924805 C-164.39916992 338.1343457 -165.43041992 337.53944336 -166.49291992 336.92651367 C-168.41548183 335.81628424 -170.32749725 334.68746278 -172.22529221 333.53540897 C-175.29213875 331.72355448 -175.29213875 331.72355448 -178.51875687 330.65971279 C-182.26468916 329.12816724 -184.57909072 327.75123013 -187.36791992 324.79174805 C-189.6839782 318.26453542 -188.87973682 310.79428235 -188.73022461 303.98535156 C-188.72683849 301.83656505 -188.72874215 299.68776465 -188.73553467 297.53898621 C-188.73897677 291.71192164 -188.66845315 285.88782353 -188.58464718 280.06144834 C-188.50960928 273.97039428 -188.50258087 267.87927148 -188.48834229 261.78782654 C-188.45105048 250.25596498 -188.35258667 238.72546924 -188.23214841 227.19420904 C-188.09799949 214.0651065 -188.032036 200.93593858 -187.97180319 187.80632126 C-187.8463856 160.80070641 -187.63532814 133.79630376 -187.36791992 106.79174805 C-186.28075684 106.16514282 -186.28075684 106.16514282 -185.17163086 105.52587891 C-182.42051224 103.9400249 -179.6695561 102.35388948 -176.91870117 100.76757812 C-175.16751977 99.75784731 -173.41615994 98.74842597 -171.66479492 97.73901367 C-164.21953423 93.44529799 -156.78785604 89.12906686 -149.36791992 84.79174805 C-131.4580174 74.33113561 -113.48094341 63.98909931 -95.46374512 53.71466064 C-87.40565071 49.11799367 -79.37391901 44.47861004 -71.36791992 39.79174805 C-62.77269167 34.75994025 -54.14473293 29.78797453 -45.49291992 24.85424805 C-36.49755449 19.72399931 -27.50759151 14.5848107 -18.5355835 9.41378784 C-16.84159053 8.43759205 -15.14699798 7.46243695 -13.45239258 6.48730469 C-12.43322754 5.89941162 -11.4140625 5.31151855 -10.36401367 4.70581055 C-9.4686792 4.18970215 -8.57334473 3.67359375 -7.65087891 3.1418457 C-2.03544686 -0.17901187 -2.03544686 -0.17901187 0 0 Z " fill="#B3B3B3" transform="translate(187.367919921875,0.208251953125)"/>
<path d="M0 0 C2.84976717 0.85722984 5.15652888 1.99249558 7.74536133 3.4597168 C8.73318604 4.01578613 9.72101074 4.57185547 10.73876953 5.14477539 C12.32564575 6.05283936 12.32564575 6.05283936 13.94458008 6.97924805 C15.05470459 7.60782715 16.1648291 8.23640625 17.30859375 8.8840332 C25.71002019 13.65544863 34.0624118 18.51079375 42.39697266 23.39794922 C50.11038548 27.9186973 57.86363379 32.36661489 65.63208008 36.79174805 C75.30707617 42.3040598 84.94490585 47.87599629 94.55395508 53.50268555 C102.21781982 57.9834107 109.91893842 62.39669029 117.63208008 66.79174805 C127.33792681 72.32283231 137.01108409 77.90652373 146.65283203 83.54882812 C155.46995274 88.70637447 164.3163647 93.81215201 173.16967773 98.90722656 C174.71921143 99.79945923 174.71921143 99.79945923 176.30004883 100.7097168 C177.21036865 101.23331787 178.12068848 101.75691895 179.05859375 102.29638672 C179.90784424 102.78985596 180.75709473 103.2833252 181.63208008 103.79174805 C182.49775699 104.13945409 183.3634339 104.48716013 184.25534344 104.84540272 C186.63208008 106.79174805 186.63208008 106.79174805 187.24731922 110.56547832 C187.26840317 112.1864 187.26147204 113.80781975 187.23335266 115.42863464 C187.23762479 116.32141233 187.24189691 117.21419002 187.24629849 118.13402158 C187.25456132 121.13786586 187.22698916 124.14032648 187.19970703 127.14404297 C187.19829727 129.29224108 187.19908712 131.4404416 187.20191956 133.58863831 C187.20335792 139.4314592 187.17389968 145.27376998 187.13904977 151.11647201 C187.10785649 157.21835372 187.10486108 163.32024629 187.09892273 169.42219543 C187.08336362 180.98198041 187.04230704 192.5415298 186.99217528 204.10121089 C186.93634621 217.25940074 186.90881149 230.41760166 186.88369811 243.57588041 C186.83139312 270.64796705 186.74341057 297.71984437 186.63208008 324.79174805 C185.84671875 325.23977783 185.06135742 325.68780762 184.25219727 326.14941406 C181.2773266 327.84687369 178.30275459 329.54485447 175.32836914 331.24316406 C174.05244272 331.97155608 172.77640499 332.69975316 171.50024414 333.42773438 C163.18467408 338.17153792 154.89236777 342.95205316 146.63208008 347.79174805 C137.99590062 352.8460076 129.32603443 357.83780927 120.63208008 362.79174805 C110.91083502 368.33160738 101.22313139 373.92549736 91.56518555 379.57519531 C81.04123383 385.72941546 70.4782787 391.81544801 59.91430664 397.90063477 C53.41871692 401.64318445 46.92601966 405.39075048 40.43310547 409.13793945 C35.34582975 412.07357563 30.25781904 415.00791417 25.16714478 417.93765259 C22.7566426 419.325029 20.34656632 420.71314429 17.93652344 422.10131836 C16.2306404 423.0834862 14.52414022 424.06458189 12.81762695 425.0456543 C11.78831055 425.63862305 10.75899414 426.2315918 9.69848633 426.8425293 C8.33639038 427.62623901 8.33639038 427.62623901 6.94677734 428.42578125 C5.14081807 429.4915277 3.37686879 430.62855557 1.63208008 431.79174805 C-2.34720425 431.45435958 -5.28720468 429.93361139 -8.72729492 427.9831543 C-9.75137451 427.40637939 -10.7754541 426.82960449 -11.83056641 426.23535156 C-12.91539307 425.6145874 -14.00021973 424.99382324 -15.11791992 424.35424805 C-16.24464111 423.71608154 -17.3713623 423.07791504 -18.53222656 422.42041016 C-25.31604725 418.56740935 -32.06898891 414.66399526 -38.77880859 410.68359375 C-45.13148983 406.9152592 -51.52908612 403.22671254 -57.93041992 399.54174805 C-66.42448355 394.65029444 -74.90552373 389.73778689 -83.36791992 384.79174805 C-101.22815024 374.35797691 -119.15658539 364.04387936 -137.12121582 353.79110718 C-145.88190394 348.79082815 -154.63066284 343.77036223 -163.36791992 338.72924805 C-164.39916992 338.1343457 -165.43041992 337.53944336 -166.49291992 336.92651367 C-168.41548183 335.81628424 -170.32749725 334.68746278 -172.22529221 333.53540897 C-175.29213875 331.72355448 -175.29213875 331.72355448 -178.51875687 330.65971279 C-182.26468916 329.12816724 -184.57909072 327.75123013 -187.36791992 324.79174805 C-189.6839782 318.26453542 -188.87973682 310.79428235 -188.73022461 303.98535156 C-188.72683849 301.83656505 -188.72874215 299.68776465 -188.73553467 297.53898621 C-188.73897677 291.71192164 -188.66845315 285.88782353 -188.58464718 280.06144834 C-188.50960928 273.97039428 -188.50258087 267.87927148 -188.48834229 261.78782654 C-188.45105048 250.25596498 -188.35258667 238.72546924 -188.23214841 227.19420904 C-188.09799949 214.0651065 -188.032036 200.93593858 -187.97180319 187.80632126 C-187.8463856 160.80070641 -187.63532814 133.79630376 -187.36791992 106.79174805 C-186.28075684 106.16514282 -186.28075684 106.16514282 -185.17163086 105.52587891 C-182.42051224 103.9400249 -179.6695561 102.35388948 -176.91870117 100.76757812 C-175.16751977 99.75784731 -173.41615994 98.74842597 -171.66479492 97.73901367 C-164.21953423 93.44529799 -156.78785604 89.12906686 -149.36791992 84.79174805 C-131.4580174 74.33113561 -113.48094341 63.98909931 -95.46374512 53.71466064 C-87.40565071 49.11799367 -79.37391901 44.47861004 -71.36791992 39.79174805 C-62.77269167 34.75994025 -54.14473293 29.78797453 -45.49291992 24.85424805 C-36.49755449 19.72399931 -27.50759151 14.5848107 -18.5355835 9.41378784 C-16.84159053 8.43759205 -15.14699798 7.46243695 -13.45239258 6.48730469 C-12.43322754 5.89941162 -11.4140625 5.31151855 -10.36401367 4.70581055 C-9.4686792 4.18970215 -8.57334473 3.67359375 -7.65087891 3.1418457 C-2.03544686 -0.17901187 -2.03544686 -0.17901187 0 0 Z M-7.49682617 33.51049805 C-8.51760254 34.10467529 -9.53837891 34.69885254 -10.59008789 35.31103516 C-11.69239746 35.96467041 -12.79470703 36.61830566 -13.93041992 37.29174805 C-15.09552914 37.97418441 -16.26106457 38.65589358 -17.42700195 39.33691406 C-21.08153222 41.47581666 -24.72579547 43.63180475 -28.36791992 45.79174805 C-29.49407715 46.45932129 -30.62023437 47.12689453 -31.78051758 47.81469727 C-36.22725026 50.45296577 -40.67319431 53.09253795 -45.11621094 55.73706055 C-53.72956414 60.85299777 -62.41047257 65.83916782 -71.12057495 70.78744507 C-81.05339267 76.43324363 -90.89261273 82.2228595 -100.70898438 88.06860352 C-107.45616927 92.08140556 -114.23070175 96.03731782 -121.05541992 99.91674805 C-128.86898109 104.35859934 -136.65999667 108.83727812 -144.43041992 113.35424805 C-145.46062256 113.95060059 -146.4908252 114.54695313 -147.55224609 115.16137695 C-148.51364502 115.72131348 -149.47504395 116.28125 -150.46557617 116.8581543 C-151.31643799 117.35259033 -152.1672998 117.84702637 -153.04394531 118.35644531 C-153.81085693 118.83009521 -154.57776855 119.30374512 -155.36791992 119.79174805 C-156.41160547 120.3511151 -156.41160547 120.3511151 -157.47637558 120.92178249 C-159.79384688 123.21281602 -159.87107195 124.81247758 -159.9588387 128.00057036 C-159.95810125 128.70872702 -159.9573638 129.41688368 -159.956604 130.14649963 C-159.97131076 130.90154799 -159.98601751 131.65659634 -160.00116992 132.43452495 C-160.0453305 134.97240985 -160.06069229 137.5096399 -160.07592773 140.04785156 C-160.10098631 141.86457909 -160.12757353 143.68128609 -160.15557861 145.49797058 C-160.23977016 151.47205308 -160.28119682 157.44613996 -160.32104492 163.4206543 C-160.33723555 165.47805433 -160.35370325 167.5354522 -160.37044525 169.59284782 C-160.44666713 179.26133067 -160.50358164 188.92969127 -160.53689313 198.59841686 C-160.57596131 209.75361026 -160.6811566 220.90562374 -160.8428967 232.05969673 C-160.9636535 240.68407292 -161.02277847 249.30753944 -161.03601718 257.93274444 C-161.04541099 263.08316454 -161.08110088 268.23018992 -161.18186188 273.37970161 C-161.27522653 278.22974377 -161.29185075 283.07417393 -161.25081635 287.92488289 C-161.24883923 289.6995262 -161.27400649 291.47445056 -161.32904053 293.24824142 C-161.80723208 302.52548659 -161.80723208 302.52548659 -157.79339504 310.480479 C-153.93884363 313.56771774 -149.7304605 315.8169035 -145.2668767 317.89548194 C-142.76713806 319.07530396 -140.41947866 320.47205232 -138.05541992 321.90112305 C-136.49464379 322.78438452 -134.93213481 323.66459085 -133.36791992 324.54174805 C-131.57180448 325.55901991 -129.77625421 326.57729016 -127.98120117 327.59643555 C-126.60569092 328.37712402 -126.60569092 328.37712402 -125.20239258 329.17358398 C-120.30091833 331.97177273 -115.42813332 334.81885798 -110.55541992 337.66674805 C-109.5530127 338.25238525 -108.55060547 338.83802246 -107.51782227 339.44140625 C-104.4674869 341.22422504 -101.41767967 343.00794479 -98.36791992 344.79174805 C-94.41026202 347.10540588 -90.45193925 349.41792059 -86.49291992 351.72924805 C-85.51339355 352.3011084 -84.53386719 352.87296875 -83.5246582 353.4621582 C-76.0071499 357.84624851 -68.47135754 362.19810672 -60.93041992 366.54174805 C-53.20102684 370.99423114 -45.4835355 375.46420037 -37.80273438 380 C-30.37781577 384.38351741 -22.92585597 388.72057968 -15.47485352 393.05957031 C-14.49597168 393.6298999 -13.51708984 394.20022949 -12.50854492 394.7878418 C-11.63746094 395.29500732 -10.76637695 395.80217285 -9.86889648 396.32470703 C-8.12611187 397.3470023 -6.40305513 398.40336404 -4.6965332 399.48510742 C-2.46378201 401.00415624 -2.46378201 401.00415624 0.03051758 400.7019043 C3.32253299 399.5501932 6.25482834 397.97664626 9.25708008 396.22924805 C9.93673828 395.84067627 10.61639648 395.45210449 11.31665039 395.05175781 C18.62572526 390.84800651 25.8614083 386.51694015 33.10565186 382.20281982 C42.14289821 376.82153744 51.2386121 371.55283718 60.38208008 366.35424805 C68.68462715 361.63317812 76.94207056 356.86120462 85.10864258 351.90893555 C90.0204342 348.94051717 94.99920874 346.08733558 99.9699707 343.21923828 C106.39032802 339.51406177 112.79461649 335.78202723 119.19458008 332.04174805 C125.75374 328.20843104 132.32050689 324.38905868 138.90551758 320.6003418 C139.50623581 320.25458099 140.10695404 319.90882019 140.72587585 319.55258179 C143.65563465 317.86667767 146.58655757 316.18287055 149.51904297 314.50170898 C151.08900024 313.5992041 151.08900024 313.5992041 152.69067383 312.6784668 C153.62194092 312.14439209 154.55320801 311.61031738 155.51269531 311.06005859 C157.54325231 309.96179374 157.54325231 309.96179374 158.63208008 308.79174805 C158.76293965 306.40955305 158.828855 304.05494104 158.85327148 301.67077637 C158.8647094 300.9167313 158.87614731 300.16268622 158.88793182 299.3857913 C158.9249277 296.83951243 158.95440661 294.29320521 158.98364258 291.74682617 C159.00789862 289.92878924 159.03238934 288.11075544 159.05709839 286.29272461 C159.27389684 269.66982652 159.39492943 253.04574478 159.49139404 236.42176056 C159.55770411 225.24144452 159.65231565 214.06286172 159.81860352 202.88354492 C159.96360359 193.13498539 160.05582718 183.38762777 160.08407784 173.63800383 C160.10075483 168.47700547 160.14328566 163.3192093 160.24859619 158.15919495 C160.34679336 153.29888171 160.37376319 148.44327373 160.34698868 143.58209229 C160.34951148 141.80215095 160.3775927 140.02202681 160.43362045 138.2429657 C160.97027618 129.10506407 160.97027618 129.10506407 157.17101479 121.2101841 C153.58089332 118.37926132 149.65954851 116.42625495 145.47865963 114.6196804 C142.79986723 113.41861711 140.33249912 111.90821452 137.83129883 110.37768555 C135.99471462 109.30624886 134.15746138 108.23595825 132.31958008 107.16674805 C131.30597412 106.57611572 130.29236816 105.9854834 129.24804688 105.37695312 C120.74631265 100.42808523 112.22243911 95.51795525 103.69726562 90.60961914 C94.87057193 85.52114367 86.07965252 80.37349014 77.29522705 75.21258545 C68.65794199 70.13918265 60.00069083 65.10246333 51.31958008 60.10424805 C42.81019223 55.2036452 34.30629538 50.29403843 25.81958008 45.35424805 C24.32479126 44.48546021 24.32479126 44.48546021 22.79980469 43.59912109 C18.62739746 41.16489382 14.47120506 38.71782068 10.38598633 36.1394043 C9.77924072 35.75647217 9.17249512 35.37354004 8.54736328 34.97900391 C7.03257414 34.01274565 5.52709308 33.03193414 4.02270508 32.04956055 C-0.56595492 29.63526558 -3.37294728 31.08813151 -7.49682617 33.51049805 Z " fill="#171515" transform="translate(187.367919921875,0.208251953125)"/>
<path d="M0 0 C0 0.66 0 1.32 0 2 C-0.99 2 -1.98 2 -3 2 C-3.33 2.99 -3.66 3.98 -4 5 C-6.48354939 6.72468708 -8.87608552 7.95101056 -11.6875 9.0625 C-14.1427942 9.88303421 -14.1427942 9.88303421 -16 12 C-16.99 11.34 -17.98 10.68 -19 10 C-16.21251481 8.32626249 -13.41935573 6.66223733 -10.625 5 C-9.8309375 4.52304688 -9.036875 4.04609375 -8.21875 3.5546875 C-7.45820312 3.10351562 -6.69765625 2.65234375 -5.9140625 2.1875 C-4.8614624 1.55908203 -4.8614624 1.55908203 -3.78759766 0.91796875 C-2 0 -2 0 0 0 Z " fill="#393838" transform="translate(76,64)"/>
<path d="M0 0 C0.66 0.33 1.32 0.66 2 1 C1.34 1.61875 0.68 2.2375 0 2.875 C-2.2284549 4.75637427 -2.2284549 4.75637427 -2 7 C-4.33214148 8.20628008 -6.49642139 9.1654738 -9 10 C-9.99 9.01 -10.98 8.02 -12 7 C-10.04754815 5.80285445 -8.08785003 4.61751926 -6.125 3.4375 C-5.03445312 2.77621094 -3.94390625 2.11492188 -2.8203125 1.43359375 C-1.88960937 0.96050781 -0.95890625 0.48742187 0 0 Z " fill="#2D2C2C" transform="translate(152,19)"/>
<path d="M0 0 C0.99 0 1.98 0 3 0 C3 0.66 3 1.32 3 2 C4.65 2 6.3 2 8 2 C8.33 1.34 8.66 0.68 9 0 C9.99 0.99 10.98 1.98 12 3 C7.70781893 6.06584362 7.70781893 6.06584362 4.3125 5.75 C2 5 2 5 0 4 C0 2.68 0 1.36 0 0 Z " fill="#1B191A" transform="translate(182,426)"/>
<path d="M0 0 C0.71542969 0.38929687 1.43085938 0.77859375 2.16796875 1.1796875 C-0.00616887 3.35382512 -0.89756241 3.64614771 -3.83203125 4.1796875 C-4.82203125 4.1796875 -5.81203125 4.1796875 -6.83203125 4.1796875 C-7.49203125 4.8396875 -8.15203125 5.4996875 -8.83203125 6.1796875 C-10.95703125 5.8046875 -10.95703125 5.8046875 -12.83203125 5.1796875 C-11.28448243 4.11593549 -9.71824941 3.07932736 -8.14453125 2.0546875 C-7.27441406 1.47460938 -6.40429688 0.89453125 -5.5078125 0.296875 C-2.83203125 -0.8203125 -2.83203125 -0.8203125 0 0 Z " fill="#ACACAC" transform="translate(182.83203125,34.8203125)"/>
<path d="M0 0 C-0.625 1.875 -0.625 1.875 -2 4 C-5.75263725 5.66783878 -8.91226018 6.24045528 -13 6 C-5.8 0 -5.8 0 0 0 Z " fill="#191718" transform="translate(94,55)"/>
<path d="M0 0 C0.99 0 1.98 0 3 0 C3 2.97 3 5.94 3 9 C2.01 9 1.02 9 0 9 C0 6.03 0 3.06 0 0 Z " fill="#4A1215" transform="translate(346,295)"/>
<path d="M0 0 C0.99 0 1.98 0 3 0 C3 2.64 3 5.28 3 8 C2.01 8.33 1.02 8.66 0 9 C0 6.03 0 3.06 0 0 Z " fill="#4C1314" transform="translate(346,208)"/>
<path d="M0 0 C4.19786372 0.21527506 5.47077504 1.35308128 9 4 C5.04 3.67 1.08 3.34 -3 3 C-2.01 2.01 -1.02 1.02 0 0 Z " fill="#373536" transform="translate(185,0)"/>
<path d="M0 0 C-0.33 0.99 -0.66 1.98 -1 3 C-4.5625 4.6875 -4.5625 4.6875 -8 6 C-8 3 -8 3 -6 1 C-3 0 -3 0 0 0 Z " fill="#282628" transform="translate(223,410)"/>
<path d="M0 0 C0.33 0 0.66 0 1 0 C1.95261487 4.76307437 2.08333357 9.1666528 2 14 C1.34 13.67 0.68 13.34 0 13 C-0.85486376 8.33710678 -1.30042194 4.62372246 0 0 Z " fill="#240E10" transform="translate(25,159)"/>
<path d="M0 0 C1.485 0.99 1.485 0.99 3 2 C2.67 4.31 2.34 6.62 2 9 C1.34 9 0.68 9 0 9 C0 6.03 0 3.06 0 0 Z " fill="#52141A" transform="translate(346,242)"/>
<path d="M0 0 C0.33 0.66 0.66 1.32 1 2 C1.66 2.33 2.32 2.66 3 3 C2.34 3 1.68 3 1 3 C0.67 4.32 0.34 5.64 0 7 C-1.32 6.01 -2.64 5.02 -4 4 C-3.34 4 -2.68 4 -2 4 C-2 3.34 -2 2.68 -2 2 C-1.34 2 -0.68 2 0 2 C0 1.34 0 0.68 0 0 Z " fill="#201E1F" transform="translate(75,361)"/>
<path d="M0 0 C0.66 0 1.32 0 2 0 C2.33 2.31 2.66 4.62 3 7 C2.01 7.33 1.02 7.66 0 8 C0 5.36 0 2.72 0 0 Z " fill="#53141C" transform="translate(346,158)"/>
<path d="M0 0 C2 2 2 2 2.125 5.125 C2.08375 6.07375 2.0425 7.0225 2 8 C1.01 8 0.02 8 -1 8 C-1.04241723 5.66705225 -1.04092937 3.33297433 -1 1 C-0.67 0.67 -0.34 0.34 0 0 Z " fill="#1B100A" transform="translate(25,120)"/>
<path d="M0 0 C1.32 0.99 2.64 1.98 4 3 C-0.43076923 6.07692308 -0.43076923 6.07692308 -3.3125 5.6875 C-3.869375 5.460625 -4.42625 5.23375 -5 5 C-3.68 4.67 -2.36 4.34 -1 4 C-0.67 2.68 -0.34 1.36 0 0 Z " fill="#373637" transform="translate(190,426)"/>
<path d="M0 0 C1.32 0 2.64 0 4 0 C4.33 0.99 4.66 1.98 5 3 C3.02 3.99 3.02 3.99 1 5 C0.01 4.01 -0.98 3.02 -2 2 C-1.34 1.67 -0.68 1.34 0 1 C0 0.67 0 0.34 0 0 Z " fill="#AEABAC" transform="translate(300,330)"/>
<path d="M0 0 C0.66 0 1.32 0 2 0 C2 0.66 2 1.32 2 2 C2.66 2.33 3.32 2.66 4 3 C3.01 4.485 3.01 4.485 2 6 C0.68 5.01 -0.64 4.02 -2 3 C-1.34 2.01 -0.68 1.02 0 0 Z " fill="#221B1A" transform="translate(338,114)"/>
<path d="M0 0 C-2.97 2.475 -2.97 2.475 -6 5 C-6.33 3.68 -6.66 2.36 -7 1 C-3.375 -1.125 -3.375 -1.125 0 0 Z " fill="#ADABAC" transform="translate(68,102)"/>
<path d="M0 0 C0 0.66 0 1.32 0 2 C-0.66 2 -1.32 2 -2 2 C-2 2.66 -2 3.32 -2 4 C-4.31 4.33 -6.62 4.66 -9 5 C-2.87096774 0 -2.87096774 0 0 0 Z " fill="#3F3D3E" transform="translate(19,97)"/>
<path d="M0 0 C1.32 0.33 2.64 0.66 4 1 C3.34 1 2.68 1 2 1 C2.33 2.32 2.66 3.64 3 5 C1.35 4.67 -0.3 4.34 -2 4 C-2 3.34 -2 2.68 -2 2 C-1.34 2 -0.68 2 0 2 C0 1.34 0 0.68 0 0 Z " fill="#1E1C1D" transform="translate(268,48)"/>
<path d="M0 0 C0.33 0.66 0.66 1.32 1 2 C-4.75 5.875 -4.75 5.875 -7 7 C-7.66 6.34 -8.32 5.68 -9 5 C-6.03 3.35 -3.06 1.7 0 0 Z " fill="#A3A1A2" transform="translate(125,66)"/>
<path d="M0 0 C0 0.66 0 1.32 0 2 C-0.99 2 -1.98 2 -3 2 C-3.33 2.99 -3.66 3.98 -4 5 C-5.65 5 -7.3 5 -9 5 C-2.87096774 0 -2.87096774 0 0 0 Z " fill="#464445" transform="translate(90,56)"/>
</svg>
