<?xml version="1.0" encoding="utf-8"?>
<!-- Generator: Adobe Illustrator 24.1.1, SVG Export Plug-In . SVG Version: 6.00 Build 0)  -->
<svg version="1.1" id="Layer_1" xmlns="http://www.w3.org/2000/svg" xmlns:xlink="http://www.w3.org/1999/xlink" x="0px" y="0px"
	 viewBox="0 0 346 400" style="enable-background:new 0 0 346 400;" xml:space="preserve">
<style type="text/css">
	.st0{clip-path:url(#SVGID_2_);}
	.st1{fill:#030000;}
	.st2{fill:#87FF65;}
	.st3{display:none;fill:url(#SVGID_3_);}
	.st4{fill:#151313;}
	.st5{display:none;fill:#877D52;}
	.st6{display:none;}
	.st7{display:inline;fill:#D1B886;}
	.st8{display:inline;fill:#B5B57C;}
	.st9{display:inline;fill:#918E5A;}
	.st10{display:inline;fill:#4D491A;}
	.st11{display:inline;}
	.st12{fill:#4D491A;}
</style>
<g id="Hexagons">
	<g id="Desert">
		<g>
			<g>
				<g>
					<g>
						<g>
							<defs>
								<polygon id="SVGID_1_" points="-0.2,100 -0.2,300 173,400 346.2,300 346.2,100 173,0 								"/>
							</defs>
							<clipPath id="SVGID_2_">
								<use xlink:href="#SVGID_1_"  style="overflow:visible;"/>
							</clipPath>
							<g class="st0">
								<path class="st1" d="M330.2-635.8c1.6,0.6,2.9,1.9,3.5,3.5v-46.2h-3.5V-635.8z"/>
								<path class="st1" d="M283.9-814.3h34.6c0.8-2.2,3-3.8,5.5-3.8c3.3,0,5.9,2.6,5.9,5.9c0,3.3-2.6,5.9-5.9,5.9
									c-2.5,0-4.7-1.6-5.5-3.8h-4.1v32.6c2.2,0.8,3.8,3,3.8,5.5c0,3.3-2.6,5.9-5.9,5.9c-3.3,0-5.9-2.6-5.9-5.9
									c0-2.5,1.6-4.7,3.8-5.5v-32.6h-28.4c-1.2,0-2.1-0.9-2.1-2.1v-9.3h-29.9c-0.8,2.2-3,3.8-5.5,3.8c-3.3,0-5.9-2.6-5.9-5.9
									c0-3.3,2.6-5.9,5.9-5.9c2.5,0,4.7,1.6,5.5,3.8h29.9v-24.9h-80.2v25.5c2.2,0.8,3.8,3,3.8,5.5c0,3.3-2.6,5.9-5.9,5.9
									c-3.3,0-5.9-2.6-5.9-5.9c0-2.5,1.6-4.7,3.8-5.5v-25.5H129v8.1c2.2,0.8,3.8,3,3.8,5.5c0,3.3-2.6,5.9-5.9,5.9
									c-3.3,0-5.9-2.6-5.9-5.9c0-2.5,1.6-4.7,3.8-5.5v-8.1H75.4v15.5c2.2,0.8,3.8,3,3.8,5.5c0,3.3-2.6,5.9-5.9,5.9
									c-3.3,0-5.9-2.6-5.9-5.9c0-2.5,1.6-4.7,3.8-5.5v-15.5H43.7v69.7h32v-16.9c-2.2-0.8-3.8-3-3.8-5.5c0-3.3,2.6-5.9,5.9-5.9
									c3.3,0,5.9,2.6,5.9,5.9c0,2.5-1.6,4.7-3.8,5.5v57c2.2,0.8,3.8,3,3.8,5.5c0,3.3-2.6,5.9-5.9,5.9c-3.3,0-5.9-2.6-5.9-5.9
									c0-2.5,1.6-4.7,3.8-5.5v-36h-32v21.9c2.2,0.8,3.8,3,3.8,5.5c0,3.3-2.6,5.9-5.9,5.9c-3.3,0-5.9-2.6-5.9-5.9
									c0-2.5,1.6-4.7,3.8-5.5V-811h-40c-0.8,2.2-3,3.8-5.5,3.8c-3.3,0-5.9-2.6-5.9-5.9c0-3.3,2.6-5.9,5.9-5.9
									c2.5,0,4.7,1.6,5.5,3.8h40v-35.5h-51.8v7c0,1.2-0.9,2.1-2.1,2.1h-21.4v43.7c2.2,0.8,3.8,3,3.8,5.5c0,3.3-2.6,5.9-5.9,5.9
									c-3.3,0-5.9-2.6-5.9-5.9c0-2.5,1.6-4.7,3.8-5.5v-43.7h-26.6c-0.8,2.2-3,3.8-5.5,3.8c-3.3,0-5.9-2.6-5.9-5.9
									c0-3.3,2.6-5.9,5.9-5.9c2.5,0,4.7,1.6,5.5,3.8H-40v-4.9h-61.8v63.5h22.4c1.2,0,2.1,0.9,2.1,2.1v32.7c2.2,0.8,3.8,3,3.8,5.5
									c0,3.3-2.6,5.9-5.9,5.9c-3.3,0-5.9-2.6-5.9-5.9c0-2.5,1.6-4.7,3.8-5.5V-783h-55.8c-0.9,2.4-3.2,4.2-5.9,4.2
									c-3.4,0-6.2-2.8-6.2-6.2s2.8-6.2,6.2-6.2c2.7,0,5,1.7,5.9,4.2h31.3v-63.5h-60.4v10.2h23.8c0.8-2.2,3-3.8,5.5-3.8
									c3.3,0,5.9,2.6,5.9,5.9c0,3.3-2.6,5.9-5.9,5.9c-2.5,0-4.7-1.6-5.5-3.8h-23.8v153.6h15.8v-21.2c-2.2-0.8-3.8-3-3.8-5.5
									c0-3.3,2.6-5.9,5.9-5.9c3.3,0,5.9,2.6,5.9,5.9c0,2.5-1.6,4.7-3.8,5.5v21.2h25.3v-32.8c-2.2-0.8-3.8-3-3.8-5.5
									c0-3.3,2.6-5.9,5.9-5.9c3.3,0,5.9,2.6,5.9,5.9c0,2.5-1.6,4.7-3.8,5.5v32.8h5.8c0.8-2.2,3-3.8,5.5-3.8c3.3,0,5.9,2.6,5.9,5.9
									c0,3.3-2.6,5.9-5.9,5.9c-2.5,0-4.7-1.6-5.5-3.8h-55.3v46.2c0.2,0.6,0.3,1.3,0.3,2s-0.1,1.4-0.3,2v74.2
									c2.4,0.1,4.5,1.6,5.3,3.8h15.9v-58.4c-2.2-0.8-3.8-3-3.8-5.5c0-3.3,2.6-5.9,5.9-5.9c3.3,0,5.9,2.6,5.9,5.9
									c0,2.5-1.6,4.7-3.8,5.5v58.4h27.9c0.8-2.2,3-3.8,5.5-3.8c3.3,0,5.9,2.6,5.9,5.9c0,3.3-2.6,5.9-5.9,5.9
									c-2.5,0-4.7-1.6-5.5-3.8h-9.2v40.2c2.2,0.8,3.8,3,3.8,5.5c0,3.3-2.6,5.9-5.9,5.9c-3.3,0-5.9-2.6-5.9-5.9
									c0-2.5,1.6-4.7,3.8-5.5v-40.2H-161c-0.8,2.2-2.9,3.7-5.3,3.8v65.5h0.3c0.8-2.2,3-3.8,5.5-3.8c3.3,0,5.9,2.6,5.9,5.9
									c0,3.3-2.6,5.9-5.9,5.9c-2.5,0-4.7-1.6-5.5-3.8h-0.3v28.7h13.1c0.8-2.2,3-3.8,5.5-3.8c3.3,0,5.9,2.6,5.9,5.9
									c0,3.3-2.6,5.9-5.9,5.9c-2.5,0-4.7-1.6-5.5-3.8h-13.1v45.7v10.2h23.8c0.8-2.2,3-3.8,5.5-3.8c3.3,0,5.9,2.6,5.9,5.9
									c0,3.3-2.6,5.9-5.9,5.9c-2.5,0-4.7-1.6-5.5-3.8h-23.8v153.6h15.8v-21.2c-2.2-0.8-3.8-3-3.8-5.5c0-3.3,2.6-5.9,5.9-5.9
									c3.3,0,5.9,2.6,5.9,5.9c0,2.5-1.6,4.7-3.8,5.5v21.2h25.3v-32.8c-2.2-0.8-3.8-3-3.8-5.5c0-3.3,2.6-5.9,5.9-5.9
									c3.3,0,5.9,2.6,5.9,5.9c0,2.5-1.6,4.7-3.8,5.5v32.8h5.8c0.8-2.2,3-3.8,5.5-3.8c3.3,0,5.9,2.6,5.9,5.9c0,3.3-2.6,5.9-5.9,5.9
									c-2.5,0-4.7-1.6-5.5-3.8h-55.3v46.2c0.2,0.6,0.3,1.3,0.3,2c0,0.7-0.1,1.4-0.3,2v74.2c2.4,0.1,4.5,1.6,5.3,3.8h15.9v-58.4
									c-2.2-0.8-3.8-3-3.8-5.5c0-3.3,2.6-5.9,5.9-5.9c3.3,0,5.9,2.6,5.9,5.9c0,2.5-1.6,4.7-3.8,5.5v58.4h27.9
									c0.8-2.2,3-3.8,5.5-3.8c3.3,0,5.9,2.6,5.9,5.9c0,3.3-2.6,5.9-5.9,5.9c-2.5,0-4.7-1.6-5.5-3.8h-9.2v40.2
									c2.2,0.8,3.8,3,3.8,5.5c0,3.3-2.6,5.9-5.9,5.9c-3.3,0-5.9-2.6-5.9-5.9c0-2.5,1.6-4.7,3.8-5.5v-40.2H-161
									c-0.8,2.2-2.9,3.7-5.3,3.8v65.5h0.3c0.8-2.2,3-3.8,5.5-3.8c3.3,0,5.9,2.6,5.9,5.9c0,3.3-2.6,5.9-5.9,5.9
									c-2.5,0-4.7-1.6-5.5-3.8h-0.3v28.7h13.1c0.8-2.2,3-3.8,5.5-3.8c3.3,0,5.9,2.6,5.9,5.9s-2.6,5.9-5.9,5.9
									c-2.5,0-4.7-1.6-5.5-3.8h-13.1v45.7v10.2h23.8c0.8-2.2,3-3.8,5.5-3.8c3.3,0,5.9,2.6,5.9,5.9s-2.6,5.9-5.9,5.9
									c-2.5,0-4.7-1.6-5.5-3.8h-23.8v153.6h15.8v-21.2c-2.2-0.8-3.8-3-3.8-5.5c0-3.3,2.6-5.9,5.9-5.9c3.3,0,5.9,2.6,5.9,5.9
									c0,2.5-1.6,4.7-3.8,5.5v21.2h25.3v-32.8c-2.2-0.8-3.8-3-3.8-5.5c0-3.3,2.6-5.9,5.9-5.9c3.3,0,5.9,2.6,5.9,5.9
									c0,2.5-1.6,4.7-3.8,5.5v32.8h5.8c0.8-2.2,3-3.8,5.5-3.8c3.3,0,5.9,2.6,5.9,5.9s-2.6,5.9-5.9,5.9c-2.5,0-4.7-1.6-5.5-3.8
									h-55.3v46.2c0.2,0.6,0.3,1.3,0.3,2s-0.1,1.4-0.3,2V359c2.4,0.1,4.5,1.6,5.3,3.8h15.9v-58.4c-2.2-0.8-3.8-3-3.8-5.5
									c0-3.3,2.6-5.9,5.9-5.9c3.3,0,5.9,2.6,5.9,5.9c0,2.5-1.6,4.7-3.8,5.5v58.4h27.9c0.8-2.2,3-3.8,5.5-3.8
									c3.3,0,5.9,2.6,5.9,5.9s-2.6,5.9-5.9,5.9c-2.5,0-4.7-1.6-5.5-3.8h-9.2v40.2c2.2,0.8,3.8,3,3.8,5.5c0,3.3-2.6,5.9-5.9,5.9
									c-3.3,0-5.9-2.6-5.9-5.9c0-2.5,1.6-4.7,3.8-5.5V367H-161c-0.8,2.2-2.9,3.7-5.3,3.8v65.5h0.3c0.8-2.2,3-3.8,5.5-3.8
									c3.3,0,5.9,2.6,5.9,5.9c0,3.3-2.6,5.9-5.9,5.9c-2.5,0-4.7-1.6-5.5-3.8h-0.3v28.7h13.1c0.8-2.2,3-3.8,5.5-3.8
									c3.3,0,5.9,2.6,5.9,5.9c0,3.3-2.6,5.9-5.9,5.9c-2.5,0-4.7-1.6-5.5-3.8h-13.1V519h60.4v-5.7c-2.2-0.8-3.8-3-3.8-5.5
									c0-3.3,2.6-5.9,5.9-5.9c3.3,0,5.9,2.6,5.9,5.9c0,2.5-1.6,4.7-3.8,5.5v5.7H-40v-40.1c-2.2-0.8-3.8-3-3.8-5.5
									c0-3.3,2.6-5.9,5.9-5.9c3.3,0,5.9,2.6,5.9,5.9c0,2.5-1.6,4.7-3.8,5.5V519h19.3v-19.3c-2.2-0.8-3.8-3-3.8-5.5
									c0-3.3,2.6-5.9,5.9-5.9c3.3,0,5.9,2.6,5.9,5.9c0,2.5-1.6,4.7-3.8,5.5V519h51.8v-1.2c-2.2-0.8-3.8-3-3.8-5.5
									c0-3.3,2.6-5.9,5.9-5.9c3.3,0,5.9,2.6,5.9,5.9c0,2.5-1.6,4.7-3.8,5.5v1.2h27.6v-33.8c-2.2-0.8-3.8-3-3.8-5.5
									c0-3.3,2.6-5.9,5.9-5.9c3.3,0,5.9,2.6,5.9,5.9c0,2.5-1.6,4.7-3.8,5.5v9.2h49.5v-5.8c-2.2-0.8-3.8-3-3.8-5.5
									c0-3.3,2.6-5.9,5.9-5.9c3.3,0,5.9,2.6,5.9,5.9c0,2.5-1.6,4.7-3.8,5.5V519h66.4V512h-21.9c-0.8,2.2-3,3.8-5.5,3.8
									c-3.3,0-5.9-2.6-5.9-5.9c0-3.3,2.6-5.9,5.9-5.9c2.5,0,4.7,1.6,5.5,3.8h21.9v-32.6c-2.2-0.8-3.8-3-3.8-5.5
									c0-3.3,2.6-5.9,5.9-5.9c3.3,0,5.9,2.6,5.9,5.9c0,2.5-1.6,4.7-3.8,5.5V519h80.2v-25.1c-2.2-0.8-3.8-3-3.8-5.5
									c0-3.3,2.6-5.9,5.9-5.9c3.3,0,5.9,2.6,5.9,5.9c0,2.5-1.6,4.7-3.8,5.5V519h49.7v-45.7h-10.9v15.9c2.2,0.8,3.8,3,3.8,5.5
									c0,3.3-2.6,5.9-5.9,5.9c-3.3,0-5.9-2.6-5.9-5.9c0-2.5,1.6-4.7,3.8-5.5v-48.7H284c-0.8,2.2-3,3.8-5.5,3.8
									c-3.3,0-5.9-2.6-5.9-5.9c0-3.3,2.6-5.9,5.9-5.9c2.5,0,4.7,1.6,5.5,3.8h34.6V402c-2.2-0.8-3.8-3-3.8-5.5
									c0-3.3,2.6-5.9,5.9-5.9c3.3,0,5.9,2.6,5.9,5.9c0,2.5-1.6,4.7-3.8,5.5v34.3h10.9v-65.5c-0.1,0-0.1,0-0.2,0
									c-3.3,0-5.9-2.6-5.9-5.9c0-3.3,2.6-5.9,5.9-5.9c0.1,0,0.1,0,0.2,0v-74.2c-0.8,2.3-3,3.9-5.6,3.9c-3.3,0-5.9-2.6-5.9-5.9
									c0-2.5,1.6-4.7,3.8-5.5v-42.7h-37.5c-1.2,0-2.1-0.9-2.1-2.1v-23.3c-2.2-0.8-3.8-3-3.8-5.5c0-3.3,2.6-5.9,5.9-5.9
									c3.3,0,5.9,2.6,5.9,5.9c0,2.5-1.6,4.7-3.8,5.5v21.2h43V76.8h-49.7v22h34.6c0.8-2.2,3-3.8,5.5-3.8c3.3,0,5.9,2.6,5.9,5.9
									c0,3.3-2.6,5.9-5.9,5.9c-2.5,0-4.7-1.6-5.5-3.8h-4.1v32.6c2.2,0.8,3.8,3,3.8,5.5c0,3.3-2.6,5.9-5.9,5.9
									c-3.3,0-5.9-2.6-5.9-5.9c0-2.5,1.6-4.7,3.8-5.5V103h-28.4c-1.2,0-2.1-0.9-2.1-2.1v-9.3h-29.9c-0.8,2.2-3,3.8-5.5,3.8
									c-3.3,0-5.9-2.6-5.9-5.9s2.6-5.9,5.9-5.9c2.5,0,4.7,1.6,5.5,3.8h29.9V62.5V37.3c-2.2-0.8-3.8-3-3.8-5.5
									c0-3.3,2.6-5.9,5.9-5.9c3.3,0,5.9,2.6,5.9,5.9c0,2.5-1.6,4.7-3.8,5.5v25.1v10.2h49.7V62.5V16.8h-10.9v15.9
									c2.2,0.8,3.8,3,3.8,5.5c0,3.3-2.6,5.9-5.9,5.9c-3.3,0-5.9-2.6-5.9-5.9c0-2.5,1.6-4.7,3.8-5.5V-16H284
									c-0.8,2.2-3,3.8-5.5,3.8c-3.3,0-5.9-2.6-5.9-5.9s2.6-5.9,5.9-5.9c2.5,0,4.7,1.6,5.5,3.8h34.6v-34.3c-2.2-0.8-3.8-3-3.8-5.5
									c0-3.3,2.6-5.9,5.9-5.9c3.3,0,5.9,2.6,5.9,5.9c0,2.5-1.6,4.7-3.8,5.5v34.3h10.9v-65.5c-0.1,0-0.1,0-0.2,0
									c-3.3,0-5.9-2.6-5.9-5.9c0-3.3,2.6-5.9,5.9-5.9c0.1,0,0.1,0,0.2,0v-74.2c-0.8,2.3-3,3.9-5.6,3.9c-3.3,0-5.9-2.6-5.9-5.9
									c0-2.5,1.6-4.7,3.8-5.5v-42.7h-37.5c-1.2,0-2.1-0.9-2.1-2.1v-23.3c-2.2-0.8-3.8-3-3.8-5.5c0-3.3,2.6-5.9,5.9-5.9
									c3.3,0,5.9,2.6,5.9,5.9c0,2.5-1.6,4.7-3.8,5.5v21.2h43v-153.6h-49.7v22h34.6c0.8-2.2,3-3.8,5.5-3.8c3.3,0,5.9,2.6,5.9,5.9
									c0,3.3-2.6,5.9-5.9,5.9c-2.5,0-4.7-1.6-5.5-3.8h-4.1v32.6c2.2,0.8,3.8,3,3.8,5.5c0,3.3-2.6,5.9-5.9,5.9
									c-3.3,0-5.9-2.6-5.9-5.9c0-2.5,1.6-4.7,3.8-5.5v-32.6h-28.4c-1.2,0-2.1-0.9-2.1-2.1v-9.3h-29.9c-0.8,2.2-3,3.8-5.5,3.8
									c-3.3,0-5.9-2.6-5.9-5.9c0-3.3,2.6-5.9,5.9-5.9c2.5,0,4.7,1.6,5.5,3.8h29.9v-24.9v0v-25.1c-2.2-0.8-3.8-3-3.8-5.5
									c0-3.3,2.6-5.9,5.9-5.9c3.3,0,5.9,2.6,5.9,5.9c0,2.5-1.6,4.7-3.8,5.5v25.1v0v10.2h49.7v-10.2v-45.7h-10.9v15.9
									c2.2,0.8,3.8,3,3.8,5.5c0,3.3-2.6,5.9-5.9,5.9c-3.3,0-5.9-2.6-5.9-5.9c0-2.5,1.6-4.7,3.8-5.5v-48.7H284
									c-0.8,2.2-3,3.8-5.5,3.8c-3.3,0-5.9-2.6-5.9-5.9c0-3.3,2.6-5.9,5.9-5.9c2.5,0,4.7,1.6,5.5,3.8h34.6v-34.3
									c-2.2-0.8-3.8-3-3.8-5.5c0-3.3,2.6-5.9,5.9-5.9c3.3,0,5.9,2.6,5.9,5.9c0,2.5-1.6,4.7-3.8,5.5v34.3h10.9v-65.5
									c-0.1,0-0.1,0-0.2,0c-3.3,0-5.9-2.6-5.9-5.9c0-3.3,2.6-5.9,5.9-5.9c0.1,0,0.1,0,0.2,0v-74.2c-0.8,2.3-3,3.9-5.6,3.9
									c-3.3,0-5.9-2.6-5.9-5.9c0-2.5,1.6-4.7,3.8-5.5v-42.7h-37.5c-1.2,0-2.1-0.9-2.1-2.1v-23.3c-2.2-0.8-3.8-3-3.8-5.5
									c0-3.3,2.6-5.9,5.9-5.9c3.3,0,5.9,2.6,5.9,5.9c0,2.5-1.6,4.7-3.8,5.5v21.2h43v-153.6h-49.7V-814.3z M116.7-796.4
									c2.5,0,4.7,1.6,5.5,3.8h34.3v-21.2c-2.2-0.8-3.8-3-3.8-5.5c0-3.3,2.6-5.9,5.9-5.9c3.3,0,5.9,2.6,5.9,5.9
									c0,2.5-1.6,4.7-3.8,5.5v41.3h61.5v-15.9c-2.2-0.8-3.8-3-3.8-5.5c0-3.3,2.6-5.9,5.9-5.9c3.3,0,5.9,2.6,5.9,5.9
									c0,2.5-1.6,4.7-3.8,5.5v15.9h13.9c0.8-2.2,3-3.8,5.5-3.8c3.3,0,5.9,2.6,5.9,5.9c0,3.3-2.6,5.9-5.9,5.9
									c-2.5,0-4.7-1.6-5.5-3.8h-47.4v29.9c2.2,0.8,3.8,3,3.8,5.5c0,3.3-2.6,5.9-5.9,5.9c-3.3,0-5.9-2.6-5.9-5.9
									c0-2.5,1.6-4.7,3.8-5.5v-29.9h-28v19.2c2.2,0.8,3.8,3,3.8,5.5c0,3.3-2.6,5.9-5.9,5.9c-3.3,0-5.9-2.6-5.9-5.9
									c0-2.5,1.6-4.7,3.8-5.5v-39.3h-34.3c-0.8,2.2-3,3.8-5.5,3.8c-3.3,0-5.9-2.6-5.9-5.9C110.8-793.7,113.5-796.4,116.7-796.4z
									 M175.8-665.7c0,3.3-2.6,5.9-5.9,5.9c-3.3,0-5.9-2.6-5.9-5.9c0-2.5,1.6-4.7,3.8-5.5v-34h-21.2c-0.8,2.2-3,3.8-5.5,3.8
									c-3.3,0-5.9-2.6-5.9-5.9s2.6-5.9,5.9-5.9c2.5,0,4.7,1.6,5.5,3.8h54.7c0.8-2.2,3-3.8,5.5-3.8c3.3,0,5.9,2.6,5.9,5.9
									s-2.6,5.9-5.9,5.9c-2.5,0-4.7-1.6-5.5-3.8H172v34C174.2-670.4,175.8-668.2,175.8-665.7z M160.7-591c0,3.3-2.6,5.9-5.9,5.9
									c-3.3,0-5.9-2.6-5.9-5.9c0-2.5,1.6-4.7,3.8-5.5v-4.8H69v74.9c2.2,0.8,3.8,3,3.8,5.5c0,3.3-2.6,5.9-5.9,5.9
									c-3.3,0-5.9-2.6-5.9-5.9c0-2.5,1.6-4.7,3.8-5.5v-12.5H22.1v51.9h36.8c0.8-2.2,3-3.8,5.5-3.8c3.3,0,5.9,2.6,5.9,5.9
									c0,3.3-2.6,5.9-5.9,5.9c-2.5,0-4.7-1.6-5.5-3.8H22.1v49c2.2,0.8,3.8,3,3.8,5.5c0,3.3-2.6,5.9-5.9,5.9
									c-3.3,0-5.9-2.6-5.9-5.9c0-2.5,1.6-4.7,3.8-5.5v-49H6.1c-0.8,2.2-3,3.8-5.5,3.8c-3.3,0-5.9-2.6-5.9-5.9
									c0-3.3,2.6-5.9,5.9-5.9c2.5,0,4.7,1.6,5.5,3.8h11.8v-51.9h-39c-0.9,2.4-3.2,4.2-5.9,4.2c-3.4,0-6.2-2.8-6.2-6.2
									c0-3.4,2.8-6.2,6.2-6.2c2.7,0,5,1.7,5.9,4.2h85.9v-58.2H24.5c-0.9,2.4-3.2,4.2-5.9,4.2c-3.4,0-6.2-2.8-6.2-6.2
									c0-3.4,2.8-6.2,6.2-6.2c2.7,0,5,1.7,5.9,4.2h25.6v-15.9c-2.4-0.9-4.2-3.2-4.2-5.9c0-3.4,2.8-6.2,6.2-6.2s6.2,2.8,6.2,6.2
									c0,2.7-1.7,5-4.2,5.9v15.9h56.5v-17.3c-2.2-0.9-3.8-3.2-3.8-5.8c0-3.4,2.8-6.2,6.2-6.2c3.4,0,6.2,2.8,6.2,6.2
									c0,2.8-1.9,5.2-4.5,6v17.1h39.8c1.2,0,2.1,0.9,2.1,2.1v6.9C159.1-595.6,160.7-593.5,160.7-591z M172.6-551.4
									c0,3.3-2.6,5.9-5.9,5.9c-3.3,0-5.9-2.6-5.9-5.9c0-2.5,1.6-4.7,3.8-5.5v-12.2h-56.2v32h17.9c0.8-2.2,3-3.8,5.5-3.8
									c3.3,0,5.9,2.6,5.9,5.9c0,3.3-2.6,5.9-5.9,5.9c-2.5,0-4.7-1.6-5.5-3.8h-17.9v70.3h60.9V-480h-23.4c-0.8,2.2-3,3.8-5.5,3.8
									c-3.3,0-5.9-2.6-5.9-5.9c0-3.3,2.6-5.9,5.9-5.9c2.5,0,4.7,1.6,5.5,3.8h23.4v-13.9c-2.2-0.8-3.8-3-3.8-5.5
									c0-3.3,2.6-5.9,5.9-5.9s5.9,2.6,5.9,5.9c0,2.5-1.6,4.7-3.8,5.5v13.9h21.9c0.8-2.2,3-3.8,5.5-3.8c3.3,0,5.9,2.6,5.9,5.9
									c0,3.3-2.6,5.9-5.9,5.9c-2.5,0-4.7-1.6-5.5-3.8h-21.9v19.5c0,1.2-0.9,2.1-2.1,2.1h-65c-1.2,0-2.1-0.9-2.1-2.1v-108.6h-6.8
									c-0.8,2.2-3,3.8-5.5,3.8c-3.3,0-5.9-2.6-5.9-5.9c0-3.3,2.6-5.9,5.9-5.9c2.5,0,4.7,1.6,5.5,3.8H183c0.7-2.5,3-4.3,5.7-4.3
									c3.3,0,5.9,2.6,5.9,5.9c0,3.3-2.6,5.9-5.9,5.9c-2.3,0-4.4-1.4-5.3-3.3h-14.6v12.2C171-556.1,172.6-554,172.6-551.4z
									 M129-424.6v30.5v0v8.1c2.2,0.8,3.8,3,3.8,5.5c0,3.3-2.6,5.9-5.9,5.9c-3.3,0-5.9-2.6-5.9-5.9c0-2.5,1.6-4.7,3.8-5.5v-8.1v0
									v-20.5H75.4v20.5v0v15.5c2.2,0.8,3.8,3,3.8,5.5c0,3.3-2.6,5.9-5.9,5.9c-3.3,0-5.9-2.6-5.9-5.9c0-2.5,1.6-4.7,3.8-5.5v-15.5
									v0v-33.8c-2.2-0.8-3.8-3-3.8-5.5c0-3.3,2.6-5.9,5.9-5.9c3.3,0,5.9,2.6,5.9,5.9c0,2.5-1.6,4.7-3.8,5.5v9.2h49.5v-5.8
									c-2.2-0.8-3.8-3-3.8-5.5c0-3.3,2.6-5.9,5.9-5.9c3.3,0,5.9,2.6,5.9,5.9C132.9-427.6,131.3-425.4,129-424.6z M112.9-195.8
									c0,3.3-2.6,5.9-5.9,5.9c-3.3,0-5.9-2.6-5.9-5.9c0-2.5,1.6-4.7,3.8-5.5v-20.6H39.3c-0.8,2.2-3,3.8-5.5,3.8
									c-3.3,0-5.9-2.6-5.9-5.9c0-3.3,2.6-5.9,5.9-5.9c2.5,0,4.7,1.6,5.5,3.8h22.6v-21.2c-2.3-0.8-3.9-3-3.9-5.6
									c0-3.3,2.6-5.9,5.9-5.9c3.3,0,5.9,2.6,5.9,5.9c0,2.5-1.6,4.6-3.7,5.5v21.3h41c1.2,0,2.1,0.9,2.1,2.1v22.6
									C111.3-200.5,112.9-198.4,112.9-195.8z M154.8-148.9c1.2,0,2.1,0.9,2.1,2.1v6.9c2.2,0.8,3.8,3,3.8,5.5
									c0,3.3-2.6,5.9-5.9,5.9c-3.3,0-5.9-2.6-5.9-5.9c0-2.5,1.6-4.7,3.8-5.5v-4.8H69v74.9c2.2,0.8,3.8,3,3.8,5.5
									c0,3.3-2.6,5.9-5.9,5.9c-3.3,0-5.9-2.6-5.9-5.9c0-2.5,1.6-4.7,3.8-5.5v-12.5H22.1v51.9h36.8c0.8-2.2,3-3.8,5.5-3.8
									c3.3,0,5.9,2.6,5.9,5.9c0,3.3-2.6,5.9-5.9,5.9c-2.5,0-4.7-1.6-5.5-3.8H22.1v49c2.2,0.8,3.8,3,3.8,5.5c0,3.3-2.6,5.9-5.9,5.9
									c-3.3,0-5.9-2.6-5.9-5.9c0-2.5,1.6-4.7,3.8-5.5v-49H6.1c-0.8,2.2-3,3.8-5.5,3.8c-3.3,0-5.9-2.6-5.9-5.9
									c0-3.3,2.6-5.9,5.9-5.9c2.5,0,4.7,1.6,5.5,3.8h11.8v-51.9h-39c-0.9,2.4-3.2,4.2-5.9,4.2c-3.4,0-6.2-2.8-6.2-6.2
									c0-3.4,2.8-6.2,6.2-6.2c2.7,0,5,1.7,5.9,4.2h85.9v-58.2H24.5c-0.9,2.4-3.2,4.2-5.9,4.2c-3.4,0-6.2-2.8-6.2-6.2
									c0-3.4,2.8-6.2,6.2-6.2c2.7,0,5,1.7,5.9,4.2h25.6v-15.9c-2.4-0.9-4.2-3.2-4.2-5.9c0-3.4,2.8-6.2,6.2-6.2s6.2,2.8,6.2,6.2
									c0,2.7-1.7,5-4.2,5.9v15.9h56.5v-17.3c-2.2-0.9-3.8-3.2-3.8-5.8c0-3.4,2.8-6.2,6.2-6.2c3.4,0,6.2,2.8,6.2,6.2
									c0,2.8-1.9,5.2-4.5,6v17.1H154.8z M175.8-209.1c0,3.3-2.6,5.9-5.9,5.9c-3.3,0-5.9-2.6-5.9-5.9c0-2.5,1.6-4.7,3.8-5.5v-34
									h-21.2c-0.8,2.2-3,3.8-5.5,3.8c-3.3,0-5.9-2.6-5.9-5.9c0-3.3,2.6-5.9,5.9-5.9c2.5,0,4.7,1.6,5.5,3.8h54.7
									c0.8-2.2,3-3.8,5.5-3.8c3.3,0,5.9,2.6,5.9,5.9c0,3.3-2.6,5.9-5.9,5.9c-2.5,0-4.7-1.6-5.5-3.8H172v34
									C174.2-213.8,175.8-211.7,175.8-209.1z M172.6-94.9c0,3.3-2.6,5.9-5.9,5.9c-3.3,0-5.9-2.6-5.9-5.9c0-2.5,1.6-4.7,3.8-5.5
									v-12.2h-56.2v32h17.9c0.8-2.2,3-3.8,5.5-3.8c3.3,0,5.9,2.6,5.9,5.9c0,3.3-2.6,5.9-5.9,5.9c-2.5,0-4.7-1.6-5.5-3.8h-17.9
									v70.3h60.9v-17.4h-23.4c-0.8,2.2-3,3.8-5.5,3.8c-3.3,0-5.9-2.6-5.9-5.9c0-3.3,2.6-5.9,5.9-5.9c2.5,0,4.7,1.6,5.5,3.8h23.4
									v-13.9c-2.2-0.8-3.8-3-3.8-5.5c0-3.3,2.6-5.9,5.9-5.9s5.9,2.6,5.9,5.9c0,2.5-1.6,4.7-3.8,5.5v13.9h21.9
									c0.8-2.2,3-3.8,5.5-3.8c3.3,0,5.9,2.6,5.9,5.9c0,3.3-2.6,5.9-5.9,5.9c-2.5,0-4.7-1.6-5.5-3.8h-21.9V-4
									c0,1.2-0.9,2.1-2.1,2.1h-65c-1.2,0-2.1-0.9-2.1-2.1v-108.6h-6.8c-0.8,2.2-3,3.8-5.5,3.8c-3.3,0-5.9-2.6-5.9-5.9
									c0-3.3,2.6-5.9,5.9-5.9c2.5,0,4.7,1.6,5.5,3.8H183c0.7-2.5,3-4.3,5.7-4.3c3.3,0,5.9,2.6,5.9,5.9c0,3.3-2.6,5.9-5.9,5.9
									c-2.3,0-4.4-1.4-5.3-3.3h-14.6v12.2C171-99.6,172.6-97.4,172.6-94.9z M129,32v30.5v8.1c2.2,0.8,3.8,3,3.8,5.5
									c0,3.3-2.6,5.9-5.9,5.9c-3.3,0-5.9-2.6-5.9-5.9c0-2.5,1.6-4.7,3.8-5.5v-8.1V42H75.4v20.5V78c2.2,0.8,3.8,3,3.8,5.5
									c0,3.3-2.6,5.9-5.9,5.9c-3.3,0-5.9-2.6-5.9-5.9c0-2.5,1.6-4.7,3.8-5.5V62.5V28.6c-2.2-0.8-3.8-3-3.8-5.5
									c0-3.3,2.6-5.9,5.9-5.9c3.3,0,5.9,2.6,5.9,5.9c0,2.5-1.6,4.7-3.8,5.5v9.2h49.5V32c-2.2-0.8-3.8-3-3.8-5.5
									c0-3.3,2.6-5.9,5.9-5.9c3.3,0,5.9,2.6,5.9,5.9C132.9,29,131.3,31.2,129,32z M112.9,260.7c0,3.3-2.6,5.9-5.9,5.9
									c-3.3,0-5.9-2.6-5.9-5.9c0-2.5,1.6-4.7,3.8-5.5v-20.6H39.3c-0.8,2.2-3,3.8-5.5,3.8c-3.3,0-5.9-2.6-5.9-5.9s2.6-5.9,5.9-5.9
									c2.5,0,4.7,1.6,5.5,3.8h22.6v-21.2c-2.3-0.8-3.9-3-3.9-5.6c0-3.3,2.6-5.9,5.9-5.9c3.3,0,5.9,2.6,5.9,5.9
									c0,2.5-1.6,4.6-3.7,5.5v21.3h41c1.2,0,2.1,0.9,2.1,2.1v22.6C111.3,256,112.9,258.2,112.9,260.7z M-25.5,318.3
									c0,3.3-2.6,5.9-5.9,5.9c-3.3,0-5.9-2.6-5.9-5.9c0-2.5,1.6-4.7,3.8-5.5v-48.2h46.6c0.8-2.2,3-3.8,5.5-3.8
									c3.3,0,5.9,2.6,5.9,5.9s-2.6,5.9-5.9,5.9c-2.5,0-4.7-1.6-5.5-3.8h-42.5v44C-27.1,313.6-25.5,315.7-25.5,318.3z M-0.5,102.1
									c-0.8,2.2-3,3.8-5.5,3.8c-3.3,0-5.9-2.6-5.9-5.9s2.6-5.9,5.9-5.9c2.5,0,4.7,1.6,5.5,3.8h40V62.5v-1.2
									c-2.2-0.8-3.8-3-3.8-5.5c0-3.3,2.6-5.9,5.9-5.9c3.3,0,5.9,2.6,5.9,5.9c0,2.5-1.6,4.7-3.8,5.5v1.2v69.7h32v-16.9
									c-2.2-0.8-3.8-3-3.8-5.5c0-3.3,2.6-5.9,5.9-5.9c3.3,0,5.9,2.6,5.9,5.9c0,2.5-1.6,4.7-3.8,5.5v57c2.2,0.8,3.8,3,3.8,5.5
									c0,3.3-2.6,5.9-5.9,5.9c-3.3,0-5.9-2.6-5.9-5.9c0-2.5,1.6-4.7,3.8-5.5v-36h-32v21.9c2.2,0.8,3.8,3,3.8,5.5
									c0,3.3-2.6,5.9-5.9,5.9c-3.3,0-5.9-2.6-5.9-5.9c0-2.5,1.6-4.7,3.8-5.5v-56.1H-0.5z M-32,120.8c0,3.3-2.6,5.9-5.9,5.9
									c-3.3,0-5.9-2.6-5.9-5.9c0-2.5,1.6-4.7,3.8-5.5V71.6h-26.6c-0.8,2.2-3,3.8-5.5,3.8c-3.3,0-5.9-2.6-5.9-5.9
									c0-3.3,2.6-5.9,5.9-5.9c2.5,0,4.7,1.6,5.5,3.8H-40v-4.9V22.4c-2.2-0.8-3.8-3-3.8-5.5c0-3.3,2.6-5.9,5.9-5.9
									c3.3,0,5.9,2.6,5.9,5.9c0,2.5-1.6,4.7-3.8,5.5v40.1v4.9h19.3v-4.9V43.2c-2.2-0.8-3.8-3-3.8-5.5c0-3.3,2.6-5.9,5.9-5.9
									c3.3,0,5.9,2.6,5.9,5.9c0,2.5-1.6,4.7-3.8,5.5v19.3v7c0,1.2-0.9,2.1-2.1,2.1h-21.4v43.7C-33.6,116.1-32,118.3-32,120.8z
									 M-42.9-40.3c0.8-2.2,3-3.8,5.5-3.8c3.3,0,5.9,2.6,5.9,5.9s-2.6,5.9-5.9,5.9c-2.5,0-4.7-1.6-5.5-3.8h-24.6v50.9
									c0,1.2-0.9,2.1-2.1,2.1h-18.6c-0.8,2.2-3,3.8-5.5,3.8c-3.3,0-5.9-2.6-5.9-5.9s2.6-5.9,5.9-5.9c2.5,0,4.7,1.6,5.5,3.8h16.5
									V-99.3c0-1.2,0.9-2.1,2.1-2.1h19.6c0.9-2.4,3.2-4.2,5.9-4.2c3.4,0,6.2,2.8,6.2,6.2c0,3.4-2.8,6.2-6.2,6.2
									c-2.7,0-5-1.7-5.9-4.2h-17.5v56.9H-42.9z M-32-335.8c0,3.3-2.6,5.9-5.9,5.9c-3.3,0-5.9-2.6-5.9-5.9c0-2.5,1.6-4.7,3.8-5.5
									V-385h-26.6c-0.8,2.2-3,3.8-5.5,3.8c-3.3,0-5.9-2.6-5.9-5.9c0-3.3,2.6-5.9,5.9-5.9c2.5,0,4.7,1.6,5.5,3.8H-40v-4.9v0v-40.1
									c-2.2-0.8-3.8-3-3.8-5.5c0-3.3,2.6-5.9,5.9-5.9c3.3,0,5.9,2.6,5.9,5.9c0,2.5-1.6,4.7-3.8,5.5v40.1v0v4.9h19.3v-4.9v0v-19.3
									c-2.2-0.8-3.8-3-3.8-5.5c0-3.3,2.6-5.9,5.9-5.9c3.3,0,5.9,2.6,5.9,5.9c0,2.5-1.6,4.7-3.8,5.5v19.3v0v7
									c0,1.2-0.9,2.1-2.1,2.1h-21.4v43.7C-33.6-340.4-32-338.3-32-335.8z M-42.9-496.9c0.8-2.2,3-3.8,5.5-3.8
									c3.3,0,5.9,2.6,5.9,5.9c0,3.3-2.6,5.9-5.9,5.9c-2.5,0-4.7-1.6-5.5-3.8h-24.6v50.9c0,1.2-0.9,2.1-2.1,2.1h-18.6
									c-0.8,2.2-3,3.8-5.5,3.8c-3.3,0-5.9-2.6-5.9-5.9c0-3.3,2.6-5.9,5.9-5.9c2.5,0,4.7,1.6,5.5,3.8h16.5v-111.9
									c0-1.2,0.9-2.1,2.1-2.1h19.6c0.9-2.4,3.2-4.2,5.9-4.2c3.4,0,6.2,2.8,6.2,6.2s-2.8,6.2-6.2,6.2c-2.7,0-5-1.7-5.9-4.2h-17.5
									v56.9H-42.9z M-6-362.5c2.5,0,4.7,1.6,5.5,3.8h40v-35.5v0v-1.2c-2.2-0.8-3.8-3-3.8-5.5c0-3.3,2.6-5.9,5.9-5.9
									c3.3,0,5.9,2.6,5.9,5.9c0,2.5-1.6,4.7-3.8,5.5v1.2v0v69.7h32v-16.9c-2.2-0.8-3.8-3-3.8-5.5c0-3.3,2.6-5.9,5.9-5.9
									c3.3,0,5.9,2.6,5.9,5.9c0,2.5-1.6,4.7-3.8,5.5v57c2.2,0.8,3.8,3,3.8,5.5c0,3.3-2.6,5.9-5.9,5.9c-3.3,0-5.9-2.6-5.9-5.9
									c0-2.5,1.6-4.7,3.8-5.5v-36h-32v21.9c2.2,0.8,3.8,3,3.8,5.5c0,3.3-2.6,5.9-5.9,5.9c-3.3,0-5.9-2.6-5.9-5.9
									c0-2.5,1.6-4.7,3.8-5.5v-56.1h-40c-0.8,2.2-3,3.8-5.5,3.8c-3.3,0-5.9-2.6-5.9-5.9C-12-359.8-9.3-362.5-6-362.5z M18.7-195.8
									c3.3,0,5.9,2.6,5.9,5.9c0,3.3-2.6,5.9-5.9,5.9c-2.5,0-4.7-1.6-5.5-3.8h-42.5v44c2.2,0.8,3.8,3,3.8,5.5
									c0,3.3-2.6,5.9-5.9,5.9c-3.3,0-5.9-2.6-5.9-5.9c0-2.5,1.6-4.7,3.8-5.5V-192h46.6C14-194.2,16.1-195.8,18.7-195.8z
									 M33.7-686.5c2.5,0,4.7,1.6,5.5,3.8h22.6v-21.2c-2.3-0.8-3.9-3-3.9-5.6c0-3.3,2.6-5.9,5.9-5.9c3.3,0,5.9,2.6,5.9,5.9
									c0,2.5-1.6,4.6-3.7,5.5v21.3h41c1.2,0,2.1,0.9,2.1,2.1v22.6c2.2,0.8,3.8,3,3.8,5.5c0,3.3-2.6,5.9-5.9,5.9
									c-3.3,0-5.9-2.6-5.9-5.9c0-2.5,1.6-4.7,3.8-5.5v-20.6H39.3c-0.8,2.2-3,3.8-5.5,3.8c-3.3,0-5.9-2.6-5.9-5.9
									C27.8-683.8,30.5-686.5,33.7-686.5z M18.7-652.4c3.3,0,5.9,2.6,5.9,5.9c0,3.3-2.6,5.9-5.9,5.9c-2.5,0-4.7-1.6-5.5-3.8h-42.5
									v44c2.2,0.8,3.8,3,3.8,5.5c0,3.3-2.6,5.9-5.9,5.9c-3.3,0-5.9-2.6-5.9-5.9c0-2.5,1.6-4.7,3.8-5.5v-48.2h46.6
									C14-650.8,16.1-652.4,18.7-652.4z M-105.5-632.5c-3.3,0-5.9-2.6-5.9-5.9c0-3.3,2.6-5.9,5.9-5.9c2.5,0,4.7,1.6,5.5,3.8h32.3
									v-59.7h-10.7c-0.8,2.2-3,3.8-5.5,3.8c-3.3,0-5.9-2.6-5.9-5.9c0-3.3,2.6-5.9,5.9-5.9c2.5,0,4.7,1.6,5.5,3.8h40.2v-36.9
									c-2.2-0.8-3.8-3-3.8-5.5c0-3.3,2.6-5.9,5.9-5.9c3.3,0,5.9,2.6,5.9,5.9c0,2.5-1.6,4.7-3.8,5.5v18.1H1c0.8-2.2,3-3.8,5.5-3.8
									c3.3,0,5.9,2.6,5.9,5.9c0,3.3-2.6,5.9-5.9,5.9c-2.5,0-4.7-1.6-5.5-3.8h-35v27.9c2.2,0.8,3.8,3,3.8,5.5
									c0,3.3-2.6,5.9-5.9,5.9c-3.3,0-5.9-2.6-5.9-5.9c0-2.5,1.6-4.7,3.8-5.5v-9.2h-25.3v90.1c2.2,0.8,3.8,3,3.8,5.5
									c0,3.3-2.6,5.9-5.9,5.9c-3.3,0-5.9-2.6-5.9-5.9c0-2.5,1.6-4.7,3.8-5.5v-26.2H-100C-100.8-634.1-103-632.5-105.5-632.5z
									 M-137.2-326.4c-0.9,2.4-3.2,4.2-5.9,4.2c-3.4,0-6.2-2.8-6.2-6.2c0-3.4,2.8-6.2,6.2-6.2c2.7,0,5,1.7,5.9,4.2h31.3v-63.5v0
									v-5.7c-2.2-0.8-3.8-3-3.8-5.5c0-3.3,2.6-5.9,5.9-5.9c3.3,0,5.9,2.6,5.9,5.9c0,2.5-1.6,4.7-3.8,5.5v5.7v0v63.5h22.4
									c1.2,0,2.1,0.9,2.1,2.1v32.7c2.2,0.8,3.8,3,3.8,5.5c0,3.3-2.6,5.9-5.9,5.9c-3.3,0-5.9-2.6-5.9-5.9c0-2.5,1.6-4.7,3.8-5.5
									v-30.6H-137.2z M-105.5-176c-3.3,0-5.9-2.6-5.9-5.9c0-3.3,2.6-5.9,5.9-5.9c2.5,0,4.7,1.6,5.5,3.8h32.3v-59.7h-10.7
									c-0.8,2.2-3,3.8-5.5,3.8c-3.3,0-5.9-2.6-5.9-5.9c0-3.3,2.6-5.9,5.9-5.9c2.5,0,4.7,1.6,5.5,3.8h40.2v-36.9
									c-2.2-0.8-3.8-3-3.8-5.5c0-3.3,2.6-5.9,5.9-5.9c3.3,0,5.9,2.6,5.9,5.9c0,2.5-1.6,4.7-3.8,5.5v18.1H1c0.8-2.2,3-3.8,5.5-3.8
									c3.3,0,5.9,2.6,5.9,5.9c0,3.3-2.6,5.9-5.9,5.9c-2.5,0-4.7-1.6-5.5-3.8h-35v27.9c2.2,0.8,3.8,3,3.8,5.5
									c0,3.3-2.6,5.9-5.9,5.9c-3.3,0-5.9-2.6-5.9-5.9c0-2.5,1.6-4.7,3.8-5.5v-9.2h-25.3v90.1c2.2,0.8,3.8,3,3.8,5.5
									c0,3.3-2.6,5.9-5.9,5.9c-3.3,0-5.9-2.6-5.9-5.9c0-2.5,1.6-4.7,3.8-5.5v-26.2H-100C-100.8-177.6-103-176-105.5-176z
									 M-137.2,130.2c-0.9,2.4-3.2,4.2-5.9,4.2c-3.4,0-6.2-2.8-6.2-6.2c0-3.4,2.8-6.2,6.2-6.2c2.7,0,5,1.7,5.9,4.2h31.3V62.5v-5.7
									c-2.2-0.8-3.8-3-3.8-5.5c0-3.3,2.6-5.9,5.9-5.9c3.3,0,5.9,2.6,5.9,5.9c0,2.5-1.6,4.7-3.8,5.5v5.7V126h22.4
									c1.2,0,2.1,0.9,2.1,2.1v32.7c2.2,0.8,3.8,3,3.8,5.5c0,3.3-2.6,5.9-5.9,5.9c-3.3,0-5.9-2.6-5.9-5.9c0-2.5,1.6-4.7,3.8-5.5
									v-30.6H-137.2z M-105.5,280.6c-3.3,0-5.9-2.6-5.9-5.9c0-3.3,2.6-5.9,5.9-5.9c2.5,0,4.7,1.6,5.5,3.8h32.3v-59.7h-10.7
									c-0.8,2.2-3,3.8-5.5,3.8c-3.3,0-5.9-2.6-5.9-5.9s2.6-5.9,5.9-5.9c2.5,0,4.7,1.6,5.5,3.8h40.2v-36.9c-2.2-0.8-3.8-3-3.8-5.5
									c0-3.3,2.6-5.9,5.9-5.9c3.3,0,5.9,2.6,5.9,5.9c0,2.5-1.6,4.7-3.8,5.5V190H1c0.8-2.2,3-3.8,5.5-3.8c3.3,0,5.9,2.6,5.9,5.9
									c0,3.3-2.6,5.9-5.9,5.9c-2.5,0-4.7-1.6-5.5-3.8h-35v27.9c2.2,0.8,3.8,3,3.8,5.5c0,3.3-2.6,5.9-5.9,5.9
									c-3.3,0-5.9-2.6-5.9-5.9c0-2.5,1.6-4.7,3.8-5.5v-9.2h-25.3V303c2.2,0.8,3.8,3,3.8,5.5c0,3.3-2.6,5.9-5.9,5.9
									c-3.3,0-5.9-2.6-5.9-5.9c0-2.5,1.6-4.7,3.8-5.5v-26.2H-100C-100.8,279-103,280.6-105.5,280.6z M-37.3,424.2
									c-2.5,0-4.7-1.6-5.5-3.8h-24.6v50.9c0,1.2-0.9,2.1-2.1,2.1h-18.6c-0.8,2.2-3,3.8-5.5,3.8c-3.3,0-5.9-2.6-5.9-5.9
									c0-3.3,2.6-5.9,5.9-5.9c2.5,0,4.7,1.6,5.5,3.8h16.5V357.3c0-1.2,0.9-2.1,2.1-2.1h19.6c0.9-2.4,3.2-4.2,5.9-4.2
									c3.4,0,6.2,2.8,6.2,6.2c0,3.4-2.8,6.2-6.2,6.2c-2.7,0-5-1.7-5.9-4.2h-17.5v56.9h24.6c0.8-2.2,3-3.8,5.5-3.8
									c3.3,0,5.9,2.6,5.9,5.9C-31.4,421.6-34.1,424.2-37.3,424.2z M69,311.9v74.9c2.2,0.8,3.8,3,3.8,5.5c0,3.3-2.6,5.9-5.9,5.9
									c-3.3,0-5.9-2.6-5.9-5.9c0-2.5,1.6-4.7,3.8-5.5v-12.5H22.1v51.9h36.8c0.8-2.2,3-3.8,5.5-3.8c3.3,0,5.9,2.6,5.9,5.9
									c0,3.3-2.6,5.9-5.9,5.9c-2.5,0-4.7-1.6-5.5-3.8H22.1v49c2.2,0.8,3.8,3,3.8,5.5c0,3.3-2.6,5.9-5.9,5.9
									c-3.3,0-5.9-2.6-5.9-5.9c0-2.5,1.6-4.7,3.8-5.5v-49H6.1c-0.8,2.2-3,3.8-5.5,3.8c-3.3,0-5.9-2.6-5.9-5.9
									c0-3.3,2.6-5.9,5.9-5.9c2.5,0,4.7,1.6,5.5,3.8h11.8v-51.9h-39c-0.9,2.4-3.2,4.2-5.9,4.2c-3.4,0-6.2-2.8-6.2-6.2
									c0-3.4,2.8-6.2,6.2-6.2c2.7,0,5,1.7,5.9,4.2h85.9v-58.2H24.5c-0.9,2.4-3.2,4.2-5.9,4.2c-3.4,0-6.2-2.8-6.2-6.2
									c0-3.4,2.8-6.2,6.2-6.2c2.7,0,5,1.7,5.9,4.2h25.6v-15.9c-2.4-0.9-4.2-3.2-4.2-5.9c0-3.4,2.8-6.2,6.2-6.2s6.2,2.8,6.2,6.2
									c0,2.7-1.7,5-4.2,5.9v15.9h56.5v-17.3c-2.2-0.9-3.8-3.2-3.8-5.8c0-3.4,2.8-6.2,6.2-6.2c3.4,0,6.2,2.8,6.2,6.2
									c0,2.8-1.9,5.2-4.5,6v17.1h39.8c1.2,0,2.1,0.9,2.1,2.1v6.9c2.2,0.8,3.8,3,3.8,5.5c0,3.3-2.6,5.9-5.9,5.9
									c-3.3,0-5.9-2.6-5.9-5.9c0-2.5,1.6-4.7,3.8-5.5v-4.8H69z M175.8,247.4c0,3.3-2.6,5.9-5.9,5.9c-3.3,0-5.9-2.6-5.9-5.9
									c0-2.5,1.6-4.7,3.8-5.5v-34h-21.2c-0.8,2.2-3,3.8-5.5,3.8c-3.3,0-5.9-2.6-5.9-5.9s2.6-5.9,5.9-5.9c2.5,0,4.7,1.6,5.5,3.8
									h54.7c0.8-2.2,3-3.8,5.5-3.8c3.3,0,5.9,2.6,5.9,5.9s-2.6,5.9-5.9,5.9c-2.5,0-4.7-1.6-5.5-3.8H172v34
									C174.2,242.8,175.8,244.9,175.8,247.4z M200.9,436.9c-2.5,0-4.7-1.6-5.5-3.8h-21.9v19.5c0,1.2-0.9,2.1-2.1,2.1h-65
									c-1.2,0-2.1-0.9-2.1-2.1V344h-6.8c-0.8,2.2-3,3.8-5.5,3.8c-3.3,0-5.9-2.6-5.9-5.9s2.6-5.9,5.9-5.9c2.5,0,4.7,1.6,5.5,3.8
									H183c0.7-2.5,3-4.3,5.7-4.3c3.3,0,5.9,2.6,5.9,5.9c0,3.3-2.6,5.9-5.9,5.9c-2.3,0-4.4-1.4-5.3-3.3h-14.6v12.2
									c2.2,0.8,3.8,3,3.8,5.5c0,3.3-2.6,5.9-5.9,5.9c-3.3,0-5.9-2.6-5.9-5.9c0-2.5,1.6-4.7,3.8-5.5V344h-56.2v32h17.9
									c0.8-2.2,3-3.8,5.5-3.8c3.3,0,5.9,2.6,5.9,5.9c0,3.3-2.6,5.9-5.9,5.9c-2.5,0-4.7-1.6-5.5-3.8h-17.9v70.3h60.9v-17.4h-23.4
									c-0.8,2.2-3,3.8-5.5,3.8c-3.3,0-5.9-2.6-5.9-5.9c0-3.3,2.6-5.9,5.9-5.9c2.5,0,4.7,1.6,5.5,3.8h23.4V415
									c-2.2-0.8-3.8-3-3.8-5.5c0-3.3,2.6-5.9,5.9-5.9s5.9,2.6,5.9,5.9c0,2.5-1.6,4.7-3.8,5.5v13.9h21.9c0.8-2.2,3-3.8,5.5-3.8
									c3.3,0,5.9,2.6,5.9,5.9C206.8,434.3,204.1,436.9,200.9,436.9z M317.5,325c3.3,0,5.9,2.6,5.9,5.9c0,3.3-2.6,5.9-5.9,5.9
									c-2.5,0-4.7-1.6-5.5-3.8h-19v24.2c2.2,0.8,3.8,3,3.8,5.5c0,3.3-2.6,5.9-5.9,5.9c-3.3,0-5.9-2.6-5.9-5.9
									c0-2.5,1.6-4.7,3.8-5.5V333h-19c-0.8,2.2-3,3.8-5.5,3.8c-3.3,0-5.9-2.6-5.9-5.9c0-3.3,2.6-5.9,5.9-5.9
									c2.5,0,4.7,1.6,5.5,3.8h19v-26.6c-2.2-0.8-3.8-3-3.8-5.5c0-3.3,2.6-5.9,5.9-5.9c3.3,0,5.9,2.6,5.9,5.9
									c0,2.5-1.6,4.7-3.8,5.5v26.6h19C312.8,326.5,315,325,317.5,325z M285.7,266.7c0.8-2.2,3-3.8,5.5-3.8c3.3,0,5.9,2.6,5.9,5.9
									c0,3.3-2.6,5.9-5.9,5.9c-2.5,0-4.7-1.6-5.5-3.8H230v25.3h12.8c0.8-2.2,3-3.8,5.5-3.8c3.3,0,5.9,2.6,5.9,5.9
									c0,3.3-2.6,5.9-5.9,5.9c-2.5,0-4.7-1.6-5.5-3.8h-33.3v66.9h40.7c0.8-2.2,3-3.8,5.5-3.8c3.3,0,5.9,2.6,5.9,5.9
									c0,3.3-2.6,5.9-5.9,5.9c-2.5,0-4.7-1.6-5.5-3.8h-9.6v28.7h31c0.8-2.2,3-3.8,5.5-3.8c3.3,0,5.9,2.6,5.9,5.9
									c0,3.3-2.6,5.9-5.9,5.9c-2.5,0-4.7-1.6-5.5-3.8h-31v70.8c2.2,0.8,3.8,3,3.8,5.5c0,3.3-2.6,5.9-5.9,5.9
									c-3.3,0-5.9-2.6-5.9-5.9c0-2.5,1.6-4.7,3.8-5.5V371.4h-26.9v7.8c2.2,0.8,3.8,3,3.8,5.5c0,3.3-2.6,5.9-5.9,5.9
									c-3.3,0-5.9-2.6-5.9-5.9c0-2.5,1.6-4.7,3.8-5.5v-78.9h-26.7c-1.2,0-2.1-0.9-2.1-2.1v-22.7h-24.6c-0.8,2.2-3,3.8-5.5,3.8
									c-3.3,0-5.9-2.6-5.9-5.9c0-3.3,2.6-5.9,5.9-5.9c2.5,0,4.7,1.6,5.5,3.8h35.6c0.8-2.2,3-3.8,5.5-3.8c3.3,0,5.9,2.6,5.9,5.9
									c0,3.3-2.6,5.9-5.9,5.9c-2.5,0-4.7-1.6-5.5-3.8h-6.8v20.6h26.7h18.4v-44c-2.2-0.8-3.8-3-3.8-5.5c0-3.3,2.6-5.9,5.9-5.9
									c3.3,0,5.9,2.6,5.9,5.9c0,2.5-1.6,4.7-3.8,5.5v14.5H285.7z M315.2,172.4c0.8-2.2,3-3.8,5.5-3.8c3.3,0,5.9,2.6,5.9,5.9
									s-2.6,5.9-5.9,5.9c-2.5,0-4.7-1.6-5.5-3.8h-58.9v20.2c2.3,0.9,3.9,3.1,3.8,5.7c-0.1,3.3-2.9,5.8-6.1,5.7
									c-3.3-0.1-5.8-2.9-5.7-6.1c0.1-2.4,1.7-4.5,3.8-5.3v-20.2h-6.7c-0.8,2.2-3,3.8-5.5,3.8c-3.3,0-5.9-2.6-5.9-5.9
									s2.6-5.9,5.9-5.9c2.5,0,4.7,1.6,5.5,3.8H315.2z M240.3,140.7c0.8-2.2,3-3.8,5.5-3.8c3.3,0,5.9,2.6,5.9,5.9s-2.6,5.9-5.9,5.9
									c-2.5,0-4.7-1.6-5.5-3.8h-47.4v29.9c2.2,0.8,3.8,3,3.8,5.5c0,3.3-2.6,5.9-5.9,5.9c-3.3,0-5.9-2.6-5.9-5.9
									c0-2.5,1.6-4.7,3.8-5.5v-29.9h-28v19.2c2.2,0.8,3.8,3,3.8,5.5c0,3.3-2.6,5.9-5.9,5.9c-3.3,0-5.9-2.6-5.9-5.9
									c0-2.5,1.6-4.7,3.8-5.5v-39.3h-34.3c-0.8,2.2-3,3.8-5.5,3.8c-3.3,0-5.9-2.6-5.9-5.9c0-3.3,2.6-5.9,5.9-5.9
									c2.5,0,4.7,1.6,5.5,3.8h34.3V99.4c-2.2-0.8-3.8-3-3.8-5.5c0-3.3,2.6-5.9,5.9-5.9c3.3,0,5.9,2.6,5.9,5.9
									c0,2.5-1.6,4.7-3.8,5.5v41.3h61.5v-15.9c-2.2-0.8-3.8-3-3.8-5.5c0-3.3,2.6-5.9,5.9-5.9c3.3,0,5.9,2.6,5.9,5.9
									c0,2.5-1.6,4.7-3.8,5.5v15.9H240.3z M203.4,93.5c0,3.3-2.6,5.9-5.9,5.9c-3.3,0-5.9-2.6-5.9-5.9c0-2.5,1.6-4.7,3.8-5.5V62.5
									v-7.1h-21.9c-0.8,2.2-3,3.8-5.5,3.8c-3.3,0-5.9-2.6-5.9-5.9c0-3.3,2.6-5.9,5.9-5.9c2.5,0,4.7,1.6,5.5,3.8h21.9V18.6
									c-2.2-0.8-3.8-3-3.8-5.5c0-3.3,2.6-5.9,5.9-5.9c3.3,0,5.9,2.6,5.9,5.9c0,2.5-1.6,4.7-3.8,5.5v43.9V88
									C201.8,88.9,203.4,91,203.4,93.5z M317.5-131.6c3.3,0,5.9,2.6,5.9,5.9c0,3.3-2.6,5.9-5.9,5.9c-2.5,0-4.7-1.6-5.5-3.8h-19
									v24.2c2.2,0.8,3.8,3,3.8,5.5c0,3.3-2.6,5.9-5.9,5.9c-3.3,0-5.9-2.6-5.9-5.9c0-2.5,1.6-4.7,3.8-5.5v-24.2h-19
									c-0.8,2.2-3,3.8-5.5,3.8c-3.3,0-5.9-2.6-5.9-5.9c0-3.3,2.6-5.9,5.9-5.9c2.5,0,4.7,1.6,5.5,3.8h19v-26.6
									c-2.2-0.8-3.8-3-3.8-5.5c0-3.3,2.6-5.9,5.9-5.9c3.3,0,5.9,2.6,5.9,5.9c0,2.5-1.6,4.7-3.8,5.5v26.6h19
									C312.8-130,315-131.6,317.5-131.6z M285.7-189.9c0.8-2.2,3-3.8,5.5-3.8c3.3,0,5.9,2.6,5.9,5.9c0,3.3-2.6,5.9-5.9,5.9
									c-2.5,0-4.7-1.6-5.5-3.8H230v25.3h12.8c0.8-2.2,3-3.8,5.5-3.8c3.3,0,5.9,2.6,5.9,5.9c0,3.3-2.6,5.9-5.9,5.9
									c-2.5,0-4.7-1.6-5.5-3.8h-33.3v66.9h40.7c0.8-2.2,3-3.8,5.5-3.8c3.3,0,5.9,2.6,5.9,5.9c0,3.3-2.6,5.9-5.9,5.9
									c-2.5,0-4.7-1.6-5.5-3.8h-9.6v28.7h31c0.8-2.2,3-3.8,5.5-3.8c3.3,0,5.9,2.6,5.9,5.9c0,3.3-2.6,5.9-5.9,5.9
									c-2.5,0-4.7-1.6-5.5-3.8h-31v70.8c2.2,0.8,3.8,3,3.8,5.5c0,3.3-2.6,5.9-5.9,5.9c-3.3,0-5.9-2.6-5.9-5.9
									c0-2.5,1.6-4.7,3.8-5.5V-85.1h-26.9v7.8c2.2,0.8,3.8,3,3.8,5.5c0,3.3-2.6,5.9-5.9,5.9c-3.3,0-5.9-2.6-5.9-5.9
									c0-2.5,1.6-4.7,3.8-5.5v-78.9h-26.7c-1.2,0-2.1-0.9-2.1-2.1V-181h-24.6c-0.8,2.2-3,3.8-5.5,3.8c-3.3,0-5.9-2.6-5.9-5.9
									c0-3.3,2.6-5.9,5.9-5.9c2.5,0,4.7,1.6,5.5,3.8h35.6c0.8-2.2,3-3.8,5.5-3.8c3.3,0,5.9,2.6,5.9,5.9c0,3.3-2.6,5.9-5.9,5.9
									c-2.5,0-4.7-1.6-5.5-3.8h-6.8v20.6h26.7h18.4v-44c-2.2-0.8-3.8-3-3.8-5.5c0-3.3,2.6-5.9,5.9-5.9c3.3,0,5.9,2.6,5.9,5.9
									c0,2.5-1.6,4.7-3.8,5.5v14.5H285.7z M315.2-284.2c0.8-2.2,3-3.8,5.5-3.8c3.3,0,5.9,2.6,5.9,5.9c0,3.3-2.6,5.9-5.9,5.9
									c-2.5,0-4.7-1.6-5.5-3.8h-58.9v20.2c2.3,0.9,3.9,3.1,3.8,5.7c-0.1,3.3-2.9,5.8-6.1,5.7c-3.3-0.1-5.8-2.9-5.7-6.1
									c0.1-2.4,1.7-4.5,3.8-5.3V-280h-6.7c-0.8,2.2-3,3.8-5.5,3.8c-3.3,0-5.9-2.6-5.9-5.9c0-3.3,2.6-5.9,5.9-5.9
									c2.5,0,4.7,1.6,5.5,3.8H315.2z M240.3-315.8c0.8-2.2,3-3.8,5.5-3.8c3.3,0,5.9,2.6,5.9,5.9c0,3.3-2.6,5.9-5.9,5.9
									c-2.5,0-4.7-1.6-5.5-3.8h-47.4v29.9c2.2,0.8,3.8,3,3.8,5.5c0,3.3-2.6,5.9-5.9,5.9c-3.3,0-5.9-2.6-5.9-5.9
									c0-2.5,1.6-4.7,3.8-5.5v-29.9h-28v19.2c2.2,0.8,3.8,3,3.8,5.5c0,3.3-2.6,5.9-5.9,5.9c-3.3,0-5.9-2.6-5.9-5.9
									c0-2.5,1.6-4.7,3.8-5.5v-39.3h-34.3c-0.8,2.2-3,3.8-5.5,3.8c-3.3,0-5.9-2.6-5.9-5.9c0-3.3,2.6-5.9,5.9-5.9
									c2.5,0,4.7,1.6,5.5,3.8h34.3v-21.2c-2.2-0.8-3.8-3-3.8-5.5c0-3.3,2.6-5.9,5.9-5.9c3.3,0,5.9,2.6,5.9,5.9
									c0,2.5-1.6,4.7-3.8,5.5v41.3h61.5v-15.9c-2.2-0.8-3.8-3-3.8-5.5c0-3.3,2.6-5.9,5.9-5.9c3.3,0,5.9,2.6,5.9,5.9
									c0,2.5-1.6,4.7-3.8,5.5v15.9H240.3z M203.4-363c0,3.3-2.6,5.9-5.9,5.9c-3.3,0-5.9-2.6-5.9-5.9c0-2.5,1.6-4.7,3.8-5.5v-25.5
									v0v-7.1h-21.9c-0.8,2.2-3,3.8-5.5,3.8c-3.3,0-5.9-2.6-5.9-5.9c0-3.3,2.6-5.9,5.9-5.9c2.5,0,4.7,1.6,5.5,3.8h21.9V-438
									c-2.2-0.8-3.8-3-3.8-5.5c0-3.3,2.6-5.9,5.9-5.9c3.3,0,5.9,2.6,5.9,5.9c0,2.5-1.6,4.7-3.8,5.5v43.9v0v25.5
									C201.8-367.7,203.4-365.6,203.4-363z M317.5-588.2c3.3,0,5.9,2.6,5.9,5.9c0,3.3-2.6,5.9-5.9,5.9c-2.5,0-4.7-1.6-5.5-3.8h-19
									v24.2c2.2,0.8,3.8,3,3.8,5.5c0,3.3-2.6,5.9-5.9,5.9c-3.3,0-5.9-2.6-5.9-5.9c0-2.5,1.6-4.7,3.8-5.5v-24.2h-19
									c-0.8,2.2-3,3.8-5.5,3.8c-3.3,0-5.9-2.6-5.9-5.9c0-3.3,2.6-5.9,5.9-5.9c2.5,0,4.7,1.6,5.5,3.8h19v-26.6
									c-2.2-0.8-3.8-3-3.8-5.5c0-3.3,2.6-5.9,5.9-5.9c3.3,0,5.9,2.6,5.9,5.9c0,2.5-1.6,4.7-3.8,5.5v26.6h19
									C312.8-586.6,315-588.2,317.5-588.2z M285.7-646.4c0.8-2.2,3-3.8,5.5-3.8c3.3,0,5.9,2.6,5.9,5.9c0,3.3-2.6,5.9-5.9,5.9
									c-2.5,0-4.7-1.6-5.5-3.8H230v25.3h12.8c0.8-2.2,3-3.8,5.5-3.8c3.3,0,5.9,2.6,5.9,5.9c0,3.3-2.6,5.9-5.9,5.9
									c-2.5,0-4.7-1.6-5.5-3.8h-33.3v66.9h40.7c0.8-2.2,3-3.8,5.5-3.8c3.3,0,5.9,2.6,5.9,5.9c0,3.3-2.6,5.9-5.9,5.9
									c-2.5,0-4.7-1.6-5.5-3.8h-9.6v28.7h31c0.8-2.2,3-3.8,5.5-3.8c3.3,0,5.9,2.6,5.9,5.9c0,3.3-2.6,5.9-5.9,5.9
									c-2.5,0-4.7-1.6-5.5-3.8h-31v70.8c2.2,0.8,3.8,3,3.8,5.5c0,3.3-2.6,5.9-5.9,5.9c-3.3,0-5.9-2.6-5.9-5.9
									c0-2.5,1.6-4.7,3.8-5.5v-103.7h-26.9v7.8c2.2,0.8,3.8,3,3.8,5.5c0,3.3-2.6,5.9-5.9,5.9c-3.3,0-5.9-2.6-5.9-5.9
									c0-2.5,1.6-4.7,3.8-5.5v-78.9h-26.7c-1.2,0-2.1-0.9-2.1-2.1v-22.7h-24.6c-0.8,2.2-3,3.8-5.5,3.8c-3.3,0-5.9-2.6-5.9-5.9
									c0-3.3,2.6-5.9,5.9-5.9c2.5,0,4.7,1.6,5.5,3.8h35.6c0.8-2.2,3-3.8,5.5-3.8c3.3,0,5.9,2.6,5.9,5.9c0,3.3-2.6,5.9-5.9,5.9
									c-2.5,0-4.7-1.6-5.5-3.8h-6.8v20.6h26.7h18.4v-44c-2.2-0.8-3.8-3-3.8-5.5c0-3.3,2.6-5.9,5.9-5.9c3.3,0,5.9,2.6,5.9,5.9
									c0,2.5-1.6,4.7-3.8,5.5v14.5H285.7z M320.7-732.8c-2.5,0-4.7-1.6-5.5-3.8h-58.9v20.2c2.3,0.9,3.9,3.1,3.8,5.7
									c-0.1,3.3-2.9,5.8-6.1,5.7c-3.3-0.1-5.8-2.9-5.7-6.1c0.1-2.4,1.7-4.5,3.8-5.3v-20.2h-6.7c-0.8,2.2-3,3.8-5.5,3.8
									c-3.3,0-5.9-2.6-5.9-5.9c0-3.3,2.6-5.9,5.9-5.9c2.5,0,4.7,1.6,5.5,3.8h69.8c0.8-2.2,3-3.8,5.5-3.8c3.3,0,5.9,2.6,5.9,5.9
									C326.7-735.4,324-732.8,320.7-732.8z"/>
								<rect x="-35.8" y="-850.7" class="st1" width="19.3" height="4.9"/>
								<rect x="283.9" y="-850.7" class="st1" width="49.7" height="10.2"/>
								<rect x="322.8" y="-472.6" class="st1" width="10.9" height="28.7"/>
								<path class="st2" d="M-137-832.5c3.3,0,5.9-2.6,5.9-5.9c0-3.3-2.6-5.9-5.9-5.9c-2.5,0-4.7,1.6-5.5,3.8h-23.8v4.2h23.8
									C-141.7-834.1-139.5-832.5-137-832.5z"/>
								<path class="st2" d="M-100-636.4h32.3v26.2c-2.2,0.8-3.8,3-3.8,5.5c0,3.3,2.6,5.9,5.9,5.9c3.3,0,5.9-2.6,5.9-5.9
									c0-2.5-1.6-4.7-3.8-5.5v-90.1h25.3v9.2c-2.2,0.8-3.8,3-3.8,5.5c0,3.3,2.6,5.9,5.9,5.9c3.3,0,5.9-2.6,5.9-5.9
									c0-2.5-1.6-4.7-3.8-5.5V-719H1c0.8,2.2,3,3.8,5.5,3.8c3.3,0,5.9-2.6,5.9-5.9c0-3.3-2.6-5.9-5.9-5.9c-2.5,0-4.7,1.6-5.5,3.8
									h-35v-18.1c2.2-0.8,3.8-3,3.8-5.5c0-3.3-2.6-5.9-5.9-5.9c-3.3,0-5.9,2.6-5.9,5.9c0,2.5,1.6,4.7,3.8,5.5v36.9h-40.2
									c-0.8-2.2-3-3.8-5.5-3.8c-3.3,0-5.9,2.6-5.9,5.9c0,3.3,2.6,5.9,5.9,5.9c2.5,0,4.7-1.6,5.5-3.8h10.7v59.7H-100
									c-0.8-2.2-3-3.8-5.5-3.8c-3.3,0-5.9,2.6-5.9,5.9c0,3.3,2.6,5.9,5.9,5.9C-103-632.5-100.8-634.1-100-636.4z"/>
								<path class="st2" d="M-137.2-787.1c-0.9-2.4-3.2-4.2-5.9-4.2c-3.4,0-6.2,2.8-6.2,6.2s2.8,6.2,6.2,6.2c2.7,0,5-1.7,5.9-4.2
									h55.8v30.6c-2.2,0.8-3.8,3-3.8,5.5c0,3.3,2.6,5.9,5.9,5.9c3.3,0,5.9-2.6,5.9-5.9c0-2.5-1.6-4.7-3.8-5.5V-785
									c0-1.2-0.9-2.1-2.1-2.1h-22.4v-63.5h-4.2v63.5H-137.2z"/>
								<path class="st2" d="M-33.5-648.6v48.2c-2.2,0.8-3.8,3-3.8,5.5c0,3.3,2.6,5.9,5.9,5.9c3.3,0,5.9-2.6,5.9-5.9
									c0-2.5-1.6-4.7-3.8-5.5v-44h42.5c0.8,2.2,3,3.8,5.5,3.8c3.3,0,5.9-2.6,5.9-5.9c0-3.3-2.6-5.9-5.9-5.9
									c-2.5,0-4.7,1.6-5.5,3.8H-33.5z"/>
								<path class="st2" d="M283.9-850.7h-4.2v24.9h-29.9c-0.8-2.2-3-3.8-5.5-3.8c-3.3,0-5.9,2.6-5.9,5.9c0,3.3,2.6,5.9,5.9,5.9
									c2.5,0,4.7-1.6,5.5-3.8h29.9v9.3c0,1.2,0.9,2.1,2.1,2.1h28.4v32.6c-2.2,0.8-3.8,3-3.8,5.5c0,3.3,2.6,5.9,5.9,5.9
									c3.3,0,5.9-2.6,5.9-5.9c0-2.5-1.6-4.7-3.8-5.5v-32.6h4.1c0.8,2.2,3,3.8,5.5,3.8c3.3,0,5.9-2.6,5.9-5.9
									c0-3.3-2.6-5.9-5.9-5.9c-2.5,0-4.7,1.6-5.5,3.8h-34.6v-22h49.7v-4.2h-49.7V-850.7z"/>
								<path class="st2" d="M-66.6-845.7c-0.8-2.2-3-3.8-5.5-3.8c-3.3,0-5.9,2.6-5.9,5.9c0,3.3,2.6,5.9,5.9,5.9
									c2.5,0,4.7-1.6,5.5-3.8H-40v43.7c-2.2,0.8-3.8,3-3.8,5.5c0,3.3,2.6,5.9,5.9,5.9c3.3,0,5.9-2.6,5.9-5.9
									c0-2.5-1.6-4.7-3.8-5.5v-43.7h21.4c1.2,0,2.1-0.9,2.1-2.1v-7h-4.2v4.9h-19.3v-4.9H-40v4.9H-66.6z"/>
								<path class="st2" d="M67.4-829.7c0,3.3,2.6,5.9,5.9,5.9c3.3,0,5.9-2.6,5.9-5.9c0-2.5-1.6-4.7-3.8-5.5v-15.5h-4.2v15.5
									C69-834.3,67.4-832.2,67.4-829.7z"/>
								<path class="st2" d="M121-837c0,3.3,2.6,5.9,5.9,5.9c3.3,0,5.9-2.6,5.9-5.9c0-2.5-1.6-4.7-3.8-5.5v-8.1h-4.2v8.1
									C122.6-841.7,121-839.6,121-837z"/>
								<path class="st2" d="M191.6-819.6c0,3.3,2.6,5.9,5.9,5.9c3.3,0,5.9-2.6,5.9-5.9c0-2.5-1.6-4.7-3.8-5.5v-25.5h-4.2v25.5
									C193.2-824.3,191.6-822.1,191.6-819.6z"/>
								<path class="st2" d="M320.7-744.6c-2.5,0-4.7,1.6-5.5,3.8h-69.8c-0.8-2.2-3-3.8-5.5-3.8c-3.3,0-5.9,2.6-5.9,5.9
									c0,3.3,2.6,5.9,5.9,5.9c2.5,0,4.7-1.6,5.5-3.8h6.7v20.2c-2.2,0.8-3.7,2.9-3.8,5.3c-0.1,3.3,2.4,6,5.7,6.1
									c3.3,0.1,6-2.4,6.1-5.7c0.1-2.6-1.5-4.9-3.8-5.7v-20.2h58.9c0.8,2.2,3,3.8,5.5,3.8c3.3,0,5.9-2.6,5.9-5.9
									C326.7-741.9,324-744.6,320.7-744.6z"/>
								<path class="st2" d="M116.7-784.5c2.5,0,4.7-1.6,5.5-3.8h34.3v39.3c-2.2,0.8-3.8,3-3.8,5.5c0,3.3,2.6,5.9,5.9,5.9
									c3.3,0,5.9-2.6,5.9-5.9c0-2.5-1.6-4.7-3.8-5.5v-19.2h28v29.9c-2.2,0.8-3.8,3-3.8,5.5c0,3.3,2.6,5.9,5.9,5.9
									c3.3,0,5.9-2.6,5.9-5.9c0-2.5-1.6-4.7-3.8-5.5v-29.9h47.4c0.8,2.2,3,3.8,5.5,3.8c3.3,0,5.9-2.6,5.9-5.9
									c0-3.3-2.6-5.9-5.9-5.9c-2.5,0-4.7,1.6-5.5,3.8h-13.9v-15.9c2.2-0.8,3.8-3,3.8-5.5c0-3.3-2.6-5.9-5.9-5.9
									c-3.3,0-5.9,2.6-5.9,5.9c0,2.5,1.6,4.7,3.8,5.5v15.9h-61.5v-41.3c2.2-0.8,3.8-3,3.8-5.5c0-3.3-2.6-5.9-5.9-5.9
									c-3.3,0-5.9,2.6-5.9,5.9c0,2.5,1.6,4.7,3.8,5.5v21.2h-34.3c-0.8-2.2-3-3.8-5.5-3.8c-3.3,0-5.9,2.6-5.9,5.9
									C110.8-787.2,113.5-784.5,116.7-784.5z"/>
								<path class="st2" d="M-0.5-815.2c-0.8-2.2-3-3.8-5.5-3.8c-3.3,0-5.9,2.6-5.9,5.9c0,3.3,2.6,5.9,5.9,5.9
									c2.5,0,4.7-1.6,5.5-3.8h40v56.1c-2.2,0.8-3.8,3-3.8,5.5c0,3.3,2.6,5.9,5.9,5.9c3.3,0,5.9-2.6,5.9-5.9c0-2.5-1.6-4.7-3.8-5.5
									v-21.9h32v36c-2.2,0.8-3.8,3-3.8,5.5c0,3.3,2.6,5.9,5.9,5.9c3.3,0,5.9-2.6,5.9-5.9c0-2.5-1.6-4.7-3.8-5.5v-57
									c2.2-0.8,3.8-3,3.8-5.5c0-3.3-2.6-5.9-5.9-5.9c-3.3,0-5.9,2.6-5.9,5.9c0,2.5,1.6,4.7,3.8,5.5v16.9h-32v-69.7h-4.2v35.5H-0.5
									z"/>
								<path class="st2" d="M-111-678.5c0.8,2.2,3,3.8,5.5,3.8c3.3,0,5.9-2.6,5.9-5.9c0-3.3-2.6-5.9-5.9-5.9
									c-2.5,0-4.7,1.6-5.5,3.8h-5.8v-32.8c2.2-0.8,3.8-3,3.8-5.5c0-3.3-2.6-5.9-5.9-5.9c-3.3,0-5.9,2.6-5.9,5.9
									c0,2.5,1.6,4.7,3.8,5.5v32.8h-25.3v-21.2c2.2-0.8,3.8-3,3.8-5.5c0-3.3-2.6-5.9-5.9-5.9c-3.3,0-5.9,2.6-5.9,5.9
									c0,2.5,1.6,4.7,3.8,5.5v21.2h-15.8v4.2H-111z"/>
								<path class="st2" d="M-166.3-632.3v4c0.2-0.6,0.3-1.3,0.3-2S-166.1-631.6-166.3-632.3z"/>
								<path class="st2" d="M-147.7-435.9c3.3,0,5.9-2.6,5.9-5.9c0-3.3-2.6-5.9-5.9-5.9c-2.5,0-4.7,1.6-5.5,3.8h-13.1v4.2h13.1
									C-152.4-437.5-150.3-435.9-147.7-435.9z"/>
								<path class="st2" d="M-160.5-468.8c3.3,0,5.9-2.6,5.9-5.9c0-3.3-2.6-5.9-5.9-5.9c-2.5,0-4.7,1.6-5.5,3.8h-0.3v1.2v1.7v1.2
									h0.3C-165.1-470.4-163-468.8-160.5-468.8z"/>
								<path class="st2" d="M-161-546.1h34.6v40.2c-2.2,0.8-3.8,3-3.8,5.5c0,3.3,2.6,5.9,5.9,5.9c3.3,0,5.9-2.6,5.9-5.9
									c0-2.5-1.6-4.7-3.8-5.5v-40.2h9.2c0.8,2.2,3,3.8,5.5,3.8c3.3,0,5.9-2.6,5.9-5.9c0-3.3-2.6-5.9-5.9-5.9
									c-2.5,0-4.7,1.6-5.5,3.8H-141v-58.4c2.2-0.8,3.8-3,3.8-5.5c0-3.3-2.6-5.9-5.9-5.9c-3.3,0-5.9,2.6-5.9,5.9
									c0,2.5,1.6,4.7,3.8,5.5v58.4H-161c-0.8-2.2-2.9-3.7-5.3-3.8v3.8v4.2v3.8C-163.9-542.4-161.8-544-161-546.1z"/>
								<path class="st2" d="M183.4-569.1c1,2,3,3.3,5.3,3.3c3.3,0,5.9-2.6,5.9-5.9c0-3.3-2.6-5.9-5.9-5.9c-2.7,0-5,1.8-5.7,4.3
									H97.4c-0.8-2.2-3-3.8-5.5-3.8c-3.3,0-5.9,2.6-5.9,5.9c0,3.3,2.6,5.9,5.9,5.9c2.5,0,4.7-1.6,5.5-3.8h6.8v108.6
									c0,1.2,0.9,2.1,2.1,2.1h65c1.2,0,2.1-0.9,2.1-2.1V-480h21.9c0.8,2.2,3,3.8,5.5,3.8c3.3,0,5.9-2.6,5.9-5.9
									c0-3.3-2.6-5.9-5.9-5.9c-2.5,0-4.7,1.6-5.5,3.8h-21.9v-13.9c2.2-0.8,3.8-3,3.8-5.5c0-3.3-2.6-5.9-5.9-5.9s-5.9,2.6-5.9,5.9
									c0,2.5,1.6,4.7,3.8,5.5v13.9h-23.4c-0.8-2.2-3-3.8-5.5-3.8c-3.3,0-5.9,2.6-5.9,5.9c0,3.3,2.6,5.9,5.9,5.9
									c2.5,0,4.7-1.6,5.5-3.8h23.4v17.4h-60.9v-70.3h17.9c0.8,2.2,3,3.8,5.5,3.8c3.3,0,5.9-2.6,5.9-5.9c0-3.3-2.6-5.9-5.9-5.9
									c-2.5,0-4.7,1.6-5.5,3.8h-17.9v-32h56.2v12.2c-2.2,0.8-3.8,3-3.8,5.5c0,3.3,2.6,5.9,5.9,5.9c3.3,0,5.9-2.6,5.9-5.9
									c0-2.5-1.6-4.7-3.8-5.5v-12.2H183.4z"/>
								<path class="st2" d="M230-661c2.2-0.8,3.8-3,3.8-5.5c0-3.3-2.6-5.9-5.9-5.9c-3.3,0-5.9,2.6-5.9,5.9c0,2.5,1.6,4.7,3.8,5.5
									v44h-18.4h-26.7v-20.6h6.8c0.8,2.2,3,3.8,5.5,3.8c3.3,0,5.9-2.6,5.9-5.9c0-3.3-2.6-5.9-5.9-5.9c-2.5,0-4.7,1.6-5.5,3.8
									h-35.6c-0.8-2.2-3-3.8-5.5-3.8c-3.3,0-5.9,2.6-5.9,5.9c0,3.3,2.6,5.9,5.9,5.9c2.5,0,4.7-1.6,5.5-3.8h24.6v22.7
									c0,1.2,0.9,2.1,2.1,2.1h26.7v78.9c-2.2,0.8-3.8,3-3.8,5.5c0,3.3,2.6,5.9,5.9,5.9c3.3,0,5.9-2.6,5.9-5.9
									c0-2.5-1.6-4.7-3.8-5.5v-7.8h26.9V-438c-2.2,0.8-3.8,3-3.8,5.5c0,3.3,2.6,5.9,5.9,5.9c3.3,0,5.9-2.6,5.9-5.9
									c0-2.5-1.6-4.7-3.8-5.5v-70.8h31c0.8,2.2,3,3.8,5.5,3.8c3.3,0,5.9-2.6,5.9-5.9c0-3.3-2.6-5.9-5.9-5.9
									c-2.5,0-4.7,1.6-5.5,3.8h-31v-28.7h9.6c0.8,2.2,3,3.8,5.5,3.8c3.3,0,5.9-2.6,5.9-5.9c0-3.3-2.6-5.9-5.9-5.9
									c-2.5,0-4.7,1.6-5.5,3.8h-40.7v-66.9h33.3c0.8,2.2,3,3.8,5.5,3.8c3.3,0,5.9-2.6,5.9-5.9c0-3.3-2.6-5.9-5.9-5.9
									c-2.5,0-4.7,1.6-5.5,3.8H230v-25.3h55.8c0.8,2.2,3,3.8,5.5,3.8c3.3,0,5.9-2.6,5.9-5.9c0-3.3-2.6-5.9-5.9-5.9
									c-2.5,0-4.7,1.6-5.5,3.8H230V-661z"/>
								<path class="st2" d="M154.8-605.5H115v-17.1c2.6-0.8,4.5-3.2,4.5-6c0-3.4-2.8-6.2-6.2-6.2c-3.4,0-6.2,2.8-6.2,6.2
									c0,2.6,1.6,4.8,3.8,5.8v17.3H54.3v-15.9c2.4-0.9,4.2-3.2,4.2-5.9c0-3.4-2.8-6.2-6.2-6.2s-6.2,2.8-6.2,6.2
									c0,2.7,1.7,5,4.2,5.9v15.9H24.5c-0.9-2.4-3.2-4.2-5.9-4.2c-3.4,0-6.2,2.8-6.2,6.2c0,3.4,2.8,6.2,6.2,6.2
									c2.7,0,5-1.7,5.9-4.2h40.3v58.2h-85.9c-0.9-2.4-3.2-4.2-5.9-4.2c-3.4,0-6.2,2.8-6.2,6.2c0,3.4,2.8,6.2,6.2,6.2
									c2.7,0,5-1.7,5.9-4.2h39v51.9H6.1c-0.8-2.2-3-3.8-5.5-3.8c-3.3,0-5.9,2.6-5.9,5.9c0,3.3,2.6,5.9,5.9,5.9
									c2.5,0,4.7-1.6,5.5-3.8h11.8v49c-2.2,0.8-3.8,3-3.8,5.5c0,3.3,2.6,5.9,5.9,5.9c3.3,0,5.9-2.6,5.9-5.9c0-2.5-1.6-4.7-3.8-5.5
									v-49h36.8c0.8,2.2,3,3.8,5.5,3.8c3.3,0,5.9-2.6,5.9-5.9c0-3.3-2.6-5.9-5.9-5.9c-2.5,0-4.7,1.6-5.5,3.8H22.1v-51.9h42.8v12.5
									c-2.2,0.8-3.8,3-3.8,5.5c0,3.3,2.6,5.9,5.9,5.9c3.3,0,5.9-2.6,5.9-5.9c0-2.5-1.6-4.7-3.8-5.5v-74.9h83.7v4.8
									c-2.2,0.8-3.8,3-3.8,5.5c0,3.3,2.6,5.9,5.9,5.9c3.3,0,5.9-2.6,5.9-5.9c0-2.5-1.6-4.7-3.8-5.5v-6.9
									C156.9-604.5,155.9-605.5,154.8-605.5z"/>
								<path class="st2" d="M322.8-511.1c2.2-0.8,3.8-3,3.8-5.5c0-3.3-2.6-5.9-5.9-5.9c-3.3,0-5.9,2.6-5.9,5.9
									c0,2.5,1.6,4.7,3.8,5.5v34.3H284c-0.8-2.2-3-3.8-5.5-3.8c-3.3,0-5.9,2.6-5.9,5.9c0,3.3,2.6,5.9,5.9,5.9
									c2.5,0,4.7-1.6,5.5-3.8h34.6v48.7c-2.2,0.8-3.8,3-3.8,5.5c0,3.3,2.6,5.9,5.9,5.9c3.3,0,5.9-2.6,5.9-5.9
									c0-2.5-1.6-4.7-3.8-5.5v-15.9h10.9v-4.2h-10.9v-28.7h10.9v-1.2v-1.7v-1.2h-10.9V-511.1z"/>
								<path class="st2" d="M290.6-682.7v-21.2c2.2-0.8,3.8-3,3.8-5.5c0-3.3-2.6-5.9-5.9-5.9c-3.3,0-5.9,2.6-5.9,5.9
									c0,2.5,1.6,4.7,3.8,5.5v23.3c0,1.2,0.9,2.1,2.1,2.1H326v42.7c-2.2,0.8-3.8,3-3.8,5.5c0,3.3,2.6,5.9,5.9,5.9
									c2.6,0,4.7-1.6,5.6-3.9v-4c-0.6-1.6-1.9-2.9-3.5-3.5v-42.7h3.5v-4.2H290.6z"/>
								<path class="st2" d="M-49.9-553.8c0.9,2.4,3.2,4.2,5.9,4.2c3.4,0,6.2-2.8,6.2-6.2s-2.8-6.2-6.2-6.2c-2.7,0-5,1.7-5.9,4.2
									h-19.6c-1.2,0-2.1,0.9-2.1,2.1v111.9h-16.5c-0.8-2.2-3-3.8-5.5-3.8c-3.3,0-5.9,2.6-5.9,5.9c0,3.3,2.6,5.9,5.9,5.9
									c2.5,0,4.7-1.6,5.5-3.8h18.6c1.2,0,2.1-0.9,2.1-2.1v-50.9h24.6c0.8,2.2,3,3.8,5.5,3.8c3.3,0,5.9-2.6,5.9-5.9
									c0-3.3-2.6-5.9-5.9-5.9c-2.5,0-4.7,1.6-5.5,3.8h-24.6v-56.9H-49.9z"/>
								<path class="st2" d="M33.7-674.7c2.5,0,4.7-1.6,5.5-3.8h65.7v20.6c-2.2,0.8-3.8,3-3.8,5.5c0,3.3,2.6,5.9,5.9,5.9
									c3.3,0,5.9-2.6,5.9-5.9c0-2.5-1.6-4.7-3.8-5.5v-22.6c0-1.2-0.9-2.1-2.1-2.1H66v-21.3c2.2-0.9,3.7-3,3.7-5.5
									c0-3.3-2.6-5.9-5.9-5.9c-3.3,0-5.9,2.6-5.9,5.9c0,2.6,1.6,4.7,3.9,5.6v21.2H39.3c-0.8-2.2-3-3.8-5.5-3.8
									c-3.3,0-5.9,2.6-5.9,5.9C27.8-677.3,30.5-674.7,33.7-674.7z"/>
								<path class="st2" d="M201.3-705.2c0.8,2.2,3,3.8,5.5,3.8c3.3,0,5.9-2.6,5.9-5.9s-2.6-5.9-5.9-5.9c-2.5,0-4.7,1.6-5.5,3.8
									h-54.7c-0.8-2.2-3-3.8-5.5-3.8c-3.3,0-5.9,2.6-5.9,5.9s2.6,5.9,5.9,5.9c2.5,0,4.7-1.6,5.5-3.8h21.2v34
									c-2.2,0.8-3.8,3-3.8,5.5c0,3.3,2.6,5.9,5.9,5.9c3.3,0,5.9-2.6,5.9-5.9c0-2.5-1.6-4.7-3.8-5.5v-34H201.3z"/>
								<path class="st2" d="M126.9-436c-3.3,0-5.9,2.6-5.9,5.9c0,2.5,1.6,4.7,3.8,5.5v5.8H75.4v-9.2c2.2-0.8,3.8-3,3.8-5.5
									c0-3.3-2.6-5.9-5.9-5.9c-3.3,0-5.9,2.6-5.9,5.9c0,2.5,1.6,4.7,3.8,5.5v33.8v0v15.5c-2.2,0.8-3.8,3-3.8,5.5
									c0,3.3,2.6,5.9,5.9,5.9c3.3,0,5.9-2.6,5.9-5.9c0-2.5-1.6-4.7-3.8-5.5v-15.5v0v-20.5h49.5v20.5v0v8.1c-2.2,0.8-3.8,3-3.8,5.5
									c0,3.3,2.6,5.9,5.9,5.9c3.3,0,5.9-2.6,5.9-5.9c0-2.5-1.6-4.7-3.8-5.5v-8.1v0v-30.5c2.2-0.8,3.8-3,3.8-5.5
									C132.9-433.3,130.2-436,126.9-436z"/>
								<path class="st2" d="M327.6-548.2c0,3.3,2.6,5.9,5.9,5.9c0.1,0,0.1,0,0.2,0v-3.8v-4.2v-3.8c-0.1,0-0.1,0-0.2,0
									C330.2-554.1,327.6-551.5,327.6-548.2z"/>
								<path class="st2" d="M293-584.4v-26.6c2.2-0.8,3.8-3,3.8-5.5c0-3.3-2.6-5.9-5.9-5.9c-3.3,0-5.9,2.6-5.9,5.9
									c0,2.5,1.6,4.7,3.8,5.5v26.6h-19c-0.8-2.2-3-3.8-5.5-3.8c-3.3,0-5.9,2.6-5.9,5.9c0,3.3,2.6,5.9,5.9,5.9
									c2.5,0,4.7-1.6,5.5-3.8h19v24.2c-2.2,0.8-3.8,3-3.8,5.5c0,3.3,2.6,5.9,5.9,5.9c3.3,0,5.9-2.6,5.9-5.9c0-2.5-1.6-4.7-3.8-5.5
									v-24.2h19c0.8,2.2,3,3.8,5.5,3.8c3.3,0,5.9-2.6,5.9-5.9c0-3.3-2.6-5.9-5.9-5.9c-2.5,0-4.7,1.6-5.5,3.8H293z"/>
								<rect x="322.8" y="-16" class="st1" width="10.9" height="28.7"/>
								<path class="st1" d="M330.2-179.2c1.6,0.6,2.9,1.9,3.5,3.5v-46.2h-3.5V-179.2z"/>
								<path class="st2" d="M-137-375.9c3.3,0,5.9-2.6,5.9-5.9c0-3.3-2.6-5.9-5.9-5.9c-2.5,0-4.7,1.6-5.5,3.8h-23.8v4.2h23.8
									C-141.7-377.5-139.5-375.9-137-375.9z"/>
								<path class="st2" d="M-100-179.8h32.3v26.2c-2.2,0.8-3.8,3-3.8,5.5c0,3.3,2.6,5.9,5.9,5.9c3.3,0,5.9-2.6,5.9-5.9
									c0-2.5-1.6-4.7-3.8-5.5v-90.1h25.3v9.2c-2.2,0.8-3.8,3-3.8,5.5c0,3.3,2.6,5.9,5.9,5.9c3.3,0,5.9-2.6,5.9-5.9
									c0-2.5-1.6-4.7-3.8-5.5v-27.9H1c0.8,2.2,3,3.8,5.5,3.8c3.3,0,5.9-2.6,5.9-5.9c0-3.3-2.6-5.9-5.9-5.9c-2.5,0-4.7,1.6-5.5,3.8
									h-35v-18.1c2.2-0.8,3.8-3,3.8-5.5c0-3.3-2.6-5.9-5.9-5.9c-3.3,0-5.9,2.6-5.9,5.9c0,2.5,1.6,4.7,3.8,5.5v36.9h-40.2
									c-0.8-2.2-3-3.8-5.5-3.8c-3.3,0-5.9,2.6-5.9,5.9c0,3.3,2.6,5.9,5.9,5.9c2.5,0,4.7-1.6,5.5-3.8h10.7v59.7H-100
									c-0.8-2.2-3-3.8-5.5-3.8c-3.3,0-5.9,2.6-5.9,5.9c0,3.3,2.6,5.9,5.9,5.9C-103-176-100.8-177.6-100-179.8z"/>
								<path class="st2" d="M-81.4-295.8c-2.2,0.8-3.8,3-3.8,5.5c0,3.3,2.6,5.9,5.9,5.9c3.3,0,5.9-2.6,5.9-5.9
									c0-2.5-1.6-4.7-3.8-5.5v-32.7c0-1.2-0.9-2.1-2.1-2.1h-22.4v-63.5v0v-5.7c2.2-0.8,3.8-3,3.8-5.5c0-3.3-2.6-5.9-5.9-5.9
									c-3.3,0-5.9,2.6-5.9,5.9c0,2.5,1.6,4.7,3.8,5.5v5.7v0v63.5h-31.3c-0.9-2.4-3.2-4.2-5.9-4.2c-3.4,0-6.2,2.8-6.2,6.2
									c0,3.4,2.8,6.2,6.2,6.2c2.7,0,5-1.7,5.9-4.2h55.8V-295.8z"/>
								<path class="st2" d="M-33.5-192v48.2c-2.2,0.8-3.8,3-3.8,5.5c0,3.3,2.6,5.9,5.9,5.9c3.3,0,5.9-2.6,5.9-5.9
									c0-2.5-1.6-4.7-3.8-5.5v-44h42.5c0.8,2.2,3,3.8,5.5,3.8c3.3,0,5.9-2.6,5.9-5.9c0-3.3-2.6-5.9-5.9-5.9
									c-2.5,0-4.7,1.6-5.5,3.8H-33.5z"/>
								<path class="st2" d="M199.6-394.1V-438c2.2-0.8,3.8-3,3.8-5.5c0-3.3-2.6-5.9-5.9-5.9c-3.3,0-5.9,2.6-5.9,5.9
									c0,2.5,1.6,4.7,3.8,5.5v32.6h-21.9c-0.8-2.2-3-3.8-5.5-3.8c-3.3,0-5.9,2.6-5.9,5.9c0,3.3,2.6,5.9,5.9,5.9
									c2.5,0,4.7-1.6,5.5-3.8h21.9v7.1v0v25.5c-2.2,0.8-3.8,3-3.8,5.5c0,3.3,2.6,5.9,5.9,5.9c3.3,0,5.9-2.6,5.9-5.9
									c0-2.5-1.6-4.7-3.8-5.5V-394.1L199.6-394.1z"/>
								<path class="st2" d="M283.9-394.1L283.9-394.1v-25.1c2.2-0.8,3.8-3,3.8-5.5c0-3.3-2.6-5.9-5.9-5.9c-3.3,0-5.9,2.6-5.9,5.9
									c0,2.5,1.6,4.7,3.8,5.5v25.1v0v24.9h-29.9c-0.8-2.2-3-3.8-5.5-3.8c-3.3,0-5.9,2.6-5.9,5.9c0,3.3,2.6,5.9,5.9,5.9
									c2.5,0,4.7-1.6,5.5-3.8h29.9v9.3c0,1.2,0.9,2.1,2.1,2.1h28.4v32.6c-2.2,0.8-3.8,3-3.8,5.5c0,3.3,2.6,5.9,5.9,5.9
									c3.3,0,5.9-2.6,5.9-5.9c0-2.5-1.6-4.7-3.8-5.5v-32.6h4.1c0.8,2.2,3,3.8,5.5,3.8c3.3,0,5.9-2.6,5.9-5.9
									c0-3.3-2.6-5.9-5.9-5.9c-2.5,0-4.7,1.6-5.5,3.8h-34.6v-22h49.7v-4.2h-49.7V-394.1z"/>
								<path class="st2" d="M226.4-331.7c2.2-0.8,3.8-3,3.8-5.5c0-3.3-2.6-5.9-5.9-5.9c-3.3,0-5.9,2.6-5.9,5.9
									c0,2.5,1.6,4.7,3.8,5.5v15.9h-61.5v-41.3c2.2-0.8,3.8-3,3.8-5.5c0-3.3-2.6-5.9-5.9-5.9c-3.3,0-5.9,2.6-5.9,5.9
									c0,2.5,1.6,4.7,3.8,5.5v21.2h-34.3c-0.8-2.2-3-3.8-5.5-3.8c-3.3,0-5.9,2.6-5.9,5.9c0,3.3,2.6,5.9,5.9,5.9
									c2.5,0,4.7-1.6,5.5-3.8h34.3v39.3c-2.2,0.8-3.8,3-3.8,5.5c0,3.3,2.6,5.9,5.9,5.9c3.3,0,5.9-2.6,5.9-5.9
									c0-2.5-1.6-4.7-3.8-5.5v-19.2h28v29.9c-2.2,0.8-3.8,3-3.8,5.5c0,3.3,2.6,5.9,5.9,5.9c3.3,0,5.9-2.6,5.9-5.9
									c0-2.5-1.6-4.7-3.8-5.5v-29.9h47.4c0.8,2.2,3,3.8,5.5,3.8c3.3,0,5.9-2.6,5.9-5.9c0-3.3-2.6-5.9-5.9-5.9
									c-2.5,0-4.7,1.6-5.5,3.8h-13.9V-331.7z"/>
								<path class="st2" d="M-14.4-385c1.2,0,2.1-0.9,2.1-2.1v-7v0v-19.3c2.2-0.8,3.8-3,3.8-5.5c0-3.3-2.6-5.9-5.9-5.9
									c-3.3,0-5.9,2.6-5.9,5.9c0,2.5,1.6,4.7,3.8,5.5v19.3v0v4.9h-19.3v-4.9v0v-40.1c2.2-0.8,3.8-3,3.8-5.5c0-3.3-2.6-5.9-5.9-5.9
									c-3.3,0-5.9,2.6-5.9,5.9c0,2.5,1.6,4.7,3.8,5.5v40.1v0v4.9h-26.6c-0.8-2.2-3-3.8-5.5-3.8c-3.3,0-5.9,2.6-5.9,5.9
									c0,3.3,2.6,5.9,5.9,5.9c2.5,0,4.7-1.6,5.5-3.8H-40v43.7c-2.2,0.8-3.8,3-3.8,5.5c0,3.3,2.6,5.9,5.9,5.9
									c3.3,0,5.9-2.6,5.9-5.9c0-2.5-1.6-4.7-3.8-5.5V-385H-14.4z"/>
								<path class="st2" d="M239.9-288c-3.3,0-5.9,2.6-5.9,5.9c0,3.3,2.6,5.9,5.9,5.9c2.5,0,4.7-1.6,5.5-3.8h6.7v20.2
									c-2.2,0.8-3.7,2.9-3.8,5.3c-0.1,3.3,2.4,6,5.7,6.1c3.3,0.1,6-2.4,6.1-5.7c0.1-2.6-1.5-4.9-3.8-5.7V-280h58.9
									c0.8,2.2,3,3.8,5.5,3.8c3.3,0,5.9-2.6,5.9-5.9c0-3.3-2.6-5.9-5.9-5.9c-2.5,0-4.7,1.6-5.5,3.8h-69.8
									C244.6-286.4,242.4-288,239.9-288z"/>
								<path class="st2" d="M-6-350.6c2.5,0,4.7-1.6,5.5-3.8h40v56.1c-2.2,0.8-3.8,3-3.8,5.5c0,3.3,2.6,5.9,5.9,5.9
									c3.3,0,5.9-2.6,5.9-5.9c0-2.5-1.6-4.7-3.8-5.5v-21.9h32v36c-2.2,0.8-3.8,3-3.8,5.5c0,3.3,2.6,5.9,5.9,5.9
									c3.3,0,5.9-2.6,5.9-5.9c0-2.5-1.6-4.7-3.8-5.5v-57c2.2-0.8,3.8-3,3.8-5.5c0-3.3-2.6-5.9-5.9-5.9c-3.3,0-5.9,2.6-5.9,5.9
									c0,2.5,1.6,4.7,3.8,5.5v16.9h-32v-69.7v0v-1.2c2.2-0.8,3.8-3,3.8-5.5c0-3.3-2.6-5.9-5.9-5.9c-3.3,0-5.9,2.6-5.9,5.9
									c0,2.5,1.6,4.7,3.8,5.5v1.2v0v35.5h-40c-0.8-2.2-3-3.8-5.5-3.8c-3.3,0-5.9,2.6-5.9,5.9C-12-353.3-9.3-350.6-6-350.6z"/>
								<path class="st2" d="M-111-221.9c0.8,2.2,3,3.8,5.5,3.8c3.3,0,5.9-2.6,5.9-5.9c0-3.3-2.6-5.9-5.9-5.9
									c-2.5,0-4.7,1.6-5.5,3.8h-5.8v-32.8c2.2-0.8,3.8-3,3.8-5.5c0-3.3-2.6-5.9-5.9-5.9c-3.3,0-5.9,2.6-5.9,5.9
									c0,2.5,1.6,4.7,3.8,5.5v32.8h-25.3v-21.2c2.2-0.8,3.8-3,3.8-5.5c0-3.3-2.6-5.9-5.9-5.9c-3.3,0-5.9,2.6-5.9,5.9
									c0,2.5,1.6,4.7,3.8,5.5v21.2h-15.8v4.2H-111z"/>
								<path class="st2" d="M-166.3-175.7v4c0.2-0.6,0.3-1.3,0.3-2C-166-174.4-166.1-175.1-166.3-175.7z"/>
								<path class="st2" d="M-147.7,20.6c3.3,0,5.9-2.6,5.9-5.9s-2.6-5.9-5.9-5.9c-2.5,0-4.7,1.6-5.5,3.8h-13.1v4.2h13.1
									C-152.4,19-150.3,20.6-147.7,20.6z"/>
								<path class="st2" d="M-160.5-12.2c3.3,0,5.9-2.6,5.9-5.9c0-3.3-2.6-5.9-5.9-5.9c-2.5,0-4.7,1.6-5.5,3.8h-0.3v1.2v1.7v1.2
									h0.3C-165.1-13.8-163-12.2-160.5-12.2z"/>
								<path class="st2" d="M-161-89.6h34.6v40.2c-2.2,0.8-3.8,3-3.8,5.5c0,3.3,2.6,5.9,5.9,5.9c3.3,0,5.9-2.6,5.9-5.9
									c0-2.5-1.6-4.7-3.8-5.5v-40.2h9.2c0.8,2.2,3,3.8,5.5,3.8c3.3,0,5.9-2.6,5.9-5.9c0-3.3-2.6-5.9-5.9-5.9
									c-2.5,0-4.7,1.6-5.5,3.8H-141v-58.4c2.2-0.8,3.8-3,3.8-5.5c0-3.3-2.6-5.9-5.9-5.9c-3.3,0-5.9,2.6-5.9,5.9
									c0,2.5,1.6,4.7,3.8,5.5v58.4H-161c-0.8-2.2-2.9-3.7-5.3-3.8v3.8v4.2v3.8C-163.9-85.8-161.8-87.4-161-89.6z"/>
								<path class="st2" d="M183.4-112.6c1,2,3,3.3,5.3,3.3c3.3,0,5.9-2.6,5.9-5.9c0-3.3-2.6-5.9-5.9-5.9c-2.7,0-5,1.8-5.7,4.3
									H97.4c-0.8-2.2-3-3.8-5.5-3.8c-3.3,0-5.9,2.6-5.9,5.9c0,3.3,2.6,5.9,5.9,5.9c2.5,0,4.7-1.6,5.5-3.8h6.8V-4
									c0,1.2,0.9,2.1,2.1,2.1h65c1.2,0,2.1-0.9,2.1-2.1v-19.5h21.9c0.8,2.2,3,3.8,5.5,3.8c3.3,0,5.9-2.6,5.9-5.9
									c0-3.3-2.6-5.9-5.9-5.9c-2.5,0-4.7,1.6-5.5,3.8h-21.9v-13.9c2.2-0.8,3.8-3,3.8-5.5c0-3.3-2.6-5.9-5.9-5.9s-5.9,2.6-5.9,5.9
									c0,2.5,1.6,4.7,3.8,5.5v13.9h-23.4c-0.8-2.2-3-3.8-5.5-3.8c-3.3,0-5.9,2.6-5.9,5.9c0,3.3,2.6,5.9,5.9,5.9
									c2.5,0,4.7-1.6,5.5-3.8h23.4v17.4h-60.9v-70.3h17.9c0.8,2.2,3,3.8,5.5,3.8c3.3,0,5.9-2.6,5.9-5.9c0-3.3-2.6-5.9-5.9-5.9
									c-2.5,0-4.7,1.6-5.5,3.8h-17.9v-32h56.2v12.2c-2.2,0.8-3.8,3-3.8,5.5c0,3.3,2.6,5.9,5.9,5.9c3.3,0,5.9-2.6,5.9-5.9
									c0-2.5-1.6-4.7-3.8-5.5v-12.2H183.4z"/>
								<path class="st2" d="M230-204.4c2.2-0.8,3.8-3,3.8-5.5c0-3.3-2.6-5.9-5.9-5.9c-3.3,0-5.9,2.6-5.9,5.9c0,2.5,1.6,4.7,3.8,5.5
									v44h-18.4h-26.7V-181h6.8c0.8,2.2,3,3.8,5.5,3.8c3.3,0,5.9-2.6,5.9-5.9c0-3.3-2.6-5.9-5.9-5.9c-2.5,0-4.7,1.6-5.5,3.8h-35.6
									c-0.8-2.2-3-3.8-5.5-3.8c-3.3,0-5.9,2.6-5.9,5.9c0,3.3,2.6,5.9,5.9,5.9c2.5,0,4.7-1.6,5.5-3.8h24.6v22.7
									c0,1.2,0.9,2.1,2.1,2.1h26.7v78.9c-2.2,0.8-3.8,3-3.8,5.5c0,3.3,2.6,5.9,5.9,5.9c3.3,0,5.9-2.6,5.9-5.9
									c0-2.5-1.6-4.7-3.8-5.5v-7.8h26.9V18.6c-2.2,0.8-3.8,3-3.8,5.5c0,3.3,2.6,5.9,5.9,5.9c3.3,0,5.9-2.6,5.9-5.9
									c0-2.5-1.6-4.7-3.8-5.5v-70.8h31c0.8,2.2,3,3.8,5.5,3.8c3.3,0,5.9-2.6,5.9-5.9c0-3.3-2.6-5.9-5.9-5.9
									c-2.5,0-4.7,1.6-5.5,3.8h-31v-28.7h9.6c0.8,2.2,3,3.8,5.5,3.8c3.3,0,5.9-2.6,5.9-5.9c0-3.3-2.6-5.9-5.9-5.9
									c-2.5,0-4.7,1.6-5.5,3.8h-40.7v-66.9h33.3c0.8,2.2,3,3.8,5.5,3.8c3.3,0,5.9-2.6,5.9-5.9c0-3.3-2.6-5.9-5.9-5.9
									c-2.5,0-4.7,1.6-5.5,3.8H230v-25.3h55.8c0.8,2.2,3,3.8,5.5,3.8c3.3,0,5.9-2.6,5.9-5.9c0-3.3-2.6-5.9-5.9-5.9
									c-2.5,0-4.7,1.6-5.5,3.8H230V-204.4z"/>
								<path class="st2" d="M199.6,18.6c2.2-0.8,3.8-3,3.8-5.5c0-3.3-2.6-5.9-5.9-5.9c-3.3,0-5.9,2.6-5.9,5.9
									c0,2.5,1.6,4.7,3.8,5.5v32.6h-21.9c-0.8-2.2-3-3.8-5.5-3.8c-3.3,0-5.9,2.6-5.9,5.9c0,3.3,2.6,5.9,5.9,5.9
									c2.5,0,4.7-1.6,5.5-3.8h21.9v7.1V88c-2.2,0.8-3.8,3-3.8,5.5c0,3.3,2.6,5.9,5.9,5.9c3.3,0,5.9-2.6,5.9-5.9
									c0-2.5-1.6-4.7-3.8-5.5V62.5V18.6z"/>
								<path class="st2" d="M322.8-54.5c2.2-0.8,3.8-3,3.8-5.5c0-3.3-2.6-5.9-5.9-5.9c-3.3,0-5.9,2.6-5.9,5.9
									c0,2.5,1.6,4.7,3.8,5.5v34.3H284c-0.8-2.2-3-3.8-5.5-3.8c-3.3,0-5.9,2.6-5.9,5.9s2.6,5.9,5.9,5.9c2.5,0,4.7-1.6,5.5-3.8
									h34.6v48.7c-2.2,0.8-3.8,3-3.8,5.5c0,3.3,2.6,5.9,5.9,5.9c3.3,0,5.9-2.6,5.9-5.9c0-2.5-1.6-4.7-3.8-5.5V16.8h10.9v-4.2
									h-10.9V-16h10.9v-1.2V-19v-1.2h-10.9V-54.5z"/>
								<path class="st2" d="M290.6-226.1v-21.2c2.2-0.8,3.8-3,3.8-5.5c0-3.3-2.6-5.9-5.9-5.9c-3.3,0-5.9,2.6-5.9,5.9
									c0,2.5,1.6,4.7,3.8,5.5v23.3c0,1.2,0.9,2.1,2.1,2.1H326v42.7c-2.2,0.8-3.8,3-3.8,5.5c0,3.3,2.6,5.9,5.9,5.9
									c2.6,0,4.7-1.6,5.6-3.9v-4c-0.6-1.6-1.9-2.9-3.5-3.5v-42.7h3.5v-4.2H290.6z"/>
								<path class="st2" d="M107-226.1H66v-21.3c2.2-0.9,3.7-3,3.7-5.5c0-3.3-2.6-5.9-5.9-5.9c-3.3,0-5.9,2.6-5.9,5.9
									c0,2.6,1.6,4.7,3.9,5.6v21.2H39.3c-0.8-2.2-3-3.8-5.5-3.8c-3.3,0-5.9,2.6-5.9,5.9c0,3.3,2.6,5.9,5.9,5.9
									c2.5,0,4.7-1.6,5.5-3.8h65.7v20.6c-2.2,0.8-3.8,3-3.8,5.5c0,3.3,2.6,5.9,5.9,5.9c3.3,0,5.9-2.6,5.9-5.9
									c0-2.5-1.6-4.7-3.8-5.5V-224C109.1-225.2,108.2-226.1,107-226.1z"/>
								<path class="st2" d="M-49.9-97.2c0.9,2.4,3.2,4.2,5.9,4.2c3.4,0,6.2-2.8,6.2-6.2c0-3.4-2.8-6.2-6.2-6.2
									c-2.7,0-5,1.7-5.9,4.2h-19.6c-1.2,0-2.1,0.9-2.1,2.1V12.6h-16.5c-0.8-2.2-3-3.8-5.5-3.8c-3.3,0-5.9,2.6-5.9,5.9
									s2.6,5.9,5.9,5.9c2.5,0,4.7-1.6,5.5-3.8h18.6c1.2,0,2.1-0.9,2.1-2.1v-50.9h24.6c0.8,2.2,3,3.8,5.5,3.8
									c3.3,0,5.9-2.6,5.9-5.9s-2.6-5.9-5.9-5.9c-2.5,0-4.7,1.6-5.5,3.8h-24.6v-56.9H-49.9z"/>
								<path class="st2" d="M201.3-248.6c0.8,2.2,3,3.8,5.5,3.8c3.3,0,5.9-2.6,5.9-5.9c0-3.3-2.6-5.9-5.9-5.9
									c-2.5,0-4.7,1.6-5.5,3.8h-54.7c-0.8-2.2-3-3.8-5.5-3.8c-3.3,0-5.9,2.6-5.9,5.9c0,3.3,2.6,5.9,5.9,5.9c2.5,0,4.7-1.6,5.5-3.8
									h21.2v34c-2.2,0.8-3.8,3-3.8,5.5c0,3.3,2.6,5.9,5.9,5.9c3.3,0,5.9-2.6,5.9-5.9c0-2.5-1.6-4.7-3.8-5.5v-34H201.3z"/>
								<path class="st2" d="M126.9,20.6c-3.3,0-5.9,2.6-5.9,5.9c0,2.5,1.6,4.7,3.8,5.5v5.8H75.4v-9.2c2.2-0.8,3.8-3,3.8-5.5
									c0-3.3-2.6-5.9-5.9-5.9c-3.3,0-5.9,2.6-5.9,5.9c0,2.5,1.6,4.7,3.8,5.5v33.8V78c-2.2,0.8-3.8,3-3.8,5.5
									c0,3.3,2.6,5.9,5.9,5.9c3.3,0,5.9-2.6,5.9-5.9c0-2.5-1.6-4.7-3.8-5.5V62.5V42h49.5v20.5v8.1c-2.2,0.8-3.8,3-3.8,5.5
									c0,3.3,2.6,5.9,5.9,5.9c3.3,0,5.9-2.6,5.9-5.9c0-2.5-1.6-4.7-3.8-5.5v-8.1V32c2.2-0.8,3.8-3,3.8-5.5
									C132.9,23.2,130.2,20.6,126.9,20.6z"/>
								<path class="st2" d="M327.6-91.6c0,3.3,2.6,5.9,5.9,5.9c0.1,0,0.1,0,0.2,0v-3.8v-4.2v-3.8c-0.1,0-0.1,0-0.2,0
									C330.2-97.6,327.6-94.9,327.6-91.6z"/>
								<path class="st2" d="M293-127.8v-26.6c2.2-0.8,3.8-3,3.8-5.5c0-3.3-2.6-5.9-5.9-5.9c-3.3,0-5.9,2.6-5.9,5.9
									c0,2.5,1.6,4.7,3.8,5.5v26.6h-19c-0.8-2.2-3-3.8-5.5-3.8c-3.3,0-5.9,2.6-5.9,5.9c0,3.3,2.6,5.9,5.9,5.9
									c2.5,0,4.7-1.6,5.5-3.8h19v24.2c-2.2,0.8-3.8,3-3.8,5.5c0,3.3,2.6,5.9,5.9,5.9c3.3,0,5.9-2.6,5.9-5.9c0-2.5-1.6-4.7-3.8-5.5
									v-24.2h19c0.8,2.2,3,3.8,5.5,3.8c3.3,0,5.9-2.6,5.9-5.9c0-3.3-2.6-5.9-5.9-5.9c-2.5,0-4.7,1.6-5.5,3.8H293z"/>
								<path class="st2" d="M119.5-171.9c0-3.4-2.8-6.2-6.2-6.2c-3.4,0-6.2,2.8-6.2,6.2c0,2.6,1.6,4.8,3.8,5.8v17.3H54.3v-15.9
									c2.4-0.9,4.2-3.2,4.2-5.9c0-3.4-2.8-6.2-6.2-6.2s-6.2,2.8-6.2,6.2c0,2.7,1.7,5,4.2,5.9v15.9H24.5c-0.9-2.4-3.2-4.2-5.9-4.2
									c-3.4,0-6.2,2.8-6.2,6.2c0,3.4,2.8,6.2,6.2,6.2c2.7,0,5-1.7,5.9-4.2h40.3v58.2h-85.9c-0.9-2.4-3.2-4.2-5.9-4.2
									c-3.4,0-6.2,2.8-6.2,6.2c0,3.4,2.8,6.2,6.2,6.2c2.7,0,5-1.7,5.9-4.2h39v51.9H6.1c-0.8-2.2-3-3.8-5.5-3.8
									c-3.3,0-5.9,2.6-5.9,5.9c0,3.3,2.6,5.9,5.9,5.9c2.5,0,4.7-1.6,5.5-3.8h11.8v49c-2.2,0.8-3.8,3-3.8,5.5
									c0,3.3,2.6,5.9,5.9,5.9c3.3,0,5.9-2.6,5.9-5.9c0-2.5-1.6-4.7-3.8-5.5v-49h36.8c0.8,2.2,3,3.8,5.5,3.8c3.3,0,5.9-2.6,5.9-5.9
									c0-3.3-2.6-5.9-5.9-5.9c-2.5,0-4.7,1.6-5.5,3.8H22.1v-51.9h42.8v12.5c-2.2,0.8-3.8,3-3.8,5.5c0,3.3,2.6,5.9,5.9,5.9
									c3.3,0,5.9-2.6,5.9-5.9c0-2.5-1.6-4.7-3.8-5.5v-74.9h83.7v4.8c-2.2,0.8-3.8,3-3.8,5.5c0,3.3,2.6,5.9,5.9,5.9
									c3.3,0,5.9-2.6,5.9-5.9c0-2.5-1.6-4.7-3.8-5.5v-6.9c0-1.2-0.9-2.1-2.1-2.1H115V-166C117.6-166.7,119.5-169.1,119.5-171.9z"
									/>
								<path class="st1" d="M330.2,277.3c1.6,0.6,2.9,1.9,3.5,3.5v-46.2h-3.5V277.3z"/>
								<rect x="322.8" y="440.5" class="st1" width="10.9" height="28.7"/>
								<rect x="75.4" y="498.5" class="st1" width="49.5" height="20.5"/>
								<path class="st2" d="M-137,80.6c3.3,0,5.9-2.6,5.9-5.9s-2.6-5.9-5.9-5.9c-2.5,0-4.7,1.6-5.5,3.8h-23.8v4.2h23.8
									C-141.7,79.1-139.5,80.6-137,80.6z"/>
								<path class="st2" d="M-81.4,160.8c-2.2,0.8-3.8,3-3.8,5.5c0,3.3,2.6,5.9,5.9,5.9c3.3,0,5.9-2.6,5.9-5.9
									c0-2.5-1.6-4.7-3.8-5.5v-32.7c0-1.2-0.9-2.1-2.1-2.1h-22.4V62.5v-5.7c2.2-0.8,3.8-3,3.8-5.5c0-3.3-2.6-5.9-5.9-5.9
									c-3.3,0-5.9,2.6-5.9,5.9c0,2.5,1.6,4.7,3.8,5.5v5.7V126h-31.3c-0.9-2.4-3.2-4.2-5.9-4.2c-3.4,0-6.2,2.8-6.2,6.2
									c0,3.4,2.8,6.2,6.2,6.2c2.7,0,5-1.7,5.9-4.2h55.8V160.8z"/>
								<path class="st2" d="M-67.6,303c-2.2,0.8-3.8,3-3.8,5.5c0,3.3,2.6,5.9,5.9,5.9c3.3,0,5.9-2.6,5.9-5.9c0-2.5-1.6-4.7-3.8-5.5
									v-90.1h25.3v9.2c-2.2,0.8-3.8,3-3.8,5.5c0,3.3,2.6,5.9,5.9,5.9c3.3,0,5.9-2.6,5.9-5.9c0-2.5-1.6-4.7-3.8-5.5v-27.9H1
									c0.8,2.2,3,3.8,5.5,3.8c3.3,0,5.9-2.6,5.9-5.9c0-3.3-2.6-5.9-5.9-5.9c-2.5,0-4.7,1.6-5.5,3.8h-35v-18.1
									c2.2-0.8,3.8-3,3.8-5.5c0-3.3-2.6-5.9-5.9-5.9c-3.3,0-5.9,2.6-5.9,5.9c0,2.5,1.6,4.7,3.8,5.5v36.9h-40.2
									c-0.8-2.2-3-3.8-5.5-3.8c-3.3,0-5.9,2.6-5.9,5.9s2.6,5.9,5.9,5.9c2.5,0,4.7-1.6,5.5-3.8h10.7v59.7H-100
									c-0.8-2.2-3-3.8-5.5-3.8c-3.3,0-5.9,2.6-5.9,5.9c0,3.3,2.6,5.9,5.9,5.9c2.5,0,4.7-1.6,5.5-3.8h32.3V303z"/>
								<path class="st2" d="M13.1,268.7c0.8,2.2,3,3.8,5.5,3.8c3.3,0,5.9-2.6,5.9-5.9s-2.6-5.9-5.9-5.9c-2.5,0-4.7,1.6-5.5,3.8
									h-46.6v48.2c-2.2,0.8-3.8,3-3.8,5.5c0,3.3,2.6,5.9,5.9,5.9c3.3,0,5.9-2.6,5.9-5.9c0-2.5-1.6-4.7-3.8-5.5v-44H13.1z"/>
								<path class="st2" d="M283.9,62.5V37.3c2.2-0.8,3.8-3,3.8-5.5c0-3.3-2.6-5.9-5.9-5.9c-3.3,0-5.9,2.6-5.9,5.9
									c0,2.5,1.6,4.7,3.8,5.5v25.1v24.9h-29.9c-0.8-2.2-3-3.8-5.5-3.8c-3.3,0-5.9,2.6-5.9,5.9s2.6,5.9,5.9,5.9
									c2.5,0,4.7-1.6,5.5-3.8h29.9v9.3c0,1.2,0.9,2.1,2.1,2.1h28.4v32.6c-2.2,0.8-3.8,3-3.8,5.5c0,3.3,2.6,5.9,5.9,5.9
									c3.3,0,5.9-2.6,5.9-5.9c0-2.5-1.6-4.7-3.8-5.5V103h4.1c0.8,2.2,3,3.8,5.5,3.8c3.3,0,5.9-2.6,5.9-5.9c0-3.3-2.6-5.9-5.9-5.9
									c-2.5,0-4.7,1.6-5.5,3.8h-34.6v-22h49.7v-4.2h-49.7V62.5z"/>
								<path class="st2" d="M226.4,124.9c2.2-0.8,3.8-3,3.8-5.5c0-3.3-2.6-5.9-5.9-5.9c-3.3,0-5.9,2.6-5.9,5.9
									c0,2.5,1.6,4.7,3.8,5.5v15.9h-61.5V99.4c2.2-0.8,3.8-3,3.8-5.5c0-3.3-2.6-5.9-5.9-5.9c-3.3,0-5.9,2.6-5.9,5.9
									c0,2.5,1.6,4.7,3.8,5.5v21.2h-34.3c-0.8-2.2-3-3.8-5.5-3.8c-3.3,0-5.9,2.6-5.9,5.9c0,3.3,2.6,5.9,5.9,5.9
									c2.5,0,4.7-1.6,5.5-3.8h34.3v39.3c-2.2,0.8-3.8,3-3.8,5.5c0,3.3,2.6,5.9,5.9,5.9c3.3,0,5.9-2.6,5.9-5.9
									c0-2.5-1.6-4.7-3.8-5.5v-19.2h28v29.9c-2.2,0.8-3.8,3-3.8,5.5c0,3.3,2.6,5.9,5.9,5.9c3.3,0,5.9-2.6,5.9-5.9
									c0-2.5-1.6-4.7-3.8-5.5v-29.9h47.4c0.8,2.2,3,3.8,5.5,3.8c3.3,0,5.9-2.6,5.9-5.9s-2.6-5.9-5.9-5.9c-2.5,0-4.7,1.6-5.5,3.8
									h-13.9V124.9z"/>
								<path class="st2" d="M-14.4,71.6c1.2,0,2.1-0.9,2.1-2.1v-7V43.2c2.2-0.8,3.8-3,3.8-5.5c0-3.3-2.6-5.9-5.9-5.9
									c-3.3,0-5.9,2.6-5.9,5.9c0,2.5,1.6,4.7,3.8,5.5v19.3v4.9h-19.3v-4.9V22.4c2.2-0.8,3.8-3,3.8-5.5c0-3.3-2.6-5.9-5.9-5.9
									c-3.3,0-5.9,2.6-5.9,5.9c0,2.5,1.6,4.7,3.8,5.5v40.1v4.9h-26.6c-0.8-2.2-3-3.8-5.5-3.8c-3.3,0-5.9,2.6-5.9,5.9
									c0,3.3,2.6,5.9,5.9,5.9c2.5,0,4.7-1.6,5.5-3.8H-40v43.7c-2.2,0.8-3.8,3-3.8,5.5c0,3.3,2.6,5.9,5.9,5.9
									c3.3,0,5.9-2.6,5.9-5.9c0-2.5-1.6-4.7-3.8-5.5V71.6H-14.4z"/>
								<path class="st2" d="M239.9,168.5c-3.3,0-5.9,2.6-5.9,5.9s2.6,5.9,5.9,5.9c2.5,0,4.7-1.6,5.5-3.8h6.7v20.2
									c-2.2,0.8-3.7,2.9-3.8,5.3c-0.1,3.3,2.4,6,5.7,6.1c3.3,0.1,6-2.4,6.1-5.7c0.1-2.6-1.5-4.9-3.8-5.7v-20.2h58.9
									c0.8,2.2,3,3.8,5.5,3.8c3.3,0,5.9-2.6,5.9-5.9s-2.6-5.9-5.9-5.9c-2.5,0-4.7,1.6-5.5,3.8h-69.8
									C244.6,170.1,242.4,168.5,239.9,168.5z"/>
								<path class="st2" d="M39.5,158.2c-2.2,0.8-3.8,3-3.8,5.5c0,3.3,2.6,5.9,5.9,5.9c3.3,0,5.9-2.6,5.9-5.9
									c0-2.5-1.6-4.7-3.8-5.5v-21.9h32v36c-2.2,0.8-3.8,3-3.8,5.5c0,3.3,2.6,5.9,5.9,5.9c3.3,0,5.9-2.6,5.9-5.9
									c0-2.5-1.6-4.7-3.8-5.5v-57c2.2-0.8,3.8-3,3.8-5.5c0-3.3-2.6-5.9-5.9-5.9c-3.3,0-5.9,2.6-5.9,5.9c0,2.5,1.6,4.7,3.8,5.5
									v16.9h-32V62.5v-1.2c2.2-0.8,3.8-3,3.8-5.5c0-3.3-2.6-5.9-5.9-5.9c-3.3,0-5.9,2.6-5.9,5.9c0,2.5,1.6,4.7,3.8,5.5v1.2v35.5
									h-40c-0.8-2.2-3-3.8-5.5-3.8c-3.3,0-5.9,2.6-5.9,5.9s2.6,5.9,5.9,5.9c2.5,0,4.7-1.6,5.5-3.8h40V158.2z"/>
								<path class="st2" d="M-111,234.6c0.8,2.2,3,3.8,5.5,3.8c3.3,0,5.9-2.6,5.9-5.9s-2.6-5.9-5.9-5.9c-2.5,0-4.7,1.6-5.5,3.8
									h-5.8v-32.8c2.2-0.8,3.8-3,3.8-5.5c0-3.3-2.6-5.9-5.9-5.9c-3.3,0-5.9,2.6-5.9,5.9c0,2.5,1.6,4.7,3.8,5.5v32.8h-25.3v-21.2
									c2.2-0.8,3.8-3,3.8-5.5c0-3.3-2.6-5.9-5.9-5.9c-3.3,0-5.9,2.6-5.9,5.9c0,2.5,1.6,4.7,3.8,5.5v21.2h-15.8v4.2H-111z"/>
								<path class="st2" d="M-166.3,280.9v4c0.2-0.6,0.3-1.3,0.3-2S-166.1,281.5-166.3,280.9z"/>
								<path class="st2" d="M-97.9,507.9c0-3.3-2.6-5.9-5.9-5.9c-3.3,0-5.9,2.6-5.9,5.9c0,2.5,1.6,4.7,3.8,5.5v5.7h4.2v-5.7
									C-99.5,512.5-97.9,510.4-97.9,507.9z"/>
								<path class="st2" d="M-147.7,477.2c3.3,0,5.9-2.6,5.9-5.9c0-3.3-2.6-5.9-5.9-5.9c-2.5,0-4.7,1.6-5.5,3.8h-13.1v4.2h13.1
									C-152.4,475.6-150.3,477.2-147.7,477.2z"/>
								<path class="st2" d="M-160.5,444.3c3.3,0,5.9-2.6,5.9-5.9c0-3.3-2.6-5.9-5.9-5.9c-2.5,0-4.7,1.6-5.5,3.8h-0.3v1.2v1.7v1.2
									h0.3C-165.1,442.7-163,444.3-160.5,444.3z"/>
								<path class="st2" d="M-161,367h34.6v40.2c-2.2,0.8-3.8,3-3.8,5.5c0,3.3,2.6,5.9,5.9,5.9c3.3,0,5.9-2.6,5.9-5.9
									c0-2.5-1.6-4.7-3.8-5.5V367h9.2c0.8,2.2,3,3.8,5.5,3.8c3.3,0,5.9-2.6,5.9-5.9s-2.6-5.9-5.9-5.9c-2.5,0-4.7,1.6-5.5,3.8H-141
									v-58.4c2.2-0.8,3.8-3,3.8-5.5c0-3.3-2.6-5.9-5.9-5.9c-3.3,0-5.9,2.6-5.9,5.9c0,2.5,1.6,4.7,3.8,5.5v58.4H-161
									c-0.8-2.2-2.9-3.7-5.3-3.8v3.8v4.2v3.8C-163.9,370.7-161.8,369.2-161,367z"/>
								<path class="st2" d="M230,252.2c2.2-0.8,3.8-3,3.8-5.5c0-3.3-2.6-5.9-5.9-5.9c-3.3,0-5.9,2.6-5.9,5.9c0,2.5,1.6,4.7,3.8,5.5
									v44h-18.4h-26.7v-20.6h6.8c0.8,2.2,3,3.8,5.5,3.8c3.3,0,5.9-2.6,5.9-5.9c0-3.3-2.6-5.9-5.9-5.9c-2.5,0-4.7,1.6-5.5,3.8
									h-35.6c-0.8-2.2-3-3.8-5.5-3.8c-3.3,0-5.9,2.6-5.9,5.9c0,3.3,2.6,5.9,5.9,5.9c2.5,0,4.7-1.6,5.5-3.8h24.6v22.7
									c0,1.2,0.9,2.1,2.1,2.1h26.7v78.9c-2.2,0.8-3.8,3-3.8,5.5c0,3.3,2.6,5.9,5.9,5.9c3.3,0,5.9-2.6,5.9-5.9
									c0-2.5-1.6-4.7-3.8-5.5v-7.8h26.9v103.7c-2.2,0.8-3.8,3-3.8,5.5c0,3.3,2.6,5.9,5.9,5.9c3.3,0,5.9-2.6,5.9-5.9
									c0-2.5-1.6-4.7-3.8-5.5v-70.8h31c0.8,2.2,3,3.8,5.5,3.8c3.3,0,5.9-2.6,5.9-5.9c0-3.3-2.6-5.9-5.9-5.9
									c-2.5,0-4.7,1.6-5.5,3.8h-31v-28.7h9.6c0.8,2.2,3,3.8,5.5,3.8c3.3,0,5.9-2.6,5.9-5.9c0-3.3-2.6-5.9-5.9-5.9
									c-2.5,0-4.7,1.6-5.5,3.8h-40.7v-66.9h33.3c0.8,2.2,3,3.8,5.5,3.8c3.3,0,5.9-2.6,5.9-5.9c0-3.3-2.6-5.9-5.9-5.9
									c-2.5,0-4.7,1.6-5.5,3.8H230v-25.3h55.8c0.8,2.2,3,3.8,5.5,3.8c3.3,0,5.9-2.6,5.9-5.9c0-3.3-2.6-5.9-5.9-5.9
									c-2.5,0-4.7,1.6-5.5,3.8H230V252.2z"/>
								<path class="st2" d="M152.7,311.9v4.8c-2.2,0.8-3.8,3-3.8,5.5c0,3.3,2.6,5.9,5.9,5.9c3.3,0,5.9-2.6,5.9-5.9
									c0-2.5-1.6-4.7-3.8-5.5v-6.9c0-1.2-0.9-2.1-2.1-2.1H115v-17.1c2.6-0.8,4.5-3.2,4.5-6c0-3.4-2.8-6.2-6.2-6.2
									c-3.4,0-6.2,2.8-6.2,6.2c0,2.6,1.6,4.8,3.8,5.8v17.3H54.3v-15.9c2.4-0.9,4.2-3.2,4.2-5.9c0-3.4-2.8-6.2-6.2-6.2
									s-6.2,2.8-6.2,6.2c0,2.7,1.7,5,4.2,5.9v15.9H24.5c-0.9-2.4-3.2-4.2-5.9-4.2c-3.4,0-6.2,2.8-6.2,6.2c0,3.4,2.8,6.2,6.2,6.2
									c2.7,0,5-1.7,5.9-4.2h40.3V370h-85.9c-0.9-2.4-3.2-4.2-5.9-4.2c-3.4,0-6.2,2.8-6.2,6.2c0,3.4,2.8,6.2,6.2,6.2
									c2.7,0,5-1.7,5.9-4.2h39v51.9H6.1c-0.8-2.2-3-3.8-5.5-3.8c-3.3,0-5.9,2.6-5.9,5.9c0,3.3,2.6,5.9,5.9,5.9
									c2.5,0,4.7-1.6,5.5-3.8h11.8v49c-2.2,0.8-3.8,3-3.8,5.5c0,3.3,2.6,5.9,5.9,5.9c3.3,0,5.9-2.6,5.9-5.9c0-2.5-1.6-4.7-3.8-5.5
									v-49h36.8c0.8,2.2,3,3.8,5.5,3.8c3.3,0,5.9-2.6,5.9-5.9c0-3.3-2.6-5.9-5.9-5.9c-2.5,0-4.7,1.6-5.5,3.8H22.1v-51.9h42.8v12.5
									c-2.2,0.8-3.8,3-3.8,5.5c0,3.3,2.6,5.9,5.9,5.9c3.3,0,5.9-2.6,5.9-5.9c0-2.5-1.6-4.7-3.8-5.5v-74.9H152.7z"/>
								<path class="st2" d="M199.6,475.2c2.2-0.8,3.8-3,3.8-5.5c0-3.3-2.6-5.9-5.9-5.9c-3.3,0-5.9,2.6-5.9,5.9
									c0,2.5,1.6,4.7,3.8,5.5v32.6h-21.9c-0.8-2.2-3-3.8-5.5-3.8c-3.3,0-5.9,2.6-5.9,5.9c0,3.3,2.6,5.9,5.9,5.9
									c2.5,0,4.7-1.6,5.5-3.8h21.9v7.1h4.2V475.2z"/>
								<path class="st2" d="M129,488.6c2.2-0.8,3.8-3,3.8-5.5c0-3.3-2.6-5.9-5.9-5.9c-3.3,0-5.9,2.6-5.9,5.9c0,2.5,1.6,4.7,3.8,5.5
									v5.8H75.4v-9.2c2.2-0.8,3.8-3,3.8-5.5c0-3.3-2.6-5.9-5.9-5.9c-3.3,0-5.9,2.6-5.9,5.9c0,2.5,1.6,4.7,3.8,5.5V519h4.2v-20.5
									h49.5V519h4.2V488.6z"/>
								<path class="st2" d="M322.8,402c2.2-0.8,3.8-3,3.8-5.5c0-3.3-2.6-5.9-5.9-5.9c-3.3,0-5.9,2.6-5.9,5.9c0,2.5,1.6,4.7,3.8,5.5
									v34.3H284c-0.8-2.2-3-3.8-5.5-3.8c-3.3,0-5.9,2.6-5.9,5.9c0,3.3,2.6,5.9,5.9,5.9c2.5,0,4.7-1.6,5.5-3.8h34.6v48.7
									c-2.2,0.8-3.8,3-3.8,5.5c0,3.3,2.6,5.9,5.9,5.9c3.3,0,5.9-2.6,5.9-5.9c0-2.5-1.6-4.7-3.8-5.5v-15.9h10.9v-4.2h-10.9v-28.7
									h10.9v-1.2v-1.7v-1.2h-10.9V402z"/>
								<path class="st2" d="M290.6,230.5v-21.2c2.2-0.8,3.8-3,3.8-5.5c0-3.3-2.6-5.9-5.9-5.9c-3.3,0-5.9,2.6-5.9,5.9
									c0,2.5,1.6,4.7,3.8,5.5v23.3c0,1.2,0.9,2.1,2.1,2.1H326v42.7c-2.2,0.8-3.8,3-3.8,5.5c0,3.3,2.6,5.9,5.9,5.9
									c2.6,0,4.7-1.6,5.6-3.9v-4c-0.6-1.6-1.9-2.9-3.5-3.5v-42.7h3.5v-4.2H290.6z"/>
								<path class="st2" d="M107,230.5H66v-21.3c2.2-0.9,3.7-3,3.7-5.5c0-3.3-2.6-5.9-5.9-5.9c-3.3,0-5.9,2.6-5.9,5.9
									c0,2.6,1.6,4.7,3.9,5.6v21.2H39.3c-0.8-2.2-3-3.8-5.5-3.8c-3.3,0-5.9,2.6-5.9,5.9s2.6,5.9,5.9,5.9c2.5,0,4.7-1.6,5.5-3.8
									h65.7v20.6c-2.2,0.8-3.8,3-3.8,5.5c0,3.3,2.6,5.9,5.9,5.9c3.3,0,5.9-2.6,5.9-5.9c0-2.5-1.6-4.7-3.8-5.5v-22.6
									C109.1,231.4,108.2,230.5,107,230.5z"/>
								<path class="st2" d="M201.3,208c0.8,2.2,3,3.8,5.5,3.8c3.3,0,5.9-2.6,5.9-5.9s-2.6-5.9-5.9-5.9c-2.5,0-4.7,1.6-5.5,3.8
									h-54.7c-0.8-2.2-3-3.8-5.5-3.8c-3.3,0-5.9,2.6-5.9,5.9s2.6,5.9,5.9,5.9c2.5,0,4.7-1.6,5.5-3.8h21.2v34
									c-2.2,0.8-3.8,3-3.8,5.5c0,3.3,2.6,5.9,5.9,5.9c3.3,0,5.9-2.6,5.9-5.9c0-2.5-1.6-4.7-3.8-5.5v-34H201.3z"/>
								<path class="st2" d="M200.9,425.1c-2.5,0-4.7,1.6-5.5,3.8h-21.9V415c2.2-0.8,3.8-3,3.8-5.5c0-3.3-2.6-5.9-5.9-5.9
									s-5.9,2.6-5.9,5.9c0,2.5,1.6,4.7,3.8,5.5v13.9h-23.4c-0.8-2.2-3-3.8-5.5-3.8c-3.3,0-5.9,2.6-5.9,5.9c0,3.3,2.6,5.9,5.9,5.9
									c2.5,0,4.7-1.6,5.5-3.8h23.4v17.4h-60.9v-70.3h17.9c0.8,2.2,3,3.8,5.5,3.8c3.3,0,5.9-2.6,5.9-5.9c0-3.3-2.6-5.9-5.9-5.9
									c-2.5,0-4.7,1.6-5.5,3.8h-17.9v-32h56.2v12.2c-2.2,0.8-3.8,3-3.8,5.5c0,3.3,2.6,5.9,5.9,5.9c3.3,0,5.9-2.6,5.9-5.9
									c0-2.5-1.6-4.7-3.8-5.5V344h14.6c1,2,3,3.3,5.3,3.3c3.3,0,5.9-2.6,5.9-5.9c0-3.3-2.6-5.9-5.9-5.9c-2.7,0-5,1.8-5.7,4.3H97.4
									c-0.8-2.2-3-3.8-5.5-3.8c-3.3,0-5.9,2.6-5.9,5.9s2.6,5.9,5.9,5.9c2.5,0,4.7-1.6,5.5-3.8h6.8v108.6c0,1.2,0.9,2.1,2.1,2.1h65
									c1.2,0,2.1-0.9,2.1-2.1v-19.5h21.9c0.8,2.2,3,3.8,5.5,3.8c3.3,0,5.9-2.6,5.9-5.9C206.8,427.8,204.1,425.1,200.9,425.1z"/>
								<path class="st2" d="M-37.3,412.4c-2.5,0-4.7,1.6-5.5,3.8h-24.6v-56.9h17.5c0.9,2.4,3.2,4.2,5.9,4.2c3.4,0,6.2-2.8,6.2-6.2
									c0-3.4-2.8-6.2-6.2-6.2c-2.7,0-5,1.7-5.9,4.2h-19.6c-1.2,0-2.1,0.9-2.1,2.1v111.9h-16.5c-0.8-2.2-3-3.8-5.5-3.8
									c-3.3,0-5.9,2.6-5.9,5.9c0,3.3,2.6,5.9,5.9,5.9c2.5,0,4.7-1.6,5.5-3.8h18.6c1.2,0,2.1-0.9,2.1-2.1v-50.9h24.6
									c0.8,2.2,3,3.8,5.5,3.8c3.3,0,5.9-2.6,5.9-5.9C-31.4,415-34.1,412.4-37.3,412.4z"/>
								<path class="st2" d="M-32,473.4c0-3.3-2.6-5.9-5.9-5.9c-3.3,0-5.9,2.6-5.9,5.9c0,2.5,1.6,4.7,3.8,5.5V519h4.2v-40.1
									C-33.6,478.1-32,476-32,473.4z"/>
								<path class="st2" d="M-8.5,494.2c0-3.3-2.6-5.9-5.9-5.9c-3.3,0-5.9,2.6-5.9,5.9c0,2.5,1.6,4.7,3.8,5.5V519h4.2v-19.3
									C-10.1,498.9-8.5,496.7-8.5,494.2z"/>
								<path class="st2" d="M287.8,488.4c0-3.3-2.6-5.9-5.9-5.9c-3.3,0-5.9,2.6-5.9,5.9c0,2.5,1.6,4.7,3.8,5.5V519h4.2v-25.1
									C286.2,493.1,287.8,490.9,287.8,488.4z"/>
								<path class="st2" d="M327.6,364.9c0,3.3,2.6,5.9,5.9,5.9c0.1,0,0.1,0,0.2,0V367v-4.2V359c-0.1,0-0.1,0-0.2,0
									C330.2,359,327.6,361.7,327.6,364.9z"/>
								<path class="st2" d="M293,328.8v-26.6c2.2-0.8,3.8-3,3.8-5.5c0-3.3-2.6-5.9-5.9-5.9c-3.3,0-5.9,2.6-5.9,5.9
									c0,2.5,1.6,4.7,3.8,5.5v26.6h-19c-0.8-2.2-3-3.8-5.5-3.8c-3.3,0-5.9,2.6-5.9,5.9c0,3.3,2.6,5.9,5.9,5.9
									c2.5,0,4.7-1.6,5.5-3.8h19v24.2c-2.2,0.8-3.8,3-3.8,5.5c0,3.3,2.6,5.9,5.9,5.9c3.3,0,5.9-2.6,5.9-5.9c0-2.5-1.6-4.7-3.8-5.5
									V333h19c0.8,2.2,3,3.8,5.5,3.8c3.3,0,5.9-2.6,5.9-5.9c0-3.3-2.6-5.9-5.9-5.9c-2.5,0-4.7,1.6-5.5,3.8H293z"/>
								<path class="st2" d="M47.5,512.3c0-3.3-2.6-5.9-5.9-5.9c-3.3,0-5.9,2.6-5.9,5.9c0,2.5,1.6,4.7,3.8,5.5v1.2h4.2v-1.2
									C45.9,517,47.5,514.8,47.5,512.3z"/>
							</g>
						</g>
					</g>
				</g>
			</g>
		</g>
		
			<linearGradient id="SVGID_3_" gradientUnits="userSpaceOnUse" x1="173" y1="672" x2="173" y2="1072" gradientTransform="matrix(1 0 0 -1 0 1072)">
			<stop  offset="0" style="stop-color:#DED09E"/>
			<stop  offset="0.2" style="stop-color:#D8CB9A"/>
			<stop  offset="0.5" style="stop-color:#CFC393"/>
			<stop  offset="0.7" style="stop-color:#877D52"/>
		</linearGradient>
		<path class="st3" d="M173,33.5l144.2,83.2v166.6L173,366.5L28.8,283.3V116.7L173,33.5 M173,0L-0.2,100v200L173,400l173.2-100V100
			L173,0z"/>
		<path class="st4" d="M173,28.9l148.2,85.5v171.2L173,371L24.8,285.6V114.4L173,29 M173,0L-0.2,100v200L173,400l173.2-100V100
			L173,0z"/>
		<path class="st5" d="M173,15l160.2,92.5v185L173,385L12.8,292.5v-185L173,15 M173,0L-0.2,100v200L173,400l173.2-100V100L173,0z"/>
		<path class="st4" d="M173,12.7l162.2,93.6v187.3L173,387.3L10.8,293.6V106.4L173,12.7 M173,0L-0.2,100v200L173,400l173.2-100V100
			L173,0z"/>
		<g class="st6">
			<path class="st7" d="M63.6,141.7c-4,0-8.1,2.6-8.1,5.2s3.6,6.5,7.3,4.7c6.3-3,7.2-3.3,7.2-5.9S67.7,141.7,63.6,141.7z
				 M75.4,130.2c-5.4,0-10.1,3.4-10.1,6.6c0,3.2,4.6,7.3,9.8,5.8c4.3-1.2,6.1-3,9.8-5.8C87.4,134.8,80.9,130.2,75.4,130.2z
				 M91.8,136.1c-2.2,0-4.7,0.2-5,2.2c-0.2,2.6,2,1.8,5,1.8s6,1.3,6-0.5S94.2,136.2,91.8,136.1z M260.4,148.8
				c-5.2-0.4-10.6,2.7-11,6.3c-0.3,3.6,3.9,9.4,8.8,7.4c8.3-3.4,9.5-3.7,9.8-7.4C268.3,151.5,265.5,149.3,260.4,148.8L260.4,148.8z"
				/>
			<path class="st7" d="M276.7,134.3c-6.9-0.6-13.2,3.5-13.6,8s5,10.6,11.7,9.1c5.6-1.2,8.1-3.4,13.1-7
				C291.3,142,283.5,134.9,276.7,134.3z M296.7,144.3c-2.8-0.3-6-0.3-6.5,2.4c-0.7,3.6,2.2,2.7,6,3c3.8,0.4,7.4,2.6,7.7,0
				C304.1,147.1,299.7,144.7,296.7,144.3z"/>
			<path class="st7" d="M202.3,199c-5.1-0.5-10.5,2.7-10.8,6.3s3.9,9.3,8.7,7.3c8.3-3.4,9.5-3.8,9.8-7.4S207.5,199.4,202.3,199
				L202.3,199z M218.6,184.3c-6.9-0.6-13.2,3.6-13.6,8c-0.3,4.5,5,10.7,11.8,9.1c5.6-1.2,8-3.4,13-7
				C233.3,191.9,225.4,184.8,218.6,184.3z M238.7,194.2c-2.9-0.3-6-0.3-6.5,2.4c-0.7,3.6,2.2,2.8,6,3c3.8,0.4,7.4,2.6,7.6,0
				S241.7,194.6,238.7,194.2z"/>
		</g>
		<g class="st6">
			<path class="st8" d="M170.4,152.1c-5.6,0-8.9-1.2-10.6-4c-1.6-2.5-1.6-5.8-1.5-10.1v-12.3h-9.8c-0.7,0-1.5-0.1-2.2-0.3
				c-3.9-1.3-4.4-5.4-4.4-9.2l0.1-9.3c0-2.3,1-5,5.8-5c4.2,0,6.1,2.2,6.1,6.8v2.4h4.4V66.4c0-4.1,5.7-9.4,12-9.4h4.2
				c6.7,0,12.1,5.4,12.1,12.1v20.1h4V83c0-6.3,3.2-9.7,9-9.7s9.1,3.4,9.1,9.7l-0.4,16.1c0,6.3-3.5,8.6-6.4,9.4h-0.2
				c-1,0.3-2,0.4-3.2,0.4h-11.9v32.6c0.1,3,0.2,5.9-2,8c-1.8,1.9-5,2.7-10,2.7L170.4,152.1L170.4,152.1z"/>
			<path class="st8" d="M0,0"/>
		</g>
		<g class="st6">
			<path class="st9" d="M199.8,103.4c-1.4,0-5.2,1-7.7-1V90.6h-7V69c0-6-5.2-9.9-8.3-10.2c-0.4,3.2,0,87.4,0,89
				c0,1.5-1.5,1.9-1.8,1.8c-7.4,0.5-9-0.3-13.5-3c-1-1.3-0.7-23.6-0.7-23.6c-0.9-0.2-3-0.3-4.4-0.3h-4l-7,0.2c0,1.4,4.4,1.3,6,1.3
				h8.3v13.2c0,8.5-0.3,13.3,10.7,13.3h4c11.8,0,10.7-4.8,10.7-10.7v-32.7h13.4c1,0,2,0,2.8-0.3h0.2c3.5-1,5.3-3.7,5.3-8l0.3-17.4
				c0-4.3-4.9-7.6-5.4-6c-1.8,5.7,1.4,27.7-1.9,27.9L199.8,103.4z"/>
		</g>
		<g class="st6">
			<path class="st10" d="M146.5,102.8h-1.2v18.4h14.2V120h-13V102.8z"/>
			<path class="st10" d="M150.2,116.4v-13.8H149v15h10.6v-1.2H150.2z M196.1,73.8h1.2v22.8h-1.2V73.8z M202.4,74.4h1.2v28.4h-1.2
				V74.4z"/>
			<path class="st10" d="M185,101.7h18.4v1.2H185V101.7z M185,95.4h11.7v1.2H185V95.4z"/>
			<g class="st11">
				<path class="st12" d="M171.9,56.9h1.5v95.8h-1.5V56.9z M164.1,56.9h1.5v95.8h-1.5V56.9z M179.1,56.9h1.5v95.8h-1.5V56.9z"/>
			</g>
		</g>
	</g>
</g>
</svg>
