<?xml version="1.0" encoding="utf-8"?>
<!-- Generator: Adobe Illustrator 24.1.1, SVG Export Plug-In . SVG Version: 6.00 Build 0)  -->
<svg version="1.1" id="Layer_1" xmlns="http://www.w3.org/2000/svg" xmlns:xlink="http://www.w3.org/1999/xlink" x="0px" y="0px"
	 viewBox="0 0 346 400" style="enable-background:new 0 0 346 400;" xml:space="preserve">
<style type="text/css">
	.st0{clip-path:url(#SVGID_2_);}
	.st1{fill:#030000;}
	.st2{fill:#FDC90D;}
	.st3{display:none;fill:url(#SVGID_3_);}
	.st4{fill:#151313;}
	.st5{display:none;fill:#877D52;}
	.st6{display:none;}
	.st7{display:inline;fill:#D1B886;}
	.st8{display:inline;fill:#B5B57C;}
	.st9{display:inline;fill:#918E5A;}
	.st10{display:inline;fill:#4D491A;}
	.st11{display:inline;}
	.st12{fill:#4D491A;}
</style>
<g id="Hexagons">
	<g id="Desert">
		<g>
			<g>
				<g>
					<g>
						<g>
							<g>
								<defs>
									<polygon id="SVGID_1_" points="-0.2,100 -0.2,300 173,400 346.2,300 346.2,100 173,0 									"/>
								</defs>
								<clipPath id="SVGID_2_">
									<use xlink:href="#SVGID_1_"  style="overflow:visible;"/>
								</clipPath>
								<g class="st0">
									<g>
										<rect x="-98.1" y="-300.5" class="st1" width="541.3" height="500"/>
										<g>
											<g>
												<g>
													<g>
														<polygon class="st2" points="-41.5,-300.5 -46.5,-300.5 -44,-299.1 														"/>
													</g>
												</g>
												<g>
													<g>
														<polygon class="st2" points="66.7,-300.5 61.8,-300.5 64.2,-299.1 														"/>
													</g>
												</g>
												<g>
													<g>
														<polygon class="st2" points="175,-300.5 170,-300.5 172.5,-299.1 														"/>
													</g>
												</g>
												<g>
													<g>
														<polygon class="st2" points="283.2,-300.5 278.3,-300.5 280.8,-299.1 														"/>
													</g>
												</g>
												<g>
													<g>
														<polygon class="st2" points="389,-299.1 391.5,-300.5 386.5,-300.5 														"/>
													</g>
												</g>
												<g>
													<g>
														<polygon class="st2" points="-96.9,-270 -98.1,-270.7 -98.1,-205.3 -96.9,-206 														"/>
													</g>
													<g>
														<polygon class="st2" points="-98.1,-269.3 -98.1,-267.8 -97.5,-268.2 														"/>
													</g>
													<g>
														<polygon class="st2" points="-98.1,-208.2 -98.1,-206.7 -97.5,-207.8 														"/>
													</g>
												</g>
												<g>
													<g>
														<path class="st2" d="M11.4-206V-270l-52.9-30.5h-4.9l-51.7,29.8v65.3l54.1,31.3L11.4-206z M-96.9-268.5l52.9-30.5
															l52.9,30.5v61.1L-44-176.9l-52.9-30.5V-268.5z"/>
													</g>
													<g>
														<rect x="-45.2" y="-300.5" class="st2" width="2.5" height="125"/>
													</g>
													<g>
														<polygon class="st2" points="10.7,-268.2 9.5,-270.3 -98.1,-208.2 -98.1,-206.7 -97.5,-205.7 														"/>
													</g>
													<g>
														<polygon class="st2" points="10.7,-207.8 -97.5,-270.3 -98.1,-269.3 -98.1,-267.8 9.5,-205.7 														"/>
													</g>
												</g>
												<path class="st2" d="M-37.2-238c0,3.7-3,6.8-6.8,6.8s-6.8-3-6.8-6.8c0-3.7,3-6.8,6.8-6.8S-37.2-241.7-37.2-238z"/>
												<g>
													<g>
														<path class="st2" d="M8.9-206l55.4,32l55.4-32V-270l-52.9-30.5h-4.9L8.9-270V-206z M11.4-268.5l52.9-30.5l52.9,30.5
															v61.1l-52.9,30.5l-52.9-30.5V-268.5z"/>
													</g>
													<g>
														<rect x="63" y="-300.5" class="st2" width="2.5" height="125"/>
													</g>
													<g>
														
															<rect x="1.7" y="-239.2" transform="matrix(0.866 -0.5 0.5 0.866 127.618 0.235)" class="st2" width="125" height="2.5"/>
													</g>
													<g>
														
															<rect x="63" y="-300.5" transform="matrix(0.5 -0.866 0.866 0.5 238.238 -63.3603)" class="st2" width="2.5" height="125"/>
													</g>
												</g>
												<path class="st2" d="M71-238c0,3.7-3,6.8-6.8,6.8c-3.7,0-6.8-3-6.8-6.8c0-3.7,3-6.8,6.8-6.8C68-244.8,71-241.7,71-238z"
													/>
												<g>
													<g>
														<path class="st2" d="M117.1-206l55.4,32l55.4-32V-270L175-300.5H170L117.1-270V-206z M119.6-268.5l52.9-30.5
															l52.9,30.5v61.1l-52.9,30.5l-52.9-30.5V-268.5z"/>
													</g>
													<g>
														<rect x="171.3" y="-300.5" class="st2" width="2.5" height="125"/>
													</g>
													<g>
														
															<rect x="110" y="-239.2" transform="matrix(0.866 -0.5 0.5 0.866 142.1133 54.3644)" class="st2" width="125" height="2.5"/>
													</g>
													<g>
														
															<rect x="171.3" y="-300.5" transform="matrix(0.5 -0.866 0.866 0.5 292.3645 30.3893)" class="st2" width="2.5" height="125"/>
													</g>
												</g>
												<path class="st2" d="M179.3-238c0,3.7-3,6.8-6.8,6.8s-6.8-3-6.8-6.8c0-3.7,3-6.8,6.8-6.8S179.3-241.7,179.3-238z"/>
												<g>
													<g>
														<path class="st2" d="M225.4-206l55.4,32l55.4-32V-270l-52.9-30.5h-4.9L225.4-270V-206z M227.9-268.5l52.9-30.5
															l52.9,30.5v61.1l-52.9,30.5l-52.9-30.5V-268.5z"/>
													</g>
													<g>
														<rect x="279.5" y="-300.5" class="st2" width="2.5" height="125"/>
													</g>
													<g>
														
															<rect x="218.3" y="-239.2" transform="matrix(0.866 -0.5 0.5 0.866 156.6169 108.4916)" class="st2" width="125" height="2.5"/>
													</g>
													<g>
														
															<rect x="279.5" y="-300.5" transform="matrix(0.5 -0.866 0.866 0.5 346.4906 124.139)" class="st2" width="2.5" height="125"/>
													</g>
												</g>
												<path class="st2" d="M287.5-238c0,3.7-3,6.8-6.8,6.8c-3.7,0-6.8-3-6.8-6.8c0-3.7,3-6.8,6.8-6.8
													C284.5-244.8,287.5-241.7,287.5-238z"/>
												<g>
													<g>
														<path class="st2" d="M391.5-300.5h-4.9L333.6-270v63.9l55.4,32l54.1-31.2v-65.3L391.5-300.5z M389-176.9l-52.9-30.5
															v-61.1l52.9-30.5l52.9,30.5v61.1L389-176.9z"/>
													</g>
													<g>
														<rect x="387.8" y="-300.5" class="st2" width="2.5" height="125"/>
													</g>
													<g>
														<polygon class="st2" points="334.3,-207.8 335.5,-205.7 443.1,-267.8 443.1,-269.3 442.5,-270.3 														"/>
													</g>
													<g>
														<polygon class="st2" points="334.3,-268.2 442.5,-205.7 443.1,-206.7 443.1,-208.2 335.5,-270.3 														"/>
													</g>
												</g>
												<path class="st2" d="M395.8-238c0,3.7-3,6.8-6.8,6.8s-6.8-3-6.8-6.8c0-3.7,3-6.8,6.8-6.8S395.8-241.7,395.8-238z"/>
												<g>
													<g>
														<polygon class="st2" points="441.9,-270 441.9,-206 443.1,-205.3 443.1,-270.7 														"/>
													</g>
													<g>
														<polygon class="st2" points="442.5,-207.8 443.1,-206.7 443.1,-208.2 														"/>
													</g>
													<g>
														<polygon class="st2" points="442.5,-268.2 443.1,-267.8 443.1,-269.2 														"/>
													</g>
												</g>
												<g>
													<g>
														<polygon class="st2" points="-96.9,-145 -98.1,-145.7 -98.1,-80.3 -96.9,-81 														"/>
													</g>
													<g>
														<polygon class="st2" points="-98.1,-144.3 -98.1,-142.8 -97.5,-143.2 														"/>
													</g>
													<g>
														<polygon class="st2" points="-98.1,-83.2 -98.1,-81.7 -97.5,-82.8 														"/>
													</g>
												</g>
												<g>
													<g>
														<path class="st2" d="M11.4-81V-145l-55.4-32l-54.1,31.2v65.3L-44-49.1L11.4-81z M-96.9-143.5l52.9-30.5l52.9,30.5
															v61.1L-44-51.9l-52.9-30.5V-143.5z"/>
													</g>
													<g>
														<rect x="-45.2" y="-175.5" class="st2" width="2.5" height="125"/>
													</g>
													<g>
														<polygon class="st2" points="10.7,-143.2 9.5,-145.3 -98.1,-83.2 -98.1,-81.7 -97.5,-80.7 														"/>
													</g>
													<g>
														<polygon class="st2" points="10.7,-82.8 -97.5,-145.3 -98.1,-144.3 -98.1,-142.8 9.5,-80.7 														"/>
													</g>
												</g>
												<path class="st2" d="M-37.2-113c0,3.7-3,6.8-6.8,6.8s-6.8-3-6.8-6.8c0-3.7,3-6.8,6.8-6.8S-37.2-116.7-37.2-113z"/>
												<g>
													<g>
														<path class="st2" d="M64.2-49.1L8.9-81V-145l55.4-32l55.4,32V-81L64.2-49.1z M11.4-82.5l52.9,30.5l52.9-30.5v-61.1
															l-52.9-30.5l-52.9,30.5V-82.5z"/>
													</g>
													<g>
														<rect x="63" y="-175.5" class="st2" width="2.5" height="125"/>
													</g>
													<g>
														
															<rect x="1.7" y="-114.2" transform="matrix(0.866 -0.5 0.5 0.866 65.1133 16.9846)" class="st2" width="125" height="2.5"/>
													</g>
													<g>
														
															<rect x="63" y="-175.5" transform="matrix(0.5 -0.866 0.866 0.5 129.9846 -0.86)" class="st2" width="2.5" height="125"/>
													</g>
												</g>
												<path class="st2" d="M71-113c0,3.7-3,6.8-6.8,6.8c-3.7,0-6.8-3-6.8-6.8c0-3.7,3-6.8,6.8-6.8C68-119.8,71-116.7,71-113z"
													/>
												<g>
													<g>
														<path class="st2" d="M172.5-49.1l-55.4-32V-145l55.4-32l55.4,32V-81L172.5-49.1z M119.6-82.5l52.9,30.5l52.9-30.5
															v-61.1l-52.9-30.5l-52.9,30.5V-82.5z"/>
													</g>
													<g>
														<rect x="171.3" y="-175.5" class="st2" width="2.5" height="125"/>
													</g>
													<g>
														
															<rect x="110" y="-114.2" transform="matrix(0.866 -0.5 0.5 0.866 79.6123 71.1118)" class="st2" width="125" height="2.5"/>
													</g>
													<g>
														
															<rect x="171.3" y="-175.5" transform="matrix(0.5 -0.866 0.866 0.5 184.111 92.8895)" class="st2" width="2.5" height="125"/>
													</g>
												</g>
												<path class="st2" d="M179.3-113c0,3.7-3,6.8-6.8,6.8s-6.8-3-6.8-6.8c0-3.7,3-6.8,6.8-6.8S179.3-116.7,179.3-113z"/>
												<g>
													<g>
														<path class="st2" d="M280.8-49.1l-55.4-32V-145l55.4-32l55.4,32V-81L280.8-49.1z M227.9-82.5l52.9,30.5l52.9-30.5
															v-61.1l-52.9-30.5l-52.9,30.5V-82.5z"/>
													</g>
													<g>
														<rect x="279.5" y="-175.5" class="st2" width="2.5" height="125"/>
													</g>
													<g>
														
															<rect x="218.3" y="-114.2" transform="matrix(0.866 -0.5 0.5 0.866 94.1159 125.239)" class="st2" width="125" height="2.5"/>
													</g>
													<g>
														
															<rect x="279.5" y="-175.5" transform="matrix(0.5 -0.866 0.866 0.5 238.237 186.639)" class="st2" width="2.5" height="125"/>
													</g>
												</g>
												<path class="st2" d="M287.5-113c0,3.7-3,6.8-6.8,6.8c-3.7,0-6.8-3-6.8-6.8c0-3.7,3-6.8,6.8-6.8
													C284.5-119.8,287.5-116.7,287.5-113z"/>
												<g>
													<g>
														<path class="st2" d="M389-176.9l-55.4,32V-81l55.4,32l54.1-31.2v-65.3L389-176.9z M389-51.9l-52.9-30.5v-61.1
															l52.9-30.5l52.9,30.5v61.1L389-51.9z"/>
													</g>
													<g>
														<rect x="387.8" y="-175.5" class="st2" width="2.5" height="125"/>
													</g>
													<g>
														<polygon class="st2" points="334.3,-82.8 335.5,-80.7 443.1,-142.8 443.1,-144.3 442.5,-145.3 														"/>
													</g>
													<g>
														<polygon class="st2" points="334.3,-143.2 442.5,-80.7 443.1,-81.7 443.1,-83.2 335.5,-145.3 														"/>
													</g>
												</g>
												<path class="st2" d="M395.8-113c0,3.7-3,6.8-6.8,6.8s-6.8-3-6.8-6.8c0-3.7,3-6.8,6.8-6.8S395.8-116.7,395.8-113z"/>
												<g>
													<g>
														<polygon class="st2" points="441.9,-145 441.9,-81 443.1,-80.3 443.1,-145.7 														"/>
													</g>
													<g>
														<polygon class="st2" points="442.5,-82.8 443.1,-81.7 443.1,-83.2 														"/>
													</g>
													<g>
														<polygon class="st2" points="442.5,-143.2 443.1,-142.8 443.1,-144.3 														"/>
													</g>
												</g>
												<g>
													<g>
														<polygon class="st2" points="-96.9,-20 -98.1,-20.7 -98.1,44.7 -96.9,44 														"/>
													</g>
													<g>
														<polygon class="st2" points="-98.1,-19.3 -98.1,-17.8 -97.5,-18.2 														"/>
													</g>
													<g>
														<polygon class="st2" points="-98.1,41.8 -98.1,43.3 -97.5,42.2 														"/>
													</g>
												</g>
												<g>
													<g>
														<path class="st2" d="M11.4,44V-20l-55.4-32l-54.1,31.2v65.3L-44,75.9L11.4,44z M-96.9-18.5L-44-49.1L8.9-18.5v61.1
															L-44,73.1l-52.9-30.5V-18.5z"/>
													</g>
													<g>
														<rect x="-45.2" y="-50.5" class="st2" width="2.5" height="125"/>
													</g>
													<g>
														<polygon class="st2" points="10.7,-18.2 9.5,-20.3 -98.1,41.8 -98.1,43.3 -97.5,44.3 														"/>
													</g>
													<g>
														<polygon class="st2" points="10.7,42.2 -97.5,-20.3 -98.1,-19.3 -98.1,-17.8 9.5,44.3 														"/>
													</g>
												</g>
												<path class="st2" d="M-37.2,12c0,3.7-3,6.8-6.8,6.8s-6.8-3-6.8-6.8s3-6.8,6.8-6.8S-37.2,8.3-37.2,12z"/>
												<g>
													<g>
														<path class="st2" d="M64.2,75.9L8.9,44V-20l55.4-32l55.4,32V44L64.2,75.9z M11.4,42.5l52.9,30.5l52.9-30.5v-61.1
															L64.2-49.1L11.4-18.5V42.5z"/>
													</g>
													<g>
														<rect x="63" y="-50.5" class="st2" width="2.5" height="125"/>
													</g>
													<g>
														
															<rect x="1.7" y="10.8" transform="matrix(0.866 -0.5 0.5 0.866 2.6085 33.7342)" class="st2" width="125" height="2.5"/>
													</g>
													<g>
														
															<rect x="63" y="-50.5" transform="matrix(0.5 -0.866 0.866 0.5 21.7315 61.64)" class="st2" width="2.5" height="125"/>
													</g>
												</g>
												<path class="st2" d="M71,12c0,3.7-3,6.8-6.8,6.8c-3.7,0-6.8-3-6.8-6.8s3-6.8,6.8-6.8C68,5.2,71,8.3,71,12z"/>
												<g>
													<g>
														<path class="st2" d="M172.5,75.9l-55.4-32V-20l55.4-32l55.4,32V44L172.5,75.9z M119.6,42.5l52.9,30.5l52.9-30.5v-61.1
															l-52.9-30.5l-52.9,30.5V42.5z"/>
													</g>
													<g>
														<rect x="171.3" y="-50.5" class="st2" width="2.5" height="125"/>
													</g>
													<g>
														
															<rect x="110" y="10.8" transform="matrix(0.866 -0.5 0.5 0.866 17.1113 87.8592)" class="st2" width="125" height="2.5"/>
													</g>
													<g>
														
															<rect x="171.3" y="-50.5" transform="matrix(0.5 -0.866 0.866 0.5 75.8578 155.3895)" class="st2" width="2.5" height="125"/>
													</g>
												</g>
												<path class="st2" d="M179.3,12c0,3.7-3,6.8-6.8,6.8s-6.8-3-6.8-6.8s3-6.8,6.8-6.8S179.3,8.3,179.3,12z"/>
												<g>
													<g>
														<path class="st2" d="M280.8,75.9l-55.4-32V-20l55.4-32l55.4,32V44L280.8,75.9z M227.9,42.5l52.9,30.5l52.9-30.5v-61.1
															l-52.9-30.5l-52.9,30.5V42.5z"/>
													</g>
													<g>
														<rect x="279.5" y="-50.5" class="st2" width="2.5" height="125"/>
													</g>
													<g>
														
															<rect x="218.3" y="10.8" transform="matrix(0.866 -0.5 0.5 0.866 31.6149 141.9864)" class="st2" width="125" height="2.5"/>
													</g>
													<g>
														
															<rect x="279.5" y="-50.5" transform="matrix(0.5 -0.866 0.866 0.5 129.9839 249.1389)" class="st2" width="2.5" height="125"/>
													</g>
												</g>
												<path class="st2" d="M287.5,12c0,3.7-3,6.8-6.8,6.8c-3.7,0-6.8-3-6.8-6.8s3-6.8,6.8-6.8C284.5,5.2,287.5,8.3,287.5,12z"
													/>
												<g>
													<g>
														<path class="st2" d="M389-51.9l-55.4,32V44l55.4,32l54.1-31.2v-65.3L389-51.9z M389,73.1l-52.9-30.5v-61.1L389-49.1
															l52.9,30.5v61.1L389,73.1z"/>
													</g>
													<g>
														<rect x="387.8" y="-50.5" class="st2" width="2.5" height="125"/>
													</g>
													<g>
														<polygon class="st2" points="334.3,42.2 335.5,44.3 443.1,-17.8 443.1,-19.3 442.5,-20.3 														"/>
													</g>
													<g>
														<polygon class="st2" points="334.3,-18.2 442.5,44.3 443.1,43.3 443.1,41.8 335.5,-20.3 														"/>
													</g>
												</g>
												<path class="st2" d="M395.8,12c0,3.7-3,6.8-6.8,6.8s-6.8-3-6.8-6.8s3-6.8,6.8-6.8S395.8,8.3,395.8,12z"/>
												<g>
													<g>
														<polygon class="st2" points="441.9,-20 441.9,44 443.1,44.7 443.1,-20.7 														"/>
													</g>
													<g>
														<polygon class="st2" points="442.5,42.2 443.1,43.3 443.1,41.8 														"/>
													</g>
													<g>
														<polygon class="st2" points="442.5,-18.2 443.1,-17.8 443.1,-19.3 														"/>
													</g>
												</g>
												<g>
													<g>
														<polygon class="st2" points="-96.9,105 -98.1,104.3 -98.1,169.7 -96.9,169 														"/>
													</g>
													<g>
														<polygon class="st2" points="-98.1,105.7 -98.1,107.2 -97.5,106.8 														"/>
													</g>
													<g>
														<polygon class="st2" points="-98.1,166.8 -98.1,168.3 -97.5,167.2 														"/>
													</g>
												</g>
												<g>
													<g>
														<path class="st2" d="M11.4,105l-55.4-32l-54.1,31.2v65.3l51.7,29.8h4.9L11.4,169V105z M8.9,167.5L-44,198.1
															l-52.9-30.5v-61.1L-44,75.9l52.9,30.5V167.5z"/>
													</g>
													<g>
														<rect x="-45.2" y="74.5" class="st2" width="2.5" height="125"/>
													</g>
													<g>
														<polygon class="st2" points="10.7,106.8 9.5,104.7 -98.1,166.8 -98.1,168.3 -97.5,169.3 														"/>
													</g>
													<g>
														<polygon class="st2" points="10.7,167.2 -97.5,104.7 -98.1,105.7 -98.1,107.2 9.5,169.3 														"/>
													</g>
												</g>
												<circle class="st2" cx="-44" cy="137" r="6.8"/>
												<g>
													<g>
														<path class="st2" d="M119.6,105l-55.4-32L8.9,105V169l52.9,30.5h4.9l52.9-30.5V105z M117.1,167.5l-52.9,30.5
															l-52.9-30.5v-61.1l52.9-30.5l52.9,30.5V167.5z"/>
													</g>
													<g>
														<rect x="63" y="74.5" class="st2" width="2.5" height="125"/>
													</g>
													<g>
														
															<rect x="1.7" y="135.8" transform="matrix(0.866 -0.5 0.5 0.866 -59.8945 50.4813)" class="st2" width="125" height="2.5"/>
													</g>
													<g>
														
															<rect x="63" y="74.5" transform="matrix(0.5 -0.866 0.866 0.5 -86.5217 124.1396)" class="st2" width="2.5" height="125"/>
													</g>
												</g>
												<circle class="st2" cx="64.2" cy="137" r="6.8"/>
												<g>
													<g>
														<path class="st2" d="M227.9,105l-55.4-32l-55.4,32V169l52.9,30.5h4.9l52.9-30.5V105z M225.4,167.5l-52.9,30.5
															l-52.9-30.5v-61.1l52.9-30.5l52.9,30.5V167.5z"/>
													</g>
													<g>
														<rect x="171.3" y="74.5" class="st2" width="2.5" height="125"/>
													</g>
													<g>
														
															<rect x="110" y="135.8" transform="matrix(0.866 -0.5 0.5 0.866 -45.389 104.6021)" class="st2" width="125" height="2.5"/>
													</g>
													<g>
														
															<rect x="171.3" y="74.5" transform="matrix(0.5 -0.866 0.866 0.5 -32.3956 217.889)" class="st2" width="2.5" height="125"/>
													</g>
												</g>
												<circle class="st2" cx="172.5" cy="137" r="6.8"/>
												<g>
													<g>
														<path class="st2" d="M336.1,105l-55.4-32l-55.4,32V169l52.9,30.5h4.9l52.9-30.5V105z M333.6,167.5l-52.9,30.5
															l-52.9-30.5v-61.1l52.9-30.5l52.9,30.5V167.5z"/>
													</g>
													<g>
														<rect x="279.5" y="74.5" class="st2" width="2.5" height="125"/>
													</g>
													<g>
														
															<rect x="218.3" y="135.8" transform="matrix(0.866 -0.5 0.5 0.866 -30.8865 158.7274)" class="st2" width="125" height="2.5"/>
													</g>
													<g>
														
															<rect x="279.5" y="74.5" transform="matrix(0.5 -0.866 0.866 0.5 21.7303 311.6381)" class="st2" width="2.5" height="125"/>
													</g>
												</g>
												<circle class="st2" cx="280.8" cy="137" r="6.8"/>
												<g>
													<g>
														<path class="st2" d="M389,73.1l-55.4,32V169l52.9,30.5h4.9l51.7-29.8v-65.3L389,73.1z M389,198.1l-52.9-30.5v-61.1
															L389,75.9l52.9,30.5v61.1L389,198.1z"/>
													</g>
													<g>
														<rect x="387.8" y="74.5" class="st2" width="2.5" height="125"/>
													</g>
													<g>
														<polygon class="st2" points="334.3,167.2 335.5,169.3 443.1,107.2 443.1,105.7 442.5,104.7 														"/>
													</g>
													<g>
														<polygon class="st2" points="334.3,106.8 442.5,169.3 443.1,168.3 443.1,166.8 335.5,104.7 														"/>
													</g>
												</g>
												<circle class="st2" cx="389" cy="137" r="6.8"/>
												<g>
													<g>
														<polygon class="st2" points="441.9,105 441.9,169 443.1,169.7 443.1,104.3 														"/>
													</g>
													<g>
														<polygon class="st2" points="442.5,167.2 443.1,168.3 443.1,166.8 														"/>
													</g>
													<g>
														<polygon class="st2" points="442.5,106.8 443.1,107.2 443.1,105.7 														"/>
													</g>
												</g>
												<g>
													<g>
														<polygon class="st2" points="-46.5,199.5 -41.5,199.5 -44,198.1 														"/>
													</g>
												</g>
												<g>
													<g>
														<polygon class="st2" points="61.8,199.5 66.7,199.5 64.2,198.1 														"/>
													</g>
												</g>
												<g>
													<g>
														<polygon class="st2" points="170,199.5 175,199.5 172.5,198.1 														"/>
													</g>
												</g>
												<g>
													<g>
														<polygon class="st2" points="278.3,199.5 283.2,199.5 280.8,198.1 														"/>
													</g>
												</g>
												<g>
													<g>
														<polygon class="st2" points="389,198.1 386.5,199.5 391.5,199.5 														"/>
													</g>
												</g>
											</g>
											<g>
												<g>
													<g>
														<polygon class="st2" points="-42.8,-300.5 -45.2,-300.5 -45.2,-270 -98.1,-239.4 -98.1,-236.6 -42.8,-268.5 
																													"/>
													</g>
													<g>
														<rect x="-98.1" y="-300.5" class="st2" width="1.2" height="62.5"/>
													</g>
													<g>
														<polygon class="st2" points="-98.1,-300.5 -98.1,-299.1 -95.7,-300.5 														"/>
													</g>
													<g>
														<polygon class="st2" points="-43.4,-270.3 -95.7,-300.5 -98.1,-300.5 -98.1,-299.1 -44.6,-268.2 														"/>
													</g>
												</g>
												<path class="st2" d="M-91.4-300.5h-6.8v6.8C-94.4-293.7-91.4-296.8-91.4-300.5z"/>
												<g>
													<g>
														<polygon class="st2" points="10.1,-236.6 65.5,-268.5 65.5,-300.5 63,-300.5 63,-270 10.1,-239.4 -42.8,-270 
															-42.8,-300.5 -45.2,-300.5 -45.2,-268.5 														"/>
													</g>
													<g>
														<rect x="8.9" y="-300.5" class="st2" width="2.5" height="62.5"/>
													</g>
													<g>
														<polygon class="st2" points="-43.4,-268.2 12.6,-300.5 7.7,-300.5 -44.6,-270.3 														"/>
													</g>
													<g>
														<polygon class="st2" points="64.9,-270.3 12.6,-300.5 7.7,-300.5 63.6,-268.2 														"/>
													</g>
												</g>
												<path class="st2" d="M10.1-293.7c3.7,0,6.8-3,6.8-6.8H3.4C3.4-296.8,6.4-293.7,10.1-293.7z"/>
												<g>
													<g>
														<polygon class="st2" points="118.4,-236.6 173.7,-268.5 173.7,-300.5 171.3,-300.5 171.3,-270 118.4,-239.4 
															65.5,-270 65.5,-300.5 63,-300.5 63,-268.5 														"/>
													</g>
													<g>
														<rect x="117.1" y="-300.5" class="st2" width="2.5" height="62.5"/>
													</g>
													<g>
														<polygon class="st2" points="64.9,-268.2 120.8,-300.5 115.9,-300.5 63.6,-270.3 														"/>
													</g>
													<g>
														<polygon class="st2" points="173.1,-270.3 120.8,-300.5 115.9,-300.5 171.9,-268.2 														"/>
													</g>
												</g>
												<path class="st2" d="M118.4-293.7c3.7,0,6.8-3,6.8-6.8h-13.5C111.6-296.8,114.6-293.7,118.4-293.7z"/>
												<g>
													<g>
														<polygon class="st2" points="226.6,-236.6 282,-268.5 282,-300.5 279.5,-300.5 279.5,-270 226.6,-239.4 173.7,-270 
															173.7,-300.5 171.3,-300.5 171.3,-268.5 														"/>
													</g>
													<g>
														<rect x="225.4" y="-300.5" class="st2" width="2.5" height="62.5"/>
													</g>
													<g>
														<polygon class="st2" points="173.1,-268.2 229.1,-300.5 224.2,-300.5 171.9,-270.3 														"/>
													</g>
													<g>
														<polygon class="st2" points="281.4,-270.3 229.1,-300.5 224.2,-300.5 280.1,-268.2 														"/>
													</g>
												</g>
												<path class="st2" d="M226.6-293.7c3.7,0,6.8-3,6.8-6.8h-13.5C219.9-296.8,222.9-293.7,226.6-293.7z"/>
												<g>
													<g>
														<polygon class="st2" points="334.9,-236.6 390.2,-268.5 390.2,-300.5 387.8,-300.5 387.8,-270 334.9,-239.4 282,-270 
															282,-300.5 279.5,-300.5 279.5,-268.5 														"/>
													</g>
													<g>
														<rect x="333.6" y="-300.5" class="st2" width="2.5" height="62.5"/>
													</g>
													<g>
														<polygon class="st2" points="281.4,-268.2 337.3,-300.5 332.4,-300.5 280.1,-270.3 														"/>
													</g>
													<g>
														<polygon class="st2" points="389.6,-270.3 337.3,-300.5 332.4,-300.5 388.4,-268.2 														"/>
													</g>
												</g>
												<path class="st2" d="M334.9-293.7c3.7,0,6.8-3,6.8-6.8h-13.5C328.1-296.8,331.1-293.7,334.9-293.7z"/>
												<g>
													<g>
														<polygon class="st2" points="390.2,-270 390.2,-300.5 387.8,-300.5 387.8,-268.5 443.1,-236.6 443.1,-239.4 
																													"/>
													</g>
													<g>
														<rect x="441.9" y="-300.5" class="st2" width="1.2" height="62.5"/>
													</g>
													<g>
														<polygon class="st2" points="389.6,-268.2 443.1,-299.1 443.1,-300.5 440.7,-300.5 388.4,-270.3 														"/>
													</g>
													<g>
														<polygon class="st2" points="440.7,-300.5 443.1,-299.1 443.1,-300.5 														"/>
													</g>
												</g>
												<path class="st2" d="M436.4-300.5c0,3.7,3,6.8,6.8,6.8c0,0,0,0,0,0v-6.8H436.4z"/>
												<g>
													<g>
														<polygon class="st2" points="-42.8,-207.5 -98.1,-239.4 -98.1,-236.6 -45.2,-206 -45.2,-145 -98.1,-114.4 
															-98.1,-111.6 -42.8,-143.5 														"/>
													</g>
													<g>
														<rect x="-98.1" y="-238" class="st2" width="1.2" height="125"/>
													</g>
													<g>
														<polygon class="st2" points="-44.6,-207.8 -98.1,-176.9 -98.1,-174.1 -43.4,-205.7 														"/>
													</g>
													<g>
														<polygon class="st2" points="-43.4,-145.3 -98.1,-176.9 -98.1,-174.1 -44.6,-143.2 														"/>
													</g>
												</g>
												<path class="st2" d="M-91.4-175.5c0-3.7-3-6.8-6.8-6.8v13.5C-94.4-168.7-91.4-171.8-91.4-175.5z"/>
												<g>
													<g>
														<path class="st2" d="M10.1-111.6l-55.4-32v-63.9l55.4-32l55.4,32v63.9L10.1-111.6z M-42.8-145l52.9,30.5L63-145V-206
															l-52.9-30.5L-42.8-206V-145z"/>
													</g>
													<g>
														<rect x="8.9" y="-238" class="st2" width="2.5" height="125"/>
													</g>
													<g>
														
															<rect x="-52.4" y="-176.7" transform="matrix(0.866 -0.5 0.5 0.866 89.1031 -18.4505)" class="st2" width="125" height="2.5"/>
													</g>
													<g>
														
															<rect x="8.9" y="-238" transform="matrix(0.5 -0.866 0.866 0.5 157.0479 -78.9845)" class="st2" width="2.5" height="125"/>
													</g>
												</g>
												<path class="st2" d="M16.9-175.5c0,3.7-3,6.8-6.8,6.8s-6.8-3-6.8-6.8c0-3.7,3-6.8,6.8-6.8S16.9-179.2,16.9-175.5z"/>
												<g>
													<g>
														<path class="st2" d="M118.4-111.6l-55.4-32v-63.9l55.4-32l55.4,32v63.9L118.4-111.6z M65.5-145l52.9,30.5l52.9-30.5
															V-206l-52.9-30.5L65.5-206V-145z"/>
													</g>
													<g>
														<rect x="117.1" y="-238" class="st2" width="2.5" height="125"/>
													</g>
													<g>
														
															<rect x="55.9" y="-176.7" transform="matrix(0.866 -0.5 0.5 0.866 103.6142 35.6747)" class="st2" width="125" height="2.5"/>
													</g>
													<g>
														
															<rect x="117.1" y="-238" transform="matrix(0.5 -0.866 0.866 0.5 211.1742 14.7648)" class="st2" width="2.5" height="125"/>
													</g>
												</g>
												<path class="st2" d="M125.1-175.5c0,3.7-3,6.8-6.8,6.8c-3.7,0-6.8-3-6.8-6.8c0-3.7,3-6.8,6.8-6.8
													C122.1-182.3,125.1-179.2,125.1-175.5z"/>
												<g>
													<g>
														<path class="st2" d="M226.6-111.6l-55.4-32v-63.9l55.4-32l55.4,32v63.9L226.6-111.6z M173.7-145l52.9,30.5l52.9-30.5
															V-206l-52.9-30.5L173.7-206V-145z"/>
													</g>
													<g>
														<rect x="225.4" y="-238" class="st2" width="2.5" height="125"/>
													</g>
													<g>
														
															<rect x="164.1" y="-176.7" transform="matrix(0.866 -0.5 0.5 0.866 118.1092 89.7994)" class="st2" width="125" height="2.5"/>
													</g>
													<g>
														
															<rect x="225.4" y="-238" transform="matrix(0.5 -0.866 0.866 0.5 265.3002 108.5143)" class="st2" width="2.5" height="125"/>
													</g>
												</g>
												<path class="st2" d="M233.4-175.5c0,3.7-3,6.8-6.8,6.8s-6.8-3-6.8-6.8c0-3.7,3-6.8,6.8-6.8S233.4-179.2,233.4-175.5z"/>
												<g>
													<g>
														<path class="st2" d="M334.9-111.6l-55.4-32v-63.9l55.4-32l55.4,32v63.9L334.9-111.6z M282-145l52.9,30.5l52.9-30.5
															V-206l-52.9-30.5L282-206V-145z"/>
													</g>
													<g>
														<rect x="333.6" y="-238" class="st2" width="2.5" height="125"/>
													</g>
													<g>
														
															<rect x="272.4" y="-176.7" transform="matrix(0.866 -0.5 0.5 0.866 132.623 143.9318)" class="st2" width="125" height="2.5"/>
													</g>
													<g>
														
															<rect x="333.6" y="-238" transform="matrix(0.5 -0.866 0.866 0.5 319.4269 202.2638)" class="st2" width="2.5" height="125"/>
													</g>
												</g>
												<path class="st2" d="M341.6-175.5c0,3.7-3,6.8-6.8,6.8c-3.7,0-6.8-3-6.8-6.8c0-3.7,3-6.8,6.8-6.8
													C338.6-182.3,341.6-179.2,341.6-175.5z"/>
												<g>
													<g>
														<polygon class="st2" points="390.2,-145 390.2,-206 443.1,-236.6 443.1,-239.4 387.8,-207.5 387.8,-143.5 
															443.1,-111.6 443.1,-114.4 														"/>
													</g>
													<g>
														<rect x="441.9" y="-238" class="st2" width="1.2" height="125"/>
													</g>
													<g>
														<polygon class="st2" points="389.6,-143.2 443.1,-174.1 443.1,-176.9 388.4,-145.3 														"/>
													</g>
													<g>
														<polygon class="st2" points="389.6,-207.8 388.4,-205.7 443.1,-174.1 443.1,-176.9 														"/>
													</g>
												</g>
												<path class="st2" d="M443.1-182.3c-3.7,0-6.8,3-6.8,6.8c0,3.7,3,6.8,6.8,6.8c0,0,0,0,0,0L443.1-182.3
													C443.1-182.3,443.1-182.3,443.1-182.3z"/>
												<g>
													<g>
														<polygon class="st2" points="-42.8,-82.5 -98.1,-114.4 -98.1,-111.6 -45.2,-81 -45.2,-20 -98.1,10.6 -98.1,13.4 
															-42.8,-18.5 														"/>
													</g>
													<g>
														<rect x="-98.1" y="-113" class="st2" width="1.2" height="125"/>
													</g>
													<g>
														<polygon class="st2" points="-44.6,-82.8 -98.1,-51.9 -98.1,-49.1 -43.4,-80.7 														"/>
													</g>
													<g>
														<polygon class="st2" points="-43.4,-20.3 -98.1,-51.9 -98.1,-49.1 -44.6,-18.2 														"/>
													</g>
												</g>
												<path class="st2" d="M-91.4-50.5c0-3.7-3-6.8-6.8-6.8v13.5C-94.4-43.7-91.4-46.8-91.4-50.5z"/>
												<g>
													<g>
														<path class="st2" d="M10.1,13.4l-55.4-32v-63.9l55.4-32l55.4,32v63.9L10.1,13.4z M-42.8-20l52.9,30.5L63-20V-81
															l-52.9-30.5L-42.8-81V-20z"/>
													</g>
													<g>
														<rect x="8.9" y="-113" class="st2" width="2.5" height="125"/>
													</g>
													<g>
														
															<rect x="-52.4" y="-51.7" transform="matrix(0.866 -0.5 0.5 0.866 26.6051 -1.7048)" class="st2" width="125" height="2.5"/>
													</g>
													<g>
														
															<rect x="8.9" y="-113" transform="matrix(0.5 -0.866 0.866 0.5 48.7949 -16.4847)" class="st2" width="2.5" height="125"/>
													</g>
												</g>
												<path class="st2" d="M16.9-50.5c0,3.7-3,6.8-6.8,6.8s-6.8-3-6.8-6.8s3-6.8,6.8-6.8S16.9-54.2,16.9-50.5z"/>
												<g>
													<g>
														<path class="st2" d="M118.4,13.4L63-18.5v-63.9l55.4-32l55.4,32v63.9L118.4,13.4z M65.5-20l52.9,30.5L171.3-20V-81
															l-52.9-30.5L65.5-81V-20z"/>
													</g>
													<g>
														<rect x="117.1" y="-113" class="st2" width="2.5" height="125"/>
													</g>
													<g>
														
															<rect x="55.9" y="-51.7" transform="matrix(0.866 -0.5 0.5 0.866 41.1115 52.4231)" class="st2" width="125" height="2.5"/>
													</g>
													<g>
														
															<rect x="117.1" y="-113" transform="matrix(0.5 -0.866 0.866 0.5 102.9212 77.2648)" class="st2" width="2.5" height="125"/>
													</g>
												</g>
												<path class="st2" d="M125.1-50.5c0,3.7-3,6.8-6.8,6.8c-3.7,0-6.8-3-6.8-6.8s3-6.8,6.8-6.8
													C122.1-57.3,125.1-54.2,125.1-50.5z"/>
												<g>
													<g>
														<path class="st2" d="M226.6,13.4l-55.4-32v-63.9l55.4-32l55.4,32v63.9L226.6,13.4z M173.7-20l52.9,30.5L279.5-20V-81
															l-52.9-30.5L173.7-81V-20z"/>
													</g>
													<g>
														<rect x="225.4" y="-113" class="st2" width="2.5" height="125"/>
													</g>
													<g>
														
															<rect x="164.1" y="-51.7" transform="matrix(0.866 -0.5 0.5 0.866 55.6104 106.5456)" class="st2" width="125" height="2.5"/>
													</g>
													<g>
														
															<rect x="225.4" y="-113" transform="matrix(0.5 -0.866 0.866 0.5 157.0474 171.0142)" class="st2" width="2.5" height="125"/>
													</g>
												</g>
												<path class="st2" d="M233.4-50.5c0,3.7-3,6.8-6.8,6.8s-6.8-3-6.8-6.8s3-6.8,6.8-6.8S233.4-54.2,233.4-50.5z"/>
												<g>
													<g>
														<path class="st2" d="M334.9,13.4l-55.4-32v-63.9l55.4-32l55.4,32v63.9L334.9,13.4z M282-20l52.9,30.5L387.8-20V-81
															l-52.9-30.5L282-81V-20z"/>
													</g>
													<g>
														<rect x="333.6" y="-113" class="st2" width="2.5" height="125"/>
													</g>
													<g>
														
															<rect x="272.4" y="-51.7" transform="matrix(0.866 -0.5 0.5 0.866 70.1204 160.6802)" class="st2" width="125" height="2.5"/>
													</g>
													<g>
														
															<rect x="333.6" y="-113" transform="matrix(0.5 -0.866 0.866 0.5 211.1741 264.7639)" class="st2" width="2.5" height="125"/>
													</g>
												</g>
												<path class="st2" d="M341.6-50.5c0,3.7-3,6.8-6.8,6.8c-3.7,0-6.8-3-6.8-6.8s3-6.8,6.8-6.8
													C338.6-57.3,341.6-54.2,341.6-50.5z"/>
												<g>
													<g>
														<polygon class="st2" points="390.2,-20 390.2,-81 443.1,-111.6 443.1,-114.4 387.8,-82.5 387.8,-18.5 443.1,13.4 
															443.1,10.6 														"/>
													</g>
													<g>
														<rect x="441.9" y="-113" class="st2" width="1.2" height="125"/>
													</g>
													<g>
														<polygon class="st2" points="389.6,-18.2 443.1,-49.1 443.1,-51.9 388.4,-20.3 														"/>
													</g>
													<g>
														<polygon class="st2" points="389.6,-82.8 388.4,-80.7 443.1,-49.1 443.1,-51.9 														"/>
													</g>
												</g>
												<path class="st2" d="M443.1-57.3c-3.7,0-6.8,3-6.8,6.8s3,6.8,6.8,6.8c0,0,0,0,0,0L443.1-57.3
													C443.1-57.3,443.1-57.3,443.1-57.3z"/>
												<g>
													<g>
														<polygon class="st2" points="-42.8,42.5 -98.1,10.6 -98.1,13.4 -45.2,44 -45.2,105 -98.1,135.6 -98.1,138.4 
															-42.8,106.5 														"/>
													</g>
													<g>
														<rect x="-98.1" y="12" class="st2" width="1.2" height="125"/>
													</g>
													<g>
														<polygon class="st2" points="-44.6,42.2 -98.1,73.1 -98.1,75.9 -43.4,44.3 														"/>
													</g>
													<g>
														<polygon class="st2" points="-43.4,104.7 -98.1,73.1 -98.1,75.9 -44.6,106.8 														"/>
													</g>
												</g>
												<path class="st2" d="M-91.4,74.5c0-3.7-3-6.8-6.8-6.8v13.5C-94.4,81.3-91.4,78.2-91.4,74.5z"/>
												<g>
													<g>
														<path class="st2" d="M10.1,138.4l-55.4-32V42.5l55.4-32l55.4,32v63.9L10.1,138.4z M-42.8,105l52.9,30.5L63,105V44
															L10.1,13.4L-42.8,44V105z"/>
													</g>
													<g>
														<rect x="8.9" y="12" class="st2" width="2.5" height="125"/>
													</g>
													<g>
														
															<rect x="-52.4" y="73.3" transform="matrix(0.866 -0.5 0.5 0.866 -35.8941 15.0418)" class="st2" width="125" height="2.5"/>
													</g>
													<g>
														
															<rect x="8.9" y="12" transform="matrix(0.5 -0.866 0.866 0.5 -59.4582 46.0153)" class="st2" width="2.5" height="125"/>
													</g>
												</g>
												<circle class="st2" cx="10.1" cy="74.5" r="6.8"/>
												<g>
													<g>
														<path class="st2" d="M118.4,138.4l-55.4-32V42.5l55.4-32l55.4,32v63.9L118.4,138.4z M65.5,105l52.9,30.5l52.9-30.5V44
															l-52.9-30.5L65.5,44V105z"/>
													</g>
													<g>
														<rect x="117.1" y="12" class="st2" width="2.5" height="125"/>
													</g>
													<g>
														
															<rect x="55.9" y="73.3" transform="matrix(0.866 -0.5 0.5 0.866 -21.3911 69.1742)" class="st2" width="125" height="2.5"/>
													</g>
													<g>
														
															<rect x="117.1" y="12" transform="matrix(0.5 -0.866 0.866 0.5 -5.3318 139.7648)" class="st2" width="2.5" height="125"/>
													</g>
												</g>
												<circle class="st2" cx="118.4" cy="74.5" r="6.8"/>
												<g>
													<g>
														<path class="st2" d="M226.6,138.4l-55.4-32V42.5l55.4-32l55.4,32v63.9L226.6,138.4z M173.7,105l52.9,30.5l52.9-30.5
															V44l-52.9-30.5L173.7,44V105z"/>
													</g>
													<g>
														<rect x="225.4" y="12" class="st2" width="2.5" height="125"/>
													</g>
													<g>
														
															<rect x="164.1" y="73.3" transform="matrix(0.866 -0.5 0.5 0.866 -6.8873 123.2964)" class="st2" width="125" height="2.5"/>
													</g>
													<g>
														
															<rect x="225.4" y="12" transform="matrix(0.5 -0.866 0.866 0.5 48.7945 233.5143)" class="st2" width="2.5" height="125"/>
													</g>
												</g>
												<circle class="st2" cx="226.6" cy="74.5" r="6.8"/>
												<g>
													<g>
														<path class="st2" d="M334.9,138.4l-55.4-32V42.5l55.4-32l55.4,32v63.9L334.9,138.4z M282,105l52.9,30.5l52.9-30.5V44
															l-52.9-30.5L282,44V105z"/>
													</g>
													<g>
														<rect x="333.6" y="12" class="st2" width="2.5" height="125"/>
													</g>
													<g>
														
															<rect x="272.4" y="73.3" transform="matrix(0.866 -0.5 0.5 0.866 7.6199 177.4351)" class="st2" width="125" height="2.5"/>
													</g>
													<g>
														
															<rect x="333.6" y="12" transform="matrix(0.5 -0.866 0.866 0.5 102.9212 327.2641)" class="st2" width="2.5" height="125"/>
													</g>
												</g>
												<circle class="st2" cx="334.9" cy="74.5" r="6.8"/>
												<g>
													<g>
														<polygon class="st2" points="390.2,105 390.2,44 443.1,13.4 443.1,10.6 387.8,42.5 387.8,106.5 443.1,138.4 
															443.1,135.6 														"/>
													</g>
													<g>
														<rect x="441.9" y="12" class="st2" width="1.2" height="125"/>
													</g>
													<g>
														<polygon class="st2" points="389.6,106.8 443.1,75.9 443.1,73.1 388.4,104.7 														"/>
													</g>
													<g>
														<polygon class="st2" points="389.6,42.2 388.4,44.3 443.1,75.9 443.1,73.1 														"/>
													</g>
												</g>
												<path class="st2" d="M443.1,67.7c-3.7,0-6.8,3-6.8,6.8s3,6.8,6.8,6.8c0,0,0,0,0,0L443.1,67.7
													C443.1,67.7,443.1,67.7,443.1,67.7z"/>
												<g>
													<g>
														<polygon class="st2" points="-98.1,135.6 -98.1,138.4 -45.2,169 -45.2,199.5 -42.8,199.5 -42.8,167.5 														
															"/>
													</g>
													<g>
														<rect x="-98.1" y="137" class="st2" width="1.2" height="62.5"/>
													</g>
													<g>
														<polygon class="st2" points="-44.6,167.2 -98.1,198.1 -98.1,199.5 -95.7,199.5 -43.4,169.3 														"/>
													</g>
													<g>
														<polygon class="st2" points="-98.1,199.5 -95.7,199.5 -98.1,198.1 														"/>
													</g>
												</g>
												<path class="st2" d="M-98.1,192.7v6.8h6.8C-91.4,195.8-94.4,192.7-98.1,192.7z"/>
												<g>
													<g>
														<polygon class="st2" points="10.1,135.6 -45.2,167.5 -45.2,199.5 -42.8,199.5 -42.8,169 10.1,138.4 63,169 63,199.5 
															65.5,199.5 65.5,167.5 														"/>
													</g>
													<g>
														<rect x="8.9" y="137" class="st2" width="2.5" height="62.5"/>
													</g>
													<g>
														<polygon class="st2" points="63.6,167.2 7.7,199.5 12.6,199.5 64.9,169.3 														"/>
													</g>
													<g>
														<polygon class="st2" points="-44.6,169.3 7.7,199.5 12.6,199.5 -43.4,167.2 														"/>
													</g>
												</g>
												<path class="st2" d="M10.1,192.7c-3.7,0-6.8,3-6.8,6.8h13.5C16.9,195.8,13.9,192.7,10.1,192.7z"/>
												<g>
													<g>
														<polygon class="st2" points="118.4,135.6 63,167.5 63,199.5 65.5,199.5 65.5,169 118.4,138.4 171.3,169 171.3,199.5 
															173.7,199.5 173.7,167.5 														"/>
													</g>
													<g>
														<rect x="117.1" y="137" class="st2" width="2.5" height="62.5"/>
													</g>
													<g>
														<polygon class="st2" points="171.9,167.2 115.9,199.5 120.8,199.5 173.1,169.3 														"/>
													</g>
													<g>
														<polygon class="st2" points="63.6,169.3 115.9,199.5 120.8,199.5 64.9,167.2 														"/>
													</g>
												</g>
												<path class="st2" d="M118.4,192.7c-3.7,0-6.8,3-6.8,6.8h13.5C125.1,195.8,122.1,192.7,118.4,192.7z"/>
												<g>
													<g>
														<polygon class="st2" points="226.6,135.6 171.3,167.5 171.3,199.5 173.7,199.5 173.7,169 226.6,138.4 279.5,169 
															279.5,199.5 282,199.5 282,167.5 														"/>
													</g>
													<g>
														<rect x="225.4" y="137" class="st2" width="2.5" height="62.5"/>
													</g>
													<g>
														<polygon class="st2" points="280.1,167.2 224.2,199.5 229.1,199.5 281.4,169.3 														"/>
													</g>
													<g>
														<polygon class="st2" points="171.9,169.3 224.2,199.5 229.1,199.5 173.1,167.2 														"/>
													</g>
												</g>
												<path class="st2" d="M226.6,192.7c-3.7,0-6.8,3-6.8,6.8h13.5C233.4,195.8,230.4,192.7,226.6,192.7z"/>
												<g>
													<g>
														<polygon class="st2" points="334.9,135.6 279.5,167.5 279.5,199.5 282,199.5 282,169 334.9,138.4 387.8,169 
															387.8,199.5 390.2,199.5 390.2,167.5 														"/>
													</g>
													<g>
														<rect x="333.6" y="137" class="st2" width="2.5" height="62.5"/>
													</g>
													<g>
														<polygon class="st2" points="388.4,167.2 332.4,199.5 337.3,199.5 389.6,169.3 														"/>
													</g>
													<g>
														<polygon class="st2" points="280.1,169.3 332.4,199.5 337.3,199.5 281.4,167.2 														"/>
													</g>
												</g>
												<path class="st2" d="M334.9,192.7c-3.7,0-6.8,3-6.8,6.8h13.5C341.6,195.8,338.6,192.7,334.9,192.7z"/>
												<g>
													<g>
														<polygon class="st2" points="390.2,169 443.1,138.4 443.1,135.6 387.8,167.5 387.8,199.5 390.2,199.5 														
															"/>
													</g>
													<g>
														<rect x="441.9" y="137" class="st2" width="1.2" height="62.5"/>
													</g>
													<g>
														<polygon class="st2" points="443.1,198.1 440.7,199.5 443.1,199.5 														"/>
													</g>
													<g>
														<polygon class="st2" points="443.1,198.1 389.6,167.2 388.4,169.3 440.7,199.5 443.1,199.5 														"/>
													</g>
												</g>
												<path class="st2" d="M443.1,192.7C443.1,192.7,443.1,192.7,443.1,192.7c-3.7,0-6.8,3-6.8,6.8h6.8V192.7z"/>
											</g>
										</g>
									</g>
									<g>
										<rect x="-98.1" y="199.5" class="st1" width="541.3" height="500"/>
										<g>
											<g>
												<g>
													<g>
														<polygon class="st2" points="-41.5,199.5 -46.5,199.5 -44,200.9 														"/>
													</g>
												</g>
												<g>
													<g>
														<polygon class="st2" points="66.7,199.5 61.8,199.5 64.2,200.9 														"/>
													</g>
												</g>
												<g>
													<g>
														<polygon class="st2" points="175,199.5 170,199.5 172.5,200.9 														"/>
													</g>
												</g>
												<g>
													<g>
														<polygon class="st2" points="283.2,199.5 278.3,199.5 280.8,200.9 														"/>
													</g>
												</g>
												<g>
													<g>
														<polygon class="st2" points="389,200.9 391.5,199.5 386.5,199.5 														"/>
													</g>
												</g>
												<g>
													<g>
														<polygon class="st2" points="-96.9,230 -98.1,229.3 -98.1,294.7 -96.9,294 														"/>
													</g>
													<g>
														<polygon class="st2" points="-98.1,230.7 -98.1,232.2 -97.5,231.8 														"/>
													</g>
													<g>
														<polygon class="st2" points="-98.1,291.8 -98.1,293.3 -97.5,292.2 														"/>
													</g>
												</g>
												<g>
													<g>
														<path class="st2" d="M11.4,294V230l-52.9-30.5h-4.9l-51.7,29.8v65.3l54.1,31.2L11.4,294z M-96.9,231.5l52.9-30.5
															l52.9,30.5v61.1L-44,323.1l-52.9-30.5V231.5z"/>
													</g>
													<g>
														<rect x="-45.2" y="199.5" class="st2" width="2.5" height="125"/>
													</g>
													<g>
														<polygon class="st2" points="10.7,231.8 9.5,229.7 -98.1,291.8 -98.1,293.3 -97.5,294.3 														"/>
													</g>
													<g>
														<polygon class="st2" points="10.7,292.2 -97.5,229.7 -98.1,230.7 -98.1,232.2 9.5,294.3 														"/>
													</g>
												</g>
												<path class="st2" d="M-37.2,262c0,3.7-3,6.8-6.8,6.8s-6.8-3-6.8-6.8c0-3.7,3-6.8,6.8-6.8S-37.2,258.3-37.2,262z"/>
												<g>
													<g>
														<path class="st2" d="M8.9,294l55.4,32l55.4-32V230l-52.9-30.5h-4.9L8.9,230V294z M11.4,231.5l52.9-30.5l52.9,30.5
															v61.1l-52.9,30.5l-52.9-30.5V231.5z"/>
													</g>
													<g>
														<rect x="63" y="199.5" class="st2" width="2.5" height="125"/>
													</g>
													<g>
														
															<rect x="1.7" y="260.8" transform="matrix(0.866 -0.5 0.5 0.866 -122.4011 67.2334)" class="st2" width="125" height="2.5"/>
													</g>
													<g>
														
															<rect x="63" y="199.5" transform="matrix(0.5 -0.866 0.866 0.5 -194.775 186.6404)" class="st2" width="2.5" height="125"/>
													</g>
												</g>
												<path class="st2" d="M71,262c0,3.7-3,6.8-6.8,6.8c-3.7,0-6.8-3-6.8-6.8c0-3.7,3-6.8,6.8-6.8C68,255.2,71,258.3,71,262z"
													/>
												<g>
													<g>
														<path class="st2" d="M117.1,294l55.4,32l55.4-32V230L175,199.5H170L117.1,230V294z M119.6,231.5l52.9-30.5l52.9,30.5
															v61.1l-52.9,30.5l-52.9-30.5V231.5z"/>
													</g>
													<g>
														<rect x="171.3" y="199.5" class="st2" width="2.5" height="125"/>
													</g>
													<g>
														
															<rect x="110" y="260.8" transform="matrix(0.866 -0.5 0.5 0.866 -107.8906 121.354)" class="st2" width="125" height="2.5"/>
													</g>
													<g>
														
															<rect x="171.3" y="199.5" transform="matrix(0.5 -0.866 0.866 0.5 -140.6485 280.3901)" class="st2" width="2.5" height="125"/>
													</g>
												</g>
												<path class="st2" d="M179.3,262c0,3.7-3,6.8-6.8,6.8s-6.8-3-6.8-6.8c0-3.7,3-6.8,6.8-6.8S179.3,258.3,179.3,262z"/>
												<g>
													<g>
														<path class="st2" d="M225.4,294l55.4,32l55.4-32V230l-52.9-30.5h-4.9L225.4,230V294z M227.9,231.5l52.9-30.5
															l52.9,30.5v61.1l-52.9,30.5l-52.9-30.5V231.5z"/>
													</g>
													<g>
														<rect x="279.5" y="199.5" class="st2" width="2.5" height="125"/>
													</g>
													<g>
														
															<rect x="218.3" y="260.8" transform="matrix(0.866 -0.5 0.5 0.866 -93.387 175.4812)" class="st2" width="125" height="2.5"/>
													</g>
													<g>
														
															<rect x="279.5" y="199.5" transform="matrix(0.5 -0.866 0.866 0.5 -86.5222 374.1393)" class="st2" width="2.5" height="125"/>
													</g>
												</g>
												<path class="st2" d="M287.5,262c0,3.7-3,6.8-6.8,6.8c-3.7,0-6.8-3-6.8-6.8c0-3.7,3-6.8,6.8-6.8
													C284.5,255.2,287.5,258.3,287.5,262z"/>
												<g>
													<g>
														<path class="st2" d="M391.5,199.5h-4.9L333.6,230V294l55.4,32l54.1-31.2v-65.3L391.5,199.5z M389,323.1l-52.9-30.5
															v-61.1l52.9-30.5l52.9,30.5v61.1L389,323.1z"/>
													</g>
													<g>
														<rect x="387.8" y="199.5" class="st2" width="2.5" height="125"/>
													</g>
													<g>
														<polygon class="st2" points="334.3,292.2 335.5,294.3 443.1,232.2 443.1,230.7 442.5,229.7 														"/>
													</g>
													<g>
														<polygon class="st2" points="334.3,231.8 442.5,294.3 443.1,293.3 443.1,291.8 335.5,229.7 														"/>
													</g>
												</g>
												<path class="st2" d="M395.8,262c0,3.7-3,6.8-6.8,6.8s-6.8-3-6.8-6.8c0-3.7,3-6.8,6.8-6.8S395.8,258.3,395.8,262z"/>
												<g>
													<g>
														<polygon class="st2" points="441.9,230 441.9,294 443.1,294.7 443.1,229.3 														"/>
													</g>
													<g>
														<polygon class="st2" points="442.5,292.2 443.1,293.2 443.1,291.8 														"/>
													</g>
													<g>
														<polygon class="st2" points="442.5,231.8 443.1,232.2 443.1,230.8 														"/>
													</g>
												</g>
												<g>
													<g>
														<polygon class="st2" points="-96.9,355 -98.1,354.3 -98.1,419.7 -96.9,419 														"/>
													</g>
													<g>
														<polygon class="st2" points="-98.1,355.7 -98.1,357.2 -97.5,356.8 														"/>
													</g>
													<g>
														<polygon class="st2" points="-98.1,416.8 -98.1,418.3 -97.5,417.2 														"/>
													</g>
												</g>
												<g>
													<g>
														<path class="st2" d="M11.4,419V355l-55.4-32l-54.1,31.2v65.3l54.1,31.2L11.4,419z M-96.9,356.5l52.9-30.5l52.9,30.5
															v61.1L-44,448.1l-52.9-30.5V356.5z"/>
													</g>
													<g>
														<rect x="-45.2" y="324.5" class="st2" width="2.5" height="125"/>
													</g>
													<g>
														<polygon class="st2" points="10.7,356.8 9.5,354.7 -98.1,416.8 -98.1,418.3 -97.5,419.3 														"/>
													</g>
													<g>
														<polygon class="st2" points="10.7,417.2 -97.5,354.7 -98.1,355.7 -98.1,357.2 9.5,419.3 														"/>
													</g>
												</g>
												<path class="st2" d="M-37.2,387c0,3.7-3,6.8-6.8,6.8s-6.8-3-6.8-6.8c0-3.7,3-6.8,6.8-6.8S-37.2,383.3-37.2,387z"/>
												<g>
													<g>
														<path class="st2" d="M64.2,450.9L8.9,419V355l55.4-32l55.4,32V419L64.2,450.9z M11.4,417.5l52.9,30.5l52.9-30.5v-61.1
															l-52.9-30.5l-52.9,30.5V417.5z"/>
													</g>
													<g>
														<rect x="63" y="324.5" class="st2" width="2.5" height="125"/>
													</g>
													<g>
														
															<rect x="1.7" y="385.8" transform="matrix(0.866 -0.5 0.5 0.866 -184.9059 83.983)" class="st2" width="125" height="2.5"/>
													</g>
													<g>
														
															<rect x="63" y="324.5" transform="matrix(0.5 -0.866 0.866 0.5 -303.0281 249.1401)" class="st2" width="2.5" height="125"/>
													</g>
												</g>
												<path class="st2" d="M71,387c0,3.7-3,6.8-6.8,6.8c-3.7,0-6.8-3-6.8-6.8c0-3.7,3-6.8,6.8-6.8C68,380.2,71,383.3,71,387z"
													/>
												<g>
													<g>
														<path class="st2" d="M172.5,450.9l-55.4-32V355l55.4-32l55.4,32V419L172.5,450.9z M119.6,417.5l52.9,30.5l52.9-30.5
															v-61.1l-52.9-30.5l-52.9,30.5V417.5z"/>
													</g>
													<g>
														<rect x="171.3" y="324.5" class="st2" width="2.5" height="125"/>
													</g>
													<g>
														
															<rect x="110" y="385.8" transform="matrix(0.866 -0.5 0.5 0.866 -170.3916 138.1014)" class="st2" width="125" height="2.5"/>
													</g>
													<g>
														
															<rect x="171.3" y="324.5" transform="matrix(0.5 -0.866 0.866 0.5 -248.9018 342.8897)" class="st2" width="2.5" height="125"/>
													</g>
												</g>
												<path class="st2" d="M179.3,387c0,3.7-3,6.8-6.8,6.8s-6.8-3-6.8-6.8c0-3.7,3-6.8,6.8-6.8S179.3,383.3,179.3,387z"/>
												<g>
													<g>
														<path class="st2" d="M280.8,450.9l-55.4-32V355l55.4-32l55.4,32V419L280.8,450.9z M227.9,417.5l52.9,30.5l52.9-30.5
															v-61.1l-52.9-30.5l-52.9,30.5V417.5z"/>
													</g>
													<g>
														<rect x="279.5" y="324.5" class="st2" width="2.5" height="125"/>
													</g>
													<g>
														
															<rect x="218.3" y="385.8" transform="matrix(0.866 -0.5 0.5 0.866 -155.888 192.2286)" class="st2" width="125" height="2.5"/>
													</g>
													<g>
														
															<rect x="279.5" y="324.5" transform="matrix(0.5 -0.866 0.866 0.5 -194.7755 436.6387)" class="st2" width="2.5" height="125"/>
													</g>
												</g>
												<path class="st2" d="M287.5,387c0,3.7-3,6.8-6.8,6.8c-3.7,0-6.8-3-6.8-6.8c0-3.7,3-6.8,6.8-6.8
													C284.5,380.2,287.5,383.3,287.5,387z"/>
												<g>
													<g>
														<path class="st2" d="M389,323.1l-55.4,32V419l55.4,32l54.1-31.2v-65.3L389,323.1z M389,448.1l-52.9-30.5v-61.1
															l52.9-30.5l52.9,30.5v61.1L389,448.1z"/>
													</g>
													<g>
														<rect x="387.8" y="324.5" class="st2" width="2.5" height="125"/>
													</g>
													<g>
														<polygon class="st2" points="334.3,417.2 335.5,419.3 443.1,357.2 443.1,355.7 442.5,354.7 														"/>
													</g>
													<g>
														<polygon class="st2" points="334.3,356.8 442.5,419.3 443.1,418.3 443.1,416.8 335.5,354.7 														"/>
													</g>
												</g>
												<path class="st2" d="M395.8,387c0,3.7-3,6.8-6.8,6.8s-6.8-3-6.8-6.8c0-3.7,3-6.8,6.8-6.8S395.8,383.3,395.8,387z"/>
												<g>
													<g>
														<polygon class="st2" points="441.9,355 441.9,419 443.1,419.7 443.1,354.3 														"/>
													</g>
													<g>
														<polygon class="st2" points="442.5,417.2 443.1,418.3 443.1,416.8 														"/>
													</g>
													<g>
														<polygon class="st2" points="442.5,356.8 443.1,357.2 443.1,355.7 														"/>
													</g>
												</g>
												<g>
													<g>
														<polygon class="st2" points="-96.9,480 -98.1,479.3 -98.1,544.7 -96.9,544 														"/>
													</g>
													<g>
														<polygon class="st2" points="-98.1,480.7 -98.1,482.2 -97.5,481.8 														"/>
													</g>
													<g>
														<polygon class="st2" points="-98.1,541.8 -98.1,543.3 -97.5,542.2 														"/>
													</g>
												</g>
												<g>
													<g>
														<path class="st2" d="M11.4,544V480l-55.4-32l-54.1,31.2v65.3l54.1,31.2L11.4,544z M-96.9,481.5l52.9-30.5l52.9,30.5
															v61.1L-44,573.1l-52.9-30.5V481.5z"/>
													</g>
													<g>
														<rect x="-45.2" y="449.5" class="st2" width="2.5" height="125"/>
													</g>
													<g>
														<polygon class="st2" points="10.7,481.8 9.5,479.7 -98.1,541.8 -98.1,543.3 -97.5,544.3 														"/>
													</g>
													<g>
														<polygon class="st2" points="10.7,542.2 -97.5,479.7 -98.1,480.7 -98.1,482.2 9.5,544.3 														"/>
													</g>
												</g>
												<circle class="st2" cx="-44" cy="512" r="6.8"/>
												<g>
													<g>
														<path class="st2" d="M64.2,575.9L8.9,544V480l55.4-32l55.4,32V544L64.2,575.9z M11.4,542.5l52.9,30.5l52.9-30.5v-61.1
															l-52.9-30.5l-52.9,30.5V542.5z"/>
													</g>
													<g>
														<rect x="63" y="449.5" class="st2" width="2.5" height="125"/>
													</g>
													<g>
														
															<rect x="1.7" y="510.8" transform="matrix(0.866 -0.5 0.5 0.866 -247.4106 100.7325)" class="st2" width="125" height="2.5"/>
													</g>
													<g>
														
															<rect x="63" y="449.5" transform="matrix(0.5 -0.866 0.866 0.5 -411.2811 311.6398)" class="st2" width="2.5" height="125"/>
													</g>
												</g>
												<circle class="st2" cx="64.2" cy="512" r="6.8"/>
												<g>
													<g>
														<path class="st2" d="M172.5,575.9l-55.4-32V480l55.4-32l55.4,32V544L172.5,575.9z M119.6,542.5l52.9,30.5l52.9-30.5
															v-61.1l-52.9-30.5l-52.9,30.5V542.5z"/>
													</g>
													<g>
														<rect x="171.3" y="449.5" class="st2" width="2.5" height="125"/>
													</g>
													<g>
														
															<rect x="110" y="510.8" transform="matrix(0.866 -0.5 0.5 0.866 -232.8926 154.8488)" class="st2" width="125" height="2.5"/>
													</g>
													<g>
														
															<rect x="171.3" y="449.5" transform="matrix(0.5 -0.866 0.866 0.5 -357.1548 405.3893)" class="st2" width="2.5" height="125"/>
													</g>
												</g>
												<circle class="st2" cx="172.5" cy="512" r="6.8"/>
												<g>
													<g>
														<path class="st2" d="M280.8,575.9l-55.4-32V480l55.4-32l55.4,32V544L280.8,575.9z M227.9,542.5l52.9,30.5l52.9-30.5
															v-61.1l-52.9-30.5l-52.9,30.5V542.5z"/>
													</g>
													<g>
														<rect x="279.5" y="449.5" class="st2" width="2.5" height="125"/>
													</g>
													<g>
														
															<rect x="218.3" y="510.8" transform="matrix(0.866 -0.5 0.5 0.866 -218.389 208.976)" class="st2" width="125" height="2.5"/>
													</g>
													<g>
														
															<rect x="279.5" y="449.5" transform="matrix(0.5 -0.866 0.866 0.5 -303.0285 499.1381)" class="st2" width="2.5" height="125"/>
													</g>
												</g>
												<circle class="st2" cx="280.8" cy="512" r="6.8"/>
												<g>
													<g>
														<path class="st2" d="M389,448.1l-55.4,32V544l55.4,32l54.1-31.2v-65.3L389,448.1z M389,573.1l-52.9-30.5v-61.1
															l52.9-30.5l52.9,30.5v61.1L389,573.1z"/>
													</g>
													<g>
														<rect x="387.8" y="449.5" class="st2" width="2.5" height="125"/>
													</g>
													<g>
														<polygon class="st2" points="334.3,542.2 335.5,544.3 443.1,482.2 443.1,480.7 442.5,479.7 														"/>
													</g>
													<g>
														<polygon class="st2" points="334.3,481.8 442.5,544.3 443.1,543.3 443.1,541.8 335.5,479.7 														"/>
													</g>
												</g>
												<circle class="st2" cx="389" cy="512" r="6.8"/>
												<g>
													<g>
														<polygon class="st2" points="441.9,480 441.9,544 443.1,544.7 443.1,479.3 														"/>
													</g>
													<g>
														<polygon class="st2" points="442.5,542.2 443.1,543.2 443.1,541.8 														"/>
													</g>
													<g>
														<polygon class="st2" points="442.5,481.8 443.1,482.2 443.1,480.7 														"/>
													</g>
												</g>
												<g>
													<g>
														<polygon class="st2" points="-96.9,605 -98.1,604.3 -98.1,669.7 -96.9,669 														"/>
													</g>
													<g>
														<polygon class="st2" points="-98.1,605.7 -98.1,607.2 -97.5,606.8 														"/>
													</g>
													<g>
														<polygon class="st2" points="-98.1,666.8 -98.1,668.3 -97.5,667.2 														"/>
													</g>
												</g>
												<g>
													<g>
														<path class="st2" d="M11.4,605l-55.4-32l-54.1,31.2v65.3l51.7,29.8h4.9L11.4,669V605z M8.9,667.5L-44,698.1
															l-52.9-30.5v-61.1l52.9-30.5l52.9,30.5V667.5z"/>
													</g>
													<g>
														<rect x="-45.2" y="574.5" class="st2" width="2.5" height="125"/>
													</g>
													<g>
														<polygon class="st2" points="10.7,606.8 9.5,604.7 -98.1,666.8 -98.1,668.3 -97.5,669.3 														"/>
													</g>
													<g>
														<polygon class="st2" points="10.7,667.2 -97.5,604.7 -98.1,605.7 -98.1,607.2 9.5,669.3 														"/>
													</g>
												</g>
												<path class="st2" d="M-37.2,637c0,3.7-3,6.8-6.8,6.8s-6.8-3-6.8-6.8c0-3.7,3-6.8,6.8-6.8S-37.2,633.3-37.2,637z"/>
												<g>
													<g>
														<path class="st2" d="M119.6,605l-55.4-32L8.9,605V669l52.9,30.5h4.9l52.9-30.5V605z M117.1,667.5l-52.9,30.5
															l-52.9-30.5v-61.1l52.9-30.5l52.9,30.5V667.5z"/>
													</g>
													<g>
														<rect x="63" y="574.5" class="st2" width="2.5" height="125"/>
													</g>
													<g>
														
															<rect x="1.7" y="635.8" transform="matrix(0.866 -0.5 0.5 0.866 -309.9154 117.4821)" class="st2" width="125" height="2.5"/>
													</g>
													<g>
														
															<rect x="63" y="574.5" transform="matrix(0.5 -0.866 0.866 0.5 -519.5339 374.139)" class="st2" width="2.5" height="125"/>
													</g>
												</g>
												<path class="st2" d="M71,637c0,3.7-3,6.8-6.8,6.8c-3.7,0-6.8-3-6.8-6.8c0-3.7,3-6.8,6.8-6.8C68,630.2,71,633.3,71,637z"
													/>
												<g>
													<g>
														<path class="st2" d="M227.9,605l-55.4-32l-55.4,32V669l52.9,30.5h4.9l52.9-30.5V605z M225.4,667.5l-52.9,30.5
															l-52.9-30.5v-61.1l52.9-30.5l52.9,30.5V667.5z"/>
													</g>
													<g>
														<rect x="171.3" y="574.5" class="st2" width="2.5" height="125"/>
													</g>
													<g>
														
															<rect x="110" y="635.8" transform="matrix(0.866 -0.5 0.5 0.866 -295.3936 171.5961)" class="st2" width="125" height="2.5"/>
													</g>
													<g>
														
															<rect x="171.3" y="574.5" transform="matrix(0.5 -0.866 0.866 0.5 -465.4077 467.8885)" class="st2" width="2.5" height="125"/>
													</g>
												</g>
												<path class="st2" d="M179.3,637c0,3.7-3,6.8-6.8,6.8s-6.8-3-6.8-6.8c0-3.7,3-6.8,6.8-6.8S179.3,633.3,179.3,637z"/>
												<g>
													<g>
														<path class="st2" d="M336.1,605l-55.4-32l-55.4,32V669l52.9,30.5h4.9l52.9-30.5V605z M333.6,667.5l-52.9,30.5
															l-52.9-30.5v-61.1l52.9-30.5l52.9,30.5V667.5z"/>
													</g>
													<g>
														<rect x="279.5" y="574.5" class="st2" width="2.5" height="125"/>
													</g>
													<g>
														
															<rect x="218.3" y="635.8" transform="matrix(0.866 -0.5 0.5 0.866 -280.89 225.7234)" class="st2" width="125" height="2.5"/>
													</g>
													<g>
														
															<rect x="279.5" y="574.5" transform="matrix(0.5 -0.866 0.866 0.5 -411.2815 561.637)" class="st2" width="2.5" height="125"/>
													</g>
												</g>
												<path class="st2" d="M287.5,637c0,3.7-3,6.8-6.8,6.8c-3.7,0-6.8-3-6.8-6.8c0-3.7,3-6.8,6.8-6.8
													C284.5,630.2,287.5,633.3,287.5,637z"/>
												<g>
													<g>
														<path class="st2" d="M389,573.1l-55.4,32V669l52.9,30.5h4.9l51.7-29.8v-65.3L389,573.1z M389,698.1l-52.9-30.5v-61.1
															l52.9-30.5l52.9,30.5v61.1L389,698.1z"/>
													</g>
													<g>
														<rect x="387.8" y="574.5" class="st2" width="2.5" height="125"/>
													</g>
													<g>
														<polygon class="st2" points="334.3,667.2 335.5,669.3 443.1,607.2 443.1,605.7 442.5,604.7 														"/>
													</g>
													<g>
														<polygon class="st2" points="334.3,606.8 442.5,669.3 443.1,668.3 443.1,666.8 335.5,604.7 														"/>
													</g>
												</g>
												<path class="st2" d="M395.8,637c0,3.7-3,6.8-6.8,6.8s-6.8-3-6.8-6.8c0-3.7,3-6.8,6.8-6.8S395.8,633.3,395.8,637z"/>
												<g>
													<g>
														<polygon class="st2" points="441.9,605 441.9,669 443.1,669.7 443.1,604.3 														"/>
													</g>
													<g>
														<polygon class="st2" points="442.5,667.2 443.1,668.3 443.1,666.8 														"/>
													</g>
													<g>
														<polygon class="st2" points="442.5,606.8 443.1,607.2 443.1,605.7 														"/>
													</g>
												</g>
												<g>
													<g>
														<polygon class="st2" points="-46.5,699.5 -41.5,699.5 -44,698.1 														"/>
													</g>
												</g>
												<g>
													<g>
														<polygon class="st2" points="61.8,699.5 66.7,699.5 64.2,698.1 														"/>
													</g>
												</g>
												<g>
													<g>
														<polygon class="st2" points="170,699.5 175,699.5 172.5,698.1 														"/>
													</g>
												</g>
												<g>
													<g>
														<polygon class="st2" points="278.3,699.5 283.2,699.5 280.8,698.1 														"/>
													</g>
												</g>
												<g>
													<g>
														<polygon class="st2" points="389,698.1 386.5,699.5 391.5,699.5 														"/>
													</g>
												</g>
											</g>
											<g>
												<g>
													<g>
														<polygon class="st2" points="-42.8,199.5 -45.2,199.5 -45.2,230 -98.1,260.6 -98.1,263.4 -42.8,231.5 														
															"/>
													</g>
													<g>
														<rect x="-98.1" y="199.5" class="st2" width="1.2" height="62.5"/>
													</g>
													<g>
														<polygon class="st2" points="-98.1,199.5 -98.1,200.9 -95.7,199.5 														"/>
													</g>
													<g>
														<polygon class="st2" points="-43.4,229.7 -95.7,199.5 -98.1,199.5 -98.1,200.9 -44.6,231.8 														"/>
													</g>
												</g>
												<path class="st2" d="M-91.4,199.5h-6.8v6.8C-94.4,206.3-91.4,203.2-91.4,199.5z"/>
												<g>
													<g>
														<polygon class="st2" points="10.1,263.4 65.5,231.5 65.5,199.5 63,199.5 63,230 10.1,260.6 -42.8,230 -42.8,199.5 
															-45.2,199.5 -45.2,231.5 														"/>
													</g>
													<g>
														<rect x="8.9" y="199.5" class="st2" width="2.5" height="62.5"/>
													</g>
													<g>
														<polygon class="st2" points="-43.4,231.8 12.6,199.5 7.7,199.5 -44.6,229.7 														"/>
													</g>
													<g>
														<polygon class="st2" points="64.9,229.7 12.6,199.5 7.7,199.5 63.6,231.8 														"/>
													</g>
												</g>
												<path class="st2" d="M10.1,206.3c3.7,0,6.8-3,6.8-6.8H3.4C3.4,203.2,6.4,206.3,10.1,206.3z"/>
												<g>
													<g>
														<polygon class="st2" points="118.4,263.4 173.7,231.5 173.7,199.5 171.3,199.5 171.3,230 118.4,260.6 65.5,230 
															65.5,199.5 63,199.5 63,231.5 														"/>
													</g>
													<g>
														<rect x="117.1" y="199.5" class="st2" width="2.5" height="62.5"/>
													</g>
													<g>
														<polygon class="st2" points="64.9,231.8 120.8,199.5 115.9,199.5 63.6,229.7 														"/>
													</g>
													<g>
														<polygon class="st2" points="173.1,229.7 120.8,199.5 115.9,199.5 171.9,231.8 														"/>
													</g>
												</g>
												<path class="st2" d="M118.4,206.3c3.7,0,6.8-3,6.8-6.8h-13.5C111.6,203.2,114.6,206.3,118.4,206.3z"/>
												<g>
													<g>
														<polygon class="st2" points="226.6,263.4 282,231.5 282,199.5 279.5,199.5 279.5,230 226.6,260.6 173.7,230 
															173.7,199.5 171.3,199.5 171.3,231.5 														"/>
													</g>
													<g>
														<rect x="225.4" y="199.5" class="st2" width="2.5" height="62.5"/>
													</g>
													<g>
														<polygon class="st2" points="173.1,231.8 229.1,199.5 224.2,199.5 171.9,229.7 														"/>
													</g>
													<g>
														<polygon class="st2" points="281.4,229.7 229.1,199.5 224.2,199.5 280.1,231.8 														"/>
													</g>
												</g>
												<path class="st2" d="M226.6,206.3c3.7,0,6.8-3,6.8-6.8h-13.5C219.9,203.2,222.9,206.3,226.6,206.3z"/>
												<g>
													<g>
														<polygon class="st2" points="334.9,263.4 390.2,231.5 390.2,199.5 387.8,199.5 387.8,230 334.9,260.6 282,230 
															282,199.5 279.5,199.5 279.5,231.5 														"/>
													</g>
													<g>
														<rect x="333.6" y="199.5" class="st2" width="2.5" height="62.5"/>
													</g>
													<g>
														<polygon class="st2" points="281.4,231.8 337.3,199.5 332.4,199.5 280.1,229.7 														"/>
													</g>
													<g>
														<polygon class="st2" points="389.6,229.7 337.3,199.5 332.4,199.5 388.4,231.8 														"/>
													</g>
												</g>
												<path class="st2" d="M334.9,206.3c3.7,0,6.8-3,6.8-6.8h-13.5C328.1,203.2,331.1,206.3,334.9,206.3z"/>
												<g>
													<g>
														<polygon class="st2" points="390.2,230 390.2,199.5 387.8,199.5 387.8,231.5 443.1,263.4 443.1,260.6 														
															"/>
													</g>
													<g>
														<rect x="441.9" y="199.5" class="st2" width="1.2" height="62.5"/>
													</g>
													<g>
														<polygon class="st2" points="389.6,231.8 443.1,200.9 443.1,199.5 440.7,199.5 388.4,229.7 														"/>
													</g>
													<g>
														<polygon class="st2" points="440.7,199.5 443.1,200.9 443.1,199.5 														"/>
													</g>
												</g>
												<path class="st2" d="M436.4,199.5c0,3.7,3,6.8,6.8,6.8c0,0,0,0,0,0v-6.8H436.4z"/>
												<g>
													<g>
														<polygon class="st2" points="-42.8,292.5 -98.1,260.6 -98.1,263.4 -45.2,294 -45.2,355 -98.1,385.6 -98.1,388.4 
															-42.8,356.5 														"/>
													</g>
													<g>
														<rect x="-98.1" y="262" class="st2" width="1.2" height="125"/>
													</g>
													<g>
														<polygon class="st2" points="-44.6,292.2 -98.1,323.1 -98.1,325.9 -43.4,294.3 														"/>
													</g>
													<g>
														<polygon class="st2" points="-43.4,354.7 -98.1,323.1 -98.1,325.9 -44.6,356.8 														"/>
													</g>
												</g>
												<path class="st2" d="M-91.4,324.5c0-3.7-3-6.8-6.8-6.8v13.5C-94.4,331.3-91.4,328.2-91.4,324.5z"/>
												<g>
													<g>
														<path class="st2" d="M10.1,388.4l-55.4-32v-63.9l55.4-32l55.4,32v63.9L10.1,388.4z M-42.8,355l52.9,30.5L63,355V294
															l-52.9-30.5L-42.8,294V355z"/>
													</g>
													<g>
														<rect x="8.9" y="262" class="st2" width="2.5" height="125"/>
													</g>
													<g>
														
															<rect x="-52.4" y="323.3" transform="matrix(0.866 -0.5 0.5 0.866 -160.8889 48.5322)" class="st2" width="125" height="2.5"/>
													</g>
													<g>
														
															<rect x="8.9" y="262" transform="matrix(0.5 -0.866 0.866 0.5 -275.9643 171.0148)" class="st2" width="2.5" height="125"/>
													</g>
												</g>
												<path class="st2" d="M16.9,324.5c0,3.7-3,6.8-6.8,6.8s-6.8-3-6.8-6.8c0-3.7,3-6.8,6.8-6.8S16.9,320.8,16.9,324.5z"/>
												<g>
													<g>
														<path class="st2" d="M118.4,388.4l-55.4-32v-63.9l55.4-32l55.4,32v63.9L118.4,388.4z M65.5,355l52.9,30.5l52.9-30.5
															V294l-52.9-30.5L65.5,294V355z"/>
													</g>
													<g>
														<rect x="117.1" y="262" class="st2" width="2.5" height="125"/>
													</g>
													<g>
														
															<rect x="55.9" y="323.3" transform="matrix(0.866 -0.5 0.5 0.866 -146.3962 102.668)" class="st2" width="125" height="2.5"/>
													</g>
													<g>
														
															<rect x="117.1" y="262" transform="matrix(0.5 -0.866 0.866 0.5 -221.8382 264.7644)" class="st2" width="2.5" height="125"/>
													</g>
												</g>
												<path class="st2" d="M125.1,324.5c0,3.7-3,6.8-6.8,6.8c-3.7,0-6.8-3-6.8-6.8c0-3.7,3-6.8,6.8-6.8
													C122.1,317.7,125.1,320.8,125.1,324.5z"/>
												<g>
													<g>
														<path class="st2" d="M226.6,388.4l-55.4-32v-63.9l55.4-32l55.4,32v63.9L226.6,388.4z M173.7,355l52.9,30.5l52.9-30.5
															V294l-52.9-30.5L173.7,294V355z"/>
													</g>
													<g>
														<rect x="225.4" y="262" class="st2" width="2.5" height="125"/>
													</g>
													<g>
														
															<rect x="164.1" y="323.3" transform="matrix(0.866 -0.5 0.5 0.866 -131.8859 156.784)" class="st2" width="125" height="2.5"/>
													</g>
													<g>
														
															<rect x="225.4" y="262" transform="matrix(0.5 -0.866 0.866 0.5 -167.7121 358.5136)" class="st2" width="2.5" height="125"/>
													</g>
												</g>
												<path class="st2" d="M233.4,324.5c0,3.7-3,6.8-6.8,6.8s-6.8-3-6.8-6.8c0-3.7,3-6.8,6.8-6.8S233.4,320.8,233.4,324.5z"/>
												<g>
													<g>
														<path class="st2" d="M334.9,388.4l-55.4-32v-63.9l55.4-32l55.4,32v63.9L334.9,388.4z M282,355l52.9,30.5l52.9-30.5
															V294l-52.9-30.5L282,294V355z"/>
													</g>
													<g>
														<rect x="333.6" y="262" class="st2" width="2.5" height="125"/>
													</g>
													<g>
														
															<rect x="272.4" y="323.3" transform="matrix(0.866 -0.5 0.5 0.866 -117.3874 210.9251)" class="st2" width="125" height="2.5"/>
													</g>
													<g>
														
															<rect x="333.6" y="262" transform="matrix(0.5 -0.866 0.866 0.5 -113.5857 452.2636)" class="st2" width="2.5" height="125"/>
													</g>
												</g>
												<path class="st2" d="M341.6,324.5c0,3.7-3,6.8-6.8,6.8c-3.7,0-6.8-3-6.8-6.8c0-3.7,3-6.8,6.8-6.8
													C338.6,317.7,341.6,320.8,341.6,324.5z"/>
												<g>
													<g>
														<polygon class="st2" points="390.2,355 390.2,294 443.1,263.4 443.1,260.6 387.8,292.5 387.8,356.5 443.1,388.4 
															443.1,385.6 														"/>
													</g>
													<g>
														<rect x="441.9" y="262" class="st2" width="1.2" height="125"/>
													</g>
													<g>
														<polygon class="st2" points="389.6,356.8 443.1,325.9 443.1,323.1 388.4,354.7 														"/>
													</g>
													<g>
														<polygon class="st2" points="389.6,292.2 388.4,294.3 443.1,325.9 443.1,323.1 														"/>
													</g>
												</g>
												<path class="st2" d="M443.1,317.7c-3.7,0-6.8,3-6.8,6.8c0,3.7,3,6.8,6.8,6.8c0,0,0,0,0,0L443.1,317.7
													C443.1,317.7,443.1,317.7,443.1,317.7z"/>
												<g>
													<g>
														<polygon class="st2" points="-42.8,417.5 -98.1,385.6 -98.1,388.4 -45.2,419 -45.2,480 -98.1,510.6 -98.1,513.4 
															-42.8,481.5 														"/>
													</g>
													<g>
														<rect x="-98.1" y="387" class="st2" width="1.2" height="125"/>
													</g>
													<g>
														<polygon class="st2" points="-44.6,417.2 -98.1,448.1 -98.1,450.9 -43.4,419.3 														"/>
													</g>
													<g>
														<polygon class="st2" points="-43.4,479.7 -98.1,448.1 -98.1,450.9 -44.6,481.8 														"/>
													</g>
												</g>
												<path class="st2" d="M-91.4,449.5c0-3.7-3-6.8-6.8-6.8v13.5C-94.4,456.3-91.4,453.2-91.4,449.5z"/>
												<g>
													<g>
														<path class="st2" d="M10.1,513.4l-55.4-32v-63.9l55.4-32l55.4,32v63.9L10.1,513.4z M-42.8,480l52.9,30.5L63,480V419
															l-52.9-30.5L-42.8,419V480z"/>
													</g>
													<g>
														<rect x="8.9" y="387" class="st2" width="2.5" height="125"/>
													</g>
													<g>
														
															<rect x="-52.4" y="448.3" transform="matrix(0.866 -0.5 0.5 0.866 -223.3947 65.2826)" class="st2" width="125" height="2.5"/>
													</g>
													<g>
														
															<rect x="8.9" y="387" transform="matrix(0.5 -0.866 0.866 0.5 -384.2179 233.5155)" class="st2" width="2.5" height="125"/>
													</g>
												</g>
												<circle class="st2" cx="10.1" cy="449.5" r="6.8"/>
												<g>
													<g>
														<path class="st2" d="M118.4,513.4l-55.4-32v-63.9l55.4-32l55.4,32v63.9L118.4,513.4z M65.5,480l52.9,30.5l52.9-30.5
															V419l-52.9-30.5L65.5,419V480z"/>
													</g>
													<g>
														<rect x="117.1" y="387" class="st2" width="2.5" height="125"/>
													</g>
													<g>
														
															<rect x="55.9" y="448.3" transform="matrix(0.866 -0.5 0.5 0.866 -208.9055 119.423)" class="st2" width="125" height="2.5"/>
													</g>
													<g>
														
															<rect x="117.1" y="387" transform="matrix(0.5 -0.866 0.866 0.5 -330.0916 327.2652)" class="st2" width="2.5" height="125"/>
													</g>
												</g>
												<circle class="st2" cx="118.4" cy="449.5" r="6.8"/>
												<g>
													<g>
														<path class="st2" d="M226.6,513.4l-55.4-32v-63.9l55.4-32l55.4,32v63.9L226.6,513.4z M173.7,480l52.9,30.5l52.9-30.5
															V419l-52.9-30.5L173.7,419V480z"/>
													</g>
													<g>
														<rect x="225.4" y="387" class="st2" width="2.5" height="125"/>
													</g>
													<g>
														
															<rect x="164.1" y="448.3" transform="matrix(0.866 -0.5 0.5 0.866 -194.3903 173.5386)" class="st2" width="125" height="2.5"/>
													</g>
													<g>
														
															<rect x="225.4" y="387" transform="matrix(0.5 -0.866 0.866 0.5 -275.9652 421.0145)" class="st2" width="2.5" height="125"/>
													</g>
												</g>
												<circle class="st2" cx="226.6" cy="449.5" r="6.8"/>
												<g>
													<g>
														<path class="st2" d="M334.9,513.4l-55.4-32v-63.9l55.4-32l55.4,32v63.9L334.9,513.4z M282,480l52.9,30.5l52.9-30.5
															V419l-52.9-30.5L282,419V480z"/>
													</g>
													<g>
														<rect x="333.6" y="387" class="st2" width="2.5" height="125"/>
													</g>
													<g>
														
															<rect x="272.4" y="448.3" transform="matrix(0.866 -0.5 0.5 0.866 -179.8945 227.6839)" class="st2" width="125" height="2.5"/>
													</g>
													<g>
														
															<rect x="333.6" y="387" transform="matrix(0.5 -0.866 0.866 0.5 -221.8387 514.7648)" class="st2" width="2.5" height="125"/>
													</g>
												</g>
												<circle class="st2" cx="334.9" cy="449.5" r="6.8"/>
												<g>
													<g>
														<polygon class="st2" points="390.2,480 390.2,419 443.1,388.4 443.1,385.6 387.8,417.5 387.8,481.5 443.1,513.4 
															443.1,510.6 														"/>
													</g>
													<g>
														<rect x="441.9" y="387" class="st2" width="1.2" height="125"/>
													</g>
													<g>
														<polygon class="st2" points="389.6,481.8 443.1,450.9 443.1,448.1 388.4,479.7 														"/>
													</g>
													<g>
														<polygon class="st2" points="389.6,417.2 388.4,419.3 443.1,450.9 443.1,448.1 														"/>
													</g>
												</g>
												<path class="st2" d="M443.1,442.7c-3.7,0-6.8,3-6.8,6.8c0,3.7,3,6.8,6.8,6.8c0,0,0,0,0,0L443.1,442.7
													C443.1,442.7,443.1,442.7,443.1,442.7z"/>
												<g>
													<g>
														<polygon class="st2" points="-42.8,542.5 -98.1,510.6 -98.1,513.4 -45.2,544 -45.2,605 -98.1,635.6 -98.1,638.4 
															-42.8,606.5 														"/>
													</g>
													<g>
														<rect x="-98.1" y="512" class="st2" width="1.2" height="125"/>
													</g>
													<g>
														<polygon class="st2" points="-44.6,542.2 -98.1,573.1 -98.1,575.9 -43.4,544.3 														"/>
													</g>
													<g>
														<polygon class="st2" points="-43.4,604.7 -98.1,573.1 -98.1,575.9 -44.6,606.8 														"/>
													</g>
												</g>
												<path class="st2" d="M-91.4,574.5c0-3.7-3-6.8-6.8-6.8v13.5C-94.4,581.3-91.4,578.2-91.4,574.5z"/>
												<g>
													<g>
														<path class="st2" d="M10.1,638.4l-55.4-32v-63.9l55.4-32l55.4,32v63.9L10.1,638.4z M-42.8,605l52.9,30.5L63,605V544
															l-52.9-30.5L-42.8,544V605z"/>
													</g>
													<g>
														<rect x="8.9" y="512" class="st2" width="2.5" height="125"/>
													</g>
													<g>
														
															<rect x="-52.4" y="573.3" transform="matrix(0.866 -0.5 0.5 0.866 -285.8948 82.0295)" class="st2" width="125" height="2.5"/>
													</g>
													<g>
														
															<rect x="8.9" y="512" transform="matrix(0.5 -0.866 0.866 0.5 -492.471 296.0155)" class="st2" width="2.5" height="125"/>
													</g>
												</g>
												<path class="st2" d="M16.9,574.5c0,3.7-3,6.8-6.8,6.8s-6.8-3-6.8-6.8c0-3.7,3-6.8,6.8-6.8S16.9,570.8,16.9,574.5z"/>
												<g>
													<g>
														<path class="st2" d="M118.4,638.4l-55.4-32v-63.9l55.4-32l55.4,32v63.9L118.4,638.4z M65.5,605l52.9,30.5l52.9-30.5
															V544l-52.9-30.5L65.5,544V605z"/>
													</g>
													<g>
														<rect x="117.1" y="512" class="st2" width="2.5" height="125"/>
													</g>
													<g>
														
															<rect x="55.9" y="573.3" transform="matrix(0.866 -0.5 0.5 0.866 -271.4102 136.1726)" class="st2" width="125" height="2.5"/>
													</g>
													<g>
														
															<rect x="117.1" y="512" transform="matrix(0.5 -0.866 0.866 0.5 -438.3447 389.7653)" class="st2" width="2.5" height="125"/>
													</g>
												</g>
												<path class="st2" d="M125.1,574.5c0,3.7-3,6.8-6.8,6.8c-3.7,0-6.8-3-6.8-6.8c0-3.7,3-6.8,6.8-6.8
													C122.1,567.7,125.1,570.8,125.1,574.5z"/>
												<g>
													<g>
														<path class="st2" d="M226.6,638.4l-55.4-32v-63.9l55.4-32l55.4,32v63.9L226.6,638.4z M173.7,605l52.9,30.5l52.9-30.5
															V544l-52.9-30.5L173.7,544V605z"/>
													</g>
													<g>
														<rect x="225.4" y="512" class="st2" width="2.5" height="125"/>
													</g>
													<g>
														
															<rect x="164.1" y="573.3" transform="matrix(0.866 -0.5 0.5 0.866 -256.8913 190.286)" class="st2" width="125" height="2.5"/>
													</g>
													<g>
														
															<rect x="225.4" y="512" transform="matrix(0.5 -0.866 0.866 0.5 -384.2183 483.5145)" class="st2" width="2.5" height="125"/>
													</g>
												</g>
												<path class="st2" d="M233.4,574.5c0,3.7-3,6.8-6.8,6.8s-6.8-3-6.8-6.8c0-3.7,3-6.8,6.8-6.8S233.4,570.8,233.4,574.5z"/>
												<g>
													<g>
														<path class="st2" d="M334.9,638.4l-55.4-32v-63.9l55.4-32l55.4,32v63.9L334.9,638.4z M282,605l52.9,30.5l52.9-30.5
															V544l-52.9-30.5L282,544V605z"/>
													</g>
													<g>
														<rect x="333.6" y="512" class="st2" width="2.5" height="125"/>
													</g>
													<g>
														
															<rect x="272.4" y="573.3" transform="matrix(0.866 -0.5 0.5 0.866 -242.3992 244.4335)" class="st2" width="125" height="2.5"/>
													</g>
													<g>
														
															<rect x="333.6" y="512" transform="matrix(0.5 -0.866 0.866 0.5 -330.0919 577.2649)" class="st2" width="2.5" height="125"/>
													</g>
												</g>
												<path class="st2" d="M341.6,574.5c0,3.7-3,6.8-6.8,6.8c-3.7,0-6.8-3-6.8-6.8c0-3.7,3-6.8,6.8-6.8
													C338.6,567.7,341.6,570.8,341.6,574.5z"/>
												<g>
													<g>
														<polygon class="st2" points="390.2,605 390.2,544 443.1,513.4 443.1,510.6 387.8,542.5 387.8,606.5 443.1,638.4 
															443.1,635.6 														"/>
													</g>
													<g>
														<rect x="441.9" y="512" class="st2" width="1.2" height="125"/>
													</g>
													<g>
														<polygon class="st2" points="389.6,606.8 443.1,575.9 443.1,573.1 388.4,604.7 														"/>
													</g>
													<g>
														<polygon class="st2" points="389.6,542.2 388.4,544.3 443.1,575.9 443.1,573.1 														"/>
													</g>
												</g>
												<path class="st2" d="M443.1,567.7c-3.7,0-6.8,3-6.8,6.8c0,3.7,3,6.8,6.8,6.8c0,0,0,0,0,0L443.1,567.7
													C443.1,567.7,443.1,567.7,443.1,567.7z"/>
												<g>
													<g>
														<polygon class="st2" points="-98.1,635.6 -98.1,638.4 -45.2,669 -45.2,699.5 -42.8,699.5 -42.8,667.5 														
															"/>
													</g>
													<g>
														<rect x="-98.1" y="637" class="st2" width="1.2" height="62.5"/>
													</g>
													<g>
														<polygon class="st2" points="-44.6,667.2 -98.1,698.1 -98.1,699.5 -95.7,699.5 -43.4,669.3 														"/>
													</g>
													<g>
														<polygon class="st2" points="-98.1,699.5 -95.7,699.5 -98.1,698.1 														"/>
													</g>
												</g>
												<path class="st2" d="M-98.1,692.7v6.8h6.8C-91.4,695.8-94.4,692.7-98.1,692.7z"/>
												<g>
													<g>
														<polygon class="st2" points="10.1,635.6 -45.2,667.5 -45.2,699.5 -42.8,699.5 -42.8,669 10.1,638.4 63,669 63,699.5 
															65.5,699.5 65.5,667.5 														"/>
													</g>
													<g>
														<rect x="8.9" y="637" class="st2" width="2.5" height="62.5"/>
													</g>
													<g>
														<polygon class="st2" points="63.6,667.2 7.7,699.5 12.6,699.5 64.9,669.3 														"/>
													</g>
													<g>
														<polygon class="st2" points="-44.6,669.3 7.7,699.5 12.6,699.5 -43.4,667.2 														"/>
													</g>
												</g>
												<path class="st2" d="M10.1,692.7c-3.7,0-6.8,3-6.8,6.8h13.5C16.9,695.8,13.9,692.7,10.1,692.7z"/>
												<g>
													<g>
														<polygon class="st2" points="118.4,635.6 63,667.5 63,699.5 65.5,699.5 65.5,669 118.4,638.4 171.3,669 171.3,699.5 
															173.7,699.5 173.7,667.5 														"/>
													</g>
													<g>
														<rect x="117.1" y="637" class="st2" width="2.5" height="62.5"/>
													</g>
													<g>
														<polygon class="st2" points="171.9,667.2 115.9,699.5 120.8,699.5 173.1,669.3 														"/>
													</g>
													<g>
														<polygon class="st2" points="63.6,669.3 115.9,699.5 120.8,699.5 64.9,667.2 														"/>
													</g>
												</g>
												<path class="st2" d="M118.4,692.7c-3.7,0-6.8,3-6.8,6.8h13.5C125.1,695.8,122.1,692.7,118.4,692.7z"/>
												<g>
													<g>
														<polygon class="st2" points="226.6,635.6 171.3,667.5 171.3,699.5 173.7,699.5 173.7,669 226.6,638.4 279.5,669 
															279.5,699.5 282,699.5 282,667.5 														"/>
													</g>
													<g>
														<rect x="225.4" y="637" class="st2" width="2.5" height="62.5"/>
													</g>
													<g>
														<polygon class="st2" points="280.1,667.2 224.2,699.5 229.1,699.5 281.4,669.3 														"/>
													</g>
													<g>
														<polygon class="st2" points="171.9,669.3 224.2,699.5 229.1,699.5 173.1,667.2 														"/>
													</g>
												</g>
												<path class="st2" d="M226.6,692.7c-3.7,0-6.8,3-6.8,6.8h13.5C233.4,695.8,230.4,692.7,226.6,692.7z"/>
												<g>
													<g>
														<polygon class="st2" points="334.9,635.6 279.5,667.5 279.5,699.5 282,699.5 282,669 334.9,638.4 387.8,669 
															387.8,699.5 390.2,699.5 390.2,667.5 														"/>
													</g>
													<g>
														<rect x="333.6" y="637" class="st2" width="2.5" height="62.5"/>
													</g>
													<g>
														<polygon class="st2" points="388.4,667.2 332.4,699.5 337.3,699.5 389.6,669.3 														"/>
													</g>
													<g>
														<polygon class="st2" points="280.1,669.3 332.4,699.5 337.3,699.5 281.4,667.2 														"/>
													</g>
												</g>
												<path class="st2" d="M334.9,692.7c-3.7,0-6.8,3-6.8,6.8h13.5C341.6,695.8,338.6,692.7,334.9,692.7z"/>
												<g>
													<g>
														<polygon class="st2" points="390.2,669 443.1,638.4 443.1,635.6 387.8,667.5 387.8,699.5 390.2,699.5 														
															"/>
													</g>
													<g>
														<rect x="441.9" y="637" class="st2" width="1.2" height="62.5"/>
													</g>
													<g>
														<polygon class="st2" points="443.1,698.1 440.7,699.5 443.1,699.5 														"/>
													</g>
													<g>
														<polygon class="st2" points="443.1,698.1 389.6,667.2 388.4,669.3 440.7,699.5 443.1,699.5 														"/>
													</g>
												</g>
												<path class="st2" d="M443.1,692.7C443.1,692.7,443.1,692.7,443.1,692.7c-3.7,0-6.8,3-6.8,6.8h6.8V692.7z"/>
											</g>
										</g>
									</g>
								</g>
							</g>
						</g>
					</g>
				</g>
			</g>
		</g>
		
			<linearGradient id="SVGID_3_" gradientUnits="userSpaceOnUse" x1="173" y1="-608" x2="173" y2="-1008" gradientTransform="matrix(1 0 0 1 0 1008)">
			<stop  offset="0" style="stop-color:#DED09E"/>
			<stop  offset="0.2" style="stop-color:#D8CB9A"/>
			<stop  offset="0.5" style="stop-color:#CFC393"/>
			<stop  offset="0.7" style="stop-color:#877D52"/>
		</linearGradient>
		<path class="st3" d="M173,33.5l144.2,83.2v166.6L173,366.5L28.8,283.3V116.7L173,33.5 M173,0L-0.2,100v200L173,400l173.2-100V100
			L173,0z"/>
		<path class="st4" d="M173,28.9l148.2,85.5v171.2L173,371L24.8,285.6V114.4L173,29 M173,0L-0.2,100v200L173,400l173.2-100V100
			L173,0z"/>
		<path class="st5" d="M173,15l160.2,92.5v185L173,385L12.8,292.5v-185L173,15 M173,0L-0.2,100v200L173,400l173.2-100V100L173,0z"/>
		<path class="st4" d="M173,12.7l162.2,93.6v187.3L173,387.3L10.8,293.6V106.4L173,12.7 M173,0L-0.2,100v200L173,400l173.2-100V100
			L173,0z"/>
		<g class="st6">
			<path class="st7" d="M63.6,141.7c-4,0-8.1,2.6-8.1,5.2s3.6,6.5,7.3,4.7c6.3-3,7.2-3.3,7.2-5.9S67.7,141.7,63.6,141.7z
				 M75.4,130.2c-5.4,0-10.1,3.4-10.1,6.6c0,3.2,4.6,7.3,9.8,5.8c4.3-1.2,6.1-3,9.8-5.8C87.4,134.8,80.9,130.2,75.4,130.2z
				 M91.8,136.1c-2.2,0-4.7,0.2-5,2.2c-0.2,2.6,2,1.8,5,1.8s6,1.3,6-0.5S94.2,136.2,91.8,136.1z M260.4,148.8
				c-5.2-0.4-10.6,2.7-11,6.3c-0.3,3.6,3.9,9.4,8.8,7.4c8.3-3.4,9.5-3.7,9.8-7.4C268.3,151.5,265.5,149.3,260.4,148.8L260.4,148.8z"
				/>
			<path class="st7" d="M276.7,134.3c-6.9-0.6-13.2,3.5-13.6,8s5,10.6,11.7,9.1c5.6-1.2,8.1-3.4,13.1-7
				C291.3,142,283.5,134.9,276.7,134.3z M296.7,144.3c-2.8-0.3-6-0.3-6.5,2.4c-0.7,3.6,2.2,2.7,6,3c3.8,0.4,7.4,2.6,7.7,0
				C304.1,147.1,299.7,144.7,296.7,144.3z"/>
			<path class="st7" d="M202.3,199c-5.1-0.5-10.5,2.7-10.8,6.3s3.9,9.3,8.7,7.3c8.3-3.4,9.5-3.8,9.8-7.4S207.5,199.4,202.3,199
				L202.3,199z M218.6,184.3c-6.9-0.6-13.2,3.6-13.6,8c-0.3,4.5,5,10.7,11.8,9.1c5.6-1.2,8-3.4,13-7
				C233.3,191.9,225.4,184.8,218.6,184.3z M238.7,194.2c-2.9-0.3-6-0.3-6.5,2.4c-0.7,3.6,2.2,2.8,6,3c3.8,0.4,7.4,2.6,7.6,0
				S241.7,194.6,238.7,194.2z"/>
		</g>
		<g class="st6">
			<path class="st8" d="M170.4,152.1c-5.6,0-8.9-1.2-10.6-4c-1.6-2.5-1.6-5.8-1.5-10.1v-12.3h-9.8c-0.7,0-1.5-0.1-2.2-0.3
				c-3.9-1.3-4.4-5.4-4.4-9.2l0.1-9.3c0-2.3,1-5,5.8-5c4.2,0,6.1,2.2,6.1,6.8v2.4h4.4V66.4c0-4.1,5.7-9.4,12-9.4h4.2
				c6.7,0,12.1,5.4,12.1,12.1v20.1h4V83c0-6.3,3.2-9.7,9-9.7s9.1,3.4,9.1,9.7l-0.4,16.1c0,6.3-3.5,8.6-6.4,9.4h-0.2
				c-1,0.3-2,0.4-3.2,0.4h-11.9v32.6c0.1,3,0.2,5.9-2,8c-1.8,1.9-5,2.7-10,2.7L170.4,152.1L170.4,152.1z"/>
			<path class="st8" d="M0,0"/>
		</g>
		<g class="st6">
			<path class="st9" d="M199.8,103.4c-1.4,0-5.2,1-7.7-1V90.6h-7V69c0-6-5.2-9.9-8.3-10.2c-0.4,3.2,0,87.4,0,89
				c0,1.5-1.5,1.9-1.8,1.8c-7.4,0.5-9-0.3-13.5-3c-1-1.3-0.7-23.6-0.7-23.6c-0.9-0.2-3-0.3-4.4-0.3h-4l-7,0.2c0,1.4,4.4,1.3,6,1.3
				h8.3v13.2c0,8.5-0.3,13.3,10.7,13.3h4c11.8,0,10.7-4.8,10.7-10.7v-32.7h13.4c1,0,2,0,2.8-0.3h0.2c3.5-1,5.3-3.7,5.3-8l0.3-17.4
				c0-4.3-4.9-7.6-5.4-6c-1.8,5.7,1.4,27.7-1.9,27.9L199.8,103.4z"/>
		</g>
		<g class="st6">
			<path class="st10" d="M146.5,102.8h-1.2v18.4h14.2V120h-13V102.8z"/>
			<path class="st10" d="M150.2,116.4v-13.8H149v15h10.6v-1.2H150.2z M196.1,73.8h1.2v22.8h-1.2V73.8z M202.4,74.4h1.2v28.4h-1.2
				V74.4z"/>
			<path class="st10" d="M185,101.7h18.4v1.2H185V101.7z M185,95.4h11.7v1.2H185V95.4z"/>
			<g class="st11">
				<path class="st12" d="M171.9,56.9h1.5v95.8h-1.5V56.9z M164.1,56.9h1.5v95.8h-1.5V56.9z M179.1,56.9h1.5v95.8h-1.5V56.9z"/>
			</g>
		</g>
	</g>
</g>
</svg>
