<?xml version="1.0" encoding="utf-8"?>
<!-- Generator: Adobe Illustrator 24.1.1, SVG Export Plug-In . SVG Version: 6.00 Build 0)  -->
<svg version="1.1" id="Layer_1" xmlns="http://www.w3.org/2000/svg" xmlns:xlink="http://www.w3.org/1999/xlink" x="0px" y="0px"
	 viewBox="0 0 346 400" style="enable-background:new 0 0 346 400;" xml:space="preserve">
<style type="text/css">
	.st0{clip-path:url(#SVGID_2_);}
	.st1{fill:#030000;}
	.st2{fill:#119822;}
	.st3{fill:#00FFFF;}
	.st4{display:none;fill:url(#SVGID_3_);}
	.st5{fill:#151313;}
	.st6{display:none;fill:#877D52;}
	.st7{display:none;}
	.st8{display:inline;fill:#D1B886;}
	.st9{display:inline;fill:#B5B57C;}
	.st10{display:inline;fill:#918E5A;}
	.st11{display:inline;fill:#4D491A;}
	.st12{display:inline;}
	.st13{fill:#4D491A;}
</style>
<g id="Hexagons">
	<g id="Desert">
		<g>
			<g>
				<g>
					<g>
						<defs>
							<polygon id="SVGID_1_" points="-0.2,100 -0.2,300 173,400 346.2,300 346.2,100 173,0 							"/>
						</defs>
						<clipPath id="SVGID_2_">
							<use xlink:href="#SVGID_1_"  style="overflow:visible;"/>
						</clipPath>
						<g class="st0">
							<polygon class="st1" points="31.3,-471.5 37.2,-465.6 37.2,-442.3 56.5,-461.6 56.5,-554.9 31.3,-580.1 							"/>
							<polygon class="st1" points="-123.7,-288.2 -119.9,-292 -119.9,-415.9 -126.4,-422.4 -126.4,-408.9 -146.8,-388.5 
								-146.8,-372.2 -123.7,-349.2 							"/>
							<polygon class="st1" points="136.2,-604.8 120.9,-620.2 120.9,-541.5 136.5,-557 							"/>
							<polygon class="st1" points="142.1,-381 150.6,-389.5 150.6,-604 135.2,-619.3 134.7,-619.3 134.7,-619.8 120.9,-633.6 
								120.9,-627 141.1,-606.9 141.3,-555 120.9,-534.6 120.9,-435.3 142.1,-414.2 							"/>
							<polygon class="st1" points="74.8,-337.2 74.8,-316.6 83.5,-308 91.7,-316.2 86,-321.9 86,-348.4 							"/>
							<polygon class="st1" points="5.7,-194.9 5.7,-296.8 5.4,-297.1 5.7,-297.5 5.7,-377.3 -3,-386.1 -3,-266.1 -9.9,-259.3 
								-9.9,-225.8 -17.5,-218.2 							"/>
							<polygon class="st1" points="-52.9,-509.9 -70.5,-527.5 -77.9,-520.6 -77.9,-455.2 -52.9,-430.2 							"/>
							<polygon class="st1" points="116.1,-638.5 96.8,-657.8 96.8,-670.6 87.8,-679.5 87.8,-660.1 116.1,-631.8 							"/>
							<polygon class="st1" points="-9.9,-266.1 -7.9,-268.1 -7.9,-390.9 -15,-398.1 -15,-464.3 -7.9,-471.5 -7.9,-504.8 
								-7.9,-507.3 -9.4,-508.7 -9.4,-518.5 -23.7,-532.8 -23.7,-351 -9.9,-337.2 							"/>
							<polygon class="st1" points="-133.5,-186.4 -133.5,-183.4 -133.5,-128.5 -128.5,-133.4 -128.5,-183.4 -128.5,-186.4 
								-128.5,-276.5 -133.5,-271.6 							"/>
							<polygon class="st1" points="-126.2,-544.5 -126.4,-544.5 -126.4,-523.4 -119.4,-530.3 -118.5,-567.1 -118.5,-706.6 
								-130.7,-718.8 -130.7,-775.6 -139.4,-784.3 -139.4,-581.3 -126.2,-568.2 							"/>
							<polygon class="st1" points="168.9,-135.3 168.9,-183.4 168.9,-186.4 168.9,-212.7 187.5,-231.2 187.5,-266.9 166.1,-288.3 
								166.1,-417.4 157.9,-425.6 158.1,-543.3 158.1,-596.5 155.4,-599.2 155.4,-387.5 142.1,-374.2 142.1,-355.4 156.9,-340.7 
								156.9,-186.4 156.9,-183.4 156.9,-150.9 163.2,-144.5 163.2,-129.6 							"/>
							<polygon class="st1" points="139.6,-621.8 154.9,-606.5 155.4,-606.5 155.4,-606 162.9,-598.5 162.9,-544.8 162.9,-544.8 
								162.9,-543.3 162.9,-541.8 162.9,-541.8 162.7,-427.6 170.4,-419.9 170.9,-419.9 170.9,-419.4 178.8,-411.5 178.9,-535.6 
								178.9,-542.6 170.5,-551 170.5,-583.9 181,-594.4 181,-622.5 158.6,-644.9 158.4,-644.9 158.4,-645 150.9,-652.5 
								150.9,-795.4 127.7,-772.2 139.6,-760.3 							"/>
							<polygon class="st1" points="5.7,-410.9 32.4,-437.5 32.4,-463.6 26.5,-469.5 26.5,-584.9 26.5,-584.9 26.6,-594.3 
								39.4,-607.1 39.4,-644.2 28.3,-655.4 28.3,-665.7 21.6,-672.4 21.6,-747.4 3.4,-728.5 -2.8,-722.4 -2.8,-644.4 -2.5,-626.1 
								-4.7,-623.9 -4.7,-603.2 4.1,-594.4 4.1,-476.6 -3,-469.5 -3,-392.9 5.7,-384.2 							"/>
							<polygon class="st1" points="61.5,-795.8 61.3,-795.8 61.3,-795.7 							"/>
							<polygon class="st1" points="87.8,-686.4 101.7,-672.6 101.7,-659.8 116.1,-645.3 116.1,-767.4 120.9,-772.2 103,-790.1 
								103,-795.8 83.9,-795.8 87.8,-791.9 							"/>
							<polygon class="st1" points="77.5,-774.8 77.5,-696.7 83,-691.2 83,-789.9 77.1,-795.8 68.5,-795.8 68.5,-783.8 							"/>
							<polygon class="st1" points="124.3,-775.6 144.6,-795.8 107.9,-795.8 107.9,-792.1 							"/>
							<polygon class="st1" points="27,-760.1 27,-795.8 26.4,-795.8 26.4,-759.5 							"/>
							<polygon class="st1" points="56.5,-790.8 56.5,-790.8 56.5,-795.8 31.8,-795.8 31.8,-765.1 							"/>
							<polygon class="st1" points="62,-329.4 69.9,-321.5 69.9,-339.2 81.7,-351 81.7,-396.1 74.9,-403 74.9,-536.5 61.3,-550.1 
								61.3,-459.6 60.6,-458.9 37.2,-435.5 37.2,-400.1 62,-375.3 							"/>
							<polygon class="st1" points="158.4,-651.9 158.4,-795.8 155.8,-795.8 155.8,-654.5 							"/>
							<polygon class="st1" points="220.8,-772.7 220.8,-795.8 201.4,-795.8 201.4,-792.1 							"/>
							<polygon class="st1" points="235.9,-732.9 235.9,-732.9 249.9,-746.9 249.9,-778.1 245.1,-783 245.1,-795.8 237.4,-795.8 
								225.7,-795.8 225.7,-722.6 							"/>
							<polygon class="st1" points="185.8,-624.5 185.8,-592.4 175.4,-581.9 175.4,-553 183.8,-544.6 183.8,-537 183.8,-537 
								183.8,-535.6 183.8,-534 183.8,-534 183.6,-406.7 184.8,-405.5 183.6,-404.4 183.5,-323.1 196.3,-310.3 196.3,-374.1 
								216.1,-393.8 216.2,-417.8 196.6,-437.4 196.6,-438.4 196.5,-518.4 191.4,-523.5 191.4,-623.7 178.6,-636.5 178.6,-675.4 
								186.2,-683 186.2,-746 175.2,-757 175.2,-786.4 184.6,-795.8 163.2,-795.8 163.2,-647.1 							"/>
							<polygon class="st1" points="-128.5,-347.2 -146.8,-365.4 -146.8,-300 -139.4,-292.6 -139.4,-186.4 -139.4,-183.4 
								-139.4,-122.6 -138.3,-123.6 -138.3,-183.4 -138.3,-186.4 -138.3,-273.6 -128.5,-283.4 							"/>
							<polygon class="st1" points="180,-759 191.1,-748 191.1,-681 183.5,-673.4 183.5,-638.5 196.3,-625.7 196.3,-525.5 
								201.3,-520.4 201.4,-439.4 216.2,-424.6 216.8,-538.6 216.8,-552.4 203.2,-566 203.2,-645.5 193.3,-655.4 193.3,-718.1 
								217.5,-742.3 217.5,-769.2 196.6,-790.1 196.6,-795.8 191.5,-795.8 180,-784.4 							"/>
							<polygon class="st1" points="-125.9,-777.6 -125.9,-720.8 -113.6,-708.6 -113.6,-568.4 -113.6,-568.4 -113.6,-567 
								-113.6,-565.5 -113.7,-565.5 -114.7,-528.3 -126.4,-516.6 -126.4,-429.2 -115.1,-417.9 -115.1,-290 -123.7,-281.4 
								-123.7,-186.4 -123.7,-183.4 -123.7,-131.4 -133.5,-121.6 -133.5,-112 -93.1,-71.7 -93.1,92.5 -96.4,95.7 -97.1,124 
								-97.1,226.1 -78.2,245.1 -78.2,271.9 -99.4,293.1 -99.4,352.2 -83,368.5 -83,426.3 -77.8,421.1 -77.8,356.1 -92.2,341.8 
								-92.2,307.4 -52.9,268.1 -52.9,261.5 -82.7,231.7 -82.7,162.2 -73.9,154 -77.3,150.6 -77.3,70.6 -77.6,55.4 -79.7,53.2 
								-79.7,26.3 -80,26 -79.7,25.6 -79.7,-94.5 -118.4,-133.3 -118.4,-183.4 -118.4,-186.4 -118.4,-223.2 -117.7,-223.9 
								-87.9,-253.7 -87.9,-314.3 -104.2,-330.6 -104.2,-393.7 -83,-414.9 -83,-437.8 -101.9,-456.7 -101.9,-561 -101.2,-591.2 
								-98,-594.4 -98,-754.5 -138.3,-794.9 -138.3,-795.8 -139.4,-795.8 -139.4,-791.1 							"/>
							<polygon class="st1" points="-145,-586.9 -144.2,-586.2 -144.2,-789.1 -147.5,-792.4 -147.5,-792.4 -147.5,-615.3 
								-145,-612.7 							"/>
							<polygon class="st1" points="-131.2,-547.5 -131.1,-547.5 -131.1,-566.2 -143.7,-578.8 -144.2,-578.8 -144.2,-579.3 
								-147.5,-582.7 -147.5,-502.2 -131.2,-518.6 							"/>
							<polygon class="st1" points="-131.2,-427.2 -147.5,-443.5 -147.5,-394.5 -131.2,-410.9 							"/>
							<polygon class="st1" points="-131.2,-511.7 -147.5,-495.4 -147.5,-450.4 -131.2,-434.1 							"/>
							<polygon class="st1" points="-26.2,-647.9 -26.2,-542.2 -24.1,-540.1 -23.7,-540.1 -23.7,-539.7 -4.5,-520.5 -4.5,-510.8 
								-3.1,-509.4 -3.1,-506.3 -3,-506.3 -3,-504.9 -3,-503.4 -3,-503.4 -3,-476.3 -0.8,-478.6 -0.8,-592.4 -9.6,-601.2 
								-9.6,-625.9 -7.4,-628 -7.6,-642.9 -7.6,-642.9 -7.6,-644.4 -7.6,-645.9 -7.6,-645.9 -7.6,-781.5 5.7,-794.9 5.7,-795.8 
								-19.2,-795.8 -19.2,-654.9 							"/>
							<polygon class="st1" points="-2.8,-779.5 -2.8,-729.2 0,-731.9 21.6,-754.4 21.6,-795.8 10.6,-795.8 10.6,-792.9 							"/>
							<polygon class="st1" points="-93.1,-592.4 -96.4,-589.1 -97.1,-560.9 -97.1,-458.7 -78.2,-439.8 -78.2,-412.9 -99.4,-391.7 
								-99.4,-332.6 -83,-316.3 -83,-258.6 -77.8,-263.8 -77.8,-328.8 -92.2,-343.1 -92.2,-377.5 -52.9,-416.7 -52.9,-423.4 
								-82.7,-453.2 -82.7,-522.7 -73.9,-530.9 -77.3,-534.2 -77.3,-614.3 -77.6,-629.5 -79.7,-631.6 -79.7,-658.5 -80,-658.9 
								-79.7,-659.2 -79.7,-779.4 -96.1,-795.8 -132.4,-795.8 -93.1,-756.5 							"/>
							<polygon class="st1" points="-54.7,-750.6 -54.7,-542.3 -67,-530.8 -48.1,-511.9 -48.1,-425.4 -42.4,-419.7 -42.4,-223.9 
								-55.6,-210.8 -55.6,-188.8 -51.7,-184.9 -51.7,-184.9 -44.7,-177.9 -44.7,-183.4 -44.7,-186.4 -44.7,-197.8 -23.2,-219.4 
								-23.2,-252.8 -14.7,-261.3 -14.7,-335.2 -28.5,-349 -28.5,-537.7 -31,-540.2 -31,-649.9 -24,-656.9 -24,-795.8 -39.9,-795.8 
								-39.9,-765.4 							"/>
							<polygon class="st1" points="-74.9,-664.1 -67.5,-671.4 -67.5,-795.8 -89.3,-795.8 -74.9,-781.4 							"/>
							<polygon class="st1" points="-74.9,-657.2 -74.9,-633.6 -72.8,-631.5 -72.5,-615.8 -72.4,-615.8 -72.4,-614.3 -72.4,-612.8 
								-72.4,-612.8 -72.4,-536.2 -70.4,-534.2 -59.5,-544.4 -59.5,-752.6 -44.7,-767.4 -44.7,-795.8 -62.7,-795.8 -62.7,-669.4 
															"/>
							<polygon class="st1" points="228.7,-406.4 236.6,-414.4 236.6,-437.6 235.9,-438.3 222.8,-451.4 222.8,-520.5 237.4,-535.7 
								237.4,-535.7 241.2,-539.6 241.2,-545.6 235.9,-550.9 235.9,-550.9 221.6,-565.2 221.6,-554.4 222.2,-553.8 221.6,-553.3 
								221.6,-540.1 221.6,-540.1 221.6,-538.6 221.6,-537.1 221.6,-537.1 221,-419.8 228.7,-412.2 							"/>
							<polygon class="st1" points="26.5,-356.6 10.6,-372.5 10.6,-298.8 26.5,-282.9 							"/>
							<polygon class="st1" points="-14.7,-254.4 -18.3,-250.8 -18.3,-224.2 -14.7,-227.8 							"/>
							<polygon class="st1" points="26.5,-727 27,-727 27,-753.1 26.4,-752.5 26.4,-674.4 26.5,-674.3 							"/>
							<polygon class="st1" points="63.7,-113.2 63.7,-141.7 73.8,-151.8 73.8,-183.4 73.8,-186.4 73.8,-219.5 57.2,-236.1 
								57.2,-261.7 69.9,-274.5 69.9,-314.6 57.2,-327.4 57.2,-373.3 32.4,-398.1 32.4,-430.6 10.6,-408.9 10.6,-379.3 31.3,-358.6 
								31.3,-278.1 55.5,-253.8 55.5,-186.4 55.5,-183.4 55.5,-144 61.3,-138.2 61.3,-110.8 							"/>
							<polygon class="st1" points="216.8,-631.9 208,-640.7 208,-568 216.8,-559.2 							"/>
							<polygon class="st1" points="61.3,-556.9 79.7,-538.5 79.7,-405 86,-398.7 86,-424 93.2,-431.2 93.2,-513.7 98.6,-519.2 
								98.6,-569.4 83.1,-584.9 83.6,-635 83.6,-640.7 56.5,-667.8 56.5,-783.8 31.8,-758.1 31.8,-724 31.3,-724 31.3,-675.4 
								61.3,-645.4 							"/>
							<polygon class="st1" points="31.4,-592.2 31.3,-586.9 56.5,-561.8 56.5,-643.4 33.1,-666.8 33.1,-657.4 44.3,-646.2 
								44.3,-605.1 							"/>
							<polygon class="st1" points="-7.9,-397.8 -7.9,-464.6 -10.1,-462.3 -10.1,-400.1 							"/>
							<polygon class="st1" points="116.1,-529.8 103.5,-517.2 103.5,-452.8 116.1,-440.2 							"/>
							<polygon class="st1" points="134.7,-758.3 124.3,-768.8 120.9,-765.4 120.9,-640.5 134.7,-626.7 							"/>
							<polygon class="st1" points="246.1,-547.6 246.1,-537.6 235.9,-527.1 235.9,-527.1 227.7,-518.6 227.7,-453.4 235.9,-445.1 
								235.9,-445.1 241.5,-439.6 241.5,-414.4 255.7,-400.2 255.7,-355.4 264.6,-346.5 264.6,-246.4 267.8,-243.1 267.8,-391.8 
								261.8,-397.8 261.8,-430.8 272.7,-441.8 272.7,-454.4 253.5,-473.6 253.5,-489.6 253.1,-490 253.5,-490.3 253.5,-641.5 
								253.1,-641.8 253.5,-642.1 253.5,-642.7 254,-642.7 261.2,-649.9 261.2,-700.9 249.9,-712.2 249.9,-740.1 237.4,-727.6 
								237.4,-727.6 225.7,-715.8 225.7,-568 235.9,-557.7 							"/>
							<polygon class="st1" points="215.4,-712.3 220.8,-717.8 220.8,-738.8 198.1,-716.1 198.1,-657.4 203.2,-652.3 203.2,-667 
								215.4,-679.2 							"/>
							<polygon class="st1" points="88.5,-636.5 88.5,-636.5 88.5,-635 88.5,-633.5 88.5,-633.5 88,-586.9 103.5,-571.4 103.5,-524 
								116.1,-536.6 116.1,-539 116.1,-625 83,-658.1 83,-684.4 72.7,-694.7 72.7,-772.8 63.7,-781.8 63.7,-791.2 61.3,-788.8 
								61.3,-669.9 88.5,-642.7 							"/>
							<polygon class="st1" points="222.5,-206.3 222.5,-229.7 208.2,-243.9 208.2,-291.5 201.2,-298.6 201.2,-212.4 214.9,-198.7 
															"/>
							<polygon class="st1" points="235.9,-238.7 240.2,-234.5 240.2,-245.4 235.9,-249.7 223.8,-261.8 223.8,-394.7 220.9,-391.8 
								220.2,-254.4 							"/>
							<polygon class="st1" points="104,-329 104.5,-329 116.1,-340.6 116.1,-355.9 98.6,-373.3 98.6,-450.8 98.2,-451.2 
								98.6,-451.7 98.6,-512.4 98,-511.7 98,-429.2 90.8,-421.9 90.8,-323.9 95.1,-319.6 104,-328.5 							"/>
							<polygon class="st1" points="213.1,-245.9 227.3,-231.7 227.3,-204.3 218.3,-195.2 228.7,-184.9 228.7,-184.9 229.9,-183.6 
								229.9,-149.5 229.2,-148.8 201.4,-121 201.4,-107.2 220.8,-87.8 220.8,-116 235.9,-131.1 238.9,-134.1 245.1,-140.3 
								245.1,-183.4 245.1,-186.4 245.1,-187.6 251,-193.5 240.2,-204.3 240.2,-227.6 238.9,-228.9 235.9,-231.9 215.4,-252.4 
								215.4,-253.1 216,-387 201.2,-372.1 201.2,-305.4 213.1,-293.5 							"/>
							<polygon class="st1" points="223.8,-410.2 221,-413 220.9,-398.7 223.8,-401.6 							"/>
							<polygon class="st1" points="81,-183.4 81,-186.4 81,-303.5 74.8,-309.8 74.8,-272.4 62,-259.7 62,-238.1 78.7,-221.5 
								78.7,-186.4 78.7,-183.4 78.7,-149.8 68.5,-139.7 68.5,-118 73.2,-122.7 73.2,-139.2 81,-147.1 							"/>
							<polygon class="st1" points="220.2,-710.3 220.2,-677.2 208,-665 208,-647.5 220.8,-634.7 220.8,-710.9 							"/>
							<polygon class="st1" points="116.1,-433.3 103.5,-445.9 103.5,-375.3 116.1,-362.7 							"/>
							<polygon class="st1" points="95.1,-312.8 85.9,-303.5 85.9,-186.4 85.9,-183.4 85.9,-145.1 78,-137.2 78,-127.5 
								118.2,-167.7 118.2,-183.4 118.2,-186.4 118.2,-209 95.6,-231.6 95.6,-312.3 							"/>
							<polygon class="st1" points="10.6,386.1 26.5,402 26.5,328.3 10.6,312.4 							"/>
							<polygon class="st1" points="26.5,99.9 26.5,99.9 26.6,90.6 39.4,77.8 39.4,40.6 28.3,29.5 28.3,19.2 21.6,12.4 21.6,-62.6 
								3.4,-43.7 -2.8,-37.5 -2.8,40.4 -2.5,58.8 -4.7,61 -4.7,81.7 4.1,90.5 4.1,208.3 -3,215.4 -3,291.9 5.7,300.7 5.7,274 
								32.4,247.4 32.4,221.3 26.5,215.4 							"/>
							<polygon class="st1" points="-3,418.8 -9.9,425.6 -9.9,459 -17.5,466.7 5.7,489.9 5.7,388.1 5.4,387.7 5.7,387.4 5.7,307.5 
								-3,298.8 							"/>
							<polygon class="st1" points="209.4,498.5 207.9,500 221.8,500 220.3,498.5 214.9,493.1 							"/>
							<polygon class="st1" points="196.6,246.5 196.5,166.4 191.4,161.4 191.4,61.1 178.6,48.3 178.6,9.5 186.2,1.9 186.2,-61.1 
								175.2,-72.1 175.2,-101.6 196.6,-123 196.6,-180.4 201.1,-184.9 201.1,-184.9 202,-185.7 202.6,-186.4 202.6,-186.4 
								211.4,-195.2 196.3,-210.4 196.3,-303.4 178.6,-321.1 178.6,-322.1 178.8,-404.7 170.9,-412.5 170.9,-290.3 192.3,-268.9 
								192.3,-229.2 173.8,-210.7 173.8,-186.4 173.8,-183.4 173.8,-133.3 163.2,-122.8 163.2,37.8 185.8,60.4 185.8,92.5 
								175.4,102.9 175.4,131.8 183.8,140.2 183.8,147.9 183.8,147.9 183.8,149.3 183.8,150.9 183.8,150.9 183.6,278.2 184.8,279.3 
								183.6,280.5 183.5,361.8 196.3,374.6 196.3,310.8 216.1,291 216.2,267.1 196.6,247.5 							"/>
							<polygon class="st1" points="170.5,100.9 181,90.5 181,62.4 158.6,40 158.4,40 158.4,39.8 150.9,32.3 150.9,-110.5 
								127.7,-87.3 139.6,-75.5 139.6,63 154.9,78.4 155.4,78.4 155.4,78.9 162.9,86.3 162.9,140 162.9,140 162.9,141.5 162.9,143 
								162.9,143 162.7,257.3 170.4,265 170.9,265 170.9,265.5 178.8,273.3 178.9,149.3 178.9,142.2 170.5,133.8 							"/>
							<polygon class="st1" points="201.2,472.5 214.9,486.2 222.5,478.6 222.5,455.2 208.2,440.9 208.2,393.4 201.2,386.3 							
								"/>
							<polygon class="st1" points="69.9,345.7 81.7,333.9 81.7,288.7 74.9,281.9 74.9,148.3 61.3,134.8 61.3,225.3 37.2,249.4 
								37.2,284.8 62,309.6 62,355.5 69.9,363.4 							"/>
							<polygon class="st1" points="235.9,435.2 223.8,423.1 223.8,290.1 220.9,293 220.2,430.4 235.9,446.1 238.9,449.1 
								240.2,450.4 240.2,439.4 235.9,435.2 							"/>
							<polygon class="st1" points="166.1,267.5 157.9,259.3 158.1,141.5 158.1,88.4 155.4,85.7 155.4,297.4 142.1,310.7 
								142.1,329.4 156.9,344.2 156.9,498.5 156.9,500 168.9,500 168.9,498.5 168.9,472.2 187.5,453.6 187.5,418 166.1,396.6 
															"/>
							<polygon class="st1" points="95.6,372.6 95.1,372.1 85.9,381.3 85.9,498.5 85.9,500 118.2,500 118.2,498.5 118.2,475.9 
								95.6,453.2 							"/>
							<polygon class="st1" points="152,498.5 152,346.2 137.3,331.4 137.3,309.4 136.9,309 137.3,308.7 137.3,272.7 120.9,256.4 
								120.9,327 147.3,353.3 147.3,498.5 147.3,500 152,500 							"/>
							<polygon class="st1" points="81,498.5 81,381.3 74.8,375.1 74.8,412.4 62,425.1 62,446.7 78.7,463.3 78.7,498.5 78.7,500 
								81,500 							"/>
							<polygon class="st1" points="98.6,234.1 98.2,233.6 98.6,233.2 98.6,172.5 98,173.1 98,255.7 90.8,262.9 90.8,360.9 
								95.1,365.2 104,356.3 104,355.8 104.5,355.8 116.1,344.3 116.1,329 98.6,311.5 							"/>
							<polygon class="st1" points="203.2,39.4 193.3,29.5 193.3,-33.2 217.5,-57.4 217.5,-84.3 196.6,-105.2 196.6,-116.1 
								180,-99.5 180,-74.1 191.1,-63.1 191.1,3.9 183.5,11.5 183.5,46.3 196.3,59.1 196.3,159.4 201.3,164.4 201.4,245.5 
								216.2,260.3 216.8,146.3 216.8,132.5 203.2,118.9 							"/>
							<polygon class="st1" points="-139.4,103.5 -126.2,116.7 -126.2,140.3 -126.4,140.3 -126.4,161.5 -119.4,154.5 -118.5,117.8 
								-118.5,-21.7 -130.7,-34 -130.7,-90.7 -139.4,-99.4 							"/>
							<polygon class="st1" points="-146.8,384.9 -139.4,392.3 -139.4,498.5 -139.4,500 -138.3,500 -138.3,498.5 -138.3,411.3 
								-128.5,401.5 -128.5,337.7 -146.8,319.5 							"/>
							<polygon class="st1" points="-126.4,276 -146.8,296.4 -146.8,312.6 -123.7,335.7 -123.7,396.6 -119.9,392.9 -119.9,269 
								-126.4,262.5 							"/>
							<polygon class="st1" points="-133.5,498.5 -133.5,500 -128.5,500 -128.5,498.5 -128.5,408.3 -133.5,413.3 							"/>
							<polygon class="st1" points="96.8,14.3 87.8,5.3 87.8,24.8 116.1,53 116.1,46.4 96.8,27.1 							"/>
							<polygon class="st1" points="103,-136.3 133.2,-166.5 133.2,-183.4 133.2,-186.4 133.2,-220.2 104,-249.4 104,-321.7 
								98.5,-316.2 100.4,-314.3 100.4,-233.6 123,-211 123,-186.4 123,-183.4 123,-165.7 78,-120.7 78,-116.9 87.8,-107.1 
								87.8,-1.5 101.7,12.3 101.7,25.1 116.1,39.6 116.1,-82.5 120.9,-87.3 103,-105.2 							"/>
							<polygon class="st1" points="120.9,64.7 120.9,143.4 136.5,127.8 136.2,80 							"/>
							<polygon class="st1" points="208,116.9 216.8,125.6 216.8,53 208,44.2 							"/>
							<polygon class="st1" points="237.4,149.2 241.2,145.3 241.2,139.3 237.4,135.5 221.6,119.7 221.6,130.5 222.2,131 
								221.6,131.6 221.6,144.8 221.6,144.8 221.6,146.3 221.6,147.7 221.6,147.7 221,265.1 228.7,272.7 228.7,278.4 236.6,270.4 
								236.6,247.3 236.5,247.2 222.8,233.5 222.8,164.3 							"/>
							<polygon class="st1" points="83,0.5 72.7,-9.9 72.7,-87.9 63.7,-96.9 63.7,-106.3 61.3,-104 61.3,15 88.5,42.2 88.5,48.4 
								88.5,48.4 88.5,49.9 88.5,51.4 88.5,51.4 88,97.9 103.5,113.5 103.5,160.8 116.1,148.2 116.1,145.8 116.1,59.9 83,26.8 
															"/>
							<polygon class="st1" points="74.8,347.7 74.8,368.2 83.5,376.9 91.7,368.7 86,362.9 86,336.5 							"/>
							<polygon class="st1" points="103.5,309.5 116.1,322.1 116.1,251.5 103.5,238.9 							"/>
							<polygon class="st1" points="56.5,223.3 56.5,129.9 31.3,104.8 31.3,213.4 37.2,219.3 37.2,242.6 							"/>
							<polygon class="st1" points="-77.9,164.3 -77.9,229.7 -52.9,254.6 -52.9,175 -70.5,157.4 							"/>
							<polygon class="st1" points="-7.9,180.1 -7.9,177.6 -9.4,176.2 -9.4,166.3 -23.7,152 -23.7,333.9 -9.9,347.7 -9.9,418.8 
								-7.9,416.8 -7.9,293.9 -15,286.8 -15,220.5 -7.9,213.4 							"/>
							<polygon class="st1" points="-7.9,287.1 -7.9,220.2 -10.1,222.5 -10.1,284.8 							"/>
							<polygon class="st1" points="-14.7,430.4 -18.3,434.1 -18.3,460.6 -14.7,457 							"/>
							<polygon class="st1" points="150.9,-117.4 150.9,-124.7 142.4,-133.2 142.4,-183.4 142.4,-186.4 142.4,-329.5 120.9,-351 
								120.9,-338.6 108.9,-326.5 108.9,-251.4 138.1,-222.2 138.1,-186.4 138.1,-183.4 138.1,-164.5 107.9,-134.3 107.9,-107.2 
								124.3,-90.7 							"/>
							<polygon class="st1" points="83,-6.4 83,-105.1 73.2,-114.9 73.2,-115.8 68.5,-111.2 68.5,-99 77.5,-89.9 77.5,-11.9 							
								"/>
							<polygon class="st1" points="208,19.9 208,37.4 220.8,50.2 220.8,-26.1 220.2,-25.5 220.2,7.7 							"/>
							<polygon class="st1" points="155.8,30.3 158.4,33 158.4,-118 155.8,-115.3 							"/>
							<polygon class="st1" points="120.9,-80.5 120.9,44.4 134.7,58.2 134.7,-73.5 124.3,-83.9 							"/>
							<polygon class="st1" points="147.3,-186.4 147.3,-183.4 147.3,-135.2 155.8,-126.7 155.8,-122.2 158.4,-124.8 158.4,-142.5 
								152,-148.9 152,-183.4 152,-186.4 152,-338.7 137.3,-353.4 137.3,-375.5 136.9,-375.8 137.3,-376.2 137.3,-412.2 
								120.9,-428.5 120.9,-357.9 147.3,-331.5 							"/>
							<polygon class="st1" points="223.3,-183.4 220.3,-186.4 214.9,-191.8 208.6,-185.5 201.4,-178.4 201.4,-127.8 225.1,-151.5 
								225.1,-181.6 							"/>
							<polygon class="st1" points="-74.9,20.8 -67.5,13.5 -67.5,-157.7 -87.9,-178 -87.9,-183.4 -87.9,-186.4 -87.9,-246.9 
								-113.6,-221.2 -113.6,-186.4 -113.6,-183.4 -113.6,-135.3 -74.9,-96.5 							"/>
							<polygon class="st1" points="-72.5,69.1 -72.4,69.1 -72.4,70.6 -72.4,72 -72.4,72 -72.4,148.6 -70.4,150.7 -59.5,140.5 
								-59.5,-67.8 -44.7,-82.5 -44.7,-133.3 -44.7,-171.1 -58.5,-184.9 -58.5,-184.9 -60.4,-186.7 -60.4,-212.8 -47.3,-226 
								-47.3,-417.7 -48.1,-418.5 -48.1,-414.7 -87.3,-375.5 -87.3,-345.1 -73,-330.8 -73,-261.8 -73.7,-261.1 -83,-251.7 
								-83,-186.4 -83,-183.4 -83,-180 -62.7,-159.7 -62.7,15.5 -74.9,27.6 -74.9,51.2 -72.8,53.3 							"/>
							<polygon class="st1" points="-19.2,30 -26.2,37 -26.2,142.7 -24.1,144.7 -23.7,144.7 -23.7,145.2 -4.5,164.3 -4.5,174.1 
								-3.1,175.4 -3.1,178.5 -3,178.5 -3,180 -3,181.5 -3,181.5 -3,208.6 -0.8,206.3 -0.8,92.5 -9.6,83.7 -9.6,59 -7.4,56.8 
								-7.6,42 -7.6,42 -7.6,40.5 -7.6,39 -7.6,39 -7.6,-96.6 5.7,-110 5.7,-183.4 5.7,-186.4 5.7,-188.1 -20.9,-214.8 
								-39.9,-195.8 -39.9,-186.4 -39.9,-183.4 -39.9,-173.1 -39.9,-135.3 -19.2,-114.5 							"/>
							<polygon class="st1" points="83.6,44.2 56.5,17 56.5,-99 31.8,-73.3 31.8,-39.1 31.3,-39.1 31.3,9.5 61.3,39.5 61.3,127.9 
								79.7,146.3 79.7,279.9 86,286.1 86,260.9 93.2,253.7 93.2,171.1 98.6,165.7 98.6,115.5 83.1,99.9 83.6,49.9 							"/>
							<polygon class="st1" points="220.9,286.1 223.8,283.3 223.8,274.7 221,271.9 							"/>
							<polygon class="st1" points="26.4,10.4 26.5,10.5 26.5,-42.1 27,-42.1 27,-68.3 26.4,-67.6 							"/>
							<polygon class="st1" points="10.6,-108 -2.8,-94.6 -2.8,-44.3 0,-47.1 21.6,-69.6 21.6,-172.3 10.6,-183.2 							"/>
							<polygon class="st1" points="150.6,295.4 150.6,80.9 135.2,65.5 134.7,65.5 134.7,65 120.9,51.2 120.9,57.9 141.1,78 
								141.3,129.8 140.6,130.6 120.9,150.2 120.9,249.5 142.1,270.7 142.1,303.8 							"/>
							<polygon class="st1" points="-14.7,349.7 -28.5,335.9 -28.5,147.2 -31,144.7 -31,35 -24,28 -24,-112.5 -39.9,-128.4 
								-39.9,-80.5 -54.7,-65.8 -54.7,142.6 -67,154.1 -48.1,173 -48.1,259.5 -42.4,265.1 -42.4,460.9 -55.6,474.1 -55.6,496.1 
								-51.7,500 -44.7,500 -44.7,498.5 -44.7,487.1 -23.2,465.5 -23.2,432.1 -14.7,423.6 							"/>
							<polygon class="st1" points="27,-173.4 39.9,-186.4 39.9,-186.4 42.3,-188.8 42.3,-236 26.5,-251.8 26.5,-276 10.6,-291.9 
								10.6,-190.1 15.8,-184.9 15.8,-184.9 26.4,-174.3 26.4,-74.6 27,-75.2 							"/>
							<polygon class="st1" points="103.5,232.1 116.1,244.7 116.1,155.1 103.5,167.7 							"/>
							<polygon class="st1" points="56.5,41.5 33.1,18.1 33.1,27.5 44.3,38.6 44.3,79.8 31.4,92.6 31.3,97.9 56.5,123.1 							"/>
							<polygon class="st1" points="220.8,-53.9 198.1,-31.2 198.1,27.5 203.2,32.5 203.2,17.9 215.4,5.7 215.4,-27.5 220.8,-32.9 
															"/>
							<polygon class="st1" points="50.7,-183.4 50.7,-186.4 50.7,-251.8 31.3,-271.2 31.3,-253.8 47.1,-238 47.1,-186.7 
								46.7,-186.4 43.7,-183.4 31.8,-171.4 31.8,-80.3 56.5,-106 56.5,-106 56.5,-136.2 50.7,-142 							"/>
							<polygon class="st1" points="5.7,498.5 5.7,496.8 -20.9,470.1 -39.9,489.1 -39.9,498.5 -39.9,500 5.7,500 							"/>
							<polygon class="st1" points="73.8,498.5 73.8,465.3 57.2,448.7 57.2,423.1 69.9,410.4 69.9,370.2 57.2,357.5 57.2,311.6 
								32.4,286.8 32.4,254.2 10.6,276 10.6,305.5 31.3,326.3 31.3,406.8 55.5,431 55.5,498.5 55.5,500 73.8,500 							"/>
							<polygon class="st1" points="-87.9,498.5 -87.9,438 -113.6,463.7 -113.6,498.5 -113.6,500 -87.9,500 							"/>
							<polygon class="st1" points="50.7,498.5 50.7,433 31.3,413.6 31.3,431 47.1,446.8 47.1,498.1 46.7,498.5 45.2,500 50.7,500 
															"/>
							<polygon class="st1" points="39.9,498.5 39.9,498.5 42.3,496.1 42.3,448.8 26.5,433 26.5,408.8 10.6,392.9 10.6,494.8 
								15.8,500 38.4,500 							"/>
							<polygon class="st1" points="-118.4,498.5 -118.4,461.7 -117.7,461 -87.9,431.1 -87.9,370.6 -104.2,354.2 -104.2,291.1 
								-83,269.9 -83,247.1 -101.9,228.2 -101.9,123.9 -101.2,93.7 -98,90.5 -98,-69.7 -138.3,-110 -138.3,-116.8 -139.4,-115.7 
								-139.4,-106.2 -125.9,-92.7 -125.9,-36 -113.6,-23.7 -113.6,116.4 -113.6,116.4 -113.6,117.9 -113.6,119.4 -113.7,119.4 
								-114.7,156.6 -126.4,168.3 -126.4,255.6 -115.1,266.9 -115.1,394.9 -123.7,403.5 -123.7,498.5 -123.7,500 -118.4,500 							
								"/>
							<polygon class="st1" points="-60.4,498.1 -60.4,472.1 -47.3,458.9 -47.3,267.1 -48.1,266.3 -48.1,270.1 -87.3,309.4 
								-87.3,339.8 -73,354.1 -73,423.1 -73.7,423.8 -83,433.1 -83,498.5 -83,500 -58.5,500 							"/>
							<polygon class="st1" points="-145,97.9 -144.2,98.7 -144.2,-104.2 -147.5,-107.6 -147.5,-107.6 -147.5,69.5 -145,72.1 
															"/>
							<polygon class="st1" points="-144.2,-117.7 -144.2,-183.4 -144.2,-186.4 -144.2,-290.6 -147.5,-293.9 -147.5,-184.9 
								-147.5,-114.4 -147.5,-114.4 							"/>
							<polygon class="st1" points="-131.2,137.3 -131.1,137.3 -131.1,118.7 -143.7,106 -144.2,106 -144.2,105.5 -147.5,102.2 
								-147.5,182.6 -131.2,166.3 							"/>
							<polygon class="st1" points="-131.2,173.1 -147.5,189.5 -147.5,234.5 -131.2,250.8 							"/>
							<polygon class="st1" points="-144.2,394.3 -147.5,391 -147.5,500 -144.2,500 -144.2,498.5 							"/>
							<polygon class="st1" points="-131.2,257.6 -147.5,241.3 -147.5,290.3 -131.2,274 							"/>
							<polygon class="st1" points="211.4,489.6 196.3,474.5 196.3,381.5 178.6,363.8 178.6,362.8 178.8,280.2 170.9,272.3 
								170.9,394.6 192.3,416 192.3,455.6 173.8,474.2 173.8,498.5 173.8,500 201.1,500 							"/>
							<polygon class="st1" points="142.4,498.5 142.4,355.3 120.9,333.8 120.9,346.3 108.9,358.3 108.9,433.5 138.1,462.7 
								138.1,498.5 138.1,500 142.4,500 							"/>
							<polygon class="st1" points="133.2,498.5 133.2,464.7 104,435.5 104,363.2 98.5,368.7 100.4,370.6 100.4,451.2 123,473.9 
								123,498.5 123,500 133.2,500 							"/>
							<polygon class="st1" points="290.2,-269.7 294.6,-274.1 272.7,-296.1 272.7,-244 290.2,-226.4 							"/>
							<polygon class="st1" points="249.9,-183.4 249.9,-145.1 265.9,-161 265.9,-178.6 259.6,-184.9 259.6,-184.9 254.4,-190.1 
								249.9,-185.6 							"/>
							<polygon class="st1" points="276.5,-219 276.5,-227.6 259.8,-244.4 259.8,-344.5 250.9,-353.4 250.9,-398.2 239.1,-410 
								235.9,-406.9 235.9,-406.9 228.7,-399.6 228.7,-263.8 235.9,-256.5 235.9,-256.5 245,-247.4 245,-229.6 266.1,-208.6 							
								"/>
							<polygon class="st1" points="316.2,-396.9 319,-399.7 313.9,-404.7 313.9,-407.1 309.4,-402.6 309.4,-376.2 326.2,-359.4 
								326.2,-271.9 320,-265.7 320,-186.4 320,-183.4 320,-146.9 333.7,-133.2 333.7,-183.4 333.7,-186.4 333.7,-359.8 
								316.2,-377.3 							"/>
							<polygon class="st1" points="307.7,-351.9 279.4,-380.2 275.2,-376 275.2,-300.4 298,-277.5 307.7,-287.2 							"/>
							<polygon class="st1" points="272.7,-386.9 272.7,-380.4 276,-383.6 							"/>
							<polygon class="st1" points="258.3,-475.6 272.7,-461.2 272.7,-470.4 258.3,-484.8 							"/>
							<polygon class="st1" points="287.4,-439.7 277.6,-449.5 277.6,-439.7 266.6,-428.8 266.6,-399.8 272.2,-394.3 272.7,-394.3 
								272.7,-393.8 279.4,-387.1 287.4,-395.1 							"/>
							<polygon class="st1" points="324.6,-424.7 324.6,-455.2 299,-480.9 292.8,-474.7 292.8,-458.7 318.7,-432.8 318.7,-418.8 
															"/>
							<polygon class="st1" points="295.1,-125.5 304.2,-116.3 307.9,-120 307.9,-183.4 307.9,-186.4 307.9,-260.8 298,-270.7 
								295.1,-267.7 295.1,-221.6 304.9,-211.8 304.9,-186.4 304.9,-183.4 304.9,-180.8 295.1,-170.9 							"/>
							<polygon class="st1" points="245,-222.8 245,-206.3 254.4,-196.9 262.7,-205.1 							"/>
							<polygon class="st1" points="310.6,-750.5 302.2,-742.1 302.2,-586.9 316.9,-572.2 316.9,-553.3 313.7,-545.6 313.7,-495.6 
								302.4,-484.3 329.5,-457.2 329.5,-422.7 318.7,-412 318.7,-406.7 322.4,-403.1 330.2,-410.9 330.2,-501.7 322.5,-509.3 
								322.5,-577.7 322.4,-577.7 322.4,-601.5 310.6,-613.3 							"/>
							<polygon class="st1" points="294.4,-746.9 279.5,-731.9 279.5,-563.4 279.9,-563.3 279.5,-562.3 279.5,-560.7 278.8,-560.7 
								276.5,-555.5 276.5,-510.2 299,-487.8 308.8,-497.6 308.8,-545.4 308.5,-545.6 308.8,-546.5 308.8,-547.5 309.3,-547.5 
								312.1,-554.3 312.1,-570.2 297.3,-584.9 297.3,-744.1 310.6,-757.4 310.6,-788 304.2,-794.4 288.7,-778.8 294.4,-773.1 
															"/>
							<polygon class="st1" points="350,-452.9 352.5,-450.4 352.5,-495.4 350,-492.9 							"/>
							<polygon class="st1" points="349,-795.8 338.5,-795.8 338.5,-785.3 							"/>
							<polygon class="st1" points="315.4,-762.2 333.7,-780.5 333.7,-795.8 309.6,-795.8 315.4,-790 							"/>
							<polygon class="st1" points="285.3,-782.2 298.9,-795.8 281.8,-795.8 281.8,-785.7 							"/>
							<polygon class="st1" points="348.4,-370.2 322.4,-396.2 321,-394.9 321,-379.3 338.5,-361.8 338.5,-186.4 338.5,-183.4 
								338.5,-128.3 352.5,-114.4 352.5,-114.4 352.5,-184.9 352.5,-293.9 348.4,-298 							"/>
							<polygon class="st1" points="254.8,-780.1 254.8,-751.7 281.9,-778.8 277,-783.7 277,-795.8 249.9,-795.8 249.9,-785 							
								"/>
							<polygon class="st1" points="338.5,-728.3 325.6,-715.3 325.6,-642.2 352.5,-615.3 352.5,-792.4 338.5,-778.5 							"/>
							<polygon class="st1" points="350.2,-610.7 320.8,-640.2 320.8,-717.3 333.7,-730.3 333.7,-773.6 315.4,-755.4 315.4,-615.3 
								327.2,-603.5 327.2,-580.7 327.4,-580.7 327.4,-511.3 335,-503.7 335,-408.9 325.8,-399.7 348.4,-377.1 348.4,-390.5 
								352.5,-394.5 352.5,-443.5 345.1,-450.9 345.1,-494.9 352.5,-502.2 352.5,-582.6 350.2,-584.9 							"/>
							<path class="st2" d="M351.2-795.8L351.2-795.8H349l-10.5,10.5v-10.5H337h-1.8h-1.5v15.3l-18.3,18.3V-790l-5.8-5.8h-2.1h-1.8
								h-0.8h-1.3h-0.8H301h-2.1l-13.6,13.6l-3.5-3.5v-10.1h-1.5h-1.8H277v12.1l4.9,4.9l-27.1,27.1v-28.4l-4.8-4.8v-10.9h-1.5h-1.8
								h-1.5v12.9l4.8,4.8v31.2l-14,14v0l-10.3,10.3v-73.2h-1.5h-1.8h-1.5v23.1l-19.4-19.4v-3.8h-1.5h-1.8h-1.5v5.8l20.9,20.9v26.9
								l-24.2,24.2v62.7l9.9,9.9v79.5l13.6,13.6v13.8l-0.6,113.9l-14.8-14.8l-0.1-81l-5.1-5.1v-100.2l-12.8-12.8v-34.9l7.6-7.6v-67
								l-11-11v-25.4l11.4-11.4h-2.1h-2.6h-2.1l-9.4,9.4v29.4l11,11v63l-7.6,7.6v38.9l12.8,12.8v100.2l5.1,5.1l0.1,80v1l19.6,19.6
								l-0.1,23.9l-19.8,19.8v63.8l-12.8-12.8l0.1-81.3l1.2-1.2l-1.2-1.2l0.2-127.3h0v-1.6l0-1.4h0v-7.7l-8.4-8.4v-28.9l10.4-10.4
								v-32.1l-22.6-22.6v-148.8h-1.5h-1.8h-1.5v143.9l-2.6-2.6v-141.3h-1.5h-1.8h-1h-0.5h-1.7h-2.6h-2.1l-20.2,20.2l-16.5-16.5
								v-3.8h-1.5h-1.8H103v5.8l17.9,17.9l-4.8,4.8v122.1l-14.4-14.4v-12.8l-13.8-13.8v-105.6l-3.9-3.9h-2.1h-2.6h-2.1l5.9,5.9v98.7
								l-5.5-5.5v-78.1l-9-9v-12h-0.2H67h-0.8h-1h-1.5h-0.1h-2.1l-0.2,0.2v-0.2h-1.5H58h-1.5v5v0l-24.7,25.7v-30.7h-1.5h-1.8H27
								v35.7l-0.6,0.6v-36.4h-1.5h-1.8h-1.5v41.4L0-731.9l-2.7,2.7v-50.3l13.4-13.4v-3H9.1H7.2H5.7v1l-13.4,13.4v135.6l0,0l0,1.5
								v1.5h0l0.2,14.9l-2.1,2.1v24.7l8.8,8.8v113.8l-2.3,2.3v-27.1l0,0l0-1.5v-1.5h0l-0.1-3.1l-1.4-1.3v-9.8l-19.1-19.1v-0.4h-0.4
								l-2.1-2.1v-105.7l7-7v-140.9h-1.5h-1.8H-24v138.9l-7,7v109.7l2.5,2.5V-349l13.8,13.8v73.9l-8.5,8.5v33.4l-21.6,21.6v11.5v3
								v5.4l-6.9-6.9h0l-3.9-3.9v-22l13.2-13.2v-195.8l-5.7-5.7v-86.5L-67-530.8l12.3-11.5v-208.3l14.8-14.8v-30.5h-1.5h-1.8h-1.5
								v28.5l-14.8,14.8v208.2l-10.9,10.2l-2-2v-76.6l0,0l0-1.5v-1.5h0l-0.3-15.8l-2.1-2.1v-23.6l12.2-12.2v-126.4h-1.5H-66h-1.5
								v124.4l-7.3,7.3v-117.3l-14.4-14.4h-2.1H-94h-2.1l16.4,16.4v120.2l-0.4,0.4l0.4,0.4v26.9l2.1,2.1l0.3,15.2v80l3.4,3.4
								l-8.8,8.2v69.5l29.8,29.8v6.6l-39.2,39.2v34.4l14.3,14.3v65l-5.2,5.2v-57.7l-16.3-16.3v-59.1l21.2-21.2v-26.8l-18.9-18.9
								l0-102.2l0.7-28.2l3.2-3.2v-164.2l-39.3-39.3h-2.1h-2.3h-1.5v0.9l40.4,40.4v160.2l-3.2,3.2l-0.8,30.2v104.3l18.9,18.9v22.8
								l-21.2,21.2v63.1l16.3,16.3v60.6l-29.8,29.8l-0.7,0.7v36.8v3v50.1l38.7,38.7V25.6L-80,26l0.4,0.4v26.9l2.1,2.1l0.3,15.2v80
								l3.4,3.4l-8.8,8.2v69.5l29.8,29.8v6.6l-39.2,39.2v34.4l14.3,14.3v65l-5.2,5.2v-57.7l-16.3-16.3v-59.1l21.2-21.2v-26.8
								l-18.9-18.9l0-102.2l0.7-28.2l3.2-3.2V-71.7l-40.4-40.4v-9.6l9.8-9.8v-51.9v-3v-95l8.6-8.6v-127.9l-11.3-11.3v-87.3
								l11.7-11.7l1-37.2h0v-1.5l0-1.5l0,0v-140.1l-12.2-12.2v-56.8l-13.5-13.5v-4.7h-1.5h-1.8h-1.4h0h-0.1h-2h0h-1.3v1.3v0v2.1v0
								l0,0l3.3,3.3v202.9l-0.8-0.8v-25.8l-2.6-2.6v2.1v28.4v2.1l3.3,3.3v0.5h0.5l12.7,12.7v18.6h-0.2v29l-16.3,16.3v2.1v2.6v2.1
								l16.3-16.3v77.7l-16.3-16.3v2.1v2.6v2.1l16.3,16.3v16.4l-16.3,16.3v2.1v2.6v16.8v2.1v2.6v2.1v67.5v2.6v2.1l3.3,3.3v104.2v3
								v65.6l-3.3,3.3l0,0v0v2.1v0v2.6v2.1v0l0,0l3.3,3.3V98.7l-0.8-0.8V72.1l-2.6-2.6v2.1v28.4v2.1l3.3,3.3v0.5h0.5l12.7,12.7v18.6
								h-0.2v29l-16.3,16.3v2.1v2.6v2.1l16.3-16.3v77.7l-16.3-16.3v2.1v2.6v2.1l16.3,16.3V274l-16.3,16.3v2.1v2.6v16.8v2.1v2.6v2.1
								v67.5v2.6v2.1l3.3,3.3v104.2v1.5v0v1.5v65.6l-3.3,3.3l0,0v0v2.1v1.3h1.3h0h2h0.1h0h1.4h1.8h1.5v-4.7l1.1-1.1v5.8h1.5h2.3h2.1
								l-1.1-1.1v-9.6l9.1-9.1l0.7-0.7v-51.9V500v0v-1.5v-95l8.6-8.6V266.9l-11.3-11.3v-87.3l11.7-11.7l1-37.2h0v-1.5l0-1.5l0,0
								V-23.7L-125.9-36v-56.8l-13.5-13.5v-9.5l1.1-1.1v6.7L-98-69.7V90.5l-3.2,3.2l-0.8,30.2v104.3l18.9,18.9v22.8l-21.2,21.2v63.1
								l16.3,16.3v60.6l-29.8,29.8l-0.7,0.7v36.8v1.5v0v1.5v50.1l22.3,22.3h2.1h2.6h2.1l-24.3-24.3v-48.1V500v0v-1.5v-34.8
								l25.7-25.7v60.6v1.5v0v1.5v5.3l20.4,20.4v46.7h1.5h1.8h1.5v-48.7L-83,504.8v-3.3V500v0v-1.5v-65.4l9.3-9.3l0.7-0.7v-69
								l-14.3-14.3v-30.4l39.2-39.2v-3.8l0.8,0.8v191.8l-13.2,13.2v26l1.9,1.9l0,0h0l13.8,13.8v37.8v22.3h1.5h1.8h1.5v-17.4
								l15.9,15.9v1.5h1.5h1.8h1.5v-3.5l-20.7-20.7v-37.8v-10.3V500v0v-1.5v-9.4l19-19l26.7,26.7v1.7v1.5v0v1.5v72.4h1.5h1.8h1.5
								v-72.3l11,11v61.3h1.5h1.8h1.5v-63.3L15.8,500h0l0,0l-5.2-5.2V392.9l15.9,15.9V433l15.8,15.8v47.3l-2.4,2.4h0l-1.5,1.5l0,0
								L27,511.4v62.5h1.5h1.8h1.5v-60.5l11.9-11.9l1.5-1.5l0,0l1.5-1.5l0.4-0.4v-51.3L31.3,431v-17.4L50.7,433v65.5v1.5v0v1.5v41.3
								l5.8,5.8v25.3H58h1.8h1.5v-27.3l-5.8-5.8v-39.3V500v0v-1.5V431l-24.2-24.2v-80.5l-20.7-20.7V276l21.8-21.8v32.6l24.8,24.8
								v45.9l12.8,12.8v40.2l-12.7,12.7v25.6l16.6,16.6v33.2v1.5v0v1.5V533l-10.2,10.2v28.5l-2.2,2.2h2.1h0.1h1.5h1H67h1.3h0.2v-0.2
								l4.7-4.7v1l3.9,3.9h2.1h2.6h2.1L78,568v-3.8l45-45v-17.7V500v0v-1.5v-24.6l-22.6-22.6v-80.7l-1.9-1.9l5.5-5.5v72.3l29.2,29.2
								v33.8v1.5v0v1.5v16.9L103,548.6v25.3h1.5h1.8h1.5v-23.3l30.2-30.2v-18.9V500v0v-1.5v-35.8l-29.2-29.2v-75.1l12.1-12.1v-12.4
								l21.5,21.5v143.2v1.5v0v1.5v50.1l8.5,8.5v7.4l-6.4,6.4h2.1h2.6h1.7h0.5h1h1.8h1.5v-4.4l2.6-2.6v7h1.5h1.8h1.5v-11.8
								l10.5-10.5v-50V500v0v-1.5v-24.3l18.6-18.6V416l-21.4-21.4V272.3l7.8,7.8l-0.1,82.6v1l17.7,17.7v93l15.1,15.1L201.1,500l0,0
								h0l-4.5,4.5v57.4l-12,12h2.1h2.6h2.1l5.2-5.2v5.2h1.5h1.8h1.5v-10l27.8-27.8l0.7-0.7v-34.1l-1.3-1.3l0,0l-10.4-10.4l9.1-9.1
								v-27.4l-14.3-14.3v-47.6l-11.9-11.9v-66.7l14.9-14.9l-0.7,133.9l0,0.6l20.6,20.6l4.2,4.2v23.3l10.8,10.8l-5.9,5.9v1.2v1.5v0
								v1.5v43.1l-6.2,6.2l-3,3l-15.1,15.1v5h1.5h1.8h1.5v-3l10.3-10.3l3-3l6.2-6.2v22.4h1.5h1.8h1.5v-27.3l20.8-20.8v-21.5
								l-2.8-2.8l-1.5-1.5l0,0l-1.5-1.5l-7.1-7.1l23.5-23.5v-11.6l8.9,8.9v33.2v1.5v0v1.5v10.4L277,525.2v48.7h1.5h1.8h1.5v-46.7
								l8.5-8.5v42.6l10.6,10.6l-1.9,1.9h2.1h1.8h0.8h1.3h0.8h1.8h2.1l-1.9-1.9l4.4-4.4l0.7-0.7v-65.3V500v0v-1.5V422l-11.3-11.3
								l11.1-11.1V331l-29.8-29.8l9.4-9.4v-48.7l-14.7-14.7v-16l-19.3-19.3V44.7L266,37v-55.1l-11.3-11.3V-60l30.5-30.5l4.3,4.3V-64
								l-14.9,14.9v170.6l-2.9,6.9v48.3l23.8,23.8l-7.6,7.6v20l25.9,25.9v16.8l-9.3,9.3v30.5l16.8,16.8v83.5l-6.2,6.2v81.3v1.5v0
								v1.5V540l18.5,18.5v15.3h1.5h1.8h1.5v-10.5l10.5,10.5h2.1h0h1.3v-1.3v-2.1l-13.9-13.9v-55V500v0v-1.5V323L321,305.5V290
								l1.4-1.4l26,26v72.3l4.1,4.1v-2.1v-2.6v-67.5v-2.1V314v-2.1V295v-2.6v-2.1l-4.1,4.1v13.4l-22.6-22.6l9.2-9.2v-94.8l-7.6-7.6
								v-69.4h-0.1V81.4l-11.8-11.8V-70.5l18.3-18.3v43.4l-12.9,12.9v77.2l29.4,29.4v25.8l2.3,2.3v-2.1V71.7v-2.1l-26.8-26.8v-73.2
								l12.9-12.9v-50.2l13.9-13.9v-2.1v-2.6v0v-2.1v0l0,0l-13.9-13.9v-55v-3v-175.5L321-379.3v-15.5l1.4-1.4l26,26v72.3l4.1,4.1
								v-2.1v-2.6v-67.5v-2.1v-2.6v-2.1v-16.8v-2.6v-2.1l-4.1,4.1v13.4l-22.6-22.6l9.2-9.2v-94.8l-7.6-7.6v-69.4h-0.1v-22.8
								l-11.8-11.8v-140.1l18.3-18.3v43.4l-12.9,12.9v77.2l29.4,29.4v25.8l2.3,2.3v-2.1v-28.4v-2.1l-26.8-26.8v-73.2l12.9-12.9
								v-50.2l13.9-13.9v-2.1v-1.3H351.2z M-128.5-186.4v3v49.9l-5,5v-54.9v-3v-85.2l5-5V-186.4z M-139.4-581.3v-202.9l8.7,8.7v56.8
								l12.2,12.2v139.5l-1,36.7l-6.9,6.9v-21.1h0.2v-23.6L-139.4-581.3z M-146.8-388.5l20.4-20.4v-13.5l6.5,6.5V-292l-3.8,3.8
								v-60.9l-23.1-23.1V-388.5z M-128.5,498.5v1.5v0v1.5v49.9l-5,5v-54.9V500v0v-1.5v-85.2l5-5V498.5z M-128.5,401.5l-9.8,9.8
								v87.2v1.5v0v1.5v59.7l-1.1,1.1v-60.8V500v0v-1.5V392.3l-7.4-7.4v-65.4l18.2,18.2V401.5z M-119.9,269v123.9l-3.8,3.8v-60.9
								l-23.1-23.1v-16.2l20.4-20.4v-13.5L-119.9,269z M-130.7-90.7V-34l12.2,12.2v139.5l-1,36.7l-6.9,6.9v-21.1h0.2v-23.6
								l-13.2-13.2V-99.4L-130.7-90.7z M-138.3-186.4v3v59.7l-1.1,1.1v-60.8v-3v-106.2l-7.4-7.4v-65.4l18.2,18.2v63.8l-9.8,9.8
								V-186.4z M338.5-121.5L349-111l-10.5,10.5V-121.5z M304.2-794.4l6.3,6.3v30.6l-13.2,13.2v159.2l14.8,14.8v15.9l-2.8,6.8h-0.4
								v1l-0.4,0.9l0.4,0.2v47.8l-9.9,9.9l-22.4-22.4v-45.3l2.2-5.2h0.7v-1.6l0.4-0.9l-0.4-0.2v-168.5l14.9-14.9v-26.2l-5.7-5.7
								L304.2-794.4z M292.8-458.7v-16l6.2-6.2l25.7,25.7v30.5l-5.9,5.9v-13.9L292.8-458.7z M225.7-715.8l11.8-11.8v0l12.5-12.5
								v27.9l11.3,11.3v51.1l-7.2,7.2h-0.5v0.5l-0.3,0.3l0.3,0.3v151.1l-0.4,0.4l0.4,0.4v16l19.3,19.3v12.6l-10.9,10.9v33l6,6v148.6
								l-3.2-3.2v-100.1l-8.9-8.9v-44.8l-14.2-14.2v-25.1l-5.5-5.5v0l-8.3-8.3v-65.2l8.3-8.6v0l10.1-10.5v-10l-10.1-10.1L225.7-568
								V-715.8z M304.9-180.8v-2.6v-3v-25.4l-9.8-9.8v-46.1l3-3l9.9,9.9v74.5v3v63.3l-3.7,3.7l-9.2-9.2v-45.4L304.9-180.8z
								 M295.1-177.8v-5.6v-3v-28.4l5,5v23.4v3v0.6L295.1-177.8z M298-277.5l-22.9-22.9V-376l4.2-4.2l28.3,28.3v64.7L298-277.5z
								 M245-206.3v-16.5l17.6,17.6l-8.3,8.3L245-206.3z M259.6-184.9L259.6-184.9l6.3,6.3v17.5l-15.9,15.9v-38.3v-2.2l4.5-4.5
								L259.6-184.9z M245-229.6v-17.8l-9.1-9.1v0l-7.3-7.3v-135.8l7.3-7.3v0l3.1-3.1l11.8,11.8v44.8l8.9,8.9v100.1l16.7,16.7v8.7
								l-10.4,10.4L245-229.6z M272.7-244v-52l22,22l-4.4,4.4v43.3L272.7-244z M272.7-380.4v-6.6l3.3,3.3L272.7-380.4z M272.7-393.8
								v-0.5h-0.5l-5.5-5.5v-29l10.9-10.9v-9.8l9.8,9.8v44.6l-8,8L272.7-393.8z M272.7-461.2l-14.4-14.4v-9.2l14.4,14.4V-461.2z
								 M221.6-537.1L221.6-537.1l0-1.5l0-1.5l0,0v-13.2l0.5-0.5l-0.5-0.5v-10.8l14.3,14.3v0l5.3,5.3v6l-3.8,3.9v0l-14.6,15.1v69.1
								l13.1,13.1l0.7,0.7v23.1l-8,8v-5.7l-7.6-7.6L221.6-537.1z M221-413l2.8,2.8v8.6l-2.9,2.9L221-413z M220.9-391.8l2.9-2.9v133
								l12.1,12.1l4.2,4.2v11l-4.2-4.2l-15.7-15.7L220.9-391.8z M208-647.5V-665l12.2-12.2v-33.2l0.6-0.6v76.2L208-647.5z
								 M203.2-652.3l-5.1-5.1v-58.7l22.7-22.7v21l-5.4,5.4v33.2L203.2-667V-652.3z M208-568v-72.7l8.8,8.8v72.7L208-568z
								 M201.2-372.1L216-387l-0.7,133.9l0,0.6l20.6,20.6l3,3l1.2,1.2v23.3l10.8,10.8l-5.9,5.9v1.2v3v43.1l-6.2,6.2l-3,3L220.8-116
								v28.1l-19.4-19.4V-121l27.8-27.8l0.7-0.7v-34.1l-1.3-1.3h0l-10.4-10.4l9.1-9.1v-27.4l-14.3-14.3v-47.6l-11.9-11.9V-372.1z
								 M249.9-93.3V-62l-14,14v0l-10.3,10.3V-114l10.3-10.3l3-3l6.2-6.2v35.3L249.9-93.3z M236.5,247.2l0.1,0.1v23.1l-8,8v-5.7
								l-7.6-7.6l0.6-117.3h0v-1.5l0-1.5h0v-13.2l0.5-0.5l-0.5-0.5v-10.8l15.8,15.8l3.8,3.8v6l-3.8,3.9l-14.6,15.1v69.1L236.5,247.2
								z M223.8,274.7v8.6l-2.9,2.9l0.1-14.3L223.8,274.7z M215.4-27.5V5.7l-12.2,12.2v14.6l-5.1-5.1v-58.7l22.7-22.7v21L215.4-27.5
								z M220.8-26.1v76.2L208,37.4V19.9l12.2-12.2v-33.2L220.8-26.1z M201.4-127.8v-50.6l7.1-7.1l6.3-6.3l5.5,5.5l3,3l1.8,1.8v30.1
								L201.4-127.8z M201.2-298.6l7.1,7.1v47.6l14.3,14.3v23.4l-7.6,7.6l-13.7-13.7V-298.6z M150.9-795.4v142.9l7.5,7.5v0.2h0.2
								l22.4,22.4v28.1l-10.4,10.4v32.9l8.4,8.4v7l-0.2,124.1l-7.8-7.8v-0.5h-0.5l-7.7-7.7l0.2-114.3h0v-1.5l0-1.5h0v-53.7l-7.5-7.5
								v-0.5h-0.5l-15.3-15.3v-138.5l-11.8-11.8L150.9-795.4z M156.9-150.9v-32.5v-3v-154.3l-14.7-14.7v-18.8l13.3-13.3v-211.7
								l2.7,2.7v53.2l-0.2,117.8l8.2,8.2v129.1l21.4,21.4v35.6l-18.6,18.6v26.3v3v48l-5.7,5.7v-14.9L156.9-150.9z M120.9-765.4
								l3.4-3.4l10.4,10.4v131.7l-13.8-13.8V-765.4z M120.9-620.2l15.3,15.3l0.2,47.8l-15.5,15.5V-620.2z M120.9-534.6l20.4-20.4
								l-0.2-51.8L120.9-627v-6.6l13.8,13.8v0.5h0.5l15.3,15.3v214.5l-8.4,8.4v-33.1l-21.2-21.2V-534.6z M120.9-428.5l16.3,16.3v36
								l-0.4,0.4l0.4,0.4v22.1l14.7,14.7v152.3v3v34.5l6.4,6.4v17.7l-2.6,2.6v-4.5l-8.5-8.5v-48.1v-3v-145.2l-26.3-26.3V-428.5z
								 M158.4-118V33l-2.6-2.6v-145.7L158.4-118z M87.8-679.5l9,9v12.8l19.3,19.3v6.6l-28.3-28.3V-679.5z M61.3-788.8l2.3-2.3v9.4
								l9,9v78.1L83-684.4v26.3l33.1,33.1v86v2.4L103.5-524v-47.4L88-586.9l0.5-46.6h0v-1.5l0-1.5l0,0v-6.2l-27.2-27.2V-788.8z
								 M118.2-209v22.6v3v15.7L78-127.5v-9.7l7.8-7.8v-38.3v-3v-117.2l9.2-9.2l0.5,0.5v80.7L118.2-209z M68.5-99v-12.2l4.7-4.7v1
								l9.8,9.8v98.7l-5.5-5.5v-78.1L68.5-99z M55.5-144v-39.3v-3v-67.5l-24.2-24.2v-80.5l-20.7-20.7v-29.5l21.8-21.8v32.6
								l24.8,24.8v45.8l12.8,12.8v40.2l-12.7,12.7v25.6l16.6,16.6v33.2v3v31.5l-10.2,10.2v28.5l-2.3,2.3v-27.4L55.5-144z
								 M98.6,115.5v50.2l-5.5,5.5v82.5l-7.2,7.2v25.2l-6.2-6.2V146.3l-18.4-18.4V39.5l-30-30v-48.6h0.5v-34.2L56.5-99V17l27.2,27.2
								v5.7l-0.5,50.1L98.6,115.5z M91.7,368.7l-8.2,8.2l-8.7-8.7v-20.6L86,336.5v26.5L91.7,368.7z M31.3,213.4V104.8l25.2,25.2
								v93.4l-19.3,19.3v-23.3L31.3,213.4z M31.3,97.9l0.1-5.3l12.9-12.9V38.6L33.1,27.5v-9.4l23.4,23.4v81.6L31.3,97.9z M26.4-74.6
								v-99.6l-10.6-10.6h0l-5.2-5.2v-101.9L26.5-276v24.2L42.3-236v47.3l-2.4,2.4h0L27-173.4v98.2L26.4-74.6z M27-68.3v26.1h-0.5
								v52.7l-0.1-0.1v-78.1L27-68.3z M21.6-172.3v102.7L0-47.1l-2.7,2.7v-50.3L10.6-108v-75.2L21.6-172.3z M10.6-298.8v-73.7
								l15.9,15.9v73.7L10.6-298.8z M56.5-106L56.5-106L31.8-80.3v-91.2l11.9-11.9l3-3l0.4-0.4V-238l-15.8-15.8v-17.4l19.4,19.4
								v65.5v3v41.3l5.8,5.8V-106z M33.1-657.4v-9.4l23.4,23.4v81.6l-25.1-25.1l0.1-5.3l12.9-12.9v-41.1L33.1-657.4z M56.5-554.9
								v93.4l-19.3,19.3v-23.3l-5.9-5.9v-108.6L56.5-554.9z M37.2-435.5l23.4-23.4l0.7-0.7v-90.5l13.6,13.6V-403l6.8,6.8v45.1
								l-11.8,11.8v17.7l-7.9-7.9v-45.9l-24.8-24.8V-435.5z M91.7-316.2l-8.2,8.2l-8.7-8.7v-20.6L86-348.4v26.5L91.7-316.2z
								 M73.2-122.7l-4.7,4.7v-21.7l10.2-10.2v-33.5v-3v-35.2L62-238.1v-21.6l12.7-12.7v-37.4l6.3,6.3v117.2v3v36.3l-7.8,7.8V-122.7
								z M95.1-319.6l-4.3-4.3v-98l7.2-7.2v-82.5l0.6-0.6v60.7l-0.4,0.4l0.4,0.4v77.5l17.5,17.5v15.3L104.5-329H104v0.5L95.1-319.6z
								 M103.5-375.3v-70.6l12.6,12.6v70.6L103.5-375.3z M103.5-452.8v-64.4l12.6-12.6v89.6L103.5-452.8z M31.3-724h0.5v-34.2
								l24.7-25.7v116l27.2,27.2v5.7l-0.5,50.1l15.5,15.5v50.2l-5.5,5.5v82.5L86-424v25.2l-6.2-6.2v-133.5l-18.4-18.4v-88.5l-30-30
								V-724z M26.4-752.5l0.6-0.6v26.1h-0.5v52.7l-0.1-0.1V-752.5z M-3-469.5l7.1-7.1v-117.8l-8.8-8.8v-20.7l2.2-2.2l-0.2-18.4
								v-77.9l6.2-6.2l18.1-18.9v75l6.7,6.7v10.3l11.2,11.2v37.1l-12.8,12.8l-0.2,9.3l0,0v115.5l5.9,5.9v26.1L5.7-410.9v26.7
								l-8.8-8.8V-469.5z M-23.7-351v-181.8l14.3,14.3v9.9l1.5,1.4l0.1,2.5v33.3l-7.1,7.1v66.3l7.1,7.1v122.9l-2,2v-71.1L-23.7-351z
								 M-7.9-464.6v66.8l-2.3-2.3v-62.3L-7.9-464.6z M-9.9-225.8v-33.4l6.8-6.8v-120l8.8,8.8v79.8l-0.4,0.4l0.4,0.4v101.9
								l-23.3-23.3L-9.9-225.8z M-18.3-250.8l3.6-3.6v26.6l-3.6,3.6V-250.8z M-39.9-173.1v-10.3v-3v-9.4l19-19l26.7,26.7v1.7v3v73.4
								L-7.6-96.6V39l0,0l0,1.5V42h0l0.2,14.9L-9.6,59v24.7l8.8,8.8v113.8l-2.3,2.3v-27.1l0,0l0-1.5v-1.5h0l-0.1-3.1l-1.4-1.3v-9.8
								l-19.1-19.1v-0.4h-0.4l-2.1-2.1V37l7-7v-144.5l-20.7-20.7V-173.1z M-15,220.5v66.3l7.1,7.1v122.9l-2,2v-71.1l-13.8-13.8V152
								l14.3,14.3v9.9l1.5,1.4l0.1,2.5v33.4L-15,220.5z M-7.9,220.2v66.8l-2.3-2.3v-62.3L-7.9,220.2z M-77.9-455.2v-65.4l7.3-6.9
								l17.6,17.6v79.6L-77.9-455.2z M-113.6-135.3v-48.1v-3v-34.8l25.7-25.7v60.6v3v5.3l20.4,20.4V13.5l-7.3,7.3V-96.5
								L-113.6-135.3z M-74.9,51.2V27.6l12.2-12.2v-175.2L-83-180v-3.3v-3v-65.4l9.3-9.3l0.7-0.7v-69l-14.3-14.3v-30.4l39.2-39.2
								v-3.8l0.8,0.8V-226l-13.2,13.2v26l1.9,1.9h0l13.8,13.8v37.8v50.7l-14.8,14.8v208.2l-10.9,10.2l-2-2V72l0,0l0-1.5v-1.5h0
								l-0.3-15.8L-74.9,51.2z M-52.9,254.6l-24.9-24.9v-65.4l7.3-6.9l17.6,17.6V254.6z M-23.2,432.1v33.4l-21.6,21.6v11.5v1.5v0
								v1.5v5.4l-6.9-6.9l0,0l0,0l-3.9-3.9v-22l13.2-13.2V265.1l-5.7-5.7V173L-67,154.1l12.3-11.5V-65.8l14.8-14.8v-47.9l15.9,15.9
								V28l-7,7v109.7l2.5,2.5v188.7l13.8,13.8v73.9L-23.2,432.1z M-18.3,434.1l3.6-3.6V457l-3.6,3.6V434.1z M5.7,387.4l-0.4,0.4
								l0.4,0.4v101.9l-23.3-23.3l7.7-7.7v-33.4l6.8-6.8v-120l8.8,8.8V387.4z M26.5,328.3V402l-15.9-15.9v-73.7L26.5,328.3z
								 M32.4,247.4L5.7,274v26.7l-8.8-8.8v-76.5l7.1-7.1V90.5l-8.8-8.8V61l2.2-2.2l-0.2-18.4v-77.9l6.2-6.2l18.1-18.9v75l6.7,6.7
								v10.3l11.2,11.2v37.1L26.6,90.6l-0.2,9.3l0,0v115.5l5.9,5.9V247.4z M62,355.5v-45.9l-24.8-24.8v-35.4l24.1-24.1v-90.5
								l13.6,13.6v133.5l6.8,6.8v45.1l-11.8,11.8v17.7L62,355.5z M73.2,545.6v16.5l-4.7,4.7v-21.7L78.7,535v-33.5V500v0v-1.5v-35.2
								L62,446.7v-21.6l12.7-12.7v-37.4l6.3,6.3v117.2v1.5v0v1.5v36.3L73.2,545.6z M118.2,475.9v22.6v1.5v0v1.5v15.7L78,557.3v-9.7
								l7.8-7.8v-38.3V500v0v-1.5V381.3l9.2-9.2l0.5,0.5v80.7L118.2,475.9z M116.1,344.3l-11.6,11.6H104v0.5l-8.9,8.9l-4.3-4.3v-98
								l7.2-7.2v-82.5l0.6-0.6v60.7l-0.4,0.4l0.4,0.4v77.5l17.5,17.5V344.3z M116.1,322.1l-12.6-12.6v-70.6l12.6,12.6V322.1z
								 M116.1,244.7l-12.6-12.6v-64.4l12.6-12.6V244.7z M116.1,145.8v2.4l-12.6,12.6v-47.4L88,97.9l0.5-46.6h0v-1.5l0-1.5l0,0v-6.2
								L61.3,15v-119l2.3-2.3v9.4l9,9v78.1L83,0.5v26.3l33.1,33.1V145.8z M116.1,53L87.8,24.8V5.3l9,9v12.8l19.3,19.3V53z
								 M116.1-82.5V39.6l-14.4-14.4V12.3L87.8-1.5v-105.6l-9.8-9.8v-3.8l45-45v-17.7v-3V-211l-22.6-22.6v-80.7l-1.9-1.9l5.5-5.5
								v72.3l29.2,29.2v33.8v3v16.9L103-136.3v31.1l17.9,17.9L116.1-82.5z M107.9-107.2v-27.1l30.2-30.2v-18.9v-3v-35.8l-29.2-29.2
								v-75.1l12.1-12.1V-351l21.5,21.5v143.2v3v50.1l8.5,8.5v7.4l-26.6,26.6L107.9-107.2z M120.9,249.5v-99.3l19.7-19.7l0.7-0.7
								L141.1,78l-20.1-20.1v-6.6L134.7,65v0.5h0.5l15.3,15.3v214.5l-8.4,8.4v-33.1L120.9,249.5z M120.9,143.4V64.7L136.2,80
								l0.2,47.8L120.9,143.4z M134.7,58.2l-13.8-13.8V-80.5l3.4-3.4l10.4,10.4V58.2z M158.4,560l-2.6,2.6v-4.5l-8.5-8.5v-48.1V500
								v0v-1.5V353.3L120.9,327v-70.6l16.3,16.3v36l-0.4,0.4l0.4,0.4v22.1l14.7,14.7v152.3v1.5v0v1.5V536l6.4,6.4V560z M187.5,418
								v35.6l-18.6,18.6v26.3v1.5v0v1.5v48l-5.7,5.7v-14.9l-6.4-6.4v-32.5V500v0v-1.5V344.2l-14.7-14.7v-18.8l13.3-13.3V85.7
								l2.7,2.7v53.2l-0.2,117.8l8.2,8.2v129.1L187.5,418z M178.9,149.3l-0.2,124.1l-7.8-7.8V265h-0.5l-7.7-7.7l0.2-114.3h0v-1.5
								l0-1.5h0V86.3l-7.5-7.5v-0.5h-0.5L139.6,63V-75.5l-11.8-11.8l23.2-23.2V32.3l7.5,7.5V40h0.2L181,62.4v28.1l-10.4,10.4v32.9
								l8.4,8.4V149.3z M220.3,498.5l1.5,1.5l0,0l1.5,1.5l1.8,1.8v30.1L201.4,557v-50.6l6.5-6.5l0,0l1.5-1.5l5.5-5.5L220.3,498.5z
								 M208.2,393.4v47.6l14.3,14.3v23.4l-7.6,7.6l-13.7-13.7v-86.2L208.2,393.4z M216.1,291l-19.8,19.8v63.8l-12.8-12.8l0.1-81.3
								l1.2-1.2l-1.2-1.2l0.2-127.3h0v-1.6l0-1.4h0v-7.7l-8.4-8.4v-28.9l10.4-10.4V60.4l-22.6-22.6v-160.6l10.5-10.5v-50v-3v-24.3
								l18.6-18.6v-39.6l-21.4-21.4v-122.3l7.8,7.8l-0.1,82.6v1l17.7,17.7v93l15.1,15.1l-8.9,8.9h0l-0.6,0.6l-0.9,0.9h0l-4.5,4.5
								v57.4l-21.4,21.4v29.4l11,11v63l-7.6,7.6v38.9l12.8,12.8v100.2l5.1,5.1l0.1,80v1l19.6,19.6L216.1,291z M216.8,146.3
								l-0.6,113.9l-14.8-14.8l-0.1-81l-5.1-5.1V59.1l-12.8-12.8V11.5l7.6-7.6v-67l-11-11v-25.4l16.6-16.6v10.9l20.9,20.9v26.9
								l-24.2,24.2v62.7l9.9,9.9v79.5l13.6,13.6V146.3z M216.8,125.6l-8.8-8.8V44.2l8.8,8.8V125.6z M240.2,450.4l-1.2-1.2l-3-3
								l-15.7-15.7l0.7-137.4l2.9-2.9v133l12.1,12.1v0l4.2,4.2V450.4z M258.1,498.5l1.5,1.5l0,0l1.5,1.5l4.8,4.8v17.5l-15.9,15.9
								v-38.3V500v0v-0.7l4.5-4.5L258.1,498.5z M254.4,488l-9.4-9.4v-16.5l17.6,17.6L254.4,488z M276.5,465.9l-10.4,10.4L245,455.2
								v-17.8l-7.6-7.6v0l-8.8-8.8V285.3l7.3-7.3v0l3.1-3.1l11.8,11.8v44.8l8.9,8.9v100.1l16.7,16.7V465.9z M290.2,415.1v43.3
								l-17.6-17.6v-52l22,22L290.2,415.1z M307.9,424v74.5v1.5v0v1.5v63.3l-3.7,3.7l-9.2-9.2v-45.4l9.8-9.8v-2.6V500v0v-1.5v-25.4
								l-9.8-9.8v-46.1l3-3L307.9,424z M295.1,507.1v-5.6V500v0v-1.5v-28.4l5,5v23.4v1.5v0v1.5v0.6L295.1,507.1z M307.7,333v64.7
								l-9.7,9.7l-22.9-22.9v-75.6l4.2-4.2L307.7,333z M272.7,304.5v-6.6l3.3,3.3L272.7,304.5z M277.6,235.3l9.8,9.8v44.6l-8,8
								l-6.7-6.7v-0.5h-0.5l-5.5-5.5v-29l10.9-10.9V235.3z M272.7,214.5v9.2l-14.4-14.4v-9.2L272.7,214.5z M261.2-16.1V35l-7.2,7.2
								h-0.5v0.5l-0.3,0.3l0.3,0.3v151.1l-0.4,0.4l0.4,0.4v16l19.3,19.3v12.6L261.8,254v33l6,6v148.6l-3.2-3.2V338.4l-8.9-8.9v-44.8
								l-14.2-14.2v-25.1l-5.5-5.5v0l-8.3-8.3v-65.2l8.3-8.6v0l10.1-10.5v-10l-10.1-10.1v0l-10.3-10.3V-30.9l11.8-11.8l12.5-12.5
								v27.9L261.2-16.1z M254.8-66.9v-28.4l-4.8-4.8v-38.1l20.8-20.8v-21.5l-5.8-5.8h0l-7.1-7.1l23.5-23.5v-11.6l8.9,8.9v33.2v3
								v10.4L277-159.6v60.8l4.9,4.9L254.8-66.9z M285.3-97.4l-3.5-3.5v-56.8l8.5-8.5v42.6l10.6,10.6L285.3-97.4z M276.5,174.7
								v-45.3l2.2-5.2h0.7v-1.6l0.4-0.9l-0.4-0.2V-47.1L294.4-62v-26.2l-5.7-5.7l15.5-15.5l6.3,6.3v30.6l-13.2,13.2V99.9l14.8,14.8
								v15.9l-2.8,6.8h-0.4v1l-0.4,0.9l0.4,0.2v47.8l-9.9,9.9L276.5,174.7z M292.8,226.1v-16l6.2-6.2l25.7,25.7v30.5l-5.9,5.9v-13.9
								L292.8,226.1z M333.7,325v173.5v1.5v0v1.5v50.2L320,538v-36.5V500v0v-1.5v-79.3l6.2-6.2v-87.5l-16.8-16.8v-26.4l4.5-4.5v2.4
								l5.1,5.1l-2.8,2.8v19.5L333.7,325z M322.4,83.4v23.8h0.1v68.4l7.6,7.6V274l-7.8,7.8l-3.7-3.7v-5.2l10.7-10.7v-34.5
								l-27.1-27.1l11.3-11.3v-49.9l3.2-7.8v-18.9l-14.8-14.8V-57.3l8.4-8.4V71.6L322.4,83.4z M333.7-95.6l-18.3,18.3v-27.8
								l-7.8-7.8l4.4-4.4l0.7-0.7v-65.3v-3v-76.5l-11.3-11.3l11.1-11.1v-68.7l-29.8-29.8l9.4-9.4v-48.7l-14.7-14.7v-16l-19.3-19.3
								v-148.5l7.7-7.7v-55.1l-11.3-11.3v-30.7l30.5-30.5l4.3,4.3v22.2l-14.9,14.9v170.6l-2.9,6.9v48.3l23.8,23.8l-7.6,7.6v20
								l25.9,25.9v16.8l-9.3,9.3v30.5l16.8,16.8v83.5l-6.2,6.2v81.3v3v38.5l18.5,18.5V-95.6z M333.7-359.8v173.5v3v50.2L320-146.9
								v-36.5v-3v-79.3l6.2-6.2v-87.5l-16.8-16.8v-26.4l4.5-4.5v2.4l5.1,5.1l-2.8,2.8v19.5L333.7-359.8z M322.4-601.5v23.8h0.1v68.4
								l7.6,7.6v90.8l-7.8,7.8l-3.7-3.7v-5.2l10.7-10.7v-34.5l-27.1-27.1l11.3-11.3v-49.9l3.2-7.8v-18.9l-14.8-14.8v-155.2l8.4-8.4
								v137.3L322.4-601.5z"/>
							<polygon class="st3" points="345.1,-450.9 352.5,-443.5 352.5,-445.7 352.5,-448.3 352.5,-450.4 350,-452.9 350,-492.9 
								352.5,-495.4 352.5,-497.5 352.5,-500.1 352.5,-502.2 345.1,-494.9 							"/>
							<polygon class="st1" points="290.2,-123.5 290.2,-166.1 281.8,-157.6 281.8,-100.9 285.3,-97.4 300.8,-112.9 							"/>
							<polygon class="st1" points="238.9,-127.3 235.9,-124.3 225.7,-114 225.7,-37.8 235.9,-48 235.9,-48 249.9,-62 249.9,-93.3 
								245.1,-98.1 245.1,-133.4 							"/>
							<polygon class="st1" points="300.1,-186.4 300.1,-209.8 295.1,-214.8 295.1,-186.4 295.1,-183.4 295.1,-177.8 300.1,-182.8 
								300.1,-183.4 							"/>
							<polygon class="st1" points="350.2,74.1 320.8,44.7 320.8,-32.5 333.7,-45.4 333.7,-88.8 315.4,-70.5 315.4,69.6 327.2,81.4 
								327.2,104.2 327.4,104.2 327.4,173.6 335,181.2 335,276 325.8,285.2 348.4,307.8 348.4,294.4 352.5,290.3 352.5,241.3 
								345.1,234 345.1,189.9 352.5,182.6 352.5,102.2 350.2,99.9 							"/>
							<polygon class="st1" points="290.2,498.5 290.2,465.3 281.3,456.3 281.3,467.9 257.8,491.4 264.9,498.5 266.4,500 290.2,500 
															"/>
							<polygon class="st1" points="350,232 352.5,234.5 352.5,189.5 350,192 							"/>
							<polygon class="st1" points="300.1,498.5 300.1,475.1 295.1,470.1 295.1,498.5 295.1,500 300.1,500 							"/>
							<polygon class="st1" points="338.5,-43.4 325.6,-30.5 325.6,42.7 352.5,69.5 352.5,-107.6 338.5,-93.6 							"/>
							<polygon class="st1" points="245,478.6 254.4,488 262.7,479.7 245,462.1 							"/>
							<polygon class="st1" points="259.8,340.4 250.9,331.4 250.9,286.7 239.1,274.9 235.9,278 235.9,278 228.7,285.3 228.7,421.1 
								237.4,429.8 237.4,429.8 245,437.4 245,455.2 266.1,476.3 276.5,465.9 276.5,457.2 259.8,440.5 							"/>
							<polygon class="st1" points="245.1,500 245.1,498.5 245.1,497.3 251,491.4 240.2,480.6 240.2,457.2 235.9,453 215.4,432.4 
								215.4,431.8 216,297.9 201.2,312.8 201.2,379.4 213.1,391.4 213.1,438.9 227.3,453.2 227.3,480.6 218.3,489.6 228.7,500 
								237.4,500 							"/>
							<polygon class="st1" points="348.4,314.6 322.4,288.6 321,290 321,305.5 338.5,323 338.5,498.5 338.5,500 352.5,500 
								352.5,391 348.4,386.9 							"/>
							<polygon class="st1" points="318.7,266 324.6,260.1 324.6,229.6 299,203.9 292.8,210.1 292.8,226.1 318.7,252.1 							"/>
							<polygon class="st1" points="310.6,-65.7 302.2,-57.3 302.2,97.9 316.9,112.7 316.9,131.5 313.7,139.3 313.7,189.2 
								302.4,200.5 329.5,227.6 329.5,262.1 318.7,272.9 318.7,278.1 322.4,281.8 330.2,274 330.2,183.2 322.5,175.6 322.5,107.2 
								322.4,107.2 322.4,83.4 310.6,71.6 							"/>
							<polygon class="st1" points="249.9,499.3 249.9,500 259.6,500 258.1,498.5 254.4,494.8 							"/>
							<polygon class="st1" points="249.9,-55.2 237.4,-42.7 225.7,-30.9 225.7,116.9 235.9,127.1 235.9,127.1 246.1,137.3 
								246.1,147.2 235.9,157.7 235.9,157.7 227.7,166.3 227.7,231.5 235.9,239.8 235.9,239.8 241.5,245.3 241.5,270.4 255.7,284.7 
								255.7,329.4 264.6,338.4 264.6,438.5 267.8,441.7 267.8,293.1 261.8,287 261.8,254 272.7,243.1 272.7,230.5 253.5,211.2 
								253.5,195.2 253.1,194.9 253.5,194.5 253.5,43.4 253.1,43.1 253.5,42.7 253.5,42.2 254,42.2 261.2,35 261.2,-16.1 
								249.9,-27.3 							"/>
							<polygon class="st1" points="338.5,-121.5 338.5,-100.5 349,-111 							"/>
							<polygon class="st1" points="315.1,-183.4 315.1,-186.4 315.1,-267.7 321.4,-273.9 321.4,-357.4 304.6,-374.2 304.6,-404.6 
								313.9,-414 313.9,-430.8 287.9,-456.7 287.9,-476.7 295.5,-484.3 271.7,-508.2 271.7,-556.5 274.6,-563.3 274.6,-733.9 
								289.6,-748.9 289.6,-771.1 285.3,-775.4 254.8,-744.9 254.8,-714.2 266,-702.9 266,-647.9 258.3,-640.1 258.3,-491.6 
								277.6,-472.4 277.6,-456.4 292.2,-441.7 292.2,-393.1 282.8,-383.6 312.6,-353.9 312.6,-285.2 301.5,-274.1 312.8,-262.8 
								312.8,-186.4 312.8,-183.4 312.8,-118 312.1,-117.3 307.7,-112.9 315.4,-105.2 315.4,-77.4 333.7,-95.6 333.7,-126.3 
								315.1,-144.9 							"/>
							<polygon class="st1" points="277,-159.6 290.2,-172.9 290.2,-183.4 290.2,-186.4 290.2,-219.6 281.3,-228.5 281.3,-217 
								257.8,-193.5 264.9,-186.4 264.9,-186.4 270.7,-180.6 270.7,-159 249.9,-138.3 249.9,-100.1 254.8,-95.3 254.8,-66.9 
								281.9,-94 277,-98.9 							"/>
							<polygon class="st1" points="258.3,209.2 272.7,223.7 272.7,214.5 258.3,200.1 							"/>
							<polygon class="st1" points="272.7,297.9 272.7,304.5 276,301.2 							"/>
							<polygon class="st1" points="316.2,288 319,285.2 313.9,280.1 313.9,277.7 309.4,282.2 309.4,308.7 326.2,325.5 326.2,412.9 
								320,419.2 320,498.5 320,500 333.7,500 333.7,498.5 333.7,325 316.2,307.5 							"/>
							<polygon class="st1" points="315.1,498.5 315.1,417.2 321.4,410.9 321.4,327.5 304.6,310.7 304.6,280.2 313.9,270.9 
								313.9,254.1 287.9,228.2 287.9,208.1 295.5,200.5 271.7,176.7 271.7,128.4 274.6,121.5 274.6,-49.1 289.6,-64 289.6,-86.2 
								285.3,-90.5 254.8,-60 254.8,-29.3 266,-18.1 266,37 258.3,44.7 258.3,193.2 277.6,212.5 277.6,228.5 292.2,243.1 
								292.2,291.8 282.8,301.2 312.6,331 312.6,399.7 301.5,410.8 312.8,422 312.8,498.5 312.8,500 315.1,500 							"/>
							<polygon class="st1" points="266.6,285 272.2,290.6 272.7,290.6 272.7,291.1 279.4,297.8 287.4,289.8 287.4,245.2 
								277.6,235.3 277.6,245.1 266.6,256 							"/>
							<polygon class="st1" points="275.2,308.8 275.2,384.5 298,407.3 307.7,397.6 307.7,333 279.4,304.6 							"/>
							<polygon class="st1" points="272.7,440.8 290.2,458.4 290.2,415.1 294.6,410.8 272.7,388.8 							"/>
							<polygon class="st1" points="308.8,187.2 308.8,139.4 308.5,139.3 308.8,138.3 308.8,137.3 309.3,137.3 312.1,130.6 
								312.1,114.7 297.3,99.9 297.3,-59.3 310.6,-72.5 310.6,-103.2 304.2,-109.5 288.7,-94 294.4,-88.2 294.4,-62 279.5,-47.1 
								279.5,121.4 279.9,121.6 279.5,122.5 279.5,124.1 278.8,124.1 276.5,129.4 276.5,174.7 299,197.1 							"/>
							<polygon class="st1" points="295.1,417.1 295.1,463.3 304.9,473.1 304.9,498.5 304.9,500 307.9,500 307.9,498.5 307.9,424 
								298,414.2 							"/>
							<polygon class="st3" points="345.1,234 352.5,241.3 352.5,239.2 352.5,236.6 352.5,234.5 350,232 350,192 352.5,189.5 
								352.5,187.3 352.5,184.7 352.5,182.6 345.1,189.9 							"/>
							<polygon class="st1" points="85.9,501.5 85.9,539.8 78,547.6 78,557.3 118.2,517.2 118.2,501.5 118.2,500 85.9,500 							
								"/>
							<polygon class="st1" points="152,501.5 152,500 147.3,500 147.3,501.5 147.3,549.6 155.8,558.1 155.8,562.7 158.4,560 
								158.4,542.3 152,536 							"/>
							<polygon class="st1" points="-133.5,501.5 -133.5,556.4 -128.5,551.4 -128.5,501.5 -128.5,500 -133.5,500 							"/>
							<polygon class="st1" points="156.9,501.5 156.9,534 163.2,540.3 163.2,555.2 168.9,549.5 168.9,501.5 168.9,500 156.9,500 
															"/>
							<polygon class="st1" points="-139.4,569.1 -139.4,573.9 -138.3,573.9 -138.3,568.1 							"/>
							<polygon class="st1" points="-118.4,501.5 -118.4,500 -123.7,500 -123.7,501.5 -123.7,553.4 -124.4,554.2 -133.5,563.2 
								-133.5,572.8 -132.4,573.9 -96.1,573.9 -118.4,551.6 							"/>
							<polygon class="st1" points="-144.2,567.1 -144.2,501.5 -144.2,500 -147.5,500 -147.5,570.5 -147.5,570.5 							"/>
							<polygon class="st1" points="-139.4,501.5 -139.4,562.3 -138.3,561.2 -138.3,501.5 -138.3,500 -139.4,500 							"/>
							<polygon class="st1" points="-87.9,506.8 -87.9,501.5 -87.9,500 -113.6,500 -113.6,501.5 -113.6,549.6 -89.3,573.9 
								-67.5,573.9 -67.5,527.2 							"/>
							<polygon class="st1" points="150.9,560.1 142.4,551.6 142.4,501.5 142.4,500 138.1,500 138.1,501.5 138.1,520.4 107.9,550.6 
								107.9,573.9 144.6,573.9 150.9,567.5 							"/>
							<polygon class="st1" points="-39.9,556.4 -39.9,573.9 -24,573.9 -24,572.3 							"/>
							<polygon class="st1" points="-44.7,513.8 -58.5,500 -58.5,500 -83,500 -83,501.5 -83,504.8 -62.7,525.2 -62.7,573.9 
								-44.7,573.9 -44.7,551.6 							"/>
							<polygon class="st1" points="191.5,573.9 196.6,573.9 196.6,568.7 							"/>
							<polygon class="st1" points="133.2,518.4 133.2,501.5 133.2,500 123,500 123,501.5 123,519.2 78,564.2 78,568 83.9,573.9 
								103,573.9 103,548.6 							"/>
							<polygon class="st1" points="50.7,542.8 50.7,501.5 50.7,500 45.2,500 43.7,501.5 31.8,513.4 31.8,573.9 56.5,573.9 
								56.5,548.6 							"/>
							<polygon class="st1" points="38.4,500 15.8,500 15.8,500 26.4,510.6 26.4,573.9 27,573.9 27,511.4 							"/>
							<polygon class="st1" points="10.6,501.6 10.6,573.9 21.6,573.9 21.6,512.6 							"/>
							<polygon class="st1" points="81,501.5 81,500 78.7,500 78.7,501.5 78.7,535 68.5,545.2 68.5,566.9 73.2,562.2 73.2,545.6 
								81,537.8 							"/>
							<polygon class="st1" points="63.7,543.2 73.8,533 73.8,501.5 73.8,500 55.5,500 55.5,501.5 55.5,540.8 61.3,546.6 
								61.3,573.9 61.5,573.9 63.7,571.7 							"/>
							<polygon class="st1" points="5.7,500 -39.9,500 -39.9,501.5 -39.9,511.8 -39.9,549.6 -19.2,570.3 -19.2,573.9 5.7,573.9 
								5.7,501.5 							"/>
							<polygon class="st1" points="73.2,569 68.5,573.7 68.5,573.9 77.1,573.9 73.2,570 							"/>
							<polygon class="st1" points="201.4,506.5 201.4,557 225.1,533.4 225.1,503.3 223.3,501.5 221.8,500 207.9,500 							"/>
							<polygon class="st1" points="235.9,553.8 238.9,550.8 245.1,544.6 245.1,501.5 245.1,500 237.4,500 228.7,500 229.9,501.3 
								229.9,535.4 229.2,536.1 201.4,563.9 201.4,573.9 220.8,573.9 220.8,568.9 							"/>
							<polygon class="st1" points="196.6,504.5 201.1,500 201.1,500 173.8,500 173.8,501.5 173.8,551.5 163.2,562.1 163.2,573.9 
								184.6,573.9 196.6,561.9 							"/>
							<polygon class="st1" points="155.8,569.5 155.8,573.9 158.4,573.9 158.4,566.9 							"/>
							<polygon class="st1" points="-51.7,500 -44.7,506.9 -44.7,501.5 -44.7,500 -51.7,500 							"/>
							<polygon class="st1" points="238.9,557.6 235.9,560.6 225.7,570.9 225.7,573.9 237.4,573.9 245.1,573.9 245.1,551.4 							
								"/>
							<polygon class="st1" points="300.1,500 295.1,500 295.1,501.5 295.1,507.1 300.1,502.1 300.1,501.5 							"/>
							<polygon class="st1" points="338.5,573.9 349,573.9 338.5,563.4 							"/>
							<polygon class="st1" points="304.9,501.5 304.9,504.1 295.1,513.9 295.1,559.4 304.2,568.5 307.9,564.8 307.9,501.5 
								307.9,500 304.9,500 							"/>
							<polygon class="st1" points="338.5,556.5 352.5,570.5 352.5,500 338.5,500 338.5,501.5 							"/>
							<polygon class="st1" points="290.2,511.9 290.2,501.5 290.2,500 266.4,500 267.9,501.5 270.7,504.3 270.7,525.8 249.9,546.6 
								249.9,573.9 277,573.9 277,525.2 							"/>
							<polygon class="st1" points="249.9,501.5 249.9,539.8 265.9,523.8 265.9,506.3 261.1,501.5 259.6,500 249.9,500 							"/>
							<polygon class="st1" points="290.2,561.4 290.2,518.8 281.8,527.2 281.8,573.9 298.9,573.9 300.8,571.9 							"/>
							<polygon class="st1" points="315.1,540 315.1,501.5 315.1,500 312.8,500 312.8,501.5 312.8,566.8 312.1,567.5 307.7,571.9 
								309.6,573.9 333.7,573.9 333.7,558.5 							"/>
							<polygon class="st1" points="320,501.5 320,538 333.7,551.7 333.7,501.5 333.7,500 320,500 							"/>
						</g>
					</g>
				</g>
			</g>
		</g>
		
			<linearGradient id="SVGID_3_" gradientUnits="userSpaceOnUse" x1="173" y1="-272" x2="173" y2="-672" gradientTransform="matrix(1 0 0 1 0 672)">
			<stop  offset="0" style="stop-color:#DED09E"/>
			<stop  offset="0.2" style="stop-color:#D8CB9A"/>
			<stop  offset="0.5" style="stop-color:#CFC393"/>
			<stop  offset="0.7" style="stop-color:#877D52"/>
		</linearGradient>
		<path class="st4" d="M173,33.5l144.2,83.2v166.6L173,366.5L28.8,283.3V116.7L173,33.5 M173,0L-0.2,100v200L173,400l173.2-100V100
			L173,0z"/>
		<path class="st5" d="M173,28.9l148.2,85.5v171.2L173,371L24.8,285.6V114.4L173,29 M173,0L-0.2,100v200L173,400l173.2-100V100
			L173,0z"/>
		<path class="st6" d="M173,15l160.2,92.5v185L173,385L12.8,292.5v-185L173,15 M173,0L-0.2,100v200L173,400l173.2-100V100L173,0z"/>
		<path class="st5" d="M173,12.7l162.2,93.6v187.3L173,387.3L10.8,293.6V106.4L173,12.7 M173,0L-0.2,100v200L173,400l173.2-100V100
			L173,0z"/>
		<g class="st7">
			<path class="st8" d="M63.6,141.7c-4,0-8.1,2.6-8.1,5.2s3.6,6.5,7.3,4.7c6.3-3,7.2-3.3,7.2-5.9S67.7,141.7,63.6,141.7z
				 M75.4,130.2c-5.4,0-10.1,3.4-10.1,6.6c0,3.2,4.6,7.3,9.8,5.8c4.3-1.2,6.1-3,9.8-5.8C87.4,134.8,80.9,130.2,75.4,130.2z
				 M91.8,136.1c-2.2,0-4.7,0.2-5,2.2c-0.2,2.6,2,1.8,5,1.8s6,1.3,6-0.5S94.2,136.2,91.8,136.1z M260.4,148.8
				c-5.2-0.4-10.6,2.7-11,6.3c-0.3,3.6,3.9,9.4,8.8,7.4c8.3-3.4,9.5-3.7,9.8-7.4C268.3,151.5,265.5,149.3,260.4,148.8L260.4,148.8z"
				/>
			<path class="st8" d="M276.7,134.3c-6.9-0.6-13.2,3.5-13.6,8s5,10.6,11.7,9.1c5.6-1.2,8.1-3.4,13.1-7
				C291.3,142,283.5,134.9,276.7,134.3z M296.7,144.3c-2.8-0.3-6-0.3-6.5,2.4c-0.7,3.6,2.2,2.7,6,3c3.8,0.4,7.4,2.6,7.7,0
				C304.1,147.1,299.7,144.7,296.7,144.3z"/>
			<path class="st8" d="M202.3,199c-5.1-0.5-10.5,2.7-10.8,6.3s3.9,9.3,8.7,7.3c8.3-3.4,9.5-3.8,9.8-7.4S207.5,199.4,202.3,199
				L202.3,199z M218.6,184.3c-6.9-0.6-13.2,3.6-13.6,8c-0.3,4.5,5,10.7,11.8,9.1c5.6-1.2,8-3.4,13-7
				C233.3,191.9,225.4,184.8,218.6,184.3z M238.7,194.2c-2.9-0.3-6-0.3-6.5,2.4c-0.7,3.6,2.2,2.8,6,3c3.8,0.4,7.4,2.6,7.6,0
				S241.7,194.6,238.7,194.2z"/>
		</g>
		<g class="st7">
			<path class="st9" d="M170.4,152.1c-5.6,0-8.9-1.2-10.6-4c-1.6-2.5-1.6-5.8-1.5-10.1v-12.3h-9.8c-0.7,0-1.5-0.1-2.2-0.3
				c-3.9-1.3-4.4-5.4-4.4-9.2l0.1-9.3c0-2.3,1-5,5.8-5c4.2,0,6.1,2.2,6.1,6.8v2.4h4.4V66.4c0-4.1,5.7-9.4,12-9.4h4.2
				c6.7,0,12.1,5.4,12.1,12.1v20.1h4V83c0-6.3,3.2-9.7,9-9.7s9.1,3.4,9.1,9.7l-0.4,16.1c0,6.3-3.5,8.6-6.4,9.4h-0.2
				c-1,0.3-2,0.4-3.2,0.4h-11.9v32.6c0.1,3,0.2,5.9-2,8c-1.8,1.9-5,2.7-10,2.7L170.4,152.1L170.4,152.1z"/>
			<path class="st9" d="M0,0"/>
		</g>
		<g class="st7">
			<path class="st10" d="M199.8,103.4c-1.4,0-5.2,1-7.7-1V90.6h-7V69c0-6-5.2-9.9-8.3-10.2c-0.4,3.2,0,87.4,0,89
				c0,1.5-1.5,1.9-1.8,1.8c-7.4,0.5-9-0.3-13.5-3c-1-1.3-0.7-23.6-0.7-23.6c-0.9-0.2-3-0.3-4.4-0.3h-4l-7,0.2c0,1.4,4.4,1.3,6,1.3
				h8.3v13.2c0,8.5-0.3,13.3,10.7,13.3h4c11.8,0,10.7-4.8,10.7-10.7v-32.7h13.4c1,0,2,0,2.8-0.3h0.2c3.5-1,5.3-3.7,5.3-8l0.3-17.4
				c0-4.3-4.9-7.6-5.4-6c-1.8,5.7,1.4,27.7-1.9,27.9L199.8,103.4z"/>
		</g>
		<g class="st7">
			<path class="st11" d="M146.5,102.8h-1.2v18.4h14.2V120h-13V102.8z"/>
			<path class="st11" d="M150.2,116.4v-13.8H149v15h10.6v-1.2H150.2z M196.1,73.8h1.2v22.8h-1.2V73.8z M202.4,74.4h1.2v28.4h-1.2
				V74.4z"/>
			<path class="st11" d="M185,101.7h18.4v1.2H185V101.7z M185,95.4h11.7v1.2H185V95.4z"/>
			<g class="st12">
				<path class="st13" d="M171.9,56.9h1.5v95.8h-1.5V56.9z M164.1,56.9h1.5v95.8h-1.5V56.9z M179.1,56.9h1.5v95.8h-1.5V56.9z"/>
			</g>
		</g>
	</g>
</g>
</svg>
