<?xml version="1.0" encoding="utf-8"?>
<!-- Generator: Adobe Illustrator 24.1.1, SVG Export Plug-In . SVG Version: 6.00 Build 0)  -->
<svg version="1.1" id="Layer_1" xmlns="http://www.w3.org/2000/svg" xmlns:xlink="http://www.w3.org/1999/xlink" x="0px" y="0px"
	 viewBox="0 0 346 400" style="enable-background:new 0 0 346 400;" xml:space="preserve">
<style type="text/css">
	.st0{clip-path:url(#SVGID_2_);}
	.st1{fill:#030000;}
	.st2{fill:#626267;}
	.st3{display:none;fill:url(#SVGID_3_);}
	.st4{fill:#151313;}
	.st5{display:none;fill:#877D52;}
	.st6{display:none;}
	.st7{display:inline;fill:#D1B886;}
	.st8{display:inline;fill:#B5B57C;}
	.st9{display:inline;fill:#918E5A;}
	.st10{display:inline;fill:#4D491A;}
	.st11{display:inline;}
	.st12{fill:#4D491A;}
</style>
<g id="Hexagons">
	<g id="Desert">
		<g>
			<g>
				<g>
					<g>
						<g>
							<defs>
								<polygon id="SVGID_1_" points="-0.2,100 -0.2,300 173,400 346.2,300 346.2,100 173,0 								"/>
							</defs>
							<clipPath id="SVGID_2_">
								<use xlink:href="#SVGID_1_"  style="overflow:visible;"/>
							</clipPath>
							<g class="st0">
								<path class="st1" d="M94.5-185.4c0,0.3,0,0.5-0.1,0.8l33.1,19.1c0.9-0.7,2-1.1,3.3-1.1c1.2,0,2.4,0.4,3.3,1.1l33.1-19.1
									c0-0.2-0.1-0.5-0.1-0.8v0c0,0,0,0,0,0c0-0.3,0-0.5,0.1-0.8l-33.1-19.1c-0.9,0.7-2,1.1-3.3,1.1c-1.2,0-2.4-0.4-3.3-1.1
									l-33.1,19.1C94.5-185.9,94.5-185.7,94.5-185.4z"/>
								<path class="st1" d="M50.8-69.3l33.1-19.1c0-0.2-0.1-0.5-0.1-0.8s0-0.5,0.1-0.8l-33.1-19.1c-0.9,0.7-2,1.1-3.3,1.1
									c-1.2,0-2.4-0.4-3.3-1.1L11.1-89.9c0,0.2,0.1,0.5,0.1,0.8s0,0.5-0.1,0.8l33.1,19.1c0.9-0.7,2-1.1,3.3-1.1
									C48.7-70.4,49.9-70,50.8-69.3z"/>
								<path class="st1" d="M-30.5-257.6c0,2.2-1.4,4.1-3.3,4.9v38.3c2,0.8,3.3,2.7,3.3,4.9c0,0.3,0,0.5-0.1,0.8l33.1,19.1
									c0.9-0.7,2-1.1,3.3-1.1c1.2,0,2.4,0.4,3.3,1.1l33.1-19.1c0-0.2-0.1-0.5-0.1-0.8c0-2.2,1.4-4.1,3.3-4.9v-38.3
									c-2-0.8-3.3-2.7-3.3-4.9c0-0.3,0-0.5,0.1-0.8L9.1-277.5c-0.9,0.7-2,1.1-3.3,1.1c-1.2,0-2.4-0.4-3.3-1.1l-33.1,19.1
									C-30.5-258.1-30.5-257.8-30.5-257.6z"/>
								<path class="st1" d="M136.1-257.6c0,2.2-1.4,4.1-3.3,4.9v38.3c2,0.8,3.3,2.7,3.3,4.9c0,0.3,0,0.5-0.1,0.8l33.1,19.1
									c0.4-0.3,0.8-0.5,1.2-0.7c0.3-0.1,0.7-0.2,1.1-0.3v-0.1h1c0.7,0,1.4,0.1,2.1,0.4c0.4,0.2,0.8,0.4,1.2,0.7l33.1-19.1
									c0-0.2-0.1-0.5-0.1-0.8c0-2.2,1.4-4.1,3.3-4.9v-38.3c-2-0.8-3.3-2.7-3.3-4.9c0-0.3,0-0.5,0.1-0.8l-33.1-19.1
									c-0.9,0.7-2,1.1-3.3,1.1h-1v-0.1c-0.8-0.2-1.6-0.5-2.3-1l-33.1,19.1C136.1-258.1,136.1-257.8,136.1-257.6z"/>
								<path class="st1" d="M94.5-89.2c0,0.3,0,0.5-0.1,0.8l33.1,19.1c0.9-0.7,2-1.1,3.3-1.1c1.2,0,2.4,0.4,3.3,1.1l33.1-19.1
									c0-0.2-0.1-0.5-0.1-0.8c0-0.3,0-0.5,0.1-0.8l-33.1-19.1c-0.9,0.7-2,1.1-3.3,1.1c-1.2,0-2.4-0.4-3.3-1.1L94.4-89.9
									C94.5-89.7,94.5-89.4,94.5-89.2z"/>
								<path class="st1" d="M-32.6-165.5l33.1-19.1c0-0.2-0.1-0.5-0.1-0.8c0-0.3,0-0.5,0.1-0.8l-33.1-19.1c-0.9,0.7-2,1.1-3.3,1.1
									c-1.2,0-2.4-0.4-3.3-1.1l-33.1,19.1c0,0.2,0.1,0.5,0.1,0.8c0,0.3,0,0.5-0.1,0.8l33.1,19.1c0.9-0.7,2-1.1,3.3-1.1
									C-34.6-166.7-33.5-166.2-32.6-165.5z"/>
								<path class="st1" d="M-32.6-69.3L0.6-88.4c0-0.2-0.1-0.5-0.1-0.8s0-0.5,0.1-0.8l-33.1-19.1c-0.9,0.7-2,1.1-3.3,1.1
									c-1.2,0-2.4-0.4-3.3-1.1l-33.1,19.1c0,0.2,0.1,0.5,0.1,0.8s0,0.5-0.1,0.8l33.1,19.1c0.9-0.7,2-1.1,3.3-1.1
									C-34.6-70.4-33.5-70-32.6-69.3z"/>
								<path class="st1" d="M52.8-257.6c0,2.2-1.4,4.1-3.3,4.9v38.3c2,0.8,3.3,2.7,3.3,4.9c0,0.3,0,0.5-0.1,0.8l33.1,19.1
									c0.9-0.7,2-1.1,3.3-1.1c1.2,0,2.4,0.4,3.3,1.1l33.1-19.1c0-0.2-0.1-0.5-0.1-0.8c0-2.2,1.4-4.1,3.3-4.9v-38.3
									c-2-0.8-3.3-2.7-3.3-4.9c0-0.3,0-0.5,0.1-0.8l-33.1-19.1c-0.9,0.7-2,1.1-3.3,1.1c-1.2,0-2.4-0.4-3.3-1.1l-33.1,19.1
									C52.8-258.1,52.8-257.8,52.8-257.6z"/>
								<path class="st1" d="M11.1-185.4c0,0.3,0,0.5-0.1,0.8l33.1,19.1c0.9-0.7,2-1.1,3.3-1.1c1.2,0,2.4,0.4,3.3,1.1l33.1-19.1
									c0-0.2-0.1-0.5-0.1-0.8c0-0.3,0-0.5,0.1-0.8l-33.1-19.1c-0.9,0.7-2,1.1-3.3,1.1c-1.2,0-2.4-0.4-3.3-1.1l-33.1,19.1
									C11.1-185.9,11.1-185.7,11.1-185.4z"/>
								<path class="st1" d="M-30.5-17c0,0.3,0,0.5-0.1,0.8L2.6,2.9c0.9-0.7,2-1.1,3.3-1.1c1.2,0,2.4,0.4,3.3,1.1l33.1-19.1
									c0-0.2-0.1-0.5-0.1-0.8c0-2.2,1.4-4.1,3.3-4.9v-38.3c-2-0.8-3.3-2.7-3.3-4.9c0-0.3,0-0.5,0.1-0.8L9.1-85
									c-0.9,0.7-2,1.1-3.3,1.1c-1.2,0-2.4-0.4-3.3-1.1l-33.1,19.1c0,0.2,0.1,0.5,0.1,0.8c0,2.2-1.4,4.1-3.3,4.9v38.3
									C-31.9-21.2-30.5-19.2-30.5-17z"/>
								<path class="st1" d="M-41.1-208.7c0-0.2-0.1-0.5-0.1-0.8c0-2.2,1.4-4.1,3.3-4.9v-38.3c-2-0.8-3.3-2.7-3.3-4.9
									c0-0.3,0-0.5,0.1-0.8l-33.1-19.1c-0.9,0.7-2,1.1-3.3,1.1v85.6c1.2,0,2.4,0.4,3.3,1.1L-41.1-208.7z"/>
								<path class="st1" d="M-41.1-112.5c0-0.2-0.1-0.5-0.1-0.8c0-2.2,1.4-4.1,3.3-4.9v-38.3c-2-0.8-3.3-2.7-3.3-4.9
									c0-0.3,0-0.5,0.1-0.8l-33.1-19.1c-0.9,0.7-2,1.1-3.3,1.1v85.6c1.2,0,2.4,0.4,3.3,1.1L-41.1-112.5z"/>
								<path class="st1" d="M52.8-161.3c0,2.2-1.4,4.1-3.3,4.9v38.3c2,0.8,3.3,2.7,3.3,4.9c0,0.3,0,0.5-0.1,0.8l33.1,19.1
									c0.9-0.7,2-1.1,3.3-1.1c1.2,0,2.4,0.4,3.3,1.1l33.1-19.1c0-0.2-0.1-0.5-0.1-0.8c0-2.2,1.4-4.1,3.3-4.9v-38.3
									c-2-0.8-3.3-2.7-3.3-4.9c0-0.3,0-0.5,0.1-0.8l-33.1-19.1c-0.9,0.7-2,1.1-3.3,1.1c-1.2,0-2.4-0.4-3.3-1.1l-33.1,19.1
									C52.8-161.9,52.8-161.6,52.8-161.3z"/>
								<path class="st1" d="M-41.1-16.2c0-0.2-0.1-0.5-0.1-0.8c0-2.2,1.4-4.1,3.3-4.9v-38.3c-2-0.8-3.3-2.7-3.3-4.9
									c0-0.3,0-0.5,0.1-0.8L-74.2-85c-0.9,0.7-2,1.1-3.3,1.1V1.7c1.2,0,2.4,0.4,3.3,1.1L-41.1-16.2z"/>
								<path class="st1" d="M-30.5-113.2c0,0.3,0,0.5-0.1,0.8L2.6-93.3c0.9-0.7,2-1.1,3.3-1.1c1.2,0,2.4,0.4,3.3,1.1l33.1-19.1
									c0-0.2-0.1-0.5-0.1-0.8c0-2.2,1.4-4.1,3.3-4.9v-38.3c-2-0.8-3.3-2.7-3.3-4.9c0-0.3,0-0.5,0.1-0.8L9.1-181.2
									c-0.9,0.7-2,1.1-3.3,1.1c-1.2,0-2.4-0.4-3.3-1.1l-33.1,19.1c0,0.2,0.1,0.5,0.1,0.8c0,2.2-1.4,4.1-3.3,4.9v38.3
									C-31.9-117.4-30.5-115.5-30.5-113.2z"/>
								<path class="st1" d="M136.1-161.3c0,2.2-1.4,4.1-3.3,4.9v38.3c2,0.8,3.3,2.7,3.3,4.9c0,0.3,0,0.5-0.1,0.8l33.1,19.1
									c0.7-0.5,1.4-0.9,2.3-1v-0.1h1c1.2,0,2.4,0.4,3.3,1.1l33.1-19.1c0-0.2-0.1-0.5-0.1-0.8c0-2.2,1.4-4.1,3.3-4.9v-38.3
									c-2-0.8-3.3-2.7-3.3-4.9c0-0.3,0-0.5,0.1-0.8l-33.1-19.1c-0.4,0.3-0.8,0.5-1.2,0.7c-0.6,0.3-1.3,0.4-2.1,0.4h-1v-0.1
									c-0.4-0.1-0.7-0.2-1.1-0.3c-0.4-0.2-0.8-0.4-1.2-0.7l-33.1,19.1C136.1-161.9,136.1-161.6,136.1-161.3z"/>
								<path class="st1" d="M11.1-280.9l33.1,19.1c0.9-0.7,2-1.1,3.3-1.1c1.2,0,2.4,0.4,3.3,1.1l33.1-19.1c0-0.2-0.1-0.5-0.1-0.8v0
									H11.1v0C11.1-281.4,11.1-281.1,11.1-280.9z"/>
								<path class="st1" d="M94.4-280.9l33.1,19.1c0.9-0.7,2-1.1,3.3-1.1c1.2,0,2.4,0.4,3.3,1.1l33.1-19.1c0-0.2-0.1-0.5-0.1-0.8v0
									H94.5v0C94.5-281.4,94.5-281.1,94.4-280.9z"/>
								<path class="st1" d="M92.4,2.9l33.1-19.1c0-0.2-0.1-0.5-0.1-0.8c0-2.2,1.4-4.1,3.3-4.9v-38.3c-2-0.8-3.3-2.7-3.3-4.9
									c0-0.3,0-0.5,0.1-0.8L92.4-85c-0.9,0.7-2,1.1-3.3,1.1c-1.2,0-2.4-0.4-3.3-1.1L52.8-65.9c0,0.2,0.1,0.5,0.1,0.8
									c0,2.2-1.4,4.1-3.3,4.9v38.3c2,0.8,3.3,2.7,3.3,4.9c0,0.3,0,0.5-0.1,0.8L85.9,2.9c0.9-0.7,2-1.1,3.3-1.1
									C90.4,1.7,91.5,2.2,92.4,2.9z"/>
								<path class="st1" d="M-72.3-280.9l33.1,19.1c0.9-0.7,2-1.1,3.3-1.1c1.2,0,2.4,0.4,3.3,1.1l33.1-19.1c0-0.2-0.1-0.5-0.1-0.8
									v0h-72.7v0C-72.2-281.4-72.2-281.1-72.3-280.9z"/>
								<path class="st1" d="M-32.6,315.6l33.1-19.1c0-0.2-0.1-0.5-0.1-0.8c0-0.3,0-0.5,0.1-0.8l-33.1-19.1c-0.9,0.7-2,1.1-3.3,1.1
									c-1.2,0-2.4-0.4-3.3-1.1L-72.3,295c0,0.2,0.1,0.5,0.1,0.8c0,0.3,0,0.5-0.1,0.8l33.1,19.1c0.9-0.7,2-1.1,3.3-1.1
									C-34.6,314.5-33.5,314.9-32.6,315.6z"/>
								<path class="st1" d="M92.4,99.1L125.6,80c0-0.2-0.1-0.5-0.1-0.8c0-2.2,1.4-4.1,3.3-4.9V36c-2-0.8-3.3-2.7-3.3-4.9
									c0-0.3,0-0.5,0.1-0.8L92.4,11.2c-0.9,0.7-2,1.1-3.3,1.1c-1.2,0-2.4-0.4-3.3-1.1L52.8,30.3c0,0.2,0.1,0.5,0.1,0.8
									c0,2.2-1.4,4.1-3.3,4.9v38.3c2,0.8,3.3,2.7,3.3,4.9c0,0.3,0,0.5-0.1,0.8l33.1,19.1c0.9-0.7,2-1.1,3.3-1.1
									C90.4,98,91.5,98.4,92.4,99.1z"/>
								<path class="st1" d="M-41.1,368.7c0-0.2-0.1-0.5-0.1-0.8c0-2.2,1.4-4.1,3.3-4.9v-38.3c-2-0.8-3.3-2.7-3.3-4.9
									c0-0.3,0-0.5,0.1-0.8l-33.1-19.1c-0.9,0.7-2,1.1-3.3,1.1v85.6c1.2,0,2.4,0.4,3.3,1.1L-41.1,368.7z"/>
								<path class="st1" d="M0.5,391.2l-33.1-19.1c-0.9,0.7-2,1.1-3.3,1.1c-1.2,0-2.4-0.4-3.3-1.1l-33.1,19.1v0.8H0.5V391.2z"/>
								<path class="st1" d="M-41.1,272.4c0-0.2-0.1-0.5-0.1-0.8c0-2.2,1.4-4.1,3.3-4.9v-38.3c-2-0.8-3.3-2.7-3.3-4.9
									c0-0.3,0-0.5,0.1-0.8l-33.1-19.1c-0.9,0.7-2,1.1-3.3,1.1v85.6c1.2,0,2.4,0.4,3.3,1.1L-41.1,272.4z"/>
								<path class="st1" d="M-41.1,176.2c0-0.2-0.1-0.5-0.1-0.8c0-2.2,1.4-4.1,3.3-4.9v-38.3c-2-0.8-3.3-2.7-3.3-4.9
									c0-0.3,0-0.5,0.1-0.8l-33.1-19.1c-0.9,0.7-2,1.1-3.3,1.1v85.6c1.2,0,2.4,0.4,3.3,1.1L-41.1,176.2z"/>
								<path class="st1" d="M92.4,195.3l33.1-19.1c0-0.2-0.1-0.5-0.1-0.8c0-2.2,1.4-4.1,3.3-4.9v-38.3c-2-0.8-3.3-2.7-3.3-4.9
									c0-0.3,0-0.5,0.1-0.8l-33.1-19.1c-0.9,0.7-2,1.1-3.3,1.1c-1.2,0-2.4-0.4-3.3-1.1l-33.1,19.1c0,0.2,0.1,0.5,0.1,0.8
									c0,2.2-1.4,4.1-3.3,4.9v38.3c2,0.8,3.3,2.7,3.3,4.9c0,0.3,0,0.5-0.1,0.8l33.1,19.1c0.9-0.7,2-1.1,3.3-1.1
									C90.4,194.2,91.5,194.6,92.4,195.3z"/>
								<path class="st1" d="M-41.1,80c0-0.2-0.1-0.5-0.1-0.8c0-2.2,1.4-4.1,3.3-4.9V36c-2-0.8-3.3-2.7-3.3-4.9c0-0.3,0-0.5,0.1-0.8
									l-33.1-19.1c-0.9,0.7-2,1.1-3.3,1.1V98c1.2,0,2.4,0.4,3.3,1.1L-41.1,80z"/>
								<path class="st1" d="M50.8,315.6l33.1-19.1c0-0.2-0.1-0.5-0.1-0.8c0-0.3,0-0.5,0.1-0.8l-33.1-19.1c-0.9,0.7-2,1.1-3.3,1.1
									c-1.2,0-2.4-0.4-3.3-1.1L11.1,295c0,0.2,0.1,0.5,0.1,0.8c0,0.3,0,0.5-0.1,0.8l33.1,19.1c0.9-0.7,2-1.1,3.3-1.1
									C48.7,314.5,49.9,314.9,50.8,315.6z"/>
								<path class="st1" d="M-32.6,26.9L0.6,7.8c0-0.2-0.1-0.5-0.1-0.8V6.3L0.2,6h0l-32.7-18.9c-0.9,0.7-2,1.1-3.3,1.1
									c-1.2,0-2.4-0.4-3.3-1.1L-71.8,6h0l-0.4,0.2V7c0,0.3,0,0.5-0.1,0.8l33.1,19.1c0.9-0.7,2-1.1,3.3-1.1
									C-34.6,25.8-33.5,26.2-32.6,26.9z"/>
								<path class="st1" d="M92.4,291.6l33.1-19.1c0-0.2-0.1-0.5-0.1-0.8c0-2.2,1.4-4.1,3.3-4.9v-38.3c-2-0.8-3.3-2.7-3.3-4.9
									c0-0.3,0-0.5,0.1-0.8l-33.1-19.1c-0.9,0.7-2,1.1-3.3,1.1c-1.2,0-2.4-0.4-3.3-1.1l-33.1,19.1c0,0.2,0.1,0.5,0.1,0.8
									c0,2.2-1.4,4.1-3.3,4.9v38.3c2,0.8,3.3,2.7,3.3,4.9c0,0.3,0,0.5-0.1,0.8l33.1,19.1c0.9-0.7,2-1.1,3.3-1.1
									C90.4,290.4,91.5,290.8,92.4,291.6z"/>
								<path class="st1" d="M134.1,219.4l33.1-19.1c0-0.2-0.1-0.5-0.1-0.8c0-0.3,0-0.5,0.1-0.8l-33.1-19.1c-0.9,0.7-2,1.1-3.3,1.1
									c-1.2,0-2.4-0.4-3.3-1.1l-33.1,19.1c0,0.2,0.1,0.5,0.1,0.8c0,0.3,0,0.5-0.1,0.8l33.1,19.1c0.9-0.7,2-1.1,3.3-1.1
									C132.1,218.2,133.2,218.7,134.1,219.4z"/>
								<path class="st1" d="M-32.6,123.2L0.6,104c0-0.2-0.1-0.5-0.1-0.8c0-0.3,0-0.5,0.1-0.8l-33.1-19.1c-0.9,0.7-2,1.1-3.3,1.1
									c-1.2,0-2.4-0.4-3.3-1.1l-33.1,19.1c0,0.2,0.1,0.5,0.1,0.8c0,0.3,0,0.5-0.1,0.8l33.1,19.1c0.9-0.7,2-1.1,3.3-1.1
									C-34.6,122-33.5,122.5-32.6,123.2z"/>
								<path class="st1" d="M-30.5,175.4c0,0.3,0,0.5-0.1,0.8l33.1,19.1c0.9-0.7,2-1.1,3.3-1.1c1.2,0,2.4,0.4,3.3,1.1l33.1-19.1
									c0-0.2-0.1-0.5-0.1-0.8c0-2.2,1.4-4.1,3.3-4.9v-38.3c-2-0.8-3.3-2.7-3.3-4.9c0-0.3,0-0.5,0.1-0.8L9.1,107.4
									c-0.9,0.7-2,1.1-3.3,1.1c-1.2,0-2.4-0.4-3.3-1.1l-33.1,19.1c0,0.2,0.1,0.5,0.1,0.8c0,2.2-1.4,4.1-3.3,4.9v38.3
									C-31.9,171.3-30.5,173.2-30.5,175.4z"/>
								<path class="st1" d="M-30.5,367.9c0,0.3,0,0.5-0.1,0.8l33.1,19.1c0.9-0.7,2-1.1,3.3-1.1c1.2,0,2.4,0.4,3.3,1.1l33.1-19.1
									c0-0.2-0.1-0.5-0.1-0.8c0-2.2,1.4-4.1,3.3-4.9v-38.3c-2-0.8-3.3-2.7-3.3-4.9c0-0.3,0-0.5,0.1-0.8L9.1,299.9
									c-0.9,0.7-2,1.1-3.3,1.1c-1.2,0-2.4-0.4-3.3-1.1L-30.6,319c0,0.2,0.1,0.5,0.1,0.8c0,2.2-1.4,4.1-3.3,4.9V363
									C-31.9,363.8-30.5,365.7-30.5,367.9z"/>
								<path class="st1" d="M-32.6,219.4l33.1-19.1c0-0.2-0.1-0.5-0.1-0.8c0-0.3,0-0.5,0.1-0.8l-33.1-19.1c-0.9,0.7-2,1.1-3.3,1.1
									c-1.2,0-2.4-0.4-3.3-1.1l-33.1,19.1c0,0.2,0.1,0.5,0.1,0.8c0,0.3,0,0.5-0.1,0.8l33.1,19.1c0.9-0.7,2-1.1,3.3-1.1
									C-34.6,218.2-33.5,218.7-32.6,219.4z"/>
								<path class="st1" d="M50.8,26.9L83.9,7.8c0-0.2-0.1-0.5-0.1-0.8V6.3L83.5,6h0L50.8-12.8c-0.9,0.7-2,1.1-3.3,1.1
									c-1.2,0-2.4-0.4-3.3-1.1L11.5,6h0l-0.4,0.2V7c0,0.3,0,0.5-0.1,0.8l33.1,19.1c0.9-0.7,2-1.1,3.3-1.1
									C48.7,25.8,49.9,26.2,50.8,26.9z"/>
								<path class="st1" d="M50.8,219.4l33.1-19.1c0-0.2-0.1-0.5-0.1-0.8c0-0.3,0-0.5,0.1-0.8l-33.1-19.1c-0.9,0.7-2,1.1-3.3,1.1
									c-1.2,0-2.4-0.4-3.3-1.1l-33.1,19.1c0,0.2,0.1,0.5,0.1,0.8c0,0.3,0,0.5-0.1,0.8l33.1,19.1c0.9-0.7,2-1.1,3.3-1.1
									C48.7,218.2,49.9,218.7,50.8,219.4z"/>
								<path class="st1" d="M50.8,123.2L83.9,104c0-0.2-0.1-0.5-0.1-0.8c0-0.3,0-0.5,0.1-0.8L50.8,83.4c-0.9,0.7-2,1.1-3.3,1.1
									c-1.2,0-2.4-0.4-3.3-1.1l-33.1,19.1c0,0.2,0.1,0.5,0.1,0.8c0,0.3,0,0.5-0.1,0.8l33.1,19.1c0.9-0.7,2-1.1,3.3-1.1
									C48.7,122,49.9,122.5,50.8,123.2z"/>
								<path class="st1" d="M85.9,387.8c0.9-0.7,2-1.1,3.3-1.1c1.2,0,2.4,0.4,3.3,1.1l33.1-19.1c0-0.2-0.1-0.5-0.1-0.8
									c0-2.2,1.4-4.1,3.3-4.9v-38.3c-2-0.8-3.3-2.7-3.3-4.9c0-0.3,0-0.5,0.1-0.8l-33.1-19.1c-0.9,0.7-2,1.1-3.3,1.1
									c-1.2,0-2.4-0.4-3.3-1.1L52.8,319c0,0.2,0.1,0.5,0.1,0.8c0,2.2-1.4,4.1-3.3,4.9V363c2,0.8,3.3,2.7,3.3,4.9
									c0,0.3,0,0.5-0.1,0.8L85.9,387.8z"/>
								<path class="st1" d="M83.9,391.2l-33.1-19.1c-0.9,0.7-2,1.1-3.3,1.1c-1.2,0-2.4-0.4-3.3-1.1l-33.1,19.1v0.8h72.7V391.2z"/>
								<path class="st1" d="M-30.5,79.2c0,0.3,0,0.5-0.1,0.8L2.6,99.1c0.9-0.7,2-1.1,3.3-1.1c1.2,0,2.4,0.4,3.3,1.1L42.3,80
									c0-0.2-0.1-0.5-0.1-0.8c0-2.2,1.4-4.1,3.3-4.9V36c-2-0.8-3.3-2.7-3.3-4.9c0-0.3,0-0.5,0.1-0.8L9.1,11.2
									c-0.9,0.7-2,1.1-3.3,1.1c-1.2,0-2.4-0.4-3.3-1.1l-33.1,19.1c0,0.2,0.1,0.5,0.1,0.8c0,2.2-1.4,4.1-3.3,4.9v38.3
									C-31.9,75.1-30.5,77-30.5,79.2z"/>
								<path class="st1" d="M134.1,26.9l33.1-19.1c0-0.2-0.1-0.5-0.1-0.8V6.3L166.8,6h0l-32.7-18.9c-0.9,0.7-2,1.1-3.3,1.1
									c-1.2,0-2.4-0.4-3.3-1.1L94.8,6h0l-0.4,0.2V7c0,0.3,0,0.5-0.1,0.8l33.1,19.1c0.9-0.7,2-1.1,3.3-1.1
									C132.1,25.8,133.2,26.2,134.1,26.9z"/>
								<path class="st1" d="M134.1,123.2l33.1-19.1c0-0.2-0.1-0.5-0.1-0.8c0-0.3,0-0.5,0.1-0.8l-33.1-19.1c-0.9,0.7-2,1.1-3.3,1.1
									c-1.2,0-2.4-0.4-3.3-1.1l-33.1,19.1c0,0.2,0.1,0.5,0.1,0.8c0,0.3,0,0.5-0.1,0.8l33.1,19.1c0.9-0.7,2-1.1,3.3-1.1
									C132.1,122,133.2,122.5,134.1,123.2z"/>
								<path class="st1" d="M-30.5,271.7c0,0.3,0,0.5-0.1,0.8l33.1,19.1c0.9-0.7,2-1.1,3.3-1.1c1.2,0,2.4,0.4,3.3,1.1l33.1-19.1
									c0-0.2-0.1-0.5-0.1-0.8c0-2.2,1.4-4.1,3.3-4.9v-38.3c-2-0.8-3.3-2.7-3.3-4.9c0-0.3,0-0.5,0.1-0.8L9.1,203.7
									c-0.9,0.7-2,1.1-3.3,1.1c-1.2,0-2.4-0.4-3.3-1.1l-33.1,19.1c0,0.2,0.1,0.5,0.1,0.8c0,2.2-1.4,4.1-3.3,4.9v38.3
									C-31.9,267.5-30.5,269.4-30.5,271.7z"/>
								<path class="st1" d="M167.2,391.2l-33.1-19.1c-0.9,0.7-2,1.1-3.3,1.1c-1.2,0-2.4-0.4-3.3-1.1l-33.1,19.1v0.8h72.7V391.2z"/>
								<path class="st1" d="M134.1,315.6l33.1-19.1c0-0.2-0.1-0.5-0.1-0.8c0-0.3,0-0.5,0.1-0.8l-33.1-19.1c-0.9,0.7-2,1.1-3.3,1.1
									c-1.2,0-2.4-0.4-3.3-1.1L94.4,295c0,0.2,0.1,0.5,0.1,0.8c0,0.3,0,0.5-0.1,0.8l33.1,19.1c0.9-0.7,2-1.1,3.3-1.1
									C132.1,314.5,133.2,314.9,134.1,315.6z"/>
								<path class="st1" d="M335.9-85l-33.1,19.1c0,0.2,0.1,0.5,0.1,0.8c0,2.2-1.4,4.1-3.3,4.9v38.3c2,0.8,3.3,2.7,3.3,4.9
									c0,0.3,0,0.5-0.1,0.8l33.1,19.1c0.9-0.7,2-1.1,3.3-1.1c1.2,0,2.4,0.4,3.3,1.1l33.1-19.1c0-0.2-0.1-0.5-0.1-0.8
									c0-2.2,1.4-4.1,3.3-4.9v-38.3c-2-0.8-3.3-2.7-3.3-4.9c0-0.3,0-0.5,0.1-0.8L342.4-85c-0.9,0.7-2,1.1-3.3,1.1
									C337.9-83.9,336.8-84.3,335.9-85z"/>
								<path class="st1" d="M335.9-181.2l-33.1,19.1c0,0.2,0.1,0.5,0.1,0.8c0,2.2-1.4,4.1-3.3,4.9v38.3c2,0.8,3.3,2.7,3.3,4.9
									c0,0.3,0,0.5-0.1,0.8l33.1,19.1c0.9-0.7,2-1.1,3.3-1.1c1.2,0,2.4,0.4,3.3,1.1l33.1-19.1c0-0.2-0.1-0.5-0.1-0.8
									c0-2.2,1.4-4.1,3.3-4.9v-38.3c-2-0.8-3.3-2.7-3.3-4.9c0-0.3,0-0.5,0.1-0.8l-33.1-19.1c-0.9,0.7-2,1.1-3.3,1.1
									C337.9-180.1,336.8-180.5,335.9-181.2z"/>
								<path class="st1" d="M177.8-185.4C177.8-185.4,177.8-185.4,177.8-185.4L177.8-185.4c0,0.3,0,0.5-0.1,0.8l33.1,19.1
									c0.9-0.7,2-1.1,3.3-1.1c1.2,0,2.4,0.4,3.3,1.1l33.1-19.1c0-0.2-0.1-0.5-0.1-0.8c0-0.3,0-0.5,0.1-0.8l-33.1-19.1
									c-0.9,0.7-2,1.1-3.3,1.1c-1.2,0-2.4-0.4-3.3-1.1l-33.1,19.1C177.8-185.9,177.8-185.7,177.8-185.4z"/>
								<path class="st1" d="M219.5-161.3c0,2.2-1.4,4.1-3.3,4.9v38.3c2,0.8,3.3,2.7,3.3,4.9c0,0.3,0,0.5-0.1,0.8l33.1,19.1
									c0.9-0.7,2-1.1,3.3-1.1c1.2,0,2.4,0.4,3.3,1.1l33.1-19.1c0-0.2-0.1-0.5-0.1-0.8c0-2.2,1.4-4.1,3.3-4.9v-38.3
									c-2-0.8-3.3-2.7-3.3-4.9c0-0.3,0-0.5,0.1-0.8l-33.1-19.1c-0.9,0.7-2,1.1-3.3,1.1c-1.2,0-2.4-0.4-3.3-1.1l-33.1,19.1
									C219.5-161.9,219.5-161.6,219.5-161.3z"/>
								<path class="st1" d="M261.1-185.4c0,0.3,0,0.5-0.1,0.8l33.1,19.1c0.9-0.7,2-1.1,3.3-1.1c1.2,0,2.4,0.4,3.3,1.1l33.1-19.1
									c0-0.2-0.1-0.5-0.1-0.8c0-0.3,0-0.5,0.1-0.8l-33.1-19.1c-0.9,0.7-2,1.1-3.3,1.1c-1.2,0-2.4-0.4-3.3-1.1l-33.1,19.1
									C261.1-185.9,261.1-185.7,261.1-185.4z"/>
								<path class="st1" d="M294.2-12.8L261.5,6h0l-0.4,0.2V7c0,0.3,0,0.5-0.1,0.8l33.1,19.1c0.9-0.7,2-1.1,3.3-1.1
									c1.2,0,2.4,0.4,3.3,1.1l33.1-19.1c0-0.2-0.1-0.5-0.1-0.8V6.3L333.5,6h0l-32.7-18.9c-0.9,0.7-2,1.1-3.3,1.1
									C296.3-11.7,295.1-12.1,294.2-12.8z"/>
								<path class="st1" d="M302.8-257.6c0,2.2-1.4,4.1-3.3,4.9v38.3c2,0.8,3.3,2.7,3.3,4.9c0,0.3,0,0.5-0.1,0.8l33.1,19.1
									c0.9-0.7,2-1.1,3.3-1.1c1.2,0,2.4,0.4,3.3,1.1l33.1-19.1c0-0.2-0.1-0.5-0.1-0.8c0-2.2,1.4-4.1,3.3-4.9v-38.3
									c-2-0.8-3.3-2.7-3.3-4.9c0-0.3,0-0.5,0.1-0.8l-33.1-19.1c-0.9,0.7-2,1.1-3.3,1.1c-1.2,0-2.4-0.4-3.3-1.1l-33.1,19.1
									C302.8-258.1,302.8-257.8,302.8-257.6z"/>
								<path class="st1" d="M294.2-109.1l-33.1,19.1c0,0.2,0.1,0.5,0.1,0.8s0,0.5-0.1,0.8l33.1,19.1c0.9-0.7,2-1.1,3.3-1.1
									c1.2,0,2.4,0.4,3.3,1.1l33.1-19.1c0-0.2-0.1-0.5-0.1-0.8c0-0.3,0-0.5,0.1-0.8l-33.1-19.1c-0.9,0.7-2,1.1-3.3,1.1
									C296.3-107.9,295.1-108.4,294.2-109.1z"/>
								<path class="st1" d="M261.1-280.9l33.1,19.1c0.9-0.7,2-1.1,3.3-1.1c1.2,0,2.4,0.4,3.3,1.1l33.1-19.1c0-0.2-0.1-0.5-0.1-0.8
									v0h-72.7v0C261.1-281.4,261.1-281.1,261.1-280.9z"/>
								<path class="st1" d="M344.4-280.9l33.1,19.1c0.9-0.7,2-1.1,3.3-1.1c1.2,0,2.4,0.4,3.3,1.1l33.1-19.1c0-0.2-0.1-0.5-0.1-0.8
									v0h-72.7v0C344.5-281.4,344.5-281.1,344.4-280.9z"/>
								<path class="st1" d="M177.8-280.9l33.1,19.1c0.9-0.7,2-1.1,3.3-1.1c1.2,0,2.4,0.4,3.3,1.1l33.1-19.1c0-0.2-0.1-0.5-0.1-0.8
									v0h-72.7v0C177.8-281.4,177.8-281.1,177.8-280.9z"/>
								<path class="st1" d="M386.1-258.3c0,0.2,0.1,0.5,0.1,0.8c0,2.2-1.4,4.1-3.3,4.9v38.3c2,0.8,3.3,2.7,3.3,4.9
									c0,0.3,0,0.5-0.1,0.8l33.1,19.1c0.9-0.7,2-1.1,3.3-1.1v-85.6c-1.2,0-2.4-0.4-3.3-1.1L386.1-258.3z"/>
								<path class="st1" d="M386.1-162.1c0,0.2,0.1,0.5,0.1,0.8c0,2.2-1.4,4.1-3.3,4.9v38.3c2,0.8,3.3,2.7,3.3,4.9
									c0,0.3,0,0.5-0.1,0.8l33.1,19.1c0.9-0.7,2-1.1,3.3-1.1v-85.6c-1.2,0-2.4-0.4-3.3-1.1L386.1-162.1z"/>
								<path class="st1" d="M377.6-12.8L344.8,6h0l-0.4,0.2V7c0,0.3,0,0.5-0.1,0.8l33.1,19.1c0.9-0.7,2-1.1,3.3-1.1
									c1.2,0,2.4,0.4,3.3,1.1l33.1-19.1c0-0.2-0.1-0.5-0.1-0.8V6.3L416.8,6h0l-32.7-18.9c-0.9,0.7-2,1.1-3.3,1.1
									C379.6-11.7,378.5-12.1,377.6-12.8z"/>
								<path class="st1" d="M219.5-257.6c0,2.2-1.4,4.1-3.3,4.9v38.3c2,0.8,3.3,2.7,3.3,4.9c0,0.3,0,0.5-0.1,0.8l33.1,19.1
									c0.9-0.7,2-1.1,3.3-1.1c1.2,0,2.4,0.4,3.3,1.1l33.1-19.1c0-0.2-0.1-0.5-0.1-0.8c0-2.2,1.4-4.1,3.3-4.9v-38.3
									c-2-0.8-3.3-2.7-3.3-4.9c0-0.3,0-0.5,0.1-0.8l-33.1-19.1c-0.9,0.7-2,1.1-3.3,1.1c-1.2,0-2.4-0.4-3.3-1.1l-33.1,19.1
									C219.5-258.1,219.5-257.8,219.5-257.6z"/>
								<path class="st1" d="M377.6-205.3l-33.1,19.1c0,0.2,0.1,0.5,0.1,0.8c0,0.3,0,0.5-0.1,0.8l33.1,19.1c0.9-0.7,2-1.1,3.3-1.1
									c1.2,0,2.4,0.4,3.3,1.1l33.1-19.1c0-0.2-0.1-0.5-0.1-0.8c0-0.3,0-0.5,0.1-0.8l-33.1-19.1c-0.9,0.7-2,1.1-3.3,1.1
									C379.6-204.1,378.5-204.6,377.6-205.3z"/>
								<path class="st1" d="M377.6-109.1l-33.1,19.1c0,0.2,0.1,0.5,0.1,0.8s0,0.5-0.1,0.8l33.1,19.1c0.9-0.7,2-1.1,3.3-1.1
									c1.2,0,2.4,0.4,3.3,1.1l33.1-19.1c0-0.2-0.1-0.5-0.1-0.8s0-0.5,0.1-0.8l-33.1-19.1c-0.9,0.7-2,1.1-3.3,1.1
									C379.6-107.9,378.5-108.4,377.6-109.1z"/>
								<path class="st1" d="M386.1-65.9c0,0.2,0.1,0.5,0.1,0.8c0,2.2-1.4,4.1-3.3,4.9v38.3c2,0.8,3.3,2.7,3.3,4.9
									c0,0.3,0,0.5-0.1,0.8l33.1,19.1c0.9-0.7,2-1.1,3.3-1.1v-85.6c-1.2,0-2.4-0.4-3.3-1.1L386.1-65.9z"/>
								<path class="st1" d="M292.2-65.1c0-0.3,0-0.5,0.1-0.8L259.1-85c-0.9,0.7-2,1.1-3.3,1.1c-1.2,0-2.4-0.4-3.3-1.1l-33.1,19.1
									c0,0.2,0.1,0.5,0.1,0.8c0,2.2-1.4,4.1-3.3,4.9v38.3c2,0.8,3.3,2.7,3.3,4.9c0,0.3,0,0.5-0.1,0.8l33.1,19.1
									c0.9-0.7,2-1.1,3.3-1.1c1.2,0,2.4,0.4,3.3,1.1l33.1-19.1c0-0.2-0.1-0.5-0.1-0.8c0-2.2,1.4-4.1,3.3-4.9v-38.3
									C293.6-61,292.2-62.9,292.2-65.1z"/>
								<path class="st1" d="M210.9-12.8L178.2,6h0l-0.4,0.2V7c0,0.3,0,0.5-0.1,0.8l33.1,19.1c0.9-0.7,2-1.1,3.3-1.1
									c1.2,0,2.4,0.4,3.3,1.1l33.1-19.1c0-0.2-0.1-0.5-0.1-0.8V6.3L250.2,6h0l-32.7-18.9c-0.9,0.7-2,1.1-3.3,1.1
									C212.9-11.7,211.8-12.1,210.9-12.8z"/>
								<path class="st1" d="M177.8-89.2c0,0.3,0,0.5-0.1,0.8l33.1,19.1c0.9-0.7,2-1.1,3.3-1.1c1.2,0,2.4,0.4,3.3,1.1l33.1-19.1
									c0-0.2-0.1-0.5-0.1-0.8s0-0.5,0.1-0.8l-33.1-19.1c-0.9,0.7-2,1.1-3.3,1.1c-1.2,0-2.4-0.4-3.3-1.1l-33.1,19.1
									C177.8-89.7,177.8-89.4,177.8-89.2z"/>
								<path class="st1" d="M208.9-65.1c0-0.3,0-0.5,0.1-0.8L175.8-85c-0.9,0.7-2,1.1-3.3,1.1h-1V-84c-0.8-0.2-1.6-0.5-2.3-1
									l-33.1,19.1c0,0.2,0.1,0.5,0.1,0.8c0,2.2-1.4,4.1-3.3,4.9v38.3c2,0.8,3.3,2.7,3.3,4.9c0,0.3,0,0.5-0.1,0.8l33.1,19.1
									c0.7-0.5,1.4-0.9,2.3-1V1.7h1c1.2,0,2.4,0.4,3.3,1.1l33.1-19.1c0-0.2-0.1-0.5-0.1-0.8c0-2.2,1.4-4.1,3.3-4.9v-38.3
									C210.2-61,208.9-62.9,208.9-65.1z"/>
								<path class="st2" d="M420.6-281.6h-1.4h-0.6h0h-0.4h-1v0c0,0.3,0,0.5,0.1,0.8l-33.1,19.1c-0.9-0.7-2-1.1-3.3-1.1
									c-1.2,0-2.4,0.4-3.3,1.1l-33.1-19.1c0-0.2,0.1-0.5,0.1-0.8v0h-1h-0.4h0h-0.6h-1.4h-3.9h-1.4h-0.6h0h-0.4h-1v0
									c0,0.3,0,0.5,0.1,0.8l-33.1,19.1c-0.9-0.7-2-1.1-3.3-1.1c-1.2,0-2.4,0.4-3.3,1.1l-33.1-19.1c0-0.2,0.1-0.5,0.1-0.8v0h-1
									h-0.4l0,0h-0.6h-1.4h-3.9h-1.4h-0.6h0h-0.4h-1v0c0,0.3,0,0.5,0.1,0.8l-33.1,19.1c-0.9-0.7-2-1.1-3.3-1.1
									c-1.2,0-2.4,0.4-3.3,1.1l-33.1-19.1c0-0.2,0.1-0.5,0.1-0.8v0h-1h-0.4h0h-0.6h-1.4h-0.9h-1h-1h-0.9h-1.4h-0.6h-0.4h-1v0
									c0,0.3,0,0.5,0.1,0.8l-33.1,19.1c-0.9-0.7-2-1.1-3.3-1.1c-1.2,0-2.4,0.4-3.3,1.1l-33.1-19.1c0-0.2,0.1-0.5,0.1-0.8v0h-1
									h-0.4h0h-0.6h-1.4h-3.9h-1.4h-0.6h0h-0.4h-1v0c0,0.3,0,0.5,0.1,0.8l-33.1,19.1c-0.9-0.7-2-1.1-3.3-1.1
									c-1.2,0-2.4,0.4-3.3,1.1l-33.1-19.1c0-0.2,0.1-0.5,0.1-0.8v0h-1H9.8l0,0H9.1H7.8H3.9H2.5H1.9h0H1.5h-1v0
									c0,0.3,0,0.5,0.1,0.8l-33.1,19.1c-0.9-0.7-2-1.1-3.3-1.1c-1.2,0-2.4,0.4-3.3,1.1l-33.1-19.1c0-0.2,0.1-0.5,0.1-0.8v0h-1
									h-0.4h0h-0.6h-1.4h-1.9v1.1v0v1.2v1v1l0,0v1c1.2,0,2.4-0.4,3.3-1.1l33.1,19.1c0,0.2-0.1,0.5-0.1,0.8c0,2.2,1.4,4.1,3.3,4.9
									v38.3c-2,0.8-3.3,2.7-3.3,4.9c0,0.3,0,0.5,0.1,0.8l-33.1,19.1c-0.9-0.7-2-1.1-3.3-1.1v1v0v1v1v1.2l0,0v2.2v0v1.2v1v1l0,0v1
									c1.2,0,2.4-0.4,3.3-1.1l33.1,19.1c0,0.2-0.1,0.5-0.1,0.8c0,2.2,1.4,4.1,3.3,4.9v38.3c-2,0.8-3.3,2.7-3.3,4.9
									c0,0.3,0,0.5,0.1,0.8l-33.1,19.1c-0.9-0.7-2-1.1-3.3-1.1v1v0v1v1v1.2v2.2v1.2v1v1v0v1c1.2,0,2.4-0.4,3.3-1.1l33.1,19.1
									c0,0.2-0.1,0.5-0.1,0.8c0,2.2,1.4,4.1,3.3,4.9v38.3c-2,0.8-3.3,2.7-3.3,4.9c0,0.3,0,0.5,0.1,0.8L-74.2,2.9
									c-0.9-0.7-2-1.1-3.3-1.1v1v1v1v1.2v0V6v1v1v0.1v0v1.2v0v1v1v0v1c1.2,0,2.4-0.4,3.3-1.1l33.1,19.1c0,0.2-0.1,0.5-0.1,0.8
									c0,2.2,1.4,4.1,3.3,4.9v38.3c-2,0.8-3.3,2.7-3.3,4.9c0,0.3,0,0.5,0.1,0.8l-33.1,19.1c-0.9-0.7-2-1.1-3.3-1.1v1v1v1v1.2v2.2
									v1.2v1v1v0v1c1.2,0,2.4-0.4,3.3-1.1l33.1,19.1c0,0.2-0.1,0.5-0.1,0.8c0,2.2,1.4,4.1,3.3,4.9v38.3c-2,0.8-3.3,2.7-3.3,4.9
									c0,0.3,0,0.5,0.1,0.8l-33.1,19.1c-0.9-0.7-2-1.1-3.3-1.1v1v1v1v1.2v2.2v1.2v1v1v1c1.2,0,2.4-0.4,3.3-1.1l33.1,19.1
									c0,0.2-0.1,0.5-0.1,0.8c0,2.2,1.4,4.1,3.3,4.9v38.3c-2,0.8-3.3,2.7-3.3,4.9c0,0.3,0,0.5,0.1,0.8l-33.1,19.1
									c-0.9-0.7-2-1.1-3.3-1.1v1v1v1v1.2v2.2v1.2v1v1v1c1.2,0,2.4-0.4,3.3-1.1l33.1,19.1c0,0.2-0.1,0.5-0.1,0.8
									c0,2.2,1.4,4.1,3.3,4.9V363c-2,0.8-3.3,2.7-3.3,4.9c0,0.3,0,0.5,0.1,0.8l-33.1,19.1c-0.9-0.7-2-1.1-3.3-1.1v1v0v1v1v1.2v0
									v0.1v1v0v1v0.1v0v1.2v1v1v0v1c1.2,0,2.4-0.4,3.3-1.1l33.1,19.1c0,0.2-0.1,0.5-0.1,0.8c0,2.2,1.4,4.1,3.3,4.9v38.3
									c-2,0.8-3.3,2.7-3.3,4.9c0,0.3,0,0.5,0.1,0.8L-74.2,484c-0.9-0.7-2-1.1-3.3-1.1v1v0v1v1v1.2v0v2.2v0v1.2v1v1v0v1
									c1.2,0,2.4-0.4,3.3-1.1l33.1,19.1c0,0.2-0.1,0.5-0.1,0.8c0,2.2,1.4,4.1,3.3,4.9v38.3c-2,0.8-3.3,2.7-3.3,4.9
									c0,0.3,0,0.5,0.1,0.8l-33.1,19.1c-0.9-0.7-2-1.1-3.3-1.1v1v1v1v1.2v2.2v1.2v1v1v1c1.2,0,2.4-0.4,3.3-1.1l33.1,19.1
									c0,0.2-0.1,0.5-0.1,0.8c0,2.2,1.4,4.1,3.3,4.9v38.3c-2,0.8-3.3,2.7-3.3,4.9c0,0.3,0,0.5,0.1,0.8l-33.1,19.1
									c-0.9-0.7-2-1.1-3.3-1.1v1v1v1v1.2v1.1h1.9h0h1.4h0.6h0.4h1c0-0.3,0-0.5-0.1-0.8l33.1-19.1c0.9,0.7,2,1.1,3.3,1.1
									c1.2,0,2.4-0.4,3.3-1.1l33.1,19.1c0,0.2-0.1,0.5-0.1,0.8h1h0.4h0.6h1.4h0h3.9h0h1.4h0.6h0.4h1c0-0.3,0-0.5-0.1-0.8
									l33.1-19.1c0.9,0.7,2,1.1,3.3,1.1c1.2,0,2.4-0.4,3.3-1.1l33.1,19.1c0,0.2-0.1,0.5-0.1,0.8h1h0.4h0.6h1.4h0h3.9h0h1.4h0.6
									h0.4h1c0-0.3,0-0.5-0.1-0.8l33.1-19.1c0.9,0.7,2,1.1,3.3,1.1c1.2,0,2.4-0.4,3.3-1.1l33.1,19.1c0,0.2-0.1,0.5-0.1,0.8h1h0.4
									h0.6h1.4h0h0.9h1h1h0.9h0h1.4h0.6h0.4h1c0-0.3,0-0.5-0.1-0.8l33.1-19.1c0.9,0.7,2,1.1,3.3,1.1c1.2,0,2.4-0.4,3.3-1.1
									l33.1,19.1c0,0.2-0.1,0.5-0.1,0.8h1h0.4h0.6h1.4h0h3.9h0h1.4h0.6h0.4h1c0-0.3,0-0.5-0.1-0.8l33.1-19.1
									c0.9,0.7,2,1.1,3.3,1.1c1.2,0,2.4-0.4,3.3-1.1l33.1,19.1c0,0.2-0.1,0.5-0.1,0.8h1h0.4h0.6h1.4h0h3.9h0h1.4h0.6h0.4h1
									c0-0.3,0-0.5-0.1-0.8l33.1-19.1c0.9,0.7,2,1.1,3.3,1.1c1.2,0,2.4-0.4,3.3-1.1l33.1,19.1c0,0.2-0.1,0.5-0.1,0.8h1h0.4h0.6
									h1.4h0h1.9v-1.1v-1.2v-1v-1v-1c-1.2,0-2.4,0.4-3.3,1.1l-33.1-19.1c0-0.2,0.1-0.5,0.1-0.8c0-2.2-1.4-4.1-3.3-4.9v-38.3
									c2-0.8,3.3-2.7,3.3-4.9c0-0.3,0-0.5-0.1-0.8l33.1-19.1c0.9,0.7,2,1.1,3.3,1.1v-1v-1v-1v-1.2v0v-2.2v0v-1.2v-1v-1v-1
									c-1.2,0-2.4,0.4-3.3,1.1l-33.1-19.1c0-0.2,0.1-0.5,0.1-0.8c0-2.2-1.4-4.1-3.3-4.9v-38.3c2-0.8,3.3-2.7,3.3-4.9
									c0-0.3,0-0.5-0.1-0.8l33.1-19.1c0.9,0.7,2,1.1,3.3,1.1v-1v0v-1v-1v-1.2v0v-2.2v0v-1.2v-1v-1v0v-1c-1.2,0-2.4,0.4-3.3,1.1
									l-33.1-19.1c0-0.2,0.1-0.5,0.1-0.8c0-2.2-1.4-4.1-3.3-4.9v-38.3c2-0.8,3.3-2.7,3.3-4.9c0-0.3,0-0.5-0.1-0.8l33.1-19.1
									c0.9,0.7,2,1.1,3.3,1.1v-1v0v-1v-1v-1.2v0V393v-1v0v-1v-0.1v0v-1.2v-1v-1v0v-1c-1.2,0-2.4,0.4-3.3,1.1l-33.1-19.1
									c0-0.2,0.1-0.5,0.1-0.8c0-2.2-1.4-4.1-3.3-4.9v-38.3c2-0.8,3.3-2.7,3.3-4.9c0-0.3,0-0.5-0.1-0.8l33.1-19.1
									c0.9,0.7,2,1.1,3.3,1.1v-1v-1v-1v-1.2v-2.2v-1.2v-1v-1v-1c-1.2,0-2.4,0.4-3.3,1.1l-33.1-19.1c0-0.2,0.1-0.5,0.1-0.8
									c0-2.2-1.4-4.1-3.3-4.9v-38.3c2-0.8,3.3-2.7,3.3-4.9c0-0.3,0-0.5-0.1-0.8l33.1-19.1c0.9,0.7,2,1.1,3.3,1.1v-1v-1v-1v-1.2
									v-2.2v-1.2v-1v-1v-1c-1.2,0-2.4,0.4-3.3,1.1l-33.1-19.1c0-0.2,0.1-0.5,0.1-0.8c0-2.2-1.4-4.1-3.3-4.9v-38.3
									c2-0.8,3.3-2.7,3.3-4.9c0-0.3,0-0.5-0.1-0.8l33.1-19.1c0.9,0.7,2,1.1,3.3,1.1v-1v0v-1v-1v-1.2v0v-2.2V101v-1v-1v-1
									c-1.2,0-2.4,0.4-3.3,1.1L386.1,80c0-0.2,0.1-0.5,0.1-0.8c0-2.2-1.4-4.1-3.3-4.9V36c2-0.8,3.3-2.7,3.3-4.9
									c0-0.3,0-0.5-0.1-0.8l33.1-19.1c0.9,0.7,2,1.1,3.3,1.1v-1v0v-1v-1v0V8.2v0V8V7V6V5.9v0V4.8v-1v-1v-1c-1.2,0-2.4,0.4-3.3,1.1
									l-33.1-19.1c0-0.2,0.1-0.5,0.1-0.8c0-2.2-1.4-4.1-3.3-4.9v-38.3c2-0.8,3.3-2.7,3.3-4.9c0-0.3,0-0.5-0.1-0.8L419.2-85
									c0.9,0.7,2,1.1,3.3,1.1v-1v0v-1v-1v-1.2v0v-2.2v0v-1.2v-1v-1v0v-1c-1.2,0-2.4,0.4-3.3,1.1l-33.1-19.1c0-0.2,0.1-0.5,0.1-0.8
									c0-2.2-1.4-4.1-3.3-4.9v-38.3c2-0.8,3.3-2.7,3.3-4.9c0-0.3,0-0.5-0.1-0.8l33.1-19.1c0.9,0.7,2,1.1,3.3,1.1v-1l0,0v-1v-1
									v-1.2v0v-2.2l0,0v-1.2v-1v-1v0v-1c-1.2,0-2.4,0.4-3.3,1.1l-33.1-19.1c0-0.2,0.1-0.5,0.1-0.8c0-2.2-1.4-4.1-3.3-4.9v-38.3
									c2-0.8,3.3-2.7,3.3-4.9c0-0.3,0-0.5-0.1-0.8l33.1-19.1c0.9,0.7,2,1.1,3.3,1.1v-1l0,0v-1v-1v-1.2v0v-1.1H420.6z M417.3-186.2
									c0,0.2-0.1,0.5-0.1,0.8c0,0.3,0,0.5,0.1,0.8l-33.1,19.1c-0.9-0.7-2-1.1-3.3-1.1c-1.2,0-2.4,0.4-3.3,1.1l-33.1-19.1
									c0-0.2,0.1-0.5,0.1-0.8c0-0.3,0-0.5-0.1-0.8l33.1-19.1c0.9,0.7,2,1.1,3.3,1.1c1.2,0,2.4-0.4,3.3-1.1L417.3-186.2z
									 M417.2-89.9c0,0.2-0.1,0.5-0.1,0.8s0,0.5,0.1,0.8l-33.1,19.1c-0.9-0.7-2-1.1-3.3-1.1c-1.2,0-2.4,0.4-3.3,1.1l-33.1-19.1
									c0-0.2,0.1-0.5,0.1-0.8s0-0.5-0.1-0.8l33.1-19.1c0.9,0.7,2,1.1,3.3,1.1c1.2,0,2.4-0.4,3.3-1.1L417.2-89.9z M416.8,6L416.8,6
									l0.4,0.2V7c0,0.3,0,0.5,0.1,0.8l-33.1,19.1c-0.9-0.7-2-1.1-3.3-1.1c-1.2,0-2.4,0.4-3.3,1.1L344.4,7.8c0-0.2,0.1-0.5,0.1-0.8
									V6.3l0.4-0.2h0l32.7-18.9c0.9,0.7,2,1.1,3.3,1.1c1.2,0,2.4-0.4,3.3-1.1L416.8,6z M417.3,102.5c0,0.2-0.1,0.5-0.1,0.8
									c0,0.3,0,0.5,0.1,0.8l-33.1,19.1c-0.9-0.7-2-1.1-3.3-1.1c-1.2,0-2.4,0.4-3.3,1.1L344.4,104c0-0.2,0.1-0.5,0.1-0.8
									c0-0.3,0-0.5-0.1-0.8l33.1-19.1c0.9,0.7,2,1.1,3.3,1.1c1.2,0,2.4-0.4,3.3-1.1L417.3,102.5z M417.2,198.7
									c0,0.2-0.1,0.5-0.1,0.8c0,0.3,0,0.5,0.1,0.8l-33.1,19.1c-0.9-0.7-2-1.1-3.3-1.1c-1.2,0-2.4,0.4-3.3,1.1l-33.1-19.1
									c0-0.2,0.1-0.5,0.1-0.8c0-0.3,0-0.5-0.1-0.8l33.1-19.1c0.9,0.7,2,1.1,3.3,1.1c1.2,0,2.4-0.4,3.3-1.1L417.2,198.7z
									 M417.2,295c0,0.2-0.1,0.5-0.1,0.8c0,0.3,0,0.5,0.1,0.8l-33.1,19.1c-0.9-0.7-2-1.1-3.3-1.1c-1.2,0-2.4,0.4-3.3,1.1
									l-33.1-19.1c0-0.2,0.1-0.5,0.1-0.8c0-0.3,0-0.5-0.1-0.8l33.1-19.1c0.9,0.7,2,1.1,3.3,1.1c1.2,0,2.4-0.4,3.3-1.1L417.2,295z
									 M417.2,391.2v0.8v0l0,0c0,0.3,0,0.5,0.1,0.8l-33.1,19.1c-0.9-0.7-2-1.1-3.3-1.1c-1.2,0-2.4,0.4-3.3,1.1l-33.1-19.1
									c0-0.2,0.1-0.5,0.1-0.8l0,0v0v-0.8l33.1-19.1c0.9,0.7,2,1.1,3.3,1.1c1.2,0,2.4-0.4,3.3-1.1L417.2,391.2z M417.2,487.4
									c0,0.2-0.1,0.5-0.1,0.8s0,0.5,0.1,0.8l-33.1,19.1c-0.9-0.7-2-1.1-3.3-1.1c-1.2,0-2.4,0.4-3.3,1.1l-33.1-19.1
									c0-0.2,0.1-0.5,0.1-0.8s0-0.5-0.1-0.8l33.1-19.1c0.9,0.7,2,1.1,3.3,1.1c1.2,0,2.4-0.4,3.3-1.1L417.2,487.4z M417.3,583.6
									c0,0.2-0.1,0.5-0.1,0.8c0,0.3,0,0.5,0.1,0.8l-33.1,19.1c-0.9-0.7-2-1.1-3.3-1.1c-1.2,0-2.4,0.4-3.3,1.1l-33.1-19.1
									c0-0.2,0.1-0.5,0.1-0.8c0-0.3,0-0.5-0.1-0.8l33.1-19.1c0.9,0.7,2,1.1,3.3,1.1c1.2,0,2.4-0.4,3.3-1.1L417.3,583.6z
									 M342.4,676.5c-0.9-0.7-2-1.1-3.3-1.1c-1.2,0-2.4,0.4-3.3,1.1l-33.1-19.1c0-0.2,0.1-0.5,0.1-0.8c0-2.2-1.4-4.1-3.3-4.9
									v-38.3c2-0.8,3.3-2.7,3.3-4.9c0-0.3,0-0.5-0.1-0.8l33.1-19.1c0.9,0.7,2,1.1,3.3,1.1c1.2,0,2.4-0.4,3.3-1.1l33.1,19.1
									c0,0.2-0.1,0.5-0.1,0.8c0,2.2,1.4,4.1,3.3,4.9v38.3c-2,0.8-3.3,2.7-3.3,4.9c0,0.3,0,0.5,0.1,0.8L342.4,676.5z M259.1,676.5
									c-0.9-0.7-2-1.1-3.3-1.1c-1.2,0-2.4,0.4-3.3,1.1l-33.1-19.1c0-0.2,0.1-0.5,0.1-0.8c0-2.2-1.4-4.1-3.3-4.9v-38.3
									c2-0.8,3.3-2.7,3.3-4.9c0-0.3,0-0.5-0.1-0.8l33.1-19.1c0.9,0.7,2,1.1,3.3,1.1c1.2,0,2.4-0.4,3.3-1.1l33.1,19.1
									c0,0.2-0.1,0.5-0.1,0.8c0,2.2,1.4,4.1,3.3,4.9v38.3c-2,0.8-3.3,2.7-3.3,4.9c0,0.3,0,0.5,0.1,0.8L259.1,676.5z M175.8,676.5
									c-0.9-0.7-2-1.1-3.3-1.1h-1v0.1c-0.8,0.2-1.6,0.5-2.3,1l-33.1-19.1c0-0.2,0.1-0.5,0.1-0.8c0-2.2-1.4-4.1-3.3-4.9v-38.3
									c2-0.8,3.3-2.7,3.3-4.9c0-0.3,0-0.5-0.1-0.8l33.1-19.1c0.7,0.5,1.4,0.9,2.3,1v0.1h1c1.2,0,2.4-0.4,3.3-1.1l33.1,19.1
									c0,0.2-0.1,0.5-0.1,0.8c0,2.2,1.4,4.1,3.3,4.9v38.3c-2,0.8-3.3,2.7-3.3,4.9c0,0.3,0,0.5,0.1,0.8L175.8,676.5z M92.4,676.5
									c-0.9-0.7-2-1.1-3.3-1.1c-1.2,0-2.4,0.4-3.3,1.1l-33.1-19.1c0-0.2,0.1-0.5,0.1-0.8c0-2.2-1.4-4.1-3.3-4.9v-38.3
									c2-0.8,3.3-2.7,3.3-4.9c0-0.3,0-0.5-0.1-0.8l33.1-19.1c0.9,0.7,2,1.1,3.3,1.1c1.2,0,2.4-0.4,3.3-1.1l33.1,19.1
									c0,0.2-0.1,0.5-0.1,0.8c0,2.2,1.4,4.1,3.3,4.9v38.3c-2,0.8-3.3,2.7-3.3,4.9c0,0.3,0,0.5,0.1,0.8L92.4,676.5z M9.1,676.5
									c-0.9-0.7-2-1.1-3.3-1.1c-1.2,0-2.4,0.4-3.3,1.1l-33.1-19.1c0-0.2,0.1-0.5,0.1-0.8c0-2.2-1.4-4.1-3.3-4.9v-38.3
									c2-0.8,3.3-2.7,3.3-4.9c0-0.3,0-0.5-0.1-0.8l33.1-19.1c0.9,0.7,2,1.1,3.3,1.1c1.2,0,2.4-0.4,3.3-1.1l33.1,19.1
									c0,0.2-0.1,0.5-0.1,0.8c0,2.2,1.4,4.1,3.3,4.9v38.3c-2,0.8-3.3,2.7-3.3,4.9c0,0.3,0,0.5,0.1,0.8L9.1,676.5z M-72.3,585.2
									c0-0.2,0.1-0.5,0.1-0.8c0-0.3,0-0.5-0.1-0.8l33.1-19.1c0.9,0.7,2,1.1,3.3,1.1c1.2,0,2.4-0.4,3.3-1.1l33.1,19.1
									c0,0.2-0.1,0.5-0.1,0.8c0,0.3,0,0.5,0.1,0.8l-33.1,19.1c-0.9-0.7-2-1.1-3.3-1.1c-1.2,0-2.4,0.4-3.3,1.1L-72.3,585.2z
									 M-72.3,488.9c0-0.2,0.1-0.5,0.1-0.8c0-0.3,0-0.5-0.1-0.8l33.1-19.1c0.9,0.7,2,1.1,3.3,1.1c1.2,0,2.4-0.4,3.3-1.1l33.1,19.1
									c0,0.2-0.1,0.5-0.1,0.8c0,0.3,0,0.5,0.1,0.8l-33.1,19.1c-0.9-0.7-2-1.1-3.3-1.1c-1.2,0-2.4,0.4-3.3,1.1L-72.3,488.9z
									 M-72.3,392.7c0-0.2,0.1-0.5,0.1-0.8l0,0v0v-0.8l33.1-19.1c0.9,0.7,2,1.1,3.3,1.1c1.2,0,2.4-0.4,3.3-1.1l33.1,19.1v0.8v0
									l0,0c0,0.3,0,0.5,0.1,0.8l-33.1,19.1c-0.9-0.7-2-1.1-3.3-1.1c-1.2,0-2.4,0.4-3.3,1.1L-72.3,392.7z M-72.3,296.5
									c0-0.2,0.1-0.5,0.1-0.8c0-0.3,0-0.5-0.1-0.8l33.1-19.1c0.9,0.7,2,1.1,3.3,1.1c1.2,0,2.4-0.4,3.3-1.1L0.6,295
									c0,0.2-0.1,0.5-0.1,0.8c0,0.3,0,0.5,0.1,0.8l-33.1,19.1c-0.9-0.7-2-1.1-3.3-1.1c-1.2,0-2.4,0.4-3.3,1.1L-72.3,296.5z
									 M-72.3,200.3c0-0.2,0.1-0.5,0.1-0.8c0-0.3,0-0.5-0.1-0.8l33.1-19.1c0.9,0.7,2,1.1,3.3,1.1c1.2,0,2.4-0.4,3.3-1.1l33.1,19.1
									c0,0.2-0.1,0.5-0.1,0.8c0,0.3,0,0.5,0.1,0.8l-33.1,19.1c-0.9-0.7-2-1.1-3.3-1.1c-1.2,0-2.4,0.4-3.3,1.1L-72.3,200.3z
									 M-72.3,104c0-0.2,0.1-0.5,0.1-0.8c0-0.3,0-0.5-0.1-0.8l33.1-19.1c0.9,0.7,2,1.1,3.3,1.1c1.2,0,2.4-0.4,3.3-1.1l33.1,19.1
									c0,0.2-0.1,0.5-0.1,0.8c0,0.3,0,0.5,0.1,0.8l-33.1,19.1c-0.9-0.7-2-1.1-3.3-1.1c-1.2,0-2.4,0.4-3.3,1.1L-72.3,104z
									 M-72.3,7.8c0-0.2,0.1-0.5,0.1-0.8V6.3l0.4-0.2h0l32.7-18.9c0.9,0.7,2,1.1,3.3,1.1c1.2,0,2.4-0.4,3.3-1.1L0.2,6h0l0.4,0.2V7
									c0,0.3,0,0.5,0.1,0.8l-33.1,19.1c-0.9-0.7-2-1.1-3.3-1.1c-1.2,0-2.4,0.4-3.3,1.1L-72.3,7.8z M-72.3-88.4
									c0-0.2,0.1-0.5,0.1-0.8s0-0.5-0.1-0.8l33.1-19.1c0.9,0.7,2,1.1,3.3,1.1c1.2,0,2.4-0.4,3.3-1.1L0.6-89.9
									c0,0.2-0.1,0.5-0.1,0.8s0,0.5,0.1,0.8l-33.1,19.1c-0.9-0.7-2-1.1-3.3-1.1c-1.2,0-2.4,0.4-3.3,1.1L-72.3-88.4z M-72.3-184.6
									c0-0.2,0.1-0.5,0.1-0.8c0-0.3,0-0.5-0.1-0.8l33.1-19.1c0.9,0.7,2,1.1,3.3,1.1c1.2,0,2.4-0.4,3.3-1.1l33.1,19.1
									c0,0.2-0.1,0.5-0.1,0.8c0,0.3,0,0.5,0.1,0.8l-33.1,19.1c-0.9-0.7-2-1.1-3.3-1.1c-1.2,0-2.4,0.4-3.3,1.1L-72.3-184.6z
									 M2.6-277.5c0.9,0.7,2,1.1,3.3,1.1c1.2,0,2.4-0.4,3.3-1.1l33.1,19.1c0,0.2-0.1,0.5-0.1,0.8c0,2.2,1.4,4.1,3.3,4.9v38.3
									c-2,0.8-3.3,2.7-3.3,4.9c0,0.3,0,0.5,0.1,0.8L9.1-189.6c-0.9-0.7-2-1.1-3.3-1.1c-1.2,0-2.4,0.4-3.3,1.1l-33.1-19.1
									c0-0.2,0.1-0.5,0.1-0.8c0-2.2-1.4-4.1-3.3-4.9v-38.3c2-0.8,3.3-2.7,3.3-4.9c0-0.3,0-0.5-0.1-0.8L2.6-277.5z M85.9-277.5
									c0.9,0.7,2,1.1,3.3,1.1c1.2,0,2.4-0.4,3.3-1.1l33.1,19.1c0,0.2-0.1,0.5-0.1,0.8c0,2.2,1.4,4.1,3.3,4.9v38.3
									c-2,0.8-3.3,2.7-3.3,4.9c0,0.3,0,0.5,0.1,0.8l-33.1,19.1c-0.9-0.7-2-1.1-3.3-1.1c-1.2,0-2.4,0.4-3.3,1.1l-33.1-19.1
									c0-0.2,0.1-0.5,0.1-0.8c0-2.2-1.4-4.1-3.3-4.9v-38.3c2-0.8,3.3-2.7,3.3-4.9c0-0.3,0-0.5-0.1-0.8L85.9-277.5z M169.2-277.5
									c0.7,0.5,1.4,0.9,2.3,1v0.1h1c1.2,0,2.4-0.4,3.3-1.1l33.1,19.1c0,0.2-0.1,0.5-0.1,0.8c0,2.2,1.4,4.1,3.3,4.9v38.3
									c-2,0.8-3.3,2.7-3.3,4.9c0,0.3,0,0.5,0.1,0.8l-33.1,19.1c-0.4-0.3-0.8-0.5-1.2-0.7c-0.6-0.3-1.3-0.4-2.1-0.4h-1v0.1
									c-0.4,0.1-0.7,0.2-1.1,0.3c-0.4,0.2-0.8,0.4-1.2,0.7l-33.1-19.1c0-0.2,0.1-0.5,0.1-0.8c0-2.2-1.4-4.1-3.3-4.9v-38.3
									c2-0.8,3.3-2.7,3.3-4.9c0-0.3,0-0.5-0.1-0.8L169.2-277.5z M252.6-277.5c0.9,0.7,2,1.1,3.3,1.1c1.2,0,2.4-0.4,3.3-1.1
									l33.1,19.1c0,0.2-0.1,0.5-0.1,0.8c0,2.2,1.4,4.1,3.3,4.9v38.3c-2,0.8-3.3,2.7-3.3,4.9c0,0.3,0,0.5,0.1,0.8l-33.1,19.1
									c-0.9-0.7-2-1.1-3.3-1.1c-1.2,0-2.4,0.4-3.3,1.1l-33.1-19.1c0-0.2,0.1-0.5,0.1-0.8c0-2.2-1.4-4.1-3.3-4.9v-38.3
									c2-0.8,3.3-2.7,3.3-4.9c0-0.3,0-0.5-0.1-0.8L252.6-277.5z M335.9-277.5c0.9,0.7,2,1.1,3.3,1.1c1.2,0,2.4-0.4,3.3-1.1
									l33.1,19.1c0,0.2-0.1,0.5-0.1,0.8c0,2.2,1.4,4.1,3.3,4.9v38.3c-2,0.8-3.3,2.7-3.3,4.9c0,0.3,0,0.5,0.1,0.8l-33.1,19.1
									c-0.9-0.7-2-1.1-3.3-1.1c-1.2,0-2.4,0.4-3.3,1.1l-33.1-19.1c0-0.2,0.1-0.5,0.1-0.8c0-2.2-1.4-4.1-3.3-4.9v-38.3
									c2-0.8,3.3-2.7,3.3-4.9c0-0.3,0-0.5-0.1-0.8L335.9-277.5z M375.6-162.1c0,0.2-0.1,0.5-0.1,0.8c0,2.2,1.4,4.1,3.3,4.9v38.3
									c-2,0.8-3.3,2.7-3.3,4.9c0,0.3,0,0.5,0.1,0.8l-33.1,19.1c-0.9-0.7-2-1.1-3.3-1.1c-1.2,0-2.4,0.4-3.3,1.1l-33.1-19.1
									c0-0.2,0.1-0.5,0.1-0.8c0-2.2-1.4-4.1-3.3-4.9v-38.3c2-0.8,3.3-2.7,3.3-4.9c0-0.3,0-0.5-0.1-0.8l33.1-19.1
									c0.9,0.7,2,1.1,3.3,1.1c1.2,0,2.4-0.4,3.3-1.1L375.6-162.1z M375.6-65.9c0,0.2-0.1,0.5-0.1,0.8c0,2.2,1.4,4.1,3.3,4.9v38.3
									c-2,0.8-3.3,2.7-3.3,4.9c0,0.3,0,0.5,0.1,0.8L342.4,2.9c-0.9-0.7-2-1.1-3.3-1.1c-1.2,0-2.4,0.4-3.3,1.1l-33.1-19.1
									c0-0.2,0.1-0.5,0.1-0.8c0-2.2-1.4-4.1-3.3-4.9v-38.3c2-0.8,3.3-2.7,3.3-4.9c0-0.3,0-0.5-0.1-0.8L335.9-85
									c0.9,0.7,2,1.1,3.3,1.1c1.2,0,2.4-0.4,3.3-1.1L375.6-65.9z M378.9,36v38.3c-2,0.8-3.3,2.7-3.3,4.9c0,0.3,0,0.5,0.1,0.8
									l-33.1,19.1c-0.9-0.7-2-1.1-3.3-1.1c-1.2,0-2.4,0.4-3.3,1.1L302.8,80c0-0.2,0.1-0.5,0.1-0.8c0-2.2-1.4-4.1-3.3-4.9V36
									c2-0.8,3.3-2.7,3.3-4.9c0-0.3,0-0.5-0.1-0.8l33.1-19.1c0.9,0.7,2,1.1,3.3,1.1c1.2,0,2.4-0.4,3.3-1.1l33.1,19.1
									c0,0.2-0.1,0.5-0.1,0.8C375.5,33.3,376.9,35.2,378.9,36z M375.6,126.6c0,0.2-0.1,0.5-0.1,0.8c0,2.2,1.4,4.1,3.3,4.9v38.3
									c-2,0.8-3.3,2.7-3.3,4.9c0,0.3,0,0.5,0.1,0.8l-33.1,19.1c-0.9-0.7-2-1.1-3.3-1.1c-1.2,0-2.4,0.4-3.3,1.1l-33.1-19.1
									c0-0.2,0.1-0.5,0.1-0.8c0-2.2-1.4-4.1-3.3-4.9v-38.3c2-0.8,3.3-2.7,3.3-4.9c0-0.3,0-0.5-0.1-0.8l33.1-19.1
									c0.9,0.7,2,1.1,3.3,1.1c1.2,0,2.4-0.4,3.3-1.1L375.6,126.6z M375.6,222.8c0,0.2-0.1,0.5-0.1,0.8c0,2.2,1.4,4.1,3.3,4.9v38.3
									c-2,0.8-3.3,2.7-3.3,4.9c0,0.3,0,0.5,0.1,0.8l-33.1,19.1c-0.9-0.7-2-1.1-3.3-1.1c-1.2,0-2.4,0.4-3.3,1.1l-33.1-19.1
									c0-0.2,0.1-0.5,0.1-0.8c0-2.2-1.4-4.1-3.3-4.9v-38.3c2-0.8,3.3-2.7,3.3-4.9c0-0.3,0-0.5-0.1-0.8l33.1-19.1
									c0.9,0.7,2,1.1,3.3,1.1c1.2,0,2.4-0.4,3.3-1.1L375.6,222.8z M378.9,324.7V363c-2,0.8-3.3,2.7-3.3,4.9c0,0.3,0,0.5,0.1,0.8
									l-33.1,19.1c-0.9-0.7-2-1.1-3.3-1.1c-1.2,0-2.4,0.4-3.3,1.1l-33.1-19.1c0-0.2,0.1-0.5,0.1-0.8c0-2.2-1.4-4.1-3.3-4.9v-38.3
									c2-0.8,3.3-2.7,3.3-4.9c0-0.3,0-0.5-0.1-0.8l33.1-19.1c0.9,0.7,2,1.1,3.3,1.1c1.2,0,2.4-0.4,3.3-1.1l33.1,19.1
									c0,0.2-0.1,0.5-0.1,0.8C375.5,322,376.9,323.9,378.9,324.7z M378.9,420.9v38.3c-2,0.8-3.3,2.7-3.3,4.9c0,0.3,0,0.5,0.1,0.8
									L342.4,484c-0.9-0.7-2-1.1-3.3-1.1c-1.2,0-2.4,0.4-3.3,1.1l-33.1-19.1c0-0.2,0.1-0.5,0.1-0.8c0-2.2-1.4-4.1-3.3-4.9v-38.3
									c2-0.8,3.3-2.7,3.3-4.9c0-0.3,0-0.5-0.1-0.8l33.1-19.1c0.9,0.7,2,1.1,3.3,1.1c1.2,0,2.4-0.4,3.3-1.1l33.1,19.1
									c0,0.2-0.1,0.5-0.1,0.8C375.5,418.2,376.9,420.2,378.9,420.9z M375.6,511.5c0,0.2-0.1,0.5-0.1,0.8c0,2.2,1.4,4.1,3.3,4.9
									v38.3c-2,0.8-3.3,2.7-3.3,4.9c0,0.3,0,0.5,0.1,0.8l-33.1,19.1c-0.9-0.7-2-1.1-3.3-1.1c-1.2,0-2.4,0.4-3.3,1.1l-33.1-19.1
									c0-0.2,0.1-0.5,0.1-0.8c0-2.2-1.4-4.1-3.3-4.9v-38.3c2-0.8,3.3-2.7,3.3-4.9c0-0.3,0-0.5-0.1-0.8l33.1-19.1
									c0.9,0.7,2,1.1,3.3,1.1c1.2,0,2.4-0.4,3.3-1.1L375.6,511.5z M300.8,604.3c-0.9-0.7-2-1.1-3.3-1.1c-1.2,0-2.4,0.4-3.3,1.1
									l-33.1-19.1c0-0.2,0.1-0.5,0.1-0.8c0-0.3,0-0.5-0.1-0.8l33.1-19.1c0.9,0.7,2,1.1,3.3,1.1c1.2,0,2.4-0.4,3.3-1.1l33.1,19.1
									c0,0.2-0.1,0.5-0.1,0.8c0,0.3,0,0.5,0.1,0.8L300.8,604.3z M217.4,604.3c-0.9-0.7-2-1.1-3.3-1.1c-1.2,0-2.4,0.4-3.3,1.1
									l-33.1-19.1c0-0.2,0.1-0.5,0.1-0.8c0-0.3,0-0.5-0.1-0.8l33.1-19.1c0.9,0.7,2,1.1,3.3,1.1c1.2,0,2.4-0.4,3.3-1.1l33.1,19.1
									c0,0.2-0.1,0.5-0.1,0.8c0,0.3,0,0.5,0.1,0.8L217.4,604.3z M134.1,604.3c-0.9-0.7-2-1.1-3.3-1.1c-1.2,0-2.4,0.4-3.3,1.1
									l-33.1-19.1c0-0.2,0.1-0.5,0.1-0.8c0-0.3,0-0.5-0.1-0.8l33.1-19.1c0.9,0.7,2,1.1,3.3,1.1c1.2,0,2.4-0.4,3.3-1.1l33.1,19.1
									c0,0.2-0.1,0.5-0.1,0.8c0,0.3,0,0.5,0.1,0.8L134.1,604.3z M50.8,604.3c-0.9-0.7-2-1.1-3.3-1.1c-1.2,0-2.4,0.4-3.3,1.1
									l-33.1-19.1c0-0.2,0.1-0.5,0.1-0.8c0-0.3,0-0.5-0.1-0.8l33.1-19.1c0.9,0.7,2,1.1,3.3,1.1c1.2,0,2.4-0.4,3.3-1.1l33.1,19.1
									c0,0.2-0.1,0.5-0.1,0.8c0,0.3,0,0.5,0.1,0.8L50.8,604.3z M44.2-205.3c0.9,0.7,2,1.1,3.3,1.1c1.2,0,2.4-0.4,3.3-1.1
									l33.1,19.1c0,0.2-0.1,0.5-0.1,0.8c0,0.3,0,0.5,0.1,0.8l-33.1,19.1c-0.9-0.7-2-1.1-3.3-1.1c-1.2,0-2.4,0.4-3.3,1.1
									l-33.1-19.1c0-0.2,0.1-0.5,0.1-0.8c0-0.3,0-0.5-0.1-0.8L44.2-205.3z M127.6-205.3c0.9,0.7,2,1.1,3.3,1.1
									c1.2,0,2.4-0.4,3.3-1.1l33.1,19.1c0,0.2-0.1,0.5-0.1,0.8c0,0,0,0,0,0v0c0,0.3,0,0.5,0.1,0.8l-33.1,19.1
									c-0.9-0.7-2-1.1-3.3-1.1c-1.2,0-2.4,0.4-3.3,1.1l-33.1-19.1c0-0.2,0.1-0.5,0.1-0.8c0-0.3,0-0.5-0.1-0.8L127.6-205.3z
									 M210.9-205.3c0.9,0.7,2,1.1,3.3,1.1c1.2,0,2.4-0.4,3.3-1.1l33.1,19.1c0,0.2-0.1,0.5-0.1,0.8c0,0.3,0,0.5,0.1,0.8
									l-33.1,19.1c-0.9-0.7-2-1.1-3.3-1.1c-1.2,0-2.4,0.4-3.3,1.1l-33.1-19.1c0-0.2,0.1-0.5,0.1-0.8v0c0,0,0,0,0,0
									c0-0.3,0-0.5-0.1-0.8L210.9-205.3z M294.2-205.3c0.9,0.7,2,1.1,3.3,1.1c1.2,0,2.4-0.4,3.3-1.1l33.1,19.1
									c0,0.2-0.1,0.5-0.1,0.8c0,0.3,0,0.5,0.1,0.8l-33.1,19.1c-0.9-0.7-2-1.1-3.3-1.1c-1.2,0-2.4,0.4-3.3,1.1l-33.1-19.1
									c0-0.2,0.1-0.5,0.1-0.8c0-0.3,0-0.5-0.1-0.8L294.2-205.3z M11.1,488.9c0-0.2,0.1-0.5,0.1-0.8c0-0.3,0-0.5-0.1-0.8l33.1-19.1
									c0.9,0.7,2,1.1,3.3,1.1c1.2,0,2.4-0.4,3.3-1.1l33.1,19.1c0,0.2-0.1,0.5-0.1,0.8s0,0.5,0.1,0.8l-33.1,19.1
									c-0.9-0.7-2-1.1-3.3-1.1c-1.2,0-2.4,0.4-3.3,1.1L11.1,488.9z M11.1,392.7c0-0.2,0.1-0.5,0.1-0.8l0,0v0v-0.8l33.1-19.1
									c0.9,0.7,2,1.1,3.3,1.1c1.2,0,2.4-0.4,3.3-1.1l33.1,19.1v0.8v0l0,0c0,0.3,0,0.5,0.1,0.8l-33.1,19.1c-0.9-0.7-2-1.1-3.3-1.1
									c-1.2,0-2.4,0.4-3.3,1.1L11.1,392.7z M11.1,296.5c0-0.2,0.1-0.5,0.1-0.8c0-0.3,0-0.5-0.1-0.8l33.1-19.1
									c0.9,0.7,2,1.1,3.3,1.1c1.2,0,2.4-0.4,3.3-1.1L83.9,295c0,0.2-0.1,0.5-0.1,0.8c0,0.3,0,0.5,0.1,0.8l-33.1,19.1
									c-0.9-0.7-2-1.1-3.3-1.1c-1.2,0-2.4,0.4-3.3,1.1L11.1,296.5z M11.1,200.3c0-0.2,0.1-0.5,0.1-0.8c0-0.3,0-0.5-0.1-0.8
									l33.1-19.1c0.9,0.7,2,1.1,3.3,1.1c1.2,0,2.4-0.4,3.3-1.1l33.1,19.1c0,0.2-0.1,0.5-0.1,0.8c0,0.3,0,0.5,0.1,0.8l-33.1,19.1
									c-0.9-0.7-2-1.1-3.3-1.1c-1.2,0-2.4,0.4-3.3,1.1L11.1,200.3z M11.1,104c0-0.2,0.1-0.5,0.1-0.8c0-0.3,0-0.5-0.1-0.8
									l33.1-19.1c0.9,0.7,2,1.1,3.3,1.1c1.2,0,2.4-0.4,3.3-1.1l33.1,19.1c0,0.2-0.1,0.5-0.1,0.8c0,0.3,0,0.5,0.1,0.8l-33.1,19.1
									c-0.9-0.7-2-1.1-3.3-1.1c-1.2,0-2.4,0.4-3.3,1.1L11.1,104z M11.1,7.8c0-0.2,0.1-0.5,0.1-0.8V6.3L11.5,6h0l32.7-18.9
									c0.9,0.7,2,1.1,3.3,1.1c1.2,0,2.4-0.4,3.3-1.1L83.5,6h0l0.4,0.2V7c0,0.3,0,0.5,0.1,0.8L50.8,26.9c-0.9-0.7-2-1.1-3.3-1.1
									c-1.2,0-2.4,0.4-3.3,1.1L11.1,7.8z M11.1-88.4c0-0.2,0.1-0.5,0.1-0.8s0-0.5-0.1-0.8l33.1-19.1c0.9,0.7,2,1.1,3.3,1.1
									c1.2,0,2.4-0.4,3.3-1.1l33.1,19.1c0,0.2-0.1,0.5-0.1,0.8s0,0.5,0.1,0.8L50.8-69.3c-0.9-0.7-2-1.1-3.3-1.1
									c-1.2,0-2.4,0.4-3.3,1.1L11.1-88.4z M333.9-89.9c0,0.2-0.1,0.5-0.1,0.8c0,0.3,0,0.5,0.1,0.8l-33.1,19.1
									c-0.9-0.7-2-1.1-3.3-1.1c-1.2,0-2.4,0.4-3.3,1.1l-33.1-19.1c0-0.2,0.1-0.5,0.1-0.8s0-0.5-0.1-0.8l33.1-19.1
									c0.9,0.7,2,1.1,3.3,1.1c1.2,0,2.4-0.4,3.3-1.1L333.9-89.9z M333.5,6L333.5,6l0.4,0.2V7c0,0.3,0,0.5,0.1,0.8l-33.1,19.1
									c-0.9-0.7-2-1.1-3.3-1.1c-1.2,0-2.4,0.4-3.3,1.1L261.1,7.8c0-0.2,0.1-0.5,0.1-0.8V6.3l0.4-0.2h0l32.7-18.9
									c0.9,0.7,2,1.1,3.3,1.1c1.2,0,2.4-0.4,3.3-1.1L333.5,6z M333.9,102.5c0,0.2-0.1,0.5-0.1,0.8c0,0.3,0,0.5,0.1,0.8l-33.1,19.1
									c-0.9-0.7-2-1.1-3.3-1.1c-1.2,0-2.4,0.4-3.3,1.1L261.1,104c0-0.2,0.1-0.5,0.1-0.8c0-0.3,0-0.5-0.1-0.8l33.1-19.1
									c0.9,0.7,2,1.1,3.3,1.1c1.2,0,2.4-0.4,3.3-1.1L333.9,102.5z M333.9,198.7c0,0.2-0.1,0.5-0.1,0.8c0,0.3,0,0.5,0.1,0.8
									l-33.1,19.1c-0.9-0.7-2-1.1-3.3-1.1c-1.2,0-2.4,0.4-3.3,1.1l-33.1-19.1c0-0.2,0.1-0.5,0.1-0.8c0-0.3,0-0.5-0.1-0.8
									l33.1-19.1c0.9,0.7,2,1.1,3.3,1.1c1.2,0,2.4-0.4,3.3-1.1L333.9,198.7z M333.9,295c0,0.2-0.1,0.5-0.1,0.8
									c0,0.3,0,0.5,0.1,0.8l-33.1,19.1c-0.9-0.7-2-1.1-3.3-1.1c-1.2,0-2.4,0.4-3.3,1.1l-33.1-19.1c0-0.2,0.1-0.5,0.1-0.8
									c0-0.3,0-0.5-0.1-0.8l33.1-19.1c0.9,0.7,2,1.1,3.3,1.1c1.2,0,2.4-0.4,3.3-1.1L333.9,295z M333.9,391.2v0.8v0l0,0
									c0,0.3,0,0.5,0.1,0.8l-33.1,19.1c-0.9-0.7-2-1.1-3.3-1.1c-1.2,0-2.4,0.4-3.3,1.1l-33.1-19.1c0-0.2,0.1-0.5,0.1-0.8l0,0v0
									v-0.8l33.1-19.1c0.9,0.7,2,1.1,3.3,1.1c1.2,0,2.4-0.4,3.3-1.1L333.9,391.2z M333.9,487.4c0,0.2-0.1,0.5-0.1,0.8
									s0,0.5,0.1,0.8l-33.1,19.1c-0.9-0.7-2-1.1-3.3-1.1c-1.2,0-2.4,0.4-3.3,1.1l-33.1-19.1c0-0.2,0.1-0.5,0.1-0.8s0-0.5-0.1-0.8
									l33.1-19.1c0.9,0.7,2,1.1,3.3,1.1c1.2,0,2.4-0.4,3.3-1.1L333.9,487.4z M259.1,580.2c-0.9-0.7-2-1.1-3.3-1.1
									c-1.2,0-2.4,0.4-3.3,1.1l-33.1-19.1c0-0.2,0.1-0.5,0.1-0.8c0-2.2-1.4-4.1-3.3-4.9v-38.3c2-0.8,3.3-2.7,3.3-4.9
									c0-0.3,0-0.5-0.1-0.8l33.1-19.1c0.9,0.7,2,1.1,3.3,1.1c1.2,0,2.4-0.4,3.3-1.1l33.1,19.1c0,0.2-0.1,0.5-0.1,0.8
									c0,2.2,1.4,4.1,3.3,4.9v38.3c-2,0.8-3.3,2.7-3.3,4.9c0,0.3,0,0.5,0.1,0.8L259.1,580.2z M175.8,580.2c-0.9-0.7-2-1.1-3.3-1.1
									h-1v0.1c-0.8,0.2-1.6,0.5-2.3,1l-33.1-19.1c0-0.2,0.1-0.5,0.1-0.8c0-2.2-1.4-4.1-3.3-4.9v-38.3c2-0.8,3.3-2.7,3.3-4.9
									c0-0.3,0-0.5-0.1-0.8l33.1-19.1c0.7,0.5,1.4,0.9,2.3,1v0.1h1c1.2,0,2.4-0.4,3.3-1.1l33.1,19.1c0,0.2-0.1,0.5-0.1,0.8
									c0,2.2,1.4,4.1,3.3,4.9v38.3c-2,0.8-3.3,2.7-3.3,4.9c0,0.3,0,0.5,0.1,0.8L175.8,580.2z M92.4,580.2c-0.9-0.7-2-1.1-3.3-1.1
									c-1.2,0-2.4,0.4-3.3,1.1l-33.1-19.1c0-0.2,0.1-0.5,0.1-0.8c0-2.2-1.4-4.1-3.3-4.9v-38.3c2-0.8,3.3-2.7,3.3-4.9
									c0-0.3,0-0.5-0.1-0.8l33.1-19.1c0.9,0.7,2,1.1,3.3,1.1c1.2,0,2.4-0.4,3.3-1.1l33.1,19.1c0,0.2-0.1,0.5-0.1,0.8
									c0,2.2,1.4,4.1,3.3,4.9v38.3c-2,0.8-3.3,2.7-3.3,4.9c0,0.3,0,0.5,0.1,0.8L92.4,580.2z M85.9-181.2c0.9,0.7,2,1.1,3.3,1.1
									c1.2,0,2.4-0.4,3.3-1.1l33.1,19.1c0,0.2-0.1,0.5-0.1,0.8c0,2.2,1.4,4.1,3.3,4.9v38.3c-2,0.8-3.3,2.7-3.3,4.9
									c0,0.3,0,0.5,0.1,0.8L92.4-93.3c-0.9-0.7-2-1.1-3.3-1.1c-1.2,0-2.4,0.4-3.3,1.1l-33.1-19.1c0-0.2,0.1-0.5,0.1-0.8
									c0-2.2-1.4-4.1-3.3-4.9v-38.3c2-0.8,3.3-2.7,3.3-4.9c0-0.3,0-0.5-0.1-0.8L85.9-181.2z M169.2-181.2c0.4,0.3,0.8,0.5,1.2,0.7
									c0.3,0.1,0.7,0.2,1.1,0.3v0.1h1c0.7,0,1.4-0.1,2.1-0.4c0.4-0.2,0.8-0.4,1.2-0.7l33.1,19.1c0,0.2-0.1,0.5-0.1,0.8
									c0,2.2,1.4,4.1,3.3,4.9v38.3c-2,0.8-3.3,2.7-3.3,4.9c0,0.3,0,0.5,0.1,0.8l-33.1,19.1c-0.9-0.7-2-1.1-3.3-1.1h-1v0.1
									c-0.8,0.2-1.6,0.5-2.3,1l-33.1-19.1c0-0.2,0.1-0.5,0.1-0.8c0-2.2-1.4-4.1-3.3-4.9v-38.3c2-0.8,3.3-2.7,3.3-4.9
									c0-0.3,0-0.5-0.1-0.8L169.2-181.2z M252.6-181.2c0.9,0.7,2,1.1,3.3,1.1c1.2,0,2.4-0.4,3.3-1.1l33.1,19.1
									c0,0.2-0.1,0.5-0.1,0.8c0,2.2,1.4,4.1,3.3,4.9v38.3c-2,0.8-3.3,2.7-3.3,4.9c0,0.3,0,0.5,0.1,0.8l-33.1,19.1
									c-0.9-0.7-2-1.1-3.3-1.1c-1.2,0-2.4,0.4-3.3,1.1l-33.1-19.1c0-0.2,0.1-0.5,0.1-0.8c0-2.2-1.4-4.1-3.3-4.9v-38.3
									c2-0.8,3.3-2.7,3.3-4.9c0-0.3,0-0.5-0.1-0.8L252.6-181.2z M52.8,464.9c0-0.2,0.1-0.5,0.1-0.8c0-2.2-1.4-4.1-3.3-4.9v-38.3
									c2-0.8,3.3-2.7,3.3-4.9c0-0.3,0-0.5-0.1-0.8l33.1-19.1c0.9,0.7,2,1.1,3.3,1.1c1.2,0,2.4-0.4,3.3-1.1l33.1,19.1
									c0,0.2-0.1,0.5-0.1,0.8c0,2.2,1.4,4.1,3.3,4.9v38.3c-2,0.8-3.3,2.7-3.3,4.9c0,0.3,0,0.5,0.1,0.8L92.4,484
									c-0.9-0.7-2-1.1-3.3-1.1c-1.2,0-2.4,0.4-3.3,1.1L52.8,464.9z M49.5,363v-38.3c2-0.8,3.3-2.7,3.3-4.9c0-0.3,0-0.5-0.1-0.8
									l33.1-19.1c0.9,0.7,2,1.1,3.3,1.1c1.2,0,2.4-0.4,3.3-1.1l33.1,19.1c0,0.2-0.1,0.5-0.1,0.8c0,2.2,1.4,4.1,3.3,4.9V363
									c-2,0.8-3.3,2.7-3.3,4.9c0,0.3,0,0.5,0.1,0.8l-33.1,19.1c-0.9-0.7-2-1.1-3.3-1.1c-1.2,0-2.4,0.4-3.3,1.1l-33.1-19.1
									c0-0.2,0.1-0.5,0.1-0.8C52.8,365.7,51.4,363.8,49.5,363z M52.8,272.4c0-0.2,0.1-0.5,0.1-0.8c0-2.2-1.4-4.1-3.3-4.9v-38.3
									c2-0.8,3.3-2.7,3.3-4.9c0-0.3,0-0.5-0.1-0.8l33.1-19.1c0.9,0.7,2,1.1,3.3,1.1c1.2,0,2.4-0.4,3.3-1.1l33.1,19.1
									c0,0.2-0.1,0.5-0.1,0.8c0,2.2,1.4,4.1,3.3,4.9v38.3c-2,0.8-3.3,2.7-3.3,4.9c0,0.3,0,0.5,0.1,0.8l-33.1,19.1
									c-0.9-0.7-2-1.1-3.3-1.1c-1.2,0-2.4,0.4-3.3,1.1L52.8,272.4z M52.8,176.2c0-0.2,0.1-0.5,0.1-0.8c0-2.2-1.4-4.1-3.3-4.9
									v-38.3c2-0.8,3.3-2.7,3.3-4.9c0-0.3,0-0.5-0.1-0.8l33.1-19.1c0.9,0.7,2,1.1,3.3,1.1c1.2,0,2.4-0.4,3.3-1.1l33.1,19.1
									c0,0.2-0.1,0.5-0.1,0.8c0,2.2,1.4,4.1,3.3,4.9v38.3c-2,0.8-3.3,2.7-3.3,4.9c0,0.3,0,0.5,0.1,0.8l-33.1,19.1
									c-0.9-0.7-2-1.1-3.3-1.1c-1.2,0-2.4,0.4-3.3,1.1L52.8,176.2z M52.8,80c0-0.2,0.1-0.5,0.1-0.8c0-2.2-1.4-4.1-3.3-4.9V36
									c2-0.8,3.3-2.7,3.3-4.9c0-0.3,0-0.5-0.1-0.8l33.1-19.1c0.9,0.7,2,1.1,3.3,1.1c1.2,0,2.4-0.4,3.3-1.1l33.1,19.1
									c0,0.2-0.1,0.5-0.1,0.8c0,2.2,1.4,4.1,3.3,4.9v38.3c-2,0.8-3.3,2.7-3.3,4.9c0,0.3,0,0.5,0.1,0.8L92.4,99.1
									c-0.9-0.7-2-1.1-3.3-1.1c-1.2,0-2.4,0.4-3.3,1.1L52.8,80z M52.8-16.2c0-0.2,0.1-0.5,0.1-0.8c0-2.2-1.4-4.1-3.3-4.9v-38.3
									c2-0.8,3.3-2.7,3.3-4.9c0-0.3,0-0.5-0.1-0.8L85.9-85c0.9,0.7,2,1.1,3.3,1.1c1.2,0,2.4-0.4,3.3-1.1l33.1,19.1
									c0,0.2-0.1,0.5-0.1,0.8c0,2.2,1.4,4.1,3.3,4.9v38.3c-2,0.8-3.3,2.7-3.3,4.9c0,0.3,0,0.5,0.1,0.8L92.4,2.9
									c-0.9-0.7-2-1.1-3.3-1.1c-1.2,0-2.4,0.4-3.3,1.1L52.8-16.2z M217.4,508.1c-0.9-0.7-2-1.1-3.3-1.1c-1.2,0-2.4,0.4-3.3,1.1
									l-33.1-19.1c0-0.2,0.1-0.5,0.1-0.8c0-0.3,0-0.5-0.1-0.8l33.1-19.1c0.9,0.7,2,1.1,3.3,1.1c1.2,0,2.4-0.4,3.3-1.1l33.1,19.1
									c0,0.2-0.1,0.5-0.1,0.8s0,0.5,0.1,0.8L217.4,508.1z M134.1,508.1c-0.9-0.7-2-1.1-3.3-1.1c-1.2,0-2.4,0.4-3.3,1.1l-33.1-19.1
									c0-0.2,0.1-0.5,0.1-0.8s0-0.5-0.1-0.8l33.1-19.1c0.9,0.7,2,1.1,3.3,1.1c1.2,0,2.4-0.4,3.3-1.1l33.1,19.1
									c0,0.2-0.1,0.5-0.1,0.8c0,0.3,0,0.5,0.1,0.8L134.1,508.1z M127.6-109.1c0.9,0.7,2,1.1,3.3,1.1c1.2,0,2.4-0.4,3.3-1.1
									l33.1,19.1c0,0.2-0.1,0.5-0.1,0.8c0,0.3,0,0.5,0.1,0.8l-33.1,19.1c-0.9-0.7-2-1.1-3.3-1.1c-1.2,0-2.4,0.4-3.3,1.1L94.4-88.4
									c0-0.2,0.1-0.5,0.1-0.8c0-0.3,0-0.5-0.1-0.8L127.6-109.1z M210.9-109.1c0.9,0.7,2,1.1,3.3,1.1c1.2,0,2.4-0.4,3.3-1.1
									l33.1,19.1c0,0.2-0.1,0.5-0.1,0.8s0,0.5,0.1,0.8l-33.1,19.1c-0.9-0.7-2-1.1-3.3-1.1c-1.2,0-2.4,0.4-3.3,1.1l-33.1-19.1
									c0-0.2,0.1-0.5,0.1-0.8c0-0.3,0-0.5-0.1-0.8L210.9-109.1z M250.2,6L250.2,6l0.4,0.2V7c0,0.3,0,0.5,0.1,0.8l-33.1,19.1
									c-0.9-0.7-2-1.1-3.3-1.1c-1.2,0-2.4,0.4-3.3,1.1L177.8,7.8c0-0.2,0.1-0.5,0.1-0.8V6.3l0.4-0.2h0l32.7-18.9
									c0.9,0.7,2,1.1,3.3,1.1c1.2,0,2.4-0.4,3.3-1.1L250.2,6z M250.6,102.5c0,0.2-0.1,0.5-0.1,0.8c0,0.3,0,0.5,0.1,0.8l-33.1,19.1
									c-0.9-0.7-2-1.1-3.3-1.1c-1.2,0-2.4,0.4-3.3,1.1L177.8,104c0-0.2,0.1-0.5,0.1-0.8c0-0.3,0-0.5-0.1-0.8l33.1-19.1
									c0.9,0.7,2,1.1,3.3,1.1c1.2,0,2.4-0.4,3.3-1.1L250.6,102.5z M250.6,198.7c0,0.2-0.1,0.5-0.1,0.8c0,0.3,0,0.5,0.1,0.8
									l-33.1,19.1c-0.9-0.7-2-1.1-3.3-1.1c-1.2,0-2.4,0.4-3.3,1.1l-33.1-19.1c0-0.2,0.1-0.5,0.1-0.8c0-0.3,0-0.5-0.1-0.8
									l33.1-19.1c0.9,0.7,2,1.1,3.3,1.1c1.2,0,2.4-0.4,3.3-1.1L250.6,198.7z M250.6,295c0,0.2-0.1,0.5-0.1,0.8
									c0,0.3,0,0.5,0.1,0.8l-33.1,19.1c-0.9-0.7-2-1.1-3.3-1.1c-1.2,0-2.4,0.4-3.3,1.1l-33.1-19.1c0-0.2,0.1-0.5,0.1-0.8
									c0-0.3,0-0.5-0.1-0.8l33.1-19.1c0.9,0.7,2,1.1,3.3,1.1c1.2,0,2.4-0.4,3.3-1.1L250.6,295z M250.5,391.2v0.8v0l0,0
									c0,0.3,0,0.5,0.1,0.8l-33.1,19.1c-0.9-0.7-2-1.1-3.3-1.1c-1.2,0-2.4,0.4-3.3,1.1l-33.1-19.1c0-0.2,0.1-0.5,0.1-0.8l0,0v0
									v-0.8l33.1-19.1c0.9,0.7,2,1.1,3.3,1.1c1.2,0,2.4-0.4,3.3-1.1L250.5,391.2z M94.4,392.7c0-0.2,0.1-0.5,0.1-0.8l0,0v0v-0.8
									l33.1-19.1c0.9,0.7,2,1.1,3.3,1.1c1.2,0,2.4-0.4,3.3-1.1l33.1,19.1v0.8v0l0,0c0,0.3,0,0.5,0.1,0.8l-33.1,19.1
									c-0.9-0.7-2-1.1-3.3-1.1c-1.2,0-2.4,0.4-3.3,1.1L94.4,392.7z M94.4,296.5c0-0.2,0.1-0.5,0.1-0.8c0-0.3,0-0.5-0.1-0.8
									l33.1-19.1c0.9,0.7,2,1.1,3.3,1.1c1.2,0,2.4-0.4,3.3-1.1l33.1,19.1c0,0.2-0.1,0.5-0.1,0.8c0,0.3,0,0.5,0.1,0.8l-33.1,19.1
									c-0.9-0.7-2-1.1-3.3-1.1c-1.2,0-2.4,0.4-3.3,1.1L94.4,296.5z M94.4,200.3c0-0.2,0.1-0.5,0.1-0.8c0-0.3,0-0.5-0.1-0.8
									l33.1-19.1c0.9,0.7,2,1.1,3.3,1.1c1.2,0,2.4-0.4,3.3-1.1l33.1,19.1c0,0.2-0.1,0.5-0.1,0.8c0,0.3,0,0.5,0.1,0.8l-33.1,19.1
									c-0.9-0.7-2-1.1-3.3-1.1c-1.2,0-2.4,0.4-3.3,1.1L94.4,200.3z M94.4,104c0-0.2,0.1-0.5,0.1-0.8c0-0.3,0-0.5-0.1-0.8
									l33.1-19.1c0.9,0.7,2,1.1,3.3,1.1c1.2,0,2.4-0.4,3.3-1.1l33.1,19.1c0,0.2-0.1,0.5-0.1,0.8c0,0.3,0,0.5,0.1,0.8l-33.1,19.1
									c-0.9-0.7-2-1.1-3.3-1.1c-1.2,0-2.4,0.4-3.3,1.1L94.4,104z M94.4,7.8c0-0.2,0.1-0.5,0.1-0.8V6.3L94.8,6h0l32.7-18.9
									c0.9,0.7,2,1.1,3.3,1.1c1.2,0,2.4-0.4,3.3-1.1L166.8,6h0l0.4,0.2V7c0,0.3,0,0.5,0.1,0.8l-33.1,19.1c-0.9-0.7-2-1.1-3.3-1.1
									c-1.2,0-2.4,0.4-3.3,1.1L94.4,7.8z M208.9,464.1c0,0.3,0,0.5,0.1,0.8L175.8,484c-0.9-0.7-2-1.1-3.3-1.1h-1v0.1
									c-0.8,0.2-1.6,0.5-2.3,1l-33.1-19.1c0-0.2,0.1-0.5,0.1-0.8c0-2.2-1.4-4.1-3.3-4.9v-38.3c2-0.8,3.3-2.7,3.3-4.9
									c0-0.3,0-0.5-0.1-0.8l33.1-19.1c0.7,0.5,1.4,0.9,2.3,1v0.1h1c1.2,0,2.4-0.4,3.3-1.1l33.1,19.1c0,0.2-0.1,0.5-0.1,0.8
									c0,2.2,1.4,4.1,3.3,4.9v38.3C210.2,460,208.9,461.9,208.9,464.1z M208.9,367.9c0,0.3,0,0.5,0.1,0.8l-33.1,19.1
									c-0.9-0.7-2-1.1-3.3-1.1h-1v0.1c-0.8,0.2-1.6,0.5-2.3,1l-33.1-19.1c0-0.2,0.1-0.5,0.1-0.8c0-2.2-1.4-4.1-3.3-4.9v-38.3
									c2-0.8,3.3-2.7,3.3-4.9c0-0.3,0-0.5-0.1-0.8l33.1-19.1c0.7,0.5,1.4,0.9,2.3,1v0.1h1c1.2,0,2.4-0.4,3.3-1.1l33.1,19.1
									c0,0.2-0.1,0.5-0.1,0.8c0,2.2,1.4,4.1,3.3,4.9V363C210.2,363.8,208.9,365.7,208.9,367.9z M208.9,271.7c0,0.3,0,0.5,0.1,0.8
									l-33.1,19.1c-0.9-0.7-2-1.1-3.3-1.1h-1v0.1c-0.8,0.2-1.6,0.5-2.3,1l-33.1-19.1c0-0.2,0.1-0.5,0.1-0.8c0-2.2-1.4-4.1-3.3-4.9
									v-38.3c2-0.8,3.3-2.7,3.3-4.9c0-0.3,0-0.5-0.1-0.8l33.1-19.1c0.7,0.5,1.4,0.9,2.3,1v0.1h1c1.2,0,2.4-0.4,3.3-1.1l33.1,19.1
									c0,0.2-0.1,0.5-0.1,0.8c0,2.2,1.4,4.1,3.3,4.9v38.3C210.2,267.5,208.9,269.4,208.9,271.7z M208.9,175.4c0,0.3,0,0.5,0.1,0.8
									l-33.1,19.1c-0.9-0.7-2-1.1-3.3-1.1h-1v0.1c-0.8,0.2-1.6,0.5-2.3,1l-33.1-19.1c0-0.2,0.1-0.5,0.1-0.8c0-2.2-1.4-4.1-3.3-4.9
									v-38.3c2-0.8,3.3-2.7,3.3-4.9c0-0.3,0-0.5-0.1-0.8l33.1-19.1c0.7,0.5,1.4,0.9,2.3,1v0.1h1c1.2,0,2.4-0.4,3.3-1.1l33.1,19.1
									c0,0.2-0.1,0.5-0.1,0.8c0,2.2,1.4,4.1,3.3,4.9v38.3C210.2,171.3,208.9,173.2,208.9,175.4z M208.9,79.2c0,0.3,0,0.5,0.1,0.8
									l-33.1,19.1c-0.9-0.7-2-1.1-3.3-1.1h-1v0.1c-0.8,0.2-1.6,0.5-2.3,1L136.1,80c0-0.2,0.1-0.5,0.1-0.8c0-2.2-1.4-4.1-3.3-4.9
									V36c2-0.8,3.3-2.7,3.3-4.9c0-0.3,0-0.5-0.1-0.8l33.1-19.1c0.7,0.5,1.4,0.9,2.3,1v0.1h1c1.2,0,2.4-0.4,3.3-1.1l33.1,19.1
									c0,0.2-0.1,0.5-0.1,0.8c0,2.2,1.4,4.1,3.3,4.9v38.3C210.2,75.1,208.9,77,208.9,79.2z M208.9-17c0,0.3,0,0.5,0.1,0.8
									L175.8,2.9c-0.9-0.7-2-1.1-3.3-1.1h-1v0.1c-0.8,0.2-1.6,0.5-2.3,1l-33.1-19.1c0-0.2,0.1-0.5,0.1-0.8c0-2.2-1.4-4.1-3.3-4.9
									v-38.3c2-0.8,3.3-2.7,3.3-4.9c0-0.3,0-0.5-0.1-0.8L169.2-85c0.7,0.5,1.4,0.9,2.3,1v0.1h1c1.2,0,2.4-0.4,3.3-1.1l33.1,19.1
									c0,0.2-0.1,0.5-0.1,0.8c0,2.2,1.4,4.1,3.3,4.9v38.3C210.2-21.1,208.9-19.2,208.9-17z M292.2,464.1c0,0.3,0,0.5,0.1,0.8
									L259.1,484c-0.9-0.7-2-1.1-3.3-1.1c-1.2,0-2.4,0.4-3.3,1.1l-33.1-19.1c0-0.2,0.1-0.5,0.1-0.8c0-2.2-1.4-4.1-3.3-4.9v-38.3
									c2-0.8,3.3-2.7,3.3-4.9c0-0.3,0-0.5-0.1-0.8l33.1-19.1c0.9,0.7,2,1.1,3.3,1.1c1.2,0,2.4-0.4,3.3-1.1l33.1,19.1
									c0,0.2-0.1,0.5-0.1,0.8c0,2.2,1.4,4.1,3.3,4.9v38.3C293.6,460,292.2,461.9,292.2,464.1z M292.2,367.9c0,0.3,0,0.5,0.1,0.8
									l-33.1,19.1c-0.9-0.7-2-1.1-3.3-1.1c-1.2,0-2.4,0.4-3.3,1.1l-33.1-19.1c0-0.2,0.1-0.5,0.1-0.8c0-2.2-1.4-4.1-3.3-4.9v-38.3
									c2-0.8,3.3-2.7,3.3-4.9c0-0.3,0-0.5-0.1-0.8l33.1-19.1c0.9,0.7,2,1.1,3.3,1.1c1.2,0,2.4-0.4,3.3-1.1l33.1,19.1
									c0,0.2-0.1,0.5-0.1,0.8c0,2.2,1.4,4.1,3.3,4.9V363C293.6,363.8,292.2,365.7,292.2,367.9z M292.2,271.7c0,0.3,0,0.5,0.1,0.8
									l-33.1,19.1c-0.9-0.7-2-1.1-3.3-1.1c-1.2,0-2.4,0.4-3.3,1.1l-33.1-19.1c0-0.2,0.1-0.5,0.1-0.8c0-2.2-1.4-4.1-3.3-4.9v-38.3
									c2-0.8,3.3-2.7,3.3-4.9c0-0.3,0-0.5-0.1-0.8l33.1-19.1c0.9,0.7,2,1.1,3.3,1.1c1.2,0,2.4-0.4,3.3-1.1l33.1,19.1
									c0,0.2-0.1,0.5-0.1,0.8c0,2.2,1.4,4.1,3.3,4.9v38.3C293.6,267.5,292.2,269.4,292.2,271.7z M292.2,175.4c0,0.3,0,0.5,0.1,0.8
									l-33.1,19.1c-0.9-0.7-2-1.1-3.3-1.1c-1.2,0-2.4,0.4-3.3,1.1l-33.1-19.1c0-0.2,0.1-0.5,0.1-0.8c0-2.2-1.4-4.1-3.3-4.9v-38.3
									c2-0.8,3.3-2.7,3.3-4.9c0-0.3,0-0.5-0.1-0.8l33.1-19.1c0.9,0.7,2,1.1,3.3,1.1c1.2,0,2.4-0.4,3.3-1.1l33.1,19.1
									c0,0.2-0.1,0.5-0.1,0.8c0,2.2,1.4,4.1,3.3,4.9v38.3C293.6,171.3,292.2,173.2,292.2,175.4z M292.2,79.2c0,0.3,0,0.5,0.1,0.8
									l-33.1,19.1c-0.9-0.7-2-1.1-3.3-1.1c-1.2,0-2.4,0.4-3.3,1.1L219.4,80c0-0.2,0.1-0.5,0.1-0.8c0-2.2-1.4-4.1-3.3-4.9V36
									c2-0.8,3.3-2.7,3.3-4.9c0-0.3,0-0.5-0.1-0.8l33.1-19.1c0.9,0.7,2,1.1,3.3,1.1c1.2,0,2.4-0.4,3.3-1.1l33.1,19.1
									c0,0.2-0.1,0.5-0.1,0.8c0,2.2,1.4,4.1,3.3,4.9v38.3C293.6,75.1,292.2,77,292.2,79.2z M292.2-17c0,0.3,0,0.5,0.1,0.8
									L259.1,2.9c-0.9-0.7-2-1.1-3.3-1.1c-1.2,0-2.4,0.4-3.3,1.1l-33.1-19.1c0-0.2,0.1-0.5,0.1-0.8c0-2.2-1.4-4.1-3.3-4.9v-38.3
									c2-0.8,3.3-2.7,3.3-4.9c0-0.3,0-0.5-0.1-0.8L252.6-85c0.9,0.7,2,1.1,3.3,1.1c1.2,0,2.4-0.4,3.3-1.1l33.1,19.1
									c0,0.2-0.1,0.5-0.1,0.8c0,2.2,1.4,4.1,3.3,4.9v38.3C293.6-21.2,292.2-19.2,292.2-17z M-30.5-161.3c0-0.3,0-0.5-0.1-0.8
									l33.1-19.1c0.9,0.7,2,1.1,3.3,1.1c1.2,0,2.4-0.4,3.3-1.1l33.1,19.1c0,0.2-0.1,0.5-0.1,0.8c0,2.2,1.4,4.1,3.3,4.9v38.3
									c-2,0.8-3.3,2.7-3.3,4.9c0,0.3,0,0.5,0.1,0.8L9.1-93.3c-0.9-0.7-2-1.1-3.3-1.1c-1.2,0-2.4,0.4-3.3,1.1l-33.1-19.1
									c0-0.2,0.1-0.5,0.1-0.8c0-2.2-1.4-4.1-3.3-4.9v-38.3C-31.9-157.2-30.5-159.1-30.5-161.3z M-30.5-65.1c0-0.3,0-0.5-0.1-0.8
									L2.6-85c0.9,0.7,2,1.1,3.3,1.1c1.2,0,2.4-0.4,3.3-1.1l33.1,19.1c0,0.2-0.1,0.5-0.1,0.8c0,2.2,1.4,4.1,3.3,4.9v38.3
									c-2,0.8-3.3,2.7-3.3,4.9c0,0.3,0,0.5,0.1,0.8L9.1,2.9c-0.9-0.7-2-1.1-3.3-1.1c-1.2,0-2.4,0.4-3.3,1.1l-33.1-19.1
									c0-0.2,0.1-0.5,0.1-0.8c0-2.2-1.4-4.1-3.3-4.9v-38.3C-31.9-61-30.5-62.9-30.5-65.1z M-30.5,31.1c0-0.3,0-0.5-0.1-0.8
									L2.6,11.2c0.9,0.7,2,1.1,3.3,1.1c1.2,0,2.4-0.4,3.3-1.1l33.1,19.1c0,0.2-0.1,0.5-0.1,0.8c0,2.2,1.4,4.1,3.3,4.9v38.3
									c-2,0.8-3.3,2.7-3.3,4.9c0,0.3,0,0.5,0.1,0.8L9.1,99.1c-0.9-0.7-2-1.1-3.3-1.1c-1.2,0-2.4,0.4-3.3,1.1L-30.6,80
									c0-0.2,0.1-0.5,0.1-0.8c0-2.2-1.4-4.1-3.3-4.9V36C-31.9,35.2-30.5,33.3-30.5,31.1z M-30.5,127.3c0-0.3,0-0.5-0.1-0.8
									l33.1-19.1c0.9,0.7,2,1.1,3.3,1.1c1.2,0,2.4-0.4,3.3-1.1l33.1,19.1c0,0.2-0.1,0.5-0.1,0.8c0,2.2,1.4,4.1,3.3,4.9v38.3
									c-2,0.8-3.3,2.7-3.3,4.9c0,0.3,0,0.5,0.1,0.8L9.1,195.3c-0.9-0.7-2-1.1-3.3-1.1c-1.2,0-2.4,0.4-3.3,1.1l-33.1-19.1
									c0-0.2,0.1-0.5,0.1-0.8c0-2.2-1.4-4.1-3.3-4.9v-38.3C-31.9,131.5-30.5,129.6-30.5,127.3z M-30.5,223.6c0-0.3,0-0.5-0.1-0.8
									l33.1-19.1c0.9,0.7,2,1.1,3.3,1.1c1.2,0,2.4-0.4,3.3-1.1l33.1,19.1c0,0.2-0.1,0.5-0.1,0.8c0,2.2,1.4,4.1,3.3,4.9v38.3
									c-2,0.8-3.3,2.7-3.3,4.9c0,0.3,0,0.5,0.1,0.8L9.1,291.6c-0.9-0.7-2-1.1-3.3-1.1c-1.2,0-2.4,0.4-3.3,1.1l-33.1-19.1
									c0-0.2,0.1-0.5,0.1-0.8c0-2.2-1.4-4.1-3.3-4.9v-38.3C-31.9,227.7-30.5,225.8-30.5,223.6z M-30.5,319.8c0-0.3,0-0.5-0.1-0.8
									l33.1-19.1c0.9,0.7,2,1.1,3.3,1.1c1.2,0,2.4-0.4,3.3-1.1L42.3,319c0,0.2-0.1,0.5-0.1,0.8c0,2.2,1.4,4.1,3.3,4.9V363
									c-2,0.8-3.3,2.7-3.3,4.9c0,0.3,0,0.5,0.1,0.8L9.1,387.8c-0.9-0.7-2-1.1-3.3-1.1c-1.2,0-2.4,0.4-3.3,1.1l-33.1-19.1
									c0-0.2,0.1-0.5,0.1-0.8c0-2.2-1.4-4.1-3.3-4.9v-38.3C-31.9,323.9-30.5,322-30.5,319.8z M-30.5,416c0-0.3,0-0.5-0.1-0.8
									l33.1-19.1c0.9,0.7,2,1.1,3.3,1.1c1.2,0,2.4-0.4,3.3-1.1l33.1,19.1c0,0.2-0.1,0.5-0.1,0.8c0,2.2,1.4,4.1,3.3,4.9v38.3
									c-2,0.8-3.3,2.7-3.3,4.9c0,0.3,0,0.5,0.1,0.8L9.1,484c-0.9-0.7-2-1.1-3.3-1.1c-1.2,0-2.4,0.4-3.3,1.1l-33.1-19.1
									c0-0.2,0.1-0.5,0.1-0.8c0-2.2-1.4-4.1-3.3-4.9v-38.3C-31.9,420.2-30.5,418.2-30.5,416z M-30.5,512.2c0-0.3,0-0.5-0.1-0.8
									l33.1-19.1c0.9,0.7,2,1.1,3.3,1.1c1.2,0,2.4-0.4,3.3-1.1l33.1,19.1c0,0.2-0.1,0.5-0.1,0.8c0,2.2,1.4,4.1,3.3,4.9v38.3
									c-2,0.8-3.3,2.7-3.3,4.9c0,0.3,0,0.5,0.1,0.8L9.1,580.2c-0.9-0.7-2-1.1-3.3-1.1c-1.2,0-2.4,0.4-3.3,1.1l-33.1-19.1
									c0-0.2,0.1-0.5,0.1-0.8c0-2.2-1.4-4.1-3.3-4.9v-38.3C-31.9,516.4-30.5,514.5-30.5,512.2z"/>
								<path class="st1" d="M210.9,372.1l-33.1,19.1v0.8h72.7v-0.8l-33.1-19.1c-0.9,0.7-2,1.1-3.3,1.1
									C212.9,373.2,211.8,372.8,210.9,372.1z"/>
								<path class="st1" d="M208.9,319.8c0-0.3,0-0.5,0.1-0.8l-33.1-19.1c-0.9,0.7-2,1.1-3.3,1.1h-1v-0.1c-0.8-0.2-1.6-0.5-2.3-1
									L136.1,319c0,0.2,0.1,0.5,0.1,0.8c0,2.2-1.4,4.1-3.3,4.9V363c2,0.8,3.3,2.7,3.3,4.9c0,0.3,0,0.5-0.1,0.8l33.1,19.1
									c0.7-0.5,1.4-0.9,2.3-1v-0.1h1c1.2,0,2.4,0.4,3.3,1.1l33.1-19.1c0-0.2-0.1-0.5-0.1-0.8c0-2.2,1.4-4.1,3.3-4.9v-38.3
									C210.2,323.9,208.9,322,208.9,319.8z"/>
								<path class="st1" d="M210.9,179.6l-33.1,19.1c0,0.2,0.1,0.5,0.1,0.8c0,0.3,0,0.5-0.1,0.8l33.1,19.1c0.9-0.7,2-1.1,3.3-1.1
									c1.2,0,2.4,0.4,3.3,1.1l33.1-19.1c0-0.2-0.1-0.5-0.1-0.8c0-0.3,0-0.5,0.1-0.8l-33.1-19.1c-0.9,0.7-2,1.1-3.3,1.1
									C212.9,180.8,211.8,180.3,210.9,179.6z"/>
								<path class="st1" d="M292.2,127.3c0-0.3,0-0.5,0.1-0.8l-33.1-19.1c-0.9,0.7-2,1.1-3.3,1.1c-1.2,0-2.4-0.4-3.3-1.1
									l-33.1,19.1c0,0.2,0.1,0.5,0.1,0.8c0,2.2-1.4,4.1-3.3,4.9v38.3c2,0.8,3.3,2.7,3.3,4.9c0,0.3,0,0.5-0.1,0.8l33.1,19.1
									c0.9-0.7,2-1.1,3.3-1.1c1.2,0,2.4,0.4,3.3,1.1l33.1-19.1c0-0.2-0.1-0.5-0.1-0.8c0-2.2,1.4-4.1,3.3-4.9v-38.3
									C293.6,131.5,292.2,129.6,292.2,127.3z"/>
								<path class="st1" d="M208.9,127.3c0-0.3,0-0.5,0.1-0.8l-33.1-19.1c-0.9,0.7-2,1.1-3.3,1.1h-1v-0.1c-0.8-0.2-1.6-0.5-2.3-1
									l-33.1,19.1c0,0.2,0.1,0.5,0.1,0.8c0,2.2-1.4,4.1-3.3,4.9v38.3c2,0.8,3.3,2.7,3.3,4.9c0,0.3,0,0.5-0.1,0.8l33.1,19.1
									c0.7-0.5,1.4-0.9,2.3-1v-0.1h1c1.2,0,2.4,0.4,3.3,1.1l33.1-19.1c0-0.2-0.1-0.5-0.1-0.8c0-2.2,1.4-4.1,3.3-4.9v-38.3
									C210.2,131.5,208.9,129.6,208.9,127.3z"/>
								<path class="st1" d="M208.9,223.6c0-0.3,0-0.5,0.1-0.8l-33.1-19.1c-0.9,0.7-2,1.1-3.3,1.1h-1v-0.1c-0.8-0.2-1.6-0.5-2.3-1
									l-33.1,19.1c0,0.2,0.1,0.5,0.1,0.8c0,2.2-1.4,4.1-3.3,4.9v38.3c2,0.8,3.3,2.7,3.3,4.9c0,0.3,0,0.5-0.1,0.8l33.1,19.1
									c0.7-0.5,1.4-0.9,2.3-1v-0.1h1c1.2,0,2.4,0.4,3.3,1.1l33.1-19.1c0-0.2-0.1-0.5-0.1-0.8c0-2.2,1.4-4.1,3.3-4.9v-38.3
									C210.2,227.7,208.9,225.8,208.9,223.6z"/>
								<path class="st1" d="M294.2,275.8L261.1,295c0,0.2,0.1,0.5,0.1,0.8c0,0.3,0,0.5-0.1,0.8l33.1,19.1c0.9-0.7,2-1.1,3.3-1.1
									c1.2,0,2.4,0.4,3.3,1.1l33.1-19.1c0-0.2-0.1-0.5-0.1-0.8c0-0.3,0-0.5,0.1-0.8l-33.1-19.1c-0.9,0.7-2,1.1-3.3,1.1
									C296.3,277,295.1,276.5,294.2,275.8z"/>
								<path class="st1" d="M210.9,275.8L177.8,295c0,0.2,0.1,0.5,0.1,0.8c0,0.3,0,0.5-0.1,0.8l33.1,19.1c0.9-0.7,2-1.1,3.3-1.1
									c1.2,0,2.4,0.4,3.3,1.1l33.1-19.1c0-0.2-0.1-0.5-0.1-0.8c0-0.3,0-0.5,0.1-0.8l-33.1-19.1c-0.9,0.7-2,1.1-3.3,1.1
									C212.9,277,211.8,276.5,210.9,275.8z"/>
								<path class="st1" d="M210.9,83.4l-33.1,19.1c0,0.2,0.1,0.5,0.1,0.8c0,0.3,0,0.5-0.1,0.8l33.1,19.1c0.9-0.7,2-1.1,3.3-1.1
									c1.2,0,2.4,0.4,3.3,1.1l33.1-19.1c0-0.2-0.1-0.5-0.1-0.8c0-0.3,0-0.5,0.1-0.8l-33.1-19.1c-0.9,0.7-2,1.1-3.3,1.1
									C212.9,84.5,211.8,84.1,210.9,83.4z"/>
								<path class="st1" d="M294.2,372.1l-33.1,19.1v0.8h72.7v-0.8l-33.1-19.1c-0.9,0.7-2,1.1-3.3,1.1
									C296.3,373.2,295.1,372.8,294.2,372.1z"/>
								<path class="st1" d="M292.2,223.6c0-0.3,0-0.5,0.1-0.8l-33.1-19.1c-0.9,0.7-2,1.1-3.3,1.1c-1.2,0-2.4-0.4-3.3-1.1
									l-33.1,19.1c0,0.2,0.1,0.5,0.1,0.8c0,2.2-1.4,4.1-3.3,4.9v38.3c2,0.8,3.3,2.7,3.3,4.9c0,0.3,0,0.5-0.1,0.8l33.1,19.1
									c0.9-0.7,2-1.1,3.3-1.1c1.2,0,2.4,0.4,3.3,1.1l33.1-19.1c0-0.2-0.1-0.5-0.1-0.8c0-2.2,1.4-4.1,3.3-4.9v-38.3
									C293.6,227.7,292.2,225.8,292.2,223.6z"/>
								<path class="st1" d="M294.2,179.6l-33.1,19.1c0,0.2,0.1,0.5,0.1,0.8c0,0.3,0,0.5-0.1,0.8l33.1,19.1c0.9-0.7,2-1.1,3.3-1.1
									c1.2,0,2.4,0.4,3.3,1.1l33.1-19.1c0-0.2-0.1-0.5-0.1-0.8c0-0.3,0-0.5,0.1-0.8l-33.1-19.1c-0.9,0.7-2,1.1-3.3,1.1
									C296.3,180.8,295.1,180.3,294.2,179.6z"/>
								<path class="st1" d="M292.2,319.8c0-0.3,0-0.5,0.1-0.8l-33.1-19.1c-0.9,0.7-2,1.1-3.3,1.1c-1.2,0-2.4-0.4-3.3-1.1L219.4,319
									c0,0.2,0.1,0.5,0.1,0.8c0,2.2-1.4,4.1-3.3,4.9V363c2,0.8,3.3,2.7,3.3,4.9c0,0.3,0,0.5-0.1,0.8l33.1,19.1
									c0.9-0.7,2-1.1,3.3-1.1c1.2,0,2.4,0.4,3.3,1.1l33.1-19.1c0-0.2-0.1-0.5-0.1-0.8c0-2.2,1.4-4.1,3.3-4.9v-38.3
									C293.6,323.9,292.2,322,292.2,319.8z"/>
								<path class="st1" d="M208.9,31.1c0-0.3,0-0.5,0.1-0.8l-33.1-19.1c-0.9,0.7-2,1.1-3.3,1.1h-1v-0.1c-0.8-0.2-1.6-0.5-2.3-1
									l-33.1,19.1c0,0.2,0.1,0.5,0.1,0.8c0,2.2-1.4,4.1-3.3,4.9v38.3c2,0.8,3.3,2.7,3.3,4.9c0,0.3,0,0.5-0.1,0.8l33.1,19.1
									c0.7-0.5,1.4-0.9,2.3-1V98h1c1.2,0,2.4,0.4,3.3,1.1L208.9,80c0-0.2-0.1-0.5-0.1-0.8c0-2.2,1.4-4.1,3.3-4.9V36
									C210.2,35.2,208.9,33.3,208.9,31.1z"/>
								<path class="st1" d="M294.2,83.4l-33.1,19.1c0,0.2,0.1,0.5,0.1,0.8c0,0.3,0,0.5-0.1,0.8l33.1,19.1c0.9-0.7,2-1.1,3.3-1.1
									c1.2,0,2.4,0.4,3.3,1.1l33.1-19.1c0-0.2-0.1-0.5-0.1-0.8c0-0.3,0-0.5,0.1-0.8l-33.1-19.1c-0.9,0.7-2,1.1-3.3,1.1
									C296.3,84.5,295.1,84.1,294.2,83.4z"/>
								<path class="st1" d="M342.4,11.2c-0.9,0.7-2,1.1-3.3,1.1c-1.2,0-2.4-0.4-3.3-1.1l-33.1,19.1c0,0.2,0.1,0.5,0.1,0.8
									c0,2.2-1.4,4.1-3.3,4.9v38.3c2,0.8,3.3,2.7,3.3,4.9c0,0.3,0,0.5-0.1,0.8l33.1,19.1c0.9-0.7,2-1.1,3.3-1.1
									c1.2,0,2.4,0.4,3.3,1.1L375.6,80c0-0.2-0.1-0.5-0.1-0.8c0-2.2,1.4-4.1,3.3-4.9V36c-2-0.8-3.3-2.7-3.3-4.9
									c0-0.3,0-0.5,0.1-0.8L342.4,11.2z"/>
								<path class="st1" d="M386.1,222.8c0,0.2,0.1,0.5,0.1,0.8c0,2.2-1.4,4.1-3.3,4.9v38.3c2,0.8,3.3,2.7,3.3,4.9
									c0,0.3,0,0.5-0.1,0.8l33.1,19.1c0.9-0.7,2-1.1,3.3-1.1v-85.6c-1.2,0-2.4-0.4-3.3-1.1L386.1,222.8z"/>
								<path class="st1" d="M377.6,275.8L344.4,295c0,0.2,0.1,0.5,0.1,0.8c0,0.3,0,0.5-0.1,0.8l33.1,19.1c0.9-0.7,2-1.1,3.3-1.1
									c1.2,0,2.4,0.4,3.3,1.1l33.1-19.1c0-0.2-0.1-0.5-0.1-0.8c0-0.3,0-0.5,0.1-0.8l-33.1-19.1c-0.9,0.7-2,1.1-3.3,1.1
									C379.6,277,378.5,276.5,377.6,275.8z"/>
								<path class="st1" d="M386.1,319c0,0.2,0.1,0.5,0.1,0.8c0,2.2-1.4,4.1-3.3,4.9V363c2,0.8,3.3,2.7,3.3,4.9
									c0,0.3,0,0.5-0.1,0.8l33.1,19.1c0.9-0.7,2-1.1,3.3-1.1V301c-1.2,0-2.4-0.4-3.3-1.1L386.1,319z"/>
								<path class="st1" d="M377.6,179.6l-33.1,19.1c0,0.2,0.1,0.5,0.1,0.8c0,0.3,0,0.5-0.1,0.8l33.1,19.1c0.9-0.7,2-1.1,3.3-1.1
									c1.2,0,2.4,0.4,3.3,1.1l33.1-19.1c0-0.2-0.1-0.5-0.1-0.8c0-0.3,0-0.5,0.1-0.8l-33.1-19.1c-0.9,0.7-2,1.1-3.3,1.1
									C379.6,180.8,378.5,180.3,377.6,179.6z"/>
								<path class="st1" d="M386.1,30.3c0,0.2,0.1,0.5,0.1,0.8c0,2.2-1.4,4.1-3.3,4.9v38.3c2,0.8,3.3,2.7,3.3,4.9
									c0,0.3,0,0.5-0.1,0.8l33.1,19.1c0.9-0.7,2-1.1,3.3-1.1V12.4c-1.2,0-2.4-0.4-3.3-1.1L386.1,30.3z"/>
								<path class="st1" d="M386.1,126.6c0,0.2,0.1,0.5,0.1,0.8c0,2.2-1.4,4.1-3.3,4.9v38.3c2,0.8,3.3,2.7,3.3,4.9
									c0,0.3,0,0.5-0.1,0.8l33.1,19.1c0.9-0.7,2-1.1,3.3-1.1v-85.6c-1.2,0-2.4-0.4-3.3-1.1L386.1,126.6z"/>
								<path class="st1" d="M292.2,31.1c0-0.3,0-0.5,0.1-0.8l-33.1-19.1c-0.9,0.7-2,1.1-3.3,1.1c-1.2,0-2.4-0.4-3.3-1.1l-33.1,19.1
									c0,0.2,0.1,0.5,0.1,0.8c0,2.2-1.4,4.1-3.3,4.9v38.3c2,0.8,3.3,2.7,3.3,4.9c0,0.3,0,0.5-0.1,0.8l33.1,19.1
									c0.9-0.7,2-1.1,3.3-1.1c1.2,0,2.4,0.4,3.3,1.1L292.3,80c0-0.2-0.1-0.5-0.1-0.8c0-2.2,1.4-4.1,3.3-4.9V36
									C293.6,35.3,292.2,33.3,292.2,31.1z"/>
								<path class="st1" d="M377.6,83.4l-33.1,19.1c0,0.2,0.1,0.5,0.1,0.8c0,0.3,0,0.5-0.1,0.8l33.1,19.1c0.9-0.7,2-1.1,3.3-1.1
									c1.2,0,2.4,0.4,3.3,1.1l33.1-19.1c0-0.2-0.1-0.5-0.1-0.8c0-0.3,0-0.5,0.1-0.8l-33.1-19.1c-0.9,0.7-2,1.1-3.3,1.1
									C379.6,84.5,378.5,84.1,377.6,83.4z"/>
								<path class="st1" d="M342.4,299.9c-0.9,0.7-2,1.1-3.3,1.1c-1.2,0-2.4-0.4-3.3-1.1L302.8,319c0,0.2,0.1,0.5,0.1,0.8
									c0,2.2-1.4,4.1-3.3,4.9V363c2,0.8,3.3,2.7,3.3,4.9c0,0.3,0,0.5-0.1,0.8l33.1,19.1c0.9-0.7,2-1.1,3.3-1.1
									c1.2,0,2.4,0.4,3.3,1.1l33.1-19.1c0-0.2-0.1-0.5-0.1-0.8c0-2.2,1.4-4.1,3.3-4.9v-38.3c-2-0.8-3.3-2.7-3.3-4.9
									c0-0.3,0-0.5,0.1-0.8L342.4,299.9z"/>
								<path class="st1" d="M377.6,372.1l-33.1,19.1v0.8h72.7v-0.8l-33.1-19.1c-0.9,0.7-2,1.1-3.3,1.1
									C379.6,373.2,378.5,372.8,377.6,372.1z"/>
								<path class="st1" d="M335.9,203.7l-33.1,19.1c0,0.2,0.1,0.5,0.1,0.8c0,2.2-1.4,4.1-3.3,4.9v38.3c2,0.8,3.3,2.7,3.3,4.9
									c0,0.3,0,0.5-0.1,0.8l33.1,19.1c0.9-0.7,2-1.1,3.3-1.1c1.2,0,2.4,0.4,3.3,1.1l33.1-19.1c0-0.2-0.1-0.5-0.1-0.8
									c0-2.2,1.4-4.1,3.3-4.9v-38.3c-2-0.8-3.3-2.7-3.3-4.9c0-0.3,0-0.5,0.1-0.8l-33.1-19.1c-0.9,0.7-2,1.1-3.3,1.1
									C337.9,204.8,336.8,204.4,335.9,203.7z"/>
								<path class="st1" d="M335.9,107.4l-33.1,19.1c0,0.2,0.1,0.5,0.1,0.8c0,2.2-1.4,4.1-3.3,4.9v38.3c2,0.8,3.3,2.7,3.3,4.9
									c0,0.3,0,0.5-0.1,0.8l33.1,19.1c0.9-0.7,2-1.1,3.3-1.1c1.2,0,2.4,0.4,3.3,1.1l33.1-19.1c0-0.2-0.1-0.5-0.1-0.8
									c0-2.2,1.4-4.1,3.3-4.9v-38.3c-2-0.8-3.3-2.7-3.3-4.9c0-0.3,0-0.5,0.1-0.8l-33.1-19.1c-0.9,0.7-2,1.1-3.3,1.1
									C337.9,108.6,336.8,108.2,335.9,107.4z"/>
								<path class="st1" d="M-41.1,561.1c0-0.2-0.1-0.5-0.1-0.8c0-2.2,1.4-4.1,3.3-4.9v-38.3c-2-0.8-3.3-2.7-3.3-4.9
									c0-0.3,0-0.5,0.1-0.8l-33.1-19.1c-0.9,0.7-2,1.1-3.3,1.1v85.6c1.2,0,2.4,0.4,3.3,1.1L-41.1,561.1z"/>
								<path class="st1" d="M-41.1,464.9c0-0.2-0.1-0.5-0.1-0.8c0-2.2,1.4-4.1,3.3-4.9v-38.3c-2-0.8-3.3-2.7-3.3-4.9
									c0-0.3,0-0.5,0.1-0.8l-33.1-19.1c-0.9,0.7-2,1.1-3.3,1.1v85.6c1.2,0,2.4,0.4,3.3,1.1L-41.1,464.9z"/>
								<path class="st1" d="M-41.1,657.3c0-0.2-0.1-0.5-0.1-0.8c0-2.2,1.4-4.1,3.3-4.9v-38.3c-2-0.8-3.3-2.7-3.3-4.9
									c0-0.3,0-0.5,0.1-0.8l-33.1-19.1c-0.9,0.7-2,1.1-3.3,1.1v85.6c1.2,0,2.4,0.4,3.3,1.1L-41.1,657.3z"/>
								<path class="st1" d="M125.5,656.6c0-2.2,1.4-4.1,3.3-4.9v-38.3c-2-0.8-3.3-2.7-3.3-4.9c0-0.3,0-0.5,0.1-0.8l-33.1-19.1
									c-0.9,0.7-2,1.1-3.3,1.1c-1.2,0-2.4-0.4-3.3-1.1l-33.1,19.1c0,0.2,0.1,0.5,0.1,0.8c0,2.2-1.4,4.1-3.3,4.9v38.3
									c2,0.8,3.3,2.7,3.3,4.9c0,0.3,0,0.5-0.1,0.8l33.1,19.1c0.9-0.7,2-1.1,3.3-1.1c1.2,0,2.4,0.4,3.3,1.1l33.1-19.1
									C125.5,657.1,125.5,656.8,125.5,656.6z"/>
								<path class="st1" d="M-32.6,660.7c-0.9,0.7-2,1.1-3.3,1.1c-1.2,0-2.4-0.4-3.3-1.1l-33.1,19.1c0,0.2,0.1,0.5,0.1,0.8H0.5
									c0-0.3,0-0.5,0.1-0.8L-32.6,660.7z"/>
								<path class="st1" d="M50.8,660.7c-0.9,0.7-2,1.1-3.3,1.1c-1.2,0-2.4-0.4-3.3-1.1l-33.1,19.1c0,0.2,0.1,0.5,0.1,0.8h72.7
									c0-0.3,0-0.5,0.1-0.8L50.8,660.7z"/>
								<path class="st1" d="M50.8,411.8l33.1-19.1c0-0.2-0.1-0.5-0.1-0.8l0,0H11.1l0,0c0,0.3,0,0.5-0.1,0.8l33.1,19.1
									c0.9-0.7,2-1.1,3.3-1.1C48.7,410.7,49.9,411.1,50.8,411.8z"/>
								<path class="st1" d="M167.2,584.4c0-0.3,0-0.5,0.1-0.8l-33.1-19.1c-0.9,0.7-2,1.1-3.3,1.1c-1.2,0-2.4-0.4-3.3-1.1
									l-33.1,19.1c0,0.2,0.1,0.5,0.1,0.8c0,0.3,0,0.5-0.1,0.8l33.1,19.1c0.9-0.7,2-1.1,3.3-1.1c1.2,0,2.4,0.4,3.3,1.1l33.1-19.1
									C167.2,584.9,167.2,584.7,167.2,584.4z"/>
								<path class="st1" d="M42.2,656.6c0-2.2,1.4-4.1,3.3-4.9v-38.3c-2-0.8-3.3-2.7-3.3-4.9c0-0.3,0-0.5,0.1-0.8L9.1,588.6
									c-0.9,0.7-2,1.1-3.3,1.1c-1.2,0-2.4-0.4-3.3-1.1l-33.1,19.1c0,0.2,0.1,0.5,0.1,0.8c0,2.2-1.4,4.1-3.3,4.9v38.3
									c2,0.8,3.3,2.7,3.3,4.9c0,0.3,0,0.5-0.1,0.8l33.1,19.1c0.9-0.7,2-1.1,3.3-1.1c1.2,0,2.4,0.4,3.3,1.1l33.1-19.1
									C42.2,657.1,42.2,656.8,42.2,656.6z"/>
								<path class="st1" d="M83.9,584.4c0-0.3,0-0.5,0.1-0.8l-33.1-19.1c-0.9,0.7-2,1.1-3.3,1.1c-1.2,0-2.4-0.4-3.3-1.1l-33.1,19.1
									c0,0.2,0.1,0.5,0.1,0.8c0,0.3,0,0.5-0.1,0.8l33.1,19.1c0.9-0.7,2-1.1,3.3-1.1c1.2,0,2.4,0.4,3.3,1.1l33.1-19.1
									C83.9,584.9,83.9,584.7,83.9,584.4z"/>
								<path class="st1" d="M50.8,508.1l33.1-19.1c0-0.2-0.1-0.5-0.1-0.8s0-0.5,0.1-0.8l-33.1-19.1c-0.9,0.7-2,1.1-3.3,1.1
									c-1.2,0-2.4-0.4-3.3-1.1l-33.1,19.1c0,0.2,0.1,0.5,0.1,0.8c0,0.3,0,0.5-0.1,0.8l33.1,19.1c0.9-0.7,2-1.1,3.3-1.1
									C48.7,506.9,49.9,507.4,50.8,508.1z"/>
								<path class="st1" d="M125.5,560.3c0-2.2,1.4-4.1,3.3-4.9v-38.3c-2-0.8-3.3-2.7-3.3-4.9c0-0.3,0-0.5,0.1-0.8l-33.1-19.1
									c-0.9,0.7-2,1.1-3.3,1.1c-1.2,0-2.4-0.4-3.3-1.1l-33.1,19.1c0,0.2,0.1,0.5,0.1,0.8c0,2.2-1.4,4.1-3.3,4.9v38.3
									c2,0.8,3.3,2.7,3.3,4.9c0,0.3,0,0.5-0.1,0.8l33.1,19.1c0.9-0.7,2-1.1,3.3-1.1c1.2,0,2.4,0.4,3.3,1.1l33.1-19.1
									C125.5,560.9,125.5,560.6,125.5,560.3z"/>
								<path class="st1" d="M134.1,411.8l33.1-19.1c0-0.2-0.1-0.5-0.1-0.8l0,0H94.5l0,0c0,0.3,0,0.5-0.1,0.8l33.1,19.1
									c0.9-0.7,2-1.1,3.3-1.1C132.1,410.7,133.2,411.1,134.1,411.8z"/>
								<path class="st1" d="M134.1,660.7c-0.9,0.7-2,1.1-3.3,1.1c-1.2,0-2.4-0.4-3.3-1.1l-33.1,19.1c0,0.2,0.1,0.5,0.1,0.8h72.7
									c0-0.3,0-0.5,0.1-0.8L134.1,660.7z"/>
								<path class="st1" d="M167.2,488.2c0-0.3,0-0.5,0.1-0.8l-33.1-19.1c-0.9,0.7-2,1.1-3.3,1.1c-1.2,0-2.4-0.4-3.3-1.1
									l-33.1,19.1c0,0.2,0.1,0.5,0.1,0.8s0,0.5-0.1,0.8l33.1,19.1c0.9-0.7,2-1.1,3.3-1.1c1.2,0,2.4,0.4,3.3,1.1l33.1-19.1
									C167.2,488.7,167.2,488.4,167.2,488.2z"/>
								<path class="st1" d="M-32.6,411.8l33.1-19.1c0-0.2-0.1-0.5-0.1-0.8l0,0h-72.7l0,0c0,0.3,0,0.5-0.1,0.8l33.1,19.1
									c0.9-0.7,2-1.1,3.3-1.1C-34.6,410.7-33.5,411.1-32.6,411.8z"/>
								<path class="st1" d="M-32.6,508.1l33.1-19.1c0-0.2-0.1-0.5-0.1-0.8c0-0.3,0-0.5,0.1-0.8l-33.1-19.1c-0.9,0.7-2,1.1-3.3,1.1
									c-1.2,0-2.4-0.4-3.3-1.1l-33.1,19.1c0,0.2,0.1,0.5,0.1,0.8c0,0.3,0,0.5-0.1,0.8l33.1,19.1c0.9-0.7,2-1.1,3.3-1.1
									C-34.6,506.9-33.5,507.4-32.6,508.1z"/>
								<path class="st1" d="M-32.6,604.3l33.1-19.1c0-0.2-0.1-0.5-0.1-0.8c0-0.3,0-0.5,0.1-0.8l-33.1-19.1c-0.9,0.7-2,1.1-3.3,1.1
									c-1.2,0-2.4-0.4-3.3-1.1l-33.1,19.1c0,0.2,0.1,0.5,0.1,0.8c0,0.3,0,0.5-0.1,0.8l33.1,19.1c0.9-0.7,2-1.1,3.3-1.1
									C-34.6,603.1-33.5,603.6-32.6,604.3z"/>
								<path class="st1" d="M-30.5,464.1c0,0.3,0,0.5-0.1,0.8L2.6,484c0.9-0.7,2-1.1,3.3-1.1c1.2,0,2.4,0.4,3.3,1.1l33.1-19.1
									c0-0.2-0.1-0.5-0.1-0.8c0-2.2,1.4-4.1,3.3-4.9v-38.3c-2-0.8-3.3-2.7-3.3-4.9c0-0.3,0-0.5,0.1-0.8L9.1,396.1
									c-0.9,0.7-2,1.1-3.3,1.1c-1.2,0-2.4-0.4-3.3-1.1l-33.1,19.1c0,0.2,0.1,0.5,0.1,0.8c0,2.2-1.4,4.1-3.3,4.9v38.3
									C-31.9,460-30.5,461.9-30.5,464.1z"/>
								<path class="st1" d="M92.4,484l33.1-19.1c0-0.2-0.1-0.5-0.1-0.8c0-2.2,1.4-4.1,3.3-4.9v-38.3c-2-0.8-3.3-2.7-3.3-4.9
									c0-0.3,0-0.5,0.1-0.8l-33.1-19.1c-0.9,0.7-2,1.1-3.3,1.1c-1.2,0-2.4-0.4-3.3-1.1l-33.1,19.1c0,0.2,0.1,0.5,0.1,0.8
									c0,2.2-1.4,4.1-3.3,4.9v38.3c2,0.8,3.3,2.7,3.3,4.9c0,0.3,0,0.5-0.1,0.8L85.9,484c0.9-0.7,2-1.1,3.3-1.1
									C90.4,482.9,91.5,483.3,92.4,484z"/>
								<path class="st1" d="M-30.5,560.3c0,0.3,0,0.5-0.1,0.8l33.1,19.1c0.9-0.7,2-1.1,3.3-1.1c1.2,0,2.4,0.4,3.3,1.1l33.1-19.1
									c0-0.2-0.1-0.5-0.1-0.8c0-2.2,1.4-4.1,3.3-4.9v-38.3c-2-0.8-3.3-2.7-3.3-4.9c0-0.3,0-0.5,0.1-0.8L9.1,492.3
									c-0.9,0.7-2,1.1-3.3,1.1c-1.2,0-2.4-0.4-3.3-1.1l-33.1,19.1c0,0.2,0.1,0.5,0.1,0.8c0,2.2-1.4,4.1-3.3,4.9v38.3
									C-31.9,556.2-30.5,558.1-30.5,560.3z"/>
								<path class="st1" d="M342.4,396.1c-0.9,0.7-2,1.1-3.3,1.1c-1.2,0-2.4-0.4-3.3-1.1l-33.1,19.1c0,0.2,0.1,0.5,0.1,0.8
									c0,2.2-1.4,4.1-3.3,4.9v38.3c2,0.8,3.3,2.7,3.3,4.9c0,0.3,0,0.5-0.1,0.8l33.1,19.1c0.9-0.7,2-1.1,3.3-1.1
									c1.2,0,2.4,0.4,3.3,1.1l33.1-19.1c0-0.2-0.1-0.5-0.1-0.8c0-2.2,1.4-4.1,3.3-4.9v-38.3c-2-0.8-3.3-2.7-3.3-4.9
									c0-0.3,0-0.5,0.1-0.8L342.4,396.1z"/>
								<path class="st1" d="M386.1,607.7c0,0.2,0.1,0.5,0.1,0.8c0,2.2-1.4,4.1-3.3,4.9v38.3c2,0.8,3.3,2.7,3.3,4.9
									c0,0.3,0,0.5-0.1,0.8l33.1,19.1c0.9-0.7,2-1.1,3.3-1.1v-85.6c-1.2,0-2.4-0.4-3.3-1.1L386.1,607.7z"/>
								<path class="st1" d="M208.9,416c0-0.3,0-0.5,0.1-0.8l-33.1-19.1c-0.9,0.7-2,1.1-3.3,1.1h-1v-0.1c-0.8-0.2-1.6-0.5-2.3-1
									l-33.1,19.1c0,0.2,0.1,0.5,0.1,0.8c0,2.2-1.4,4.1-3.3,4.9v38.3c2,0.8,3.3,2.7,3.3,4.9c0,0.3,0,0.5-0.1,0.8l33.1,19.1
									c0.7-0.5,1.4-0.9,2.3-1v-0.1h1c1.2,0,2.4,0.4,3.3,1.1l33.1-19.1c0-0.2-0.1-0.5-0.1-0.8c0-2.2,1.4-4.1,3.3-4.9v-38.3
									C210.2,420.2,208.9,418.2,208.9,416z"/>
								<path class="st1" d="M208.9,560.3c0-2.2,1.4-4.1,3.3-4.9v-38.3c-2-0.8-3.3-2.7-3.3-4.9c0-0.3,0-0.5,0.1-0.8l-33.1-19.1
									c-0.9,0.7-2,1.1-3.3,1.1h-1v-0.1c-0.8-0.2-1.6-0.5-2.3-1l-33.1,19.1c0,0.2,0.1,0.5,0.1,0.8c0,2.2-1.4,4.1-3.3,4.9v38.3
									c2,0.8,3.3,2.7,3.3,4.9c0,0.3,0,0.5-0.1,0.8l33.1,19.1c0.7-0.5,1.4-0.9,2.3-1v-0.1h1c1.2,0,2.4,0.4,3.3,1.1l33.1-19.1
									C208.9,560.9,208.9,560.6,208.9,560.3z"/>
								<path class="st1" d="M292.2,416c0-0.3,0-0.5,0.1-0.8l-33.1-19.1c-0.9,0.7-2,1.1-3.3,1.1c-1.2,0-2.4-0.4-3.3-1.1l-33.1,19.1
									c0,0.2,0.1,0.5,0.1,0.8c0,2.2-1.4,4.1-3.3,4.9v38.3c2,0.8,3.3,2.7,3.3,4.9c0,0.3,0,0.5-0.1,0.8l33.1,19.1
									c0.9-0.7,2-1.1,3.3-1.1c1.2,0,2.4,0.4,3.3,1.1l33.1-19.1c0-0.2-0.1-0.5-0.1-0.8c0-2.2,1.4-4.1,3.3-4.9v-38.3
									C293.6,420.2,292.2,418.2,292.2,416z"/>
								<path class="st1" d="M375.5,656.6c0-2.2,1.4-4.1,3.3-4.9v-38.3c-2-0.8-3.3-2.7-3.3-4.9c0-0.3,0-0.5,0.1-0.8l-33.1-19.1
									c-0.9,0.7-2,1.1-3.3,1.1c-1.2,0-2.4-0.4-3.3-1.1l-33.1,19.1c0,0.2,0.1,0.5,0.1,0.8c0,2.2-1.4,4.1-3.3,4.9v38.3
									c2,0.8,3.3,2.7,3.3,4.9c0,0.3,0,0.5-0.1,0.8l33.1,19.1c0.9-0.7,2-1.1,3.3-1.1c1.2,0,2.4,0.4,3.3,1.1l33.1-19.1
									C375.5,657.1,375.5,656.8,375.5,656.6z"/>
								<path class="st1" d="M217.4,660.7c-0.9,0.7-2,1.1-3.3,1.1c-1.2,0-2.4-0.4-3.3-1.1l-33.1,19.1c0,0.2,0.1,0.5,0.1,0.8h72.7
									c0-0.3,0-0.5,0.1-0.8L217.4,660.7z"/>
								<path class="st1" d="M208.9,656.6c0-2.2,1.4-4.1,3.3-4.9v-38.3c-2-0.8-3.3-2.7-3.3-4.9c0-0.3,0-0.5,0.1-0.8l-33.1-19.1
									c-0.9,0.7-2,1.1-3.3,1.1h-1v-0.1c-0.8-0.2-1.6-0.5-2.3-1l-33.1,19.1c0,0.2,0.1,0.5,0.1,0.8c0,2.2-1.4,4.1-3.3,4.9v38.3
									c2,0.8,3.3,2.7,3.3,4.9c0,0.3,0,0.5-0.1,0.8l33.1,19.1c0.7-0.5,1.4-0.9,2.3-1v-0.1h1c1.2,0,2.4,0.4,3.3,1.1l33.1-19.1
									C208.9,657.1,208.9,656.8,208.9,656.6z"/>
								<path class="st1" d="M292.2,656.6c0-2.2,1.4-4.1,3.3-4.9v-38.3c-2-0.8-3.3-2.7-3.3-4.9c0-0.3,0-0.5,0.1-0.8l-33.1-19.1
									c-0.9,0.7-2,1.1-3.3,1.1c-1.2,0-2.4-0.4-3.3-1.1l-33.1,19.1c0,0.2,0.1,0.5,0.1,0.8c0,2.2-1.4,4.1-3.3,4.9v38.3
									c2,0.8,3.3,2.7,3.3,4.9c0,0.3,0,0.5-0.1,0.8l33.1,19.1c0.9-0.7,2-1.1,3.3-1.1c1.2,0,2.4,0.4,3.3,1.1l33.1-19.1
									C292.2,657.1,292.2,656.8,292.2,656.6z"/>
								<path class="st1" d="M300.8,660.7c-0.9,0.7-2,1.1-3.3,1.1c-1.2,0-2.4-0.4-3.3-1.1l-33.1,19.1c0,0.2,0.1,0.5,0.1,0.8h72.7
									c0-0.3,0-0.5,0.1-0.8L300.8,660.7z"/>
								<path class="st1" d="M384.1,660.7c-0.9,0.7-2,1.1-3.3,1.1c-1.2,0-2.4-0.4-3.3-1.1l-33.1,19.1c0,0.2,0.1,0.5,0.1,0.8h72.7
									c0-0.3,0-0.5,0.1-0.8L384.1,660.7z"/>
								<path class="st1" d="M333.9,584.4c0-0.3,0-0.5,0.1-0.8l-33.1-19.1c-0.9,0.7-2,1.1-3.3,1.1c-1.2,0-2.4-0.4-3.3-1.1
									l-33.1,19.1c0,0.2,0.1,0.5,0.1,0.8c0,0.3,0,0.5-0.1,0.8l33.1,19.1c0.9-0.7,2-1.1,3.3-1.1c1.2,0,2.4,0.4,3.3,1.1l33.1-19.1
									C333.9,584.9,333.9,584.7,333.9,584.4z"/>
								<path class="st1" d="M386.1,511.5c0,0.2,0.1,0.5,0.1,0.8c0,2.2-1.4,4.1-3.3,4.9v38.3c2,0.8,3.3,2.7,3.3,4.9
									c0,0.3,0,0.5-0.1,0.8l33.1,19.1c0.9-0.7,2-1.1,3.3-1.1v-85.6c-1.2,0-2.4-0.4-3.3-1.1L386.1,511.5z"/>
								<path class="st1" d="M386.1,415.2c0,0.2,0.1,0.5,0.1,0.8c0,2.2-1.4,4.1-3.3,4.9v38.3c2,0.8,3.3,2.7,3.3,4.9
									c0,0.3,0,0.5-0.1,0.8l33.1,19.1c0.9-0.7,2-1.1,3.3-1.1v-85.6c-1.2,0-2.4-0.4-3.3-1.1L386.1,415.2z"/>
								<path class="st1" d="M377.6,564.5l-33.1,19.1c0,0.2,0.1,0.5,0.1,0.8c0,0.3,0,0.5-0.1,0.8l33.1,19.1c0.9-0.7,2-1.1,3.3-1.1
									c1.2,0,2.4,0.4,3.3,1.1l33.1-19.1c0-0.2-0.1-0.5-0.1-0.8c0-0.3,0-0.5,0.1-0.8l-33.1-19.1c-0.9,0.7-2,1.1-3.3,1.1
									C379.6,565.7,378.5,565.2,377.6,564.5z"/>
								<path class="st1" d="M377.6,468.3l-33.1,19.1c0,0.2,0.1,0.5,0.1,0.8s0,0.5-0.1,0.8l33.1,19.1c0.9-0.7,2-1.1,3.3-1.1
									c1.2,0,2.4,0.4,3.3,1.1l33.1-19.1c0-0.2-0.1-0.5-0.1-0.8s0-0.5,0.1-0.8l-33.1-19.1c-0.9,0.7-2,1.1-3.3,1.1
									C379.6,469.4,378.5,469,377.6,468.3z"/>
								<path class="st1" d="M250.5,488.2c0-0.3,0-0.5,0.1-0.8l-33.1-19.1c-0.9,0.7-2,1.1-3.3,1.1c-1.2,0-2.4-0.4-3.3-1.1
									l-33.1,19.1c0,0.2,0.1,0.5,0.1,0.8c0,0.3,0,0.5-0.1,0.8l33.1,19.1c0.9-0.7,2-1.1,3.3-1.1c1.2,0,2.4,0.4,3.3,1.1l33.1-19.1
									C250.5,488.7,250.5,488.4,250.5,488.2z"/>
								<path class="st1" d="M250.5,584.4c0-0.3,0-0.5,0.1-0.8l-33.1-19.1c-0.9,0.7-2,1.1-3.3,1.1c-1.2,0-2.4-0.4-3.3-1.1
									l-33.1,19.1c0,0.2,0.1,0.5,0.1,0.8c0,0.3,0,0.5-0.1,0.8l33.1,19.1c0.9-0.7,2-1.1,3.3-1.1c1.2,0,2.4,0.4,3.3,1.1l33.1-19.1
									C250.5,584.9,250.5,584.7,250.5,584.4z"/>
								<path class="st1" d="M294.2,468.3l-33.1,19.1c0,0.2,0.1,0.5,0.1,0.8s0,0.5-0.1,0.8l33.1,19.1c0.9-0.7,2-1.1,3.3-1.1
									c1.2,0,2.4,0.4,3.3,1.1l33.1-19.1c0-0.2-0.1-0.5-0.1-0.8s0-0.5,0.1-0.8l-33.1-19.1c-0.9,0.7-2,1.1-3.3,1.1
									C296.3,469.4,295.1,469,294.2,468.3z"/>
								<path class="st1" d="M335.9,492.3l-33.1,19.1c0,0.2,0.1,0.5,0.1,0.8c0,2.2-1.4,4.1-3.3,4.9v38.3c2,0.8,3.3,2.7,3.3,4.9
									c0,0.3,0,0.5-0.1,0.8l33.1,19.1c0.9-0.7,2-1.1,3.3-1.1c1.2,0,2.4,0.4,3.3,1.1l33.1-19.1c0-0.2-0.1-0.5-0.1-0.8
									c0-2.2,1.4-4.1,3.3-4.9v-38.3c-2-0.8-3.3-2.7-3.3-4.9c0-0.3,0-0.5,0.1-0.8l-33.1-19.1c-0.9,0.7-2,1.1-3.3,1.1
									C337.9,493.5,336.8,493.1,335.9,492.3z"/>
								<path class="st1" d="M292.2,560.3c0-2.2,1.4-4.1,3.3-4.9v-38.3c-2-0.8-3.3-2.7-3.3-4.9c0-0.3,0-0.5,0.1-0.8l-33.1-19.1
									c-0.9,0.7-2,1.1-3.3,1.1c-1.2,0-2.4-0.4-3.3-1.1l-33.1,19.1c0,0.2,0.1,0.5,0.1,0.8c0,2.2-1.4,4.1-3.3,4.9v38.3
									c2,0.8,3.3,2.7,3.3,4.9c0,0.3,0,0.5-0.1,0.8l33.1,19.1c0.9-0.7,2-1.1,3.3-1.1c1.2,0,2.4,0.4,3.3,1.1l33.1-19.1
									C292.2,560.9,292.2,560.6,292.2,560.3z"/>
								<path class="st1" d="M177.8,392c0,0.3,0,0.5-0.1,0.8l33.1,19.1c0.9-0.7,2-1.1,3.3-1.1c1.2,0,2.4,0.4,3.3,1.1l33.1-19.1
									c0-0.2-0.1-0.5-0.1-0.8l0,0H177.8L177.8,392z"/>
								<path class="st1" d="M261.1,392c0,0.3,0,0.5-0.1,0.8l33.1,19.1c0.9-0.7,2-1.1,3.3-1.1c1.2,0,2.4,0.4,3.3,1.1l33.1-19.1
									c0-0.2-0.1-0.5-0.1-0.8l0,0H261.1L261.1,392z"/>
								<path class="st1" d="M344.5,392c0,0.3,0,0.5-0.1,0.8l33.1,19.1c0.9-0.7,2-1.1,3.3-1.1c1.2,0,2.4,0.4,3.3,1.1l33.1-19.1
									c0-0.2-0.1-0.5-0.1-0.8l0,0H344.5L344.5,392z"/>
							</g>
						</g>
					</g>
				</g>
			</g>
		</g>
		
			<linearGradient id="SVGID_3_" gradientUnits="userSpaceOnUse" x1="173" y1="672" x2="173" y2="1072" gradientTransform="matrix(1 0 0 -1 0 1072)">
			<stop  offset="0" style="stop-color:#DED09E"/>
			<stop  offset="0.2" style="stop-color:#D8CB9A"/>
			<stop  offset="0.5" style="stop-color:#CFC393"/>
			<stop  offset="0.7" style="stop-color:#877D52"/>
		</linearGradient>
		<path class="st3" d="M173,33.5l144.2,83.2v166.6L173,366.5L28.8,283.3V116.7L173,33.5 M173,0L-0.2,100v200L173,400l173.2-100V100
			L173,0z"/>
		<path class="st4" d="M173,28.9l148.2,85.5v171.2L173,371L24.8,285.6V114.4L173,29 M173,0L-0.2,100v200L173,400l173.2-100V100
			L173,0z"/>
		<path class="st5" d="M173,15l160.2,92.5v185L173,385L12.8,292.5v-185L173,15 M173,0L-0.2,100v200L173,400l173.2-100V100L173,0z"/>
		<path class="st4" d="M173,12.7l162.2,93.6v187.3L173,387.3L10.8,293.6V106.4L173,12.7 M173,0L-0.2,100v200L173,400l173.2-100V100
			L173,0z"/>
		<g class="st6">
			<path class="st7" d="M63.6,141.7c-4,0-8.1,2.6-8.1,5.2s3.6,6.5,7.3,4.7c6.3-3,7.2-3.3,7.2-5.9S67.7,141.7,63.6,141.7z
				 M75.4,130.2c-5.4,0-10.1,3.4-10.1,6.6c0,3.2,4.6,7.3,9.8,5.8c4.3-1.2,6.1-3,9.8-5.8C87.4,134.8,80.9,130.2,75.4,130.2z
				 M91.8,136.1c-2.2,0-4.7,0.2-5,2.2c-0.2,2.6,2,1.8,5,1.8s6,1.3,6-0.5S94.2,136.2,91.8,136.1z M260.4,148.8
				c-5.2-0.4-10.6,2.7-11,6.3c-0.3,3.6,3.9,9.4,8.8,7.4c8.3-3.4,9.5-3.7,9.8-7.4C268.3,151.5,265.5,149.3,260.4,148.8L260.4,148.8z"
				/>
			<path class="st7" d="M276.7,134.3c-6.9-0.6-13.2,3.5-13.6,8s5,10.6,11.7,9.1c5.6-1.2,8.1-3.4,13.1-7
				C291.3,142,283.5,134.9,276.7,134.3z M296.7,144.3c-2.8-0.3-6-0.3-6.5,2.4c-0.7,3.6,2.2,2.7,6,3c3.8,0.4,7.4,2.6,7.7,0
				C304.1,147.1,299.7,144.7,296.7,144.3z"/>
			<path class="st7" d="M202.3,199c-5.1-0.5-10.5,2.7-10.8,6.3s3.9,9.3,8.7,7.3c8.3-3.4,9.5-3.8,9.8-7.4S207.5,199.4,202.3,199
				L202.3,199z M218.6,184.3c-6.9-0.6-13.2,3.6-13.6,8c-0.3,4.5,5,10.7,11.8,9.1c5.6-1.2,8-3.4,13-7
				C233.3,191.9,225.4,184.8,218.6,184.3z M238.7,194.2c-2.9-0.3-6-0.3-6.5,2.4c-0.7,3.6,2.2,2.8,6,3c3.8,0.4,7.4,2.6,7.6,0
				S241.7,194.6,238.7,194.2z"/>
		</g>
		<g class="st6">
			<path class="st8" d="M170.4,152.1c-5.6,0-8.9-1.2-10.6-4c-1.6-2.5-1.6-5.8-1.5-10.1v-12.3h-9.8c-0.7,0-1.5-0.1-2.2-0.3
				c-3.9-1.3-4.4-5.4-4.4-9.2l0.1-9.3c0-2.3,1-5,5.8-5c4.2,0,6.1,2.2,6.1,6.8v2.4h4.4V66.4c0-4.1,5.7-9.4,12-9.4h4.2
				c6.7,0,12.1,5.4,12.1,12.1v20.1h4V83c0-6.3,3.2-9.7,9-9.7s9.1,3.4,9.1,9.7l-0.4,16.1c0,6.3-3.5,8.6-6.4,9.4h-0.2
				c-1,0.3-2,0.4-3.2,0.4h-11.9v32.6c0.1,3,0.2,5.9-2,8c-1.8,1.9-5,2.7-10,2.7L170.4,152.1L170.4,152.1z"/>
			<path class="st8" d="M0,0"/>
		</g>
		<g class="st6">
			<path class="st9" d="M199.8,103.4c-1.4,0-5.2,1-7.7-1V90.6h-7V69c0-6-5.2-9.9-8.3-10.2c-0.4,3.2,0,87.4,0,89
				c0,1.5-1.5,1.9-1.8,1.8c-7.4,0.5-9-0.3-13.5-3c-1-1.3-0.7-23.6-0.7-23.6c-0.9-0.2-3-0.3-4.4-0.3h-4l-7,0.2c0,1.4,4.4,1.3,6,1.3
				h8.3v13.2c0,8.5-0.3,13.3,10.7,13.3h4c11.8,0,10.7-4.8,10.7-10.7v-32.7h13.4c1,0,2,0,2.8-0.3h0.2c3.5-1,5.3-3.7,5.3-8l0.3-17.4
				c0-4.3-4.9-7.6-5.4-6c-1.8,5.7,1.4,27.7-1.9,27.9L199.8,103.4z"/>
		</g>
		<g class="st6">
			<path class="st10" d="M146.5,102.8h-1.2v18.4h14.2V120h-13V102.8z"/>
			<path class="st10" d="M150.2,116.4v-13.8H149v15h10.6v-1.2H150.2z M196.1,73.8h1.2v22.8h-1.2V73.8z M202.4,74.4h1.2v28.4h-1.2
				V74.4z"/>
			<path class="st10" d="M185,101.7h18.4v1.2H185V101.7z M185,95.4h11.7v1.2H185V95.4z"/>
			<g class="st11">
				<path class="st12" d="M171.9,56.9h1.5v95.8h-1.5V56.9z M164.1,56.9h1.5v95.8h-1.5V56.9z M179.1,56.9h1.5v95.8h-1.5V56.9z"/>
			</g>
		</g>
	</g>
</g>
</svg>
