<?xml version="1.0" encoding="UTF-8"?>
<svg version="1.1" xmlns="http://www.w3.org/2000/svg" width="374" height="432">
<path d="M0 0 C2.62160819 1.34901139 5.18602448 2.73618778 7.75 4.1875 C8.92332886 4.84528442 8.92332886 4.84528442 10.12036133 5.51635742 C17.71183068 9.79343928 25.22870277 14.19845225 32.74536133 18.60522461 C39.77294052 22.71981184 46.83952864 26.7582051 53.9375 30.75 C61.10917045 34.78504051 68.2415827 38.87334213 75.32275391 43.06494141 C90.2412097 51.88595475 105.30151257 60.46712725 120.35592651 69.0534668 C145.44727968 83.36491776 145.44727968 83.36491776 150.7038784 86.66601276 C155.81949934 89.8070553 160.54432082 92.30805841 166.31506348 94.00930786 C173.31570601 96.39575739 180.09923654 99.38206619 184 106 C188.98164996 119.88569274 186.85288153 136.98264576 186.43345451 151.44005728 C186.28276907 157.51190508 186.26927644 163.58407225 186.24084473 169.65750122 C186.16643003 181.1415419 185.96976665 192.62005808 185.72845697 204.10167229 C185.45960324 217.17956178 185.32809863 230.25772429 185.20776653 243.33769202 C184.95732218 270.22818381 184.53556644 297.11378164 184 324 C138.5 350.25 93 376.5 47.5 402.75 C46.42588867 403.36979736 45.35177734 403.98959473 44.24511719 404.62817383 C42.09513889 405.86830952 39.94475321 407.10773922 37.79394531 408.34643555 C32.72570239 411.26648532 27.66185185 414.19344583 22.61242676 417.14590454 C20.23299561 418.53659909 17.85121204 419.92323638 15.46923828 421.30957031 C13.79359101 422.28707088 12.1213556 423.27041274 10.44921875 424.25390625 C9.42957031 424.846875 8.40992188 425.43984375 7.359375 426.05078125 C6.46702148 426.57325439 5.57466797 427.09572754 4.65527344 427.6340332 C-2.60123181 431.36703677 -2.60123181 431.36703677 -6.13623047 430.43945312 C-7.1168042 429.86614258 -7.1168042 429.86614258 -8.1171875 429.28125 C-9.25534912 428.63591309 -9.25534912 428.63591309 -10.41650391 427.97753906 C-11.22780762 427.48995117 -12.03911133 427.00236328 -12.875 426.5 C-14.17896729 425.74928223 -14.17896729 425.74928223 -15.50927734 424.98339844 C-18.35104395 423.3412651 -21.17523346 421.67117696 -24 420 C-25.91037923 418.88876779 -27.82184548 417.77940228 -29.734375 416.671875 C-33.74060571 414.34773899 -37.7398456 412.01215681 -41.734375 409.66796875 C-48.09771035 405.93674029 -54.48349555 402.24521942 -60.875 398.5625 C-61.95475098 397.94020508 -63.03450195 397.31791016 -64.14697266 396.67675781 C-66.33714534 395.41471274 -68.52741243 394.15283148 -70.71777344 392.89111328 C-76.14659942 389.76319852 -81.57319281 386.63141552 -87 383.5 C-89.16665583 382.24998121 -91.3333225 380.99998122 -93.5 379.75 C-106.5 372.25 -106.5 372.25 -109.74951172 370.37524414 C-111.91776264 369.1243552 -114.08605697 367.87354148 -116.25439453 366.62280273 C-121.64717915 363.51201665 -127.03922093 360.39995762 -132.4296875 357.28515625 C-141.4460891 352.07681821 -150.46383013 346.87126785 -159.5078125 341.7109375 C-160.13517303 341.3529155 -160.76253357 340.99489349 -161.40890503 340.62602234 C-164.43417222 338.89999059 -167.46030302 337.17549909 -170.48779297 335.45336914 C-171.58494629 334.82809326 -172.68209961 334.20281738 -173.8125 333.55859375 C-174.76769531 333.01517334 -175.72289062 332.47175293 -176.70703125 331.91186523 C-177.79371094 331.28094971 -178.88039062 330.65003418 -180 330 C-180.81482534 329.74533179 -181.62965069 329.49066359 -182.46916771 329.22827816 C-185.82027647 327.90268194 -187.6304129 326.74702269 -190 324 C-192.01700236 317.44629457 -191.25885848 310.07437564 -191.13525391 303.30712891 C-191.1324327 301.1584893 -191.13401741 299.00984005 -191.13967896 296.86120605 C-191.14254939 291.0303244 -191.08374231 285.20149797 -191.01393938 279.37109423 C-190.95144401 273.27731772 -190.94555355 267.18349454 -190.9336853 261.08944702 C-190.90259854 249.55067001 -190.82053008 238.01283996 -190.72019041 226.47448003 C-190.60843272 213.33808634 -190.55343814 200.20164752 -190.50323606 187.06489682 C-190.39869784 160.04273945 -190.22279552 133.02142277 -190 106 C-189.27457001 105.58193588 -188.54914001 105.16387177 -187.80172729 104.73313904 C-185.04896344 103.1465018 -182.29638219 101.55954831 -179.54391479 99.97239685 C-177.79137511 98.96195334 -176.03863478 97.95185787 -174.28588867 96.94177246 C-166.88430557 92.67344738 -159.49835405 88.37938394 -152.125 84.0625 C-142.853087 78.64257687 -133.54065266 73.29677108 -124.20953369 67.97976685 C-116.11292071 63.36515923 -108.04216251 58.70906575 -100 54 C-91.4048271 48.9681021 -82.77687778 43.99610876 -74.125 39.0625 C-65.02919971 33.8755755 -55.94292007 28.67311163 -46.875 23.4375 C-45.82634766 22.83212402 -44.77769531 22.22674805 -43.69726562 21.60302734 C-38.65361072 18.6903089 -33.61126383 15.77533598 -28.56991577 12.85862732 C-26.16743701 11.46893474 -23.76445035 10.08012192 -21.36138916 8.69143677 C-19.6647254 7.71046823 -17.96882793 6.7281747 -16.27294922 5.74584961 C-15.2470166 5.15296143 -14.22108398 4.56007324 -13.1640625 3.94921875 C-12.26123535 3.42674561 -11.3584082 2.90427246 -10.42822266 2.3659668 C-9.62690918 1.91519775 -8.8255957 1.46442871 -8 1 C-7.31599121 0.58854736 -6.63198242 0.17709473 -5.92724609 -0.24682617 C-3.48557247 -1.20103989 -2.42858823 -0.90966599 0 0 Z " fill="#158550" transform="translate(190,1)"/>
<path d="M0 0 C2.62160819 1.34901139 5.18602448 2.73618778 7.75 4.1875 C8.92332886 4.84528442 8.92332886 4.84528442 10.12036133 5.51635742 C17.71183068 9.79343928 25.22870277 14.19845225 32.74536133 18.60522461 C39.77294052 22.71981184 46.83952864 26.7582051 53.9375 30.75 C61.10917045 34.78504051 68.2415827 38.87334213 75.32275391 43.06494141 C90.2412097 51.88595475 105.30151257 60.46712725 120.35592651 69.0534668 C145.44727968 83.36491776 145.44727968 83.36491776 150.7038784 86.66601276 C155.81949934 89.8070553 160.54432082 92.30805841 166.31506348 94.00930786 C173.31570601 96.39575739 180.09923654 99.38206619 184 106 C188.98164996 119.88569274 186.85288153 136.98264576 186.43345451 151.44005728 C186.28276907 157.51190508 186.26927644 163.58407225 186.24084473 169.65750122 C186.16643003 181.1415419 185.96976665 192.62005808 185.72845697 204.10167229 C185.45960324 217.17956178 185.32809863 230.25772429 185.20776653 243.33769202 C184.95732218 270.22818381 184.53556644 297.11378164 184 324 C138.5 350.25 93 376.5 47.5 402.75 C46.42588867 403.36979736 45.35177734 403.98959473 44.24511719 404.62817383 C42.09513889 405.86830952 39.94475321 407.10773922 37.79394531 408.34643555 C32.72570239 411.26648532 27.66185185 414.19344583 22.61242676 417.14590454 C20.23299561 418.53659909 17.85121204 419.92323638 15.46923828 421.30957031 C13.79359101 422.28707088 12.1213556 423.27041274 10.44921875 424.25390625 C9.42957031 424.846875 8.40992188 425.43984375 7.359375 426.05078125 C6.46702148 426.57325439 5.57466797 427.09572754 4.65527344 427.6340332 C-2.60123181 431.36703677 -2.60123181 431.36703677 -6.13623047 430.43945312 C-7.1168042 429.86614258 -7.1168042 429.86614258 -8.1171875 429.28125 C-9.25534912 428.63591309 -9.25534912 428.63591309 -10.41650391 427.97753906 C-11.22780762 427.48995117 -12.03911133 427.00236328 -12.875 426.5 C-14.17896729 425.74928223 -14.17896729 425.74928223 -15.50927734 424.98339844 C-18.35104395 423.3412651 -21.17523346 421.67117696 -24 420 C-25.91037923 418.88876779 -27.82184548 417.77940228 -29.734375 416.671875 C-33.74060571 414.34773899 -37.7398456 412.01215681 -41.734375 409.66796875 C-48.09771035 405.93674029 -54.48349555 402.24521942 -60.875 398.5625 C-61.95475098 397.94020508 -63.03450195 397.31791016 -64.14697266 396.67675781 C-66.33714534 395.41471274 -68.52741243 394.15283148 -70.71777344 392.89111328 C-76.14659942 389.76319852 -81.57319281 386.63141552 -87 383.5 C-89.16665583 382.24998121 -91.3333225 380.99998122 -93.5 379.75 C-106.5 372.25 -106.5 372.25 -109.74951172 370.37524414 C-111.91776264 369.1243552 -114.08605697 367.87354148 -116.25439453 366.62280273 C-121.64717915 363.51201665 -127.03922093 360.39995762 -132.4296875 357.28515625 C-141.4460891 352.07681821 -150.46383013 346.87126785 -159.5078125 341.7109375 C-160.13517303 341.3529155 -160.76253357 340.99489349 -161.40890503 340.62602234 C-164.43417222 338.89999059 -167.46030302 337.17549909 -170.48779297 335.45336914 C-171.58494629 334.82809326 -172.68209961 334.20281738 -173.8125 333.55859375 C-174.76769531 333.01517334 -175.72289062 332.47175293 -176.70703125 331.91186523 C-177.79371094 331.28094971 -178.88039062 330.65003418 -180 330 C-180.81482534 329.74533179 -181.62965069 329.49066359 -182.46916771 329.22827816 C-185.82027647 327.90268194 -187.6304129 326.74702269 -190 324 C-192.01700236 317.44629457 -191.25885848 310.07437564 -191.13525391 303.30712891 C-191.1324327 301.1584893 -191.13401741 299.00984005 -191.13967896 296.86120605 C-191.14254939 291.0303244 -191.08374231 285.20149797 -191.01393938 279.37109423 C-190.95144401 273.27731772 -190.94555355 267.18349454 -190.9336853 261.08944702 C-190.90259854 249.55067001 -190.82053008 238.01283996 -190.72019041 226.47448003 C-190.60843272 213.33808634 -190.55343814 200.20164752 -190.50323606 187.06489682 C-190.39869784 160.04273945 -190.22279552 133.02142277 -190 106 C-189.27457001 105.58193588 -188.54914001 105.16387177 -187.80172729 104.73313904 C-185.04896344 103.1465018 -182.29638219 101.55954831 -179.54391479 99.97239685 C-177.79137511 98.96195334 -176.03863478 97.95185787 -174.28588867 96.94177246 C-166.88430557 92.67344738 -159.49835405 88.37938394 -152.125 84.0625 C-142.853087 78.64257687 -133.54065266 73.29677108 -124.20953369 67.97976685 C-116.11292071 63.36515923 -108.04216251 58.70906575 -100 54 C-91.4048271 48.9681021 -82.77687778 43.99610876 -74.125 39.0625 C-65.02919971 33.8755755 -55.94292007 28.67311163 -46.875 23.4375 C-45.82634766 22.83212402 -44.77769531 22.22674805 -43.69726562 21.60302734 C-38.65361072 18.6903089 -33.61126383 15.77533598 -28.56991577 12.85862732 C-26.16743701 11.46893474 -23.76445035 10.08012192 -21.36138916 8.69143677 C-19.6647254 7.71046823 -17.96882793 6.7281747 -16.27294922 5.74584961 C-15.2470166 5.15296143 -14.22108398 4.56007324 -13.1640625 3.94921875 C-12.26123535 3.42674561 -11.3584082 2.90427246 -10.42822266 2.3659668 C-9.62690918 1.91519775 -8.8255957 1.46442871 -8 1 C-7.31599121 0.58854736 -6.63198242 0.17709473 -5.92724609 -0.24682617 C-3.48557247 -1.20103989 -2.42858823 -0.90966599 0 0 Z M-9.69921875 32.5703125 C-10.64901611 33.13000732 -11.59881348 33.68970215 -12.57739258 34.26635742 C-13.60372803 34.87970947 -14.63006348 35.49306152 -15.6875 36.125 C-17.87229855 37.4155293 -20.0571972 38.70588914 -22.2421875 39.99609375 C-23.92393066 40.99358643 -23.92393066 40.99358643 -25.63964844 42.01123047 C-30.84957714 45.09464221 -36.0810471 48.14080087 -41.3125 51.1875 C-42.31369873 51.77160645 -43.31489746 52.35571289 -44.34643555 52.95751953 C-51.14996624 56.92647758 -57.96328084 60.8782023 -64.78295898 64.81933594 C-71.15828017 68.50610691 -77.51690522 72.22112038 -83.875 75.9375 C-91.43446137 80.35528137 -99.01428819 84.73364267 -106.625 89.0625 C-116.52970428 94.70040405 -126.34237285 100.48731831 -136.14160156 106.30615234 C-139.17176611 108.10178624 -142.2064275 109.88962479 -145.2421875 111.67578125 C-146.76598022 112.5730896 -146.76598022 112.5730896 -148.32055664 113.48852539 C-150.28267231 114.64369998 -152.24538012 115.7978695 -154.20874023 116.95092773 C-155.08473877 117.46727783 -155.9607373 117.98362793 -156.86328125 118.515625 C-157.63969971 118.97227539 -158.41611816 119.42892578 -159.21606445 119.89941406 C-160.95356815 120.87672755 -160.95356815 120.87672755 -162 122 C-162.09767385 124.41588973 -162.12996678 126.80315384 -162.12025452 129.21949768 C-162.12110894 129.9839764 -162.12196337 130.74845511 -162.12284368 131.53609985 C-162.12450079 134.11727018 -162.11897337 136.6983766 -162.11352539 139.27954102 C-162.11324354 141.12202961 -162.11340121 142.96451831 -162.1139679 144.80700684 C-162.11425596 149.82539237 -162.10835775 154.84375421 -162.10139394 159.86213422 C-162.09516193 165.10054738 -162.09455672 170.33896102 -162.09336853 175.57737732 C-162.09025476 185.50444491 -162.08204076 195.43150156 -162.07201904 205.35856432 C-162.06085931 216.65704095 -162.05534781 227.9555181 -162.05032361 239.25399888 C-162.03985818 262.502672 -162.02225787 285.75133539 -162 309 C-161.25886963 309.40289749 -160.51773926 309.80579498 -159.75415039 310.22090149 C-158.77438232 310.7542662 -157.79461426 311.28763092 -156.78515625 311.8371582 C-155.81715088 312.36380569 -154.84914551 312.89045319 -153.85180664 313.43305969 C-149.86509737 315.62357828 -145.92935384 317.89615978 -142 320.1875 C-140.33076641 321.15761618 -138.66149456 322.12766651 -136.9921875 323.09765625 C-135.73873535 323.82686279 -135.73873535 323.82686279 -134.45996094 324.57080078 C-132.16555315 325.90381618 -129.86866049 327.23238623 -127.5703125 328.55859375 C-118.00178499 334.08130398 -108.46444924 339.65598481 -98.9375 345.25 C-88.47128757 351.39549147 -77.97790092 357.49131612 -67.45874023 363.54589844 C-59.31561499 368.23464715 -51.19585891 372.96226702 -43.08398438 377.70483398 C-37.67293009 380.86562674 -32.25412562 384.01236408 -26.82421875 387.140625 C-26.22650665 387.4850061 -25.62879456 387.82938721 -25.01296997 388.1842041 C-22.10534351 389.85891632 -19.19673518 391.53188674 -16.28710938 393.203125 C-15.24748047 393.80125 -14.20785156 394.399375 -13.13671875 395.015625 C-12.21592529 395.54446289 -11.29513184 396.07330078 -10.34643555 396.61816406 C-8.52937233 397.68824811 -6.75458054 398.83027964 -5 400 C-1.37335956 399.65561969 1.2936036 398.48473051 4.4140625 396.6640625 C5.24719971 396.18275879 6.08033691 395.70145508 6.9387207 395.20556641 C7.82519287 394.68397949 8.71166504 394.16239258 9.625 393.625 C10.55723389 393.08407715 11.48946777 392.5431543 12.44995117 391.98583984 C14.3766939 390.86717024 16.3017377 389.74556951 18.22509766 388.62109375 C20.73281317 387.15609014 23.2454827 385.70030466 25.76171875 384.25 C30.51385229 381.51036118 35.25800373 378.75714243 40 376 C40.92683594 375.46117187 41.85367188 374.92234375 42.80859375 374.3671875 C53.62496276 368.07559437 64.42444948 361.75740451 75.1875 355.375 C83.22773857 350.60867851 91.31760126 345.93743035 99.44238281 341.31689453 C105.67598116 337.76848412 111.86893216 334.15659893 118.04248047 330.50488281 C122.31692471 327.9794911 126.61565955 325.50592585 130.9375 323.0625 C132.50269882 322.09505356 132.50269882 322.09505356 134.09951782 321.10806274 C136.871365 319.48291479 139.46649808 318.52303621 142.55551147 317.6590271 C148.33089877 315.69410136 152.66862171 313.24321291 156 308 C159.38370916 295.65999696 158.33397624 282.16424643 158.08854342 269.49051332 C158.00542536 264.32269064 158.01868264 259.15502928 158.01937866 253.98666382 C158.0064012 245.31552137 157.92460627 236.64723156 157.79736328 227.97705078 C157.65072885 217.9544426 157.5947361 207.93463488 157.591066 197.91101801 C157.58656947 187.22834875 157.52109389 176.54672081 157.43503904 165.864429 C157.4140636 162.78922421 157.40394705 159.7141377 157.39601517 156.63887405 C157.38019539 151.80991826 157.32316573 146.98312345 157.2341423 142.15497971 C157.20758246 140.38341076 157.19451356 138.61158073 157.19589233 136.83981323 C157.59530134 127.8083344 157.59530134 127.8083344 154.24277878 119.87843609 C152.17444632 118.55865462 150.32434073 117.75572962 148 117 C147.03835938 116.431604 146.07671875 115.86320801 145.0859375 115.27758789 C144.19132812 114.76446045 143.29671875 114.25133301 142.375 113.72265625 C141.35148437 113.13419922 140.32796875 112.54574219 139.2734375 111.93945312 C138.19320313 111.32005859 137.11296875 110.70066406 136 110.0625 C133.66638433 108.7205393 131.33298215 107.37821705 129 106.03515625 C128.41154297 105.69650543 127.82308594 105.35785461 127.21679688 105.00894165 C121.46413357 101.69606642 115.73062647 98.35080138 110 95 C101.49807992 90.02929882 92.97376434 85.09896887 84.4375 80.1875 C77.07662509 75.9513071 69.74305968 71.68225267 62.48168945 67.27783203 C56.35176444 63.57579734 50.12149127 60.05124089 43.8972168 56.51098633 C38.40504626 53.38401727 32.93934465 50.21788816 27.5 47 C20.88888228 43.10107411 14.2676337 39.22001937 7.625 35.375 C6.71427734 34.84132813 5.80355469 34.30765625 4.86523438 33.7578125 C4.01509766 33.26796875 3.16496094 32.778125 2.2890625 32.2734375 C1.53318848 31.83435059 0.77731445 31.39526367 -0.00146484 30.94287109 C-3.99463511 29.05896888 -6.17407261 30.47538014 -9.69921875 32.5703125 Z " fill="#161515" transform="translate(190,1)"/>
<path d="M0 0 C0 0.66 0 1.32 0 2 C-0.99 2 -1.98 2 -3 2 C-3.33 2.99 -3.66 3.98 -4 5 C-5.80412352 5.95312186 -7.61770739 6.89154546 -9.46875 7.75 C-13.58082009 9.7806519 -17.44933224 12.2239208 -21.36328125 14.609375 C-24 16 -24 16 -27 16 C-27 16.66 -27 17.32 -27 18 C-29.1875 20.625 -29.1875 20.625 -32 23 C-32.78503906 22.9896875 -33.57007813 22.979375 -34.37890625 22.96875 C-37.67386043 23.0080341 -39.07665779 24.00007207 -41.75 25.875 C-42.52859375 26.40867187 -43.3071875 26.94234375 -44.109375 27.4921875 C-46.11111853 28.87187705 -46.11111853 28.87187705 -47 31 C-49.1796875 32.10546875 -49.1796875 32.10546875 -51.875 33.1875 C-52.75929688 33.55230469 -53.64359375 33.91710937 -54.5546875 34.29296875 C-57 35 -57 35 -60 34 C-58.07015531 32.8827215 -56.14030793 31.76544765 -54.21044922 30.64819336 C-52.50500115 29.66080263 -50.79959871 28.6733331 -49.09423828 27.68579102 C-44.76568739 25.17935015 -40.4365568 22.67392952 -36.10546875 20.171875 C-28.22333821 15.61692781 -20.35008389 11.04750521 -12.5 6.4375 C-11.78763184 6.01976318 -11.07526367 5.60202637 -10.34130859 5.17163086 C-1.55329537 0 -1.55329537 0 0 0 Z " fill="#091F12" transform="translate(319,325)"/>
<path d="M0 0 C0.99 0 1.98 0 3 0 C4.76673751 4.52839546 5.19084817 8.08683127 4.9765625 12.9296875 C4.89921875 14.86328125 4.89921875 14.86328125 4.8203125 16.8359375 C4.75545108 18.18230338 4.69034387 19.52865745 4.625 20.875 C4.56668526 22.24474849 4.50938372 23.61454052 4.453125 24.984375 C4.31203607 28.32347963 4.16065577 31.66178902 4 35 C3.01 35.495 3.01 35.495 2 36 C1.97494385 34.9805127 1.9498877 33.96102539 1.92407227 32.91064453 C1.83002996 29.13479646 1.72980163 25.35913373 1.62768555 21.58349609 C1.58432462 19.94812347 1.54265039 18.31270523 1.50268555 16.67724609 C1.44501088 14.32896159 1.38130871 11.98090696 1.31640625 9.6328125 C1.29969376 8.89942657 1.28298126 8.16604065 1.26576233 7.41043091 C1.21362038 3.57797692 1.21362038 3.57797692 0 0 Z " fill="#071106" transform="translate(344,121)"/>
<path d="M0 0 C0.66 0 1.32 0 2 0 C2.66433182 9.34809779 3.1598655 18.62122392 3 28 C2.34 28 1.68 28 1 28 C-0.35700647 25.28598706 -0.1123861 23.15153684 -0.09765625 20.1171875 C-0.09443359 18.95058594 -0.09121094 17.78398437 -0.08789062 16.58203125 C-0.07951172 15.35871094 -0.07113281 14.13539063 -0.0625 12.875 C-0.05798828 11.64394531 -0.05347656 10.41289062 -0.04882812 9.14453125 C-0.0370133 6.09630608 -0.02054028 3.04817686 0 0 Z " fill="#22120D" transform="translate(346,250)"/>
<path d="M0 0 C-2.13020807 2.28535857 -4.2537929 3.89551472 -6.94140625 5.48046875 C-7.68970703 5.92197266 -8.43800781 6.36347656 -9.20898438 6.81835938 C-9.98564453 7.27017578 -10.76230469 7.72199219 -11.5625 8.1875 C-12.34302734 8.65091797 -13.12355469 9.11433594 -13.92773438 9.59179688 C-19.74527108 13 -19.74527108 13 -22 13 C-21.67 11.68 -21.34 10.36 -21 9 C-19.9171875 8.8453125 -19.9171875 8.8453125 -18.8125 8.6875 C-15.72253314 7.93217477 -13.60441314 6.80862024 -11 5 C-10.67 4.34 -10.34 3.68 -10 3 C-6.54179464 0.50240724 -4.26322371 -0.36541918 0 0 Z " fill="#082013" transform="translate(166,42)"/>
<path d="M0 0 C2.98951447 0.92290772 5.308253 2.21900521 7.95703125 3.87890625 C8.84003906 4.42675781 9.72304687 4.97460938 10.6328125 5.5390625 C11.29667969 5.96058594 11.96054688 6.38210937 12.64453125 6.81640625 C8.85173143 8.08067286 7.30387773 7.21785809 3.64453125 5.81640625 C2.98453125 5.48640625 2.32453125 5.15640625 1.64453125 4.81640625 C0.65453125 4.81640625 -0.33546875 4.81640625 -1.35546875 4.81640625 C-1.68546875 4.15640625 -2.01546875 3.49640625 -2.35546875 2.81640625 C-3.34546875 2.48640625 -4.33546875 2.15640625 -5.35546875 1.81640625 C-2.35546875 -0.18359375 -2.35546875 -0.18359375 0 0 Z " fill="#227C51" transform="translate(187.35546875,31.18359375)"/>
<path d="M0 0 C0.66 0.33 1.32 0.66 2 1 C1.34 1.61875 0.68 2.2375 0 2.875 C-2.2284549 4.75637427 -2.2284549 4.75637427 -2 7 C-4.33214148 8.20628008 -6.49642139 9.1654738 -9 10 C-9.99 9.01 -10.98 8.02 -12 7 C-10.04754815 5.80285445 -8.08785003 4.61751926 -6.125 3.4375 C-5.03445312 2.77621094 -3.94390625 2.11492188 -2.8203125 1.43359375 C-1.88960937 0.96050781 -0.95890625 0.48742187 0 0 Z " fill="#2C2B2C" transform="translate(152,19)"/>
<path d="M0 0 C3.67644447 0.56799795 6.27870952 1.53415632 9.42578125 3.50390625 C10.22177734 3.99697266 11.01777344 4.49003906 11.83789062 4.99804688 C12.65451172 5.51431641 13.47113281 6.03058594 14.3125 6.5625 C15.14845703 7.08263672 15.98441406 7.60277344 16.84570312 8.13867188 C18.90144205 9.41910355 20.95257223 10.7063358 23 12 C22.01 12.33 21.02 12.66 20 13 C17.51171875 11.671875 17.51171875 11.671875 14.6875 9.75 C11.648162 7.72645132 8.77062001 5.88531 5.5 4.25 C3.14509898 3.07254949 1.70055881 1.98398528 0 0 Z " fill="#257851" transform="translate(201,40)"/>
<path d="M0 0 C3.96 1.98 7.92 3.96 12 6 C7.36533108 7.15866723 4.66739961 6.70010994 0 6 C-1.125 2.25 -1.125 2.25 0 0 Z " fill="#0B1C12" transform="translate(170,392)"/>
<path d="M0 0 C0 0.99 0 1.98 0 3 C-1.65532623 4.01866229 -3.32260138 5.01810813 -5 6 C-5.33 6.99 -5.66 7.98 -6 9 C-9.45796174 10.32998529 -13.3440861 10.50785774 -17 11 C-14.20957375 7.71165383 -10.52671824 5.87264311 -6.8125 3.8125 C-6.15830078 3.44447266 -5.50410156 3.07644531 -4.83007812 2.69726562 C-3.22253039 1.7937534 -1.61159349 0.8962759 0 0 Z " fill="#092113" transform="translate(235,373)"/>
<path d="M0 0 C4.39383706 1.59623144 8.28995807 3.78024333 12.3125 6.125 C12.95767578 6.49753906 13.60285156 6.87007813 14.26757812 7.25390625 C15.84675945 8.16632213 17.42361864 9.08275509 19 10 C17.68 10.33 16.36 10.66 15 11 C15 10.34 15 9.68 15 9 C13.68 9 12.36 9 11 9 C11 8.34 11 7.68 11 7 C8.69 6.67 6.38 6.34 4 6 C4 5.01 4 4.02 4 3 C2.68 2.67 1.36 2.34 0 2 C0 1.34 0 0.68 0 0 Z " fill="#23754F" transform="translate(295,94)"/>
<path d="M0 0 C0.99 0 1.98 0 3 0 C3 0.66 3 1.32 3 2 C4.65 2 6.3 2 8 2 C8.33 1.34 8.66 0.68 9 0 C9.99 0.99 10.98 1.98 12 3 C9.375 4.625 9.375 4.625 6 6 C2.625 5.1875 2.625 5.1875 0 4 C0 2.68 0 1.36 0 0 Z " fill="#211F20" transform="translate(182,426)"/>
<path d="M0 0 C-1.27004977 3.81014932 -2.51113397 4.17627457 -6 6 C-6.886875 6.350625 -7.77375 6.70125 -8.6875 7.0625 C-11.1427942 7.88303421 -11.1427942 7.88303421 -13 10 C-13.99 9.34 -14.98 8.68 -16 8 C-13.71125827 6.66141476 -11.41930344 5.32898986 -9.125 4 C-8.47402344 3.6184375 -7.82304688 3.236875 -7.15234375 2.84375 C-2.2265625 0 -2.2265625 0 0 0 Z " fill="#383637" transform="translate(73,66)"/>
<path d="M0 0 C1.89957501 0.90888756 3.79450786 1.82748031 5.6875 2.75 C7.27111328 3.51570313 7.27111328 3.51570313 8.88671875 4.296875 C11.90003083 5.94531172 14.39287648 7.77499662 17 10 C14.03 9.505 14.03 9.505 11 9 C11 8.34 11 7.68 11 7 C9.9275 6.9175 8.855 6.835 7.75 6.75 C3.72149234 5.94429847 2.43794344 5.21808534 0 2 C0 1.34 0 0.68 0 0 Z " fill="#072214" transform="translate(153,382)"/>
<path d="M0 0 C2.95296424 0.62333973 5.27546792 1.56901792 7.890625 3.06640625 C8.59960938 3.46923828 9.30859375 3.87207031 10.0390625 4.28710938 C10.76867187 4.70798828 11.49828125 5.12886719 12.25 5.5625 C12.99507812 5.98724609 13.74015625 6.41199219 14.5078125 6.84960938 C16.34098961 7.89546042 18.17082677 8.94716192 20 10 C16.26416016 11.13427734 16.26416016 11.13427734 13.88671875 9.92578125 C13.16097656 9.39339844 12.43523437 8.86101562 11.6875 8.3125 C7.89119745 5.61611954 4.07298969 3.25314323 0 1 C0 0.67 0 0.34 0 0 Z " fill="#062112" transform="translate(124,366)"/>
<path d="M0 0 C0.33 0 0.66 0 1 0 C1 3.96 1 7.92 1 12 C0.01 12 -0.98 12 -2 12 C-2.05422947 10.5629191 -2.09289723 9.12524538 -2.125 7.6875 C-2.14820313 6.88699219 -2.17140625 6.08648437 -2.1953125 5.26171875 C-2 3 -2 3 0 0 Z " fill="#391411" transform="translate(348,154)"/>
<path d="M0 0 C-4.95 2.97 -9.9 5.94 -15 9 C-15.33 8.34 -15.66 7.68 -16 7 C-12.375 4 -12.375 4 -9 4 C-9 3.34 -9 2.68 -9 2 C-5.33876089 -0.74592933 -4.63002084 -1.15750521 0 0 Z " fill="#26734E" transform="translate(336,315)"/>
<path d="M0 0 C1.32 0.33 2.64 0.66 4 1 C1.71125827 2.33858524 -0.58069656 3.67101014 -2.875 5 C-3.52597656 5.3815625 -4.17695313 5.763125 -4.84765625 6.15625 C-9.7734375 9 -9.7734375 9 -12 9 C-11.67 8.01 -11.34 7.02 -11 6 C-10.34 6 -9.68 6 -9 6 C-8.34 5.01 -7.68 4.02 -7 3 C-3.375 2.3125 -3.375 2.3125 0 2 C0 1.34 0 0.68 0 0 Z " fill="#082013" transform="translate(140,55)"/>
<path d="M0 0 C-1.95519384 1.17192047 -3.9142539 2.3373929 -5.875 3.5 C-6.96554687 4.1496875 -8.05609375 4.799375 -9.1796875 5.46875 C-12 7 -12 7 -14 7 C-14 5 -14 5 -12 3 C-10.68 3 -9.36 3 -8 3 C-7.67 2.01 -7.34 1.02 -7 0 C-2.25 -1.125 -2.25 -1.125 0 0 Z " fill="#1F7A51" transform="translate(286,344)"/>
<path d="M0 0 C12.27112676 3.89084507 12.27112676 3.89084507 14.4375 7.1875 C14.623125 7.785625 14.80875 8.38375 15 9 C11.32305352 7.62859834 8.04681411 5.96304199 4.6875 3.9375 C3.80449219 3.41027344 2.92148438 2.88304687 2.01171875 2.33984375 C1.34785156 1.89769531 0.68398437 1.45554688 0 1 C0 0.67 0 0.34 0 0 Z " fill="#052110" transform="translate(232,56)"/>
<path d="M0 0 C-4.62 2.64 -9.24 5.28 -14 8 C-12.74355639 4.23066918 -11.21492096 3.26505795 -8 1 C-3.6 -1.2 -3.6 -1.2 0 0 Z " fill="#247951" transform="translate(224,380)"/>
<path d="M0 0 C0.66 0 1.32 0 2 0 C2 2.97 2 5.94 2 9 C1.01 9 0.02 9 -1 9 C-1.09765625 2.84765625 -1.09765625 2.84765625 -1 1 C-0.67 0.67 -0.34 0.34 0 0 Z " fill="#421410" transform="translate(347,207)"/>
<path d="M0 0 C0.33 0.66 0.66 1.32 1 2 C0.195625 2.45375 -0.60875 2.9075 -1.4375 3.375 C-4.08856572 4.74725665 -4.08856572 4.74725665 -5 7 C-6.84765625 7.6328125 -6.84765625 7.6328125 -9.0625 8.125 C-9.79597656 8.29257813 -10.52945313 8.46015625 -11.28515625 8.6328125 C-11.85105469 8.75398438 -12.41695313 8.87515625 -13 9 C-9.39299028 4.76568424 -4.85413839 2.5307901 0 0 Z " fill="#227951" transform="translate(89,87)"/>
<path d="M0 0 C0.66 0 1.32 0 2 0 C2 2.97 2 5.94 2 9 C1.01 9 0.02 9 -1 9 C-1.09765625 2.84765625 -1.09765625 2.84765625 -1 1 C-0.67 0.67 -0.34 0.34 0 0 Z " fill="#421412" transform="translate(347,295)"/>
<path d="M0 0 C1.32 0.33 2.64 0.66 4 1 C-1.94 4.465 -1.94 4.465 -8 8 C-8.33 7.34 -8.66 6.68 -9 6 C-8.360625 5.71125 -7.72125 5.4225 -7.0625 5.125 C-4.84793921 4.17176549 -4.84793921 4.17176549 -4 2 C-2.68 2 -1.36 2 0 2 C0 1.34 0 0.68 0 0 Z " fill="#062112" transform="translate(112,71)"/>
<path d="M0 0 C-0.33 0.99 -0.66 1.98 -1 3 C-4.5625 4.6875 -4.5625 4.6875 -8 6 C-8 3 -8 3 -6 1 C-3 0 -3 0 0 0 Z " fill="#282728" transform="translate(223,410)"/>
<path d="M0 0 C1.32 0 2.64 0 4 0 C4 2.31 4 4.62 4 7 C2.68 6.67 1.36 6.34 0 6 C0 4.02 0 2.04 0 0 Z " fill="#0E110C" transform="translate(346,304)"/>
<path d="M0 0 C0.66 0.33 1.32 0.66 2 1 C-3.86516854 5.88764045 -3.86516854 5.88764045 -7 7 C-8.34353414 6.71050922 -9.67965718 6.38155437 -11 6 C-9.21385682 4.96953278 -7.42089982 3.95086764 -5.625 2.9375 C-4.62726562 2.36902344 -3.62953125 1.80054687 -2.6015625 1.21484375 C-1.74304687 0.81394531 -0.88453125 0.41304688 0 0 Z " fill="#227951" transform="translate(43,114)"/>
<path d="M0 0 C2 0.875 2 0.875 6 3.875 C2.04 3.545 -1.92 3.215 -6 2.875 C-2 -0.125 -2 -0.125 0 0 Z " fill="#342D33" transform="translate(188,0.125)"/>
<path d="M0 0 C0.33 0.66 0.66 1.32 1 2 C0.34 2 -0.32 2 -1 2 C-1 2.66 -1 3.32 -1 4 C-3.8125 5.5625 -3.8125 5.5625 -7 7 C-7.99 6.67 -8.98 6.34 -10 6 C-6.7 4.02 -3.4 2.04 0 0 Z " fill="#052211" transform="translate(247,366)"/>
<path d="M0 0 C-4.95 2.97 -4.95 2.97 -10 6 C-10 5.01 -10 4.02 -10 3 C-9.01 3 -8.02 3 -7 3 C-7 2.34 -7 1.68 -7 1 C-3.375 -1.125 -3.375 -1.125 0 0 Z " fill="#27754E" transform="translate(303,334)"/>
<path d="M0 0 C0.33 0 0.66 0 1 0 C1.020625 0.7425 1.04125 1.485 1.0625 2.25 C2.14587926 5.42791249 2.74474412 5.72751232 5.5625 7.3125 C6.696875 7.869375 7.83125 8.42625 9 9 C8.01 9.495 8.01 9.495 7 10 C2 7.54385965 2 7.54385965 0 6 C-1 3 -1 3 0 0 Z " fill="#051A0E" transform="translate(26,304)"/>
<path d="M0 0 C-1 3 -1 3 -3.3125 4.75 C-6.32190521 6.14972335 -6.98041673 5.95287489 -10 5 C-8.71186658 4.16121545 -7.41936744 3.32913217 -6.125 2.5 C-5.40570313 2.0359375 -4.68640625 1.571875 -3.9453125 1.09375 C-2 0 -2 0 0 0 Z " fill="#23754F" transform="translate(180,35)"/>
<path d="M0 0 C3.59391114 1.33488128 6.75490696 2.96022723 10 5 C5.82412255 6.39195915 3.86525224 4.82323219 0 3 C0 2.01 0 1.02 0 0 Z " fill="#287650" transform="translate(326,112)"/>
<path d="M0 0 C3.94120709 0.56302958 6.7508723 1.6791945 10 4 C10 4.66 10 5.32 10 6 C6.40992874 4.66654496 3.20429093 3.1056769 0 1 C0 0.67 0 0.34 0 0 Z " fill="#072614" transform="translate(218,48)"/>
<path d="M0 0 C0 0.66 0 1.32 0 2 C-1.96147874 3.38938077 -3.96166576 4.7260411 -6 6 C-6.99 5.34 -7.98 4.68 -9 4 C-2.25 0 -2.25 0 0 0 Z " fill="#217850" transform="translate(158,48)"/>
<path d="M0 0 C-4.95 2.475 -4.95 2.475 -10 5 C-10 4.01 -10 3.02 -10 2 C-3.375 -1.125 -3.375 -1.125 0 0 Z " fill="#081F11" transform="translate(70,99)"/>
<path d="M0 0 C3.3 1.65 6.6 3.3 10 5 C6.83170302 6.05609899 6.01480825 6.13055309 3 5 C1.25 3.5625 1.25 3.5625 0 2 C0 1.34 0 0.68 0 0 Z " fill="#297650" transform="translate(285,88)"/>
<path d="M0 0 C-1.24546405 3.73639216 -2.63404953 4.18756513 -6 6 C-6 4.68 -6 3.36 -6 2 C-2.25 0 -2.25 0 0 0 Z " fill="#2E2D2D" transform="translate(73,66)"/>
<path d="M0 0 C0 0.66 0 1.32 0 2 C-0.66 2 -1.32 2 -2 2 C-2 2.66 -2 3.32 -2 4 C-4.31 4.33 -6.62 4.66 -9 5 C-2.87096774 0 -2.87096774 0 0 0 Z " fill="#3F3D3F" transform="translate(19,97)"/>
<path d="M0 0 C2.91517292 1.07401108 4.77810176 1.77810176 7 4 C5.35 4.66 3.7 5.32 2 6 C1.34 4.02 0.68 2.04 0 0 Z " fill="#393738" transform="translate(336,86)"/>
<path d="M0 0 C1.32 0.33 2.64 0.66 4 1 C3.34 1 2.68 1 2 1 C2.33 2.32 2.66 3.64 3 5 C1.35 4.67 -0.3 4.34 -2 4 C-2 3.34 -2 2.68 -2 2 C-1.34 2 -0.68 2 0 2 C0 1.34 0 0.68 0 0 Z " fill="#1E1C1D" transform="translate(268,48)"/>
<path d="M0 0 C1.65 0 3.3 0 5 0 C4.67 0.99 4.34 1.98 4 3 C4.66 3.33 5.32 3.66 6 4 C4.68 4.33 3.36 4.66 2 5 C1.34 3.35 0.68 1.7 0 0 Z " fill="#252324" transform="translate(266,380)"/>
<path d="M0 0 C3.96 1.98 3.96 1.98 8 4 C5.3333581 5.33332095 3.83319697 4.67102033 1 4 C0.67 2.68 0.34 1.36 0 0 Z " fill="#091F14" transform="translate(48,321)"/>
<path d="M0 0 C0.99 0 1.98 0 3 0 C3 1.98 3 3.96 3 6 C2.01 6 1.02 6 0 6 C0 4.02 0 2.04 0 0 Z " fill="#4D1516" transform="translate(346,243)"/>
</svg>
