<svg xmlns="http://www.w3.org/2000/svg" width="292.08" height="406.32"><style>.st56{fill:#bf812e}.st61{fill:#f6ffff}.st133{fill:#965f0f}.st149{fill:#ffc55e}.st163{display:inline}.st273{display:none}</style><g id="Ui"><g class="st273"><g class="st163"><linearGradient id="SVGID_1_" gradientUnits="userSpaceOnUse" x1="95.2471" y1="-85.542" x2="95.2471" y2="44.9268"><stop offset="0" stop-color="#fcfaf5"/><stop offset="1" stop-color="#e4d0ad"/></linearGradient><path d="M356.021 44.927h-521.548c-5.824 0-10.589-4.765-10.589-10.589V-73.828c0-6.442 5.271-11.714 11.714-11.714h519.3c6.442 0 11.714 5.271 11.714 11.714V34.338c-.002 5.824-4.767 10.589-10.591 10.589z" fill="url(#SVGID_1_)"/></g></g><g id="Buttons_x5F_Round" class="st273"><g class="st163"><linearGradient id="SVGID_2_" gradientUnits="userSpaceOnUse" x1="18.7393" y1="-78.1943" x2="18.7393" y2="40.7646"><stop offset="0" stop-color="#99b6e6"/><stop offset=".2269" stop-color="#90afe0"/><stop offset=".5967" stop-color="#789cd1"/><stop offset="1" stop-color="#5681bc"/></linearGradient><circle cx="18.739" cy="-18.715" r="59.479" fill="url(#SVGID_2_)"/></g><g class="st163"><linearGradient id="SVGID_3_" gradientUnits="userSpaceOnUse" x1="15.7383" y1="-81.6973" x2="15.7383" y2="34.2617"><stop offset="0" stop-color="#65a9ad"/><stop offset=".077" stop-color="#6db1b4"/><stop offset=".4809" stop-color="#94d9d7"/><stop offset=".8027" stop-color="#abf1ed"/><stop offset="1" stop-color="#b4faf5"/></linearGradient><path d="M15.737 34.262c-31.97 0-57.979-26.01-57.979-57.979s26.009-57.979 57.979-57.979c31.971 0 57.98 26.01 57.98 57.979s-26.009 57.979-57.98 57.979z" fill="url(#SVGID_3_)"/><path class="st61" d="M15.737-80.197c31.144 0 56.479 25.337 56.479 56.479s-25.335 56.48-56.479 56.48c-31.143 0-56.479-25.337-56.479-56.479s25.337-56.48 56.479-56.48m0-3c-32.85 0-59.479 26.63-59.479 59.479s26.629 59.479 59.479 59.479 59.479-26.63 59.479-59.479-26.629-59.479-59.479-59.479z"/></g><g class="st163"><linearGradient id="SVGID_4_" gradientUnits="userSpaceOnUse" x1="158.4863" y1="-78.1943" x2="158.4863" y2="40.7646"><stop offset="0" stop-color="#99b6e6"/><stop offset=".2269" stop-color="#90afe0"/><stop offset=".5967" stop-color="#789cd1"/><stop offset="1" stop-color="#5681bc"/></linearGradient><circle cx="158.486" cy="-18.715" r="59.479" fill="url(#SVGID_4_)"/></g><g class="st163"><linearGradient id="SVGID_5_" gradientUnits="userSpaceOnUse" x1="155.4844" y1="-81.6973" x2="155.4844" y2="34.2617"><stop offset="0" stop-color="#65a9ad"/><stop offset=".077" stop-color="#6db1b4"/><stop offset=".4809" stop-color="#94d9d7"/><stop offset=".8027" stop-color="#abf1ed"/><stop offset="1" stop-color="#b4faf5"/></linearGradient><path d="M155.484 34.262c-31.971 0-57.979-26.01-57.979-57.979s26.009-57.979 57.979-57.979 57.979 26.01 57.979 57.979-26.009 57.979-57.979 57.979z" fill="url(#SVGID_5_)"/><path class="st61" d="M155.484-80.197c31.143 0 56.479 25.337 56.479 56.479s-25.337 56.479-56.479 56.479c-31.144 0-56.479-25.337-56.479-56.479s25.336-56.479 56.479-56.479m0-3c-32.85 0-59.479 26.63-59.479 59.479s26.63 59.479 59.479 59.479 59.479-26.63 59.479-59.479-26.629-59.479-59.479-59.479z"/></g><g class="st163"><linearGradient id="SVGID_6_" gradientUnits="userSpaceOnUse" x1="295.1377" y1="-78.1943" x2="295.1377" y2="40.7646"><stop offset="0" stop-color="#99b6e6"/><stop offset=".2269" stop-color="#90afe0"/><stop offset=".5967" stop-color="#789cd1"/><stop offset="1" stop-color="#5681bc"/></linearGradient><circle cx="295.138" cy="-18.715" r="59.479" fill="url(#SVGID_6_)"/></g><g class="st163"><linearGradient id="SVGID_7_" gradientUnits="userSpaceOnUse" x1="292.1357" y1="-81.6973" x2="292.1357" y2="34.2617"><stop offset="0" stop-color="#65a9ad"/><stop offset=".077" stop-color="#6db1b4"/><stop offset=".4809" stop-color="#94d9d7"/><stop offset=".8027" stop-color="#abf1ed"/><stop offset="1" stop-color="#b4faf5"/></linearGradient><path d="M292.136 34.262c-31.97 0-57.979-26.01-57.979-57.979s26.01-57.979 57.979-57.979c31.971 0 57.979 26.01 57.979 57.979s-26.009 57.979-57.979 57.979z" fill="url(#SVGID_7_)"/><path class="st61" d="M292.136-80.197c31.143 0 56.479 25.337 56.479 56.479s-25.337 56.479-56.479 56.479-56.479-25.337-56.479-56.479 25.336-56.479 56.479-56.479m0-3c-32.85 0-59.479 26.63-59.479 59.479s26.63 59.479 59.479 59.479 59.479-26.63 59.479-59.479-26.63-59.479-59.479-59.479z"/></g></g></g><g id="Cards_1_"><g id="Development_10_"><radialGradient id="SVGID_8_" cx="98.9248" cy="200.1826" r="162.2683" gradientTransform="matrix(0 -1 1.064 0 -70.1169 299.1074)" gradientUnits="userSpaceOnUse"><stop offset="0" stop-color="#f9e141"/><stop offset=".201" stop-color="#f6d83f"/><stop offset=".5286" stop-color="#edc03b"/><stop offset=".9401" stop-color="#de9834"/><stop offset="1" stop-color="#dc9233"/></radialGradient><path d="M16.303 390.183c-3.401 0-6.169-2.768-6.169-6.17V16.352c0-3.401 2.768-6.169 6.169-6.169h253.161c3.402 0 6.17 2.768 6.17 6.169v367.661c0 3.402-2.768 6.17-6.17 6.17H16.303z" fill="url(#SVGID_8_)"/><path d="M265.634 20.182v360h-245.5v-360h245.5m3.83-20H16.303C7.373.182.134 7.422.134 16.352v367.661c0 8.931 7.239 16.169 16.169 16.169h253.161c8.931 0 16.17-7.238 16.17-16.169V16.352c0-8.93-7.239-16.17-16.17-16.17z" fill="#f9e141"/><path d="M269.464 10.182c3.402 0 6.17 2.768 6.17 6.17v367.661c0 3.401-2.768 6.169-6.17 6.169H16.303c-3.401 0-6.169-2.768-6.169-6.169V16.352c0-3.402 2.768-6.17 6.169-6.17h253.161m0-10H16.303C7.373.182.134 7.422.134 16.352v367.661c0 8.931 7.239 16.169 16.169 16.169h253.161c8.931 0 16.17-7.238 16.17-16.169V16.352c0-8.93-7.239-16.17-16.17-16.17z" fill="#414042"/></g><path class="st149" d="M152.94 302.398c-1.033 0-2.018-.171-2.927-.51-3.033-1.126-5.172-4.147-5.448-7.697-.222-2.857.686-5.59 1.634-8.144.499-1.344 1.209-3.078 2.295-4.631 6.298-11.133 16.562-19.729 26.717-27.357 6.981-5.247 12.516-9.032 17.944-12.274 7.791-4.654 42.098-13.274 48.468-13.274.574 0 2.099 0 2.76 1.326 1.104 2.218-1.499 3.76-5.44 6.094-3.084 1.826-7.488 4.246-12.151 6.808-11.271 6.191-25.296 13.897-30.836 18.715-7.187 6.249-13.456 13.585-19.519 20.679-4.199 4.913-8.542 9.993-13.19 14.726-1.545 1.571-3.231 3.198-5.376 4.3-1.583.811-3.287 1.239-4.931 1.239z"/><path class="st133" d="M241.623 230.512c.559 0 .896.069.97.218.901 1.809-37.514 20.14-47.95 29.215-12.284 10.682-21.49 23.976-32.823 35.511-1.452 1.479-2.972 2.951-4.863 3.923-1.221.627-2.63 1.021-4.017 1.021-.762 0-1.517-.119-2.229-.383-2.514-.935-3.958-3.493-4.151-5.979-.193-2.485.639-4.934 1.515-7.292.547-1.473 1.194-2.967 2.112-4.257 6.018-10.688 16.025-19.165 26.226-26.829 5.719-4.298 11.574-8.457 17.769-12.156 7.225-4.318 41.206-12.992 47.441-12.992m0-4c-6.845 0-41.384 8.713-49.493 13.556-5.485 3.276-11.074 7.098-18.121 12.393-10.306 7.744-20.73 16.482-27.209 27.892-1.185 1.717-1.943 3.566-2.476 5-1.025 2.761-2.006 5.73-1.753 8.995.336 4.323 2.984 8.02 6.746 9.418 1.133.421 2.352.634 3.622.634 1.96 0 3.981-.506 5.845-1.463 2.409-1.237 4.23-2.988 5.889-4.677 4.698-4.782 9.064-9.892 13.287-14.831 6.015-7.037 12.233-14.314 19.308-20.465 5.378-4.678 19.301-12.326 30.487-18.473 4.88-2.681 9.096-4.996 12.206-6.839 1.737-1.028 3.006-1.839 3.88-2.477 3.294-2.407 3.086-4.716 2.332-6.229-.554-1.111-1.792-2.434-4.55-2.434z"/><path class="st149" d="M127.419 299.431c-1.934 0-3.758-.693-4.947-1.276-5.204-2.547-9.102-6.606-12.869-10.532l-.641-.666c-8.35-8.676-17.34-17-26.722-24.741-4.627-3.818-9.682-7.779-15.282-10.883-3.037-1.683-8.985-2.213-12.922-2.564-4.491-.4-6.746-.602-6.558-3.014.103-1.311.229-2.942 11.814-2.942 3.611 0 10.361.234 14.998 1.803 6.839 2.312 13.856 5.747 22.084 10.812 3.604 2.218 6.511 4.168 9.147 6.137 6.363 4.751 11.998 10.29 17.448 15.648l3.865 3.801c2.68 2.635 7.669 7.539 6.599 13.345-.291 1.581-1.015 2.884-2.091 3.766-1.057.866-2.377 1.306-3.923 1.306z"/><path class="st133" d="M59.294 244.812c4.942 0 10.653.444 14.356 1.696 7.702 2.604 14.856 6.424 21.676 10.621 3.087 1.9 6.116 3.884 9 6.037 6.239 4.658 11.752 10.074 17.242 15.473 1.288 1.266 2.577 2.533 3.865 3.8 3.297 3.241 6.841 7.182 6.034 11.557-.178.965-.597 1.93-1.392 2.581-.747.611-1.675.854-2.657.854-1.367 0-2.838-.471-4.067-1.072-5.172-2.531-9.066-6.755-12.948-10.789-8.435-8.764-17.418-17.081-26.89-24.897-4.896-4.041-9.951-7.967-15.587-11.089s-18.541-2.56-18.454-3.674c.046-.58 4.485-1.098 9.822-1.098m0-4c-2.705 0-5.313.127-7.346.357-2.157.244-6.174.699-6.464 4.43-.072.937.051 4.05 4.692 4.769.971.151 2.228.264 3.684.394 3.539.315 9.462.844 12.128 2.321 5.466 3.029 10.43 6.921 14.979 10.676 9.321 7.691 18.255 15.963 26.554 24.585l.643.67c3.888 4.049 7.908 8.236 13.429 10.938 1.379.676 3.51 1.479 5.826 1.479 1.991 0 3.787-.608 5.192-1.761 1.447-1.186 2.412-2.897 2.79-4.949 1.263-6.851-4.219-12.239-7.163-15.135l-1.089-1.07-2.777-2.73c-5.499-5.405-11.185-10.996-17.653-15.824-2.68-2.001-5.634-3.983-9.296-6.238-8.358-5.145-15.505-8.642-22.491-11.004-4.909-1.66-11.905-1.908-15.638-1.908z"/><path class="st149" d="M125.369 261.303l-.33-.077c-2.021-.532-3.936-3.141-7.146-7.706-1.11-1.579-2.259-3.212-3.252-4.43-1.826-2.239-3.715-4.554-5.806-6.602-2.57-2.517-5.463-4.669-8.524-6.948-2.302-1.714-4.682-3.485-6.892-5.414-6.451-5.63-9.944-11.761-10.102-17.729-.088-3.305 1.258-5.934 3.6-7.03.803-.376 1.702-.566 2.672-.566 1.181 0 2.445.271 3.866.831 6.754 2.66 11.29 8.373 14.114 12.439 1.205 1.734 2.558 3.819 3.446 6.132.54 1.402.886 2.817 1.221 4.186.106.437.213.873.325 1.307 1.498 5.769 7.147 15.012 10.887 21.128 4.111 6.728 4.853 7.939 4.032 9.401-.373.665-1.083 1.078-1.854 1.078h-.257z"/><path class="st133" d="M89.591 206.801c1.055 0 2.149.305 3.133.692 5.711 2.249 9.86 6.905 13.204 11.718 1.258 1.812 2.443 3.684 3.223 5.711.659 1.713 1.018 3.509 1.477 5.276 2.637 10.153 16.637 29.104 15.001 29.104a.3106.3106 0 01-.08-.012c-2.119-.558-6.238-7.645-9.356-11.466-1.895-2.322-3.795-4.649-5.956-6.766-4.698-4.6-10.523-8.097-15.5-12.44-4.978-4.344-9.252-9.967-9.418-16.274-.053-1.983.526-4.266 2.449-5.166.571-.268 1.189-.377 1.823-.377m0-4c-1.267 0-2.451.254-3.521.756-3.084 1.444-4.859 4.77-4.751 8.894.172 6.541 3.902 13.175 10.786 19.183 2.269 1.979 4.68 3.774 7.012 5.511 3.007 2.237 5.847 4.352 8.32 6.774 2.005 1.963 3.778 4.136 5.656 6.437.948 1.162 2.076 2.767 3.167 4.318 3.478 4.945 5.575 7.777 8.271 8.486.362.095.731.144 1.098.144 1.493 0 2.872-.805 3.599-2.102 1.265-2.254.067-4.387-.988-6.268-.761-1.354-1.837-3.116-3.085-5.156-3.676-6.015-9.231-15.104-10.654-20.584-.11-.426-.215-.853-.319-1.279-.349-1.43-.71-2.907-1.296-4.43-.965-2.508-2.397-4.721-3.671-6.555-2.973-4.279-7.765-10.3-15.023-13.158-1.662-.654-3.166-.971-4.601-.971z"/><path class="st149" d="M104.307 212.531l-.183-.314c-2.42-4.16-6.222-7.732-10.704-10.06-.778-.404-1.577-.774-2.377-1.146-1.335-.619-2.716-1.259-4.031-2.061-1.992-1.212-3.688-2.706-5.085-4.008-1.649-1.538-3.747-3.616-5.345-6.061-2.309-3.532-3.503-7.751-3.362-11.881.123-3.623 1.384-6.438 3.646-8.14 1.545-1.161 3.456-1.751 5.681-1.751 2.124 0 4.529.572 6.773 1.609 5.962 2.759 11.043 7.721 15.536 15.17 1.33 2.206 2.272 4.06 2.966 5.834 2.944 7.534 2.207 15.706 1.556 22.916l-.339 3.75-4.732-3.857z"/><path class="st133" d="M82.545 169.111c2.01 0 4.125.588 5.935 1.426 6.483 2.999 11.144 8.551 14.663 14.387 1.074 1.781 2.066 3.611 2.815 5.527 2.726 6.973 2.094 14.625 1.427 22.01l-1.532-1.25c-2.624-4.51-6.666-8.313-11.511-10.829-2.078-1.079-4.3-1.927-6.29-3.138-1.748-1.064-3.288-2.391-4.761-3.764-1.872-1.745-3.661-3.59-5.034-5.691-2.098-3.208-3.166-6.977-3.038-10.719.083-2.443.791-5.062 2.849-6.609 1.276-.96 2.841-1.35 4.477-1.35m0-4c-2.63 0-5.01.744-6.882 2.153-2.761 2.076-4.297 5.42-4.442 9.669-.155 4.538 1.154 9.17 3.688 13.045 1.715 2.623 3.923 4.813 5.654 6.428 1.472 1.371 3.264 2.949 5.409 4.254 1.411.859 2.843 1.523 4.228 2.166.809.375 1.572.729 2.299 1.105 4.15 2.155 7.664 5.455 9.896 9.291l.366.629.563.459 1.533 1.25 5.834 4.757.677-7.497c.672-7.43 1.433-15.851-1.685-23.825-.735-1.88-1.726-3.83-3.115-6.136-4.705-7.804-10.073-13.021-16.409-15.953-1.769-.818-4.527-1.795-7.614-1.795z"/><path class="st149" d="M109.456 184.163c-1.353-4.664-4.406-8.852-8.599-11.79-1.503-1.053-3.156-1.966-4.906-2.933-3.806-2.101-7.74-4.273-10.114-8.036-1.342-2.128-1.967-4.5-2.362-6.33-.527-2.443-.894-5.3.381-7.96 1.401-2.927 4.683-4.894 8.163-4.894.387 0 .774.024 1.153.075 3.636.479 6.302 2.892 8.43 5.188 2.974 3.21 4.963 6.062 6.262 8.974 1.292 2.896 1.916 5.914 2.521 8.832l3.833 18.529-3.9 3.312-.862-2.967z"/><path class="st133" d="M92.019 144.221c.298 0 .596.019.892.058 2.96.39 5.286 2.474 7.225 4.565 2.366 2.555 4.518 5.324 5.902 8.429 1.198 2.689 1.797 5.567 2.388 8.423 1.197 5.789 2.395 11.578 3.593 17.367l-.641.544c-1.472-5.08-4.824-9.684-9.372-12.871-4.918-3.447-11.373-5.48-14.477-10.398-1.097-1.739-1.673-3.713-2.099-5.685-.479-2.219-.763-4.604.229-6.674 1.076-2.247 3.704-3.758 6.36-3.758m0-4c-4.233 0-8.239 2.423-9.967 6.029-1.545 3.223-1.096 6.635-.532 9.246.43 1.991 1.116 4.583 2.626 6.976 2.649 4.198 7 6.601 10.84 8.72 1.701.94 3.309 1.828 4.724 2.82 3.822 2.678 6.601 6.48 7.825 10.708l1.72 5.935 4.711-3.998.641-.543 1.81-1.536-.48-2.324-2.068-10-1.524-7.368c-.625-3.021-1.271-6.146-2.651-9.241-1.392-3.119-3.495-6.144-6.621-9.519-2.232-2.408-5.345-5.246-9.636-5.812-.468-.062-.944-.093-1.418-.093z"/><path class="st149" d="M119.799 145.973l2.281-.402c.162-.042.271-.068.381-.088l3.681-.677-1.725 3.994-2.082 4.798-2.536-7.625z"/><path class="st133" d="M122.822 147.449c-.08.186-.16.37-.24.555l-.154-.464c.133-.023.261-.065.394-.091m6.662-5.304l-7.393 1.372c-.146.027-.29.061-.434.098l-4.485.781 1.458 4.402.153.464 3.298 9.954 4.17-9.621.044-.103.195-.45 2.994-6.897z"/><path class="st149" d="M121.453 133.996c.028-1.595-.716-3.352-2.274-5.371-.616-.798-1.289-1.562-2.002-2.37-.95-1.078-1.933-2.193-2.797-3.425-1.538-2.195-2.604-4.607-3.165-7.171-.697-3.178-.198-5.818 1.442-7.638 1.302-1.441 3.245-2.235 5.475-2.235 1.834 0 3.653.537 5.123 1.514 2.381 1.581 4.106 4.161 5.276 7.89 2.343 7.461 1.428 14.668-2.509 19.772l-.396.513-4.221 1.247.048-2.726z"/><path class="st133" d="M118.132 107.786c1.414 0 2.872.42 4.017 1.181 2.387 1.584 3.658 4.221 4.475 6.821 1.879 5.985 1.735 12.87-2.185 17.952l-.985.291c.042-2.398-1.182-4.672-2.691-6.628-1.511-1.957-3.33-3.705-4.744-5.722-1.375-1.963-2.348-4.163-2.85-6.451-.44-2.008-.447-4.293.975-5.869.976-1.083 2.457-1.575 3.988-1.575m0-4c-2.803 0-5.273 1.028-6.958 2.895-1.46 1.617-2.977 4.562-1.913 9.407.62 2.823 1.791 5.479 3.481 7.89.928 1.323 1.948 2.48 2.935 3.601.69.783 1.342 1.522 1.918 2.269 1.253 1.624 1.879 3.008 1.858 4.114l-.097 5.453 5.23-1.547.986-.291 1.241-.367.791-1.025c4.342-5.629 5.375-13.5 2.834-21.594-1.312-4.182-3.301-7.111-6.078-8.956-1.793-1.193-4.006-1.849-6.228-1.849z"/><path class="st149" d="M130.989 119.071l.003-.512c.016-2.963-.866-5.898-1.8-9.007-.263-.877-.526-1.755-.77-2.633-1.074-3.884-2.039-8.939.048-13.597.87-1.939 2.104-3.33 3.668-4.134.873-.449 1.865-.687 2.868-.687 1.38 0 2.648.46 3.57 1.295.999.905 1.439 2.092 1.684 2.906 1.23 4.096.547 8.295-.375 12.222-1.185 5.042-2.799 10.043-4.8 14.866l-1.609 3.878-2.487-4.597z"/><path class="st133" d="M135.007 90.503c.828 0 1.64.245 2.229.778.586.53.891 1.268 1.109 1.997 1.092 3.634.459 7.505-.406 11.19-1.163 4.952-2.736 9.823-4.7 14.557l-.246-.455c.021-4.154-1.527-8.157-2.642-12.184-1.113-4.026-1.776-8.404-.055-12.245.572-1.275 1.447-2.499 2.757-3.173.589-.302 1.277-.465 1.954-.465m0-4c-1.319 0-2.627.313-3.783.908-1.95 1.003-3.533 2.765-4.577 5.095-2.376 5.3-1.224 11.068-.151 14.947.247.893.515 1.783.782 2.676.889 2.96 1.729 5.756 1.715 8.421l-.005 1.021.484.899.246.455 3.993 7.396 3.222-7.763c2.042-4.92 3.69-10.026 4.9-15.176.985-4.196 1.709-8.707.343-13.255-.313-1.044-.888-2.573-2.255-3.812-1.291-1.169-3.036-1.812-4.914-1.812z"/><path class="st149" d="M141.368 103.072l.004-.111c.152-4.148 1.033-8.22 2.62-12.104.495-1.212 1.114-2.464 2.281-3.414.907-.737 2.082-1.16 3.224-1.16.768 0 1.505.193 2.133.56 1.427.831 2.182 2.359 2.243 4.54.088 3.203-.709 6.283-2.303 8.91-1.7 2.803-4.302 5.022-7.323 6.249l-2.544 1.033-.335-4.503z"/><path class="st133" d="M149.497 88.283c.396 0 .784.089 1.125.287.986.576 1.222 1.795 1.252 2.869.074 2.708-.577 5.449-2.014 7.815-1.436 2.366-3.671 4.34-6.366 5.435l-.123-1.655c.143-3.896.981-7.771 2.473-11.42.393-.96.856-1.94 1.692-2.62.534-.434 1.26-.711 1.961-.711m0-4c-1.595 0-3.229.586-4.485 1.608-1.518 1.234-2.303 2.82-2.87 4.209-1.676 4.102-2.607 8.403-2.769 12.786l-.008.223.017.223.123 1.654.409 5.475 5.085-2.065c3.418-1.388 6.358-3.897 8.281-7.065 1.794-2.957 2.69-6.414 2.592-10-.101-3.636-1.814-5.387-3.235-6.215-.934-.546-2.019-.833-3.14-.833z"/><path class="st149" d="M138.678 118.18l.004-1.054c.014-3.46 1.773-6.785 4.709-8.896.719-.517 1.46-.931 2.178-1.331.605-.339 1.178-.658 1.686-1.012 1.212-.843 2.26-2.034 3.184-3.085.823-.935 1.755-1.992 3.09-2.719.904-.492 1.944-.763 2.929-.763.871 0 1.704.211 2.41.609 1.552.877 2.489 2.648 2.507 4.738.03 3.198-1.878 6.494-5.103 8.815-2.676 1.926-5.896 3.038-8.738 4.02l-6.56 2.264-2.296-1.586z"/><path class="st133" d="M156.457 101.32c.502 0 .994.107 1.425.351 1.068.604 1.481 1.86 1.491 3.014.026 2.825-1.852 5.435-4.271 7.176-2.42 1.741-5.347 2.759-8.223 3.752-1.868.645-3.735 1.289-5.603 1.934l-.596-.411c.011-2.797 1.481-5.559 3.877-7.281 1.207-.869 2.615-1.475 3.838-2.325 1.366-.95 2.466-2.181 3.543-3.405.75-.852 1.52-1.726 2.545-2.284.592-.323 1.292-.521 1.974-.521m0-4c-1.333 0-2.676.348-3.884 1.005-1.649.897-2.751 2.149-3.636 3.154-1.062 1.208-1.887 2.112-2.825 2.766-.428.297-.958.593-1.519.906-.731.408-1.56.871-2.371 1.455-3.454 2.483-5.525 6.414-5.541 10.513l-.008 2.106 1.732 1.198.595.411 1.666 1.153 1.914-.661 5.604-1.934c2.97-1.024 6.336-2.187 9.254-4.287 3.807-2.739 5.971-6.551 5.935-10.458-.025-2.814-1.343-5.229-3.524-6.461-1.005-.566-2.178-.866-3.392-.866z"/><path class="st149" d="M142.646 271.185l-1.028-.133-.568-.792c-1.497-2.209 1.274-19.075 2.3-23.101 1.725-6.771 3.226-13.925 1.043-20.393-.729-2.164-1.858-4.225-3.053-6.405-1.68-3.065-3.417-6.235-4.04-9.831-.567-3.271-.155-6.622 1.192-9.69 1.021-2.324 2.44-3.994 4.217-4.964 1.182-.645 2.574-.986 4.026-.986 2.186 0 4.448.762 6.208 2.09 2.299 1.734 3.965 4.377 4.953 7.854 1.387 4.88 1.182 9.878.88 14.18-.393 5.622-1.114 11.576-3.711 17.03-.595 1.251-1.276 2.448-1.937 3.606-.752 1.321-1.462 2.569-2.039 3.865-.793 1.783-1.356 3.733-1.9 5.619-.953 3.299-1.881 8.42-2.627 12.535-1.526 8.427-1.724 9.517-3.782 9.517l-.134-.001z"/><path class="st133" d="M146.735 196.891c1.781 0 3.609.635 5.003 1.686 2.233 1.686 3.503 4.232 4.233 6.804 1.244 4.378 1.125 8.978.809 13.493-.389 5.561-1.092 11.206-3.521 16.311-1.217 2.557-2.848 4.936-3.997 7.518-.846 1.901-1.422 3.893-1.995 5.878-1.985 6.87-3.716 20.606-4.49 20.606-.003 0-.006-.001-.009-.001-.771-.101.716-14.451 2.52-21.531 1.803-7.08 3.343-14.581 1-21.526-1.853-5.492-6.033-10.26-7.018-15.938-.497-2.866-.129-5.854 1.053-8.545.699-1.591 1.739-3.137 3.344-4.012.934-.513 1.992-.743 3.068-.743m0-4c-1.787 0-3.512.426-4.987 1.231-2.174 1.187-3.886 3.177-5.088 5.913-1.506 3.43-1.967 7.177-1.332 10.837.681 3.924 2.498 7.241 4.256 10.45 1.151 2.102 2.239 4.086 2.913 6.083 2.008 5.953.564 12.779-1.086 19.261-.829 3.255-1.681 8.305-2.276 13.508-1.062 9.26-.479 10.119.258 11.207.659.973 1.7 1.618 2.854 1.77l.26.034.27.001c3.493 0 4.229-3.417 4.67-5.459.32-1.487.674-3.439 1.084-5.7.736-4.071 1.654-9.137 2.579-12.337.552-1.908 1.072-3.711 1.807-5.361.537-1.206 1.224-2.412 1.951-3.689.677-1.189 1.377-2.42 2.004-3.736 2.738-5.754 3.492-11.932 3.899-17.751.312-4.471.523-9.676-.951-14.864-1.109-3.906-3.018-6.902-5.672-8.904-2.1-1.586-4.802-2.494-7.413-2.494z"/><path class="st149" d="M156.838 235.356l.131-.257c2.701-5.34 6.063-11.985 11.369-17.009 1.315-1.245 3.13-2.766 5.507-3.479.827-.248 1.699-.374 2.592-.374 4.55 0 8.709 3.158 9.469 7.189.539 2.868-.465 5.974-2.753 8.521-2.127 2.368-5.02 3.89-7.011 4.828-5.401 2.542-11.449 4.114-17.49 4.549l-2.58.185.766-4.153z"/><path class="st133" d="M176.437 216.238c3.449 0 6.904 2.382 7.503 5.56.454 2.416-.577 4.925-2.275 6.814-1.697 1.89-4.002 3.237-6.376 4.354-5.207 2.453-10.947 3.945-16.78 4.364l.245-1.328c2.966-5.862 6.061-11.821 10.96-16.46 1.346-1.273 2.87-2.464 4.706-3.015.656-.196 1.336-.289 2.017-.289m0-4c-1.088 0-2.153.154-3.168.459-2.812.844-4.945 2.654-6.306 3.941-5.559 5.262-9.008 12.08-11.779 17.559l-.26.514-.104.566-.245 1.328-.938 5.086 5.159-.371c6.286-.451 12.579-2.089 18.197-4.734 2.147-1.011 5.276-2.66 7.648-5.301 2.708-3.016 3.885-6.742 3.229-10.227-.931-4.946-5.953-8.82-11.433-8.82z"/><path class="st149" d="M160.502 216.355c.42-3.623-.632-7.271-1.746-11.133-.428-1.479-.869-3.011-1.224-4.547-1.833-7.944-.776-15.182 2.977-20.379.454-.629 1.836-2.543 4.166-2.683.086-.006.175-.008.263-.008 1.263 0 2.535.555 3.681 1.605 3.629 3.334 3.735 8.319 3.551 12.731-.184 4.375-.373 8.899-1.415 13.353-1.209 5.166-3.407 9.408-6.533 12.609l-.39.398-3.666.949.336-2.895z"/><path class="st133" d="M164.935 179.605c.884 0 1.699.5 2.331 1.08 3.037 2.79 3.07 7.229 2.905 11.174-.183 4.35-.369 8.726-1.364 12.981-.996 4.256-2.854 8.429-6.017 11.667l-.302.078c.642-5.529-1.752-10.92-3.007-16.359-1.462-6.336-1.247-13.363 2.648-18.759.64-.886 1.511-1.788 2.665-1.858.048-.002.095-.004.141-.004m0-4c-.126 0-.253.004-.381.012-2.175.132-4.081 1.312-5.667 3.509-4.095 5.671-5.268 13.483-3.303 21.999.366 1.59.815 3.147 1.25 4.654 1.057 3.662 2.055 7.122 1.681 10.346l-.672 5.796 5.647-1.462.302-.078 1.08-.28.779-.798c3.386-3.467 5.758-8.025 7.05-13.551 1.084-4.636 1.278-9.256 1.466-13.725.147-3.511.422-10.046-4.196-14.287-1.519-1.396-3.261-2.135-5.036-2.135z"/><path class="st149" d="M173.696 203.833l.075-.589c.501-3.45.133-6.919-.257-10.59-.14-1.321-.28-2.643-.379-3.961-.326-4.33-.344-10.677 3.239-15.792 1.17-1.67 2.537-2.9 4.064-3.66 1.146-.57 2.409-.872 3.651-.872.884 0 1.728.152 2.507.454 2.077.803 3.697 2.694 4.334 5.06.518 1.931.363 3.82.161 5.591-.387 3.389-1.055 7.318-3.087 10.759-1.333 2.258-3.163 4.187-4.933 6.051-2.513 2.647-4.886 5.148-5.424 8.155l-3.951-.606z"/><path class="st133" d="M184.091 170.369c.611 0 1.219.101 1.785.319 1.628.628 2.7 2.138 3.124 3.714.423 1.576.29 3.229.105 4.844-.392 3.438-1.027 6.932-2.821 9.97-3.11 5.266-9.545 8.958-10.604 14.87l.075-.589c.72-4.956-.251-9.967-.626-14.954-.375-4.986-.062-10.291 2.883-14.494.852-1.215 1.935-2.329 3.317-3.018.844-.418 1.809-.662 2.762-.662m0-4c-1.549 0-3.119.374-4.541 1.081-1.832.911-3.451 2.359-4.813 4.304-3.95 5.639-3.944 12.454-3.596 17.09.103 1.359.246 2.713.386 4.021.376 3.543.73 6.889.271 10.057l-.006.035-.004.036-.075.589 7.905 1.208c.433-2.417 2.605-4.706 4.906-7.13 1.846-1.945 3.755-3.957 5.203-6.41 2.223-3.764 2.942-7.951 3.353-11.551.214-1.878.391-4.07-.218-6.335-.801-2.98-2.874-5.376-5.545-6.407-1.009-.391-2.095-.588-3.226-.588z"/><g><path class="st149" d="M117.382 236.723l.431-1.219c.453-1.285-.122-2.93-.73-4.672l-.136-.389c-1.234-3.562-2.057-7.257-2.442-10.983-.24-2.326-.396-5.378.535-8.354 1.005-3.212 3.178-5.793 5.96-7.083 1.666-.773 3.655-1.149 6.08-1.149h.155c1.035.007 2.396.071 3.741.515 3.574 1.177 6.028 4.611 6.91 9.671.398 2.28.479 4.178.251 5.972-.511 4.04-2.731 8.061-6.423 11.627-3.15 3.044-6.896 5.376-10.517 7.631l-1.317.82-2.498-2.387z"/><path class="st133" d="M127.076 204.873c.049 0 .098.001.146.001 1.059.007 2.132.086 3.129.414 3.44 1.133 4.986 4.797 5.564 8.114.311 1.777.464 3.59.237 5.378-.5 3.954-2.844 7.556-5.828 10.439s-6.6 5.14-10.185 7.372l-.441-.422c.732-2.076-.142-4.303-.862-6.383-1.187-3.421-1.973-6.959-2.343-10.533-.261-2.524-.309-5.113.454-7.55s2.43-4.724 4.893-5.866c1.603-.743 3.437-.964 5.236-.964m0-4c-2.72 0-4.983.438-6.92 1.336-3.292 1.527-5.853 4.553-7.026 8.301-1.041 3.326-.876 6.641-.615 9.156.4 3.877 1.256 7.723 2.541 11.432l.138.395c.425 1.214.953 2.724.732 3.348l-.859 2.438 1.869 1.785.442.422 2.243 2.143 2.634-1.64c3.71-2.311 7.546-4.7 10.849-7.892 4.022-3.886 6.448-8.316 7.018-12.813.249-1.968.162-4.115-.265-6.566-1.016-5.821-3.947-9.809-8.255-11.228-1.611-.53-3.174-.607-4.354-.614l-.172-.003z"/></g><g><path class="st149" d="M112.578 205.176l.155-.965c.301-1.871.064-3.843-.188-5.931-.093-.774-.186-1.548-.252-2.32-.373-4.298.14-7.883 1.567-10.959 1.807-3.887 5.196-6.804 9.069-7.805.939-.243 1.925-.366 2.927-.366 3.727 0 7.137 1.675 8.901 4.369 1.347 2.057 1.652 4.394 1.782 6.612.054.908.093 1.968-.117 3.057-.643 3.348-3.295 5.638-5.405 6.97-1.424.897-2.931 1.597-4.388 2.273-.912.424-1.773.823-2.61 1.267-2.67 1.41-5.026 3.224-7.005 5.393l-1.464 1.604-2.972-3.199z"/><path class="st133" d="M125.856 178.83c2.872 0 5.757 1.217 7.229 3.465 1.094 1.671 1.345 3.687 1.459 5.634.05.854.077 1.718-.085 2.562-.454 2.364-2.355 4.298-4.509 5.656-2.154 1.357-4.601 2.266-6.865 3.463-2.86 1.512-5.428 3.488-7.548 5.812l-.83-.893c.465-2.894-.169-5.826-.422-8.742-.292-3.364-.053-6.84 1.39-9.943 1.442-3.104 4.221-5.798 7.755-6.711.787-.203 1.606-.303 2.426-.303m0-4c-1.171 0-2.323.145-3.426.43-4.446 1.148-8.327 4.475-10.382 8.898-1.58 3.399-2.151 7.316-1.748 11.975.071.816.167 1.614.26 2.386.233 1.944.454 3.781.198 5.375l-.311 1.929 1.33 1.432.83.893 2.958 3.18 2.927-3.208c1.82-1.995 3.994-3.669 6.462-4.973.791-.418 1.628-.807 2.515-1.219 1.516-.703 3.083-1.431 4.614-2.397 3.508-2.212 5.688-5.076 6.304-8.284.253-1.312.21-2.521.15-3.549-.14-2.377-.498-5.138-2.105-7.593-2.13-3.254-6.182-5.275-10.576-5.275z"/></g><g><path class="st149" d="M117.784 177.526c-1.423-.001-2.788-.896-3.396-2.228-.554-1.216-.424-2.409-.259-3.434.497-3.088 1.303-6.151 2.393-9.103 1.445-3.918 3.122-6.837 5.275-9.187 2.789-3.043 6.37-4.983 10.082-5.464.491-.063.942-.094 1.382-.094 1.164 0 2.197.228 3.072.678.993.511 1.836 1.324 2.577 2.486 2.879 4.521 2.121 10.975-1.841 15.696-2.959 3.525-7.459 6.222-13.756 8.244l-.55.175c-.604.191-1.193.378-1.747.585l.411.559-2.547.898c-.351.126-.72.189-1.096.189z"/><path class="st133" d="M133.261 150.018c.756 0 1.504.121 2.157.457.78.401 1.354 1.074 1.806 1.783 2.61 4.099 1.47 9.574-1.687 13.335s-7.957 6.06-12.835 7.626c-1.629.523-3.318.994-4.699 1.945l.213.289c-.142.05-.286.072-.432.072-.658 0-1.311-.475-1.577-1.058-.324-.712-.227-1.521-.104-2.284a46.6385 46.6385 0 012.294-8.729c1.129-3.059 2.61-6.057 4.874-8.527 2.264-2.469 5.386-4.382 8.864-4.832.371-.047.75-.077 1.126-.077m0-4c-.519 0-1.069.038-1.638.111-4.179.541-8.191 2.705-11.3 6.096-2.335 2.547-4.139 5.676-5.679 9.845-1.135 3.075-1.973 6.265-2.49 9.479-.142.882-.438 2.716.414 4.581.928 2.031 3.023 3.396 5.216 3.396.604 0 1.196-.101 1.763-.301l5.098-1.797-.378-.512c6.49-2.13 11.182-4.995 14.334-8.752 4.59-5.469 5.393-12.725 1.996-18.056-.936-1.469-2.031-2.513-3.35-3.19-1.159-.598-2.501-.9-3.986-.9z"/></g><g><path class="st149" d="M113.69 156.676c-.672-2.804-3.459-4.88-6.41-7.077-.625-.466-1.246-.93-1.845-1.397-6.176-4.832-9.569-10.896-9.311-16.639.131-2.906 1.261-5.288 3.183-6.709 1.281-.948 2.9-1.449 4.682-1.449 1.692 0 3.442.46 4.928 1.296 2.729 1.534 4.477 3.979 5.826 6.17 2.628 4.264 4.23 8.271 4.897 12.251.804 4.805.17 9.414-1.834 13.329l-2.954 5.072-1.162-4.847z"/><path class="st133" d="M103.989 125.404c1.369 0 2.776.38 3.947 1.039 2.255 1.268 3.801 3.361 5.104 5.476 2.21 3.585 3.945 7.461 4.628 11.533.682 4.072.267 8.358-1.642 12.087l-.391.67c-1.007-4.199-5.405-6.796-8.968-9.583-4.835-3.783-8.808-9.142-8.545-14.974.087-1.934.732-3.977 2.373-5.19.991-.733 2.227-1.058 3.494-1.058m0-4c-2.212 0-4.242.637-5.872 1.842-2.414 1.785-3.832 4.707-3.99 8.227-.395 8.757 6.144 15.227 10.076 18.304.611.478 1.246.951 1.884 1.427 2.651 1.975 5.155 3.84 5.659 5.938l2.325 9.698 5.021-8.617.391-.67.055-.095.05-.097c2.201-4.302 2.902-9.34 2.025-14.57-.71-4.239-2.399-8.482-5.167-12.972-1.397-2.267-3.404-5.095-6.548-6.862-1.782-1.002-3.879-1.553-5.909-1.553z"/></g><g><path class="st149" d="M191.066 182.411c.157-.347.344-.68.532-1.012l4.804-8.612-1.104 11.3-6.976 4.373 2.744-6.049z"/><path class="st133" d="M193.479 182.136c-.025.259-.051.519-.076.778l-.516.324c.173-.381.389-.738.592-1.102m5.843-18.729l-9.338 16.783-.13.23c-.181.317-.405.712-.611 1.169l-5.46 12.072 11.228-7.035.517-.323 1.666-1.044.191-1.957.044-.456.032-.323 1.861-19.116z"/></g><g><path class="st149" d="M191.677 189.988l.624-1.116c1.433-2.562 3.839-4.321 6.182-5.903 2.543-1.718 5.18-3.382 7.837-4.947 1.258-.74 2.512-1.427 4.027-1.678.332-.055.676-.083 1.021-.083 2.641 0 5.589 1.717 5.953 4.589.185 1.47-.243 3.709-3.333 6.037-4.008 3.021-9.062 4.741-14.233 4.843-.194.003-.388.005-.582.005-.372 0-.744-.006-1.117-.012-.352-.005-.704-.011-1.055-.011-.762 0-1.653.022-2.497.19l-1.256.249-1.571-2.163z"/><path class="st133" d="M211.368 178.261c1.854 0 3.756 1.155 3.969 2.84.209 1.66-1.146 3.129-2.552 4.188-3.658 2.758-8.339 4.348-13.069 4.44-.183.003-.365.005-.548.005-.722 0-1.444-.021-2.165-.021-.973 0-1.939.039-2.889.228l-.067-.093c1.222-2.186 3.4-3.767 5.555-5.222 2.521-1.702 5.1-3.33 7.732-4.882 1.04-.612 2.123-1.226 3.339-1.427.228-.038.462-.056.695-.056m0-4c-.455 0-.909.037-1.35.11-2.01.333-3.638 1.293-4.715 1.928a152.559 152.559 0 00-7.94 5.012c-2.542 1.717-5.161 3.639-6.808 6.586l-1.252 2.238 1.513 2.072.067.092 1.505 2.061 2.503-.495c.675-.134 1.446-.151 2.111-.151.34 0 .681.005 1.021.01.381.006.763.012 1.144.012.208 0 .417-.002.626-.006 5.588-.109 11.057-1.972 15.399-5.245 3.854-2.904 4.363-5.89 4.112-7.884-.455-3.615-3.867-6.34-7.936-6.34z"/></g><g><path class="st149" d="M206.841 172.348l1.343-1.273c3.29-3.12 7.229-5.424 10.998-7.448 3.025-1.625 6.579-3.359 10.479-3.359.333 0 .668.013 1.003.039 2.816.222 5.864 1.772 6.327 4.734.385 2.463-1.315 4.913-4.438 6.395-2.768 1.313-5.759 1.872-8.586 2.331a168.139 168.139 0 01-13.535 1.635l-1.049.083-2.542-3.137z"/><path class="st133" d="M229.66 162.268c.281 0 .563.01.848.032 2.009.158 4.221 1.215 4.507 3.049.29 1.854-1.51 3.421-3.319 4.279-2.494 1.183-5.286 1.715-8.05 2.164-4.429.719-8.892 1.257-13.372 1.614l-.714-.881c3.052-2.895 6.782-5.104 10.568-7.138 2.946-1.582 6.158-3.119 9.532-3.119m0-4c-4.365 0-8.187 1.856-11.425 3.597-3.891 2.09-7.968 4.477-11.429 7.759l-2.685 2.547 2.33 2.875.714.88 1.325 1.636 2.1-.168c4.571-.363 9.18-.919 13.695-1.652 2.837-.461 6.116-1.072 9.124-2.498 3.954-1.877 6.084-5.138 5.557-8.511-.631-4.042-4.546-6.137-8.146-6.419a13.952 13.952 0 00-1.16-.046z"/></g><g><path class="st149" d="M127.513 136.266c1.534-3.538 3.121-7.197 5.525-10.508 1.129-1.554 2.95-3.712 5.728-4.519.697-.202 1.428-.305 2.172-.305 3.132 0 6.246 1.816 7.75 4.519 1.632 2.931 1.521 6.676-.296 10.018-1.342 2.471-3.474 4.65-6.71 6.861-4.771 3.259-10.402 5.558-16.284 6.648l-3.693.685 5.808-13.399z"/><path class="st133" d="M140.938 122.936c2.437 0 4.867 1.451 6.002 3.49 1.387 2.492 1.056 5.585-.306 8.09-1.361 2.506-3.637 4.495-6.081 6.165-4.582 3.129-9.926 5.296-15.521 6.333 1.438-3.317 2.876-6.635 4.314-9.953 1.513-3.487 3.041-7.005 5.309-10.128 1.174-1.615 2.653-3.188 4.667-3.772.531-.154 1.074-.225 1.616-.225m0-4c-.934 0-1.853.129-2.73.384-3.369.978-5.487 3.472-6.788 5.263-2.535 3.492-4.166 7.252-5.742 10.888l-2.097 4.837-2.218 5.116-2.988 6.895 7.388-1.37c6.153-1.142 12.049-3.55 17.047-6.964 3.46-2.363 5.861-4.835 7.34-7.558 2.145-3.948 2.252-8.413.286-11.945-1.846-3.318-5.664-5.546-9.498-5.546z"/></g><g><path class="st149" d="M206.194 167.082c.891-6.916 3.611-13.61 7.869-19.358.458-.617 1.848-2.489 4.062-2.489.069 0 .139.002.208.006 1.728.092 3.254 1.397 3.711 3.174.351 1.352.05 2.648-.149 3.506-.504 2.178-1.153 4.701-2.47 7.07-2.252 4.051-6.091 6.973-9.478 9.551l-4.329 3.01.576-4.47z"/><path class="st133" d="M218.126 147.234c.033 0 .067.001.102.003.935.05 1.664.838 1.881 1.675.217.838.033 1.714-.161 2.556-.521 2.248-1.132 4.504-2.27 6.551-2.018 3.629-5.525 6.331-8.94 8.931l-.56.389c.847-6.574 3.44-12.951 7.493-18.424.599-.809 1.408-1.681 2.455-1.681m0-4c-2.141 0-4.048 1.11-5.669 3.3-4.461 6.022-7.312 13.039-8.246 20.292l-1.151 8.942 7.402-5.147.559-.389.07-.049.068-.052c3.542-2.695 7.558-5.75 10.015-10.169 1.376-2.475 2.097-5.111 2.671-7.593.228-.985.608-2.633.137-4.459-.675-2.609-2.953-4.529-5.539-4.668a6.8441 6.8441 0 00-.317-.008z"/></g><g><path class="st149" d="M224.087 159.672l-3.92-.789.229-1.267.995-.498.039-.015 3.922-1.962-1.183 4.32c-.032.121-.075.238-.121.354.012-.031.026-.086.039-.143z"/><path class="st133" d="M222.24 158.935c-.028.104-.082.198-.105.304l.051-.281c.017-.01.036-.015.054-.023m6.129-7.39l-7.713 3.713-.019.007-.19.09-1.843.89-.357 2.014-.051.282 7.85 1.538c-.052.243-.118.424-.145.489.044-.11.128-.319.201-.595l2.267-8.428z"/></g><g><path class="st149" d="M193.047 165.935c.161-1.668.345-3.56 1.297-5.348 1.041-1.952 2.882-3.213 4.805-3.291l.201-.004c2.451 0 4.274 1.765 5.163 3.417 1.49 2.771 1.471 6.31-.054 9.708-1.267 2.822-3.348 5.211-5.185 7.318-1.544 1.771-3.016 3.517-4.047 5.372l-4.67 8.398 2.49-25.57z"/><path class="st133" d="M199.35 159.292c1.484 0 2.737 1.13 3.401 2.364 1.316 2.447 1.015 5.419-.117 7.942s-3.011 4.692-4.867 6.823c-1.576 1.809-3.144 3.657-4.287 5.714.52-5.336 1.038-10.672 1.558-16.008.152-1.571.317-3.184 1.072-4.601.609-1.143 1.738-2.177 3.121-2.232.04-.001.079-.002.119-.002m0-4c-.094 0-.188.002-.282.006-2.63.106-5.116 1.773-6.488 4.349-1.139 2.137-1.352 4.331-1.523 6.094l-.648 6.67-.909 9.338-1.859 19.119 9.337-16.787c.939-1.69 2.337-3.344 3.807-5.03 1.929-2.213 4.114-4.722 5.502-7.815 1.78-3.97 1.776-8.152-.011-11.473-1.486-2.759-4.139-4.471-6.926-4.471z"/></g><g><path class="st149" d="M178.466 214.136c-1.109 0-2.215-.047-3.285-.138l-3.577-.307 3.425-4.602c2.243-4.321 5.468-8.286 9.335-11.475 1.494-1.232 3.536-2.744 6.094-3.507 1.031-.307 2.087-.462 3.139-.462 1.74 0 3.354.437 4.669 1.262 2.73 1.713 4.103 5.185 3.337 8.443-.629 2.673-2.529 5.097-5.354 6.824-2.577 1.578-5.501 2.342-7.761 2.83-3.475.752-6.846 1.132-10.022 1.132z"/><path class="st133" d="M193.596 195.646c1.283 0 2.551.293 3.605.955 2.124 1.333 2.996 3.981 2.453 6.292s-2.31 4.267-4.45 5.577c-2.14 1.31-4.637 2.039-7.14 2.58-3.145.68-6.372 1.085-9.599 1.085a36.38 36.38 0 01-3.114-.131l1.379-1.853c2.134-4.16 5.181-7.923 8.905-10.994 1.595-1.315 3.354-2.525 5.393-3.133.823-.243 1.699-.378 2.568-.378m0-4c-1.245 0-2.493.184-3.709.546-2.9.863-5.155 2.527-6.796 3.88-4.03 3.324-7.4 7.45-9.762 11.951l-1.187 1.593-4.289 5.761 7.156.613c1.127.098 2.29.146 3.456.146 3.318 0 6.832-.396 10.443-1.175 2.414-.522 5.548-1.344 8.384-3.079 3.282-2.01 5.504-4.877 6.255-8.073.958-4.076-.777-8.434-4.22-10.595-1.633-1.026-3.615-1.568-5.731-1.568z"/></g><g><path class="st149" d="M220.309 158.416c.641-2.383 2.242-4.313 3.878-6.045 2.664-2.819 5.978-5.747 10.361-6.082.2-.016.405-.024.61-.024.768 0 1.431.129 2.027.396 1.377.614 2.345 1.995 2.525 3.603.294 2.605-1.402 5.217-4.32 6.652-1.659.816-3.404 1.173-5.092 1.518-.471.097-.94.192-1.406.299-1.998.46-3.949 1.136-5.797 2.011l-3.909 1.852 1.123-4.18z"/><path class="st133" d="M235.156 148.265c.42 0 .839.054 1.214.222.803.358 1.262 1.185 1.354 2 .218 1.935-1.352 3.717-3.216 4.634-1.865.918-4.01 1.192-6.062 1.663-2.15.493-4.236 1.219-6.206 2.151.529-1.97 1.944-3.648 3.4-5.189 2.431-2.573 5.365-5.179 9.06-5.462.151-.013.304-.019.456-.019m0-4c-.255 0-.51.011-.763.03-5.06.387-8.733 3.605-11.66 6.703-1.815 1.922-3.6 4.087-4.356 6.897l-2.249 8.36 7.824-3.706c1.716-.813 3.529-1.441 5.389-1.868.451-.104.908-.197 1.365-.291 1.725-.353 3.681-.753 5.567-1.682 3.685-1.812 5.813-5.215 5.426-8.669-.26-2.309-1.677-4.303-3.698-5.206-.846-.377-1.803-.568-2.845-.568z"/></g><g><path class="st56" d="M86.506 196.292c4.174 2.63 8.542 4.391 12.496 7.293 3.31 2.429 6.476 7.695 8.528 9.002.377-5.868 1.604-10.027.158-15.754-.607-2.405-1.294-8.104-3.316-9.728-4.436 2.916-12.694 5.137-17.841 3.48-5.147-1.656-9.808-5.918-11.298-10.74l.632 3.412c1.548 6.19 4.942 9.445 10.641 13.035zM86.335 157.152l-.374-.023c.154.031.285.107.427.162-.016-.047-.038-.092-.053-.139zM104.478 173.922c1.451 1.25 2.722 2.666 3.945 4.106 1.95 2.298 2.232 3.249 3.416 5.953.315-2.614-.528-4.497-1.152-7.567-.756-3.716-.888-7.59-2.445-11.088-.106-.238-.225-.482-.429-.659-.32-.276-.788-.34-1.224-.394-2.603-.319-5.184-.768-7.763-1.215-3.597-.625-7.438-1.367-9.979-3.79-.764-.728-1.476-1.598-2.459-1.978.8 2.49 2.204 4.815 4.093 6.746 3.942 4.032 9.695 6.178 13.997 9.886zM110.912 150.986c2.274 1.942 4.297 4.407 4.515 7.254l.259.414c1.929-4.715 3.354-10.301 1.716-15.107-2.92 1.041-7.507 1.369-10.463.417s-5.519-2.9-7.093-5.39c1.145 2.348 2.376 4.696 4.178 6.664 1.999 2.184 4.614 3.806 6.888 5.748zM123.849 135.033c1.043-1.588 1.981-3.232 2.784-4.934 1.113-2.357 1.953-5.197.504-7.396-1.687 1.757-4.691 2.072-7.051 1.185-2.358-.888-4.133-2.76-5.395-4.796.624 3.042 3.021 5.469 5.163 7.857 2.097 2.338 4.117 5.072 3.995 8.084zM123.853 135.229c.005-.066-.006-.13-.004-.195-.072.11-.135.227-.209.338l.213-.143zM133.041 118.47l-.021.458c2.83-5.218 4.514-10.958 4.92-16.777-.677 1.098-1.565 2.083-2.612 2.898-.774.604-1.673 1.126-2.68 1.241s-2.132-.267-2.599-1.095c.107 4.555 3.713 8.767 2.992 13.275zM148.665 100.916c1.354-1.632 2.301-3.599 2.383-5.649.009-.214-.083-.507-.313-.478-.135.017-.213.145-.273.258-1.302 2.403-4.069 3.777-6.67 5.001-.032 1.528-.064 3.058-.097 4.586l.048.419c1.824-1.18 3.569-2.504 4.922-4.137zM150.926 112.103c-2.691.591-5.595.61-8.164-.335-1.048 1.601-1.637 3.454-1.689 5.321l-.132.73c6.695-.786 12.335-4.809 17.607-8.683-2.416 1.243-4.93 2.376-7.622 2.967zM124.837 147.167l.444.845c2.938-1.281 5.862-2.586 8.774-3.914 2.612-1.193 5.233-2.416 7.525-4.074 2.292-1.657 4.259-3.797 5.173-6.343.608-1.693.733-3.499 1.177-5.234-1.364 3.319-4.255 5.879-7.058 8.319-.934.812-1.879 1.633-2.993 2.221-2.563 1.354-5.678 1.33-8.628 1.514-.422.027-.885.076-1.176.357-.13.127-.212.287-.291.445-.981 1.955-1.964 3.91-2.947 5.864zM138.365 159.421c-.257-.08-.52.084-.734.236-5.345 3.794-11.876 5.876-17.611 9.151-1.332.761-2.665 1.629-3.443 2.881s-.848 2.984.23 4.031l1.226.495c1.202-.118 1.08-.387 2.197-.811 3.927-1.491 7.812-3.187 11.145-5.608s6.107-5.641 7.246-9.404c.108-.355.125-.853-.256-.971zM120.535 200.998c2.213-1.291 4.62-2.27 6.96-3.355 2.608-1.21 5.393-2.863 5.988-5.493-2.47 2.754-5.818 4.987-9.646 5.588-3.827.6-8.117-.691-10.262-3.667.924 3.936 1.283 7.984 1.065 12.006l.372-.039c1.27-2.109 3.31-3.75 5.523-5.04zM111.355 233.541c-.348-.291-.843-.369-1.307-.442-8.937-1.414-17.238-5.981-22.82-12.552l.155.184c1.553 3.272 4.607 5.701 7.55 8.031 6.997 5.543 13.951 11.229 19.558 17.977 3.42 4.115 6.323 8.607 10.144 12.412.445.443.964.905 1.619.955-1.982-3.744-3.914-7.101-6.168-10.712-2.981-4.776-5.887-9.963-8.2-15.043-.134-.292-.276-.595-.531-.81zM128.215 223.956c-4.073.964-8.791-.538-11.072-3.788-.492 5.712 3.612 11.207 2.759 16.882l-.396.46c4.79-1.637 9.04-4.586 12.063-8.373s4.81-8.398 5.071-13.09c-1.097 3.733-4.352 6.946-8.425 7.909zM181.258 225.098c-5.025 3.527-11.885 3.558-17.907 5.327-.611.179-1.237.39-1.694.804-.395.358-.627.836-.851 1.302-.773 1.612-1.547 3.224-2.32 4.835l1.226-.287c3.174-.171 5.974-.995 8.859-1.623s5.92-2.188 8.528-3.484c2.607-1.297 4.758-2.74 5.527-5.372.114-.393-.368-1.682-.807-1.725-.208-.021-.394.105-.561.223zM153.725 233.857c.528-1.535 1.456-4.218 1.737-5.808.939-5.313.827-9.877 1.264-15.245-4.85 1.85-12.073 1.706-16.224-1.25.541 1.303.825 2.695.835 4.09.005.614-.042 1.242.149 1.831.176.541.54 1.01.876 1.481 2.245 3.156 3.417 6.849 4.316 10.528.578 2.362.162 5.728.255 8.147.222 5.766-1.583 9.847-3.316 15.391-1.733 5.545-1.896 11.6-.79 17.278l.948-5.372c.947-3.484 1.421-4.791 1.737-9.873.338-5.445 3.24-10.795 5.527-15.826.699-1.535 2.141-3.784 2.686-5.372zM162.518 217.723c2.518-2.542 4.307-5.781 5.157-9.129.981-3.859 1.849-7.854 2.106-11.809-.539 2.531-2.632 4.821-4.442 6.792-.735.8-1.625 1.562-2.74 1.775s-2.021-.91-2.241-1.938l.369 1.791c1.898 4.03 2.326 8.154 1.791 12.518zM179.34 206.628c-.82 1.974-2.059 3.8-3.626 5.347l.412.51c3.453-.559 7.152-.427 10.606-.986 3.069-.498 5.994-1.724 8.581-3.323 2.586-1.601 4.439-4.575 3.593-7.333-1.495 2.341-4.336 3.662-7.147 4.493-3.992 1.178-8.24 1.62-12.419 1.292zM176.281 201.964c.197-.403.324-.825.438-1.249-.336.438-.672.877-1.007 1.315l.569-.066zM179.312 197.328c1.431-1.869 3.067-2.482 4.104-4.561.486-.973 1.6-3.66 2.054-4.646 1.041-2.259 1.483-3.984 2.388-6.293.903-2.309 1.328-4.891.441-7.205-.448 5.818-4.841 11.225-10.782 13.27-.41.141-.856.288-1.101.622-.172.235-.216.528-.242.811-.2 2.123.313 4.239.634 6.35.253 1.673.349 3.418-.087 5.04.863-1.13 1.726-2.259 2.591-3.388zM209.391 182.736c-2.341 2.139-5.591 3.201-8.797 3.924-1.144.258-2.315.487-3.349 1.008s-1.93 1.395-2.11 2.465l.094-.161c1.27-.357 2.631-.142 3.958-.11 3.867.091 7.569-1.411 10.919-3.191 1.15-.611 2.318-1.297 3.013-2.338.339-.509.553-1.109.472-1.701-.082-.592-.501-1.164-1.117-1.352-1.162-.356-2.216.663-3.083 1.456zM199.62 174.597c1.682-2.332 3.321-4.878 3.363-7.675-1.476 2.607-4.065 4.666-7.086 5.631-.173.056-.356.112-.477.24-.12.129-.154.308-.184.476-.448 2.612-.897 5.226-1.347 7.837l.254-.011c2.078-1.972 3.827-4.212 5.477-6.498zM214.686 161.986c.72-.662 1.442-1.914 1.886-2.757.442-.843.549-1.895.012-2.69-1.537 1.47-3.295 2.744-5.21 3.773-.203.109-.412.219-.567.382-.148.156-.238.351-.325.542a45.4176 45.4176 0 00-2.123 5.701l.126.174c2.063-1.898 4.136-3.225 6.201-5.125zM233.237 168.062c.632-.743 1.062-1.805.533-2.613-1.587 1.972-4.283 2.869-6.859 3.508-3.608.895-7.305 1.489-11.029 1.773-1.102.085-2.23.147-3.249.543-1.019.396-1.925 1.206-2.05 2.216l-.562.133c5.938-1.353 12.268-.956 18.096-2.667 1.937-.57 3.868-1.42 5.12-2.893zM226.297 157.272c1.467-.376 2.993-.55 4.435-.999 2.02-.631 4.74-1.316 6.064-2.854.791-.919 1.335-2.86.789-3.92-.838 2.01-3.535 3.756-5.679 4.622s-4.533 1.105-6.874 1.04c-.215-.006-.443-.012-.631.085-.17.088-.279.247-.38.4-.562.863-1.044 1.771-1.439 2.709l-.133 1.034c.915-1.117 2.382-1.741 3.848-2.117zM146.92 294.49c.045-.143.106-.267.154-.405.018-.182.021-.367.045-.547l-.199.952zM196.261 252.539c-10.727 6.207-19.675 12.334-26.953 17.715-5.18 3.828-9.371 9.002-14.004 13.454-3.529 3.393-6.702 5.985-8.229 10.377-.153 1.615-.008 3.308 1.031 4.595 1.392 1.723 4.064 2.243 6.333 1.735 2.269-.509 4.198-1.86 5.917-3.313 3.816-3.226 6.516-6.526 9.688-10.296 8.01-9.513 14.772-17.968 24.427-26.231 6.106-5.228 38.113-20.183 46.694-28.652-11.41 5.806-30.118 12.06-44.904 20.616zM83.678 256.294c-3.557-2.209-7.154-4.42-11.13-5.906-3.977-1.485-5.632-2.494-10.106-3.56 0 0-4.422 0-4.633.291-.21.29 9.578 2.845 12.972 4.807 11.947 6.906 22.879 17.004 32.196 26.749 5.75 6.014 10.896 10.954 17.688 15.968 1.872 1.382 3.937 2.673 6.301 3.062.477.078 1.015.105 1.398-.166.222-.157.359-.394.459-.634.768-1.86-.459-3.875-1.704-5.502-11.159-14.583-27.372-25.13-43.441-35.109z"/></g></g><g class="st273" id="Highlight"><radialGradient id="SVGID_9_" cx="21.624" cy="-19.6914" r="62.5386" gradientUnits="userSpaceOnUse"><stop offset="0" stop-color="#fff" stop-opacity="0"/><stop offset=".9" stop-color="#fff" stop-opacity=".8"/></radialGradient><path d="M21.624 42.847c-34.483 0-62.538-28.055-62.538-62.538s28.055-62.538 62.538-62.538c34.484 0 62.539 28.055 62.539 62.538S56.108 42.847 21.624 42.847z" fill="url(#SVGID_9_)"/><path d="M21.624-80.729c33.656 0 61.038 27.382 61.038 61.038 0 33.657-27.382 61.039-61.038 61.039s-61.038-27.382-61.038-61.039 27.382-61.038 61.038-61.038m0-3c-35.367 0-64.038 28.671-64.038 64.038s28.671 64.039 64.038 64.039 64.038-28.672 64.038-64.039-28.671-64.038-64.038-64.038z" fill="#fff"/></g></svg>