<svg xmlns="http://www.w3.org/2000/svg" width="292.08" height="406.32"><style>.st273{display:none}</style><g id="Cards_1_"><g id="Dev_card"><radialGradient id="SVGID_1_" cx="138.8589" cy="200.1816" r="162.2684" gradientTransform="matrix(0 -1 1.064 0 -70.2017 339.0405)" gradientUnits="userSpaceOnUse"><stop offset="0" stop-color="#c889ba"/><stop offset=".2068" stop-color="#bf83ba"/><stop offset=".544" stop-color="#a774ba"/><stop offset=".9674" stop-color="#7f5cba"/><stop offset="1" stop-color="#7c5aba"/></radialGradient><path d="M16.218 390.182c-3.402 0-6.169-2.768-6.169-6.169V16.352c0-3.402 2.768-6.17 6.169-6.17h253.161c3.402 0 6.169 2.768 6.169 6.17v367.661c0 3.401-2.768 6.169-6.169 6.169H16.218z" fill="url(#SVGID_1_)"/><path d="M265.549 20.183v360h-245.5v-360h245.5m3.83-20H16.219C7.288.183.049 7.421.049 16.352v367.661c0 8.931 7.239 16.17 16.17 16.17H269.38c8.93 0 16.169-7.239 16.169-16.17V16.352c0-8.931-7.239-16.169-16.17-16.169z" fill="#c99ee8"/><path d="M269.379 10.183c3.402 0 6.169 2.768 6.169 6.169v367.661c0 3.402-2.768 6.17-6.169 6.17H16.219c-3.402 0-6.17-2.768-6.17-6.17V16.352c0-3.401 2.768-6.169 6.17-6.169h253.16m0-10H16.219C7.288.183.049 7.421.049 16.352v367.661c0 8.931 7.239 16.17 16.17 16.17H269.38c8.93 0 16.169-7.239 16.169-16.17V16.352c0-8.931-7.239-16.169-16.17-16.169z" fill="#414042"/></g></g><g id="Card_x5F_Icons"><circle cx="143.072" cy="200.872" r="103.102" fill="#cceffe"/><radialGradient id="SVGID_2_" cx="143.0723" cy="200.8721" r="109.1023" gradientUnits="userSpaceOnUse"><stop offset="0" stop-color="#3ba2c6"/><stop offset=".2374" stop-color="#3799c1"/><stop offset=".6232" stop-color="#2b81b5"/><stop offset="1" stop-color="#1d63a6"/></radialGradient><path d="M143.073 97.771c56.941 0 103.102 46.16 103.102 103.102 0 56.942-46.16 103.103-103.102 103.103-56.942 0-103.103-46.16-103.103-103.103 0-56.942 46.16-103.102 103.103-103.102m0-6c-29.143 0-56.541 11.349-77.147 31.955-20.606 20.606-31.955 48.004-31.955 77.146s11.349 56.541 31.955 77.147c20.607 20.606 48.005 31.955 77.147 31.955 29.142 0 56.54-11.349 77.146-31.955s31.955-48.005 31.955-77.147-11.349-56.54-31.955-77.146-48.004-31.955-77.146-31.955z" fill="url(#SVGID_2_)"/><linearGradient id="SVGID_3_" gradientUnits="userSpaceOnUse" x1="143.0723" y1="200.8721" x2="143.0723" y2="107.7705"><stop offset="0" stop-color="#8adbe0"/><stop offset=".222" stop-color="#82d2dd"/><stop offset=".584" stop-color="#6cbad5"/><stop offset="1" stop-color="#4b96ca"/></linearGradient><path d="M236.174 200.872H49.97c0-51.418 41.684-93.102 93.103-93.102 51.418.001 93.101 41.684 93.101 93.102z" fill="url(#SVGID_3_)"/><linearGradient id="SVGID_4_" gradientUnits="userSpaceOnUse" x1="143.0723" y1="293.9746" x2="143.0723" y2="200.8721"><stop offset="0" stop-color="#b5db4b"/><stop offset=".2088" stop-color="#acd648"/><stop offset=".5493" stop-color="#94c93f"/><stop offset=".9769" stop-color="#6cb332"/><stop offset="1" stop-color="#6ab231"/></linearGradient><path d="M236.174 200.872H49.97c0 51.419 41.684 93.103 93.103 93.103 51.418 0 93.101-41.684 93.101-93.103z" fill="url(#SVGID_4_)"/><path d="M95.137 259.287l106.35-106.35c1.298-1.298 1.298-3.402 0-4.7l-7.395-7.396c-1.298-1.298-3.402-1.298-4.7 0L83.042 247.192c-1.298 1.298-1.298 3.402 0 4.7l7.396 7.395c1.297 1.298 3.401 1.298 4.699 0z" fill="#b4510e" stroke="#4f1607" stroke-width="3" stroke-miterlimit="10"/><path d="M94.511 258.059l104.244-104.244c2.883-2.419 2.32-4.106 1.436-4.804L92.066 257.136c-2.735.949.637 2.97 2.445.923z" opacity=".42" fill="#6d330c"/><g><path d="M201.733 194.084c-1.142 0-2.216-.437-3.032-1.23l-26.482-22.751-21.13-24.862c-1.649-1.699-1.633-4.424.046-6.105l10.854-10.854c.822-.822 1.915-1.274 3.077-1.274 1.141 0 2.214.436 3.031 1.229l24.855 21.242 22.755 26.368c.794.816 1.231 1.892 1.231 3.033 0 1.163-.453 2.256-1.274 3.077L204.81 192.81c-.822.822-1.914 1.274-3.077 1.274z" fill="#ccd7cf"/><path d="M165.065 128.507c.73 0 1.459.278 2.016.835l24.809 21.202 22.713 26.319c1.113 1.113 1.113 2.919 0 4.032l-10.854 10.854c-.557.557-1.286.835-2.016.835s-1.459-.278-2.016-.835l-26.432-22.708-21.09-24.813c-1.113-1.113-1.113-2.918 0-4.032l10.854-10.854c.557-.557 1.286-.835 2.016-.835m0-3c-1.563 0-3.032.608-4.137 1.714l-10.854 10.854c-2.247 2.249-2.28 5.885-.1 8.173L171 170.983l.153.18.178.153 26.36 22.646c1.094 1.047 2.524 1.621 4.042 1.621 1.563 0 3.032-.608 4.137-1.714l10.854-10.854c2.251-2.251 2.281-5.895.091-8.182l-22.653-26.251-.149-.173-.173-.147-24.735-21.14c-1.093-1.042-2.522-1.615-4.04-1.615z" fill="#6d6e71"/></g><g><path d="M203.75 191.749l10.854-10.854c1.113-1.113 1.113-2.919 0-4.032l-22.713-26.319-18.604 18.497 26.432 22.708c1.112 1.113 2.917 1.113 4.031 0z" fill="#a7a9ac"/></g></g></svg>